<?xml version="1.0" encoding="UTF-8" standalone="no"?>
<!DOCTYPE svg PUBLIC "-//W3C//DTD SVG 1.1//EN"
 "http://www.w3.org/Graphics/SVG/1.1/DTD/svg11.dtd">
<!-- Generated by graphviz version 2.38.0 (20140413.2041)
 -->
<!-- Title: coredefs.h Pages: 1 -->
<!--zoomable 140 -->
<svg id="main" version="1.1" xmlns="http://www.w3.org/2000/svg" xmlns:xlink="http://www.w3.org/1999/xlink" xml:space="preserve" onload="init(evt)">
<style type="text/css"><![CDATA[
.edge:hover path { stroke: red; }
.edge:hover polygon { stroke: red; fill: red; }
]]></style>
<script type="text/javascript"><![CDATA[
var edges = document.getElementsByTagName('g');
if (edges && edges.length) {
  for (var i=0;i<edges.length;i++) {
    if (edges[i].id.substr(0,4)=='edge') {
      edges[i].setAttribute('class','edge');
    }
  }
}
]]></script>
        <defs>
                <circle id="rim" cx="0" cy="0" r="7"/>
                <circle id="rim2" cx="0" cy="0" r="3.5"/>
                <g id="zoomPlus">
                        <use xlink:href="#rim" fill="#404040">
                                <set attributeName="fill" to="#808080" begin="zoomplus.mouseover" end="zoomplus.mouseout"/>
                        </use>
                        <path d="M-4,0h8M0,-4v8" fill="none" stroke="white" stroke-width="1.5" pointer-events="none"/>
                </g>
                <g id="zoomMin">
                        <use xlink:href="#rim" fill="#404040">
                                <set attributeName="fill" to="#808080" begin="zoomminus.mouseover" end="zoomminus.mouseout"/>
                        </use>
                        <path d="M-4,0h8" fill="none" stroke="white" stroke-width="1.5" pointer-events="none"/>
                </g>
                <g id="dirArrow">
                        <path fill="none" stroke="white" stroke-width="1.5" d="M0,-3.0v7 M-2.5,-0.5L0,-3.0L2.5,-0.5"/>
                </g>
               <g id="resetDef">
                       <use xlink:href="#rim2" fill="#404040">
                               <set attributeName="fill" to="#808080" begin="reset.mouseover" end="reset.mouseout"/>
                       </use>
               </g>
        </defs>

<script type="text/javascript">
var viewWidth = 1154;
var viewHeight = 140;
var sectionId = 'dynsection-0';
</script>
<script xlink:href="svgpan.js"/>
<svg id="graph" class="graph">
<g id="viewport">
<title>coredefs.h</title>
<polygon fill="white" stroke="none" points="-4,4 -4,-136 1149.5,-136 1149.5,4 -4,4"/>
<!-- Node1 -->
<g id="node1" class="node"><title>Node1</title>
<polygon fill="#bfbfbf" stroke="black" points="530,-112.5 530,-131.5 594,-131.5 594,-112.5 530,-112.5"/>
<text text-anchor="middle" x="562" y="-119.5" font-family="Helvetica,sans-Serif" font-size="10.00">coredefs.h</text>
</g>
<!-- Node2 -->
<g id="node2" class="node"><title>Node2</title>
<g id="a_node2"><a xlink:href="string__util_8h.html" target="_top" xlink:title="string_util.h">
<polygon fill="white" stroke="black" points="576.5,-56.5 576.5,-75.5 641.5,-75.5 641.5,-56.5 576.5,-56.5"/>
<text text-anchor="middle" x="609" y="-63.5" font-family="Helvetica,sans-Serif" font-size="10.00">string_util.h</text>
</a>
</g>
</g>
<!-- Node1&#45;&gt;Node2 -->
<g id="edge1" class="edge"><title>Node1&#45;&gt;Node2</title>
<path fill="none" stroke="midnightblue" d="M576.421,-104.431C584.658,-94.9673 594.654,-83.4827 601.383,-75.7511"/>
<polygon fill="midnightblue" stroke="midnightblue" points="573.686,-102.242 569.761,-112.083 578.966,-106.838 573.686,-102.242"/>
</g>
<!-- Node10 -->
<g id="node10" class="node"><title>Node10</title>
<g id="a_node10"><a xlink:href="report__util_8c.html" target="_top" xlink:title="report_util.c">
<polygon fill="white" stroke="black" points="741.5,-0.5 741.5,-19.5 808.5,-19.5 808.5,-0.5 741.5,-0.5"/>
<text text-anchor="middle" x="775" y="-7.5" font-family="Helvetica,sans-Serif" font-size="10.00">report_util.c</text>
</a>
</g>
</g>
<!-- Node1&#45;&gt;Node10 -->
<g id="edge28" class="edge"><title>Node1&#45;&gt;Node10</title>
<path fill="none" stroke="midnightblue" d="M587.943,-107.792C605.481,-98.8492 629.154,-86.7499 650,-76 688.914,-55.933 734.523,-32.1495 758.438,-19.6577"/>
<polygon fill="midnightblue" stroke="midnightblue" points="586.208,-104.748 578.888,-112.407 589.387,-110.985 586.208,-104.748"/>
</g>
<!-- Node15 -->
<g id="node15" class="node"><title>Node15</title>
<g id="a_node15"><a xlink:href="data__structures_8h.html" target="_top" xlink:title="data_structures.h">
<polygon fill="white" stroke="black" points="86,-56.5 86,-75.5 178,-75.5 178,-56.5 86,-56.5"/>
<text text-anchor="middle" x="132" y="-63.5" font-family="Helvetica,sans-Serif" font-size="10.00">data_structures.h</text>
</a>
</g>
</g>
<!-- Node1&#45;&gt;Node15 -->
<g id="edge14" class="edge"><title>Node1&#45;&gt;Node15</title>
<path fill="none" stroke="midnightblue" d="M519.328,-115.641C438.078,-105.438 261.807,-83.3013 178.021,-72.7793"/>
<polygon fill="midnightblue" stroke="midnightblue" points="519.322,-119.168 529.68,-116.941 520.194,-112.222 519.322,-119.168"/>
</g>
<!-- Node16 -->
<g id="node16" class="node"><title>Node16</title>
<g id="a_node16"><a xlink:href="report__util_8h.html" target="_top" xlink:title="report_util.h">
<polygon fill="white" stroke="black" points="482.5,-56.5 482.5,-75.5 549.5,-75.5 549.5,-56.5 482.5,-56.5"/>
<text text-anchor="middle" x="516" y="-63.5" font-family="Helvetica,sans-Serif" font-size="10.00">report_util.h</text>
</a>
</g>
</g>
<!-- Node1&#45;&gt;Node16 -->
<g id="edge17" class="edge"><title>Node1&#45;&gt;Node16</title>
<path fill="none" stroke="midnightblue" d="M547.886,-104.431C539.824,-94.9673 530.041,-83.4827 523.455,-75.7511"/>
<polygon fill="midnightblue" stroke="midnightblue" points="545.255,-106.74 554.404,-112.083 550.584,-102.201 545.255,-106.74"/>
</g>
<!-- Node18 -->
<g id="node18" class="node"><title>Node18</title>
<g id="a_node18"><a xlink:href="edid_8h.html" target="_top" xlink:title="edid.h">
<polygon fill="white" stroke="black" points="308,-56.5 308,-75.5 352,-75.5 352,-56.5 308,-56.5"/>
<text text-anchor="middle" x="330" y="-63.5" font-family="Helvetica,sans-Serif" font-size="10.00">edid.h</text>
</a>
</g>
</g>
<!-- Node1&#45;&gt;Node18 -->
<g id="edge26" class="edge"><title>Node1&#45;&gt;Node18</title>
<path fill="none" stroke="midnightblue" d="M519.705,-111.155C470.392,-99.6774 390.743,-81.1385 352.245,-72.1777"/>
<polygon fill="midnightblue" stroke="midnightblue" points="519.208,-114.633 529.741,-113.492 520.795,-107.816 519.208,-114.633"/>
</g>
<!-- Node19 -->
<g id="node19" class="node"><title>Node19</title>
<g id="a_node19"><a xlink:href="x11__util_8h.html" target="_top" xlink:title="x11_util.h">
<polygon fill="white" stroke="black" points="944.5,-56.5 944.5,-75.5 1003.5,-75.5 1003.5,-56.5 944.5,-56.5"/>
<text text-anchor="middle" x="974" y="-63.5" font-family="Helvetica,sans-Serif" font-size="10.00">x11_util.h</text>
</a>
</g>
</g>
<!-- Node1&#45;&gt;Node19 -->
<g id="edge29" class="edge"><title>Node1&#45;&gt;Node19</title>
<path fill="none" stroke="midnightblue" d="M604.496,-115.43C688.16,-104.464 872.341,-80.3242 944.334,-70.8883"/>
<polygon fill="midnightblue" stroke="midnightblue" points="603.789,-111.993 594.329,-116.763 604.699,-118.933 603.789,-111.993"/>
</g>
<!-- Node3 -->
<g id="node3" class="node"><title>Node3</title>
<g id="a_node3"><a xlink:href="data__structures_8c.html" target="_top" xlink:title="data_structures.c">
<polygon fill="white" stroke="black" points="86,-0.5 86,-19.5 178,-19.5 178,-0.5 86,-0.5"/>
<text text-anchor="middle" x="132" y="-7.5" font-family="Helvetica,sans-Serif" font-size="10.00">data_structures.c</text>
</a>
</g>
</g>
<!-- Node2&#45;&gt;Node3 -->
<g id="edge2" class="edge"><title>Node2&#45;&gt;Node3</title>
<path fill="none" stroke="midnightblue" d="M566.285,-57.2104C563.485,-56.7775 560.705,-56.3693 558,-56 393.86,-33.5881 351.277,-41.3878 187,-20 184.122,-19.6253 181.163,-19.2147 178.181,-18.782"/>
<polygon fill="midnightblue" stroke="midnightblue" points="565.979,-60.7065 576.411,-58.8593 567.104,-53.7975 565.979,-60.7065"/>
</g>
<!-- Node4 -->
<g id="node4" class="node"><title>Node4</title>
<g id="a_node4"><a xlink:href="device__id__util_8c.html" target="_top" xlink:title="device_id_util.c">
<polygon fill="white" stroke="black" points="566,-0.5 566,-19.5 652,-19.5 652,-0.5 566,-0.5"/>
<text text-anchor="middle" x="609" y="-7.5" font-family="Helvetica,sans-Serif" font-size="10.00">device_id_util.c</text>
</a>
</g>
</g>
<!-- Node2&#45;&gt;Node4 -->
<g id="edge3" class="edge"><title>Node2&#45;&gt;Node4</title>
<path fill="none" stroke="midnightblue" d="M609,-45.8045C609,-36.9102 609,-26.7798 609,-19.7511"/>
<polygon fill="midnightblue" stroke="midnightblue" points="605.5,-46.083 609,-56.083 612.5,-46.083 605.5,-46.083"/>
</g>
<!-- Node5 -->
<g id="node5" class="node"><title>Node5</title>
<g id="a_node5"><a xlink:href="edid_8c.html" target="_top" xlink:title="edid.c">
<polygon fill="white" stroke="black" points="196,-0.5 196,-19.5 240,-19.5 240,-0.5 196,-0.5"/>
<text text-anchor="middle" x="218" y="-7.5" font-family="Helvetica,sans-Serif" font-size="10.00">edid.c</text>
</a>
</g>
</g>
<!-- Node2&#45;&gt;Node5 -->
<g id="edge4" class="edge"><title>Node2&#45;&gt;Node5</title>
<path fill="none" stroke="midnightblue" d="M566.276,-57.271C563.478,-56.8234 560.701,-56.3953 558,-56 421.195,-35.9774 384.526,-47.3693 249,-20 246.143,-19.4231 243.168,-18.7093 240.241,-17.9379"/>
<polygon fill="midnightblue" stroke="midnightblue" points="565.959,-60.7662 576.398,-58.9532 567.107,-53.861 565.959,-60.7662"/>
</g>
<!-- Node6 -->
<g id="node6" class="node"><title>Node6</title>
<g id="a_node6"><a xlink:href="failsim_8c.html" target="_top" xlink:title="failsim.c">
<polygon fill="white" stroke="black" points="670.5,-0.5 670.5,-19.5 723.5,-19.5 723.5,-0.5 670.5,-0.5"/>
<text text-anchor="middle" x="697" y="-7.5" font-family="Helvetica,sans-Serif" font-size="10.00">failsim.c</text>
</a>
</g>
</g>
<!-- Node2&#45;&gt;Node6 -->
<g id="edge5" class="edge"><title>Node2&#45;&gt;Node6</title>
<path fill="none" stroke="midnightblue" d="M631.977,-50.9005C648.113,-40.9986 669.181,-28.0705 682.896,-19.6545"/>
<polygon fill="midnightblue" stroke="midnightblue" points="629.831,-48.1106 623.139,-56.324 633.493,-54.0769 629.831,-48.1106"/>
</g>
<!-- Node7 -->
<g id="node7" class="node"><title>Node7</title>
<g id="a_node7"><a xlink:href="file__util_8c.html" target="_top" xlink:title="file_util.c">
<polygon fill="white" stroke="black" points="827,-0.5 827,-19.5 881,-19.5 881,-0.5 827,-0.5"/>
<text text-anchor="middle" x="854" y="-7.5" font-family="Helvetica,sans-Serif" font-size="10.00">file_util.c</text>
</a>
</g>
</g>
<!-- Node2&#45;&gt;Node7 -->
<g id="edge6" class="edge"><title>Node2&#45;&gt;Node7</title>
<path fill="none" stroke="midnightblue" d="M651.746,-56.0854C693.845,-47.2271 759.95,-33.1076 817,-20 820.222,-19.2598 823.596,-18.4655 826.941,-17.6663"/>
<polygon fill="midnightblue" stroke="midnightblue" points="650.908,-52.685 641.841,-58.1657 652.347,-59.5356 650.908,-52.685"/>
</g>
<!-- Node8 -->
<g id="node8" class="node"><title>Node8</title>
<g id="a_node8"><a xlink:href="glib__string__util_8c.html" target="_top" xlink:title="glib_string_util.c">
<polygon fill="white" stroke="black" points="899,-0.5 899,-19.5 985,-19.5 985,-0.5 899,-0.5"/>
<text text-anchor="middle" x="942" y="-7.5" font-family="Helvetica,sans-Serif" font-size="10.00">glib_string_util.c</text>
</a>
</g>
</g>
<!-- Node2&#45;&gt;Node8 -->
<g id="edge7" class="edge"><title>Node2&#45;&gt;Node8</title>
<path fill="none" stroke="midnightblue" d="M652.008,-58.2849C707.163,-49.6335 805.758,-34.035 890,-20 892.892,-19.5182 895.873,-19.0162 898.877,-18.5066"/>
<polygon fill="midnightblue" stroke="midnightblue" points="651.238,-54.8627 641.9,-59.8688 652.321,-61.7783 651.238,-54.8627"/>
</g>
<!-- Node9 -->
<g id="node9" class="node"><title>Node9</title>
<g id="a_node9"><a xlink:href="libdrm__util_8c.html" target="_top" xlink:title="libdrm_util.c">
<polygon fill="white" stroke="black" points="0,-0.5 0,-19.5 68,-19.5 68,-0.5 0,-0.5"/>
<text text-anchor="middle" x="34" y="-7.5" font-family="Helvetica,sans-Serif" font-size="10.00">libdrm_util.c</text>
</a>
</g>
</g>
<!-- Node2&#45;&gt;Node9 -->
<g id="edge8" class="edge"><title>Node2&#45;&gt;Node9</title>
<path fill="none" stroke="midnightblue" d="M566.294,-57.1409C563.492,-56.725 560.708,-56.3395 558,-56 345.289,-29.339 289.263,-50.0238 77,-20 74.1303,-19.5941 71.1651,-19.1104 68.1959,-18.5809"/>
<polygon fill="midnightblue" stroke="midnightblue" points="566,-60.638 576.425,-58.7518 567.099,-53.7248 566,-60.638"/>
</g>
<!-- Node2&#45;&gt;Node10 -->
<g id="edge9" class="edge"><title>Node2&#45;&gt;Node10</title>
<path fill="none" stroke="midnightblue" d="M644.953,-53.3044C676.232,-43.1294 720.821,-28.6246 748.82,-19.5164"/>
<polygon fill="midnightblue" stroke="midnightblue" points="643.73,-50.0217 635.303,-56.4435 645.895,-56.6783 643.73,-50.0217"/>
</g>
<!-- Node11 -->
<g id="node11" class="node"><title>Node11</title>
<g id="a_node11"><a xlink:href="string__util_8c.html" target="_top" xlink:title="string_util.c">
<polygon fill="white" stroke="black" points="1003.5,-0.5 1003.5,-19.5 1068.5,-19.5 1068.5,-0.5 1003.5,-0.5"/>
<text text-anchor="middle" x="1036" y="-7.5" font-family="Helvetica,sans-Serif" font-size="10.00">string_util.c</text>
</a>
</g>
</g>
<!-- Node2&#45;&gt;Node11 -->
<g id="edge10" class="edge"><title>Node2&#45;&gt;Node11</title>
<path fill="none" stroke="midnightblue" d="M651.967,-61.3178C723.297,-54.9053 870.535,-40.3968 994,-20 997.09,-19.4895 1000.3,-18.9043 1003.5,-18.2825"/>
<polygon fill="midnightblue" stroke="midnightblue" points="651.246,-57.868 641.596,-62.241 651.867,-64.8405 651.246,-57.868"/>
</g>
<!-- Node12 -->
<g id="node12" class="node"><title>Node12</title>
<g id="a_node12"><a xlink:href="subprocess__util_8c.html" target="_top" xlink:title="subprocess_util.c">
<polygon fill="white" stroke="black" points="372.5,-0.5 372.5,-19.5 465.5,-19.5 465.5,-0.5 372.5,-0.5"/>
<text text-anchor="middle" x="419" y="-7.5" font-family="Helvetica,sans-Serif" font-size="10.00">subprocess_util.c</text>
</a>
</g>
</g>
<!-- Node2&#45;&gt;Node12 -->
<g id="edge11" class="edge"><title>Node2&#45;&gt;Node12</title>
<path fill="none" stroke="midnightblue" d="M569.236,-53.6986C533.377,-43.507 481.429,-28.7429 448.965,-19.5164"/>
<polygon fill="midnightblue" stroke="midnightblue" points="568.318,-57.0763 578.894,-56.4435 570.232,-50.343 568.318,-57.0763"/>
</g>
<!-- Node13 -->
<g id="node13" class="node"><title>Node13</title>
<g id="a_node13"><a xlink:href="udev__util_8c.html" target="_top" xlink:title="udev_util.c">
<polygon fill="white" stroke="black" points="484,-0.5 484,-19.5 548,-19.5 548,-0.5 484,-0.5"/>
<text text-anchor="middle" x="516" y="-7.5" font-family="Helvetica,sans-Serif" font-size="10.00">udev_util.c</text>
</a>
</g>
</g>
<!-- Node2&#45;&gt;Node13 -->
<g id="edge12" class="edge"><title>Node2&#45;&gt;Node13</title>
<path fill="none" stroke="midnightblue" d="M585.194,-51.1774C568.081,-41.2407 545.535,-28.1492 530.905,-19.6545"/>
<polygon fill="midnightblue" stroke="midnightblue" points="583.653,-54.3293 594.058,-56.324 587.168,-48.2758 583.653,-54.3293"/>
</g>
<!-- Node14 -->
<g id="node14" class="node"><title>Node14</title>
<g id="a_node14"><a xlink:href="x11__util_8c.html" target="_top" xlink:title="x11_util.c">
<polygon fill="white" stroke="black" points="1086.5,-0.5 1086.5,-19.5 1145.5,-19.5 1145.5,-0.5 1086.5,-0.5"/>
<text text-anchor="middle" x="1116" y="-7.5" font-family="Helvetica,sans-Serif" font-size="10.00">x11_util.c</text>
</a>
</g>
</g>
<!-- Node2&#45;&gt;Node14 -->
<g id="edge13" class="edge"><title>Node2&#45;&gt;Node14</title>
<path fill="none" stroke="midnightblue" d="M651.631,-62.8681C734.318,-58.3014 922.062,-45.8227 1078,-20 1080.68,-19.557 1083.44,-19.0326 1086.21,-18.4633"/>
<polygon fill="midnightblue" stroke="midnightblue" points="651.405,-59.3751 641.609,-63.4111 651.784,-66.3649 651.405,-59.3751"/>
</g>
<!-- Node15&#45;&gt;Node3 -->
<g id="edge15" class="edge"><title>Node15&#45;&gt;Node3</title>
<path fill="none" stroke="midnightblue" d="M132,-45.8045C132,-36.9102 132,-26.7798 132,-19.7511"/>
<polygon fill="midnightblue" stroke="midnightblue" points="128.5,-46.083 132,-56.083 135.5,-46.083 128.5,-46.083"/>
</g>
<!-- Node15&#45;&gt;Node9 -->
<g id="edge16" class="edge"><title>Node15&#45;&gt;Node9</title>
<path fill="none" stroke="midnightblue" d="M107.414,-51.4526C89.3219,-41.4835 65.2654,-28.2279 49.7063,-19.6545"/>
<polygon fill="midnightblue" stroke="midnightblue" points="105.807,-54.5633 116.255,-56.324 109.185,-48.4324 105.807,-54.5633"/>
</g>
<!-- Node16&#45;&gt;Node4 -->
<g id="edge18" class="edge"><title>Node16&#45;&gt;Node4</title>
<path fill="none" stroke="midnightblue" d="M539.806,-51.1774C556.919,-41.2407 579.465,-28.1492 594.095,-19.6545"/>
<polygon fill="midnightblue" stroke="midnightblue" points="537.832,-48.2758 530.942,-56.324 541.347,-54.3293 537.832,-48.2758"/>
</g>
<!-- Node16&#45;&gt;Node5 -->
<g id="edge19" class="edge"><title>Node16&#45;&gt;Node5</title>
<path fill="none" stroke="midnightblue" d="M472.37,-59.2272C419.252,-51.8364 326.975,-37.8271 249,-20 246.159,-19.3505 243.193,-18.5935 240.271,-17.7995"/>
<polygon fill="midnightblue" stroke="midnightblue" points="472.072,-62.7191 482.456,-60.6163 473.027,-55.7845 472.072,-62.7191"/>
</g>
<!-- Node16&#45;&gt;Node6 -->
<g id="edge20" class="edge"><title>Node16&#45;&gt;Node6</title>
<path fill="none" stroke="midnightblue" d="M554.498,-53.5145C589.298,-43.132 639.626,-28.117 670.224,-18.9883"/>
<polygon fill="midnightblue" stroke="midnightblue" points="553.262,-50.2306 544.68,-56.4435 555.263,-56.9385 553.262,-50.2306"/>
</g>
<!-- Node16&#45;&gt;Node9 -->
<g id="edge21" class="edge"><title>Node16&#45;&gt;Node9</title>
<path fill="none" stroke="midnightblue" d="M472.153,-62.0257C392.934,-56.3145 220.818,-42.3595 77,-20 74.1361,-19.5548 71.175,-19.0434 68.2086,-18.4953"/>
<polygon fill="midnightblue" stroke="midnightblue" points="472.027,-65.5255 482.251,-62.7452 472.525,-58.5432 472.027,-65.5255"/>
</g>
<!-- Node16&#45;&gt;Node10 -->
<g id="edge23" class="edge"><title>Node16&#45;&gt;Node10</title>
<path fill="none" stroke="midnightblue" d="M559.661,-55.9163C603.293,-46.8358 672.293,-32.4679 732,-20 734.986,-19.3764 738.089,-18.7279 741.2,-18.0776"/>
<polygon fill="midnightblue" stroke="midnightblue" points="558.752,-52.5305 549.675,-57.9946 560.178,-59.3837 558.752,-52.5305"/>
</g>
<!-- Node16&#45;&gt;Node12 -->
<g id="edge24" class="edge"><title>Node16&#45;&gt;Node12</title>
<path fill="none" stroke="midnightblue" d="M491.665,-51.4526C473.757,-41.4835 449.946,-28.2279 434.546,-19.6545"/>
<polygon fill="midnightblue" stroke="midnightblue" points="489.975,-54.5179 500.415,-56.324 493.38,-48.4018 489.975,-54.5179"/>
</g>
<!-- Node16&#45;&gt;Node13 -->
<g id="edge25" class="edge"><title>Node16&#45;&gt;Node13</title>
<path fill="none" stroke="midnightblue" d="M516,-45.8045C516,-36.9102 516,-26.7798 516,-19.7511"/>
<polygon fill="midnightblue" stroke="midnightblue" points="512.5,-46.083 516,-56.083 519.5,-46.083 512.5,-46.083"/>
</g>
<!-- Node17 -->
<g id="node17" class="node"><title>Node17</title>
<g id="a_node17"><a xlink:href="multi__level__map_8c.html" target="_top" xlink:title="multi_level_map.c">
<polygon fill="white" stroke="black" points="258,-0.5 258,-19.5 354,-19.5 354,-0.5 258,-0.5"/>
<text text-anchor="middle" x="306" y="-7.5" font-family="Helvetica,sans-Serif" font-size="10.00">multi_level_map.c</text>
</a>
</g>
</g>
<!-- Node16&#45;&gt;Node17 -->
<g id="edge22" class="edge"><title>Node16&#45;&gt;Node17</title>
<path fill="none" stroke="midnightblue" d="M472.81,-53.8941C433.153,-43.6966 375.23,-28.802 339.119,-19.5164"/>
<polygon fill="midnightblue" stroke="midnightblue" points="472.168,-57.3428 482.725,-56.4435 473.912,-50.5633 472.168,-57.3428"/>
</g>
<!-- Node18&#45;&gt;Node5 -->
<g id="edge27" class="edge"><title>Node18&#45;&gt;Node5</title>
<path fill="none" stroke="midnightblue" d="M302.751,-51.8622C281.984,-41.8492 253.977,-28.3458 235.95,-19.6545"/>
<polygon fill="midnightblue" stroke="midnightblue" points="301.477,-55.1336 312.005,-56.324 304.518,-48.8282 301.477,-55.1336"/>
</g>
<!-- Node19&#45;&gt;Node14 -->
<g id="edge30" class="edge"><title>Node19&#45;&gt;Node14</title>
<path fill="none" stroke="midnightblue" d="M1006.16,-52.772C1032.83,-42.6287 1070.07,-28.4669 1093.6,-19.5164"/>
<polygon fill="midnightblue" stroke="midnightblue" points="1004.6,-49.6176 996.5,-56.4435 1007.09,-56.1604 1004.6,-49.6176"/>
</g>
</g>
</svg>
        <g id="navigator" transform="translate(0 0)" fill="#404254">
                <rect fill="#f2f5e9" fill-opacity="0.5" stroke="#606060" stroke-width=".5" x="0" y="0" width="60" height="60"/>
                <use id="zoomplus" xlink:href="#zoomPlus" x="17" y="9" onmousedown="handleZoom(evt,'in')"/>
                <use id="zoomminus" xlink:href="#zoomMin" x="42" y="9" onmousedown="handleZoom(evt,'out')"/>
                <use id="reset" xlink:href="#resetDef" x="30" y="36" onmousedown="handleReset()"/>
                <g id="arrowUp" xlink:href="#dirArrow" transform="translate(30 24)" onmousedown="handlePan(0,-1)">
                  <use xlink:href="#rim" fill="#404040">
                        <set attributeName="fill" to="#808080" begin="arrowUp.mouseover" end="arrowUp.mouseout"/>
                  </use>
                  <path fill="none" stroke="white" stroke-width="1.5" d="M0,-3.0v7 M-2.5,-0.5L0,-3.0L2.5,-0.5"/>
                </g>
                <g id="arrowRight" xlink:href="#dirArrow" transform="rotate(90) translate(36 -43)" onmousedown="handlePan(1,0)">
                  <use xlink:href="#rim" fill="#404040">
                        <set attributeName="fill" to="#808080" begin="arrowRight.mouseover" end="arrowRight.mouseout"/>
                  </use>
                  <path fill="none" stroke="white" stroke-width="1.5" d="M0,-3.0v7 M-2.5,-0.5L0,-3.0L2.5,-0.5"/>
                </g>
                <g id="arrowDown" xlink:href="#dirArrow" transform="rotate(180) translate(-30 -48)" onmousedown="handlePan(0,1)">
                  <use xlink:href="#rim" fill="#404040">
                        <set attributeName="fill" to="#808080" begin="arrowDown.mouseover" end="arrowDown.mouseout"/>
                  </use>
                  <path fill="none" stroke="white" stroke-width="1.5" d="M0,-3.0v7 M-2.5,-0.5L0,-3.0L2.5,-0.5"/>
                </g>
                <g id="arrowLeft" xlink:href="#dirArrow" transform="rotate(270) translate(-36 17)" onmousedown="handlePan(-1,0)">
                  <use xlink:href="#rim" fill="#404040">
                        <set attributeName="fill" to="#808080" begin="arrowLeft.mouseover" end="arrowLeft.mouseout"/>
                  </use>
                  <path fill="none" stroke="white" stroke-width="1.5" d="M0,-3.0v7 M-2.5,-0.5L0,-3.0L2.5,-0.5"/>
                </g>
        </g>
        <svg viewBox="0 0 15 15" width="100%" height="30px" preserveAspectRatio="xMaxYMin meet">
         <g id="arrow_out" transform="scale(0.3 0.3)">
          <a xlink:href="coredefs_8h__dep__incl_org.svg" target="_base">
           <rect id="button" ry="5" rx="5" y="6" x="6" height="38" width="38"
                fill="#f2f5e9" fill-opacity="0.5" stroke="#606060" stroke-width="1.0"/>
           <path id="arrow"
             d="M 11.500037,31.436501 C 11.940474,20.09759 22.043105,11.32322 32.158766,21.979434 L 37.068811,17.246167 C 37.068811,17.246167 37.088388,32 37.088388,32 L 22.160133,31.978069 C 22.160133,31.978069 26.997745,27.140456 26.997745,27.140456 C 18.528582,18.264221 13.291696,25.230495 11.500037,31.436501 z"
             style="fill:#404040;"/>
          </a>
         </g>
        </svg>
</svg>
