<?xml version="1.0" encoding="UTF-8" standalone="no"?>
<!DOCTYPE svg PUBLIC "-//W3C//DTD SVG 1.1//EN"
 "http://www.w3.org/Graphics/SVG/1.1/DTD/svg11.dtd">
<!-- Generated by graphviz version 2.38.0 (20140413.2041)
 -->
<!-- Title: store_bytehex_list Pages: 1 -->
<svg width="379pt" height="28pt"
 viewBox="0.00 0.00 379.00 28.00" xmlns="http://www.w3.org/2000/svg" xmlns:xlink="http://www.w3.org/1999/xlink">
<g id="graph0" class="graph" transform="scale(1 1) rotate(0) translate(4 24)">
<title>store_bytehex_list</title>
<polygon fill="white" stroke="none" points="-4,4 -4,-24 375,-24 375,4 -4,4"/>
<!-- Node1 -->
<g id="node1" class="node"><title>Node1</title>
<polygon fill="#bfbfbf" stroke="black" points="0,-0.5 0,-19.5 97,-19.5 97,-0.5 0,-0.5"/>
<text text-anchor="middle" x="48.5" y="-7.5" font-family="Helvetica,sans-Serif" font-size="10.00">store_bytehex_list</text>
</g>
<!-- Node2 -->
<g id="node2" class="node"><title>Node2</title>
<g id="a_node2"><a xlink:href="string__util_8c.html#ae613f021f71121db85c78a6213f7af3a" target="_top" xlink:title="hhc_to_byte_in_buf">
<polygon fill="white" stroke="black" points="133,-0.5 133,-19.5 234,-19.5 234,-0.5 133,-0.5"/>
<text text-anchor="middle" x="183.5" y="-7.5" font-family="Helvetica,sans-Serif" font-size="10.00">hhc_to_byte_in_buf</text>
</a>
</g>
</g>
<!-- Node1&#45;&gt;Node2 -->
<g id="edge1" class="edge"><title>Node1&#45;&gt;Node2</title>
<path fill="none" stroke="midnightblue" d="M97.1404,-10C105.498,-10 114.289,-10 122.922,-10"/>
<polygon fill="midnightblue" stroke="midnightblue" points="122.949,-13.5001 132.949,-10 122.949,-6.5001 122.949,-13.5001"/>
</g>
<!-- Node3 -->
<g id="node3" class="node"><title>Node3</title>
<g id="a_node3"><a xlink:href="string__util_8c.html#a3b4e04572f90138fa8df7281974e34a0" target="_top" xlink:title="hhs_to_byte_in_buf">
<polygon fill="white" stroke="black" points="270,-0.5 270,-19.5 371,-19.5 371,-0.5 270,-0.5"/>
<text text-anchor="middle" x="320.5" y="-7.5" font-family="Helvetica,sans-Serif" font-size="10.00">hhs_to_byte_in_buf</text>
</a>
</g>
</g>
<!-- Node2&#45;&gt;Node3 -->
<g id="edge2" class="edge"><title>Node2&#45;&gt;Node3</title>
<path fill="none" stroke="midnightblue" d="M234.002,-10C242.241,-10 250.866,-10 259.335,-10"/>
<polygon fill="midnightblue" stroke="midnightblue" points="259.552,-13.5001 269.552,-10 259.552,-6.5001 259.552,-13.5001"/>
</g>
</g>
</svg>
