<?xml version="1.0" encoding="UTF-8" standalone="no"?>
<!DOCTYPE svg PUBLIC "-//W3C//DTD SVG 1.1//EN"
 "http://www.w3.org/Graphics/SVG/1.1/DTD/svg11.dtd">
<!-- Generated by graphviz version 2.38.0 (20140413.2041)
 -->
<!-- Title: sbuf_append Pages: 1 -->
<svg width="379pt" height="120pt"
 viewBox="0.00 0.00 379.00 119.90" xmlns="http://www.w3.org/2000/svg" xmlns:xlink="http://www.w3.org/1999/xlink">
<g id="graph0" class="graph" transform="scale(1 1) rotate(0) translate(4 115.902)">
<title>sbuf_append</title>
<polygon fill="white" stroke="none" points="-4,4 -4,-115.902 375,-115.902 375,4 -4,4"/>
<!-- Node1 -->
<g id="node1" class="node"><title>Node1</title>
<polygon fill="#bfbfbf" stroke="black" points="0,-57.5 0,-76.5 74,-76.5 74,-57.5 0,-57.5"/>
<text text-anchor="middle" x="37" y="-64.5" font-family="Helvetica,sans-Serif" font-size="10.00">sbuf_append</text>
</g>
<!-- Node2 -->
<g id="node2" class="node"><title>Node2</title>
<g id="a_node2"><a xlink:href="libdrm__util_8h.html#afe0897b5245707ebe02dabaf9d55fcf3" target="_top" xlink:title="connector_type_title">
<polygon fill="white" stroke="black" points="264,-76.5 264,-95.5 369,-95.5 369,-76.5 264,-76.5"/>
<text text-anchor="middle" x="316.5" y="-83.5" font-family="Helvetica,sans-Serif" font-size="10.00">connector_type_title</text>
</a>
</g>
</g>
<!-- Node1&#45;&gt;Node2 -->
<g id="edge1" class="edge"><title>Node1&#45;&gt;Node2</title>
<path fill="none" stroke="midnightblue" d="M59.9386,-82.1847C73.6478,-90.7302 92.0532,-100.555 110,-105 169.819,-119.817 242.022,-106.147 282.965,-95.5803"/>
<polygon fill="midnightblue" stroke="midnightblue" points="61.5552,-79.0615 51.2612,-76.5548 57.7452,-84.9338 61.5552,-79.0615"/>
</g>
<!-- Node3 -->
<g id="node3" class="node"><title>Node3</title>
<g id="a_node3"><a xlink:href="libdrm__util_8h.html#a385a5f2e5794cd858a4e1a956573998d" target="_top" xlink:title="encoder_type_title">
<polygon fill="white" stroke="black" points="119,-76.5 119,-95.5 217,-95.5 217,-76.5 119,-76.5"/>
<text text-anchor="middle" x="168" y="-83.5" font-family="Helvetica,sans-Serif" font-size="10.00">encoder_type_title</text>
</a>
</g>
</g>
<!-- Node1&#45;&gt;Node3 -->
<g id="edge2" class="edge"><title>Node1&#45;&gt;Node3</title>
<path fill="none" stroke="midnightblue" d="M84.3361,-73.8247C95.5827,-75.4812 107.631,-77.2558 118.955,-78.9236"/>
<polygon fill="midnightblue" stroke="midnightblue" points="84.6803,-70.3377 74.277,-72.3431 83.6602,-77.263 84.6803,-70.3377"/>
</g>
<!-- Node4 -->
<g id="node4" class="node"><title>Node4</title>
<g id="a_node4"><a xlink:href="data__structures_8h.html#a8aa6c1749ba5d95385420dbc95f08f6c" target="_top" xlink:title="interpret_named_flags">
<polygon fill="white" stroke="black" points="110,-38.5 110,-57.5 226,-57.5 226,-38.5 110,-38.5"/>
<text text-anchor="middle" x="168" y="-45.5" font-family="Helvetica,sans-Serif" font-size="10.00">interpret_named_flags</text>
</a>
</g>
</g>
<!-- Node1&#45;&gt;Node4 -->
<g id="edge3" class="edge"><title>Node1&#45;&gt;Node4</title>
<path fill="none" stroke="midnightblue" d="M84.4176,-60.1633C92.6388,-58.9524 101.286,-57.6788 109.764,-56.4301"/>
<polygon fill="midnightblue" stroke="midnightblue" points="83.6602,-56.737 74.277,-61.6569 84.6803,-63.6623 83.6602,-56.737"/>
</g>
<!-- Node5 -->
<g id="node5" class="node"><title>Node5</title>
<g id="a_node5"><a xlink:href="libdrm__util_8c.html#ae28fbf75d18faf2086044adc421c57fc" target="_top" xlink:title="report_property_value">
<polygon fill="white" stroke="black" points="111.5,-0.5 111.5,-19.5 224.5,-19.5 224.5,-0.5 111.5,-0.5"/>
<text text-anchor="middle" x="168" y="-7.5" font-family="Helvetica,sans-Serif" font-size="10.00">report_property_value</text>
</a>
</g>
</g>
<!-- Node1&#45;&gt;Node5 -->
<g id="edge5" class="edge"><title>Node1&#45;&gt;Node5</title>
<path fill="none" stroke="midnightblue" d="M62.9968,-52.509C76.6265,-44.9416 93.9475,-35.8568 110,-29 118.058,-25.5581 126.965,-22.3293 135.296,-19.5444"/>
<polygon fill="midnightblue" stroke="midnightblue" points="61.2054,-49.501 54.2116,-57.4595 64.6419,-55.5994 61.2054,-49.501"/>
</g>
<!-- Node4&#45;&gt;Node2 -->
<g id="edge4" class="edge"><title>Node4&#45;&gt;Node2</title>
<path fill="none" stroke="midnightblue" d="M215.695,-60.1121C236.099,-65.4044 259.681,-71.5213 278.798,-76.4799"/>
<polygon fill="midnightblue" stroke="midnightblue" points="216.527,-56.712 205.968,-57.589 214.769,-63.4877 216.527,-56.712"/>
</g>
<!-- Node6 -->
<g id="node6" class="node"><title>Node6</title>
<g id="a_node6"><a xlink:href="libdrm__util_8h.html#a296f38d851825b841915b5648ad491e4" target="_top" xlink:title="report_drmModeRes">
<polygon fill="white" stroke="black" points="262,-0.5 262,-19.5 371,-19.5 371,-0.5 262,-0.5"/>
<text text-anchor="middle" x="316.5" y="-7.5" font-family="Helvetica,sans-Serif" font-size="10.00">report_drmModeRes</text>
</a>
</g>
</g>
<!-- Node5&#45;&gt;Node6 -->
<g id="edge6" class="edge"><title>Node5&#45;&gt;Node6</title>
<path fill="none" stroke="midnightblue" d="M234.876,-10C243.879,-10 253.033,-10 261.786,-10"/>
<polygon fill="midnightblue" stroke="midnightblue" points="234.803,-6.5001 224.803,-10 234.803,-13.5001 234.803,-6.5001"/>
</g>
</g>
</svg>
