<?xml version="1.0" encoding="UTF-8" standalone="no"?>
<!DOCTYPE svg PUBLIC "-//W3C//DTD SVG 1.1//EN"
 "http://www.w3.org/Graphics/SVG/1.1/DTD/svg11.dtd">
<!-- Generated by graphviz version 2.38.0 (20140413.2041)
 -->
<!-- Title: bbf_to_string Pages: 1 -->
<svg width="193pt" height="180pt"
 viewBox="0.00 0.00 193.00 180.00" xmlns="http://www.w3.org/2000/svg" xmlns:xlink="http://www.w3.org/1999/xlink">
<g id="graph0" class="graph" transform="scale(1 1) rotate(0) translate(4 176)">
<title>bbf_to_string</title>
<polygon fill="white" stroke="none" points="-4,4 -4,-176 189,-176 189,4 -4,4"/>
<!-- Node1 -->
<g id="node1" class="node"><title>Node1</title>
<polygon fill="#bfbfbf" stroke="black" points="0,-76.5 0,-95.5 72,-95.5 72,-76.5 0,-76.5"/>
<text text-anchor="middle" x="36" y="-83.5" font-family="Helvetica,sans-Serif" font-size="10.00">bbf_to_string</text>
</g>
<!-- Node2 -->
<g id="node2" class="node"><title>Node2</title>
<g id="a_node2"><a xlink:href="data__structures_8c.html#a74eb09779e8ba96c5685966451a5a6fb" target="_top" xlink:title="bbf_count_set">
<polygon fill="white" stroke="black" points="108,-152.5 108,-171.5 185,-171.5 185,-152.5 108,-152.5"/>
<text text-anchor="middle" x="146.5" y="-159.5" font-family="Helvetica,sans-Serif" font-size="10.00">bbf_count_set</text>
</a>
</g>
</g>
<!-- Node1&#45;&gt;Node2 -->
<g id="edge1" class="edge"><title>Node1&#45;&gt;Node2</title>
<path fill="none" stroke="midnightblue" d="M47.5358,-95.6245C60.9541,-107.6 85.1499,-128.266 108,-143 110.473,-144.594 113.097,-146.158 115.763,-147.66"/>
<polygon fill="midnightblue" stroke="midnightblue" points="114.36,-150.879 124.831,-152.492 117.651,-144.701 114.36,-150.879"/>
</g>
<!-- Node3 -->
<g id="node3" class="node"><title>Node3</title>
<g id="a_node3"><a xlink:href="data__structures_8c.html#a7a99b3c9a12c8a12c154012180f354f5" target="_top" xlink:title="bbf_is_set">
<polygon fill="white" stroke="black" points="116,-114.5 116,-133.5 177,-133.5 177,-114.5 116,-114.5"/>
<text text-anchor="middle" x="146.5" y="-121.5" font-family="Helvetica,sans-Serif" font-size="10.00">bbf_is_set</text>
</a>
</g>
</g>
<!-- Node1&#45;&gt;Node3 -->
<g id="edge2" class="edge"><title>Node1&#45;&gt;Node3</title>
<path fill="none" stroke="midnightblue" d="M64.3791,-95.589C77.743,-100.269 94.0172,-105.969 108.472,-111.032"/>
<polygon fill="midnightblue" stroke="midnightblue" points="107.535,-114.412 118.13,-114.414 109.849,-107.805 107.535,-114.412"/>
</g>
<!-- Node4 -->
<g id="node4" class="node"><title>Node4</title>
<g id="a_node4"><a xlink:href="data__structures_8c.html#a216abaff83a24c91ee6ba5465698d6dc" target="_top" xlink:title="bbf_set">
<polygon fill="white" stroke="black" points="122.5,-76.5 122.5,-95.5 170.5,-95.5 170.5,-76.5 122.5,-76.5"/>
<text text-anchor="middle" x="146.5" y="-83.5" font-family="Helvetica,sans-Serif" font-size="10.00">bbf_set</text>
</a>
</g>
</g>
<!-- Node1&#45;&gt;Node4 -->
<g id="edge3" class="edge"><title>Node1&#45;&gt;Node4</title>
<path fill="none" stroke="midnightblue" d="M72.2268,-86C85.0858,-86 99.5774,-86 112.258,-86"/>
<polygon fill="midnightblue" stroke="midnightblue" points="112.408,-89.5001 122.408,-86 112.408,-82.5001 112.408,-89.5001"/>
</g>
<!-- Node5 -->
<g id="node5" class="node"><title>Node5</title>
<g id="a_node5"><a xlink:href="data__structures_8c.html#a2b850fecd25d8253212c5494aababc2d" target="_top" xlink:title="bva_append">
<polygon fill="white" stroke="black" points="110.5,-38.5 110.5,-57.5 182.5,-57.5 182.5,-38.5 110.5,-38.5"/>
<text text-anchor="middle" x="146.5" y="-45.5" font-family="Helvetica,sans-Serif" font-size="10.00">bva_append</text>
</a>
</g>
</g>
<!-- Node1&#45;&gt;Node5 -->
<g id="edge4" class="edge"><title>Node1&#45;&gt;Node5</title>
<path fill="none" stroke="midnightblue" d="M64.3791,-76.411C77.743,-71.7306 94.0172,-66.0308 108.472,-60.9685"/>
<polygon fill="midnightblue" stroke="midnightblue" points="109.849,-64.1947 118.13,-57.5859 107.535,-57.5882 109.849,-64.1947"/>
</g>
<!-- Node6 -->
<g id="node6" class="node"><title>Node6</title>
<g id="a_node6"><a xlink:href="data__structures_8c.html#a7dd797401e391205fc0515aca0a00eaf" target="_top" xlink:title="bva_contains">
<polygon fill="white" stroke="black" points="108.5,-0.5 108.5,-19.5 184.5,-19.5 184.5,-0.5 108.5,-0.5"/>
<text text-anchor="middle" x="146.5" y="-7.5" font-family="Helvetica,sans-Serif" font-size="10.00">bva_contains</text>
</a>
</g>
</g>
<!-- Node1&#45;&gt;Node6 -->
<g id="edge5" class="edge"><title>Node1&#45;&gt;Node6</title>
<path fill="none" stroke="midnightblue" d="M47.5358,-76.3755C60.9541,-64.3997 85.1499,-43.7337 108,-29 110.473,-27.4056 113.097,-25.8422 115.763,-24.3396"/>
<polygon fill="midnightblue" stroke="midnightblue" points="117.651,-27.2991 124.831,-19.5082 114.36,-21.1212 117.651,-27.2991"/>
</g>
</g>
</svg>
