<?xml version="1.0" encoding="UTF-8" standalone="no"?>
<!DOCTYPE svg PUBLIC "-//W3C//DTD SVG 1.1//EN"
 "http://www.w3.org/Graphics/SVG/1.1/DTD/svg11.dtd">
<!-- Generated by graphviz version 2.38.0 (20140413.2041)
 -->
<!-- Title: store_bytehex_list Pages: 1 -->
<svg width="260pt" height="66pt"
 viewBox="0.00 0.00 260.00 66.00" xmlns="http://www.w3.org/2000/svg" xmlns:xlink="http://www.w3.org/1999/xlink">
<g id="graph0" class="graph" transform="scale(1 1) rotate(0) translate(4 62)">
<title>store_bytehex_list</title>
<polygon fill="white" stroke="none" points="-4,4 -4,-62 256,-62 256,4 -4,4"/>
<!-- Node1 -->
<g id="node1" class="node"><title>Node1</title>
<polygon fill="#bfbfbf" stroke="black" points="0,-19.5 0,-38.5 97,-38.5 97,-19.5 0,-19.5"/>
<text text-anchor="middle" x="48.5" y="-26.5" font-family="Helvetica,sans-Serif" font-size="10.00">store_bytehex_list</text>
</g>
<!-- Node2 -->
<g id="node2" class="node"><title>Node2</title>
<g id="a_node2"><a xlink:href="data__structures_8h.html#a37a3e1dc85c052af4c898e5ac3bb3aff" target="_top" xlink:title="bbf_store_bytehex_list">
<polygon fill="white" stroke="black" points="135,-38.5 135,-57.5 250,-57.5 250,-38.5 135,-38.5"/>
<text text-anchor="middle" x="192.5" y="-45.5" font-family="Helvetica,sans-Serif" font-size="10.00">bbf_store_bytehex_list</text>
</a>
</g>
</g>
<!-- Node1&#45;&gt;Node2 -->
<g id="edge1" class="edge"><title>Node1&#45;&gt;Node2</title>
<path fill="none" stroke="midnightblue" d="M107.287,-36.7321C116.382,-37.9491 125.778,-39.2062 134.847,-40.4197"/>
<polygon fill="midnightblue" stroke="midnightblue" points="107.555,-33.2368 97.179,-35.3796 106.626,-40.175 107.555,-33.2368"/>
</g>
<!-- Node3 -->
<g id="node3" class="node"><title>Node3</title>
<g id="a_node3"><a xlink:href="data__structures_8h.html#a8dac43550584ffada601d6a0377d8d91" target="_top" xlink:title="bva_store_bytehex_list">
<polygon fill="white" stroke="black" points="133,-0.5 133,-19.5 252,-19.5 252,-0.5 133,-0.5"/>
<text text-anchor="middle" x="192.5" y="-7.5" font-family="Helvetica,sans-Serif" font-size="10.00">bva_store_bytehex_list</text>
</a>
</g>
</g>
<!-- Node1&#45;&gt;Node3 -->
<g id="edge2" class="edge"><title>Node1&#45;&gt;Node3</title>
<path fill="none" stroke="midnightblue" d="M107.295,-21.2669C115.72,-20.1395 124.403,-18.9778 132.845,-17.8482"/>
<polygon fill="midnightblue" stroke="midnightblue" points="106.626,-17.825 97.179,-22.6204 107.555,-24.7632 106.626,-17.825"/>
</g>
</g>
</svg>
