<?xml version="1.0" encoding="UTF-8" standalone="no"?>
<!DOCTYPE svg PUBLIC "-//W3C//DTD SVG 1.1//EN"
 "http://www.w3.org/Graphics/SVG/1.1/DTD/svg11.dtd">
<!-- Generated by graphviz version 2.38.0 (20140413.2041)
 -->
<!-- Title: buffer_dup Pages: 1 -->
<svg width="324pt" height="66pt"
 viewBox="0.00 0.00 324.00 66.00" xmlns="http://www.w3.org/2000/svg" xmlns:xlink="http://www.w3.org/1999/xlink">
<g id="graph0" class="graph" transform="scale(1 1) rotate(0) translate(4 62)">
<title>buffer_dup</title>
<polygon fill="white" stroke="none" points="-4,4 -4,-62 320,-62 320,4 -4,4"/>
<!-- Node1 -->
<g id="node1" class="node"><title>Node1</title>
<polygon fill="#bfbfbf" stroke="black" points="0,-19.5 0,-38.5 62,-38.5 62,-19.5 0,-19.5"/>
<text text-anchor="middle" x="31" y="-26.5" font-family="Helvetica,sans-Serif" font-size="10.00">buffer_dup</text>
</g>
<!-- Node2 -->
<g id="node2" class="node"><title>Node2</title>
<g id="a_node2"><a xlink:href="data__structures_8c.html#ab9d1d63b252e85c1f97ef20cd811fd04" target="_top" xlink:title="buffer_new_with_value">
<polygon fill="white" stroke="black" points="98,-19.5 98,-38.5 215,-38.5 215,-19.5 98,-19.5"/>
<text text-anchor="middle" x="156.5" y="-26.5" font-family="Helvetica,sans-Serif" font-size="10.00">buffer_new_with_value</text>
</a>
</g>
</g>
<!-- Node1&#45;&gt;Node2 -->
<g id="edge1" class="edge"><title>Node1&#45;&gt;Node2</title>
<path fill="none" stroke="midnightblue" d="M62.2115,-29C69.9941,-29 78.6903,-29 87.5586,-29"/>
<polygon fill="midnightblue" stroke="midnightblue" points="87.6048,-32.5001 97.6048,-29 87.6048,-25.5001 87.6048,-32.5001"/>
</g>
<!-- Node3 -->
<g id="node3" class="node"><title>Node3</title>
<g id="a_node3"><a xlink:href="data__structures_8c.html#ae4dd15872647546cd2a2cc4c803b6371" target="_top" xlink:title="buffer_new">
<polygon fill="white" stroke="black" points="251,-38.5 251,-57.5 316,-57.5 316,-38.5 251,-38.5"/>
<text text-anchor="middle" x="283.5" y="-45.5" font-family="Helvetica,sans-Serif" font-size="10.00">buffer_new</text>
</a>
</g>
</g>
<!-- Node2&#45;&gt;Node3 -->
<g id="edge2" class="edge"><title>Node2&#45;&gt;Node3</title>
<path fill="none" stroke="midnightblue" d="M215.243,-37.777C223.879,-39.0896 232.637,-40.4208 240.852,-41.6695"/>
<polygon fill="midnightblue" stroke="midnightblue" points="240.504,-45.1568 250.917,-43.1994 241.556,-38.2363 240.504,-45.1568"/>
</g>
<!-- Node4 -->
<g id="node4" class="node"><title>Node4</title>
<g id="a_node4"><a xlink:href="data__structures_8c.html#a1e92a2794588c1169aefd8ebbfbffeaf" target="_top" xlink:title="buffer_put">
<polygon fill="white" stroke="black" points="254,-0.5 254,-19.5 313,-19.5 313,-0.5 254,-0.5"/>
<text text-anchor="middle" x="283.5" y="-7.5" font-family="Helvetica,sans-Serif" font-size="10.00">buffer_put</text>
</a>
</g>
</g>
<!-- Node2&#45;&gt;Node4 -->
<g id="edge3" class="edge"><title>Node2&#45;&gt;Node4</title>
<path fill="none" stroke="midnightblue" d="M215.243,-20.223C225.004,-18.7394 234.92,-17.2322 244.032,-15.8472"/>
<polygon fill="midnightblue" stroke="midnightblue" points="244.566,-19.3062 253.927,-14.3432 243.514,-12.3857 244.566,-19.3062"/>
</g>
</g>
</svg>
