<?xml version="1.0" encoding="UTF-8" standalone="no"?>
<!DOCTYPE svg PUBLIC "-//W3C//DTD SVG 1.1//EN"
 "http://www.w3.org/Graphics/SVG/1.1/DTD/svg11.dtd">
<!-- Generated by graphviz version 2.38.0 (20140413.2041)
 -->
<!-- Title: bva_store_bytehex_list Pages: 1 -->
<svg width="534pt" height="28pt"
 viewBox="0.00 0.00 534.00 28.00" xmlns="http://www.w3.org/2000/svg" xmlns:xlink="http://www.w3.org/1999/xlink">
<g id="graph0" class="graph" transform="scale(1 1) rotate(0) translate(4 24)">
<title>bva_store_bytehex_list</title>
<polygon fill="white" stroke="none" points="-4,4 -4,-24 530,-24 530,4 -4,4"/>
<!-- Node1 -->
<g id="node1" class="node"><title>Node1</title>
<polygon fill="#bfbfbf" stroke="black" points="0,-0.5 0,-19.5 119,-19.5 119,-0.5 0,-0.5"/>
<text text-anchor="middle" x="59.5" y="-7.5" font-family="Helvetica,sans-Serif" font-size="10.00">bva_store_bytehex_list</text>
</g>
<!-- Node2 -->
<g id="node2" class="node"><title>Node2</title>
<g id="a_node2"><a xlink:href="data__structures_8c.html#a3c57719d981d567e738f49a59dbaa153" target="_top" xlink:title="store_bytehex_list">
<polygon fill="white" stroke="black" points="155,-0.5 155,-19.5 252,-19.5 252,-0.5 155,-0.5"/>
<text text-anchor="middle" x="203.5" y="-7.5" font-family="Helvetica,sans-Serif" font-size="10.00">store_bytehex_list</text>
</a>
</g>
</g>
<!-- Node1&#45;&gt;Node2 -->
<g id="edge1" class="edge"><title>Node1&#45;&gt;Node2</title>
<path fill="none" stroke="midnightblue" d="M119.077,-10C127.55,-10 136.266,-10 144.723,-10"/>
<polygon fill="midnightblue" stroke="midnightblue" points="144.877,-13.5001 154.877,-10 144.877,-6.5001 144.877,-13.5001"/>
</g>
<!-- Node3 -->
<g id="node3" class="node"><title>Node3</title>
<g id="a_node3"><a xlink:href="string__util_8c.html#ae613f021f71121db85c78a6213f7af3a" target="_top" xlink:title="hhc_to_byte_in_buf">
<polygon fill="white" stroke="black" points="288,-0.5 288,-19.5 389,-19.5 389,-0.5 288,-0.5"/>
<text text-anchor="middle" x="338.5" y="-7.5" font-family="Helvetica,sans-Serif" font-size="10.00">hhc_to_byte_in_buf</text>
</a>
</g>
</g>
<!-- Node2&#45;&gt;Node3 -->
<g id="edge2" class="edge"><title>Node2&#45;&gt;Node3</title>
<path fill="none" stroke="midnightblue" d="M252.14,-10C260.498,-10 269.289,-10 277.922,-10"/>
<polygon fill="midnightblue" stroke="midnightblue" points="277.949,-13.5001 287.949,-10 277.949,-6.5001 277.949,-13.5001"/>
</g>
<!-- Node4 -->
<g id="node4" class="node"><title>Node4</title>
<g id="a_node4"><a xlink:href="string__util_8c.html#a3b4e04572f90138fa8df7281974e34a0" target="_top" xlink:title="hhs_to_byte_in_buf">
<polygon fill="white" stroke="black" points="425,-0.5 425,-19.5 526,-19.5 526,-0.5 425,-0.5"/>
<text text-anchor="middle" x="475.5" y="-7.5" font-family="Helvetica,sans-Serif" font-size="10.00">hhs_to_byte_in_buf</text>
</a>
</g>
</g>
<!-- Node3&#45;&gt;Node4 -->
<g id="edge3" class="edge"><title>Node3&#45;&gt;Node4</title>
<path fill="none" stroke="midnightblue" d="M389.002,-10C397.241,-10 405.866,-10 414.335,-10"/>
<polygon fill="midnightblue" stroke="midnightblue" points="414.552,-13.5001 424.552,-10 414.552,-6.5001 414.552,-13.5001"/>
</g>
</g>
</svg>
