<?xml version="1.0" encoding="UTF-8" standalone="no"?>
<!DOCTYPE svg PUBLIC "-//W3C//DTD SVG 1.1//EN"
 "http://www.w3.org/Graphics/SVG/1.1/DTD/svg11.dtd">
<!-- Generated by graphviz version 2.38.0 (20140413.2041)
 -->
<!-- Title: data_structures.c Pages: 1 -->
<svg width="574pt" height="196pt"
 viewBox="0.00 0.00 573.50 196.00" xmlns="http://www.w3.org/2000/svg" xmlns:xlink="http://www.w3.org/1999/xlink">
<g id="graph0" class="graph" transform="scale(1 1) rotate(0) translate(4 192)">
<title>data_structures.c</title>
<polygon fill="white" stroke="none" points="-4,4 -4,-192 569.5,-192 569.5,4 -4,4"/>
<!-- Node1 -->
<g id="node1" class="node"><title>Node1</title>
<polygon fill="#bfbfbf" stroke="black" points="203,-168.5 203,-187.5 295,-187.5 295,-168.5 203,-168.5"/>
<text text-anchor="middle" x="249" y="-175.5" font-family="Helvetica,sans-Serif" font-size="10.00">data_structures.c</text>
</g>
<!-- Node2 -->
<g id="node2" class="node"><title>Node2</title>
<polygon fill="white" stroke="#bfbfbf" points="0,-112.5 0,-131.5 52,-131.5 52,-112.5 0,-112.5"/>
<text text-anchor="middle" x="26" y="-119.5" font-family="Helvetica,sans-Serif" font-size="10.00">assert.h</text>
</g>
<!-- Node1&#45;&gt;Node2 -->
<g id="edge1" class="edge"><title>Node1&#45;&gt;Node2</title>
<path fill="none" stroke="midnightblue" d="M213.665,-168.444C172.14,-158.388 103.616,-141.795 61.8633,-131.684"/>
<polygon fill="midnightblue" stroke="midnightblue" points="62.6544,-128.275 52.1115,-129.323 61.0069,-135.078 62.6544,-128.275"/>
</g>
<!-- Node3 -->
<g id="node3" class="node"><title>Node3</title>
<polygon fill="white" stroke="#bfbfbf" points="120,-0.5 120,-19.5 160,-19.5 160,-0.5 120,-0.5"/>
<text text-anchor="middle" x="140" y="-7.5" font-family="Helvetica,sans-Serif" font-size="10.00">glib.h</text>
</g>
<!-- Node1&#45;&gt;Node3 -->
<g id="edge2" class="edge"><title>Node1&#45;&gt;Node3</title>
<path fill="none" stroke="midnightblue" d="M217.243,-168.423C194.674,-161.244 164.499,-149.355 142,-132 117.153,-112.834 109.092,-105.713 99,-76 96.1414,-67.5833 95.7901,-64.2891 99,-56 103.454,-44.498 112.368,-34.1311 120.749,-26.2546"/>
<polygon fill="midnightblue" stroke="midnightblue" points="123.237,-28.7286 128.459,-19.5103 118.628,-23.4599 123.237,-28.7286"/>
</g>
<!-- Node4 -->
<g id="node4" class="node"><title>Node4</title>
<polygon fill="white" stroke="#bfbfbf" points="108,-56.5 108,-75.5 154,-75.5 154,-56.5 108,-56.5"/>
<text text-anchor="middle" x="131" y="-63.5" font-family="Helvetica,sans-Serif" font-size="10.00">stdio.h</text>
</g>
<!-- Node1&#45;&gt;Node4 -->
<g id="edge3" class="edge"><title>Node1&#45;&gt;Node4</title>
<path fill="none" stroke="midnightblue" d="M221.038,-168.465C201.77,-161.363 176.72,-149.551 160,-132 147.503,-118.882 139.808,-99.4674 135.514,-85.2727"/>
<polygon fill="midnightblue" stroke="midnightblue" points="138.889,-84.3452 132.87,-75.6261 132.138,-86.1956 138.889,-84.3452"/>
</g>
<!-- Node5 -->
<g id="node5" class="node"><title>Node5</title>
<polygon fill="white" stroke="#bfbfbf" points="362.5,-112.5 362.5,-131.5 409.5,-131.5 409.5,-112.5 362.5,-112.5"/>
<text text-anchor="middle" x="386" y="-119.5" font-family="Helvetica,sans-Serif" font-size="10.00">stdlib.h</text>
</g>
<!-- Node1&#45;&gt;Node5 -->
<g id="edge4" class="edge"><title>Node1&#45;&gt;Node5</title>
<path fill="none" stroke="midnightblue" d="M270.708,-168.444C293.355,-159.517 329.072,-145.439 354.752,-135.317"/>
<polygon fill="midnightblue" stroke="midnightblue" points="356.374,-138.44 364.394,-131.516 353.807,-131.927 356.374,-138.44"/>
</g>
<!-- Node6 -->
<g id="node6" class="node"><title>Node6</title>
<polygon fill="white" stroke="#bfbfbf" points="428,-112.5 428,-131.5 476,-131.5 476,-112.5 428,-112.5"/>
<text text-anchor="middle" x="452" y="-119.5" font-family="Helvetica,sans-Serif" font-size="10.00">string.h</text>
</g>
<!-- Node1&#45;&gt;Node6 -->
<g id="edge5" class="edge"><title>Node1&#45;&gt;Node6</title>
<path fill="none" stroke="midnightblue" d="M281.609,-168.446C313.84,-159.973 364.817,-146.528 417.919,-132.277"/>
<polygon fill="midnightblue" stroke="midnightblue" points="419.106,-135.582 427.855,-129.607 417.289,-128.822 419.106,-135.582"/>
</g>
<!-- Node7 -->
<g id="node7" class="node"><title>Node7</title>
<polygon fill="white" stroke="#bfbfbf" points="494.5,-112.5 494.5,-131.5 565.5,-131.5 565.5,-112.5 494.5,-112.5"/>
<text text-anchor="middle" x="530" y="-119.5" font-family="Helvetica,sans-Serif" font-size="10.00">sys/param.h</text>
</g>
<!-- Node1&#45;&gt;Node7 -->
<g id="edge6" class="edge"><title>Node1&#45;&gt;Node7</title>
<path fill="none" stroke="midnightblue" d="M294.266,-168.494C339.657,-159.936 411.834,-146.253 483.969,-132.188"/>
<polygon fill="midnightblue" stroke="midnightblue" points="485,-135.553 494.144,-130.201 483.659,-128.682 485,-135.553"/>
</g>
<!-- Node8 -->
<g id="node8" class="node"><title>Node8</title>
<g id="a_node8"><a xlink:href="string__util_8h.html" target="_top" xlink:title="string_util.h">
<polygon fill="white" stroke="black" points="168.5,-112.5 168.5,-131.5 233.5,-131.5 233.5,-112.5 168.5,-112.5"/>
<text text-anchor="middle" x="201" y="-119.5" font-family="Helvetica,sans-Serif" font-size="10.00">string_util.h</text>
</a>
</g>
</g>
<!-- Node1&#45;&gt;Node8 -->
<g id="edge7" class="edge"><title>Node1&#45;&gt;Node8</title>
<path fill="none" stroke="midnightblue" d="M241.074,-168.083C234.154,-160.298 223.935,-148.801 215.548,-139.367"/>
<polygon fill="midnightblue" stroke="midnightblue" points="218.038,-136.9 208.779,-131.751 212.806,-141.55 218.038,-136.9"/>
</g>
<!-- Node13 -->
<g id="node13" class="node"><title>Node13</title>
<g id="a_node13"><a xlink:href="data__structures_8h.html" target="_top" xlink:title="data_structures.h">
<polygon fill="white" stroke="black" points="252,-112.5 252,-131.5 344,-131.5 344,-112.5 252,-112.5"/>
<text text-anchor="middle" x="298" y="-119.5" font-family="Helvetica,sans-Serif" font-size="10.00">data_structures.h</text>
</a>
</g>
</g>
<!-- Node1&#45;&gt;Node13 -->
<g id="edge14" class="edge"><title>Node1&#45;&gt;Node13</title>
<path fill="none" stroke="midnightblue" d="M257.091,-168.083C264.155,-160.298 274.588,-148.801 283.149,-139.367"/>
<polygon fill="midnightblue" stroke="midnightblue" points="285.931,-141.509 290.059,-131.751 280.747,-136.805 285.931,-141.509"/>
</g>
<!-- Node8&#45;&gt;Node4 -->
<g id="edge10" class="edge"><title>Node8&#45;&gt;Node4</title>
<path fill="none" stroke="midnightblue" d="M189.753,-112.324C179.203,-104.185 163.199,-91.8395 150.558,-82.0874"/>
<polygon fill="midnightblue" stroke="midnightblue" points="152.507,-79.1707 142.451,-75.8339 148.231,-84.7132 152.507,-79.1707"/>
</g>
<!-- Node9 -->
<g id="node9" class="node"><title>Node9</title>
<polygon fill="white" stroke="#bfbfbf" points="247.5,-56.5 247.5,-75.5 304.5,-75.5 304.5,-56.5 247.5,-56.5"/>
<text text-anchor="middle" x="276" y="-63.5" font-family="Helvetica,sans-Serif" font-size="10.00">stdbool.h</text>
</g>
<!-- Node8&#45;&gt;Node9 -->
<g id="edge8" class="edge"><title>Node8&#45;&gt;Node9</title>
<path fill="none" stroke="midnightblue" d="M213.05,-112.324C224.463,-104.107 241.831,-91.6017 255.435,-81.8069"/>
<polygon fill="midnightblue" stroke="midnightblue" points="257.66,-84.5174 263.731,-75.8339 253.57,-78.8366 257.66,-84.5174"/>
</g>
<!-- Node10 -->
<g id="node10" class="node"><title>Node10</title>
<polygon fill="white" stroke="#bfbfbf" points="322.5,-56.5 322.5,-75.5 369.5,-75.5 369.5,-56.5 322.5,-56.5"/>
<text text-anchor="middle" x="346" y="-63.5" font-family="Helvetica,sans-Serif" font-size="10.00">stdint.h</text>
</g>
<!-- Node8&#45;&gt;Node10 -->
<g id="edge9" class="edge"><title>Node8&#45;&gt;Node10</title>
<path fill="none" stroke="midnightblue" d="M223.976,-112.444C248.157,-103.438 286.418,-89.1891 313.646,-79.049"/>
<polygon fill="midnightblue" stroke="midnightblue" points="314.982,-82.2864 323.132,-75.5164 312.539,-75.7265 314.982,-82.2864"/>
</g>
<!-- Node11 -->
<g id="node11" class="node"><title>Node11</title>
<g id="a_node11"><a xlink:href="coredefs_8h.html" target="_top" xlink:title="coredefs.h">
<polygon fill="white" stroke="black" points="388,-56.5 388,-75.5 452,-75.5 452,-56.5 388,-56.5"/>
<text text-anchor="middle" x="420" y="-63.5" font-family="Helvetica,sans-Serif" font-size="10.00">coredefs.h</text>
</a>
</g>
</g>
<!-- Node8&#45;&gt;Node11 -->
<g id="edge11" class="edge"><title>Node8&#45;&gt;Node11</title>
<path fill="none" stroke="midnightblue" d="M233.787,-112.916C272.148,-103.457 335.754,-87.7731 377.776,-77.4114"/>
<polygon fill="midnightblue" stroke="midnightblue" points="378.833,-80.7557 387.704,-74.9633 377.157,-73.9593 378.833,-80.7557"/>
</g>
<!-- Node12 -->
<g id="node12" class="node"><title>Node12</title>
<g id="a_node12"><a xlink:href="glib__util_8h.html" target="_top" xlink:title="glib_util.h">
<polygon fill="white" stroke="black" points="172.5,-56.5 172.5,-75.5 229.5,-75.5 229.5,-56.5 172.5,-56.5"/>
<text text-anchor="middle" x="201" y="-63.5" font-family="Helvetica,sans-Serif" font-size="10.00">glib_util.h</text>
</a>
</g>
</g>
<!-- Node8&#45;&gt;Node12 -->
<g id="edge12" class="edge"><title>Node8&#45;&gt;Node12</title>
<path fill="none" stroke="midnightblue" d="M201,-112.083C201,-105.006 201,-94.8611 201,-85.9865"/>
<polygon fill="midnightblue" stroke="midnightblue" points="204.5,-85.751 201,-75.7511 197.5,-85.7511 204.5,-85.751"/>
</g>
<!-- Node12&#45;&gt;Node3 -->
<g id="edge13" class="edge"><title>Node12&#45;&gt;Node3</title>
<path fill="none" stroke="midnightblue" d="M191.199,-56.324C182.182,-48.3414 168.594,-36.3128 157.682,-26.6529"/>
<polygon fill="midnightblue" stroke="midnightblue" points="159.787,-23.8416 149.979,-19.8339 155.147,-29.083 159.787,-23.8416"/>
</g>
<!-- Node13&#45;&gt;Node9 -->
<g id="edge15" class="edge"><title>Node13&#45;&gt;Node9</title>
<path fill="none" stroke="midnightblue" d="M294.367,-112.083C291.388,-104.77 287.074,-94.1814 283.375,-85.1034"/>
<polygon fill="midnightblue" stroke="midnightblue" points="286.58,-83.6914 279.565,-75.7511 280.097,-86.3326 286.58,-83.6914"/>
</g>
<!-- Node13&#45;&gt;Node10 -->
<g id="edge16" class="edge"><title>Node13&#45;&gt;Node10</title>
<path fill="none" stroke="midnightblue" d="M305.926,-112.083C312.846,-104.298 323.065,-92.8015 331.452,-83.3665"/>
<polygon fill="midnightblue" stroke="midnightblue" points="334.194,-85.5505 338.221,-75.7511 328.962,-80.8999 334.194,-85.5505"/>
</g>
<!-- Node13&#45;&gt;Node11 -->
<g id="edge17" class="edge"><title>Node13&#45;&gt;Node11</title>
<path fill="none" stroke="midnightblue" d="M317.331,-112.444C337.32,-103.596 368.743,-89.6875 391.564,-79.5865"/>
<polygon fill="midnightblue" stroke="midnightblue" points="393.032,-82.7645 400.759,-75.5164 390.198,-76.3635 393.032,-82.7645"/>
</g>
</g>
</svg>
