<?xml version="1.0" encoding="UTF-8" standalone="no"?>
<!DOCTYPE svg PUBLIC "-//W3C//DTD SVG 1.1//EN"
 "http://www.w3.org/Graphics/SVG/1.1/DTD/svg11.dtd">
<!-- Generated by graphviz version 2.38.0 (20140413.2041)
 -->
<!-- Title: buffer_extend Pages: 1 -->
<svg width="307pt" height="28pt"
 viewBox="0.00 0.00 307.00 28.00" xmlns="http://www.w3.org/2000/svg" xmlns:xlink="http://www.w3.org/1999/xlink">
<g id="graph0" class="graph" transform="scale(1 1) rotate(0) translate(4 24)">
<title>buffer_extend</title>
<polygon fill="white" stroke="none" points="-4,4 -4,-24 303,-24 303,4 -4,4"/>
<!-- Node1 -->
<g id="node1" class="node"><title>Node1</title>
<polygon fill="#bfbfbf" stroke="black" points="0,-0.5 0,-19.5 77,-19.5 77,-0.5 0,-0.5"/>
<text text-anchor="middle" x="38.5" y="-7.5" font-family="Helvetica,sans-Serif" font-size="10.00">buffer_extend</text>
</g>
<!-- Node2 -->
<g id="node2" class="node"><title>Node2</title>
<g id="a_node2"><a xlink:href="data__structures_8h.html#a5bfc2ff52e8d2a88a7fb24683dadeaa7" target="_top" xlink:title="buffer_append">
<polygon fill="white" stroke="black" points="113,-0.5 113,-19.5 193,-19.5 193,-0.5 113,-0.5"/>
<text text-anchor="middle" x="153" y="-7.5" font-family="Helvetica,sans-Serif" font-size="10.00">buffer_append</text>
</a>
</g>
</g>
<!-- Node1&#45;&gt;Node2 -->
<g id="edge1" class="edge"><title>Node1&#45;&gt;Node2</title>
<path fill="none" stroke="midnightblue" d="M87.4738,-10C95.9853,-10 104.755,-10 112.981,-10"/>
<polygon fill="midnightblue" stroke="midnightblue" points="87.2739,-6.5001 77.2738,-10 87.2738,-13.5001 87.2739,-6.5001"/>
</g>
<!-- Node3 -->
<g id="node3" class="node"><title>Node3</title>
<g id="a_node3"><a xlink:href="data__structures_8h.html#a60bd19734e2ef1104d0d776b9bea8743" target="_top" xlink:title="buffer_strcat">
<polygon fill="white" stroke="black" points="229,-0.5 229,-19.5 299,-19.5 299,-0.5 229,-0.5"/>
<text text-anchor="middle" x="264" y="-7.5" font-family="Helvetica,sans-Serif" font-size="10.00">buffer_strcat</text>
</a>
</g>
</g>
<!-- Node2&#45;&gt;Node3 -->
<g id="edge2" class="edge"><title>Node2&#45;&gt;Node3</title>
<path fill="none" stroke="midnightblue" d="M203.133,-10C211.845,-10 220.743,-10 228.923,-10"/>
<polygon fill="midnightblue" stroke="midnightblue" points="203.044,-6.5001 193.044,-10 203.044,-13.5001 203.044,-6.5001"/>
</g>
</g>
</svg>
