<?xml version="1.0" encoding="UTF-8" standalone="no"?>
<!DOCTYPE svg PUBLIC "-//W3C//DTD SVG 1.1//EN"
 "http://www.w3.org/Graphics/SVG/1.1/DTD/svg11.dtd">
<!-- Generated by graphviz version 2.38.0 (20140413.2041)
 -->
<!-- Title: bva_report Pages: 1 -->
<svg width="180pt" height="180pt"
 viewBox="0.00 0.00 180.00 180.00" xmlns="http://www.w3.org/2000/svg" xmlns:xlink="http://www.w3.org/1999/xlink">
<g id="graph0" class="graph" transform="scale(1 1) rotate(0) translate(4 176)">
<title>bva_report</title>
<polygon fill="white" stroke="none" points="-4,4 -4,-176 176,-176 176,4 -4,4"/>
<!-- Node1 -->
<g id="node1" class="node"><title>Node1</title>
<polygon fill="#bfbfbf" stroke="black" points="0,-76.5 0,-95.5 64,-95.5 64,-76.5 0,-76.5"/>
<text text-anchor="middle" x="32" y="-83.5" font-family="Helvetica,sans-Serif" font-size="10.00">bva_report</text>
</g>
<!-- Node2 -->
<g id="node2" class="node"><title>Node2</title>
<g id="a_node2"><a xlink:href="data__structures_8c.html#a2b850fecd25d8253212c5494aababc2d" target="_top" xlink:title="bva_append">
<polygon fill="white" stroke="black" points="100,-152.5 100,-171.5 172,-171.5 172,-152.5 100,-152.5"/>
<text text-anchor="middle" x="136" y="-159.5" font-family="Helvetica,sans-Serif" font-size="10.00">bva_append</text>
</a>
</g>
</g>
<!-- Node1&#45;&gt;Node2 -->
<g id="edge1" class="edge"><title>Node1&#45;&gt;Node2</title>
<path fill="none" stroke="midnightblue" d="M42.9099,-95.5849C55.539,-107.52 78.3373,-128.144 100,-143 102.145,-144.471 104.416,-145.921 106.729,-147.322"/>
<polygon fill="midnightblue" stroke="midnightblue" points="105.264,-150.517 115.683,-152.441 108.739,-144.44 105.264,-150.517"/>
</g>
<!-- Node3 -->
<g id="node3" class="node"><title>Node3</title>
<g id="a_node3"><a xlink:href="data__structures_8c.html#ae89ac50f99d2431a4aa9180dec4811c8" target="_top" xlink:title="bva_create">
<polygon fill="white" stroke="black" points="102.5,-114.5 102.5,-133.5 169.5,-133.5 169.5,-114.5 102.5,-114.5"/>
<text text-anchor="middle" x="136" y="-121.5" font-family="Helvetica,sans-Serif" font-size="10.00">bva_create</text>
</a>
</g>
</g>
<!-- Node1&#45;&gt;Node3 -->
<g id="edge2" class="edge"><title>Node1&#45;&gt;Node3</title>
<path fill="none" stroke="midnightblue" d="M58.7389,-95.589C71.1813,-100.224 86.3075,-105.86 99.7975,-110.885"/>
<polygon fill="midnightblue" stroke="midnightblue" points="98.6766,-114.203 109.269,-114.414 101.12,-107.643 98.6766,-114.203"/>
</g>
<!-- Node4 -->
<g id="node4" class="node"><title>Node4</title>
<g id="a_node4"><a xlink:href="data__structures_8c.html#a51f3653c1ea7951db3197b3f60d895be" target="_top" xlink:title="bva_free">
<polygon fill="white" stroke="black" points="108,-76.5 108,-95.5 164,-95.5 164,-76.5 108,-76.5"/>
<text text-anchor="middle" x="136" y="-83.5" font-family="Helvetica,sans-Serif" font-size="10.00">bva_free</text>
</a>
</g>
</g>
<!-- Node1&#45;&gt;Node4 -->
<g id="edge3" class="edge"><title>Node1&#45;&gt;Node4</title>
<path fill="none" stroke="midnightblue" d="M64.1576,-86C74.7242,-86 86.6372,-86 97.6368,-86"/>
<polygon fill="midnightblue" stroke="midnightblue" points="97.8292,-89.5001 107.829,-86 97.8291,-82.5001 97.8292,-89.5001"/>
</g>
<!-- Node5 -->
<g id="node5" class="node"><title>Node5</title>
<g id="a_node5"><a xlink:href="data__structures_8c.html#af7fecad046dada36d10899532e3e72df" target="_top" xlink:title="bva_get">
<polygon fill="white" stroke="black" points="109.5,-38.5 109.5,-57.5 162.5,-57.5 162.5,-38.5 109.5,-38.5"/>
<text text-anchor="middle" x="136" y="-45.5" font-family="Helvetica,sans-Serif" font-size="10.00">bva_get</text>
</a>
</g>
</g>
<!-- Node1&#45;&gt;Node5 -->
<g id="edge4" class="edge"><title>Node1&#45;&gt;Node5</title>
<path fill="none" stroke="midnightblue" d="M58.7389,-76.411C71.1813,-71.7756 86.3075,-66.1404 99.7975,-61.1147"/>
<polygon fill="midnightblue" stroke="midnightblue" points="101.12,-64.3569 109.269,-57.5859 98.6766,-57.7973 101.12,-64.3569"/>
</g>
<!-- Node6 -->
<g id="node6" class="node"><title>Node6</title>
<g id="a_node6"><a xlink:href="data__structures_8c.html#a8fa645fef0d66dd54a026575213fd72b" target="_top" xlink:title="bva_length">
<polygon fill="white" stroke="black" points="103.5,-0.5 103.5,-19.5 168.5,-19.5 168.5,-0.5 103.5,-0.5"/>
<text text-anchor="middle" x="136" y="-7.5" font-family="Helvetica,sans-Serif" font-size="10.00">bva_length</text>
</a>
</g>
</g>
<!-- Node1&#45;&gt;Node6 -->
<g id="edge5" class="edge"><title>Node1&#45;&gt;Node6</title>
<path fill="none" stroke="midnightblue" d="M42.9099,-76.4151C55.539,-64.4802 78.3373,-43.8564 100,-29 102.145,-27.5287 104.416,-26.0795 106.729,-24.6776"/>
<polygon fill="midnightblue" stroke="midnightblue" points="108.739,-27.5605 115.683,-19.559 105.264,-21.4834 108.739,-27.5605"/>
</g>
</g>
</svg>
