<?xml version="1.0" encoding="UTF-8" standalone="no"?>
<!DOCTYPE svg PUBLIC "-//W3C//DTD SVG 1.1//EN"
 "http://www.w3.org/Graphics/SVG/1.1/DTD/svg11.dtd">
<!-- Generated by graphviz version 2.38.0 (20140413.2041)
 -->
<!-- Title: bva_append Pages: 1 -->
<svg width="188pt" height="66pt"
 viewBox="0.00 0.00 188.00 66.00" xmlns="http://www.w3.org/2000/svg" xmlns:xlink="http://www.w3.org/1999/xlink">
<g id="graph0" class="graph" transform="scale(1 1) rotate(0) translate(4 62)">
<title>bva_append</title>
<polygon fill="white" stroke="none" points="-4,4 -4,-62 184,-62 184,4 -4,4"/>
<!-- Node1 -->
<g id="node1" class="node"><title>Node1</title>
<polygon fill="#bfbfbf" stroke="black" points="0,-19.5 0,-38.5 72,-38.5 72,-19.5 0,-19.5"/>
<text text-anchor="middle" x="36" y="-26.5" font-family="Helvetica,sans-Serif" font-size="10.00">bva_append</text>
</g>
<!-- Node2 -->
<g id="node2" class="node"><title>Node2</title>
<g id="a_node2"><a xlink:href="data__structures_8h.html#ab379429c7d554913b284e67e9bb04e2e" target="_top" xlink:title="bbf_to_string">
<polygon fill="white" stroke="black" points="108,-38.5 108,-57.5 180,-57.5 180,-38.5 108,-38.5"/>
<text text-anchor="middle" x="144" y="-45.5" font-family="Helvetica,sans-Serif" font-size="10.00">bbf_to_string</text>
</a>
</g>
</g>
<!-- Node1&#45;&gt;Node2 -->
<g id="edge1" class="edge"><title>Node1&#45;&gt;Node2</title>
<path fill="none" stroke="midnightblue" d="M81.9156,-37.0509C90.5222,-38.5936 99.4201,-40.1885 107.672,-41.6677"/>
<polygon fill="midnightblue" stroke="midnightblue" points="82.4628,-33.5933 72.0021,-35.274 81.2277,-40.4835 82.4628,-33.5933"/>
</g>
<!-- Node3 -->
<g id="node3" class="node"><title>Node3</title>
<g id="a_node3"><a xlink:href="data__structures_8h.html#ac5b8860889c24beaddbbf65c3b8e916e" target="_top" xlink:title="bva_report">
<polygon fill="white" stroke="black" points="112,-0.5 112,-19.5 176,-19.5 176,-0.5 112,-0.5"/>
<text text-anchor="middle" x="144" y="-7.5" font-family="Helvetica,sans-Serif" font-size="10.00">bva_report</text>
</a>
</g>
</g>
<!-- Node1&#45;&gt;Node3 -->
<g id="edge2" class="edge"><title>Node1&#45;&gt;Node3</title>
<path fill="none" stroke="midnightblue" d="M81.9274,-20.947C92.043,-19.1338 102.56,-17.2486 111.958,-15.564"/>
<polygon fill="midnightblue" stroke="midnightblue" points="81.2277,-17.5165 72.0021,-22.726 82.4628,-24.4067 81.2277,-17.5165"/>
</g>
</g>
</svg>
