<?xml version="1.0" encoding="UTF-8" standalone="no"?>
<!DOCTYPE svg PUBLIC "-//W3C//DTD SVG 1.1//EN"
 "http://www.w3.org/Graphics/SVG/1.1/DTD/svg11.dtd">
<!-- Generated by graphviz version 2.38.0 (20140413.2041)
 -->
<!-- Title: data_structures.h Pages: 1 -->
<svg width="213pt" height="84pt"
 viewBox="0.00 0.00 212.50 84.00" xmlns="http://www.w3.org/2000/svg" xmlns:xlink="http://www.w3.org/1999/xlink">
<g id="graph0" class="graph" transform="scale(1 1) rotate(0) translate(4 80)">
<title>data_structures.h</title>
<polygon fill="white" stroke="none" points="-4,4 -4,-80 208.5,-80 208.5,4 -4,4"/>
<!-- Node1 -->
<g id="node1" class="node"><title>Node1</title>
<polygon fill="#bfbfbf" stroke="black" points="52.5,-56.5 52.5,-75.5 144.5,-75.5 144.5,-56.5 52.5,-56.5"/>
<text text-anchor="middle" x="98.5" y="-63.5" font-family="Helvetica,sans-Serif" font-size="10.00">data_structures.h</text>
</g>
<!-- Node2 -->
<g id="node2" class="node"><title>Node2</title>
<polygon fill="white" stroke="#bfbfbf" points="0,-0.5 0,-19.5 57,-19.5 57,-0.5 0,-0.5"/>
<text text-anchor="middle" x="28.5" y="-7.5" font-family="Helvetica,sans-Serif" font-size="10.00">stdbool.h</text>
</g>
<!-- Node1&#45;&gt;Node2 -->
<g id="edge1" class="edge"><title>Node1&#45;&gt;Node2</title>
<path fill="none" stroke="midnightblue" d="M87.2533,-56.324C76.7026,-48.1849 60.6993,-35.8395 48.0578,-26.0874"/>
<polygon fill="midnightblue" stroke="midnightblue" points="50.007,-23.1707 39.9513,-19.8339 45.7314,-28.7132 50.007,-23.1707"/>
</g>
<!-- Node3 -->
<g id="node3" class="node"><title>Node3</title>
<polygon fill="white" stroke="#bfbfbf" points="75,-0.5 75,-19.5 122,-19.5 122,-0.5 75,-0.5"/>
<text text-anchor="middle" x="98.5" y="-7.5" font-family="Helvetica,sans-Serif" font-size="10.00">stdint.h</text>
</g>
<!-- Node1&#45;&gt;Node3 -->
<g id="edge2" class="edge"><title>Node1&#45;&gt;Node3</title>
<path fill="none" stroke="midnightblue" d="M98.5,-56.083C98.5,-49.0059 98.5,-38.8611 98.5,-29.9865"/>
<polygon fill="midnightblue" stroke="midnightblue" points="102,-29.751 98.5,-19.7511 95.0001,-29.7511 102,-29.751"/>
</g>
<!-- Node4 -->
<g id="node4" class="node"><title>Node4</title>
<g id="a_node4"><a xlink:href="coredefs_8h.html" target="_top" xlink:title="coredefs.h">
<polygon fill="white" stroke="black" points="140.5,-0.5 140.5,-19.5 204.5,-19.5 204.5,-0.5 140.5,-0.5"/>
<text text-anchor="middle" x="172.5" y="-7.5" font-family="Helvetica,sans-Serif" font-size="10.00">coredefs.h</text>
</a>
</g>
</g>
<!-- Node1&#45;&gt;Node4 -->
<g id="edge3" class="edge"><title>Node1&#45;&gt;Node4</title>
<path fill="none" stroke="midnightblue" d="M110.389,-56.324C121.65,-48.1066 138.787,-35.6017 152.209,-25.8069"/>
<polygon fill="midnightblue" stroke="midnightblue" points="154.38,-28.5559 160.394,-19.8339 150.253,-22.9014 154.38,-28.5559"/>
</g>
</g>
</svg>
