<?xml version="1.0" encoding="UTF-8" standalone="no"?>
<!DOCTYPE svg PUBLIC "-//W3C//DTD SVG 1.1//EN"
 "http://www.w3.org/Graphics/SVG/1.1/DTD/svg11.dtd">
<!-- Generated by graphviz version 2.38.0 (20140413.2041)
 -->
<!-- Title: data_structures.h Pages: 1 -->
<svg width="186pt" height="84pt"
 viewBox="0.00 0.00 186.00 84.00" xmlns="http://www.w3.org/2000/svg" xmlns:xlink="http://www.w3.org/1999/xlink">
<g id="graph0" class="graph" transform="scale(1 1) rotate(0) translate(4 80)">
<title>data_structures.h</title>
<polygon fill="white" stroke="none" points="-4,4 -4,-80 182,-80 182,4 -4,4"/>
<!-- Node1 -->
<g id="node1" class="node"><title>Node1</title>
<polygon fill="#bfbfbf" stroke="black" points="49,-56.5 49,-75.5 141,-75.5 141,-56.5 49,-56.5"/>
<text text-anchor="middle" x="95" y="-63.5" font-family="Helvetica,sans-Serif" font-size="10.00">data_structures.h</text>
</g>
<!-- Node2 -->
<g id="node2" class="node"><title>Node2</title>
<g id="a_node2"><a xlink:href="data__structures_8c.html" target="_top" xlink:title="data_structures.c">
<polygon fill="white" stroke="black" points="0,-0.5 0,-19.5 92,-19.5 92,-0.5 0,-0.5"/>
<text text-anchor="middle" x="46" y="-7.5" font-family="Helvetica,sans-Serif" font-size="10.00">data_structures.c</text>
</a>
</g>
</g>
<!-- Node1&#45;&gt;Node2 -->
<g id="edge1" class="edge"><title>Node1&#45;&gt;Node2</title>
<path fill="none" stroke="midnightblue" d="M79.9655,-48.4314C71.3778,-38.9673 60.9565,-27.4827 53.9408,-19.7511"/>
<polygon fill="midnightblue" stroke="midnightblue" points="77.5967,-51.0293 86.9086,-56.083 82.7807,-46.3254 77.5967,-51.0293"/>
</g>
<!-- Node3 -->
<g id="node3" class="node"><title>Node3</title>
<g id="a_node3"><a xlink:href="libdrm__util_8c.html" target="_top" xlink:title="libdrm_util.c">
<polygon fill="white" stroke="black" points="110,-0.5 110,-19.5 178,-19.5 178,-0.5 110,-0.5"/>
<text text-anchor="middle" x="144" y="-7.5" font-family="Helvetica,sans-Serif" font-size="10.00">libdrm_util.c</text>
</a>
</g>
</g>
<!-- Node1&#45;&gt;Node3 -->
<g id="edge2" class="edge"><title>Node1&#45;&gt;Node3</title>
<path fill="none" stroke="midnightblue" d="M110.034,-48.4314C118.622,-38.9673 129.043,-27.4827 136.059,-19.7511"/>
<polygon fill="midnightblue" stroke="midnightblue" points="107.219,-46.3254 103.091,-56.083 112.403,-51.0293 107.219,-46.3254"/>
</g>
</g>
</svg>
