<?xml version="1.0" encoding="UTF-8" standalone="no"?>
<!DOCTYPE svg PUBLIC "-//W3C//DTD SVG 1.1//EN"
 "http://www.w3.org/Graphics/SVG/1.1/DTD/svg11.dtd">
<!-- Generated by graphviz version 2.38.0 (20140413.2041)
 -->
<!-- Title: buffer_put Pages: 1 -->
<svg width="318pt" height="28pt"
 viewBox="0.00 0.00 318.00 28.00" xmlns="http://www.w3.org/2000/svg" xmlns:xlink="http://www.w3.org/1999/xlink">
<g id="graph0" class="graph" transform="scale(1 1) rotate(0) translate(4 24)">
<title>buffer_put</title>
<polygon fill="white" stroke="none" points="-4,4 -4,-24 314,-24 314,4 -4,4"/>
<!-- Node1 -->
<g id="node1" class="node"><title>Node1</title>
<polygon fill="#bfbfbf" stroke="black" points="0,-0.5 0,-19.5 59,-19.5 59,-0.5 0,-0.5"/>
<text text-anchor="middle" x="29.5" y="-7.5" font-family="Helvetica,sans-Serif" font-size="10.00">buffer_put</text>
</g>
<!-- Node2 -->
<g id="node2" class="node"><title>Node2</title>
<g id="a_node2"><a xlink:href="data__structures_8h.html#ab9d1d63b252e85c1f97ef20cd811fd04" target="_top" xlink:title="buffer_new_with_value">
<polygon fill="white" stroke="black" points="95,-0.5 95,-19.5 212,-19.5 212,-0.5 95,-0.5"/>
<text text-anchor="middle" x="153.5" y="-7.5" font-family="Helvetica,sans-Serif" font-size="10.00">buffer_new_with_value</text>
</a>
</g>
</g>
<!-- Node1&#45;&gt;Node2 -->
<g id="edge1" class="edge"><title>Node1&#45;&gt;Node2</title>
<path fill="none" stroke="midnightblue" d="M69.3529,-10C77.4581,-10 86.167,-10 94.788,-10"/>
<polygon fill="midnightblue" stroke="midnightblue" points="69.1036,-6.5001 59.1036,-10 69.1035,-13.5001 69.1036,-6.5001"/>
</g>
<!-- Node3 -->
<g id="node3" class="node"><title>Node3</title>
<g id="a_node3"><a xlink:href="data__structures_8h.html#aa6f44166e2310500a6bb0daa2a2569ed" target="_top" xlink:title="buffer_dup">
<polygon fill="white" stroke="black" points="248,-0.5 248,-19.5 310,-19.5 310,-0.5 248,-0.5"/>
<text text-anchor="middle" x="279" y="-7.5" font-family="Helvetica,sans-Serif" font-size="10.00">buffer_dup</text>
</a>
</g>
</g>
<!-- Node2&#45;&gt;Node3 -->
<g id="edge2" class="edge"><title>Node2&#45;&gt;Node3</title>
<path fill="none" stroke="midnightblue" d="M222.373,-10C231.29,-10 240.036,-10 247.855,-10"/>
<polygon fill="midnightblue" stroke="midnightblue" points="222.273,-6.5001 212.272,-10 222.272,-13.5001 222.273,-6.5001"/>
</g>
</g>
</svg>
