<?xml version="1.0" encoding="UTF-8" standalone="no"?>
<!DOCTYPE svg PUBLIC "-//W3C//DTD SVG 1.1//EN"
 "http://www.w3.org/Graphics/SVG/1.1/DTD/svg11.dtd">
<!-- Generated by graphviz version 2.38.0 (20140413.2041)
 -->
<!-- Title: buffer_new Pages: 1 -->
<svg width="324pt" height="28pt"
 viewBox="0.00 0.00 324.00 28.00" xmlns="http://www.w3.org/2000/svg" xmlns:xlink="http://www.w3.org/1999/xlink">
<g id="graph0" class="graph" transform="scale(1 1) rotate(0) translate(4 24)">
<title>buffer_new</title>
<polygon fill="white" stroke="none" points="-4,4 -4,-24 320,-24 320,4 -4,4"/>
<!-- Node1 -->
<g id="node1" class="node"><title>Node1</title>
<polygon fill="#bfbfbf" stroke="black" points="0,-0.5 0,-19.5 65,-19.5 65,-0.5 0,-0.5"/>
<text text-anchor="middle" x="32.5" y="-7.5" font-family="Helvetica,sans-Serif" font-size="10.00">buffer_new</text>
</g>
<!-- Node2 -->
<g id="node2" class="node"><title>Node2</title>
<g id="a_node2"><a xlink:href="data__structures_8h.html#ab9d1d63b252e85c1f97ef20cd811fd04" target="_top" xlink:title="buffer_new_with_value">
<polygon fill="white" stroke="black" points="101,-0.5 101,-19.5 218,-19.5 218,-0.5 101,-0.5"/>
<text text-anchor="middle" x="159.5" y="-7.5" font-family="Helvetica,sans-Serif" font-size="10.00">buffer_new_with_value</text>
</a>
</g>
</g>
<!-- Node1&#45;&gt;Node2 -->
<g id="edge1" class="edge"><title>Node1&#45;&gt;Node2</title>
<path fill="none" stroke="midnightblue" d="M75.0952,-10C83.3001,-10 92.0482,-10 100.677,-10"/>
<polygon fill="midnightblue" stroke="midnightblue" points="75.0428,-6.5001 65.0428,-10 75.0427,-13.5001 75.0428,-6.5001"/>
</g>
<!-- Node3 -->
<g id="node3" class="node"><title>Node3</title>
<g id="a_node3"><a xlink:href="data__structures_8h.html#aa6f44166e2310500a6bb0daa2a2569ed" target="_top" xlink:title="buffer_dup">
<polygon fill="white" stroke="black" points="254,-0.5 254,-19.5 316,-19.5 316,-0.5 254,-0.5"/>
<text text-anchor="middle" x="285" y="-7.5" font-family="Helvetica,sans-Serif" font-size="10.00">buffer_dup</text>
</a>
</g>
</g>
<!-- Node2&#45;&gt;Node3 -->
<g id="edge2" class="edge"><title>Node2&#45;&gt;Node3</title>
<path fill="none" stroke="midnightblue" d="M228.373,-10C237.29,-10 246.036,-10 253.855,-10"/>
<polygon fill="midnightblue" stroke="midnightblue" points="228.273,-6.5001 218.272,-10 228.272,-13.5001 228.273,-6.5001"/>
</g>
</g>
</svg>
