<?xml version="1.0" encoding="UTF-8" standalone="no"?>
<!DOCTYPE svg PUBLIC "-//W3C//DTD SVG 1.1//EN"
 "http://www.w3.org/Graphics/SVG/1.1/DTD/svg11.dtd">
<!-- Generated by graphviz version 2.38.0 (20140413.2041)
 -->
<!-- Title: buffer_strcat Pages: 1 -->
<svg width="319pt" height="66pt"
 viewBox="0.00 0.00 319.00 66.00" xmlns="http://www.w3.org/2000/svg" xmlns:xlink="http://www.w3.org/1999/xlink">
<g id="graph0" class="graph" transform="scale(1 1) rotate(0) translate(4 62)">
<title>buffer_strcat</title>
<polygon fill="white" stroke="none" points="-4,4 -4,-62 315,-62 315,4 -4,4"/>
<!-- Node1 -->
<g id="node1" class="node"><title>Node1</title>
<polygon fill="#bfbfbf" stroke="black" points="0,-19.5 0,-38.5 70,-38.5 70,-19.5 0,-19.5"/>
<text text-anchor="middle" x="35" y="-26.5" font-family="Helvetica,sans-Serif" font-size="10.00">buffer_strcat</text>
</g>
<!-- Node2 -->
<g id="node2" class="node"><title>Node2</title>
<g id="a_node2"><a xlink:href="data__structures_8c.html#a5bfc2ff52e8d2a88a7fb24683dadeaa7" target="_top" xlink:title="buffer_append">
<polygon fill="white" stroke="black" points="112,-38.5 112,-57.5 192,-57.5 192,-38.5 112,-38.5"/>
<text text-anchor="middle" x="152" y="-45.5" font-family="Helvetica,sans-Serif" font-size="10.00">buffer_append</text>
</a>
</g>
</g>
<!-- Node1&#45;&gt;Node2 -->
<g id="edge1" class="edge"><title>Node1&#45;&gt;Node2</title>
<path fill="none" stroke="midnightblue" d="M70.1924,-34.6492C80.1268,-36.2905 91.1786,-38.1165 101.84,-39.8778"/>
<polygon fill="midnightblue" stroke="midnightblue" points="101.455,-43.3617 111.892,-41.5387 102.596,-36.4553 101.455,-43.3617"/>
</g>
<!-- Node4 -->
<g id="node4" class="node"><title>Node4</title>
<g id="a_node4"><a xlink:href="data__structures_8c.html#a427950f79437de2a5814a4e0460406d3" target="_top" xlink:title="buffer_set_length">
<polygon fill="white" stroke="black" points="106,-0.5 106,-19.5 198,-19.5 198,-0.5 106,-0.5"/>
<text text-anchor="middle" x="152" y="-7.5" font-family="Helvetica,sans-Serif" font-size="10.00">buffer_set_length</text>
</a>
</g>
</g>
<!-- Node1&#45;&gt;Node4 -->
<g id="edge3" class="edge"><title>Node1&#45;&gt;Node4</title>
<path fill="none" stroke="midnightblue" d="M70.1924,-23.3508C78.1871,-22.03 86.9054,-20.5895 95.5614,-19.1594"/>
<polygon fill="midnightblue" stroke="midnightblue" points="96.3513,-22.5765 105.647,-17.4931 95.2102,-15.6701 96.3513,-22.5765"/>
</g>
<!-- Node3 -->
<g id="node3" class="node"><title>Node3</title>
<g id="a_node3"><a xlink:href="data__structures_8c.html#a29df1e7d66ba3c44b86c98d52a36168b" target="_top" xlink:title="buffer_extend">
<polygon fill="white" stroke="black" points="234,-38.5 234,-57.5 311,-57.5 311,-38.5 234,-38.5"/>
<text text-anchor="middle" x="272.5" y="-45.5" font-family="Helvetica,sans-Serif" font-size="10.00">buffer_extend</text>
</a>
</g>
</g>
<!-- Node2&#45;&gt;Node3 -->
<g id="edge2" class="edge"><title>Node2&#45;&gt;Node3</title>
<path fill="none" stroke="midnightblue" d="M192.13,-48C202.141,-48 213.022,-48 223.425,-48"/>
<polygon fill="midnightblue" stroke="midnightblue" points="223.62,-51.5001 233.62,-48 223.62,-44.5001 223.62,-51.5001"/>
</g>
</g>
</svg>
