<?xml version="1.0" encoding="UTF-8" standalone="no"?>
<!DOCTYPE svg PUBLIC "-//W3C//DTD SVG 1.1//EN"
 "http://www.w3.org/Graphics/SVG/1.1/DTD/svg11.dtd">
<!-- Generated by graphviz version 2.38.0 (20140413.2041)
 -->
<!-- Title: debug_util.c Pages: 1 -->
<svg width="498pt" height="84pt"
 viewBox="0.00 0.00 498.00 84.00" xmlns="http://www.w3.org/2000/svg" xmlns:xlink="http://www.w3.org/1999/xlink">
<g id="graph0" class="graph" transform="scale(1 1) rotate(0) translate(4 80)">
<title>debug_util.c</title>
<polygon fill="white" stroke="none" points="-4,4 -4,-80 494,-80 494,4 -4,4"/>
<!-- Node1 -->
<g id="node1" class="node"><title>Node1</title>
<polygon fill="#bfbfbf" stroke="black" points="209,-56.5 209,-75.5 279,-75.5 279,-56.5 209,-56.5"/>
<text text-anchor="middle" x="244" y="-63.5" font-family="Helvetica,sans-Serif" font-size="10.00">debug_util.c</text>
</g>
<!-- Node2 -->
<g id="node2" class="node"><title>Node2</title>
<polygon fill="white" stroke="#bfbfbf" points="0,-0.5 0,-19.5 62,-19.5 62,-0.5 0,-0.5"/>
<text text-anchor="middle" x="31" y="-7.5" font-family="Helvetica,sans-Serif" font-size="10.00">execinfo.h</text>
</g>
<!-- Node1&#45;&gt;Node2 -->
<g id="edge1" class="edge"><title>Node1&#45;&gt;Node2</title>
<path fill="none" stroke="midnightblue" d="M210.25,-56.4435C172.725,-46.9302 112.118,-31.5652 71.9207,-21.3743"/>
<polygon fill="midnightblue" stroke="midnightblue" points="72.7206,-17.9664 62.1671,-18.9015 71.0003,-24.7517 72.7206,-17.9664"/>
</g>
<!-- Node3 -->
<g id="node3" class="node"><title>Node3</title>
<polygon fill="white" stroke="#bfbfbf" points="80.5,-0.5 80.5,-19.5 137.5,-19.5 137.5,-0.5 80.5,-0.5"/>
<text text-anchor="middle" x="109" y="-7.5" font-family="Helvetica,sans-Serif" font-size="10.00">stdbool.h</text>
</g>
<!-- Node1&#45;&gt;Node3 -->
<g id="edge2" class="edge"><title>Node1&#45;&gt;Node3</title>
<path fill="none" stroke="midnightblue" d="M222.609,-56.4435C200.293,-47.5171 165.097,-33.4387 139.792,-23.3168"/>
<polygon fill="midnightblue" stroke="midnightblue" points="140.876,-19.9807 130.291,-19.5164 138.276,-26.4801 140.876,-19.9807"/>
</g>
<!-- Node4 -->
<g id="node4" class="node"><title>Node4</title>
<polygon fill="white" stroke="#bfbfbf" points="156,-0.5 156,-19.5 202,-19.5 202,-0.5 156,-0.5"/>
<text text-anchor="middle" x="179" y="-7.5" font-family="Helvetica,sans-Serif" font-size="10.00">stdio.h</text>
</g>
<!-- Node1&#45;&gt;Node4 -->
<g id="edge3" class="edge"><title>Node1&#45;&gt;Node4</title>
<path fill="none" stroke="midnightblue" d="M233.557,-56.324C223.854,-48.2631 209.185,-36.0765 197.5,-26.3695"/>
<polygon fill="midnightblue" stroke="midnightblue" points="199.562,-23.532 189.633,-19.8339 195.089,-28.9163 199.562,-23.532"/>
</g>
<!-- Node5 -->
<g id="node5" class="node"><title>Node5</title>
<polygon fill="white" stroke="#bfbfbf" points="220.5,-0.5 220.5,-19.5 267.5,-19.5 267.5,-0.5 220.5,-0.5"/>
<text text-anchor="middle" x="244" y="-7.5" font-family="Helvetica,sans-Serif" font-size="10.00">stdlib.h</text>
</g>
<!-- Node1&#45;&gt;Node5 -->
<g id="edge4" class="edge"><title>Node1&#45;&gt;Node5</title>
<path fill="none" stroke="midnightblue" d="M244,-56.083C244,-49.0059 244,-38.8611 244,-29.9865"/>
<polygon fill="midnightblue" stroke="midnightblue" points="247.5,-29.751 244,-19.7511 240.5,-29.7511 247.5,-29.751"/>
</g>
<!-- Node6 -->
<g id="node6" class="node"><title>Node6</title>
<polygon fill="white" stroke="#bfbfbf" points="286,-0.5 286,-19.5 334,-19.5 334,-0.5 286,-0.5"/>
<text text-anchor="middle" x="310" y="-7.5" font-family="Helvetica,sans-Serif" font-size="10.00">string.h</text>
</g>
<!-- Node1&#45;&gt;Node6 -->
<g id="edge5" class="edge"><title>Node1&#45;&gt;Node6</title>
<path fill="none" stroke="midnightblue" d="M254.604,-56.324C264.456,-48.2631 279.351,-36.0765 291.215,-26.3695"/>
<polygon fill="midnightblue" stroke="midnightblue" points="293.68,-28.8752 299.203,-19.8339 289.247,-23.4575 293.68,-28.8752"/>
</g>
<!-- Node7 -->
<g id="node7" class="node"><title>Node7</title>
<polygon fill="white" stroke="#bfbfbf" points="352,-0.5 352,-19.5 402,-19.5 402,-0.5 352,-0.5"/>
<text text-anchor="middle" x="377" y="-7.5" font-family="Helvetica,sans-Serif" font-size="10.00">unistd.h</text>
</g>
<!-- Node1&#45;&gt;Node7 -->
<g id="edge6" class="edge"><title>Node1&#45;&gt;Node7</title>
<path fill="none" stroke="midnightblue" d="M265.074,-56.4435C287.06,-47.5171 321.734,-33.4387 346.664,-23.3168"/>
<polygon fill="midnightblue" stroke="midnightblue" points="348.076,-26.5213 356.024,-19.5164 345.442,-20.0355 348.076,-26.5213"/>
</g>
<!-- Node8 -->
<g id="node8" class="node"><title>Node8</title>
<g id="a_node8"><a xlink:href="debug__util_8h.html" target="_top" xlink:title="debug_util.h">
<polygon fill="white" stroke="black" points="420,-0.5 420,-19.5 490,-19.5 490,-0.5 420,-0.5"/>
<text text-anchor="middle" x="455" y="-7.5" font-family="Helvetica,sans-Serif" font-size="10.00">debug_util.h</text>
</a>
</g>
</g>
<!-- Node1&#45;&gt;Node8 -->
<g id="edge7" class="edge"><title>Node1&#45;&gt;Node8</title>
<path fill="none" stroke="midnightblue" d="M277.434,-56.4435C313.856,-47.1221 372.23,-32.1828 412.029,-21.9972"/>
<polygon fill="midnightblue" stroke="midnightblue" points="412.903,-25.3866 421.723,-19.5164 411.167,-18.6051 412.903,-25.3866"/>
</g>
</g>
</svg>
