<?xml version="1.0" encoding="UTF-8" standalone="no"?>
<!DOCTYPE svg PUBLIC "-//W3C//DTD SVG 1.1//EN"
 "http://www.w3.org/Graphics/SVG/1.1/DTD/svg11.dtd">
<!-- Generated by graphviz version 2.38.0 (20140413.2041)
 -->
<!-- Title: devid_usage_code_name_by_extended_id Pages: 1 -->
<svg width="622pt" height="66pt"
 viewBox="0.00 0.00 622.00 66.00" xmlns="http://www.w3.org/2000/svg" xmlns:xlink="http://www.w3.org/1999/xlink">
<g id="graph0" class="graph" transform="scale(1 1) rotate(0) translate(4 62)">
<title>devid_usage_code_name_by_extended_id</title>
<polygon fill="white" stroke="none" points="-4,4 -4,-62 618,-62 618,4 -4,4"/>
<!-- Node1 -->
<g id="node1" class="node"><title>Node1</title>
<polygon fill="#bfbfbf" stroke="black" points="0,-14 0,-44 135,-44 135,-14 0,-14"/>
<text text-anchor="start" x="8" y="-32" font-family="Helvetica,sans-Serif" font-size="10.00">devid_usage_code_name</text>
<text text-anchor="middle" x="67.5" y="-21" font-family="Helvetica,sans-Serif" font-size="10.00">_by_extended_id</text>
</g>
<!-- Node2 -->
<g id="node2" class="node"><title>Node2</title>
<g id="a_node2"><a xlink:href="device__id__util_8c.html#ae6f5ae13af77d1e6a46dbb4ccd72dbaf" target="_top" xlink:title="devid_usage_code_id_name">
<polygon fill="white" stroke="black" points="171,-19.5 171,-38.5 320,-38.5 320,-19.5 171,-19.5"/>
<text text-anchor="middle" x="245.5" y="-26.5" font-family="Helvetica,sans-Serif" font-size="10.00">devid_usage_code_id_name</text>
</a>
</g>
</g>
<!-- Node1&#45;&gt;Node2 -->
<g id="edge1" class="edge"><title>Node1&#45;&gt;Node2</title>
<path fill="none" stroke="midnightblue" d="M135.038,-29C143.434,-29 152.107,-29 160.727,-29"/>
<polygon fill="midnightblue" stroke="midnightblue" points="160.8,-32.5001 170.8,-29 160.8,-25.5001 160.8,-32.5001"/>
</g>
<!-- Node3 -->
<g id="node3" class="node"><title>Node3</title>
<g id="a_node3"><a xlink:href="device__id__util_8c.html#a8ebdd4cb859121ca833743820a98a466" target="_top" xlink:title="devid_ensure_initialized">
<polygon fill="white" stroke="black" points="356,-38.5 356,-57.5 481,-57.5 481,-38.5 356,-38.5"/>
<text text-anchor="middle" x="418.5" y="-45.5" font-family="Helvetica,sans-Serif" font-size="10.00">devid_ensure_initialized</text>
</a>
</g>
</g>
<!-- Node2&#45;&gt;Node3 -->
<g id="edge2" class="edge"><title>Node2&#45;&gt;Node3</title>
<path fill="none" stroke="midnightblue" d="M320.012,-37.168C328.6,-38.1222 337.353,-39.0948 345.914,-40.046"/>
<polygon fill="midnightblue" stroke="midnightblue" points="345.53,-43.5248 355.856,-41.1506 346.303,-36.5676 345.53,-43.5248"/>
</g>
<!-- Node5 -->
<g id="node5" class="node"><title>Node5</title>
<g id="a_node5"><a xlink:href="multi__level__map_8c.html#a84511f1bd3a0bc212ec354d0259c3c1b" target="_top" xlink:title="mlm_get_names">
<polygon fill="white" stroke="black" points="373,-0.5 373,-19.5 464,-19.5 464,-0.5 373,-0.5"/>
<text text-anchor="middle" x="418.5" y="-7.5" font-family="Helvetica,sans-Serif" font-size="10.00">mlm_get_names</text>
</a>
</g>
</g>
<!-- Node2&#45;&gt;Node5 -->
<g id="edge4" class="edge"><title>Node2&#45;&gt;Node5</title>
<path fill="none" stroke="midnightblue" d="M320.012,-20.832C334.294,-19.2451 349.032,-17.6075 362.588,-16.1013"/>
<polygon fill="midnightblue" stroke="midnightblue" points="363.145,-19.5611 372.697,-14.9781 362.372,-12.6039 363.145,-19.5611"/>
</g>
<!-- Node4 -->
<g id="node4" class="node"><title>Node4</title>
<g id="a_node4"><a xlink:href="string__util_8c.html#a1ecb7458987387bfab6da137cdebc4cc" target="_top" xlink:title="bool_repr">
<polygon fill="white" stroke="black" points="536,-38.5 536,-57.5 595,-57.5 595,-38.5 536,-38.5"/>
<text text-anchor="middle" x="565.5" y="-45.5" font-family="Helvetica,sans-Serif" font-size="10.00">bool_repr</text>
</a>
</g>
</g>
<!-- Node3&#45;&gt;Node4 -->
<g id="edge3" class="edge"><title>Node3&#45;&gt;Node4</title>
<path fill="none" stroke="midnightblue" d="M481.414,-48C496.355,-48 511.909,-48 525.464,-48"/>
<polygon fill="midnightblue" stroke="midnightblue" points="525.857,-51.5001 535.857,-48 525.857,-44.5001 525.857,-51.5001"/>
</g>
<!-- Node6 -->
<g id="node6" class="node"><title>Node6</title>
<g id="a_node6"><a xlink:href="multi__level__map_8c.html#a55a03cdfaf58bc329c0db2a9e3d8ade5" target="_top" xlink:title="mlm_get_names2">
<polygon fill="white" stroke="black" points="517,-0.5 517,-19.5 614,-19.5 614,-0.5 517,-0.5"/>
<text text-anchor="middle" x="565.5" y="-7.5" font-family="Helvetica,sans-Serif" font-size="10.00">mlm_get_names2</text>
</a>
</g>
</g>
<!-- Node5&#45;&gt;Node6 -->
<g id="edge5" class="edge"><title>Node5&#45;&gt;Node6</title>
<path fill="none" stroke="midnightblue" d="M464.188,-10C477.647,-10 492.613,-10 506.791,-10"/>
<polygon fill="midnightblue" stroke="midnightblue" points="506.942,-13.5001 516.942,-10 506.942,-6.5001 506.942,-13.5001"/>
</g>
</g>
</svg>
