<?xml version="1.0" encoding="UTF-8" standalone="no"?>
<!DOCTYPE svg PUBLIC "-//W3C//DTD SVG 1.1//EN"
 "http://www.w3.org/Graphics/SVG/1.1/DTD/svg11.dtd">
<!-- Generated by graphviz version 2.38.0 (20140413.2041)
 -->
<!-- Title: devid_usage_code_id_name Pages: 1 -->
<svg width="451pt" height="66pt"
 viewBox="0.00 0.00 451.00 66.00" xmlns="http://www.w3.org/2000/svg" xmlns:xlink="http://www.w3.org/1999/xlink">
<g id="graph0" class="graph" transform="scale(1 1) rotate(0) translate(4 62)">
<title>devid_usage_code_id_name</title>
<polygon fill="white" stroke="none" points="-4,4 -4,-62 447,-62 447,4 -4,4"/>
<!-- Node1 -->
<g id="node1" class="node"><title>Node1</title>
<polygon fill="#bfbfbf" stroke="black" points="0,-19.5 0,-38.5 149,-38.5 149,-19.5 0,-19.5"/>
<text text-anchor="middle" x="74.5" y="-26.5" font-family="Helvetica,sans-Serif" font-size="10.00">devid_usage_code_id_name</text>
</g>
<!-- Node2 -->
<g id="node2" class="node"><title>Node2</title>
<g id="a_node2"><a xlink:href="device__id__util_8c.html#a8ebdd4cb859121ca833743820a98a466" target="_top" xlink:title="devid_ensure_initialized">
<polygon fill="white" stroke="black" points="185,-38.5 185,-57.5 310,-57.5 310,-38.5 185,-38.5"/>
<text text-anchor="middle" x="247.5" y="-45.5" font-family="Helvetica,sans-Serif" font-size="10.00">devid_ensure_initialized</text>
</a>
</g>
</g>
<!-- Node1&#45;&gt;Node2 -->
<g id="edge1" class="edge"><title>Node1&#45;&gt;Node2</title>
<path fill="none" stroke="midnightblue" d="M149.012,-37.168C157.6,-38.1222 166.353,-39.0948 174.914,-40.046"/>
<polygon fill="midnightblue" stroke="midnightblue" points="174.53,-43.5248 184.856,-41.1506 175.303,-36.5676 174.53,-43.5248"/>
</g>
<!-- Node4 -->
<g id="node4" class="node"><title>Node4</title>
<g id="a_node4"><a xlink:href="multi__level__map_8c.html#a84511f1bd3a0bc212ec354d0259c3c1b" target="_top" xlink:title="mlm_get_names">
<polygon fill="white" stroke="black" points="202,-0.5 202,-19.5 293,-19.5 293,-0.5 202,-0.5"/>
<text text-anchor="middle" x="247.5" y="-7.5" font-family="Helvetica,sans-Serif" font-size="10.00">mlm_get_names</text>
</a>
</g>
</g>
<!-- Node1&#45;&gt;Node4 -->
<g id="edge3" class="edge"><title>Node1&#45;&gt;Node4</title>
<path fill="none" stroke="midnightblue" d="M149.012,-20.832C163.294,-19.2451 178.032,-17.6075 191.588,-16.1013"/>
<polygon fill="midnightblue" stroke="midnightblue" points="192.145,-19.5611 201.697,-14.9781 191.372,-12.6039 192.145,-19.5611"/>
</g>
<!-- Node3 -->
<g id="node3" class="node"><title>Node3</title>
<g id="a_node3"><a xlink:href="string__util_8c.html#a1ecb7458987387bfab6da137cdebc4cc" target="_top" xlink:title="bool_repr">
<polygon fill="white" stroke="black" points="365,-38.5 365,-57.5 424,-57.5 424,-38.5 365,-38.5"/>
<text text-anchor="middle" x="394.5" y="-45.5" font-family="Helvetica,sans-Serif" font-size="10.00">bool_repr</text>
</a>
</g>
</g>
<!-- Node2&#45;&gt;Node3 -->
<g id="edge2" class="edge"><title>Node2&#45;&gt;Node3</title>
<path fill="none" stroke="midnightblue" d="M310.414,-48C325.355,-48 340.909,-48 354.464,-48"/>
<polygon fill="midnightblue" stroke="midnightblue" points="354.857,-51.5001 364.857,-48 354.857,-44.5001 354.857,-51.5001"/>
</g>
<!-- Node5 -->
<g id="node5" class="node"><title>Node5</title>
<g id="a_node5"><a xlink:href="multi__level__map_8c.html#a55a03cdfaf58bc329c0db2a9e3d8ade5" target="_top" xlink:title="mlm_get_names2">
<polygon fill="white" stroke="black" points="346,-0.5 346,-19.5 443,-19.5 443,-0.5 346,-0.5"/>
<text text-anchor="middle" x="394.5" y="-7.5" font-family="Helvetica,sans-Serif" font-size="10.00">mlm_get_names2</text>
</a>
</g>
</g>
<!-- Node4&#45;&gt;Node5 -->
<g id="edge4" class="edge"><title>Node4&#45;&gt;Node5</title>
<path fill="none" stroke="midnightblue" d="M293.188,-10C306.647,-10 321.613,-10 335.791,-10"/>
<polygon fill="midnightblue" stroke="midnightblue" points="335.942,-13.5001 345.942,-10 335.942,-6.5001 335.942,-13.5001"/>
</g>
</g>
</svg>
