<?xml version="1.0" encoding="UTF-8" standalone="no"?>
<!DOCTYPE svg PUBLIC "-//W3C//DTD SVG 1.1//EN"
 "http://www.w3.org/Graphics/SVG/1.1/DTD/svg11.dtd">
<!-- Generated by graphviz version 2.38.0 (20140413.2041)
 -->
<!-- Title: device_id_util.c Pages: 1 -->
<!--zoomable 196 -->
<svg id="main" version="1.1" xmlns="http://www.w3.org/2000/svg" xmlns:xlink="http://www.w3.org/1999/xlink" xml:space="preserve" onload="init(evt)">
<style type="text/css"><![CDATA[
.edge:hover path { stroke: red; }
.edge:hover polygon { stroke: red; fill: red; }
]]></style>
<script type="text/javascript"><![CDATA[
var edges = document.getElementsByTagName('g');
if (edges && edges.length) {
  for (var i=0;i<edges.length;i++) {
    if (edges[i].id.substr(0,4)=='edge') {
      edges[i].setAttribute('class','edge');
    }
  }
}
]]></script>
        <defs>
                <circle id="rim" cx="0" cy="0" r="7"/>
                <circle id="rim2" cx="0" cy="0" r="3.5"/>
                <g id="zoomPlus">
                        <use xlink:href="#rim" fill="#404040">
                                <set attributeName="fill" to="#808080" begin="zoomplus.mouseover" end="zoomplus.mouseout"/>
                        </use>
                        <path d="M-4,0h8M0,-4v8" fill="none" stroke="white" stroke-width="1.5" pointer-events="none"/>
                </g>
                <g id="zoomMin">
                        <use xlink:href="#rim" fill="#404040">
                                <set attributeName="fill" to="#808080" begin="zoomminus.mouseover" end="zoomminus.mouseout"/>
                        </use>
                        <path d="M-4,0h8" fill="none" stroke="white" stroke-width="1.5" pointer-events="none"/>
                </g>
                <g id="dirArrow">
                        <path fill="none" stroke="white" stroke-width="1.5" d="M0,-3.0v7 M-2.5,-0.5L0,-3.0L2.5,-0.5"/>
                </g>
               <g id="resetDef">
                       <use xlink:href="#rim2" fill="#404040">
                               <set attributeName="fill" to="#808080" begin="reset.mouseover" end="reset.mouseout"/>
                       </use>
               </g>
        </defs>

<script type="text/javascript">
var viewWidth = 1286;
var viewHeight = 196;
var sectionId = 'dynsection-0';
</script>
<script xlink:href="svgpan.js"/>
<svg id="graph" class="graph">
<g id="viewport">
<title>device_id_util.c</title>
<polygon fill="white" stroke="none" points="-4,4 -4,-192 1282,-192 1282,4 -4,4"/>
<!-- Node1 -->
<g id="node1" class="node"><title>Node1</title>
<polygon fill="#bfbfbf" stroke="black" points="590,-168.5 590,-187.5 676,-187.5 676,-168.5 590,-168.5"/>
<text text-anchor="middle" x="633" y="-175.5" font-family="Helvetica,sans-Serif" font-size="10.00">device_id_util.c</text>
</g>
<!-- Node2 -->
<g id="node2" class="node"><title>Node2</title>
<polygon fill="white" stroke="#bfbfbf" points="0,-112.5 0,-131.5 52,-131.5 52,-112.5 0,-112.5"/>
<text text-anchor="middle" x="26" y="-119.5" font-family="Helvetica,sans-Serif" font-size="10.00">assert.h</text>
</g>
<!-- Node1&#45;&gt;Node2 -->
<g id="edge1" class="edge"><title>Node1&#45;&gt;Node2</title>
<path fill="none" stroke="midnightblue" d="M589.998,-176.155C495.85,-173.762 264.397,-164.912 62.1799,-131.916"/>
<polygon fill="midnightblue" stroke="midnightblue" points="62.7063,-128.455 52.2689,-130.275 61.563,-135.361 62.7063,-128.455"/>
</g>
<!-- Node3 -->
<g id="node3" class="node"><title>Node3</title>
<polygon fill="white" stroke="#bfbfbf" points="70,-112.5 70,-131.5 118,-131.5 118,-112.5 70,-112.5"/>
<text text-anchor="middle" x="94" y="-119.5" font-family="Helvetica,sans-Serif" font-size="10.00">ctype.h</text>
</g>
<!-- Node1&#45;&gt;Node3 -->
<g id="edge2" class="edge"><title>Node1&#45;&gt;Node3</title>
<path fill="none" stroke="midnightblue" d="M589.85,-175.204C502.792,-171.125 300.088,-159.31 132,-132 130.72,-131.792 129.419,-131.565 128.108,-131.323"/>
<polygon fill="midnightblue" stroke="midnightblue" points="128.52,-127.834 118.018,-129.236 127.102,-134.689 128.52,-127.834"/>
</g>
<!-- Node4 -->
<g id="node4" class="node"><title>Node4</title>
<polygon fill="white" stroke="#bfbfbf" points="174.5,-56.5 174.5,-75.5 223.5,-75.5 223.5,-56.5 174.5,-56.5"/>
<text text-anchor="middle" x="199" y="-63.5" font-family="Helvetica,sans-Serif" font-size="10.00">dirent.h</text>
</g>
<!-- Node1&#45;&gt;Node4 -->
<g id="edge3" class="edge"><title>Node1&#45;&gt;Node4</title>
<path fill="none" stroke="midnightblue" d="M589.768,-176.234C501.58,-173.989 304.42,-165.289 247,-132 228.462,-121.253 214.957,-100.189 207.079,-84.9465"/>
<polygon fill="midnightblue" stroke="midnightblue" points="210.03,-83.0074 202.531,-75.5223 203.725,-86.0497 210.03,-83.0074"/>
</g>
<!-- Node5 -->
<g id="node5" class="node"><title>Node5</title>
<polygon fill="white" stroke="#bfbfbf" points="732.5,-112.5 732.5,-131.5 779.5,-131.5 779.5,-112.5 732.5,-112.5"/>
<text text-anchor="middle" x="756" y="-119.5" font-family="Helvetica,sans-Serif" font-size="10.00">errno.h</text>
</g>
<!-- Node1&#45;&gt;Node5 -->
<g id="edge4" class="edge"><title>Node1&#45;&gt;Node5</title>
<path fill="none" stroke="midnightblue" d="M652.49,-168.444C672.642,-159.596 704.323,-145.687 727.331,-135.586"/>
<polygon fill="midnightblue" stroke="midnightblue" points="728.852,-138.741 736.601,-131.516 726.038,-132.332 728.852,-138.741"/>
</g>
<!-- Node6 -->
<g id="node6" class="node"><title>Node6</title>
<polygon fill="white" stroke="#bfbfbf" points="346,-0.5 346,-19.5 386,-19.5 386,-0.5 346,-0.5"/>
<text text-anchor="middle" x="366" y="-7.5" font-family="Helvetica,sans-Serif" font-size="10.00">glib.h</text>
</g>
<!-- Node1&#45;&gt;Node6 -->
<g id="edge5" class="edge"><title>Node1&#45;&gt;Node6</title>
<path fill="none" stroke="midnightblue" d="M589.853,-175.829C498.023,-172.768 286.371,-162.525 222,-132 189.911,-116.783 178.736,-108.75 165,-76 161.562,-67.8029 159.443,-62.9381 165,-56 186.078,-29.6812 285.179,-17.7183 335.91,-13.2429"/>
<polygon fill="midnightblue" stroke="midnightblue" points="336.285,-16.7239 345.956,-12.3991 335.699,-9.74845 336.285,-16.7239"/>
</g>
<!-- Node7 -->
<g id="node7" class="node"><title>Node7</title>
<polygon fill="white" stroke="#bfbfbf" points="797.5,-112.5 797.5,-131.5 844.5,-131.5 844.5,-112.5 797.5,-112.5"/>
<text text-anchor="middle" x="821" y="-119.5" font-family="Helvetica,sans-Serif" font-size="10.00">limits.h</text>
</g>
<!-- Node1&#45;&gt;Node7 -->
<g id="edge6" class="edge"><title>Node1&#45;&gt;Node7</title>
<path fill="none" stroke="midnightblue" d="M662.789,-168.444C696.714,-158.699 752.012,-142.816 787.434,-132.641"/>
<polygon fill="midnightblue" stroke="midnightblue" points="788.658,-135.931 797.303,-129.807 786.725,-129.203 788.658,-135.931"/>
</g>
<!-- Node8 -->
<g id="node8" class="node"><title>Node8</title>
<polygon fill="white" stroke="#bfbfbf" points="863,-112.5 863,-131.5 933,-131.5 933,-112.5 863,-112.5"/>
<text text-anchor="middle" x="898" y="-119.5" font-family="Helvetica,sans-Serif" font-size="10.00">linux/limits.h</text>
</g>
<!-- Node1&#45;&gt;Node8 -->
<g id="edge7" class="edge"><title>Node1&#45;&gt;Node8</title>
<path fill="none" stroke="midnightblue" d="M674.958,-168.468C717.33,-159.849 784.946,-146.089 852.909,-132.221"/>
<polygon fill="midnightblue" stroke="midnightblue" points="853.838,-135.604 862.936,-130.175 852.438,-128.745 853.838,-135.604"/>
</g>
<!-- Node9 -->
<g id="node9" class="node"><title>Node9</title>
<polygon fill="white" stroke="#bfbfbf" points="951.5,-112.5 951.5,-131.5 1004.5,-131.5 1004.5,-112.5 951.5,-112.5"/>
<text text-anchor="middle" x="978" y="-119.5" font-family="Helvetica,sans-Serif" font-size="10.00">stdarg.h</text>
</g>
<!-- Node1&#45;&gt;Node9 -->
<g id="edge8" class="edge"><title>Node1&#45;&gt;Node9</title>
<path fill="none" stroke="midnightblue" d="M676.222,-172.095C734.25,-165.205 840.716,-151.494 941.304,-131.955"/>
<polygon fill="midnightblue" stroke="midnightblue" points="942.194,-135.347 951.331,-129.984 940.843,-128.479 942.194,-135.347"/>
</g>
<!-- Node10 -->
<g id="node10" class="node"><title>Node10</title>
<polygon fill="white" stroke="#bfbfbf" points="432,-56.5 432,-75.5 478,-75.5 478,-56.5 432,-56.5"/>
<text text-anchor="middle" x="455" y="-63.5" font-family="Helvetica,sans-Serif" font-size="10.00">stdio.h</text>
</g>
<!-- Node1&#45;&gt;Node10 -->
<g id="edge9" class="edge"><title>Node1&#45;&gt;Node10</title>
<path fill="none" stroke="midnightblue" d="M589.605,-174.493C531.728,-170.138 433.985,-158.912 412,-132 398.806,-115.849 417.087,-95.5838 433.725,-82.0133"/>
<polygon fill="midnightblue" stroke="midnightblue" points="436.3,-84.4498 442.101,-75.5844 432.037,-78.897 436.3,-84.4498"/>
</g>
<!-- Node11 -->
<g id="node11" class="node"><title>Node11</title>
<polygon fill="white" stroke="#bfbfbf" points="832.5,-56.5 832.5,-75.5 879.5,-75.5 879.5,-56.5 832.5,-56.5"/>
<text text-anchor="middle" x="856" y="-63.5" font-family="Helvetica,sans-Serif" font-size="10.00">stdlib.h</text>
</g>
<!-- Node1&#45;&gt;Node11 -->
<g id="edge10" class="edge"><title>Node1&#45;&gt;Node11</title>
<path fill="none" stroke="midnightblue" d="M643.005,-168.34C659.114,-154.758 692.222,-128.319 724,-112 755.894,-95.622 795.057,-83.1346 822.408,-75.5169"/>
<polygon fill="midnightblue" stroke="midnightblue" points="823.54,-78.8365 832.273,-72.8378 821.705,-72.0812 823.54,-78.8365"/>
</g>
<!-- Node12 -->
<g id="node12" class="node"><title>Node12</title>
<polygon fill="white" stroke="#bfbfbf" points="1023,-112.5 1023,-131.5 1071,-131.5 1071,-112.5 1023,-112.5"/>
<text text-anchor="middle" x="1047" y="-119.5" font-family="Helvetica,sans-Serif" font-size="10.00">string.h</text>
</g>
<!-- Node1&#45;&gt;Node12 -->
<g id="edge11" class="edge"><title>Node1&#45;&gt;Node12</title>
<path fill="none" stroke="midnightblue" d="M676.175,-174.003C745.349,-168.744 885.371,-156.223 1013,-131.927"/>
<polygon fill="midnightblue" stroke="midnightblue" points="1013.79,-135.338 1022.95,-130.004 1012.46,-128.466 1013.79,-135.338"/>
</g>
<!-- Node13 -->
<g id="node13" class="node"><title>Node13</title>
<polygon fill="white" stroke="#bfbfbf" points="1089.5,-112.5 1089.5,-131.5 1148.5,-131.5 1148.5,-112.5 1089.5,-112.5"/>
<text text-anchor="middle" x="1119" y="-119.5" font-family="Helvetica,sans-Serif" font-size="10.00">sys/stat.h</text>
</g>
<!-- Node1&#45;&gt;Node13 -->
<g id="edge12" class="edge"><title>Node1&#45;&gt;Node13</title>
<path fill="none" stroke="midnightblue" d="M676.076,-174.482C754.353,-169.512 925.273,-156.85 1079.16,-131.929"/>
<polygon fill="midnightblue" stroke="midnightblue" points="1079.97,-135.343 1089.27,-130.269 1078.83,-128.435 1079.97,-135.343"/>
</g>
<!-- Node14 -->
<g id="node14" class="node"><title>Node14</title>
<polygon fill="white" stroke="#bfbfbf" points="1166.5,-112.5 1166.5,-131.5 1209.5,-131.5 1209.5,-112.5 1166.5,-112.5"/>
<text text-anchor="middle" x="1188" y="-119.5" font-family="Helvetica,sans-Serif" font-size="10.00">time.h</text>
</g>
<!-- Node1&#45;&gt;Node14 -->
<g id="edge13" class="edge"><title>Node1&#45;&gt;Node14</title>
<path fill="none" stroke="midnightblue" d="M676.283,-176.296C764.971,-174.208 973.704,-165.985 1156.13,-132.016"/>
<polygon fill="midnightblue" stroke="midnightblue" points="1157,-135.414 1166.17,-130.115 1155.7,-128.536 1157,-135.414"/>
</g>
<!-- Node15 -->
<g id="node15" class="node"><title>Node15</title>
<polygon fill="white" stroke="#bfbfbf" points="1228,-112.5 1228,-131.5 1278,-131.5 1278,-112.5 1228,-112.5"/>
<text text-anchor="middle" x="1253" y="-119.5" font-family="Helvetica,sans-Serif" font-size="10.00">unistd.h</text>
</g>
<!-- Node1&#45;&gt;Node15 -->
<g id="edge14" class="edge"><title>Node1&#45;&gt;Node15</title>
<path fill="none" stroke="midnightblue" d="M676.336,-176.365C772.344,-174.38 1010.21,-166.288 1217.69,-131.911"/>
<polygon fill="midnightblue" stroke="midnightblue" points="1218.58,-135.311 1227.86,-130.201 1217.42,-128.408 1218.58,-135.311"/>
</g>
<!-- Node16 -->
<g id="node16" class="node"><title>Node16</title>
<g id="a_node16"><a xlink:href="file__util_8h.html" target="_top" xlink:title="file_util.h">
<polygon fill="white" stroke="black" points="256,-112.5 256,-131.5 310,-131.5 310,-112.5 256,-112.5"/>
<text text-anchor="middle" x="283" y="-119.5" font-family="Helvetica,sans-Serif" font-size="10.00">file_util.h</text>
</a>
</g>
</g>
<!-- Node1&#45;&gt;Node16 -->
<g id="edge15" class="edge"><title>Node1&#45;&gt;Node16</title>
<path fill="none" stroke="midnightblue" d="M589.758,-171.157C530.887,-163.07 422.276,-147.68 330,-132 326.806,-131.457 323.494,-130.871 320.174,-130.267"/>
<polygon fill="midnightblue" stroke="midnightblue" points="320.775,-126.819 310.303,-128.428 319.493,-133.7 320.775,-126.819"/>
</g>
<!-- Node18 -->
<g id="node18" class="node"><title>Node18</title>
<g id="a_node18"><a xlink:href="multi__level__map_8h.html" target="_top" xlink:title="multi_level_map.h">
<polygon fill="white" stroke="black" points="280,-56.5 280,-75.5 376,-75.5 376,-56.5 280,-56.5"/>
<text text-anchor="middle" x="328" y="-63.5" font-family="Helvetica,sans-Serif" font-size="10.00">multi_level_map.h</text>
</a>
</g>
</g>
<!-- Node1&#45;&gt;Node18 -->
<g id="edge19" class="edge"><title>Node1&#45;&gt;Node18</title>
<path fill="none" stroke="midnightblue" d="M589.575,-175.025C541.912,-171.401 464.175,-161.126 404,-132 379.474,-120.129 356.457,-98.3848 342.316,-83.3339"/>
<polygon fill="midnightblue" stroke="midnightblue" points="344.742,-80.8001 335.42,-75.7662 339.568,-85.515 344.742,-80.8001"/>
</g>
<!-- Node19 -->
<g id="node19" class="node"><title>Node19</title>
<g id="a_node19"><a xlink:href="report__util_8h.html" target="_top" xlink:title="report_util.h">
<polygon fill="white" stroke="black" points="421.5,-112.5 421.5,-131.5 488.5,-131.5 488.5,-112.5 421.5,-112.5"/>
<text text-anchor="middle" x="455" y="-119.5" font-family="Helvetica,sans-Serif" font-size="10.00">report_util.h</text>
</a>
</g>
</g>
<!-- Node1&#45;&gt;Node19 -->
<g id="edge21" class="edge"><title>Node1&#45;&gt;Node19</title>
<path fill="none" stroke="midnightblue" d="M604.795,-168.444C574.59,-159.28 526.489,-144.688 492.971,-134.519"/>
<polygon fill="midnightblue" stroke="midnightblue" points="493.658,-131.07 483.073,-131.516 491.626,-137.769 493.658,-131.07"/>
</g>
<!-- Node21 -->
<g id="node21" class="node"><title>Node21</title>
<g id="a_node21"><a xlink:href="string__util_8h.html" target="_top" xlink:title="string_util.h">
<polygon fill="white" stroke="black" points="506.5,-112.5 506.5,-131.5 571.5,-131.5 571.5,-112.5 506.5,-112.5"/>
<text text-anchor="middle" x="539" y="-119.5" font-family="Helvetica,sans-Serif" font-size="10.00">string_util.h</text>
</a>
</g>
</g>
<!-- Node1&#45;&gt;Node21 -->
<g id="edge26" class="edge"><title>Node1&#45;&gt;Node21</title>
<path fill="none" stroke="midnightblue" d="M617.897,-168.324C603.097,-159.822 580.306,-146.729 563.018,-136.797"/>
<polygon fill="midnightblue" stroke="midnightblue" points="564.48,-133.601 554.065,-131.655 560.993,-139.671 564.48,-133.601"/>
</g>
<!-- Node24 -->
<g id="node24" class="node"><title>Node24</title>
<g id="a_node24"><a xlink:href="device__id__util_8h.html" target="_top" xlink:title="device_id_util.h">
<polygon fill="white" stroke="black" points="590,-112.5 590,-131.5 676,-131.5 676,-112.5 590,-112.5"/>
<text text-anchor="middle" x="633" y="-119.5" font-family="Helvetica,sans-Serif" font-size="10.00">device_id_util.h</text>
</a>
</g>
</g>
<!-- Node1&#45;&gt;Node24 -->
<g id="edge33" class="edge"><title>Node1&#45;&gt;Node24</title>
<path fill="none" stroke="midnightblue" d="M633,-168.083C633,-161.006 633,-150.861 633,-141.986"/>
<polygon fill="midnightblue" stroke="midnightblue" points="636.5,-141.751 633,-131.751 629.5,-141.751 636.5,-141.751"/>
</g>
<!-- Node16&#45;&gt;Node4 -->
<g id="edge16" class="edge"><title>Node16&#45;&gt;Node4</title>
<path fill="none" stroke="midnightblue" d="M269.504,-112.324C256.4,-103.9 236.288,-90.9709 220.893,-81.0741"/>
<polygon fill="midnightblue" stroke="midnightblue" points="222.767,-78.118 212.463,-75.6545 218.982,-84.0063 222.767,-78.118"/>
</g>
<!-- Node16&#45;&gt;Node6 -->
<g id="edge17" class="edge"><title>Node16&#45;&gt;Node6</title>
<path fill="none" stroke="midnightblue" d="M277.772,-112.27C270.608,-99.056 259.832,-73.6483 271,-56 285.154,-33.6343 313.761,-22.1673 335.903,-16.4284"/>
<polygon fill="midnightblue" stroke="midnightblue" points="336.907,-19.7884 345.853,-14.1123 335.32,-12.9707 336.907,-19.7884"/>
</g>
<!-- Node17 -->
<g id="node17" class="node"><title>Node17</title>
<polygon fill="white" stroke="#bfbfbf" points="578.5,-56.5 578.5,-75.5 635.5,-75.5 635.5,-56.5 578.5,-56.5"/>
<text text-anchor="middle" x="607" y="-63.5" font-family="Helvetica,sans-Serif" font-size="10.00">stdbool.h</text>
</g>
<!-- Node16&#45;&gt;Node17 -->
<g id="edge18" class="edge"><title>Node16&#45;&gt;Node17</title>
<path fill="none" stroke="midnightblue" d="M310.332,-117.409C359.726,-110.768 467.326,-95.6051 568.349,-75.9911"/>
<polygon fill="midnightblue" stroke="midnightblue" points="569.277,-79.3758 578.417,-74.017 567.931,-72.5066 569.277,-79.3758"/>
</g>
<!-- Node18&#45;&gt;Node6 -->
<g id="edge20" class="edge"><title>Node18&#45;&gt;Node6</title>
<path fill="none" stroke="midnightblue" d="M334.275,-56.083C339.642,-48.4554 347.518,-37.2645 354.079,-27.9408"/>
<polygon fill="midnightblue" stroke="midnightblue" points="356.949,-29.9434 359.842,-19.7511 351.225,-25.9149 356.949,-29.9434"/>
</g>
<!-- Node19&#45;&gt;Node6 -->
<g id="edge22" class="edge"><title>Node19&#45;&gt;Node6</title>
<path fill="none" stroke="midnightblue" d="M448.016,-112.368C433.264,-94.135 398.708,-51.4257 379.492,-27.6752"/>
<polygon fill="midnightblue" stroke="midnightblue" points="381.962,-25.164 372.951,-19.5914 376.52,-29.567 381.962,-25.164"/>
</g>
<!-- Node19&#45;&gt;Node10 -->
<g id="edge23" class="edge"><title>Node19&#45;&gt;Node10</title>
<path fill="none" stroke="midnightblue" d="M455,-112.083C455,-105.006 455,-94.8611 455,-85.9865"/>
<polygon fill="midnightblue" stroke="midnightblue" points="458.5,-85.751 455,-75.7511 451.5,-85.7511 458.5,-85.751"/>
</g>
<!-- Node19&#45;&gt;Node17 -->
<g id="edge24" class="edge"><title>Node19&#45;&gt;Node17</title>
<path fill="none" stroke="midnightblue" d="M479.085,-112.444C504.545,-103.399 544.894,-89.064 573.459,-78.9158"/>
<polygon fill="midnightblue" stroke="midnightblue" points="574.777,-82.1622 583.028,-75.5164 572.433,-75.5661 574.777,-82.1622"/>
</g>
<!-- Node20 -->
<g id="node20" class="node"><title>Node20</title>
<g id="a_node20"><a xlink:href="coredefs_8h.html" target="_top" xlink:title="coredefs.h">
<polygon fill="white" stroke="black" points="496,-56.5 496,-75.5 560,-75.5 560,-56.5 496,-56.5"/>
<text text-anchor="middle" x="528" y="-63.5" font-family="Helvetica,sans-Serif" font-size="10.00">coredefs.h</text>
</a>
</g>
</g>
<!-- Node19&#45;&gt;Node20 -->
<g id="edge25" class="edge"><title>Node19&#45;&gt;Node20</title>
<path fill="none" stroke="midnightblue" d="M466.729,-112.324C477.837,-104.107 494.742,-91.6017 507.983,-81.8069"/>
<polygon fill="midnightblue" stroke="midnightblue" points="510.1,-84.5948 516.058,-75.8339 505.937,-78.9671 510.1,-84.5948"/>
</g>
<!-- Node21&#45;&gt;Node10 -->
<g id="edge29" class="edge"><title>Node21&#45;&gt;Node10</title>
<path fill="none" stroke="midnightblue" d="M525.504,-112.324C512.4,-103.9 492.288,-90.9709 476.893,-81.0741"/>
<polygon fill="midnightblue" stroke="midnightblue" points="478.767,-78.118 468.463,-75.6545 474.982,-84.0063 478.767,-78.118"/>
</g>
<!-- Node21&#45;&gt;Node17 -->
<g id="edge27" class="edge"><title>Node21&#45;&gt;Node17</title>
<path fill="none" stroke="midnightblue" d="M549.925,-112.324C560.175,-104.185 575.721,-91.8395 588.001,-82.0874"/>
<polygon fill="midnightblue" stroke="midnightblue" points="590.221,-84.7937 595.876,-75.8339 585.868,-79.3119 590.221,-84.7937"/>
</g>
<!-- Node21&#45;&gt;Node20 -->
<g id="edge30" class="edge"><title>Node21&#45;&gt;Node20</title>
<path fill="none" stroke="midnightblue" d="M537.184,-112.083C535.726,-104.927 533.629,-94.6353 531.807,-85.6911"/>
<polygon fill="midnightblue" stroke="midnightblue" points="535.208,-84.8512 529.783,-75.7511 528.349,-86.2485 535.208,-84.8512"/>
</g>
<!-- Node22 -->
<g id="node22" class="node"><title>Node22</title>
<polygon fill="white" stroke="#bfbfbf" points="728.5,-56.5 728.5,-75.5 775.5,-75.5 775.5,-56.5 728.5,-56.5"/>
<text text-anchor="middle" x="752" y="-63.5" font-family="Helvetica,sans-Serif" font-size="10.00">stdint.h</text>
</g>
<!-- Node21&#45;&gt;Node22 -->
<g id="edge28" class="edge"><title>Node21&#45;&gt;Node22</title>
<path fill="none" stroke="midnightblue" d="M571.775,-113.17C606.105,-104.898 661.834,-91.2738 718.429,-76.3644"/>
<polygon fill="midnightblue" stroke="midnightblue" points="719.484,-79.7059 728.256,-73.7648 717.694,-72.9387 719.484,-79.7059"/>
</g>
<!-- Node23 -->
<g id="node23" class="node"><title>Node23</title>
<g id="a_node23"><a xlink:href="glib__util_8h.html" target="_top" xlink:title="glib_util.h">
<polygon fill="white" stroke="black" points="653.5,-56.5 653.5,-75.5 710.5,-75.5 710.5,-56.5 653.5,-56.5"/>
<text text-anchor="middle" x="682" y="-63.5" font-family="Helvetica,sans-Serif" font-size="10.00">glib_util.h</text>
</a>
</g>
</g>
<!-- Node21&#45;&gt;Node23 -->
<g id="edge31" class="edge"><title>Node21&#45;&gt;Node23</title>
<path fill="none" stroke="midnightblue" d="M561.659,-112.444C585.402,-103.478 622.909,-89.314 649.738,-79.1827"/>
<polygon fill="midnightblue" stroke="midnightblue" points="651.329,-82.3235 659.447,-75.5164 648.856,-75.7749 651.329,-82.3235"/>
</g>
<!-- Node23&#45;&gt;Node6 -->
<g id="edge32" class="edge"><title>Node23&#45;&gt;Node6</title>
<path fill="none" stroke="midnightblue" d="M653.367,-57.7994C650.546,-57.1611 647.722,-56.5496 645,-56 554.977,-37.8208 447.437,-22.1676 396.127,-15.0659"/>
<polygon fill="midnightblue" stroke="midnightblue" points="396.441,-11.5763 386.058,-13.6824 395.488,-18.5111 396.441,-11.5763"/>
</g>
<!-- Node24&#45;&gt;Node6 -->
<g id="edge34" class="edge"><title>Node24&#45;&gt;Node6</title>
<path fill="none" stroke="midnightblue" d="M676.291,-114.064C716.443,-106.643 771.908,-93.5299 785,-76 790.319,-68.8781 790.94,-62.6125 785,-56 759.045,-27.1081 487.872,-15.1853 396.136,-11.959"/>
<polygon fill="midnightblue" stroke="midnightblue" points="396.224,-8.46008 386.11,-11.6162 395.985,-15.456 396.224,-8.46008"/>
</g>
<!-- Node24&#45;&gt;Node11 -->
<g id="edge37" class="edge"><title>Node24&#45;&gt;Node11</title>
<path fill="none" stroke="midnightblue" d="M668.335,-112.444C710.678,-102.19 781.094,-85.1387 822.572,-75.0946"/>
<polygon fill="midnightblue" stroke="midnightblue" points="823.564,-78.4556 832.46,-72.7003 821.917,-71.6522 823.564,-78.4556"/>
</g>
<!-- Node24&#45;&gt;Node17 -->
<g id="edge35" class="edge"><title>Node24&#45;&gt;Node17</title>
<path fill="none" stroke="midnightblue" d="M628.707,-112.083C625.148,-104.691 619.978,-93.9533 615.576,-84.8111"/>
<polygon fill="midnightblue" stroke="midnightblue" points="618.705,-83.2427 611.213,-75.7511 612.398,-86.2795 618.705,-83.2427"/>
</g>
<!-- Node24&#45;&gt;Node22 -->
<g id="edge36" class="edge"><title>Node24&#45;&gt;Node22</title>
<path fill="none" stroke="midnightblue" d="M651.856,-112.444C671.266,-103.636 701.73,-89.8116 723.965,-79.722"/>
<polygon fill="midnightblue" stroke="midnightblue" points="725.572,-82.836 733.232,-75.5164 722.68,-76.4615 725.572,-82.836"/>
</g>
</g>
</svg>
        <g id="navigator" transform="translate(0 0)" fill="#404254">
                <rect fill="#f2f5e9" fill-opacity="0.5" stroke="#606060" stroke-width=".5" x="0" y="0" width="60" height="60"/>
                <use id="zoomplus" xlink:href="#zoomPlus" x="17" y="9" onmousedown="handleZoom(evt,'in')"/>
                <use id="zoomminus" xlink:href="#zoomMin" x="42" y="9" onmousedown="handleZoom(evt,'out')"/>
                <use id="reset" xlink:href="#resetDef" x="30" y="36" onmousedown="handleReset()"/>
                <g id="arrowUp" xlink:href="#dirArrow" transform="translate(30 24)" onmousedown="handlePan(0,-1)">
                  <use xlink:href="#rim" fill="#404040">
                        <set attributeName="fill" to="#808080" begin="arrowUp.mouseover" end="arrowUp.mouseout"/>
                  </use>
                  <path fill="none" stroke="white" stroke-width="1.5" d="M0,-3.0v7 M-2.5,-0.5L0,-3.0L2.5,-0.5"/>
                </g>
                <g id="arrowRight" xlink:href="#dirArrow" transform="rotate(90) translate(36 -43)" onmousedown="handlePan(1,0)">
                  <use xlink:href="#rim" fill="#404040">
                        <set attributeName="fill" to="#808080" begin="arrowRight.mouseover" end="arrowRight.mouseout"/>
                  </use>
                  <path fill="none" stroke="white" stroke-width="1.5" d="M0,-3.0v7 M-2.5,-0.5L0,-3.0L2.5,-0.5"/>
                </g>
                <g id="arrowDown" xlink:href="#dirArrow" transform="rotate(180) translate(-30 -48)" onmousedown="handlePan(0,1)">
                  <use xlink:href="#rim" fill="#404040">
                        <set attributeName="fill" to="#808080" begin="arrowDown.mouseover" end="arrowDown.mouseout"/>
                  </use>
                  <path fill="none" stroke="white" stroke-width="1.5" d="M0,-3.0v7 M-2.5,-0.5L0,-3.0L2.5,-0.5"/>
                </g>
                <g id="arrowLeft" xlink:href="#dirArrow" transform="rotate(270) translate(-36 17)" onmousedown="handlePan(-1,0)">
                  <use xlink:href="#rim" fill="#404040">
                        <set attributeName="fill" to="#808080" begin="arrowLeft.mouseover" end="arrowLeft.mouseout"/>
                  </use>
                  <path fill="none" stroke="white" stroke-width="1.5" d="M0,-3.0v7 M-2.5,-0.5L0,-3.0L2.5,-0.5"/>
                </g>
        </g>
        <svg viewBox="0 0 15 15" width="100%" height="30px" preserveAspectRatio="xMaxYMin meet">
         <g id="arrow_out" transform="scale(0.3 0.3)">
          <a xlink:href="device__id__util_8c__incl_org.svg" target="_base">
           <rect id="button" ry="5" rx="5" y="6" x="6" height="38" width="38"
                fill="#f2f5e9" fill-opacity="0.5" stroke="#606060" stroke-width="1.0"/>
           <path id="arrow"
             d="M 11.500037,31.436501 C 11.940474,20.09759 22.043105,11.32322 32.158766,21.979434 L 37.068811,17.246167 C 37.068811,17.246167 37.088388,32 37.088388,32 L 22.160133,31.978069 C 22.160133,31.978069 26.997745,27.140456 26.997745,27.140456 C 18.528582,18.264221 13.291696,25.230495 11.500037,31.436501 z"
             style="fill:#404040;"/>
          </a>
         </g>
        </svg>
</svg>
