<?xml version="1.0" encoding="UTF-8" standalone="no"?>
<!DOCTYPE svg PUBLIC "-//W3C//DTD SVG 1.1//EN"
 "http://www.w3.org/Graphics/SVG/1.1/DTD/svg11.dtd">
<!-- Generated by graphviz version 2.38.0 (20140413.2041)
 -->
<!-- Title: devid_usage_code_page_name Pages: 1 -->
<svg width="466pt" height="66pt"
 viewBox="0.00 0.00 466.00 66.00" xmlns="http://www.w3.org/2000/svg" xmlns:xlink="http://www.w3.org/1999/xlink">
<g id="graph0" class="graph" transform="scale(1 1) rotate(0) translate(4 62)">
<title>devid_usage_code_page_name</title>
<polygon fill="white" stroke="none" points="-4,4 -4,-62 462,-62 462,4 -4,4"/>
<!-- Node1 -->
<g id="node1" class="node"><title>Node1</title>
<polygon fill="#bfbfbf" stroke="black" points="0,-19.5 0,-38.5 164,-38.5 164,-19.5 0,-19.5"/>
<text text-anchor="middle" x="82" y="-26.5" font-family="Helvetica,sans-Serif" font-size="10.00">devid_usage_code_page_name</text>
</g>
<!-- Node2 -->
<g id="node2" class="node"><title>Node2</title>
<g id="a_node2"><a xlink:href="device__id__util_8c.html#a8ebdd4cb859121ca833743820a98a466" target="_top" xlink:title="devid_ensure_initialized">
<polygon fill="white" stroke="black" points="200,-38.5 200,-57.5 325,-57.5 325,-38.5 200,-38.5"/>
<text text-anchor="middle" x="262.5" y="-45.5" font-family="Helvetica,sans-Serif" font-size="10.00">devid_ensure_initialized</text>
</a>
</g>
</g>
<!-- Node1&#45;&gt;Node2 -->
<g id="edge1" class="edge"><title>Node1&#45;&gt;Node2</title>
<path fill="none" stroke="midnightblue" d="M164.154,-37.6383C172.666,-38.5443 181.277,-39.4608 189.673,-40.3546"/>
<polygon fill="midnightblue" stroke="midnightblue" points="189.474,-43.853 199.788,-41.4312 190.215,-36.8924 189.474,-43.853"/>
</g>
<!-- Node4 -->
<g id="node4" class="node"><title>Node4</title>
<g id="a_node4"><a xlink:href="multi__level__map_8c.html#a84511f1bd3a0bc212ec354d0259c3c1b" target="_top" xlink:title="mlm_get_names">
<polygon fill="white" stroke="black" points="217,-0.5 217,-19.5 308,-19.5 308,-0.5 217,-0.5"/>
<text text-anchor="middle" x="262.5" y="-7.5" font-family="Helvetica,sans-Serif" font-size="10.00">mlm_get_names</text>
</a>
</g>
</g>
<!-- Node1&#45;&gt;Node4 -->
<g id="edge3" class="edge"><title>Node1&#45;&gt;Node4</title>
<path fill="none" stroke="midnightblue" d="M164.154,-20.3617C178.539,-18.8306 193.206,-17.2694 206.644,-15.839"/>
<polygon fill="midnightblue" stroke="midnightblue" points="207.083,-19.3121 216.657,-14.7732 206.342,-12.3514 207.083,-19.3121"/>
</g>
<!-- Node3 -->
<g id="node3" class="node"><title>Node3</title>
<g id="a_node3"><a xlink:href="string__util_8c.html#a1ecb7458987387bfab6da137cdebc4cc" target="_top" xlink:title="bool_repr">
<polygon fill="white" stroke="black" points="380,-38.5 380,-57.5 439,-57.5 439,-38.5 380,-38.5"/>
<text text-anchor="middle" x="409.5" y="-45.5" font-family="Helvetica,sans-Serif" font-size="10.00">bool_repr</text>
</a>
</g>
</g>
<!-- Node2&#45;&gt;Node3 -->
<g id="edge2" class="edge"><title>Node2&#45;&gt;Node3</title>
<path fill="none" stroke="midnightblue" d="M325.414,-48C340.355,-48 355.909,-48 369.464,-48"/>
<polygon fill="midnightblue" stroke="midnightblue" points="369.857,-51.5001 379.857,-48 369.857,-44.5001 369.857,-51.5001"/>
</g>
<!-- Node5 -->
<g id="node5" class="node"><title>Node5</title>
<g id="a_node5"><a xlink:href="multi__level__map_8c.html#a55a03cdfaf58bc329c0db2a9e3d8ade5" target="_top" xlink:title="mlm_get_names2">
<polygon fill="white" stroke="black" points="361,-0.5 361,-19.5 458,-19.5 458,-0.5 361,-0.5"/>
<text text-anchor="middle" x="409.5" y="-7.5" font-family="Helvetica,sans-Serif" font-size="10.00">mlm_get_names2</text>
</a>
</g>
</g>
<!-- Node4&#45;&gt;Node5 -->
<g id="edge4" class="edge"><title>Node4&#45;&gt;Node5</title>
<path fill="none" stroke="midnightblue" d="M308.188,-10C321.647,-10 336.613,-10 350.791,-10"/>
<polygon fill="midnightblue" stroke="midnightblue" points="350.942,-13.5001 360.942,-10 350.942,-6.5001 350.942,-13.5001"/>
</g>
</g>
</svg>
