<?xml version="1.0" encoding="UTF-8" standalone="no"?>
<!DOCTYPE svg PUBLIC "-//W3C//DTD SVG 1.1//EN"
 "http://www.w3.org/Graphics/SVG/1.1/DTD/svg11.dtd">
<!-- Generated by graphviz version 2.38.0 (20140413.2041)
 -->
<!-- Title: devid_ensure_initialized Pages: 1 -->
<svg width="504pt" height="192pt"
 viewBox="0.00 0.00 504.00 192.00" xmlns="http://www.w3.org/2000/svg" xmlns:xlink="http://www.w3.org/1999/xlink">
<g id="graph0" class="graph" transform="scale(1 1) rotate(0) translate(4 188)">
<title>devid_ensure_initialized</title>
<polygon fill="white" stroke="none" points="-4,4 -4,-188 500,-188 500,4 -4,4"/>
<!-- Node1 -->
<g id="node1" class="node"><title>Node1</title>
<polygon fill="#bfbfbf" stroke="black" points="0,-82.5 0,-101.5 125,-101.5 125,-82.5 0,-82.5"/>
<text text-anchor="middle" x="62.5" y="-89.5" font-family="Helvetica,sans-Serif" font-size="10.00">devid_ensure_initialized</text>
</g>
<!-- Node2 -->
<g id="node2" class="node"><title>Node2</title>
<g id="a_node2"><a xlink:href="device__id__util_8h.html#a85a6b6ac91cf1e02689aeb0a4ed220ab" target="_top" xlink:title="devid_get_pci_names">
<polygon fill="white" stroke="black" points="185,-164.5 185,-183.5 301,-183.5 301,-164.5 185,-164.5"/>
<text text-anchor="middle" x="243" y="-171.5" font-family="Helvetica,sans-Serif" font-size="10.00">devid_get_pci_names</text>
</a>
</g>
</g>
<!-- Node1&#45;&gt;Node2 -->
<g id="edge1" class="edge"><title>Node1&#45;&gt;Node2</title>
<path fill="none" stroke="midnightblue" d="M83.4871,-107.865C102.425,-122.156 132.181,-142.746 161,-155 169.906,-158.787 179.698,-161.893 189.303,-164.415"/>
<polygon fill="midnightblue" stroke="midnightblue" points="85.4111,-104.93 75.3505,-101.608 81.1435,-110.478 85.4111,-104.93"/>
</g>
<!-- Node3 -->
<g id="node3" class="node"><title>Node3</title>
<g id="a_node3"><a xlink:href="device__id__util_8h.html#a2f7a8b9367caa4d13860813b67ab79a8" target="_top" xlink:title="devid_get_usb_names">
<polygon fill="white" stroke="black" points="183.5,-126.5 183.5,-145.5 302.5,-145.5 302.5,-126.5 183.5,-126.5"/>
<text text-anchor="middle" x="243" y="-133.5" font-family="Helvetica,sans-Serif" font-size="10.00">devid_get_usb_names</text>
</a>
</g>
</g>
<!-- Node1&#45;&gt;Node3 -->
<g id="edge2" class="edge"><title>Node1&#45;&gt;Node3</title>
<path fill="none" stroke="midnightblue" d="M109.799,-104.079C125.979,-108.246 144.276,-112.895 161,-117 173.906,-120.168 187.996,-123.513 200.754,-126.498"/>
<polygon fill="midnightblue" stroke="midnightblue" points="110.589,-100.669 100.032,-101.557 108.839,-107.446 110.589,-100.669"/>
</g>
<!-- Node4 -->
<g id="node4" class="node"><title>Node4</title>
<g id="a_node4"><a xlink:href="device__id__util_8h.html#aadf525bef2b022d0c59b04a24639b624" target="_top" xlink:title="devid_hid_descriptor\l_item_type">
<polygon fill="white" stroke="black" points="188,-77 188,-107 298,-107 298,-77 188,-77"/>
<text text-anchor="start" x="196" y="-95" font-family="Helvetica,sans-Serif" font-size="10.00">devid_hid_descriptor</text>
<text text-anchor="middle" x="243" y="-84" font-family="Helvetica,sans-Serif" font-size="10.00">_item_type</text>
</a>
</g>
</g>
<!-- Node1&#45;&gt;Node4 -->
<g id="edge3" class="edge"><title>Node1&#45;&gt;Node4</title>
<path fill="none" stroke="midnightblue" d="M135.348,-92C152.837,-92 171.254,-92 187.769,-92"/>
<polygon fill="midnightblue" stroke="midnightblue" points="135.18,-88.5001 125.18,-92 135.179,-95.5001 135.18,-88.5001"/>
</g>
<!-- Node5 -->
<g id="node5" class="node"><title>Node5</title>
<g id="a_node5"><a xlink:href="device__id__util_8h.html#ae6f5ae13af77d1e6a46dbb4ccd72dbaf" target="_top" xlink:title="devid_usage_code_id_name">
<polygon fill="white" stroke="black" points="168.5,-38.5 168.5,-57.5 317.5,-57.5 317.5,-38.5 168.5,-38.5"/>
<text text-anchor="middle" x="243" y="-45.5" font-family="Helvetica,sans-Serif" font-size="10.00">devid_usage_code_id_name</text>
</a>
</g>
</g>
<!-- Node1&#45;&gt;Node5 -->
<g id="edge4" class="edge"><title>Node1&#45;&gt;Node5</title>
<path fill="none" stroke="midnightblue" d="M112.056,-80.031C140.747,-72.9586 176.578,-64.1264 203.344,-57.5287"/>
<polygon fill="midnightblue" stroke="midnightblue" points="111.104,-76.661 102.232,-82.4527 112.779,-83.4575 111.104,-76.661"/>
</g>
<!-- Node7 -->
<g id="node7" class="node"><title>Node7</title>
<g id="a_node7"><a xlink:href="device__id__util_8h.html#a0c9df7722675858da772ee48725bfb69" target="_top" xlink:title="devid_usage_code_page_name">
<polygon fill="white" stroke="black" points="161,-0.5 161,-19.5 325,-19.5 325,-0.5 161,-0.5"/>
<text text-anchor="middle" x="243" y="-7.5" font-family="Helvetica,sans-Serif" font-size="10.00">devid_usage_code_page_name</text>
</a>
</g>
</g>
<!-- Node1&#45;&gt;Node7 -->
<g id="edge6" class="edge"><title>Node1&#45;&gt;Node7</title>
<path fill="none" stroke="midnightblue" d="M83.4871,-76.1346C102.425,-61.8435 132.181,-41.2538 161,-29 169.906,-25.2132 179.698,-22.1072 189.303,-19.5849"/>
<polygon fill="midnightblue" stroke="midnightblue" points="81.1435,-73.5216 75.3505,-82.3924 85.4111,-79.0703 81.1435,-73.5216"/>
</g>
<!-- Node6 -->
<g id="node6" class="node"><title>Node6</title>
<g id="a_node6"><a xlink:href="device__id__util_8h.html#a863f4affe8b8f9dbe067ef8060deb114" target="_top" xlink:title="devid_usage_code_name\l_by_extended_id">
<polygon fill="white" stroke="black" points="361,-33 361,-63 496,-63 496,-33 361,-33"/>
<text text-anchor="start" x="369" y="-51" font-family="Helvetica,sans-Serif" font-size="10.00">devid_usage_code_name</text>
<text text-anchor="middle" x="428.5" y="-40" font-family="Helvetica,sans-Serif" font-size="10.00">_by_extended_id</text>
</a>
</g>
</g>
<!-- Node5&#45;&gt;Node6 -->
<g id="edge5" class="edge"><title>Node5&#45;&gt;Node6</title>
<path fill="none" stroke="midnightblue" d="M327.686,-48C338.761,-48 349.993,-48 360.731,-48"/>
<polygon fill="midnightblue" stroke="midnightblue" points="327.579,-44.5001 317.579,-48 327.579,-51.5001 327.579,-44.5001"/>
</g>
</g>
</svg>
