<?xml version="1.0" encoding="UTF-8" standalone="no"?>
<!DOCTYPE svg PUBLIC "-//W3C//DTD SVG 1.1//EN"
 "http://www.w3.org/Graphics/SVG/1.1/DTD/svg11.dtd">
<!-- Generated by graphviz version 2.38.0 (20140413.2041)
 -->
<!-- Title: devid_get_pci_names Pages: 1 -->
<svg width="380pt" height="66pt"
 viewBox="0.00 0.00 380.00 66.00" xmlns="http://www.w3.org/2000/svg" xmlns:xlink="http://www.w3.org/1999/xlink">
<g id="graph0" class="graph" transform="scale(1 1) rotate(0) translate(4 62)">
<title>devid_get_pci_names</title>
<polygon fill="white" stroke="none" points="-4,4 -4,-62 376,-62 376,4 -4,4"/>
<!-- Node1 -->
<g id="node1" class="node"><title>Node1</title>
<polygon fill="#bfbfbf" stroke="black" points="0,-19.5 0,-38.5 116,-38.5 116,-19.5 0,-19.5"/>
<text text-anchor="middle" x="58" y="-26.5" font-family="Helvetica,sans-Serif" font-size="10.00">devid_get_pci_names</text>
</g>
<!-- Node2 -->
<g id="node2" class="node"><title>Node2</title>
<g id="a_node2"><a xlink:href="device__id__util_8c.html#a8ebdd4cb859121ca833743820a98a466" target="_top" xlink:title="devid_ensure_initialized">
<polygon fill="white" stroke="black" points="152,-38.5 152,-57.5 277,-57.5 277,-38.5 152,-38.5"/>
<text text-anchor="middle" x="214.5" y="-45.5" font-family="Helvetica,sans-Serif" font-size="10.00">devid_ensure_initialized</text>
</a>
</g>
</g>
<!-- Node1&#45;&gt;Node2 -->
<g id="edge1" class="edge"><title>Node1&#45;&gt;Node2</title>
<path fill="none" stroke="midnightblue" d="M116.091,-36.0209C124.494,-37.0542 133.238,-38.1296 141.888,-39.1934"/>
<polygon fill="midnightblue" stroke="midnightblue" points="141.62,-42.6867 151.973,-40.4335 142.475,-35.739 141.62,-42.6867"/>
</g>
<!-- Node4 -->
<g id="node4" class="node"><title>Node4</title>
<g id="a_node4"><a xlink:href="multi__level__map_8c.html#a55a03cdfaf58bc329c0db2a9e3d8ade5" target="_top" xlink:title="mlm_get_names2">
<polygon fill="white" stroke="black" points="166,-0.5 166,-19.5 263,-19.5 263,-0.5 166,-0.5"/>
<text text-anchor="middle" x="214.5" y="-7.5" font-family="Helvetica,sans-Serif" font-size="10.00">mlm_get_names2</text>
</a>
</g>
</g>
<!-- Node1&#45;&gt;Node4 -->
<g id="edge3" class="edge"><title>Node1&#45;&gt;Node4</title>
<path fill="none" stroke="midnightblue" d="M116.091,-21.9791C128.978,-20.3942 142.67,-18.7104 155.591,-17.1215"/>
<polygon fill="midnightblue" stroke="midnightblue" points="156.259,-20.5658 165.757,-15.8713 155.405,-13.6181 156.259,-20.5658"/>
</g>
<!-- Node3 -->
<g id="node3" class="node"><title>Node3</title>
<g id="a_node3"><a xlink:href="string__util_8c.html#a1ecb7458987387bfab6da137cdebc4cc" target="_top" xlink:title="bool_repr">
<polygon fill="white" stroke="black" points="313,-38.5 313,-57.5 372,-57.5 372,-38.5 313,-38.5"/>
<text text-anchor="middle" x="342.5" y="-45.5" font-family="Helvetica,sans-Serif" font-size="10.00">bool_repr</text>
</a>
</g>
</g>
<!-- Node2&#45;&gt;Node3 -->
<g id="edge2" class="edge"><title>Node2&#45;&gt;Node3</title>
<path fill="none" stroke="midnightblue" d="M277.024,-48C285.711,-48 294.435,-48 302.536,-48"/>
<polygon fill="midnightblue" stroke="midnightblue" points="302.771,-51.5001 312.771,-48 302.771,-44.5001 302.771,-51.5001"/>
</g>
</g>
</svg>
