<?xml version="1.0" encoding="UTF-8" standalone="no"?>
<!DOCTYPE svg PUBLIC "-//W3C//DTD SVG 1.1//EN"
 "http://www.w3.org/Graphics/SVG/1.1/DTD/svg11.dtd">
<!-- Generated by graphviz version 2.38.0 (20140413.2041)
 -->
<!-- Title: parse_mfg_id_in_buffer Pages: 1 -->
<svg width="410pt" height="39pt"
 viewBox="0.00 0.00 410.00 39.00" xmlns="http://www.w3.org/2000/svg" xmlns:xlink="http://www.w3.org/1999/xlink">
<g id="graph0" class="graph" transform="scale(1 1) rotate(0) translate(4 35)">
<title>parse_mfg_id_in_buffer</title>
<polygon fill="white" stroke="none" points="-4,4 -4,-35 406,-35 406,4 -4,4"/>
<!-- Node1 -->
<g id="node1" class="node"><title>Node1</title>
<polygon fill="#bfbfbf" stroke="black" points="0,-6 0,-25 119,-25 119,-6 0,-6"/>
<text text-anchor="middle" x="59.5" y="-13" font-family="Helvetica,sans-Serif" font-size="10.00">parse_mfg_id_in_buffer</text>
</g>
<!-- Node2 -->
<g id="node2" class="node"><title>Node2</title>
<g id="a_node2"><a xlink:href="edid_8h.html#acacc0ae2b861fad99bb2949bd1b6605d" target="_top" xlink:title="get_edid_mfg_id_in\l_buffer">
<polygon fill="white" stroke="black" points="155,-0.5 155,-30.5 259,-30.5 259,-0.5 155,-0.5"/>
<text text-anchor="start" x="163" y="-18.5" font-family="Helvetica,sans-Serif" font-size="10.00">get_edid_mfg_id_in</text>
<text text-anchor="middle" x="207" y="-7.5" font-family="Helvetica,sans-Serif" font-size="10.00">_buffer</text>
</a>
</g>
</g>
<!-- Node1&#45;&gt;Node2 -->
<g id="edge1" class="edge"><title>Node1&#45;&gt;Node2</title>
<path fill="none" stroke="midnightblue" d="M129.335,-15.5C137.971,-15.5 146.681,-15.5 154.975,-15.5"/>
<polygon fill="midnightblue" stroke="midnightblue" points="129.261,-12.0001 119.261,-15.5 129.261,-19.0001 129.261,-12.0001"/>
</g>
<!-- Node3 -->
<g id="node3" class="node"><title>Node3</title>
<g id="a_node3"><a xlink:href="edid_8h.html#a95568554345c2bb4914009b809db6021" target="_top" xlink:title="create_parsed_edid">
<polygon fill="white" stroke="black" points="295,-6 295,-25 402,-25 402,-6 295,-6"/>
<text text-anchor="middle" x="348.5" y="-13" font-family="Helvetica,sans-Serif" font-size="10.00">create_parsed_edid</text>
</a>
</g>
</g>
<!-- Node2&#45;&gt;Node3 -->
<g id="edge2" class="edge"><title>Node2&#45;&gt;Node3</title>
<path fill="none" stroke="midnightblue" d="M269.42,-15.5C277.935,-15.5 286.617,-15.5 294.95,-15.5"/>
<polygon fill="midnightblue" stroke="midnightblue" points="269.153,-12.0001 259.153,-15.5 269.152,-19.0001 269.153,-12.0001"/>
</g>
</g>
</svg>
