<?xml version="1.0" encoding="UTF-8" standalone="no"?>
<!DOCTYPE svg PUBLIC "-//W3C//DTD SVG 1.1//EN"
 "http://www.w3.org/Graphics/SVG/1.1/DTD/svg11.dtd">
<!-- Generated by graphviz version 2.38.0 (20140413.2041)
 -->
<!-- Title: get_edid_mfg_id_in_buffer Pages: 1 -->
<svg width="267pt" height="66pt"
 viewBox="0.00 0.00 267.00 66.00" xmlns="http://www.w3.org/2000/svg" xmlns:xlink="http://www.w3.org/1999/xlink">
<g id="graph0" class="graph" transform="scale(1 1) rotate(0) translate(4 62)">
<title>get_edid_mfg_id_in_buffer</title>
<polygon fill="white" stroke="none" points="-4,4 -4,-62 263,-62 263,4 -4,4"/>
<!-- Node1 -->
<g id="node1" class="node"><title>Node1</title>
<polygon fill="#bfbfbf" stroke="black" points="0,-14 0,-44 104,-44 104,-14 0,-14"/>
<text text-anchor="start" x="8" y="-32" font-family="Helvetica,sans-Serif" font-size="10.00">get_edid_mfg_id_in</text>
<text text-anchor="middle" x="52" y="-21" font-family="Helvetica,sans-Serif" font-size="10.00">_buffer</text>
</g>
<!-- Node2 -->
<g id="node2" class="node"><title>Node2</title>
<g id="a_node2"><a xlink:href="string__util_8c.html#a7be9558f1d0d894bf845df9c75ab553b" target="_top" xlink:title="hexstring">
<polygon fill="white" stroke="black" points="171,-38.5 171,-57.5 228,-57.5 228,-38.5 171,-38.5"/>
<text text-anchor="middle" x="199.5" y="-45.5" font-family="Helvetica,sans-Serif" font-size="10.00">hexstring</text>
</a>
</g>
</g>
<!-- Node1&#45;&gt;Node2 -->
<g id="edge1" class="edge"><title>Node1&#45;&gt;Node2</title>
<path fill="none" stroke="midnightblue" d="M104.298,-35.6987C122.863,-38.123 143.474,-40.8145 160.672,-43.0603"/>
<polygon fill="midnightblue" stroke="midnightblue" points="160.522,-46.5702 170.891,-44.3946 161.428,-39.6292 160.522,-46.5702"/>
</g>
<!-- Node3 -->
<g id="node3" class="node"><title>Node3</title>
<g id="a_node3"><a xlink:href="edid_8c.html#a8deaa444736443ae96f39831ac495052" target="_top" xlink:title="parse_mfg_id_in_buffer">
<polygon fill="white" stroke="black" points="140,-0.5 140,-19.5 259,-19.5 259,-0.5 140,-0.5"/>
<text text-anchor="middle" x="199.5" y="-7.5" font-family="Helvetica,sans-Serif" font-size="10.00">parse_mfg_id_in_buffer</text>
</a>
</g>
</g>
<!-- Node1&#45;&gt;Node3 -->
<g id="edge2" class="edge"><title>Node1&#45;&gt;Node3</title>
<path fill="none" stroke="midnightblue" d="M104.298,-22.3013C112.59,-21.2186 121.289,-20.0825 129.911,-18.9566"/>
<polygon fill="midnightblue" stroke="midnightblue" points="130.505,-22.4089 139.967,-17.6434 129.598,-15.4678 130.505,-22.4089"/>
</g>
</g>
</svg>
