<?xml version="1.0" encoding="UTF-8" standalone="no"?>
<!DOCTYPE svg PUBLIC "-//W3C//DTD SVG 1.1//EN"
 "http://www.w3.org/Graphics/SVG/1.1/DTD/svg11.dtd">
<!-- Generated by graphviz version 2.38.0 (20140413.2041)
 -->
<!-- Title: edid.c Pages: 1 -->
<svg width="475pt" height="196pt"
 viewBox="0.00 0.00 474.50 196.00" xmlns="http://www.w3.org/2000/svg" xmlns:xlink="http://www.w3.org/1999/xlink">
<g id="graph0" class="graph" transform="scale(1 1) rotate(0) translate(4 192)">
<title>edid.c</title>
<polygon fill="white" stroke="none" points="-4,4 -4,-192 470.5,-192 470.5,4 -4,4"/>
<!-- Node1 -->
<g id="node1" class="node"><title>Node1</title>
<polygon fill="#bfbfbf" stroke="black" points="162,-168.5 162,-187.5 206,-187.5 206,-168.5 162,-168.5"/>
<text text-anchor="middle" x="184" y="-175.5" font-family="Helvetica,sans-Serif" font-size="10.00">edid.c</text>
</g>
<!-- Node2 -->
<g id="node2" class="node"><title>Node2</title>
<polygon fill="white" stroke="#bfbfbf" points="0,-112.5 0,-131.5 52,-131.5 52,-112.5 0,-112.5"/>
<text text-anchor="middle" x="26" y="-119.5" font-family="Helvetica,sans-Serif" font-size="10.00">assert.h</text>
</g>
<!-- Node1&#45;&gt;Node2 -->
<g id="edge1" class="edge"><title>Node1&#45;&gt;Node2</title>
<path fill="none" stroke="midnightblue" d="M161.698,-169.378C135.37,-160.38 91.2858,-145.313 60.5334,-134.803"/>
<polygon fill="midnightblue" stroke="midnightblue" points="61.6513,-131.486 51.0567,-131.564 59.3874,-138.11 61.6513,-131.486"/>
</g>
<!-- Node3 -->
<g id="node3" class="node"><title>Node3</title>
<polygon fill="white" stroke="#bfbfbf" points="57,-56.5 57,-75.5 103,-75.5 103,-56.5 57,-56.5"/>
<text text-anchor="middle" x="80" y="-63.5" font-family="Helvetica,sans-Serif" font-size="10.00">stdio.h</text>
</g>
<!-- Node1&#45;&gt;Node3 -->
<g id="edge2" class="edge"><title>Node1&#45;&gt;Node3</title>
<path fill="none" stroke="midnightblue" d="M161.634,-170.623C142.354,-164.005 115.146,-151.798 99,-132 88.2119,-118.772 83.5492,-99.6409 81.534,-85.5576"/>
<polygon fill="midnightblue" stroke="midnightblue" points="85.0053,-85.105 80.4189,-75.5543 78.0484,-85.8805 85.0053,-85.105"/>
</g>
<!-- Node4 -->
<g id="node4" class="node"><title>Node4</title>
<polygon fill="white" stroke="#bfbfbf" points="339,-112.5 339,-131.5 387,-131.5 387,-112.5 339,-112.5"/>
<text text-anchor="middle" x="363" y="-119.5" font-family="Helvetica,sans-Serif" font-size="10.00">string.h</text>
</g>
<!-- Node1&#45;&gt;Node4 -->
<g id="edge3" class="edge"><title>Node1&#45;&gt;Node4</title>
<path fill="none" stroke="midnightblue" d="M206.309,-170.27C237.234,-160.941 293.381,-144.002 329.394,-133.138"/>
<polygon fill="midnightblue" stroke="midnightblue" points="330.418,-136.485 338.98,-130.246 328.396,-129.784 330.418,-136.485"/>
</g>
<!-- Node5 -->
<g id="node5" class="node"><title>Node5</title>
<g id="a_node5"><a xlink:href="report__util_8h.html" target="_top" xlink:title="report_util.h">
<polygon fill="white" stroke="black" points="108.5,-112.5 108.5,-131.5 175.5,-131.5 175.5,-112.5 108.5,-112.5"/>
<text text-anchor="middle" x="142" y="-119.5" font-family="Helvetica,sans-Serif" font-size="10.00">report_util.h</text>
</a>
</g>
</g>
<!-- Node1&#45;&gt;Node5 -->
<g id="edge4" class="edge"><title>Node1&#45;&gt;Node5</title>
<path fill="none" stroke="midnightblue" d="M177.065,-168.083C171.071,-160.377 162.248,-149.033 154.952,-139.653"/>
<polygon fill="midnightblue" stroke="midnightblue" points="157.709,-137.496 148.806,-131.751 152.183,-141.793 157.709,-137.496"/>
</g>
<!-- Node9 -->
<g id="node9" class="node"><title>Node9</title>
<g id="a_node9"><a xlink:href="string__util_8h.html" target="_top" xlink:title="string_util.h">
<polygon fill="white" stroke="black" points="193.5,-112.5 193.5,-131.5 258.5,-131.5 258.5,-112.5 193.5,-112.5"/>
<text text-anchor="middle" x="226" y="-119.5" font-family="Helvetica,sans-Serif" font-size="10.00">string_util.h</text>
</a>
</g>
</g>
<!-- Node1&#45;&gt;Node9 -->
<g id="edge9" class="edge"><title>Node1&#45;&gt;Node9</title>
<path fill="none" stroke="midnightblue" d="M190.935,-168.083C196.929,-160.377 205.752,-149.033 213.048,-139.653"/>
<polygon fill="midnightblue" stroke="midnightblue" points="215.817,-141.793 219.194,-131.751 210.291,-137.496 215.817,-141.793"/>
</g>
<!-- Node12 -->
<g id="node12" class="node"><title>Node12</title>
<g id="a_node12"><a xlink:href="edid_8h.html" target="_top" xlink:title="edid.h">
<polygon fill="white" stroke="black" points="277,-112.5 277,-131.5 321,-131.5 321,-112.5 277,-112.5"/>
<text text-anchor="middle" x="299" y="-119.5" font-family="Helvetica,sans-Serif" font-size="10.00">edid.h</text>
</a>
</g>
</g>
<!-- Node1&#45;&gt;Node12 -->
<g id="edge16" class="edge"><title>Node1&#45;&gt;Node12</title>
<path fill="none" stroke="midnightblue" d="M202.222,-168.444C220.896,-159.675 250.156,-145.935 271.617,-135.858"/>
<polygon fill="midnightblue" stroke="midnightblue" points="273.299,-138.935 280.863,-131.516 270.324,-132.599 273.299,-138.935"/>
</g>
<!-- Node5&#45;&gt;Node3 -->
<g id="edge6" class="edge"><title>Node5&#45;&gt;Node3</title>
<path fill="none" stroke="midnightblue" d="M132.039,-112.324C122.873,-104.341 109.063,-92.3128 97.9718,-82.6529"/>
<polygon fill="midnightblue" stroke="midnightblue" points="99.9822,-79.7624 90.1426,-75.8339 95.3847,-85.041 99.9822,-79.7624"/>
</g>
<!-- Node6 -->
<g id="node6" class="node"><title>Node6</title>
<polygon fill="white" stroke="#bfbfbf" points="69,-0.5 69,-19.5 109,-19.5 109,-0.5 69,-0.5"/>
<text text-anchor="middle" x="89" y="-7.5" font-family="Helvetica,sans-Serif" font-size="10.00">glib.h</text>
</g>
<!-- Node5&#45;&gt;Node6 -->
<g id="edge5" class="edge"><title>Node5&#45;&gt;Node6</title>
<path fill="none" stroke="midnightblue" d="M108.046,-114.331C86.8252,-108.219 61.1156,-96.8198 48,-76 37.2594,-58.9503 53.4624,-39.3942 68.5558,-26.2234"/>
<polygon fill="midnightblue" stroke="midnightblue" points="71.1136,-28.6537 76.6487,-19.6197 66.688,-23.2301 71.1136,-28.6537"/>
</g>
<!-- Node7 -->
<g id="node7" class="node"><title>Node7</title>
<polygon fill="white" stroke="#bfbfbf" points="196.5,-56.5 196.5,-75.5 253.5,-75.5 253.5,-56.5 196.5,-56.5"/>
<text text-anchor="middle" x="225" y="-63.5" font-family="Helvetica,sans-Serif" font-size="10.00">stdbool.h</text>
</g>
<!-- Node5&#45;&gt;Node7 -->
<g id="edge7" class="edge"><title>Node5&#45;&gt;Node7</title>
<path fill="none" stroke="midnightblue" d="M155.335,-112.324C168.162,-103.979 187.785,-91.2122 202.94,-81.3524"/>
<polygon fill="midnightblue" stroke="midnightblue" points="205.224,-84.0417 211.698,-75.6545 201.407,-78.1742 205.224,-84.0417"/>
</g>
<!-- Node8 -->
<g id="node8" class="node"><title>Node8</title>
<g id="a_node8"><a xlink:href="coredefs_8h.html" target="_top" xlink:title="coredefs.h">
<polygon fill="white" stroke="black" points="272,-56.5 272,-75.5 336,-75.5 336,-56.5 272,-56.5"/>
<text text-anchor="middle" x="304" y="-63.5" font-family="Helvetica,sans-Serif" font-size="10.00">coredefs.h</text>
</a>
</g>
</g>
<!-- Node5&#45;&gt;Node8 -->
<g id="edge8" class="edge"><title>Node5&#45;&gt;Node8</title>
<path fill="none" stroke="midnightblue" d="M167.669,-112.444C194.923,-103.359 238.184,-88.9388 268.651,-78.7831"/>
<polygon fill="midnightblue" stroke="midnightblue" points="270.071,-81.9992 278.451,-75.5164 267.857,-75.3584 270.071,-81.9992"/>
</g>
<!-- Node9&#45;&gt;Node3 -->
<g id="edge12" class="edge"><title>Node9&#45;&gt;Node3</title>
<path fill="none" stroke="midnightblue" d="M202.866,-112.444C178.518,-103.438 139.993,-89.1891 112.577,-79.049"/>
<polygon fill="midnightblue" stroke="midnightblue" points="113.619,-75.7028 103.026,-75.5164 111.191,-82.2681 113.619,-75.7028"/>
</g>
<!-- Node9&#45;&gt;Node7 -->
<g id="edge10" class="edge"><title>Node9&#45;&gt;Node7</title>
<path fill="none" stroke="midnightblue" d="M225.835,-112.083C225.704,-105.006 225.516,-94.8611 225.352,-85.9865"/>
<polygon fill="midnightblue" stroke="midnightblue" points="228.847,-85.6845 225.162,-75.7511 221.848,-85.8142 228.847,-85.6845"/>
</g>
<!-- Node9&#45;&gt;Node8 -->
<g id="edge13" class="edge"><title>Node9&#45;&gt;Node8</title>
<path fill="none" stroke="midnightblue" d="M238.532,-112.324C250.586,-103.979 269.027,-91.2122 283.269,-81.3524"/>
<polygon fill="midnightblue" stroke="midnightblue" points="285.269,-84.2243 291.499,-75.6545 281.285,-78.469 285.269,-84.2243"/>
</g>
<!-- Node10 -->
<g id="node10" class="node"><title>Node10</title>
<polygon fill="white" stroke="#bfbfbf" points="354.5,-56.5 354.5,-75.5 401.5,-75.5 401.5,-56.5 354.5,-56.5"/>
<text text-anchor="middle" x="378" y="-63.5" font-family="Helvetica,sans-Serif" font-size="10.00">stdint.h</text>
</g>
<!-- Node9&#45;&gt;Node10 -->
<g id="edge11" class="edge"><title>Node9&#45;&gt;Node10</title>
<path fill="none" stroke="midnightblue" d="M250.085,-112.444C275.545,-103.399 315.894,-89.064 344.459,-78.9158"/>
<polygon fill="midnightblue" stroke="midnightblue" points="345.777,-82.1622 354.028,-75.5164 343.433,-75.5661 345.777,-82.1622"/>
</g>
<!-- Node11 -->
<g id="node11" class="node"><title>Node11</title>
<g id="a_node11"><a xlink:href="glib__util_8h.html" target="_top" xlink:title="glib_util.h">
<polygon fill="white" stroke="black" points="121.5,-56.5 121.5,-75.5 178.5,-75.5 178.5,-56.5 121.5,-56.5"/>
<text text-anchor="middle" x="150" y="-63.5" font-family="Helvetica,sans-Serif" font-size="10.00">glib_util.h</text>
</a>
</g>
</g>
<!-- Node9&#45;&gt;Node11 -->
<g id="edge14" class="edge"><title>Node9&#45;&gt;Node11</title>
<path fill="none" stroke="midnightblue" d="M213.789,-112.324C202.224,-104.107 184.625,-91.6017 170.839,-81.8069"/>
<polygon fill="midnightblue" stroke="midnightblue" points="172.612,-78.7729 162.433,-75.8339 168.557,-84.4791 172.612,-78.7729"/>
</g>
<!-- Node11&#45;&gt;Node6 -->
<g id="edge15" class="edge"><title>Node11&#45;&gt;Node6</title>
<path fill="none" stroke="midnightblue" d="M140.199,-56.324C131.182,-48.3414 117.594,-36.3128 106.682,-26.6529"/>
<polygon fill="midnightblue" stroke="midnightblue" points="108.787,-23.8416 98.979,-19.8339 104.147,-29.083 108.787,-23.8416"/>
</g>
<!-- Node12&#45;&gt;Node3 -->
<g id="edge19" class="edge"><title>Node12&#45;&gt;Node3</title>
<path fill="none" stroke="midnightblue" d="M276.656,-114.574C273.422,-113.686 270.13,-112.803 267,-112 201.574,-95.2111 182.222,-93.6881 113.127,-76.1936"/>
<polygon fill="midnightblue" stroke="midnightblue" points="113.593,-72.7002 103.038,-73.6159 111.86,-79.4824 113.593,-72.7002"/>
</g>
<!-- Node12&#45;&gt;Node7 -->
<g id="edge17" class="edge"><title>Node12&#45;&gt;Node7</title>
<path fill="none" stroke="midnightblue" d="M287.111,-112.324C275.85,-104.107 258.713,-91.6017 245.291,-81.8069"/>
<polygon fill="midnightblue" stroke="midnightblue" points="247.247,-78.9014 237.106,-75.8339 243.12,-84.5559 247.247,-78.9014"/>
</g>
<!-- Node12&#45;&gt;Node8 -->
<g id="edge21" class="edge"><title>Node12&#45;&gt;Node8</title>
<path fill="none" stroke="midnightblue" d="M299.826,-112.083C300.481,-105.006 301.42,-94.8611 302.242,-85.9865"/>
<polygon fill="midnightblue" stroke="midnightblue" points="305.753,-86.0312 303.19,-75.7511 298.783,-85.3858 305.753,-86.0312"/>
</g>
<!-- Node12&#45;&gt;Node10 -->
<g id="edge18" class="edge"><title>Node12&#45;&gt;Node10</title>
<path fill="none" stroke="midnightblue" d="M311.693,-112.324C323.901,-103.979 342.578,-91.2122 357.003,-81.3524"/>
<polygon fill="midnightblue" stroke="midnightblue" points="359.058,-84.1871 365.339,-75.6545 355.108,-78.4082 359.058,-84.1871"/>
</g>
<!-- Node13 -->
<g id="node13" class="node"><title>Node13</title>
<polygon fill="white" stroke="#bfbfbf" points="419.5,-56.5 419.5,-75.5 466.5,-75.5 466.5,-56.5 419.5,-56.5"/>
<text text-anchor="middle" x="443" y="-63.5" font-family="Helvetica,sans-Serif" font-size="10.00">stdlib.h</text>
</g>
<!-- Node12&#45;&gt;Node13 -->
<g id="edge20" class="edge"><title>Node12&#45;&gt;Node13</title>
<path fill="none" stroke="midnightblue" d="M321.184,-112.681C345.074,-103.722 383.316,-89.3817 410.576,-79.1589"/>
<polygon fill="midnightblue" stroke="midnightblue" points="411.941,-82.385 420.076,-75.5966 409.484,-75.8307 411.941,-82.385"/>
</g>
</g>
</svg>
