<?xml version="1.0" encoding="UTF-8" standalone="no"?>
<!DOCTYPE svg PUBLIC "-//W3C//DTD SVG 1.1//EN"
 "http://www.w3.org/Graphics/SVG/1.1/DTD/svg11.dtd">
<!-- Generated by graphviz version 2.38.0 (20140413.2041)
 -->
<!-- Title: create_parsed_edid Pages: 1 -->
<svg width="410pt" height="116pt"
 viewBox="0.00 0.00 410.00 115.50" xmlns="http://www.w3.org/2000/svg" xmlns:xlink="http://www.w3.org/1999/xlink">
<g id="graph0" class="graph" transform="scale(1 1) rotate(0) translate(4 111.5)">
<title>create_parsed_edid</title>
<polygon fill="white" stroke="none" points="-4,4 -4,-111.5 406,-111.5 406,4 -4,4"/>
<!-- Node1 -->
<g id="node1" class="node"><title>Node1</title>
<polygon fill="#bfbfbf" stroke="black" points="0,-50 0,-69 107,-69 107,-50 0,-50"/>
<text text-anchor="middle" x="53.5" y="-57" font-family="Helvetica,sans-Serif" font-size="10.00">create_parsed_edid</text>
</g>
<!-- Node2 -->
<g id="node2" class="node"><title>Node2</title>
<g id="a_node2"><a xlink:href="edid_8c.html#a9b0fb825704a18d0697b4a43427a887a" target="_top" xlink:title="edid_checksum">
<polygon fill="white" stroke="black" points="151,-88 151,-107 239,-107 239,-88 151,-88"/>
<text text-anchor="middle" x="195" y="-95" font-family="Helvetica,sans-Serif" font-size="10.00">edid_checksum</text>
</a>
</g>
</g>
<!-- Node1&#45;&gt;Node2 -->
<g id="edge1" class="edge"><title>Node1&#45;&gt;Node2</title>
<path fill="none" stroke="midnightblue" d="M89.7017,-69.089C107.71,-73.9944 129.828,-80.0196 149.056,-85.2571"/>
<polygon fill="midnightblue" stroke="midnightblue" points="148.241,-88.6627 158.81,-87.9141 150.081,-81.9088 148.241,-88.6627"/>
</g>
<!-- Node3 -->
<g id="node3" class="node"><title>Node3</title>
<g id="a_node3"><a xlink:href="edid_8c.html#acacc0ae2b861fad99bb2949bd1b6605d" target="_top" xlink:title="get_edid_mfg_id_in\l_buffer">
<polygon fill="white" stroke="black" points="143,-0.5 143,-30.5 247,-30.5 247,-0.5 143,-0.5"/>
<text text-anchor="start" x="151" y="-18.5" font-family="Helvetica,sans-Serif" font-size="10.00">get_edid_mfg_id_in</text>
<text text-anchor="middle" x="195" y="-7.5" font-family="Helvetica,sans-Serif" font-size="10.00">_buffer</text>
</a>
</g>
</g>
<!-- Node1&#45;&gt;Node3 -->
<g id="edge2" class="edge"><title>Node1&#45;&gt;Node3</title>
<path fill="none" stroke="midnightblue" d="M84.7694,-49.9527C99.9145,-45.1757 118.763,-39.2308 136.516,-33.6311"/>
<polygon fill="midnightblue" stroke="midnightblue" points="137.752,-36.9114 146.236,-30.5654 135.646,-30.2356 137.752,-36.9114"/>
</g>
<!-- Node4 -->
<g id="node4" class="node"><title>Node4</title>
<g id="a_node4"><a xlink:href="string__util_8c.html#a7be9558f1d0d894bf845df9c75ab553b" target="_top" xlink:title="hexstring">
<polygon fill="white" stroke="black" points="314,-47 314,-66 371,-66 371,-47 314,-47"/>
<text text-anchor="middle" x="342.5" y="-54" font-family="Helvetica,sans-Serif" font-size="10.00">hexstring</text>
</a>
</g>
</g>
<!-- Node1&#45;&gt;Node4 -->
<g id="edge5" class="edge"><title>Node1&#45;&gt;Node4</title>
<path fill="none" stroke="midnightblue" d="M107.14,-58.9498C164.097,-58.3544 253.496,-57.4199 303.817,-56.8939"/>
<polygon fill="midnightblue" stroke="midnightblue" points="303.974,-60.3926 313.936,-56.7881 303.9,-53.3929 303.974,-60.3926"/>
</g>
<!-- Node3&#45;&gt;Node4 -->
<g id="edge3" class="edge"><title>Node3&#45;&gt;Node4</title>
<path fill="none" stroke="midnightblue" d="M247.298,-29.9551C266.038,-35.2357 286.863,-41.1041 304.158,-45.9776"/>
<polygon fill="midnightblue" stroke="midnightblue" points="303.316,-49.3765 313.891,-48.72 305.215,-42.6389 303.316,-49.3765"/>
</g>
<!-- Node5 -->
<g id="node5" class="node"><title>Node5</title>
<g id="a_node5"><a xlink:href="edid_8c.html#a8deaa444736443ae96f39831ac495052" target="_top" xlink:title="parse_mfg_id_in_buffer">
<polygon fill="white" stroke="black" points="283,-6 283,-25 402,-25 402,-6 283,-6"/>
<text text-anchor="middle" x="342.5" y="-13" font-family="Helvetica,sans-Serif" font-size="10.00">parse_mfg_id_in_buffer</text>
</a>
</g>
</g>
<!-- Node3&#45;&gt;Node5 -->
<g id="edge4" class="edge"><title>Node3&#45;&gt;Node5</title>
<path fill="none" stroke="midnightblue" d="M247.298,-15.5C255.59,-15.5 264.289,-15.5 272.911,-15.5"/>
<polygon fill="midnightblue" stroke="midnightblue" points="272.967,-19.0001 282.967,-15.5 272.967,-12.0001 272.967,-19.0001"/>
</g>
</g>
</svg>
