<?xml version="1.0" encoding="UTF-8" standalone="no"?>
<!DOCTYPE svg PUBLIC "-//W3C//DTD SVG 1.1//EN"
 "http://www.w3.org/Graphics/SVG/1.1/DTD/svg11.dtd">
<!-- Generated by graphviz version 2.38.0 (20140413.2041)
 -->
<!-- Title: create_parsed_edid Pages: 1 -->
<svg width="410pt" height="113pt"
 viewBox="0.00 0.00 410.00 113.00" xmlns="http://www.w3.org/2000/svg" xmlns:xlink="http://www.w3.org/1999/xlink">
<g id="graph0" class="graph" transform="scale(1 1) rotate(0) translate(4 109)">
<title>create_parsed_edid</title>
<polygon fill="white" stroke="none" points="-4,4 -4,-109 406,-109 406,4 -4,4"/>
<!-- Node1 -->
<g id="node1" class="node"><title>Node1</title>
<polygon fill="#bfbfbf" stroke="black" points="0,-41.5 0,-60.5 107,-60.5 107,-41.5 0,-41.5"/>
<text text-anchor="middle" x="53.5" y="-48.5" font-family="Helvetica,sans-Serif" font-size="10.00">create_parsed_edid</text>
</g>
<!-- Node2 -->
<g id="node2" class="node"><title>Node2</title>
<g id="a_node2"><a xlink:href="edid_8c.html#a9b0fb825704a18d0697b4a43427a887a" target="_top" xlink:title="edid_checksum">
<polygon fill="white" stroke="black" points="151,-85.5 151,-104.5 239,-104.5 239,-85.5 151,-85.5"/>
<text text-anchor="middle" x="195" y="-92.5" font-family="Helvetica,sans-Serif" font-size="10.00">edid_checksum</text>
</a>
</g>
</g>
<!-- Node1&#45;&gt;Node2 -->
<g id="edge1" class="edge"><title>Node1&#45;&gt;Node2</title>
<path fill="none" stroke="midnightblue" d="M84.7694,-60.5473C105.061,-66.9474 131.999,-75.444 154.046,-82.3979"/>
<polygon fill="midnightblue" stroke="midnightblue" points="153.2,-85.8011 163.79,-85.4713 155.306,-79.1253 153.2,-85.8011"/>
</g>
<!-- Node3 -->
<g id="node3" class="node"><title>Node3</title>
<g id="a_node3"><a xlink:href="edid_8c.html#acacc0ae2b861fad99bb2949bd1b6605d" target="_top" xlink:title="get_edid_mfg_id_in\l_buffer">
<polygon fill="white" stroke="black" points="143,-36 143,-66 247,-66 247,-36 143,-36"/>
<text text-anchor="start" x="151" y="-54" font-family="Helvetica,sans-Serif" font-size="10.00">get_edid_mfg_id_in</text>
<text text-anchor="middle" x="195" y="-43" font-family="Helvetica,sans-Serif" font-size="10.00">_buffer</text>
</a>
</g>
</g>
<!-- Node1&#45;&gt;Node3 -->
<g id="edge2" class="edge"><title>Node1&#45;&gt;Node3</title>
<path fill="none" stroke="midnightblue" d="M107.239,-51C115.467,-51 124.031,-51 132.435,-51"/>
<polygon fill="midnightblue" stroke="midnightblue" points="132.572,-54.5001 142.572,-51 132.572,-47.5001 132.572,-54.5001"/>
</g>
<!-- Node5 -->
<g id="node5" class="node"><title>Node5</title>
<g id="a_node5"><a xlink:href="string__util_8c.html#a7be9558f1d0d894bf845df9c75ab553b" target="_top" xlink:title="hexstring">
<polygon fill="white" stroke="black" points="314,-0.5 314,-19.5 371,-19.5 371,-0.5 314,-0.5"/>
<text text-anchor="middle" x="342.5" y="-7.5" font-family="Helvetica,sans-Serif" font-size="10.00">hexstring</text>
</a>
</g>
</g>
<!-- Node1&#45;&gt;Node5 -->
<g id="edge5" class="edge"><title>Node1&#45;&gt;Node5</title>
<path fill="none" stroke="midnightblue" d="M82.8669,-41.4618C100.069,-36.0619 122.572,-29.6724 143,-26 198.445,-16.0325 263.725,-12.2715 303.859,-10.8543"/>
<polygon fill="midnightblue" stroke="midnightblue" points="304.109,-14.3482 313.991,-10.5278 303.883,-7.35182 304.109,-14.3482"/>
</g>
<!-- Node4 -->
<g id="node4" class="node"><title>Node4</title>
<g id="a_node4"><a xlink:href="edid_8c.html#a8deaa444736443ae96f39831ac495052" target="_top" xlink:title="parse_mfg_id_in_buffer">
<polygon fill="white" stroke="black" points="283,-41.5 283,-60.5 402,-60.5 402,-41.5 283,-41.5"/>
<text text-anchor="middle" x="342.5" y="-48.5" font-family="Helvetica,sans-Serif" font-size="10.00">parse_mfg_id_in_buffer</text>
</a>
</g>
</g>
<!-- Node3&#45;&gt;Node4 -->
<g id="edge3" class="edge"><title>Node3&#45;&gt;Node4</title>
<path fill="none" stroke="midnightblue" d="M247.298,-51C255.59,-51 264.289,-51 272.911,-51"/>
<polygon fill="midnightblue" stroke="midnightblue" points="272.967,-54.5001 282.967,-51 272.967,-47.5001 272.967,-54.5001"/>
</g>
<!-- Node3&#45;&gt;Node5 -->
<g id="edge4" class="edge"><title>Node3&#45;&gt;Node5</title>
<path fill="none" stroke="midnightblue" d="M247.298,-36.5449C266.038,-31.2643 286.863,-25.3959 304.158,-20.5224"/>
<polygon fill="midnightblue" stroke="midnightblue" points="305.215,-23.8611 313.891,-17.78 303.316,-17.1235 305.215,-23.8611"/>
</g>
</g>
</svg>
