<?xml version="1.0" encoding="UTF-8" standalone="no"?>
<!DOCTYPE svg PUBLIC "-//W3C//DTD SVG 1.1//EN"
 "http://www.w3.org/Graphics/SVG/1.1/DTD/svg11.dtd">
<!-- Generated by graphviz version 2.38.0 (20140413.2041)
 -->
<!-- Title: report_parsed_edid_base Pages: 1 -->
<svg width="401pt" height="104pt"
 viewBox="0.00 0.00 401.00 104.00" xmlns="http://www.w3.org/2000/svg" xmlns:xlink="http://www.w3.org/1999/xlink">
<g id="graph0" class="graph" transform="scale(1 1) rotate(0) translate(4 100)">
<title>report_parsed_edid_base</title>
<polygon fill="white" stroke="none" points="-4,4 -4,-100 397,-100 397,4 -4,4"/>
<!-- Node1 -->
<g id="node1" class="node"><title>Node1</title>
<polygon fill="#bfbfbf" stroke="black" points="0,-19.5 0,-38.5 132,-38.5 132,-19.5 0,-19.5"/>
<text text-anchor="middle" x="66" y="-26.5" font-family="Helvetica,sans-Serif" font-size="10.00">report_parsed_edid_base</text>
</g>
<!-- Node2 -->
<g id="node2" class="node"><title>Node2</title>
<g id="a_node2"><a xlink:href="report__util_8c.html#a5cdea9095d42e1486dd5f4b45e1e2a82" target="_top" xlink:title="rpt_hex_dump">
<polygon fill="white" stroke="black" points="168,-38.5 168,-57.5 247,-57.5 247,-38.5 168,-38.5"/>
<text text-anchor="middle" x="207.5" y="-45.5" font-family="Helvetica,sans-Serif" font-size="10.00">rpt_hex_dump</text>
</a>
</g>
</g>
<!-- Node1&#45;&gt;Node2 -->
<g id="edge1" class="edge"><title>Node1&#45;&gt;Node2</title>
<path fill="none" stroke="midnightblue" d="M132.257,-37.8881C140.833,-39.0561 149.5,-40.2365 157.736,-41.3583"/>
<polygon fill="midnightblue" stroke="midnightblue" points="157.518,-44.8609 167.899,-42.7425 158.463,-37.9249 157.518,-44.8609"/>
</g>
<!-- Node6 -->
<g id="node6" class="node"><title>Node6</title>
<g id="a_node6"><a xlink:href="report__util_8c.html#ae58dfa6adb2e9f1dacce17f7b0732f26" target="_top" xlink:title="rpt_vstring">
<polygon fill="white" stroke="black" points="176.5,-0.5 176.5,-19.5 238.5,-19.5 238.5,-0.5 176.5,-0.5"/>
<text text-anchor="middle" x="207.5" y="-7.5" font-family="Helvetica,sans-Serif" font-size="10.00">rpt_vstring</text>
</a>
</g>
</g>
<!-- Node1&#45;&gt;Node6 -->
<g id="edge5" class="edge"><title>Node1&#45;&gt;Node6</title>
<path fill="none" stroke="midnightblue" d="M132.257,-20.1119C143.851,-18.5328 155.611,-16.9311 166.249,-15.4822"/>
<polygon fill="midnightblue" stroke="midnightblue" points="167.029,-18.9084 176.465,-14.0907 166.084,-11.9724 167.029,-18.9084"/>
</g>
<!-- Node3 -->
<g id="node3" class="node"><title>Node3</title>
<g id="a_node3"><a xlink:href="string__util_8c.html#ae90befb63fa82bf7029a37b5dc079bd5" target="_top" xlink:title="fhex_dump_indented">
<polygon fill="white" stroke="black" points="283,-76.5 283,-95.5 393,-95.5 393,-76.5 283,-76.5"/>
<text text-anchor="middle" x="338" y="-83.5" font-family="Helvetica,sans-Serif" font-size="10.00">fhex_dump_indented</text>
</a>
</g>
</g>
<!-- Node2&#45;&gt;Node3 -->
<g id="edge2" class="edge"><title>Node2&#45;&gt;Node3</title>
<path fill="none" stroke="midnightblue" d="M240.926,-57.589C257.21,-62.4044 277.142,-68.2988 294.622,-73.468"/>
<polygon fill="midnightblue" stroke="midnightblue" points="294.002,-76.9345 304.584,-76.4141 295.987,-70.2219 294.002,-76.9345"/>
</g>
<!-- Node4 -->
<g id="node4" class="node"><title>Node4</title>
<g id="a_node4"><a xlink:href="report__util_8c.html#a71f4829c653e1d6101dfc1ae09f4796e" target="_top" xlink:title="rpt_cur_output_dest">
<polygon fill="white" stroke="black" points="287,-38.5 287,-57.5 389,-57.5 389,-38.5 287,-38.5"/>
<text text-anchor="middle" x="338" y="-45.5" font-family="Helvetica,sans-Serif" font-size="10.00">rpt_cur_output_dest</text>
</a>
</g>
</g>
<!-- Node2&#45;&gt;Node4 -->
<g id="edge3" class="edge"><title>Node2&#45;&gt;Node4</title>
<path fill="none" stroke="midnightblue" d="M247.054,-48C256.272,-48 266.335,-48 276.284,-48"/>
<polygon fill="midnightblue" stroke="midnightblue" points="276.571,-51.5001 286.571,-48 276.571,-44.5001 276.571,-51.5001"/>
</g>
<!-- Node5 -->
<g id="node5" class="node"><title>Node5</title>
<g id="a_node5"><a xlink:href="report__util_8c.html#ad8736ff7dcecf76ad38a0c26a1cdf5ff" target="_top" xlink:title="rpt_get_indent">
<polygon fill="white" stroke="black" points="298.5,-0.5 298.5,-19.5 377.5,-19.5 377.5,-0.5 298.5,-0.5"/>
<text text-anchor="middle" x="338" y="-7.5" font-family="Helvetica,sans-Serif" font-size="10.00">rpt_get_indent</text>
</a>
</g>
</g>
<!-- Node2&#45;&gt;Node5 -->
<g id="edge4" class="edge"><title>Node2&#45;&gt;Node5</title>
<path fill="none" stroke="midnightblue" d="M240.926,-38.411C257.21,-33.5956 277.142,-27.7012 294.622,-22.532"/>
<polygon fill="midnightblue" stroke="midnightblue" points="295.987,-25.7781 304.584,-19.5859 294.002,-19.0655 295.987,-25.7781"/>
</g>
</g>
</svg>
