<?xml version="1.0" encoding="UTF-8" standalone="no"?>
<!DOCTYPE svg PUBLIC "-//W3C//DTD SVG 1.1//EN"
 "http://www.w3.org/Graphics/SVG/1.1/DTD/svg11.dtd">
<!-- Generated by graphviz version 2.38.0 (20140413.2041)
 -->
<!-- Title: edid.h Pages: 1 -->
<svg width="343pt" height="84pt"
 viewBox="0.00 0.00 342.50 84.00" xmlns="http://www.w3.org/2000/svg" xmlns:xlink="http://www.w3.org/1999/xlink">
<g id="graph0" class="graph" transform="scale(1 1) rotate(0) translate(4 80)">
<title>edid.h</title>
<polygon fill="white" stroke="none" points="-4,4 -4,-80 338.5,-80 338.5,4 -4,4"/>
<!-- Node1 -->
<g id="node1" class="node"><title>Node1</title>
<polygon fill="#bfbfbf" stroke="black" points="141.5,-56.5 141.5,-75.5 185.5,-75.5 185.5,-56.5 141.5,-56.5"/>
<text text-anchor="middle" x="163.5" y="-63.5" font-family="Helvetica,sans-Serif" font-size="10.00">edid.h</text>
</g>
<!-- Node2 -->
<g id="node2" class="node"><title>Node2</title>
<polygon fill="white" stroke="#bfbfbf" points="0,-0.5 0,-19.5 57,-19.5 57,-0.5 0,-0.5"/>
<text text-anchor="middle" x="28.5" y="-7.5" font-family="Helvetica,sans-Serif" font-size="10.00">stdbool.h</text>
</g>
<!-- Node1&#45;&gt;Node2 -->
<g id="edge1" class="edge"><title>Node1&#45;&gt;Node2</title>
<path fill="none" stroke="midnightblue" d="M142.109,-56.4435C119.793,-47.5171 84.5968,-33.4387 59.292,-23.3168"/>
<polygon fill="midnightblue" stroke="midnightblue" points="60.3757,-19.9807 49.7911,-19.5164 57.776,-26.4801 60.3757,-19.9807"/>
</g>
<!-- Node3 -->
<g id="node3" class="node"><title>Node3</title>
<polygon fill="white" stroke="#bfbfbf" points="75,-0.5 75,-19.5 122,-19.5 122,-0.5 75,-0.5"/>
<text text-anchor="middle" x="98.5" y="-7.5" font-family="Helvetica,sans-Serif" font-size="10.00">stdint.h</text>
</g>
<!-- Node1&#45;&gt;Node3 -->
<g id="edge2" class="edge"><title>Node1&#45;&gt;Node3</title>
<path fill="none" stroke="midnightblue" d="M153.057,-56.324C143.354,-48.2631 128.685,-36.0765 117,-26.3695"/>
<polygon fill="midnightblue" stroke="midnightblue" points="119.062,-23.532 109.133,-19.8339 114.589,-28.9163 119.062,-23.532"/>
</g>
<!-- Node4 -->
<g id="node4" class="node"><title>Node4</title>
<polygon fill="white" stroke="#bfbfbf" points="140.5,-0.5 140.5,-19.5 186.5,-19.5 186.5,-0.5 140.5,-0.5"/>
<text text-anchor="middle" x="163.5" y="-7.5" font-family="Helvetica,sans-Serif" font-size="10.00">stdio.h</text>
</g>
<!-- Node1&#45;&gt;Node4 -->
<g id="edge3" class="edge"><title>Node1&#45;&gt;Node4</title>
<path fill="none" stroke="midnightblue" d="M163.5,-56.083C163.5,-49.0059 163.5,-38.8611 163.5,-29.9865"/>
<polygon fill="midnightblue" stroke="midnightblue" points="167,-29.751 163.5,-19.7511 160,-29.7511 167,-29.751"/>
</g>
<!-- Node5 -->
<g id="node5" class="node"><title>Node5</title>
<polygon fill="white" stroke="#bfbfbf" points="205,-0.5 205,-19.5 252,-19.5 252,-0.5 205,-0.5"/>
<text text-anchor="middle" x="228.5" y="-7.5" font-family="Helvetica,sans-Serif" font-size="10.00">stdlib.h</text>
</g>
<!-- Node1&#45;&gt;Node5 -->
<g id="edge4" class="edge"><title>Node1&#45;&gt;Node5</title>
<path fill="none" stroke="midnightblue" d="M173.943,-56.324C183.646,-48.2631 198.315,-36.0765 210,-26.3695"/>
<polygon fill="midnightblue" stroke="midnightblue" points="212.411,-28.9163 217.867,-19.8339 207.938,-23.532 212.411,-28.9163"/>
</g>
<!-- Node6 -->
<g id="node6" class="node"><title>Node6</title>
<g id="a_node6"><a xlink:href="coredefs_8h.html" target="_top" xlink:title="coredefs.h">
<polygon fill="white" stroke="black" points="270.5,-0.5 270.5,-19.5 334.5,-19.5 334.5,-0.5 270.5,-0.5"/>
<text text-anchor="middle" x="302.5" y="-7.5" font-family="Helvetica,sans-Serif" font-size="10.00">coredefs.h</text>
</a>
</g>
</g>
<!-- Node1&#45;&gt;Node6 -->
<g id="edge5" class="edge"><title>Node1&#45;&gt;Node6</title>
<path fill="none" stroke="midnightblue" d="M185.525,-56.4435C208.604,-47.4776 245.062,-33.314 271.141,-23.1827"/>
<polygon fill="midnightblue" stroke="midnightblue" points="272.524,-26.4002 280.578,-19.5164 269.989,-19.8753 272.524,-26.4002"/>
</g>
</g>
</svg>
