<?xml version="1.0" encoding="UTF-8" standalone="no"?>
<!DOCTYPE svg PUBLIC "-//W3C//DTD SVG 1.1//EN"
 "http://www.w3.org/Graphics/SVG/1.1/DTD/svg11.dtd">
<!-- Generated by graphviz version 2.38.0 (20140413.2041)
 -->
<!-- Title: fsim_add_error Pages: 1 -->
<svg width="397pt" height="39pt"
 viewBox="0.00 0.00 397.00 39.00" xmlns="http://www.w3.org/2000/svg" xmlns:xlink="http://www.w3.org/1999/xlink">
<g id="graph0" class="graph" transform="scale(1 1) rotate(0) translate(4 35)">
<title>fsim_add_error</title>
<polygon fill="white" stroke="none" points="-4,4 -4,-35 393,-35 393,4 -4,4"/>
<!-- Node1 -->
<g id="node1" class="node"><title>Node1</title>
<polygon fill="#bfbfbf" stroke="black" points="0,-6 0,-25 84,-25 84,-6 0,-6"/>
<text text-anchor="middle" x="42" y="-13" font-family="Helvetica,sans-Serif" font-size="10.00">fsim_add_error</text>
</g>
<!-- Node2 -->
<g id="node2" class="node"><title>Node2</title>
<g id="a_node2"><a xlink:href="failsim_8h.html#a47679d378ef8cd71ccbdaf2470d37f21" target="_top" xlink:title="fsim_load_control_from\l_gptrarray">
<polygon fill="white" stroke="black" points="120,-0.5 120,-30.5 240,-30.5 240,-0.5 120,-0.5"/>
<text text-anchor="start" x="128" y="-18.5" font-family="Helvetica,sans-Serif" font-size="10.00">fsim_load_control_from</text>
<text text-anchor="middle" x="180" y="-7.5" font-family="Helvetica,sans-Serif" font-size="10.00">_gptrarray</text>
</a>
</g>
</g>
<!-- Node1&#45;&gt;Node2 -->
<g id="edge1" class="edge"><title>Node1&#45;&gt;Node2</title>
<path fill="none" stroke="midnightblue" d="M94.1918,-15.5C102.584,-15.5 111.34,-15.5 119.905,-15.5"/>
<polygon fill="midnightblue" stroke="midnightblue" points="94.1736,-12.0001 84.1736,-15.5 94.1735,-19.0001 94.1736,-12.0001"/>
</g>
<!-- Node3 -->
<g id="node3" class="node"><title>Node3</title>
<g id="a_node3"><a xlink:href="failsim_8h.html#a0956766f1ad629bfade7cb1725c57ebe" target="_top" xlink:title="fsim_load_control_file">
<polygon fill="white" stroke="black" points="276,-6 276,-25 389,-25 389,-6 276,-6"/>
<text text-anchor="middle" x="332.5" y="-13" font-family="Helvetica,sans-Serif" font-size="10.00">fsim_load_control_file</text>
</a>
</g>
</g>
<!-- Node2&#45;&gt;Node3 -->
<g id="edge2" class="edge"><title>Node2&#45;&gt;Node3</title>
<path fill="none" stroke="midnightblue" d="M250.299,-15.5C258.766,-15.5 267.334,-15.5 275.571,-15.5"/>
<polygon fill="midnightblue" stroke="midnightblue" points="250.05,-12.0001 240.05,-15.5 250.05,-19.0001 250.05,-12.0001"/>
</g>
</g>
</svg>
