<?xml version="1.0" encoding="UTF-8" standalone="no"?>
<!DOCTYPE svg PUBLIC "-//W3C//DTD SVG 1.1//EN"
 "http://www.w3.org/Graphics/SVG/1.1/DTD/svg11.dtd">
<!-- Generated by graphviz version 2.38.0 (20140413.2041)
 -->
<!-- Title: fsim_load_control_from_gptrarray Pages: 1 -->
<svg width="335pt" height="218pt"
 viewBox="0.00 0.00 335.00 218.00" xmlns="http://www.w3.org/2000/svg" xmlns:xlink="http://www.w3.org/1999/xlink">
<g id="graph0" class="graph" transform="scale(1 1) rotate(0) translate(4 214)">
<title>fsim_load_control_from_gptrarray</title>
<polygon fill="white" stroke="none" points="-4,4 -4,-214 331,-214 331,4 -4,4"/>
<!-- Node1 -->
<g id="node1" class="node"><title>Node1</title>
<polygon fill="#bfbfbf" stroke="black" points="0,-90 0,-120 120,-120 120,-90 0,-90"/>
<text text-anchor="start" x="8" y="-108" font-family="Helvetica,sans-Serif" font-size="10.00">fsim_load_control_from</text>
<text text-anchor="middle" x="60" y="-97" font-family="Helvetica,sans-Serif" font-size="10.00">_gptrarray</text>
</g>
<!-- Node2 -->
<g id="node2" class="node"><title>Node2</title>
<g id="a_node2"><a xlink:href="string__util_8c.html#a1ecb7458987387bfab6da137cdebc4cc" target="_top" xlink:title="bool_repr">
<polygon fill="white" stroke="black" points="168.5,-190.5 168.5,-209.5 227.5,-209.5 227.5,-190.5 168.5,-190.5"/>
<text text-anchor="middle" x="198" y="-197.5" font-family="Helvetica,sans-Serif" font-size="10.00">bool_repr</text>
</a>
</g>
</g>
<!-- Node1&#45;&gt;Node2 -->
<g id="edge1" class="edge"><title>Node1&#45;&gt;Node2</title>
<path fill="none" stroke="midnightblue" d="M77.2455,-120.028C95.469,-136.386 126.369,-162.655 156,-181 158.802,-182.734 161.787,-184.411 164.822,-186.002"/>
<polygon fill="midnightblue" stroke="midnightblue" points="163.417,-189.212 173.934,-190.492 166.511,-182.933 163.417,-189.212"/>
</g>
<!-- Node3 -->
<g id="node3" class="node"><title>Node3</title>
<g id="a_node3"><a xlink:href="failsim_8c.html#a2f683090d49d58a869be750cc6957e9c" target="_top" xlink:title="fsim_add_error">
<polygon fill="white" stroke="black" points="156,-152.5 156,-171.5 240,-171.5 240,-152.5 156,-152.5"/>
<text text-anchor="middle" x="198" y="-159.5" font-family="Helvetica,sans-Serif" font-size="10.00">fsim_add_error</text>
</a>
</g>
</g>
<!-- Node1&#45;&gt;Node3 -->
<g id="edge2" class="edge"><title>Node1&#45;&gt;Node3</title>
<path fill="none" stroke="midnightblue" d="M97.0884,-120.125C118.053,-128.912 144.25,-139.892 164.559,-148.404"/>
<polygon fill="midnightblue" stroke="midnightblue" points="163.432,-151.726 174.008,-152.363 166.138,-145.27 163.432,-151.726"/>
</g>
<!-- Node4 -->
<g id="node4" class="node"><title>Node4</title>
<g id="a_node4"><a xlink:href="string__util_8c.html#a5db6062886ba44024fed481315c41e64" target="_top" xlink:title="ntsa_free">
<polygon fill="white" stroke="black" points="169,-114.5 169,-133.5 227,-133.5 227,-114.5 169,-114.5"/>
<text text-anchor="middle" x="198" y="-121.5" font-family="Helvetica,sans-Serif" font-size="10.00">ntsa_free</text>
</a>
</g>
</g>
<!-- Node1&#45;&gt;Node4 -->
<g id="edge3" class="edge"><title>Node1&#45;&gt;Node4</title>
<path fill="none" stroke="midnightblue" d="M120.256,-113.278C133.322,-115.104 146.825,-116.99 158.794,-118.662"/>
<polygon fill="midnightblue" stroke="midnightblue" points="158.479,-122.152 168.867,-120.07 159.448,-115.22 158.479,-122.152"/>
</g>
<!-- Node5 -->
<g id="node5" class="node"><title>Node5</title>
<g id="a_node5"><a xlink:href="string__util_8c.html#a30d5da07ffd3470b7a0858166e0871ad" target="_top" xlink:title="ntsa_length">
<polygon fill="white" stroke="black" points="164,-76.5 164,-95.5 232,-95.5 232,-76.5 164,-76.5"/>
<text text-anchor="middle" x="198" y="-83.5" font-family="Helvetica,sans-Serif" font-size="10.00">ntsa_length</text>
</a>
</g>
</g>
<!-- Node1&#45;&gt;Node5 -->
<g id="edge4" class="edge"><title>Node1&#45;&gt;Node5</title>
<path fill="none" stroke="midnightblue" d="M120.256,-96.7216C131.423,-95.1616 142.909,-93.5568 153.484,-92.0795"/>
<polygon fill="midnightblue" stroke="midnightblue" points="154.289,-95.501 163.709,-90.651 153.321,-88.5683 154.289,-95.501"/>
</g>
<!-- Node6 -->
<g id="node6" class="node"><title>Node6</title>
<g id="a_node6"><a xlink:href="string__util_8c.html#a0d0184489aca3b5345de818a5b6bd1c3" target="_top" xlink:title="strsplit">
<polygon fill="white" stroke="black" points="176,-38.5 176,-57.5 220,-57.5 220,-38.5 176,-38.5"/>
<text text-anchor="middle" x="198" y="-45.5" font-family="Helvetica,sans-Serif" font-size="10.00">strsplit</text>
</a>
</g>
</g>
<!-- Node1&#45;&gt;Node6 -->
<g id="edge5" class="edge"><title>Node1&#45;&gt;Node6</title>
<path fill="none" stroke="midnightblue" d="M97.0884,-89.8747C118.594,-80.8615 145.606,-69.5402 166.12,-60.9424"/>
<polygon fill="midnightblue" stroke="midnightblue" points="167.746,-64.056 175.616,-56.9626 165.04,-57.6001 167.746,-64.056"/>
</g>
<!-- Node7 -->
<g id="node7" class="node"><title>Node7</title>
<g id="a_node7"><a xlink:href="string__util_8c.html#ada65b72acbc6657ea068618852614779" target="_top" xlink:title="strtrim">
<polygon fill="white" stroke="black" points="176.5,-0.5 176.5,-19.5 219.5,-19.5 219.5,-0.5 176.5,-0.5"/>
<text text-anchor="middle" x="198" y="-7.5" font-family="Helvetica,sans-Serif" font-size="10.00">strtrim</text>
</a>
</g>
</g>
<!-- Node1&#45;&gt;Node7 -->
<g id="edge6" class="edge"><title>Node1&#45;&gt;Node7</title>
<path fill="none" stroke="midnightblue" d="M77.2455,-89.9717C95.469,-73.614 126.369,-47.3448 156,-29 159.602,-26.77 163.509,-24.6354 167.431,-22.6551"/>
<polygon fill="midnightblue" stroke="midnightblue" points="168.957,-25.8054 176.477,-18.3424 165.944,-19.4868 168.957,-25.8054"/>
</g>
<!-- Node8 -->
<g id="node8" class="node"><title>Node8</title>
<g id="a_node8"><a xlink:href="string__util_8c.html#a532393d96d5bb161b62c13a07a8ad1e7" target="_top" xlink:title="strtrim_r">
<polygon fill="white" stroke="black" points="276,-0.5 276,-19.5 327,-19.5 327,-0.5 276,-0.5"/>
<text text-anchor="middle" x="301.5" y="-7.5" font-family="Helvetica,sans-Serif" font-size="10.00">strtrim_r</text>
</a>
</g>
</g>
<!-- Node7&#45;&gt;Node8 -->
<g id="edge7" class="edge"><title>Node7&#45;&gt;Node8</title>
<path fill="none" stroke="midnightblue" d="M219.54,-10C232.718,-10 250.17,-10 265.495,-10"/>
<polygon fill="midnightblue" stroke="midnightblue" points="265.687,-13.5001 275.687,-10 265.687,-6.5001 265.687,-13.5001"/>
</g>
</g>
</svg>
