<?xml version="1.0" encoding="UTF-8" standalone="no"?>
<!DOCTYPE svg PUBLIC "-//W3C//DTD SVG 1.1//EN"
 "http://www.w3.org/Graphics/SVG/1.1/DTD/svg11.dtd">
<!-- Generated by graphviz version 2.38.0 (20140413.2041)
 -->
<!-- Title: fsim_load_control_file Pages: 1 -->
<svg width="484pt" height="218pt"
 viewBox="0.00 0.00 484.00 218.00" xmlns="http://www.w3.org/2000/svg" xmlns:xlink="http://www.w3.org/1999/xlink">
<g id="graph0" class="graph" transform="scale(1 1) rotate(0) translate(4 214)">
<title>fsim_load_control_file</title>
<polygon fill="white" stroke="none" points="-4,4 -4,-214 480,-214 480,4 -4,4"/>
<!-- Node1 -->
<g id="node1" class="node"><title>Node1</title>
<polygon fill="#bfbfbf" stroke="black" points="0,-152.5 0,-171.5 113,-171.5 113,-152.5 0,-152.5"/>
<text text-anchor="middle" x="56.5" y="-159.5" font-family="Helvetica,sans-Serif" font-size="10.00">fsim_load_control_file</text>
</g>
<!-- Node2 -->
<g id="node2" class="node"><title>Node2</title>
<g id="a_node2"><a xlink:href="string__util_8c.html#a1ecb7458987387bfab6da137cdebc4cc" target="_top" xlink:title="bool_repr">
<polygon fill="white" stroke="black" points="317.5,-190.5 317.5,-209.5 376.5,-209.5 376.5,-190.5 317.5,-190.5"/>
<text text-anchor="middle" x="347" y="-197.5" font-family="Helvetica,sans-Serif" font-size="10.00">bool_repr</text>
</a>
</g>
</g>
<!-- Node1&#45;&gt;Node2 -->
<g id="edge1" class="edge"><title>Node1&#45;&gt;Node2</title>
<path fill="none" stroke="midnightblue" d="M98.778,-171.564C114.439,-174.93 132.478,-178.495 149,-181 203.73,-189.297 267.594,-194.675 307.421,-197.523"/>
<polygon fill="midnightblue" stroke="midnightblue" points="307.279,-201.022 317.498,-198.226 307.766,-194.039 307.279,-201.022"/>
</g>
<!-- Node3 -->
<g id="node3" class="node"><title>Node3</title>
<g id="a_node3"><a xlink:href="file__util_8c.html#a6defbcb2fc1ac183ee68218c22e7622b" target="_top" xlink:title="file_getlines">
<polygon fill="white" stroke="black" points="174,-152.5 174,-171.5 244,-171.5 244,-152.5 174,-152.5"/>
<text text-anchor="middle" x="209" y="-159.5" font-family="Helvetica,sans-Serif" font-size="10.00">file_getlines</text>
</a>
</g>
</g>
<!-- Node1&#45;&gt;Node3 -->
<g id="edge2" class="edge"><title>Node1&#45;&gt;Node3</title>
<path fill="none" stroke="midnightblue" d="M113.113,-162C129.736,-162 147.733,-162 163.539,-162"/>
<polygon fill="midnightblue" stroke="midnightblue" points="163.574,-165.5 173.574,-162 163.574,-158.5 163.574,-165.5"/>
</g>
<!-- Node4 -->
<g id="node4" class="node"><title>Node4</title>
<g id="a_node4"><a xlink:href="failsim_8c.html#a47679d378ef8cd71ccbdaf2470d37f21" target="_top" xlink:title="fsim_load_control_from\l_gptrarray">
<polygon fill="white" stroke="black" points="149,-103 149,-133 269,-133 269,-103 149,-103"/>
<text text-anchor="start" x="157" y="-121" font-family="Helvetica,sans-Serif" font-size="10.00">fsim_load_control_from</text>
<text text-anchor="middle" x="209" y="-110" font-family="Helvetica,sans-Serif" font-size="10.00">_gptrarray</text>
</a>
</g>
</g>
<!-- Node1&#45;&gt;Node4 -->
<g id="edge3" class="edge"><title>Node1&#45;&gt;Node4</title>
<path fill="none" stroke="midnightblue" d="M90.1563,-152.453C106.723,-147.609 127.396,-141.565 146.781,-135.898"/>
<polygon fill="midnightblue" stroke="midnightblue" points="147.854,-139.231 156.47,-133.065 145.889,-132.512 147.854,-139.231"/>
</g>
<!-- Node4&#45;&gt;Node2 -->
<g id="edge10" class="edge"><title>Node4&#45;&gt;Node2</title>
<path fill="none" stroke="midnightblue" d="M251.773,-133.13C257.771,-136.027 263.699,-139.322 269,-143 288.114,-156.263 286.109,-167.422 305,-181 307.329,-182.674 309.829,-184.258 312.404,-185.742"/>
<polygon fill="midnightblue" stroke="midnightblue" points="310.823,-188.865 321.306,-190.397 314.066,-182.661 310.823,-188.865"/>
</g>
<!-- Node5 -->
<g id="node5" class="node"><title>Node5</title>
<g id="a_node5"><a xlink:href="failsim_8c.html#a2f683090d49d58a869be750cc6957e9c" target="_top" xlink:title="fsim_add_error">
<polygon fill="white" stroke="black" points="305,-152.5 305,-171.5 389,-171.5 389,-152.5 305,-152.5"/>
<text text-anchor="middle" x="347" y="-159.5" font-family="Helvetica,sans-Serif" font-size="10.00">fsim_add_error</text>
</a>
</g>
</g>
<!-- Node4&#45;&gt;Node5 -->
<g id="edge4" class="edge"><title>Node4&#45;&gt;Node5</title>
<path fill="none" stroke="midnightblue" d="M256.423,-133.019C272.709,-138.288 290.836,-144.153 306.501,-149.221"/>
<polygon fill="midnightblue" stroke="midnightblue" points="305.803,-152.674 316.394,-152.422 307.957,-146.013 305.803,-152.674"/>
</g>
<!-- Node6 -->
<g id="node6" class="node"><title>Node6</title>
<g id="a_node6"><a xlink:href="string__util_8c.html#ada65b72acbc6657ea068618852614779" target="_top" xlink:title="strtrim">
<polygon fill="white" stroke="black" points="325.5,-114.5 325.5,-133.5 368.5,-133.5 368.5,-114.5 325.5,-114.5"/>
<text text-anchor="middle" x="347" y="-121.5" font-family="Helvetica,sans-Serif" font-size="10.00">strtrim</text>
</a>
</g>
</g>
<!-- Node4&#45;&gt;Node6 -->
<g id="edge5" class="edge"><title>Node4&#45;&gt;Node6</title>
<path fill="none" stroke="midnightblue" d="M269.256,-120.614C285.071,-121.312 301.527,-122.038 315.127,-122.638"/>
<polygon fill="midnightblue" stroke="midnightblue" points="315.209,-126.145 325.354,-123.089 315.518,-119.152 315.209,-126.145"/>
</g>
<!-- Node8 -->
<g id="node8" class="node"><title>Node8</title>
<g id="a_node8"><a xlink:href="string__util_8c.html#a0d0184489aca3b5345de818a5b6bd1c3" target="_top" xlink:title="strsplit">
<polygon fill="white" stroke="black" points="325,-76.5 325,-95.5 369,-95.5 369,-76.5 325,-76.5"/>
<text text-anchor="middle" x="347" y="-83.5" font-family="Helvetica,sans-Serif" font-size="10.00">strsplit</text>
</a>
</g>
</g>
<!-- Node4&#45;&gt;Node8 -->
<g id="edge7" class="edge"><title>Node4&#45;&gt;Node8</title>
<path fill="none" stroke="midnightblue" d="M269.256,-104.057C284.999,-100.353 301.378,-96.4992 314.942,-93.3078"/>
<polygon fill="midnightblue" stroke="midnightblue" points="315.775,-96.7073 324.708,-91.0099 314.172,-89.8934 315.775,-96.7073"/>
</g>
<!-- Node9 -->
<g id="node9" class="node"><title>Node9</title>
<g id="a_node9"><a xlink:href="string__util_8c.html#a30d5da07ffd3470b7a0858166e0871ad" target="_top" xlink:title="ntsa_length">
<polygon fill="white" stroke="black" points="313,-38.5 313,-57.5 381,-57.5 381,-38.5 313,-38.5"/>
<text text-anchor="middle" x="347" y="-45.5" font-family="Helvetica,sans-Serif" font-size="10.00">ntsa_length</text>
</a>
</g>
</g>
<!-- Node4&#45;&gt;Node9 -->
<g id="edge8" class="edge"><title>Node4&#45;&gt;Node9</title>
<path fill="none" stroke="midnightblue" d="M237.215,-102.841C256.09,-92.4632 281.891,-78.5452 305,-67 308.356,-65.3236 311.888,-63.6106 315.414,-61.9332"/>
<polygon fill="midnightblue" stroke="midnightblue" points="317.037,-65.0381 324.607,-57.6257 314.066,-58.6994 317.037,-65.0381"/>
</g>
<!-- Node10 -->
<g id="node10" class="node"><title>Node10</title>
<g id="a_node10"><a xlink:href="string__util_8c.html#a5db6062886ba44024fed481315c41e64" target="_top" xlink:title="ntsa_free">
<polygon fill="white" stroke="black" points="318,-0.5 318,-19.5 376,-19.5 376,-0.5 318,-0.5"/>
<text text-anchor="middle" x="347" y="-7.5" font-family="Helvetica,sans-Serif" font-size="10.00">ntsa_free</text>
</a>
</g>
</g>
<!-- Node4&#45;&gt;Node10 -->
<g id="edge9" class="edge"><title>Node4&#45;&gt;Node10</title>
<path fill="none" stroke="midnightblue" d="M223.261,-102.894C240.596,-83.8209 272.585,-50.8623 305,-29 307.439,-27.355 310.043,-25.7842 312.712,-24.3012"/>
<polygon fill="midnightblue" stroke="midnightblue" points="314.572,-27.2812 321.887,-19.617 311.389,-21.0467 314.572,-27.2812"/>
</g>
<!-- Node7 -->
<g id="node7" class="node"><title>Node7</title>
<g id="a_node7"><a xlink:href="string__util_8c.html#a532393d96d5bb161b62c13a07a8ad1e7" target="_top" xlink:title="strtrim_r">
<polygon fill="white" stroke="black" points="425,-114.5 425,-133.5 476,-133.5 476,-114.5 425,-114.5"/>
<text text-anchor="middle" x="450.5" y="-121.5" font-family="Helvetica,sans-Serif" font-size="10.00">strtrim_r</text>
</a>
</g>
</g>
<!-- Node6&#45;&gt;Node7 -->
<g id="edge6" class="edge"><title>Node6&#45;&gt;Node7</title>
<path fill="none" stroke="midnightblue" d="M368.54,-124C381.718,-124 399.17,-124 414.495,-124"/>
<polygon fill="midnightblue" stroke="midnightblue" points="414.687,-127.5 424.687,-124 414.687,-120.5 414.687,-127.5"/>
</g>
</g>
</svg>
