<?xml version="1.0" encoding="UTF-8" standalone="no"?>
<!DOCTYPE svg PUBLIC "-//W3C//DTD SVG 1.1//EN"
 "http://www.w3.org/Graphics/SVG/1.1/DTD/svg11.dtd">
<!-- Generated by graphviz version 2.38.0 (20140413.2041)
 -->
<!-- Title: failsim.c Pages: 1 -->
<svg width="695pt" height="196pt"
 viewBox="0.00 0.00 695.00 196.00" xmlns="http://www.w3.org/2000/svg" xmlns:xlink="http://www.w3.org/1999/xlink">
<g id="graph0" class="graph" transform="scale(1 1) rotate(0) translate(4 192)">
<title>failsim.c</title>
<polygon fill="white" stroke="none" points="-4,4 -4,-192 691,-192 691,4 -4,4"/>
<!-- Node1 -->
<g id="node1" class="node"><title>Node1</title>
<polygon fill="#bfbfbf" stroke="black" points="314.5,-168.5 314.5,-187.5 367.5,-187.5 367.5,-168.5 314.5,-168.5"/>
<text text-anchor="middle" x="341" y="-175.5" font-family="Helvetica,sans-Serif" font-size="10.00">failsim.c</text>
</g>
<!-- Node2 -->
<g id="node2" class="node"><title>Node2</title>
<polygon fill="white" stroke="#bfbfbf" points="0,-112.5 0,-131.5 52,-131.5 52,-112.5 0,-112.5"/>
<text text-anchor="middle" x="26" y="-119.5" font-family="Helvetica,sans-Serif" font-size="10.00">assert.h</text>
</g>
<!-- Node1&#45;&gt;Node2 -->
<g id="edge1" class="edge"><title>Node1&#45;&gt;Node2</title>
<path fill="none" stroke="midnightblue" d="M314.211,-173.534C265.804,-167.091 160.385,-152.24 62.1043,-132.076"/>
<polygon fill="midnightblue" stroke="midnightblue" points="62.8149,-128.649 52.3123,-130.044 61.3926,-135.503 62.8149,-128.649"/>
</g>
<!-- Node3 -->
<g id="node3" class="node"><title>Node3</title>
<polygon fill="white" stroke="#bfbfbf" points="70.5,-112.5 70.5,-131.5 117.5,-131.5 117.5,-112.5 70.5,-112.5"/>
<text text-anchor="middle" x="94" y="-119.5" font-family="Helvetica,sans-Serif" font-size="10.00">errno.h</text>
</g>
<!-- Node1&#45;&gt;Node3 -->
<g id="edge2" class="edge"><title>Node1&#45;&gt;Node3</title>
<path fill="none" stroke="midnightblue" d="M314.196,-171.891C275.302,-164.364 200.751,-149.511 127.592,-132.027"/>
<polygon fill="midnightblue" stroke="midnightblue" points="128.291,-128.596 117.75,-129.657 126.652,-135.401 128.291,-128.596"/>
</g>
<!-- Node4 -->
<g id="node4" class="node"><title>Node4</title>
<polygon fill="white" stroke="#bfbfbf" points="319.5,-56.5 319.5,-75.5 376.5,-75.5 376.5,-56.5 319.5,-56.5"/>
<text text-anchor="middle" x="348" y="-63.5" font-family="Helvetica,sans-Serif" font-size="10.00">stdbool.h</text>
</g>
<!-- Node1&#45;&gt;Node4 -->
<g id="edge3" class="edge"><title>Node1&#45;&gt;Node4</title>
<path fill="none" stroke="midnightblue" d="M338.322,-168.138C334.892,-155.598 329.758,-131.977 333,-112 334.468,-102.957 337.492,-93.275 340.444,-85.2176"/>
<polygon fill="midnightblue" stroke="midnightblue" points="343.763,-86.3393 344.144,-75.7514 337.244,-83.7907 343.763,-86.3393"/>
</g>
<!-- Node5 -->
<g id="node5" class="node"><title>Node5</title>
<polygon fill="white" stroke="#bfbfbf" points="485.5,-112.5 485.5,-131.5 532.5,-131.5 532.5,-112.5 485.5,-112.5"/>
<text text-anchor="middle" x="509" y="-119.5" font-family="Helvetica,sans-Serif" font-size="10.00">stdlib.h</text>
</g>
<!-- Node1&#45;&gt;Node5 -->
<g id="edge4" class="edge"><title>Node1&#45;&gt;Node5</title>
<path fill="none" stroke="midnightblue" d="M367.62,-168.444C396.924,-159.024 444.074,-143.869 475.778,-133.679"/>
<polygon fill="midnightblue" stroke="midnightblue" points="477.037,-136.95 485.486,-130.558 474.895,-130.286 477.037,-136.95"/>
</g>
<!-- Node6 -->
<g id="node6" class="node"><title>Node6</title>
<polygon fill="white" stroke="#bfbfbf" points="551,-112.5 551,-131.5 599,-131.5 599,-112.5 551,-112.5"/>
<text text-anchor="middle" x="575" y="-119.5" font-family="Helvetica,sans-Serif" font-size="10.00">string.h</text>
</g>
<!-- Node1&#45;&gt;Node6 -->
<g id="edge5" class="edge"><title>Node1&#45;&gt;Node6</title>
<path fill="none" stroke="midnightblue" d="M367.753,-171.42C404.548,-163.657 473.059,-148.887 540.885,-132.192"/>
<polygon fill="midnightblue" stroke="midnightblue" points="542.018,-135.517 550.883,-129.715 540.335,-128.722 542.018,-135.517"/>
</g>
<!-- Node7 -->
<g id="node7" class="node"><title>Node7</title>
<g id="a_node7"><a xlink:href="debug__util_8h.html" target="_top" xlink:title="debug_util.h">
<polygon fill="white" stroke="black" points="617,-112.5 617,-131.5 687,-131.5 687,-112.5 617,-112.5"/>
<text text-anchor="middle" x="652" y="-119.5" font-family="Helvetica,sans-Serif" font-size="10.00">debug_util.h</text>
</a>
</g>
</g>
<!-- Node1&#45;&gt;Node7 -->
<g id="edge6" class="edge"><title>Node1&#45;&gt;Node7</title>
<path fill="none" stroke="midnightblue" d="M367.582,-172.834C414.009,-165.49 513.118,-149.515 607.011,-132.133"/>
<polygon fill="midnightblue" stroke="midnightblue" points="607.766,-135.552 616.957,-130.282 606.486,-128.67 607.766,-135.552"/>
</g>
<!-- Node8 -->
<g id="node8" class="node"><title>Node8</title>
<g id="a_node8"><a xlink:href="file__util_8h.html" target="_top" xlink:title="file_util.h">
<polygon fill="white" stroke="black" points="342,-112.5 342,-131.5 396,-131.5 396,-112.5 342,-112.5"/>
<text text-anchor="middle" x="369" y="-119.5" font-family="Helvetica,sans-Serif" font-size="10.00">file_util.h</text>
</a>
</g>
</g>
<!-- Node1&#45;&gt;Node8 -->
<g id="edge7" class="edge"><title>Node1&#45;&gt;Node8</title>
<path fill="none" stroke="midnightblue" d="M345.624,-168.083C349.456,-160.691 355.024,-149.953 359.765,-140.811"/>
<polygon fill="midnightblue" stroke="midnightblue" points="362.966,-142.24 364.462,-131.751 356.752,-139.018 362.966,-142.24"/>
</g>
<!-- Node11 -->
<g id="node11" class="node"><title>Node11</title>
<g id="a_node11"><a xlink:href="report__util_8h.html" target="_top" xlink:title="report_util.h">
<polygon fill="white" stroke="black" points="135.5,-112.5 135.5,-131.5 202.5,-131.5 202.5,-112.5 135.5,-112.5"/>
<text text-anchor="middle" x="169" y="-119.5" font-family="Helvetica,sans-Serif" font-size="10.00">report_util.h</text>
</a>
</g>
</g>
<!-- Node1&#45;&gt;Node11 -->
<g id="edge11" class="edge"><title>Node1&#45;&gt;Node11</title>
<path fill="none" stroke="midnightblue" d="M314.125,-168.562C285.013,-159.423 238.38,-144.782 205.859,-134.572"/>
<polygon fill="midnightblue" stroke="midnightblue" points="206.843,-131.213 196.254,-131.556 204.746,-137.891 206.843,-131.213"/>
</g>
<!-- Node14 -->
<g id="node14" class="node"><title>Node14</title>
<g id="a_node14"><a xlink:href="string__util_8h.html" target="_top" xlink:title="string_util.h">
<polygon fill="white" stroke="black" points="220.5,-112.5 220.5,-131.5 285.5,-131.5 285.5,-112.5 220.5,-112.5"/>
<text text-anchor="middle" x="253" y="-119.5" font-family="Helvetica,sans-Serif" font-size="10.00">string_util.h</text>
</a>
</g>
</g>
<!-- Node1&#45;&gt;Node14 -->
<g id="edge16" class="edge"><title>Node1&#45;&gt;Node14</title>
<path fill="none" stroke="midnightblue" d="M326.861,-168.324C313.134,-159.9 292.064,-146.971 275.936,-137.074"/>
<polygon fill="midnightblue" stroke="midnightblue" points="277.457,-133.902 267.104,-131.655 273.796,-139.868 277.457,-133.902"/>
</g>
<!-- Node17 -->
<g id="node17" class="node"><title>Node17</title>
<g id="a_node17"><a xlink:href="failsim_8h.html" target="_top" xlink:title="failsim.h">
<polygon fill="white" stroke="black" points="414.5,-112.5 414.5,-131.5 467.5,-131.5 467.5,-112.5 414.5,-112.5"/>
<text text-anchor="middle" x="441" y="-119.5" font-family="Helvetica,sans-Serif" font-size="10.00">failsim.h</text>
</a>
</g>
</g>
<!-- Node1&#45;&gt;Node17 -->
<g id="edge23" class="edge"><title>Node1&#45;&gt;Node17</title>
<path fill="none" stroke="midnightblue" d="M357.067,-168.324C372.958,-159.743 397.507,-146.486 415.958,-136.522"/>
<polygon fill="midnightblue" stroke="midnightblue" points="417.837,-139.486 424.973,-131.655 414.511,-133.326 417.837,-139.486"/>
</g>
<!-- Node8&#45;&gt;Node4 -->
<g id="edge10" class="edge"><title>Node8&#45;&gt;Node4</title>
<path fill="none" stroke="midnightblue" d="M365.532,-112.083C362.688,-104.77 358.571,-94.1814 355.04,-85.1034"/>
<polygon fill="midnightblue" stroke="midnightblue" points="358.29,-83.8025 351.403,-75.7511 351.766,-86.3397 358.29,-83.8025"/>
</g>
<!-- Node9 -->
<g id="node9" class="node"><title>Node9</title>
<polygon fill="white" stroke="#bfbfbf" points="433.5,-56.5 433.5,-75.5 482.5,-75.5 482.5,-56.5 433.5,-56.5"/>
<text text-anchor="middle" x="458" y="-63.5" font-family="Helvetica,sans-Serif" font-size="10.00">dirent.h</text>
</g>
<!-- Node8&#45;&gt;Node9 -->
<g id="edge8" class="edge"><title>Node8&#45;&gt;Node9</title>
<path fill="none" stroke="midnightblue" d="M383.299,-112.324C397.183,-103.9 418.492,-90.9709 434.804,-81.0741"/>
<polygon fill="midnightblue" stroke="midnightblue" points="437.002,-83.8341 443.736,-75.6545 433.371,-77.8495 437.002,-83.8341"/>
</g>
<!-- Node10 -->
<g id="node10" class="node"><title>Node10</title>
<polygon fill="white" stroke="#bfbfbf" points="319,-0.5 319,-19.5 359,-19.5 359,-0.5 319,-0.5"/>
<text text-anchor="middle" x="339" y="-7.5" font-family="Helvetica,sans-Serif" font-size="10.00">glib.h</text>
</g>
<!-- Node8&#45;&gt;Node10 -->
<g id="edge9" class="edge"><title>Node8&#45;&gt;Node10</title>
<path fill="none" stroke="midnightblue" d="M374.785,-112.321C382.491,-99.5998 394.245,-75.3091 386,-56 380.853,-43.9469 370.719,-33.5764 361.174,-25.8389"/>
<polygon fill="midnightblue" stroke="midnightblue" points="363.172,-22.9619 353.078,-19.7409 358.96,-28.5532 363.172,-22.9619"/>
</g>
<!-- Node11&#45;&gt;Node4 -->
<g id="edge14" class="edge"><title>Node11&#45;&gt;Node4</title>
<path fill="none" stroke="midnightblue" d="M197.363,-112.444C227.738,-103.28 276.11,-88.6876 309.816,-78.5192"/>
<polygon fill="midnightblue" stroke="midnightblue" points="311.207,-81.7555 319.77,-75.5164 309.185,-75.0538 311.207,-81.7555"/>
</g>
<!-- Node11&#45;&gt;Node10 -->
<g id="edge12" class="edge"><title>Node11&#45;&gt;Node10</title>
<path fill="none" stroke="midnightblue" d="M135.29,-112.771C94.6031,-102.502 30.7616,-85.1781 24,-76 18.7278,-68.8435 18.176,-62.7151 24,-56 60.6656,-13.7242 236.588,-10.1785 308.385,-10.5387"/>
<polygon fill="midnightblue" stroke="midnightblue" points="308.559,-14.0401 318.587,-10.6204 308.615,-7.04036 308.559,-14.0401"/>
</g>
<!-- Node12 -->
<g id="node12" class="node"><title>Node12</title>
<polygon fill="white" stroke="#bfbfbf" points="33,-56.5 33,-75.5 79,-75.5 79,-56.5 33,-56.5"/>
<text text-anchor="middle" x="56" y="-63.5" font-family="Helvetica,sans-Serif" font-size="10.00">stdio.h</text>
</g>
<!-- Node11&#45;&gt;Node12 -->
<g id="edge13" class="edge"><title>Node11&#45;&gt;Node12</title>
<path fill="none" stroke="midnightblue" d="M151.095,-112.444C132.746,-103.675 103.995,-89.9355 82.9064,-79.8579"/>
<polygon fill="midnightblue" stroke="midnightblue" points="84.3532,-76.6703 73.8214,-75.5164 81.335,-82.9862 84.3532,-76.6703"/>
</g>
<!-- Node13 -->
<g id="node13" class="node"><title>Node13</title>
<g id="a_node13"><a xlink:href="coredefs_8h.html" target="_top" xlink:title="coredefs.h">
<polygon fill="white" stroke="black" points="97,-56.5 97,-75.5 161,-75.5 161,-56.5 97,-56.5"/>
<text text-anchor="middle" x="129" y="-63.5" font-family="Helvetica,sans-Serif" font-size="10.00">coredefs.h</text>
</a>
</g>
</g>
<!-- Node11&#45;&gt;Node13 -->
<g id="edge15" class="edge"><title>Node11&#45;&gt;Node13</title>
<path fill="none" stroke="midnightblue" d="M162.395,-112.083C156.745,-104.455 148.455,-93.2645 141.549,-83.9408"/>
<polygon fill="midnightblue" stroke="midnightblue" points="144.247,-81.7034 135.482,-75.7511 138.622,-85.87 144.247,-81.7034"/>
</g>
<!-- Node14&#45;&gt;Node4 -->
<g id="edge17" class="edge"><title>Node14&#45;&gt;Node4</title>
<path fill="none" stroke="midnightblue" d="M268.263,-112.324C283.221,-103.822 306.255,-90.7288 323.727,-80.7975"/>
<polygon fill="midnightblue" stroke="midnightblue" points="325.81,-83.639 332.774,-75.6545 322.351,-77.5534 325.81,-83.639"/>
</g>
<!-- Node14&#45;&gt;Node12 -->
<g id="edge19" class="edge"><title>Node14&#45;&gt;Node12</title>
<path fill="none" stroke="midnightblue" d="M221.348,-112.447C190.064,-103.977 140.585,-90.5326 88.7653,-76.197"/>
<polygon fill="midnightblue" stroke="midnightblue" points="89.6374,-72.8068 79.0659,-73.5108 87.769,-79.5529 89.6374,-72.8068"/>
</g>
<!-- Node14&#45;&gt;Node13 -->
<g id="edge20" class="edge"><title>Node14&#45;&gt;Node13</title>
<path fill="none" stroke="midnightblue" d="M233.352,-112.444C213.035,-103.596 181.097,-89.6875 157.902,-79.5865"/>
<polygon fill="midnightblue" stroke="midnightblue" points="159.122,-76.3002 148.556,-75.5164 156.327,-82.7181 159.122,-76.3002"/>
</g>
<!-- Node15 -->
<g id="node15" class="node"><title>Node15</title>
<polygon fill="white" stroke="#bfbfbf" points="179.5,-56.5 179.5,-75.5 226.5,-75.5 226.5,-56.5 179.5,-56.5"/>
<text text-anchor="middle" x="203" y="-63.5" font-family="Helvetica,sans-Serif" font-size="10.00">stdint.h</text>
</g>
<!-- Node14&#45;&gt;Node15 -->
<g id="edge18" class="edge"><title>Node14&#45;&gt;Node15</title>
<path fill="none" stroke="midnightblue" d="M244.744,-112.083C237.535,-104.298 226.89,-92.8015 218.154,-83.3665"/>
<polygon fill="midnightblue" stroke="midnightblue" points="220.465,-80.7108 211.103,-75.7511 215.329,-85.4666 220.465,-80.7108"/>
</g>
<!-- Node16 -->
<g id="node16" class="node"><title>Node16</title>
<g id="a_node16"><a xlink:href="glib__util_8h.html" target="_top" xlink:title="glib_util.h">
<polygon fill="white" stroke="black" points="244.5,-56.5 244.5,-75.5 301.5,-75.5 301.5,-56.5 244.5,-56.5"/>
<text text-anchor="middle" x="273" y="-63.5" font-family="Helvetica,sans-Serif" font-size="10.00">glib_util.h</text>
</a>
</g>
</g>
<!-- Node14&#45;&gt;Node16 -->
<g id="edge21" class="edge"><title>Node14&#45;&gt;Node16</title>
<path fill="none" stroke="midnightblue" d="M256.303,-112.083C258.982,-104.849 262.849,-94.4087 266.186,-85.3968"/>
<polygon fill="midnightblue" stroke="midnightblue" points="269.568,-86.3442 269.759,-75.7511 263.004,-83.9129 269.568,-86.3442"/>
</g>
<!-- Node16&#45;&gt;Node10 -->
<g id="edge22" class="edge"><title>Node16&#45;&gt;Node10</title>
<path fill="none" stroke="midnightblue" d="M283.604,-56.324C293.456,-48.2631 308.351,-36.0765 320.215,-26.3695"/>
<polygon fill="midnightblue" stroke="midnightblue" points="322.68,-28.8752 328.203,-19.8339 318.247,-23.4575 322.68,-28.8752"/>
</g>
<!-- Node17&#45;&gt;Node4 -->
<g id="edge25" class="edge"><title>Node17&#45;&gt;Node4</title>
<path fill="none" stroke="midnightblue" d="M426.058,-112.324C411.415,-103.822 388.866,-90.7288 371.762,-80.7975"/>
<polygon fill="midnightblue" stroke="midnightblue" points="373.31,-77.6491 362.905,-75.6545 369.795,-83.7027 373.31,-77.6491"/>
</g>
<!-- Node17&#45;&gt;Node10 -->
<g id="edge26" class="edge"><title>Node17&#45;&gt;Node10</title>
<path fill="none" stroke="midnightblue" d="M456.241,-112.475C476.319,-100.146 507.382,-76.5575 492,-56 477.268,-36.3111 409.32,-22.2801 369.097,-15.5344"/>
<polygon fill="midnightblue" stroke="midnightblue" points="369.468,-12.0488 359.036,-13.9017 368.346,-18.9584 369.468,-12.0488"/>
</g>
<!-- Node18 -->
<g id="node18" class="node"><title>Node18</title>
<polygon fill="white" stroke="#bfbfbf" points="539.5,-56.5 539.5,-75.5 590.5,-75.5 590.5,-56.5 539.5,-56.5"/>
<text text-anchor="middle" x="565" y="-63.5" font-family="Helvetica,sans-Serif" font-size="10.00">config.h</text>
</g>
<!-- Node17&#45;&gt;Node18 -->
<g id="edge24" class="edge"><title>Node17&#45;&gt;Node18</title>
<path fill="none" stroke="midnightblue" d="M460.648,-112.444C480.965,-103.596 512.903,-89.6875 536.098,-79.5865"/>
<polygon fill="midnightblue" stroke="midnightblue" points="537.673,-82.7181 545.444,-75.5164 534.878,-76.3002 537.673,-82.7181"/>
</g>
</g>
</svg>
