<?xml version="1.0" encoding="UTF-8" standalone="no"?>
<!DOCTYPE svg PUBLIC "-//W3C//DTD SVG 1.1//EN"
 "http://www.w3.org/Graphics/SVG/1.1/DTD/svg11.dtd">
<!-- Generated by graphviz version 2.38.0 (20140413.2041)
 -->
<!-- Title: fsim_report_error_table Pages: 1 -->
<svg width="338pt" height="142pt"
 viewBox="0.00 0.00 338.00 142.00" xmlns="http://www.w3.org/2000/svg" xmlns:xlink="http://www.w3.org/1999/xlink">
<g id="graph0" class="graph" transform="scale(1 1) rotate(0) translate(4 138)">
<title>fsim_report_error_table</title>
<polygon fill="white" stroke="none" points="-4,4 -4,-138 334,-138 334,4 -4,4"/>
<!-- Node1 -->
<g id="node1" class="node"><title>Node1</title>
<polygon fill="#bfbfbf" stroke="black" points="0,-57.5 0,-76.5 119,-76.5 119,-57.5 0,-57.5"/>
<text text-anchor="middle" x="59.5" y="-64.5" font-family="Helvetica,sans-Serif" font-size="10.00">fsim_report_error_table</text>
</g>
<!-- Node2 -->
<g id="node2" class="node"><title>Node2</title>
<g id="a_node2"><a xlink:href="string__util_8c.html#a1ecb7458987387bfab6da137cdebc4cc" target="_top" xlink:title="bool_repr">
<polygon fill="white" stroke="black" points="165,-114.5 165,-133.5 224,-133.5 224,-114.5 165,-114.5"/>
<text text-anchor="middle" x="194.5" y="-121.5" font-family="Helvetica,sans-Serif" font-size="10.00">bool_repr</text>
</a>
</g>
</g>
<!-- Node1&#45;&gt;Node2 -->
<g id="edge1" class="edge"><title>Node1&#45;&gt;Node2</title>
<path fill="none" stroke="midnightblue" d="M82.7612,-76.5405C104.435,-85.8294 137.584,-100.036 161.967,-110.486"/>
<polygon fill="midnightblue" stroke="midnightblue" points="160.596,-113.706 171.166,-114.428 163.353,-107.272 160.596,-113.706"/>
</g>
<!-- Node3 -->
<g id="node3" class="node"><title>Node3</title>
<g id="a_node3"><a xlink:href="report__util_8c.html#ae58dfa6adb2e9f1dacce17f7b0732f26" target="_top" xlink:title="rpt_vstring">
<polygon fill="white" stroke="black" points="163.5,-76.5 163.5,-95.5 225.5,-95.5 225.5,-76.5 163.5,-76.5"/>
<text text-anchor="middle" x="194.5" y="-83.5" font-family="Helvetica,sans-Serif" font-size="10.00">rpt_vstring</text>
</a>
</g>
</g>
<!-- Node1&#45;&gt;Node3 -->
<g id="edge2" class="edge"><title>Node1&#45;&gt;Node3</title>
<path fill="none" stroke="midnightblue" d="M119.223,-75.389C130.719,-77.0313 142.529,-78.7185 153.254,-80.2506"/>
<polygon fill="midnightblue" stroke="midnightblue" points="152.765,-83.7161 163.159,-81.6656 153.755,-76.7865 152.765,-83.7161"/>
</g>
<!-- Node4 -->
<g id="node4" class="node"><title>Node4</title>
<g id="a_node4"><a xlink:href="string__util_8c.html#a4dfc4ef4b6b3eefba2c4df04dbe7cde2" target="_top" xlink:title="str_starts_with">
<polygon fill="white" stroke="black" points="155,-38.5 155,-57.5 234,-57.5 234,-38.5 155,-38.5"/>
<text text-anchor="middle" x="194.5" y="-45.5" font-family="Helvetica,sans-Serif" font-size="10.00">str_starts_with</text>
</a>
</g>
</g>
<!-- Node1&#45;&gt;Node4 -->
<g id="edge3" class="edge"><title>Node1&#45;&gt;Node4</title>
<path fill="none" stroke="midnightblue" d="M119.223,-58.611C127.831,-57.3813 136.616,-56.1263 144.989,-54.9302"/>
<polygon fill="midnightblue" stroke="midnightblue" points="145.554,-58.3851 154.958,-53.506 144.564,-51.4554 145.554,-58.3851"/>
</g>
<!-- Node6 -->
<g id="node6" class="node"><title>Node6</title>
<g id="a_node6"><a xlink:href="string__util_8c.html#a421e5f914841061096ef1977d1501b32" target="_top" xlink:title="streq">
<polygon fill="white" stroke="black" points="175,-0.5 175,-19.5 214,-19.5 214,-0.5 175,-0.5"/>
<text text-anchor="middle" x="194.5" y="-7.5" font-family="Helvetica,sans-Serif" font-size="10.00">streq</text>
</a>
</g>
</g>
<!-- Node1&#45;&gt;Node6 -->
<g id="edge5" class="edge"><title>Node1&#45;&gt;Node6</title>
<path fill="none" stroke="midnightblue" d="M82.7612,-57.4595C105.379,-47.7661 140.493,-32.7174 165.101,-22.1709"/>
<polygon fill="midnightblue" stroke="midnightblue" points="166.802,-25.2502 174.614,-18.0939 164.044,-18.8161 166.802,-25.2502"/>
</g>
<!-- Node5 -->
<g id="node5" class="node"><title>Node5</title>
<g id="a_node5"><a xlink:href="string__util_8c.html#a826e3e282995992b9490f9f5830b9f60" target="_top" xlink:title="is_abbrev">
<polygon fill="white" stroke="black" points="270,-38.5 270,-57.5 330,-57.5 330,-38.5 270,-38.5"/>
<text text-anchor="middle" x="300" y="-45.5" font-family="Helvetica,sans-Serif" font-size="10.00">is_abbrev</text>
</a>
</g>
</g>
<!-- Node4&#45;&gt;Node5 -->
<g id="edge4" class="edge"><title>Node4&#45;&gt;Node5</title>
<path fill="none" stroke="midnightblue" d="M234.04,-48C242.364,-48 251.178,-48 259.537,-48"/>
<polygon fill="midnightblue" stroke="midnightblue" points="259.812,-51.5001 269.812,-48 259.812,-44.5001 259.812,-51.5001"/>
</g>
</g>
</svg>
