<?xml version="1.0" encoding="UTF-8" standalone="no"?>
<!DOCTYPE svg PUBLIC "-//W3C//DTD SVG 1.1//EN"
 "http://www.w3.org/Graphics/SVG/1.1/DTD/svg11.dtd">
<!-- Generated by graphviz version 2.38.0 (20140413.2041)
 -->
<!-- Title: file_util.h Pages: 1 -->
<svg width="324pt" height="84pt"
 viewBox="0.00 0.00 323.50 84.00" xmlns="http://www.w3.org/2000/svg" xmlns:xlink="http://www.w3.org/1999/xlink">
<g id="graph0" class="graph" transform="scale(1 1) rotate(0) translate(4 80)">
<title>file_util.h</title>
<polygon fill="white" stroke="none" points="-4,4 -4,-80 319.5,-80 319.5,4 -4,4"/>
<!-- Node1 -->
<g id="node1" class="node"><title>Node1</title>
<polygon fill="#bfbfbf" stroke="black" points="140,-56.5 140,-75.5 194,-75.5 194,-56.5 140,-56.5"/>
<text text-anchor="middle" x="167" y="-63.5" font-family="Helvetica,sans-Serif" font-size="10.00">file_util.h</text>
</g>
<!-- Node2 -->
<g id="node2" class="node"><title>Node2</title>
<g id="a_node2"><a xlink:href="device__id__util_8c.html" target="_top" xlink:title="device_id_util.c">
<polygon fill="white" stroke="black" points="0,-0.5 0,-19.5 86,-19.5 86,-0.5 0,-0.5"/>
<text text-anchor="middle" x="43" y="-7.5" font-family="Helvetica,sans-Serif" font-size="10.00">device_id_util.c</text>
</a>
</g>
</g>
<!-- Node1&#45;&gt;Node2 -->
<g id="edge1" class="edge"><title>Node1&#45;&gt;Node2</title>
<path fill="none" stroke="midnightblue" d="M137.993,-52.3678C114.771,-42.2553 82.8375,-28.3486 62.5562,-19.5164"/>
<polygon fill="midnightblue" stroke="midnightblue" points="136.786,-55.6597 147.352,-56.4435 139.581,-49.2419 136.786,-55.6597"/>
</g>
<!-- Node3 -->
<g id="node3" class="node"><title>Node3</title>
<g id="a_node3"><a xlink:href="failsim_8c.html" target="_top" xlink:title="failsim.c">
<polygon fill="white" stroke="black" points="104.5,-0.5 104.5,-19.5 157.5,-19.5 157.5,-0.5 104.5,-0.5"/>
<text text-anchor="middle" x="131" y="-7.5" font-family="Helvetica,sans-Serif" font-size="10.00">failsim.c</text>
</a>
</g>
</g>
<!-- Node1&#45;&gt;Node3 -->
<g id="edge2" class="edge"><title>Node1&#45;&gt;Node3</title>
<path fill="none" stroke="midnightblue" d="M155.377,-47.5656C149.183,-38.2747 141.832,-27.2484 136.834,-19.7511"/>
<polygon fill="midnightblue" stroke="midnightblue" points="152.596,-49.7039 161.055,-56.083 158.42,-45.821 152.596,-49.7039"/>
</g>
<!-- Node4 -->
<g id="node4" class="node"><title>Node4</title>
<g id="a_node4"><a xlink:href="file__util_8c.html" target="_top" xlink:title="file_util.c">
<polygon fill="white" stroke="black" points="176,-0.5 176,-19.5 230,-19.5 230,-0.5 176,-0.5"/>
<text text-anchor="middle" x="203" y="-7.5" font-family="Helvetica,sans-Serif" font-size="10.00">file_util.c</text>
</a>
</g>
</g>
<!-- Node1&#45;&gt;Node4 -->
<g id="edge3" class="edge"><title>Node1&#45;&gt;Node4</title>
<path fill="none" stroke="midnightblue" d="M178.623,-47.5656C184.817,-38.2747 192.168,-27.2484 197.166,-19.7511"/>
<polygon fill="midnightblue" stroke="midnightblue" points="175.58,-45.821 172.945,-56.083 181.404,-49.7039 175.58,-45.821"/>
</g>
<!-- Node5 -->
<g id="node5" class="node"><title>Node5</title>
<g id="a_node5"><a xlink:href="report__util_8c.html" target="_top" xlink:title="report_util.c">
<polygon fill="white" stroke="black" points="248.5,-0.5 248.5,-19.5 315.5,-19.5 315.5,-0.5 248.5,-0.5"/>
<text text-anchor="middle" x="282" y="-7.5" font-family="Helvetica,sans-Serif" font-size="10.00">report_util.c</text>
</a>
</g>
</g>
<!-- Node1&#45;&gt;Node5 -->
<g id="edge4" class="edge"><title>Node1&#45;&gt;Node5</title>
<path fill="none" stroke="midnightblue" d="M194.481,-52.096C215.966,-42.0073 245.222,-28.2697 263.863,-19.5164"/>
<polygon fill="midnightblue" stroke="midnightblue" points="192.786,-49.025 185.222,-56.4435 195.762,-55.3612 192.786,-49.025"/>
</g>
</g>
</svg>
