<?xml version="1.0" encoding="UTF-8" standalone="no"?>
<!DOCTYPE svg PUBLIC "-//W3C//DTD SVG 1.1//EN"
 "http://www.w3.org/Graphics/SVG/1.1/DTD/svg11.dtd">
<!-- Generated by graphviz version 2.38.0 (20140413.2041)
 -->
<!-- Title: file_util.h Pages: 1 -->
<svg width="191pt" height="84pt"
 viewBox="0.00 0.00 191.00 84.00" xmlns="http://www.w3.org/2000/svg" xmlns:xlink="http://www.w3.org/1999/xlink">
<g id="graph0" class="graph" transform="scale(1 1) rotate(0) translate(4 80)">
<title>file_util.h</title>
<polygon fill="white" stroke="none" points="-4,4 -4,-80 187,-80 187,4 -4,4"/>
<!-- Node1 -->
<g id="node1" class="node"><title>Node1</title>
<polygon fill="#bfbfbf" stroke="black" points="60.5,-56.5 60.5,-75.5 114.5,-75.5 114.5,-56.5 60.5,-56.5"/>
<text text-anchor="middle" x="87.5" y="-63.5" font-family="Helvetica,sans-Serif" font-size="10.00">file_util.h</text>
</g>
<!-- Node2 -->
<g id="node2" class="node"><title>Node2</title>
<polygon fill="white" stroke="#bfbfbf" points="0,-0.5 0,-19.5 49,-19.5 49,-0.5 0,-0.5"/>
<text text-anchor="middle" x="24.5" y="-7.5" font-family="Helvetica,sans-Serif" font-size="10.00">dirent.h</text>
</g>
<!-- Node1&#45;&gt;Node2 -->
<g id="edge1" class="edge"><title>Node1&#45;&gt;Node2</title>
<path fill="none" stroke="midnightblue" d="M77.378,-56.324C67.9736,-48.2631 53.7559,-36.0765 42.431,-26.3695"/>
<polygon fill="midnightblue" stroke="midnightblue" points="44.6766,-23.6844 34.8062,-19.8339 40.121,-28.9993 44.6766,-23.6844"/>
</g>
<!-- Node3 -->
<g id="node3" class="node"><title>Node3</title>
<polygon fill="white" stroke="#bfbfbf" points="67.5,-0.5 67.5,-19.5 107.5,-19.5 107.5,-0.5 67.5,-0.5"/>
<text text-anchor="middle" x="87.5" y="-7.5" font-family="Helvetica,sans-Serif" font-size="10.00">glib.h</text>
</g>
<!-- Node1&#45;&gt;Node3 -->
<g id="edge2" class="edge"><title>Node1&#45;&gt;Node3</title>
<path fill="none" stroke="midnightblue" d="M87.5,-56.083C87.5,-49.0059 87.5,-38.8611 87.5,-29.9865"/>
<polygon fill="midnightblue" stroke="midnightblue" points="91.0001,-29.751 87.5,-19.7511 84.0001,-29.7511 91.0001,-29.751"/>
</g>
<!-- Node4 -->
<g id="node4" class="node"><title>Node4</title>
<polygon fill="white" stroke="#bfbfbf" points="126,-0.5 126,-19.5 183,-19.5 183,-0.5 126,-0.5"/>
<text text-anchor="middle" x="154.5" y="-7.5" font-family="Helvetica,sans-Serif" font-size="10.00">stdbool.h</text>
</g>
<!-- Node1&#45;&gt;Node4 -->
<g id="edge3" class="edge"><title>Node1&#45;&gt;Node4</title>
<path fill="none" stroke="midnightblue" d="M98.2647,-56.324C108.266,-48.2631 123.387,-36.0765 135.43,-26.3695"/>
<polygon fill="midnightblue" stroke="midnightblue" points="137.95,-28.8343 143.539,-19.8339 133.557,-23.3841 137.95,-28.8343"/>
</g>
</g>
</svg>
