<?xml version="1.0" encoding="UTF-8" standalone="no"?>
<!DOCTYPE svg PUBLIC "-//W3C//DTD SVG 1.1//EN"
 "http://www.w3.org/Graphics/SVG/1.1/DTD/svg11.dtd">
<!-- Generated by graphviz version 2.38.0 (20140413.2041)
 -->
<!-- Title: join_string_g_ptr_array Pages: 1 -->
<svg width="265pt" height="66pt"
 viewBox="0.00 0.00 265.00 66.00" xmlns="http://www.w3.org/2000/svg" xmlns:xlink="http://www.w3.org/1999/xlink">
<g id="graph0" class="graph" transform="scale(1 1) rotate(0) translate(4 62)">
<title>join_string_g_ptr_array</title>
<polygon fill="white" stroke="none" points="-4,4 -4,-62 261,-62 261,4 -4,4"/>
<!-- Node1 -->
<g id="node1" class="node"><title>Node1</title>
<polygon fill="#bfbfbf" stroke="black" points="0,-19.5 0,-38.5 117,-38.5 117,-19.5 0,-19.5"/>
<text text-anchor="middle" x="58.5" y="-26.5" font-family="Helvetica,sans-Serif" font-size="10.00">join_string_g_ptr_array</text>
</g>
<!-- Node2 -->
<g id="node2" class="node"><title>Node2</title>
<g id="a_node2"><a xlink:href="string__util_8c.html#aabd96cb951052d0f67af429b3cbca21c" target="_top" xlink:title="g_ptr_array_to_ntsa">
<polygon fill="white" stroke="black" points="153,-38.5 153,-57.5 257,-57.5 257,-38.5 153,-38.5"/>
<text text-anchor="middle" x="205" y="-45.5" font-family="Helvetica,sans-Serif" font-size="10.00">g_ptr_array_to_ntsa</text>
</a>
</g>
</g>
<!-- Node1&#45;&gt;Node2 -->
<g id="edge1" class="edge"><title>Node1&#45;&gt;Node2</title>
<path fill="none" stroke="midnightblue" d="M117.025,-36.5639C125.511,-37.6796 134.279,-38.8325 142.835,-39.9575"/>
<polygon fill="midnightblue" stroke="midnightblue" points="142.38,-43.4278 152.751,-41.2614 143.293,-36.4875 142.38,-43.4278"/>
</g>
<!-- Node3 -->
<g id="node3" class="node"><title>Node3</title>
<g id="a_node3"><a xlink:href="string__util_8c.html#ac8bc94318a2f5ac131bfe91dcee400bf" target="_top" xlink:title="strjoin">
<polygon fill="white" stroke="black" points="183.5,-0.5 183.5,-19.5 226.5,-19.5 226.5,-0.5 183.5,-0.5"/>
<text text-anchor="middle" x="205" y="-7.5" font-family="Helvetica,sans-Serif" font-size="10.00">strjoin</text>
</a>
</g>
</g>
<!-- Node1&#45;&gt;Node3 -->
<g id="edge2" class="edge"><title>Node1&#45;&gt;Node3</title>
<path fill="none" stroke="midnightblue" d="M117.025,-21.4361C136.265,-18.9064 156.959,-16.1853 173.333,-14.0323"/>
<polygon fill="midnightblue" stroke="midnightblue" points="173.952,-17.4811 183.411,-12.7073 173.04,-10.5409 173.952,-17.4811"/>
</g>
</g>
</svg>
