<?xml version="1.0" encoding="UTF-8" standalone="no"?>
<!DOCTYPE svg PUBLIC "-//W3C//DTD SVG 1.1//EN"
 "http://www.w3.org/Graphics/SVG/1.1/DTD/svg11.dtd">
<!-- Generated by graphviz version 2.38.0 (20140413.2041)
 -->
<!-- Title: glib_string_util.c Pages: 1 -->
<svg width="440pt" height="196pt"
 viewBox="0.00 0.00 439.50 196.00" xmlns="http://www.w3.org/2000/svg" xmlns:xlink="http://www.w3.org/1999/xlink">
<g id="graph0" class="graph" transform="scale(1 1) rotate(0) translate(4 192)">
<title>glib_string_util.c</title>
<polygon fill="white" stroke="none" points="-4,4 -4,-192 435.5,-192 435.5,4 -4,4"/>
<!-- Node1 -->
<g id="node1" class="node"><title>Node1</title>
<polygon fill="#bfbfbf" stroke="black" points="166.5,-168.5 166.5,-187.5 252.5,-187.5 252.5,-168.5 166.5,-168.5"/>
<text text-anchor="middle" x="209.5" y="-175.5" font-family="Helvetica,sans-Serif" font-size="10.00">glib_string_util.c</text>
</g>
<!-- Node2 -->
<g id="node2" class="node"><title>Node2</title>
<polygon fill="white" stroke="#bfbfbf" points="0,-56.5 0,-75.5 57,-75.5 57,-56.5 0,-56.5"/>
<text text-anchor="middle" x="28.5" y="-63.5" font-family="Helvetica,sans-Serif" font-size="10.00">stdbool.h</text>
</g>
<!-- Node1&#45;&gt;Node2 -->
<g id="edge1" class="edge"><title>Node1&#45;&gt;Node2</title>
<path fill="none" stroke="midnightblue" d="M184.109,-168.396C162.398,-160.492 130.752,-147.647 105.5,-132 82.4129,-117.695 59.0092,-96.8346 44.1638,-82.6313"/>
<polygon fill="midnightblue" stroke="midnightblue" points="46.4584,-79.9803 36.8531,-75.5092 41.5737,-84.9943 46.4584,-79.9803"/>
</g>
<!-- Node3 -->
<g id="node3" class="node"><title>Node3</title>
<polygon fill="white" stroke="#bfbfbf" points="75.5,-56.5 75.5,-75.5 121.5,-75.5 121.5,-56.5 75.5,-56.5"/>
<text text-anchor="middle" x="98.5" y="-63.5" font-family="Helvetica,sans-Serif" font-size="10.00">stdio.h</text>
</g>
<!-- Node1&#45;&gt;Node3 -->
<g id="edge2" class="edge"><title>Node1&#45;&gt;Node3</title>
<path fill="none" stroke="midnightblue" d="M179.761,-168.485C160.439,-161.546 136.043,-149.919 120.5,-132 109.166,-118.934 103.612,-99.7811 100.927,-85.6486"/>
<polygon fill="midnightblue" stroke="midnightblue" points="104.357,-84.9311 99.3333,-75.603 97.4434,-86.0279 104.357,-84.9311"/>
</g>
<!-- Node4 -->
<g id="node4" class="node"><title>Node4</title>
<polygon fill="white" stroke="#bfbfbf" points="318,-112.5 318,-131.5 365,-131.5 365,-112.5 318,-112.5"/>
<text text-anchor="middle" x="341.5" y="-119.5" font-family="Helvetica,sans-Serif" font-size="10.00">stdlib.h</text>
</g>
<!-- Node1&#45;&gt;Node4 -->
<g id="edge3" class="edge"><title>Node1&#45;&gt;Node4</title>
<path fill="none" stroke="midnightblue" d="M230.416,-168.444C252.236,-159.517 286.65,-145.439 311.392,-135.317"/>
<polygon fill="midnightblue" stroke="midnightblue" points="312.752,-138.542 320.682,-131.516 310.101,-132.063 312.752,-138.542"/>
</g>
<!-- Node5 -->
<g id="node5" class="node"><title>Node5</title>
<polygon fill="white" stroke="#bfbfbf" points="383.5,-112.5 383.5,-131.5 431.5,-131.5 431.5,-112.5 383.5,-112.5"/>
<text text-anchor="middle" x="407.5" y="-119.5" font-family="Helvetica,sans-Serif" font-size="10.00">string.h</text>
</g>
<!-- Node1&#45;&gt;Node5 -->
<g id="edge4" class="edge"><title>Node1&#45;&gt;Node5</title>
<path fill="none" stroke="midnightblue" d="M240.874,-168.444C277.055,-158.576 336.32,-142.413 373.555,-132.258"/>
<polygon fill="midnightblue" stroke="midnightblue" points="374.709,-135.571 383.435,-129.563 372.867,-128.818 374.709,-135.571"/>
</g>
<!-- Node6 -->
<g id="node6" class="node"><title>Node6</title>
<g id="a_node6"><a xlink:href="string__util_8h.html" target="_top" xlink:title="string_util.h">
<polygon fill="white" stroke="black" points="130,-112.5 130,-131.5 195,-131.5 195,-112.5 130,-112.5"/>
<text text-anchor="middle" x="162.5" y="-119.5" font-family="Helvetica,sans-Serif" font-size="10.00">string_util.h</text>
</a>
</g>
</g>
<!-- Node1&#45;&gt;Node6 -->
<g id="edge5" class="edge"><title>Node1&#45;&gt;Node6</title>
<path fill="none" stroke="midnightblue" d="M201.739,-168.083C194.963,-160.298 184.957,-148.801 176.745,-139.367"/>
<polygon fill="midnightblue" stroke="midnightblue" points="179.322,-136.996 170.117,-131.751 174.042,-141.592 179.322,-136.996"/>
</g>
<!-- Node11 -->
<g id="node11" class="node"><title>Node11</title>
<g id="a_node11"><a xlink:href="glib__string__util_8h.html" target="_top" xlink:title="glib_string_util.h">
<polygon fill="white" stroke="black" points="213.5,-112.5 213.5,-131.5 299.5,-131.5 299.5,-112.5 213.5,-112.5"/>
<text text-anchor="middle" x="256.5" y="-119.5" font-family="Helvetica,sans-Serif" font-size="10.00">glib_string_util.h</text>
</a>
</g>
</g>
<!-- Node1&#45;&gt;Node11 -->
<g id="edge12" class="edge"><title>Node1&#45;&gt;Node11</title>
<path fill="none" stroke="midnightblue" d="M217.261,-168.083C224.037,-160.298 234.043,-148.801 242.255,-139.367"/>
<polygon fill="midnightblue" stroke="midnightblue" points="244.958,-141.592 248.883,-131.751 239.678,-136.996 244.958,-141.592"/>
</g>
<!-- Node6&#45;&gt;Node2 -->
<g id="edge6" class="edge"><title>Node6&#45;&gt;Node2</title>
<path fill="none" stroke="midnightblue" d="M141.267,-112.444C119.116,-103.517 84.1813,-89.4387 59.064,-79.3168"/>
<polygon fill="midnightblue" stroke="midnightblue" points="60.2168,-76.0079 49.6334,-75.5164 57.6003,-82.5006 60.2168,-76.0079"/>
</g>
<!-- Node6&#45;&gt;Node3 -->
<g id="edge8" class="edge"><title>Node6&#45;&gt;Node3</title>
<path fill="none" stroke="midnightblue" d="M152.217,-112.324C142.664,-104.263 128.22,-92.0765 116.716,-82.3695"/>
<polygon fill="midnightblue" stroke="midnightblue" points="118.87,-79.6076 108.97,-75.8339 114.356,-84.9577 118.87,-79.6076"/>
</g>
<!-- Node7 -->
<g id="node7" class="node"><title>Node7</title>
<polygon fill="white" stroke="#bfbfbf" points="140,-56.5 140,-75.5 187,-75.5 187,-56.5 140,-56.5"/>
<text text-anchor="middle" x="163.5" y="-63.5" font-family="Helvetica,sans-Serif" font-size="10.00">stdint.h</text>
</g>
<!-- Node6&#45;&gt;Node7 -->
<g id="edge7" class="edge"><title>Node6&#45;&gt;Node7</title>
<path fill="none" stroke="midnightblue" d="M162.665,-112.083C162.796,-105.006 162.984,-94.8611 163.148,-85.9865"/>
<polygon fill="midnightblue" stroke="midnightblue" points="166.652,-85.8142 163.338,-75.7511 159.653,-85.6845 166.652,-85.8142"/>
</g>
<!-- Node8 -->
<g id="node8" class="node"><title>Node8</title>
<g id="a_node8"><a xlink:href="coredefs_8h.html" target="_top" xlink:title="coredefs.h">
<polygon fill="white" stroke="black" points="205.5,-56.5 205.5,-75.5 269.5,-75.5 269.5,-56.5 205.5,-56.5"/>
<text text-anchor="middle" x="237.5" y="-63.5" font-family="Helvetica,sans-Serif" font-size="10.00">coredefs.h</text>
</a>
</g>
</g>
<!-- Node6&#45;&gt;Node8 -->
<g id="edge9" class="edge"><title>Node6&#45;&gt;Node8</title>
<path fill="none" stroke="midnightblue" d="M174.55,-112.324C185.963,-104.107 203.331,-91.6017 216.935,-81.8069"/>
<polygon fill="midnightblue" stroke="midnightblue" points="219.16,-84.5174 225.231,-75.8339 215.07,-78.8366 219.16,-84.5174"/>
</g>
<!-- Node9 -->
<g id="node9" class="node"><title>Node9</title>
<g id="a_node9"><a xlink:href="glib__util_8h.html" target="_top" xlink:title="glib_util.h">
<polygon fill="white" stroke="black" points="288,-56.5 288,-75.5 345,-75.5 345,-56.5 288,-56.5"/>
<text text-anchor="middle" x="316.5" y="-63.5" font-family="Helvetica,sans-Serif" font-size="10.00">glib_util.h</text>
</a>
</g>
</g>
<!-- Node6&#45;&gt;Node9 -->
<g id="edge10" class="edge"><title>Node6&#45;&gt;Node9</title>
<path fill="none" stroke="midnightblue" d="M186.902,-112.444C212.697,-103.399 253.577,-89.064 282.518,-78.9158"/>
<polygon fill="midnightblue" stroke="midnightblue" points="283.934,-82.1283 292.212,-75.5164 281.618,-75.5226 283.934,-82.1283"/>
</g>
<!-- Node10 -->
<g id="node10" class="node"><title>Node10</title>
<polygon fill="white" stroke="#bfbfbf" points="324.5,-0.5 324.5,-19.5 364.5,-19.5 364.5,-0.5 324.5,-0.5"/>
<text text-anchor="middle" x="344.5" y="-7.5" font-family="Helvetica,sans-Serif" font-size="10.00">glib.h</text>
</g>
<!-- Node9&#45;&gt;Node10 -->
<g id="edge11" class="edge"><title>Node9&#45;&gt;Node10</title>
<path fill="none" stroke="midnightblue" d="M321.124,-56.083C324.956,-48.6913 330.524,-37.9533 335.265,-28.8111"/>
<polygon fill="midnightblue" stroke="midnightblue" points="338.466,-30.2398 339.962,-19.7511 332.252,-27.0175 338.466,-30.2398"/>
</g>
<!-- Node11&#45;&gt;Node10 -->
<g id="edge13" class="edge"><title>Node11&#45;&gt;Node10</title>
<path fill="none" stroke="midnightblue" d="M299.567,-112.486C319.896,-106.074 342.323,-94.9911 354.5,-76 363.438,-62.0605 359.039,-43.0532 353.546,-29.1942"/>
<polygon fill="midnightblue" stroke="midnightblue" points="356.61,-27.4713 349.335,-19.7688 350.219,-30.3267 356.61,-27.4713"/>
</g>
</g>
</svg>
