<?xml version="1.0" encoding="UTF-8" standalone="no"?>
<!DOCTYPE svg PUBLIC "-//W3C//DTD SVG 1.1//EN"
 "http://www.w3.org/Graphics/SVG/1.1/DTD/svg11.dtd">
<!-- Generated by graphviz version 2.38.0 (20140413.2041)
 -->
<!-- Title: glib_util.c Pages: 1 -->
<svg width="408pt" height="140pt"
 viewBox="0.00 0.00 407.50 140.00" xmlns="http://www.w3.org/2000/svg" xmlns:xlink="http://www.w3.org/1999/xlink">
<g id="graph0" class="graph" transform="scale(1 1) rotate(0) translate(4 136)">
<title>glib_util.c</title>
<polygon fill="white" stroke="none" points="-4,4 -4,-136 403.5,-136 403.5,4 -4,4"/>
<!-- Node1 -->
<g id="node1" class="node"><title>Node1</title>
<polygon fill="#bfbfbf" stroke="black" points="172.5,-112.5 172.5,-131.5 229.5,-131.5 229.5,-112.5 172.5,-112.5"/>
<text text-anchor="middle" x="201" y="-119.5" font-family="Helvetica,sans-Serif" font-size="10.00">glib_util.c</text>
</g>
<!-- Node2 -->
<g id="node2" class="node"><title>Node2</title>
<polygon fill="white" stroke="#bfbfbf" points="0,-56.5 0,-75.5 52,-75.5 52,-56.5 0,-56.5"/>
<text text-anchor="middle" x="26" y="-63.5" font-family="Helvetica,sans-Serif" font-size="10.00">assert.h</text>
</g>
<!-- Node1&#45;&gt;Node2 -->
<g id="edge1" class="edge"><title>Node1&#45;&gt;Node2</title>
<path fill="none" stroke="midnightblue" d="M173.271,-112.444C143.138,-103.145 94.8891,-88.2572 61.8863,-78.0735"/>
<polygon fill="midnightblue" stroke="midnightblue" points="62.7579,-74.6797 52.1704,-75.0755 60.6939,-81.3685 62.7579,-74.6797"/>
</g>
<!-- Node3 -->
<g id="node3" class="node"><title>Node3</title>
<polygon fill="white" stroke="#bfbfbf" points="70.5,-56.5 70.5,-75.5 127.5,-75.5 127.5,-56.5 70.5,-56.5"/>
<text text-anchor="middle" x="99" y="-63.5" font-family="Helvetica,sans-Serif" font-size="10.00">stdbool.h</text>
</g>
<!-- Node1&#45;&gt;Node3 -->
<g id="edge2" class="edge"><title>Node1&#45;&gt;Node3</title>
<path fill="none" stroke="midnightblue" d="M184.612,-112.324C168.329,-103.703 143.133,-90.3643 124.284,-80.3855"/>
<polygon fill="midnightblue" stroke="midnightblue" points="125.823,-77.2402 115.347,-75.6545 122.548,-83.4267 125.823,-77.2402"/>
</g>
<!-- Node4 -->
<g id="node4" class="node"><title>Node4</title>
<polygon fill="white" stroke="#bfbfbf" points="146,-56.5 146,-75.5 192,-75.5 192,-56.5 146,-56.5"/>
<text text-anchor="middle" x="169" y="-63.5" font-family="Helvetica,sans-Serif" font-size="10.00">stdio.h</text>
</g>
<!-- Node1&#45;&gt;Node4 -->
<g id="edge3" class="edge"><title>Node1&#45;&gt;Node4</title>
<path fill="none" stroke="midnightblue" d="M195.716,-112.083C191.289,-104.613 184.837,-93.7244 179.382,-84.5199"/>
<polygon fill="midnightblue" stroke="midnightblue" points="182.295,-82.5697 174.186,-75.7511 176.273,-86.1383 182.295,-82.5697"/>
</g>
<!-- Node5 -->
<g id="node5" class="node"><title>Node5</title>
<polygon fill="white" stroke="#bfbfbf" points="210.5,-56.5 210.5,-75.5 257.5,-75.5 257.5,-56.5 210.5,-56.5"/>
<text text-anchor="middle" x="234" y="-63.5" font-family="Helvetica,sans-Serif" font-size="10.00">stdlib.h</text>
</g>
<!-- Node1&#45;&gt;Node5 -->
<g id="edge4" class="edge"><title>Node1&#45;&gt;Node5</title>
<path fill="none" stroke="midnightblue" d="M206.449,-112.083C211.014,-104.613 217.668,-93.7244 223.293,-84.5199"/>
<polygon fill="midnightblue" stroke="midnightblue" points="226.424,-86.109 228.652,-75.7511 220.451,-82.4588 226.424,-86.109"/>
</g>
<!-- Node6 -->
<g id="node6" class="node"><title>Node6</title>
<polygon fill="white" stroke="#bfbfbf" points="276,-56.5 276,-75.5 324,-75.5 324,-56.5 276,-56.5"/>
<text text-anchor="middle" x="300" y="-63.5" font-family="Helvetica,sans-Serif" font-size="10.00">string.h</text>
</g>
<!-- Node1&#45;&gt;Node6 -->
<g id="edge5" class="edge"><title>Node1&#45;&gt;Node6</title>
<path fill="none" stroke="midnightblue" d="M216.906,-112.324C232.638,-103.743 256.942,-90.486 275.209,-80.5224"/>
<polygon fill="midnightblue" stroke="midnightblue" points="277.03,-83.5157 284.133,-75.6545 273.678,-77.3704 277.03,-83.5157"/>
</g>
<!-- Node7 -->
<g id="node7" class="node"><title>Node7</title>
<g id="a_node7"><a xlink:href="glib__util_8h.html" target="_top" xlink:title="glib_util.h">
<polygon fill="white" stroke="black" points="342.5,-56.5 342.5,-75.5 399.5,-75.5 399.5,-56.5 342.5,-56.5"/>
<text text-anchor="middle" x="371" y="-63.5" font-family="Helvetica,sans-Serif" font-size="10.00">glib_util.h</text>
</a>
</g>
</g>
<!-- Node1&#45;&gt;Node7 -->
<g id="edge6" class="edge"><title>Node1&#45;&gt;Node7</title>
<path fill="none" stroke="midnightblue" d="M227.937,-112.444C256.66,-103.32 302.329,-88.8133 334.321,-78.6509"/>
<polygon fill="midnightblue" stroke="midnightblue" points="335.718,-81.8797 344.189,-75.5164 333.599,-75.2081 335.718,-81.8797"/>
</g>
<!-- Node8 -->
<g id="node8" class="node"><title>Node8</title>
<polygon fill="white" stroke="#bfbfbf" points="351,-0.5 351,-19.5 391,-19.5 391,-0.5 351,-0.5"/>
<text text-anchor="middle" x="371" y="-7.5" font-family="Helvetica,sans-Serif" font-size="10.00">glib.h</text>
</g>
<!-- Node7&#45;&gt;Node8 -->
<g id="edge7" class="edge"><title>Node7&#45;&gt;Node8</title>
<path fill="none" stroke="midnightblue" d="M371,-56.083C371,-49.0059 371,-38.8611 371,-29.9865"/>
<polygon fill="midnightblue" stroke="midnightblue" points="374.5,-29.751 371,-19.7511 367.5,-29.7511 374.5,-29.751"/>
</g>
</g>
</svg>
