<?xml version="1.0" encoding="UTF-8" standalone="no"?>
<!DOCTYPE svg PUBLIC "-//W3C//DTD SVG 1.1//EN"
 "http://www.w3.org/Graphics/SVG/1.1/DTD/svg11.dtd">
<!-- Generated by graphviz version 2.38.0 (20140413.2041)
 -->
<!-- Title: report_drmModeRes Pages: 1 -->
<svg width="722pt" height="294pt"
 viewBox="0.00 0.00 722.00 294.00" xmlns="http://www.w3.org/2000/svg" xmlns:xlink="http://www.w3.org/1999/xlink">
<g id="graph0" class="graph" transform="scale(1 1) rotate(0) translate(4 290)">
<title>report_drmModeRes</title>
<polygon fill="white" stroke="none" points="-4,4 -4,-290 718,-290 718,4 -4,4"/>
<!-- Node1 -->
<g id="node1" class="node"><title>Node1</title>
<polygon fill="#bfbfbf" stroke="black" points="0,-161.5 0,-180.5 109,-180.5 109,-161.5 0,-161.5"/>
<text text-anchor="middle" x="54.5" y="-168.5" font-family="Helvetica,sans-Serif" font-size="10.00">report_drmModeRes</text>
</g>
<!-- Node2 -->
<g id="node2" class="node"><title>Node2</title>
<g id="a_node2"><a xlink:href="libdrm__util_8c.html#a365c2388c1f0b5ab69a827a4ae07fb60" target="_top" xlink:title="connector_status_name">
<polygon fill="white" stroke="black" points="145,-266.5 145,-285.5 268,-285.5 268,-266.5 145,-266.5"/>
<text text-anchor="middle" x="206.5" y="-273.5" font-family="Helvetica,sans-Serif" font-size="10.00">connector_status_name</text>
</a>
</g>
</g>
<!-- Node1&#45;&gt;Node2 -->
<g id="edge1" class="edge"><title>Node1&#45;&gt;Node2</title>
<path fill="none" stroke="midnightblue" d="M63.0313,-180.76C77.1977,-198.474 109.59,-236.02 145,-257 148.623,-259.147 152.514,-261.076 156.512,-262.805"/>
<polygon fill="midnightblue" stroke="midnightblue" points="155.37,-266.116 165.959,-266.484 157.911,-259.593 155.37,-266.116"/>
</g>
<!-- Node3 -->
<g id="node3" class="node"><title>Node3</title>
<g id="a_node3"><a xlink:href="libdrm__util_8c.html#a579d919bbbea389f8194f5b728a52ee5" target="_top" xlink:title="connector_type_name">
<polygon fill="white" stroke="black" points="148.5,-228.5 148.5,-247.5 264.5,-247.5 264.5,-228.5 148.5,-228.5"/>
<text text-anchor="middle" x="206.5" y="-235.5" font-family="Helvetica,sans-Serif" font-size="10.00">connector_type_name</text>
</a>
</g>
</g>
<!-- Node1&#45;&gt;Node3 -->
<g id="edge2" class="edge"><title>Node1&#45;&gt;Node3</title>
<path fill="none" stroke="midnightblue" d="M74.5243,-180.62C92.5203,-189.605 120.367,-203.212 145,-214 153.348,-217.656 162.44,-221.39 170.98,-224.79"/>
<polygon fill="midnightblue" stroke="midnightblue" points="169.73,-228.06 180.317,-228.466 172.294,-221.546 169.73,-228.06"/>
</g>
<!-- Node4 -->
<g id="node4" class="node"><title>Node4</title>
<g id="a_node4"><a xlink:href="libdrm__util_8c.html#ae28fbf75d18faf2086044adc421c57fc" target="_top" xlink:title="report_property_value">
<polygon fill="white" stroke="black" points="150,-133.5 150,-152.5 263,-152.5 263,-133.5 150,-133.5"/>
<text text-anchor="middle" x="206.5" y="-140.5" font-family="Helvetica,sans-Serif" font-size="10.00">report_property_value</text>
</a>
</g>
</g>
<!-- Node1&#45;&gt;Node4 -->
<g id="edge3" class="edge"><title>Node1&#45;&gt;Node4</title>
<path fill="none" stroke="midnightblue" d="M106.702,-161.442C118.89,-159.167 132.014,-156.717 144.589,-154.37"/>
<polygon fill="midnightblue" stroke="midnightblue" points="145.341,-157.79 154.529,-152.515 144.056,-150.909 145.341,-157.79"/>
</g>
<!-- Node10 -->
<g id="node10" class="node"><title>Node10</title>
<g id="a_node10"><a xlink:href="report__util_8c.html#ae58dfa6adb2e9f1dacce17f7b0732f26" target="_top" xlink:title="rpt_vstring">
<polygon fill="white" stroke="black" points="497.5,-76.5 497.5,-95.5 559.5,-95.5 559.5,-76.5 497.5,-76.5"/>
<text text-anchor="middle" x="528.5" y="-83.5" font-family="Helvetica,sans-Serif" font-size="10.00">rpt_vstring</text>
</a>
</g>
</g>
<!-- Node1&#45;&gt;Node10 -->
<g id="edge18" class="edge"><title>Node1&#45;&gt;Node10</title>
<path fill="none" stroke="midnightblue" d="M71.2977,-161.397C109.513,-138.853 210.694,-83.2194 304,-67 369.244,-55.6587 387.293,-58.7533 453,-67 464.357,-68.4254 476.464,-71.0276 487.545,-73.8584"/>
<polygon fill="midnightblue" stroke="midnightblue" points="486.817,-77.2867 497.382,-76.4952 488.629,-70.5254 486.817,-77.2867"/>
</g>
<!-- Node12 -->
<g id="node12" class="node"><title>Node12</title>
<g id="a_node12"><a xlink:href="report__util_8c.html#a7c7aaf851ba8d9da017ed521f0fcb504" target="_top" xlink:title="rpt_nl">
<polygon fill="white" stroke="black" points="508.5,-190.5 508.5,-209.5 548.5,-209.5 548.5,-190.5 508.5,-190.5"/>
<text text-anchor="middle" x="528.5" y="-197.5" font-family="Helvetica,sans-Serif" font-size="10.00">rpt_nl</text>
</a>
</g>
</g>
<!-- Node1&#45;&gt;Node12 -->
<g id="edge12" class="edge"><title>Node1&#45;&gt;Node12</title>
<path fill="none" stroke="midnightblue" d="M109.185,-174.298C209.108,-180.438 420.521,-193.427 498.131,-198.196"/>
<polygon fill="midnightblue" stroke="midnightblue" points="497.973,-201.692 508.169,-198.812 498.402,-194.706 497.973,-201.692"/>
</g>
<!-- Node14 -->
<g id="node14" class="node"><title>Node14</title>
<g id="a_node14"><a xlink:href="report__util_8c.html#af5b53c7ac855765e65c7f485fb2a1193" target="_top" xlink:title="rpt_structure_loc">
<polygon fill="white" stroke="black" points="334,-0.5 334,-19.5 423,-19.5 423,-0.5 334,-0.5"/>
<text text-anchor="middle" x="378.5" y="-7.5" font-family="Helvetica,sans-Serif" font-size="10.00">rpt_structure_loc</text>
</a>
</g>
</g>
<!-- Node1&#45;&gt;Node14 -->
<g id="edge16" class="edge"><title>Node1&#45;&gt;Node14</title>
<path fill="none" stroke="midnightblue" d="M58.5627,-161.229C67.2604,-135.293 94.7865,-64.6129 145,-34 199.019,-1.06677 273.477,0.654047 323.442,-3.0346"/>
<polygon fill="midnightblue" stroke="midnightblue" points="323.459,-6.54817 333.716,-3.89454 324.043,0.427439 323.459,-6.54817"/>
</g>
<!-- Node5 -->
<g id="node5" class="node"><title>Node5</title>
<g id="a_node5"><a xlink:href="libdrm__util_8c.html#a0a134366851de213e59925f5bc459704" target="_top" xlink:title="report_drmModePropertyBlob">
<polygon fill="white" stroke="black" points="304,-152.5 304,-171.5 453,-171.5 453,-152.5 304,-152.5"/>
<text text-anchor="middle" x="378.5" y="-159.5" font-family="Helvetica,sans-Serif" font-size="10.00">report_drmModePropertyBlob</text>
</a>
</g>
</g>
<!-- Node4&#45;&gt;Node5 -->
<g id="edge4" class="edge"><title>Node4&#45;&gt;Node5</title>
<path fill="none" stroke="midnightblue" d="M263.164,-149.221C272.998,-150.32 283.428,-151.486 293.831,-152.649"/>
<polygon fill="midnightblue" stroke="midnightblue" points="293.451,-156.128 303.778,-153.76 294.228,-149.171 293.451,-156.128"/>
</g>
<!-- Node4&#45;&gt;Node10 -->
<g id="edge10" class="edge"><title>Node4&#45;&gt;Node10</title>
<path fill="none" stroke="midnightblue" d="M263.348,-135.914C313.286,-129.208 388.349,-118.216 453,-105 464.214,-102.708 476.274,-99.8192 487.356,-96.9912"/>
<polygon fill="midnightblue" stroke="midnightblue" points="488.408,-100.334 497.205,-94.4299 486.646,-93.5595 488.408,-100.334"/>
</g>
<!-- Node11 -->
<g id="node11" class="node"><title>Node11</title>
<g id="a_node11"><a xlink:href="data__structures_8c.html#a8f7799a9780b77f3d43f5a23a025e4b7" target="_top" xlink:title="sbuf_append">
<polygon fill="white" stroke="black" points="341.5,-76.5 341.5,-95.5 415.5,-95.5 415.5,-76.5 341.5,-76.5"/>
<text text-anchor="middle" x="378.5" y="-83.5" font-family="Helvetica,sans-Serif" font-size="10.00">sbuf_append</text>
</a>
</g>
</g>
<!-- Node4&#45;&gt;Node11 -->
<g id="edge11" class="edge"><title>Node4&#45;&gt;Node11</title>
<path fill="none" stroke="midnightblue" d="M235.336,-133.367C254.595,-126.73 280.826,-117.746 304,-110 315.014,-106.319 326.979,-102.384 337.993,-98.7887"/>
<polygon fill="midnightblue" stroke="midnightblue" points="339.362,-102.024 347.786,-95.5987 337.194,-95.368 339.362,-102.024"/>
</g>
<!-- Node6 -->
<g id="node6" class="node"><title>Node6</title>
<g id="a_node6"><a xlink:href="report__util_8c.html#a5cdea9095d42e1486dd5f4b45e1e2a82" target="_top" xlink:title="rpt_hex_dump">
<polygon fill="white" stroke="black" points="489,-152.5 489,-171.5 568,-171.5 568,-152.5 489,-152.5"/>
<text text-anchor="middle" x="528.5" y="-159.5" font-family="Helvetica,sans-Serif" font-size="10.00">rpt_hex_dump</text>
</a>
</g>
</g>
<!-- Node5&#45;&gt;Node6 -->
<g id="edge5" class="edge"><title>Node5&#45;&gt;Node6</title>
<path fill="none" stroke="midnightblue" d="M453.066,-162C461.738,-162 470.418,-162 478.629,-162"/>
<polygon fill="midnightblue" stroke="midnightblue" points="478.743,-165.5 488.743,-162 478.743,-158.5 478.743,-165.5"/>
</g>
<!-- Node5&#45;&gt;Node10 -->
<g id="edge9" class="edge"><title>Node5&#45;&gt;Node10</title>
<path fill="none" stroke="midnightblue" d="M415.854,-152.449C427.973,-148.662 441.347,-143.81 453,-138 472.873,-128.092 493.419,-113.356 507.887,-102.098"/>
<polygon fill="midnightblue" stroke="midnightblue" points="510.398,-104.573 516.051,-95.6118 506.044,-99.0923 510.398,-104.573"/>
</g>
<!-- Node7 -->
<g id="node7" class="node"><title>Node7</title>
<g id="a_node7"><a xlink:href="string__util_8c.html#ae90befb63fa82bf7029a37b5dc079bd5" target="_top" xlink:title="fhex_dump_indented">
<polygon fill="white" stroke="black" points="604,-114.5 604,-133.5 714,-133.5 714,-114.5 604,-114.5"/>
<text text-anchor="middle" x="659" y="-121.5" font-family="Helvetica,sans-Serif" font-size="10.00">fhex_dump_indented</text>
</a>
</g>
</g>
<!-- Node6&#45;&gt;Node7 -->
<g id="edge6" class="edge"><title>Node6&#45;&gt;Node7</title>
<path fill="none" stroke="midnightblue" d="M561.926,-152.411C578.21,-147.596 598.142,-141.701 615.622,-136.532"/>
<polygon fill="midnightblue" stroke="midnightblue" points="616.987,-139.778 625.584,-133.586 615.002,-133.065 616.987,-139.778"/>
</g>
<!-- Node8 -->
<g id="node8" class="node"><title>Node8</title>
<g id="a_node8"><a xlink:href="report__util_8c.html#a71f4829c653e1d6101dfc1ae09f4796e" target="_top" xlink:title="rpt_cur_output_dest">
<polygon fill="white" stroke="black" points="608,-152.5 608,-171.5 710,-171.5 710,-152.5 608,-152.5"/>
<text text-anchor="middle" x="659" y="-159.5" font-family="Helvetica,sans-Serif" font-size="10.00">rpt_cur_output_dest</text>
</a>
</g>
</g>
<!-- Node6&#45;&gt;Node8 -->
<g id="edge7" class="edge"><title>Node6&#45;&gt;Node8</title>
<path fill="none" stroke="midnightblue" d="M568.054,-162C577.272,-162 587.335,-162 597.284,-162"/>
<polygon fill="midnightblue" stroke="midnightblue" points="597.571,-165.5 607.571,-162 597.571,-158.5 597.571,-165.5"/>
</g>
<!-- Node9 -->
<g id="node9" class="node"><title>Node9</title>
<g id="a_node9"><a xlink:href="report__util_8c.html#ad8736ff7dcecf76ad38a0c26a1cdf5ff" target="_top" xlink:title="rpt_get_indent">
<polygon fill="white" stroke="black" points="619.5,-190.5 619.5,-209.5 698.5,-209.5 698.5,-190.5 619.5,-190.5"/>
<text text-anchor="middle" x="659" y="-197.5" font-family="Helvetica,sans-Serif" font-size="10.00">rpt_get_indent</text>
</a>
</g>
</g>
<!-- Node6&#45;&gt;Node9 -->
<g id="edge8" class="edge"><title>Node6&#45;&gt;Node9</title>
<path fill="none" stroke="midnightblue" d="M561.926,-171.589C578.21,-176.404 598.142,-182.299 615.622,-187.468"/>
<polygon fill="midnightblue" stroke="midnightblue" points="615.002,-190.935 625.584,-190.414 616.987,-184.222 615.002,-190.935"/>
</g>
<!-- Node12&#45;&gt;Node8 -->
<g id="edge14" class="edge"><title>Node12&#45;&gt;Node8</title>
<path fill="none" stroke="midnightblue" d="M548.738,-194.311C566.425,-189.081 593.257,-181.146 615.904,-174.449"/>
<polygon fill="midnightblue" stroke="midnightblue" points="617.043,-177.762 625.64,-171.569 615.058,-171.049 617.043,-177.762"/>
</g>
<!-- Node12&#45;&gt;Node9 -->
<g id="edge15" class="edge"><title>Node12&#45;&gt;Node9</title>
<path fill="none" stroke="midnightblue" d="M548.738,-200C564.743,-200 588.236,-200 609.341,-200"/>
<polygon fill="midnightblue" stroke="midnightblue" points="609.466,-203.5 619.466,-200 609.466,-196.5 609.466,-203.5"/>
</g>
<!-- Node13 -->
<g id="node13" class="node"><title>Node13</title>
<g id="a_node13"><a xlink:href="string__util_8c.html#a40e4b07a0b96c41bd9acace618efa73b" target="_top" xlink:title="f0printf">
<polygon fill="white" stroke="black" points="636.5,-228.5 636.5,-247.5 681.5,-247.5 681.5,-228.5 636.5,-228.5"/>
<text text-anchor="middle" x="659" y="-235.5" font-family="Helvetica,sans-Serif" font-size="10.00">f0printf</text>
</a>
</g>
</g>
<!-- Node12&#45;&gt;Node13 -->
<g id="edge13" class="edge"><title>Node12&#45;&gt;Node13</title>
<path fill="none" stroke="midnightblue" d="M548.738,-205.689C569.322,-211.776 602.293,-221.526 626.639,-228.726"/>
<polygon fill="midnightblue" stroke="midnightblue" points="625.901,-232.157 636.483,-231.637 627.886,-225.445 625.901,-232.157"/>
</g>
<!-- Node14&#45;&gt;Node10 -->
<g id="edge17" class="edge"><title>Node14&#45;&gt;Node10</title>
<path fill="none" stroke="midnightblue" d="M415.854,-19.5508C427.973,-23.3377 441.347,-28.1904 453,-34 472.873,-43.9077 493.419,-58.6442 507.887,-69.9022"/>
<polygon fill="midnightblue" stroke="midnightblue" points="506.044,-72.9077 516.051,-76.3882 510.398,-67.427 506.044,-72.9077"/>
</g>
</g>
</svg>
