<?xml version="1.0" encoding="UTF-8" standalone="no"?>
<!DOCTYPE svg PUBLIC "-//W3C//DTD SVG 1.1//EN"
 "http://www.w3.org/Graphics/SVG/1.1/DTD/svg11.dtd">
<!-- Generated by graphviz version 2.38.0 (20140413.2041)
 -->
<!-- Title: report_drm_modeProperty Pages: 1 -->
<svg width="365pt" height="47pt"
 viewBox="0.00 0.00 365.00 47.00" xmlns="http://www.w3.org/2000/svg" xmlns:xlink="http://www.w3.org/1999/xlink">
<g id="graph0" class="graph" transform="scale(1 1) rotate(0) translate(4 43)">
<title>report_drm_modeProperty</title>
<polygon fill="white" stroke="none" points="-4,4 -4,-43 361,-43 361,4 -4,4"/>
<!-- Node1 -->
<g id="node1" class="node"><title>Node1</title>
<polygon fill="#bfbfbf" stroke="black" points="0,-0.5 0,-19.5 134,-19.5 134,-0.5 0,-0.5"/>
<text text-anchor="middle" x="67" y="-7.5" font-family="Helvetica,sans-Serif" font-size="10.00">report_drm_modeProperty</text>
</g>
<!-- Node2 -->
<g id="node2" class="node"><title>Node2</title>
<g id="a_node2"><a xlink:href="report__util_8c.html#af5b53c7ac855765e65c7f485fb2a1193" target="_top" xlink:title="rpt_structure_loc">
<polygon fill="white" stroke="black" points="170,-19.5 170,-38.5 259,-38.5 259,-19.5 170,-19.5"/>
<text text-anchor="middle" x="214.5" y="-26.5" font-family="Helvetica,sans-Serif" font-size="10.00">rpt_structure_loc</text>
</a>
</g>
</g>
<!-- Node1&#45;&gt;Node2 -->
<g id="edge1" class="edge"><title>Node1&#45;&gt;Node2</title>
<path fill="none" stroke="midnightblue" d="M134.363,-18.666C142.795,-19.7671 151.342,-20.8832 159.547,-21.9546"/>
<polygon fill="midnightblue" stroke="midnightblue" points="159.353,-25.4589 169.722,-23.2833 160.259,-18.5178 159.353,-25.4589"/>
</g>
<!-- Node3 -->
<g id="node3" class="node"><title>Node3</title>
<g id="a_node3"><a xlink:href="report__util_8c.html#ae58dfa6adb2e9f1dacce17f7b0732f26" target="_top" xlink:title="rpt_vstring">
<polygon fill="white" stroke="black" points="295,-0.5 295,-19.5 357,-19.5 357,-0.5 295,-0.5"/>
<text text-anchor="middle" x="326" y="-7.5" font-family="Helvetica,sans-Serif" font-size="10.00">rpt_vstring</text>
</a>
</g>
</g>
<!-- Node1&#45;&gt;Node3 -->
<g id="edge3" class="edge"><title>Node1&#45;&gt;Node3</title>
<path fill="none" stroke="midnightblue" d="M134.184,-10C181.695,-10 244.201,-10 284.496,-10"/>
<polygon fill="midnightblue" stroke="midnightblue" points="284.739,-13.5001 294.739,-10 284.739,-6.5001 284.739,-13.5001"/>
</g>
<!-- Node2&#45;&gt;Node3 -->
<g id="edge2" class="edge"><title>Node2&#45;&gt;Node3</title>
<path fill="none" stroke="midnightblue" d="M259.092,-21.4361C267.572,-19.9647 276.425,-18.4285 284.79,-16.9771"/>
<polygon fill="midnightblue" stroke="midnightblue" points="285.439,-20.4168 294.694,-15.2587 284.242,-13.5199 285.439,-20.4168"/>
</g>
</g>
</svg>
