<?xml version="1.0" encoding="UTF-8" standalone="no"?>
<!DOCTYPE svg PUBLIC "-//W3C//DTD SVG 1.1//EN"
 "http://www.w3.org/Graphics/SVG/1.1/DTD/svg11.dtd">
<!-- Generated by graphviz version 2.38.0 (20140413.2041)
 -->
<!-- Title: report_drmModeRes Pages: 1 -->
<!--zoomable 332 -->
<svg id="main" version="1.1" xmlns="http://www.w3.org/2000/svg" xmlns:xlink="http://www.w3.org/1999/xlink" xml:space="preserve" onload="init(evt)">
<style type="text/css"><![CDATA[
.edge:hover path { stroke: red; }
.edge:hover polygon { stroke: red; fill: red; }
]]></style>
<script type="text/javascript"><![CDATA[
var edges = document.getElementsByTagName('g');
if (edges && edges.length) {
  for (var i=0;i<edges.length;i++) {
    if (edges[i].id.substr(0,4)=='edge') {
      edges[i].setAttribute('class','edge');
    }
  }
}
]]></script>
        <defs>
                <circle id="rim" cx="0" cy="0" r="7"/>
                <circle id="rim2" cx="0" cy="0" r="3.5"/>
                <g id="zoomPlus">
                        <use xlink:href="#rim" fill="#404040">
                                <set attributeName="fill" to="#808080" begin="zoomplus.mouseover" end="zoomplus.mouseout"/>
                        </use>
                        <path d="M-4,0h8M0,-4v8" fill="none" stroke="white" stroke-width="1.5" pointer-events="none"/>
                </g>
                <g id="zoomMin">
                        <use xlink:href="#rim" fill="#404040">
                                <set attributeName="fill" to="#808080" begin="zoomminus.mouseover" end="zoomminus.mouseout"/>
                        </use>
                        <path d="M-4,0h8" fill="none" stroke="white" stroke-width="1.5" pointer-events="none"/>
                </g>
                <g id="dirArrow">
                        <path fill="none" stroke="white" stroke-width="1.5" d="M0,-3.0v7 M-2.5,-0.5L0,-3.0L2.5,-0.5"/>
                </g>
               <g id="resetDef">
                       <use xlink:href="#rim2" fill="#404040">
                               <set attributeName="fill" to="#808080" begin="reset.mouseover" end="reset.mouseout"/>
                       </use>
               </g>
        </defs>

<script type="text/javascript">
var viewWidth = 722;
var viewHeight = 332;
var sectionId = 'dynsection-8';
</script>
<script xlink:href="svgpan.js"/>
<svg id="graph" class="graph">
<g id="viewport">
<title>report_drmModeRes</title>
<polygon fill="white" stroke="none" points="-4,4 -4,-328 718,-328 718,4 -4,4"/>
<!-- Node1 -->
<g id="node1" class="node"><title>Node1</title>
<polygon fill="#bfbfbf" stroke="black" points="0,-209.5 0,-228.5 109,-228.5 109,-209.5 0,-209.5"/>
<text text-anchor="middle" x="54.5" y="-216.5" font-family="Helvetica,sans-Serif" font-size="10.00">report_drmModeRes</text>
</g>
<!-- Node2 -->
<g id="node2" class="node"><title>Node2</title>
<g id="a_node2"><a xlink:href="libdrm__util_8c.html#a365c2388c1f0b5ab69a827a4ae07fb60" target="_top" xlink:title="connector_status_name">
<polygon fill="white" stroke="black" points="145,-304.5 145,-323.5 268,-323.5 268,-304.5 145,-304.5"/>
<text text-anchor="middle" x="206.5" y="-311.5" font-family="Helvetica,sans-Serif" font-size="10.00">connector_status_name</text>
</a>
</g>
</g>
<!-- Node1&#45;&gt;Node2 -->
<g id="edge1" class="edge"><title>Node1&#45;&gt;Node2</title>
<path fill="none" stroke="midnightblue" d="M64.2267,-228.574C79.2522,-244.521 111.624,-276.586 145,-295 148.957,-297.183 153.2,-299.154 157.536,-300.926"/>
<polygon fill="midnightblue" stroke="midnightblue" points="156.509,-304.278 167.102,-304.489 158.953,-297.719 156.509,-304.278"/>
</g>
<!-- Node3 -->
<g id="node3" class="node"><title>Node3</title>
<g id="a_node3"><a xlink:href="libdrm__util_8c.html#a579d919bbbea389f8194f5b728a52ee5" target="_top" xlink:title="connector_type_name">
<polygon fill="white" stroke="black" points="148.5,-266.5 148.5,-285.5 264.5,-285.5 264.5,-266.5 148.5,-266.5"/>
<text text-anchor="middle" x="206.5" y="-273.5" font-family="Helvetica,sans-Serif" font-size="10.00">connector_type_name</text>
</a>
</g>
</g>
<!-- Node1&#45;&gt;Node3 -->
<g id="edge2" class="edge"><title>Node1&#45;&gt;Node3</title>
<path fill="none" stroke="midnightblue" d="M80.6066,-228.541C105.267,-237.912 143.099,-252.288 170.664,-262.762"/>
<polygon fill="midnightblue" stroke="midnightblue" points="169.72,-266.148 180.311,-266.428 172.207,-259.604 169.72,-266.148"/>
</g>
<!-- Node4 -->
<g id="node4" class="node"><title>Node4</title>
<g id="a_node4"><a xlink:href="libdrm__util_8c.html#ae28fbf75d18faf2086044adc421c57fc" target="_top" xlink:title="report_property_value">
<polygon fill="white" stroke="black" points="150,-133.5 150,-152.5 263,-152.5 263,-133.5 150,-133.5"/>
<text text-anchor="middle" x="206.5" y="-140.5" font-family="Helvetica,sans-Serif" font-size="10.00">report_property_value</text>
</a>
</g>
</g>
<!-- Node1&#45;&gt;Node4 -->
<g id="edge3" class="edge"><title>Node1&#45;&gt;Node4</title>
<path fill="none" stroke="midnightblue" d="M74.4976,-209.375C100.533,-196.183 147.487,-172.393 177.541,-157.166"/>
<polygon fill="midnightblue" stroke="midnightblue" points="179.318,-160.189 186.657,-152.547 176.154,-153.945 179.318,-160.189"/>
</g>
<!-- Node5 -->
<g id="node5" class="node"><title>Node5</title>
<g id="a_node5"><a xlink:href="report__util_8c.html#ae58dfa6adb2e9f1dacce17f7b0732f26" target="_top" xlink:title="rpt_vstring">
<polygon fill="white" stroke="black" points="497.5,-171.5 497.5,-190.5 559.5,-190.5 559.5,-171.5 497.5,-171.5"/>
<text text-anchor="middle" x="528.5" y="-178.5" font-family="Helvetica,sans-Serif" font-size="10.00">rpt_vstring</text>
</a>
</g>
</g>
<!-- Node1&#45;&gt;Node5 -->
<g id="edge18" class="edge"><title>Node1&#45;&gt;Node5</title>
<path fill="none" stroke="midnightblue" d="M109.262,-227.273C186.647,-237.337 333.292,-249.483 453,-219 471.467,-214.297 490.581,-204.428 504.824,-195.926"/>
<polygon fill="midnightblue" stroke="midnightblue" points="506.763,-198.843 513.425,-190.605 503.08,-192.89 506.763,-198.843"/>
</g>
<!-- Node12 -->
<g id="node12" class="node"><title>Node12</title>
<g id="a_node12"><a xlink:href="report__util_8c.html#a7c7aaf851ba8d9da017ed521f0fcb504" target="_top" xlink:title="rpt_nl">
<polygon fill="white" stroke="black" points="508.5,-38.5 508.5,-57.5 548.5,-57.5 548.5,-38.5 508.5,-38.5"/>
<text text-anchor="middle" x="528.5" y="-45.5" font-family="Helvetica,sans-Serif" font-size="10.00">rpt_nl</text>
</a>
</g>
</g>
<!-- Node1&#45;&gt;Node12 -->
<g id="edge12" class="edge"><title>Node1&#45;&gt;Node12</title>
<path fill="none" stroke="midnightblue" d="M62.2345,-209.22C75.7878,-190.22 108.222,-148.08 145,-124 258.985,-49.3679 430.119,-45.1071 498.124,-46.6997"/>
<polygon fill="midnightblue" stroke="midnightblue" points="498.029,-50.1983 508.128,-46.9956 498.236,-43.2013 498.029,-50.1983"/>
</g>
<!-- Node14 -->
<g id="node14" class="node"><title>Node14</title>
<g id="a_node14"><a xlink:href="report__util_8c.html#af5b53c7ac855765e65c7f485fb2a1193" target="_top" xlink:title="rpt_structure_loc">
<polygon fill="white" stroke="black" points="334,-190.5 334,-209.5 423,-209.5 423,-190.5 334,-190.5"/>
<text text-anchor="middle" x="378.5" y="-197.5" font-family="Helvetica,sans-Serif" font-size="10.00">rpt_structure_loc</text>
</a>
</g>
</g>
<!-- Node1&#45;&gt;Node14 -->
<g id="edge16" class="edge"><title>Node1&#45;&gt;Node14</title>
<path fill="none" stroke="midnightblue" d="M109.033,-215.841C168.417,-212.337 263.698,-206.715 323.335,-203.196"/>
<polygon fill="midnightblue" stroke="midnightblue" points="323.899,-206.669 333.676,-202.586 323.487,-199.681 323.899,-206.669"/>
</g>
<!-- Node4&#45;&gt;Node5 -->
<g id="edge4" class="edge"><title>Node4&#45;&gt;Node5</title>
<path fill="none" stroke="midnightblue" d="M263.24,-149.619C327.298,-157.226 430.848,-169.523 487.432,-176.242"/>
<polygon fill="midnightblue" stroke="midnightblue" points="487.088,-179.726 497.431,-177.429 487.914,-172.774 487.088,-179.726"/>
</g>
<!-- Node6 -->
<g id="node6" class="node"><title>Node6</title>
<g id="a_node6"><a xlink:href="data__structures_8c.html#a8f7799a9780b77f3d43f5a23a025e4b7" target="_top" xlink:title="sbuf_append">
<polygon fill="white" stroke="black" points="341.5,-114.5 341.5,-133.5 415.5,-133.5 415.5,-114.5 341.5,-114.5"/>
<text text-anchor="middle" x="378.5" y="-121.5" font-family="Helvetica,sans-Serif" font-size="10.00">sbuf_append</text>
</a>
</g>
</g>
<!-- Node4&#45;&gt;Node6 -->
<g id="edge5" class="edge"><title>Node4&#45;&gt;Node6</title>
<path fill="none" stroke="midnightblue" d="M263.164,-136.779C285.217,-134.314 310.272,-131.514 331.296,-129.164"/>
<polygon fill="midnightblue" stroke="midnightblue" points="331.713,-132.639 341.262,-128.05 330.935,-125.683 331.713,-132.639"/>
</g>
<!-- Node7 -->
<g id="node7" class="node"><title>Node7</title>
<g id="a_node7"><a xlink:href="libdrm__util_8c.html#a0a134366851de213e59925f5bc459704" target="_top" xlink:title="report_drmModePropertyBlob">
<polygon fill="white" stroke="black" points="304,-76.5 304,-95.5 453,-95.5 453,-76.5 304,-76.5"/>
<text text-anchor="middle" x="378.5" y="-83.5" font-family="Helvetica,sans-Serif" font-size="10.00">report_drmModePropertyBlob</text>
</a>
</g>
</g>
<!-- Node4&#45;&gt;Node7 -->
<g id="edge6" class="edge"><title>Node4&#45;&gt;Node7</title>
<path fill="none" stroke="midnightblue" d="M229.451,-133.467C248.831,-125.266 277.97,-113.455 304,-105 311.404,-102.595 319.303,-100.289 327.076,-98.1633"/>
<polygon fill="midnightblue" stroke="midnightblue" points="328.043,-101.528 336.807,-95.574 326.243,-94.7633 328.043,-101.528"/>
</g>
<!-- Node7&#45;&gt;Node5 -->
<g id="edge11" class="edge"><title>Node7&#45;&gt;Node5</title>
<path fill="none" stroke="midnightblue" d="M431.128,-95.5235C438.735,-98.001 446.268,-101.108 453,-105 478.608,-119.804 501.323,-145.815 514.749,-163.226"/>
<polygon fill="midnightblue" stroke="midnightblue" points="512.099,-165.527 520.888,-171.442 517.706,-161.336 512.099,-165.527"/>
</g>
<!-- Node8 -->
<g id="node8" class="node"><title>Node8</title>
<g id="a_node8"><a xlink:href="report__util_8c.html#a5cdea9095d42e1486dd5f4b45e1e2a82" target="_top" xlink:title="rpt_hex_dump">
<polygon fill="white" stroke="black" points="489,-76.5 489,-95.5 568,-95.5 568,-76.5 489,-76.5"/>
<text text-anchor="middle" x="528.5" y="-83.5" font-family="Helvetica,sans-Serif" font-size="10.00">rpt_hex_dump</text>
</a>
</g>
</g>
<!-- Node7&#45;&gt;Node8 -->
<g id="edge7" class="edge"><title>Node7&#45;&gt;Node8</title>
<path fill="none" stroke="midnightblue" d="M453.066,-86C461.738,-86 470.418,-86 478.629,-86"/>
<polygon fill="midnightblue" stroke="midnightblue" points="478.743,-89.5001 488.743,-86 478.743,-82.5001 478.743,-89.5001"/>
</g>
<!-- Node9 -->
<g id="node9" class="node"><title>Node9</title>
<g id="a_node9"><a xlink:href="string__util_8c.html#ae90befb63fa82bf7029a37b5dc079bd5" target="_top" xlink:title="fhex_dump_indented">
<polygon fill="white" stroke="black" points="604,-114.5 604,-133.5 714,-133.5 714,-114.5 604,-114.5"/>
<text text-anchor="middle" x="659" y="-121.5" font-family="Helvetica,sans-Serif" font-size="10.00">fhex_dump_indented</text>
</a>
</g>
</g>
<!-- Node8&#45;&gt;Node9 -->
<g id="edge8" class="edge"><title>Node8&#45;&gt;Node9</title>
<path fill="none" stroke="midnightblue" d="M561.926,-95.589C578.21,-100.404 598.142,-106.299 615.622,-111.468"/>
<polygon fill="midnightblue" stroke="midnightblue" points="615.002,-114.935 625.584,-114.414 616.987,-108.222 615.002,-114.935"/>
</g>
<!-- Node10 -->
<g id="node10" class="node"><title>Node10</title>
<g id="a_node10"><a xlink:href="report__util_8c.html#a71f4829c653e1d6101dfc1ae09f4796e" target="_top" xlink:title="rpt_cur_output_dest">
<polygon fill="white" stroke="black" points="608,-76.5 608,-95.5 710,-95.5 710,-76.5 608,-76.5"/>
<text text-anchor="middle" x="659" y="-83.5" font-family="Helvetica,sans-Serif" font-size="10.00">rpt_cur_output_dest</text>
</a>
</g>
</g>
<!-- Node8&#45;&gt;Node10 -->
<g id="edge9" class="edge"><title>Node8&#45;&gt;Node10</title>
<path fill="none" stroke="midnightblue" d="M568.054,-86C577.272,-86 587.335,-86 597.284,-86"/>
<polygon fill="midnightblue" stroke="midnightblue" points="597.571,-89.5001 607.571,-86 597.571,-82.5001 597.571,-89.5001"/>
</g>
<!-- Node11 -->
<g id="node11" class="node"><title>Node11</title>
<g id="a_node11"><a xlink:href="report__util_8c.html#ad8736ff7dcecf76ad38a0c26a1cdf5ff" target="_top" xlink:title="rpt_get_indent">
<polygon fill="white" stroke="black" points="619.5,-38.5 619.5,-57.5 698.5,-57.5 698.5,-38.5 619.5,-38.5"/>
<text text-anchor="middle" x="659" y="-45.5" font-family="Helvetica,sans-Serif" font-size="10.00">rpt_get_indent</text>
</a>
</g>
</g>
<!-- Node8&#45;&gt;Node11 -->
<g id="edge10" class="edge"><title>Node8&#45;&gt;Node11</title>
<path fill="none" stroke="midnightblue" d="M561.926,-76.411C578.21,-71.5956 598.142,-65.7012 615.622,-60.532"/>
<polygon fill="midnightblue" stroke="midnightblue" points="616.987,-63.7781 625.584,-57.5859 615.002,-57.0655 616.987,-63.7781"/>
</g>
<!-- Node12&#45;&gt;Node10 -->
<g id="edge14" class="edge"><title>Node12&#45;&gt;Node10</title>
<path fill="none" stroke="midnightblue" d="M548.738,-53.689C566.425,-58.9193 593.257,-66.8541 615.904,-73.5514"/>
<polygon fill="midnightblue" stroke="midnightblue" points="615.058,-76.951 625.64,-76.4305 617.043,-70.2384 615.058,-76.951"/>
</g>
<!-- Node12&#45;&gt;Node11 -->
<g id="edge15" class="edge"><title>Node12&#45;&gt;Node11</title>
<path fill="none" stroke="midnightblue" d="M548.738,-48C564.743,-48 588.236,-48 609.341,-48"/>
<polygon fill="midnightblue" stroke="midnightblue" points="609.466,-51.5001 619.466,-48 609.466,-44.5001 609.466,-51.5001"/>
</g>
<!-- Node13 -->
<g id="node13" class="node"><title>Node13</title>
<g id="a_node13"><a xlink:href="string__util_8c.html#a40e4b07a0b96c41bd9acace618efa73b" target="_top" xlink:title="f0printf">
<polygon fill="white" stroke="black" points="636.5,-0.5 636.5,-19.5 681.5,-19.5 681.5,-0.5 636.5,-0.5"/>
<text text-anchor="middle" x="659" y="-7.5" font-family="Helvetica,sans-Serif" font-size="10.00">f0printf</text>
</a>
</g>
</g>
<!-- Node12&#45;&gt;Node13 -->
<g id="edge13" class="edge"><title>Node12&#45;&gt;Node13</title>
<path fill="none" stroke="midnightblue" d="M548.738,-42.311C569.322,-36.2239 602.293,-26.4736 626.639,-19.2742"/>
<polygon fill="midnightblue" stroke="midnightblue" points="627.886,-22.5552 636.483,-16.363 625.901,-15.8426 627.886,-22.5552"/>
</g>
<!-- Node14&#45;&gt;Node5 -->
<g id="edge17" class="edge"><title>Node14&#45;&gt;Node5</title>
<path fill="none" stroke="midnightblue" d="M423.104,-194.402C443.435,-191.792 467.471,-188.706 487.351,-186.154"/>
<polygon fill="midnightblue" stroke="midnightblue" points="487.854,-189.618 497.327,-184.874 486.963,-182.675 487.854,-189.618"/>
</g>
</g>
</svg>
        <g id="navigator" transform="translate(0 0)" fill="#404254">
                <rect fill="#f2f5e9" fill-opacity="0.5" stroke="#606060" stroke-width=".5" x="0" y="0" width="60" height="60"/>
                <use id="zoomplus" xlink:href="#zoomPlus" x="17" y="9" onmousedown="handleZoom(evt,'in')"/>
                <use id="zoomminus" xlink:href="#zoomMin" x="42" y="9" onmousedown="handleZoom(evt,'out')"/>
                <use id="reset" xlink:href="#resetDef" x="30" y="36" onmousedown="handleReset()"/>
                <g id="arrowUp" xlink:href="#dirArrow" transform="translate(30 24)" onmousedown="handlePan(0,-1)">
                  <use xlink:href="#rim" fill="#404040">
                        <set attributeName="fill" to="#808080" begin="arrowUp.mouseover" end="arrowUp.mouseout"/>
                  </use>
                  <path fill="none" stroke="white" stroke-width="1.5" d="M0,-3.0v7 M-2.5,-0.5L0,-3.0L2.5,-0.5"/>
                </g>
                <g id="arrowRight" xlink:href="#dirArrow" transform="rotate(90) translate(36 -43)" onmousedown="handlePan(1,0)">
                  <use xlink:href="#rim" fill="#404040">
                        <set attributeName="fill" to="#808080" begin="arrowRight.mouseover" end="arrowRight.mouseout"/>
                  </use>
                  <path fill="none" stroke="white" stroke-width="1.5" d="M0,-3.0v7 M-2.5,-0.5L0,-3.0L2.5,-0.5"/>
                </g>
                <g id="arrowDown" xlink:href="#dirArrow" transform="rotate(180) translate(-30 -48)" onmousedown="handlePan(0,1)">
                  <use xlink:href="#rim" fill="#404040">
                        <set attributeName="fill" to="#808080" begin="arrowDown.mouseover" end="arrowDown.mouseout"/>
                  </use>
                  <path fill="none" stroke="white" stroke-width="1.5" d="M0,-3.0v7 M-2.5,-0.5L0,-3.0L2.5,-0.5"/>
                </g>
                <g id="arrowLeft" xlink:href="#dirArrow" transform="rotate(270) translate(-36 17)" onmousedown="handlePan(-1,0)">
                  <use xlink:href="#rim" fill="#404040">
                        <set attributeName="fill" to="#808080" begin="arrowLeft.mouseover" end="arrowLeft.mouseout"/>
                  </use>
                  <path fill="none" stroke="white" stroke-width="1.5" d="M0,-3.0v7 M-2.5,-0.5L0,-3.0L2.5,-0.5"/>
                </g>
        </g>
        <svg viewBox="0 0 15 15" width="100%" height="30px" preserveAspectRatio="xMaxYMin meet">
         <g id="arrow_out" transform="scale(0.3 0.3)">
          <a xlink:href="libdrm__util_8c_a296f38d851825b841915b5648ad491e4_cgraph_org.svg" target="_base">
           <rect id="button" ry="5" rx="5" y="6" x="6" height="38" width="38"
                fill="#f2f5e9" fill-opacity="0.5" stroke="#606060" stroke-width="1.0"/>
           <path id="arrow"
             d="M 11.500037,31.436501 C 11.940474,20.09759 22.043105,11.32322 32.158766,21.979434 L 37.068811,17.246167 C 37.068811,17.246167 37.088388,32 37.088388,32 L 22.160133,31.978069 C 22.160133,31.978069 26.997745,27.140456 26.997745,27.140456 C 18.528582,18.264221 13.291696,25.230495 11.500037,31.436501 z"
             style="fill:#404040;"/>
          </a>
         </g>
        </svg>
</svg>
