<?xml version="1.0" encoding="UTF-8" standalone="no"?>
<!DOCTYPE svg PUBLIC "-//W3C//DTD SVG 1.1//EN"
 "http://www.w3.org/Graphics/SVG/1.1/DTD/svg11.dtd">
<!-- Generated by graphviz version 2.38.0 (20140413.2041)
 -->
<!-- Title: connector_type_title Pages: 1 -->
<svg width="375pt" height="47pt"
 viewBox="0.00 0.00 375.00 47.00" xmlns="http://www.w3.org/2000/svg" xmlns:xlink="http://www.w3.org/1999/xlink">
<g id="graph0" class="graph" transform="scale(1 1) rotate(0) translate(4 43)">
<title>connector_type_title</title>
<polygon fill="white" stroke="none" points="-4,4 -4,-43 371,-43 371,4 -4,4"/>
<!-- Node1 -->
<g id="node1" class="node"><title>Node1</title>
<polygon fill="#bfbfbf" stroke="black" points="0,-0.5 0,-19.5 105,-19.5 105,-0.5 0,-0.5"/>
<text text-anchor="middle" x="52.5" y="-7.5" font-family="Helvetica,sans-Serif" font-size="10.00">connector_type_title</text>
</g>
<!-- Node2 -->
<g id="node2" class="node"><title>Node2</title>
<g id="a_node2"><a xlink:href="data__structures_8c.html#a8aa6c1749ba5d95385420dbc95f08f6c" target="_top" xlink:title="interpret_named_flags">
<polygon fill="white" stroke="black" points="141,-19.5 141,-38.5 257,-38.5 257,-19.5 141,-19.5"/>
<text text-anchor="middle" x="199" y="-26.5" font-family="Helvetica,sans-Serif" font-size="10.00">interpret_named_flags</text>
</a>
</g>
</g>
<!-- Node1&#45;&gt;Node2 -->
<g id="edge1" class="edge"><title>Node1&#45;&gt;Node2</title>
<path fill="none" stroke="midnightblue" d="M105.26,-16.8058C113.525,-17.8925 122.18,-19.0306 130.741,-20.1563"/>
<polygon fill="midnightblue" stroke="midnightblue" points="130.349,-23.6347 140.72,-21.4683 131.261,-16.6944 130.349,-23.6347"/>
</g>
<!-- Node3 -->
<g id="node3" class="node"><title>Node3</title>
<g id="a_node3"><a xlink:href="data__structures_8c.html#a8f7799a9780b77f3d43f5a23a025e4b7" target="_top" xlink:title="sbuf_append">
<polygon fill="white" stroke="black" points="293,-0.5 293,-19.5 367,-19.5 367,-0.5 293,-0.5"/>
<text text-anchor="middle" x="330" y="-7.5" font-family="Helvetica,sans-Serif" font-size="10.00">sbuf_append</text>
</a>
</g>
</g>
<!-- Node1&#45;&gt;Node3 -->
<g id="edge3" class="edge"><title>Node1&#45;&gt;Node3</title>
<path fill="none" stroke="midnightblue" d="M105.319,-10C156.397,-10 233.719,-10 282.768,-10"/>
<polygon fill="midnightblue" stroke="midnightblue" points="282.786,-13.5001 292.786,-10 282.786,-6.5001 282.786,-13.5001"/>
</g>
<!-- Node2&#45;&gt;Node3 -->
<g id="edge2" class="edge"><title>Node2&#45;&gt;Node3</title>
<path fill="none" stroke="midnightblue" d="M257.333,-20.5557C265.944,-19.2874 274.727,-17.9937 283.059,-16.7665"/>
<polygon fill="midnightblue" stroke="midnightblue" points="283.573,-20.2286 292.956,-15.3087 282.553,-13.3033 283.573,-20.2286"/>
</g>
</g>
</svg>
