<?xml version="1.0" encoding="UTF-8" standalone="no"?>
<!DOCTYPE svg PUBLIC "-//W3C//DTD SVG 1.1//EN"
 "http://www.w3.org/Graphics/SVG/1.1/DTD/svg11.dtd">
<!-- Generated by graphviz version 2.38.0 (20140413.2041)
 -->
<!-- Title: report_drmModePropertyBlob Pages: 1 -->
<svg width="418pt" height="104pt"
 viewBox="0.00 0.00 418.00 104.00" xmlns="http://www.w3.org/2000/svg" xmlns:xlink="http://www.w3.org/1999/xlink">
<g id="graph0" class="graph" transform="scale(1 1) rotate(0) translate(4 100)">
<title>report_drmModePropertyBlob</title>
<polygon fill="white" stroke="none" points="-4,4 -4,-100 414,-100 414,4 -4,4"/>
<!-- Node1 -->
<g id="node1" class="node"><title>Node1</title>
<polygon fill="#bfbfbf" stroke="black" points="0,-19.5 0,-38.5 149,-38.5 149,-19.5 0,-19.5"/>
<text text-anchor="middle" x="74.5" y="-26.5" font-family="Helvetica,sans-Serif" font-size="10.00">report_drmModePropertyBlob</text>
</g>
<!-- Node2 -->
<g id="node2" class="node"><title>Node2</title>
<g id="a_node2"><a xlink:href="report__util_8c.html#a5cdea9095d42e1486dd5f4b45e1e2a82" target="_top" xlink:title="rpt_hex_dump">
<polygon fill="white" stroke="black" points="185,-38.5 185,-57.5 264,-57.5 264,-38.5 185,-38.5"/>
<text text-anchor="middle" x="224.5" y="-45.5" font-family="Helvetica,sans-Serif" font-size="10.00">rpt_hex_dump</text>
</a>
</g>
</g>
<!-- Node1&#45;&gt;Node2 -->
<g id="edge1" class="edge"><title>Node1&#45;&gt;Node2</title>
<path fill="none" stroke="midnightblue" d="M149.066,-38.4443C157.738,-39.5576 166.418,-40.6718 174.629,-41.726"/>
<polygon fill="midnightblue" stroke="midnightblue" points="174.379,-45.2225 184.743,-43.0245 175.27,-38.2795 174.379,-45.2225"/>
</g>
<!-- Node6 -->
<g id="node6" class="node"><title>Node6</title>
<g id="a_node6"><a xlink:href="report__util_8c.html#ae58dfa6adb2e9f1dacce17f7b0732f26" target="_top" xlink:title="rpt_vstring">
<polygon fill="white" stroke="black" points="193.5,-0.5 193.5,-19.5 255.5,-19.5 255.5,-0.5 193.5,-0.5"/>
<text text-anchor="middle" x="224.5" y="-7.5" font-family="Helvetica,sans-Serif" font-size="10.00">rpt_vstring</text>
</a>
</g>
</g>
<!-- Node1&#45;&gt;Node6 -->
<g id="edge5" class="edge"><title>Node1&#45;&gt;Node6</title>
<path fill="none" stroke="midnightblue" d="M149.066,-19.5557C160.819,-18.0469 172.586,-16.5362 183.182,-15.1759"/>
<polygon fill="midnightblue" stroke="midnightblue" points="183.871,-18.6163 193.344,-13.8714 182.979,-11.6733 183.871,-18.6163"/>
</g>
<!-- Node3 -->
<g id="node3" class="node"><title>Node3</title>
<g id="a_node3"><a xlink:href="string__util_8c.html#ae90befb63fa82bf7029a37b5dc079bd5" target="_top" xlink:title="fhex_dump_indented">
<polygon fill="white" stroke="black" points="300,-76.5 300,-95.5 410,-95.5 410,-76.5 300,-76.5"/>
<text text-anchor="middle" x="355" y="-83.5" font-family="Helvetica,sans-Serif" font-size="10.00">fhex_dump_indented</text>
</a>
</g>
</g>
<!-- Node2&#45;&gt;Node3 -->
<g id="edge2" class="edge"><title>Node2&#45;&gt;Node3</title>
<path fill="none" stroke="midnightblue" d="M257.926,-57.589C274.21,-62.4044 294.142,-68.2988 311.622,-73.468"/>
<polygon fill="midnightblue" stroke="midnightblue" points="311.002,-76.9345 321.584,-76.4141 312.987,-70.2219 311.002,-76.9345"/>
</g>
<!-- Node4 -->
<g id="node4" class="node"><title>Node4</title>
<g id="a_node4"><a xlink:href="report__util_8c.html#a71f4829c653e1d6101dfc1ae09f4796e" target="_top" xlink:title="rpt_cur_output_dest">
<polygon fill="white" stroke="black" points="304,-38.5 304,-57.5 406,-57.5 406,-38.5 304,-38.5"/>
<text text-anchor="middle" x="355" y="-45.5" font-family="Helvetica,sans-Serif" font-size="10.00">rpt_cur_output_dest</text>
</a>
</g>
</g>
<!-- Node2&#45;&gt;Node4 -->
<g id="edge3" class="edge"><title>Node2&#45;&gt;Node4</title>
<path fill="none" stroke="midnightblue" d="M264.054,-48C273.272,-48 283.335,-48 293.284,-48"/>
<polygon fill="midnightblue" stroke="midnightblue" points="293.571,-51.5001 303.571,-48 293.571,-44.5001 293.571,-51.5001"/>
</g>
<!-- Node5 -->
<g id="node5" class="node"><title>Node5</title>
<g id="a_node5"><a xlink:href="report__util_8c.html#ad8736ff7dcecf76ad38a0c26a1cdf5ff" target="_top" xlink:title="rpt_get_indent">
<polygon fill="white" stroke="black" points="315.5,-0.5 315.5,-19.5 394.5,-19.5 394.5,-0.5 315.5,-0.5"/>
<text text-anchor="middle" x="355" y="-7.5" font-family="Helvetica,sans-Serif" font-size="10.00">rpt_get_indent</text>
</a>
</g>
</g>
<!-- Node2&#45;&gt;Node5 -->
<g id="edge4" class="edge"><title>Node2&#45;&gt;Node5</title>
<path fill="none" stroke="midnightblue" d="M257.926,-38.411C274.21,-33.5956 294.142,-27.7012 311.622,-22.532"/>
<polygon fill="midnightblue" stroke="midnightblue" points="312.987,-25.7781 321.584,-19.5859 311.002,-19.0655 312.987,-25.7781"/>
</g>
</g>
</svg>
