<?xml version="1.0" encoding="UTF-8" standalone="no"?>
<!DOCTYPE svg PUBLIC "-//W3C//DTD SVG 1.1//EN"
 "http://www.w3.org/Graphics/SVG/1.1/DTD/svg11.dtd">
<!-- Generated by graphviz version 2.38.0 (20140413.2041)
 -->
<!-- Title: libdrm_util.c Pages: 1 -->
<svg width="575pt" height="196pt"
 viewBox="0.00 0.00 574.50 196.00" xmlns="http://www.w3.org/2000/svg" xmlns:xlink="http://www.w3.org/1999/xlink">
<g id="graph0" class="graph" transform="scale(1 1) rotate(0) translate(4 192)">
<title>libdrm_util.c</title>
<polygon fill="white" stroke="none" points="-4,4 -4,-192 570.5,-192 570.5,4 -4,4"/>
<!-- Node1 -->
<g id="node1" class="node"><title>Node1</title>
<polygon fill="#bfbfbf" stroke="black" points="183,-168.5 183,-187.5 251,-187.5 251,-168.5 183,-168.5"/>
<text text-anchor="middle" x="217" y="-175.5" font-family="Helvetica,sans-Serif" font-size="10.00">libdrm_util.c</text>
</g>
<!-- Node2 -->
<g id="node2" class="node"><title>Node2</title>
<polygon fill="white" stroke="#bfbfbf" points="0,-56.5 0,-75.5 46,-75.5 46,-56.5 0,-56.5"/>
<text text-anchor="middle" x="23" y="-63.5" font-family="Helvetica,sans-Serif" font-size="10.00">stdio.h</text>
</g>
<!-- Node1&#45;&gt;Node2 -->
<g id="edge1" class="edge"><title>Node1&#45;&gt;Node2</title>
<path fill="none" stroke="midnightblue" d="M182.955,-177.706C143.78,-176.625 79.983,-168.761 42,-132 29.6009,-120 25.1739,-100.395 23.6533,-85.8495"/>
<polygon fill="midnightblue" stroke="midnightblue" points="27.1214,-85.2542 22.9603,-75.5108 20.137,-85.7225 27.1214,-85.2542"/>
</g>
<!-- Node3 -->
<g id="node3" class="node"><title>Node3</title>
<polygon fill="white" stroke="#bfbfbf" points="330,-112.5 330,-131.5 378,-131.5 378,-112.5 330,-112.5"/>
<text text-anchor="middle" x="354" y="-119.5" font-family="Helvetica,sans-Serif" font-size="10.00">string.h</text>
</g>
<!-- Node1&#45;&gt;Node3 -->
<g id="edge2" class="edge"><title>Node1&#45;&gt;Node3</title>
<path fill="none" stroke="midnightblue" d="M238.708,-168.444C261.355,-159.517 297.072,-145.439 322.752,-135.317"/>
<polygon fill="midnightblue" stroke="midnightblue" points="324.374,-138.44 332.394,-131.516 321.807,-131.927 324.374,-138.44"/>
</g>
<!-- Node4 -->
<g id="node4" class="node"><title>Node4</title>
<g id="a_node4"><a xlink:href="data__structures_8h.html" target="_top" xlink:title="data_structures.h">
<polygon fill="white" stroke="black" points="220,-112.5 220,-131.5 312,-131.5 312,-112.5 220,-112.5"/>
<text text-anchor="middle" x="266" y="-119.5" font-family="Helvetica,sans-Serif" font-size="10.00">data_structures.h</text>
</a>
</g>
</g>
<!-- Node1&#45;&gt;Node4 -->
<g id="edge3" class="edge"><title>Node1&#45;&gt;Node4</title>
<path fill="none" stroke="midnightblue" d="M225.091,-168.083C232.155,-160.298 242.588,-148.801 251.149,-139.367"/>
<polygon fill="midnightblue" stroke="midnightblue" points="253.931,-141.509 258.059,-131.751 248.747,-136.805 253.931,-141.509"/>
</g>
<!-- Node8 -->
<g id="node8" class="node"><title>Node8</title>
<g id="a_node8"><a xlink:href="report__util_8h.html" target="_top" xlink:title="report_util.h">
<polygon fill="white" stroke="black" points="51.5,-112.5 51.5,-131.5 118.5,-131.5 118.5,-112.5 51.5,-112.5"/>
<text text-anchor="middle" x="85" y="-119.5" font-family="Helvetica,sans-Serif" font-size="10.00">report_util.h</text>
</a>
</g>
</g>
<!-- Node1&#45;&gt;Node8 -->
<g id="edge7" class="edge"><title>Node1&#45;&gt;Node8</title>
<path fill="none" stroke="midnightblue" d="M196.084,-168.444C174.264,-159.517 139.85,-145.439 115.108,-135.317"/>
<polygon fill="midnightblue" stroke="midnightblue" points="116.399,-132.063 105.818,-131.516 113.748,-138.542 116.399,-132.063"/>
</g>
<!-- Node10 -->
<g id="node10" class="node"><title>Node10</title>
<g id="a_node10"><a xlink:href="string__util_8h.html" target="_top" xlink:title="string_util.h">
<polygon fill="white" stroke="black" points="136.5,-112.5 136.5,-131.5 201.5,-131.5 201.5,-112.5 136.5,-112.5"/>
<text text-anchor="middle" x="169" y="-119.5" font-family="Helvetica,sans-Serif" font-size="10.00">string_util.h</text>
</a>
</g>
</g>
<!-- Node1&#45;&gt;Node10 -->
<g id="edge12" class="edge"><title>Node1&#45;&gt;Node10</title>
<path fill="none" stroke="midnightblue" d="M209.074,-168.083C202.154,-160.298 191.935,-148.801 183.548,-139.367"/>
<polygon fill="midnightblue" stroke="midnightblue" points="186.038,-136.9 176.779,-131.751 180.806,-141.55 186.038,-136.9"/>
</g>
<!-- Node12 -->
<g id="node12" class="node"><title>Node12</title>
<g id="a_node12"><a xlink:href="libdrm__util_8h.html" target="_top" xlink:title="libdrm_util.h">
<polygon fill="white" stroke="black" points="397,-112.5 397,-131.5 465,-131.5 465,-112.5 397,-112.5"/>
<text text-anchor="middle" x="431" y="-119.5" font-family="Helvetica,sans-Serif" font-size="10.00">libdrm_util.h</text>
</a>
</g>
</g>
<!-- Node1&#45;&gt;Node12 -->
<g id="edge19" class="edge"><title>Node1&#45;&gt;Node12</title>
<path fill="none" stroke="midnightblue" d="M250.909,-168.444C287.849,-159.122 347.054,-144.183 387.418,-133.997"/>
<polygon fill="midnightblue" stroke="midnightblue" points="388.41,-137.357 397.25,-131.516 386.697,-130.57 388.41,-137.357"/>
</g>
<!-- Node5 -->
<g id="node5" class="node"><title>Node5</title>
<polygon fill="white" stroke="#bfbfbf" points="102.5,-56.5 102.5,-75.5 159.5,-75.5 159.5,-56.5 102.5,-56.5"/>
<text text-anchor="middle" x="131" y="-63.5" font-family="Helvetica,sans-Serif" font-size="10.00">stdbool.h</text>
</g>
<!-- Node4&#45;&gt;Node5 -->
<g id="edge4" class="edge"><title>Node4&#45;&gt;Node5</title>
<path fill="none" stroke="midnightblue" d="M244.609,-112.444C222.293,-103.517 187.097,-89.4387 161.792,-79.3168"/>
<polygon fill="midnightblue" stroke="midnightblue" points="162.876,-75.9807 152.291,-75.5164 160.276,-82.4801 162.876,-75.9807"/>
</g>
<!-- Node6 -->
<g id="node6" class="node"><title>Node6</title>
<polygon fill="white" stroke="#bfbfbf" points="335.5,-56.5 335.5,-75.5 382.5,-75.5 382.5,-56.5 335.5,-56.5"/>
<text text-anchor="middle" x="359" y="-63.5" font-family="Helvetica,sans-Serif" font-size="10.00">stdint.h</text>
</g>
<!-- Node4&#45;&gt;Node6 -->
<g id="edge5" class="edge"><title>Node4&#45;&gt;Node6</title>
<path fill="none" stroke="midnightblue" d="M280.942,-112.324C295.585,-103.822 318.134,-90.7288 335.238,-80.7975"/>
<polygon fill="midnightblue" stroke="midnightblue" points="337.205,-83.7027 344.095,-75.6545 333.69,-77.6491 337.205,-83.7027"/>
</g>
<!-- Node7 -->
<g id="node7" class="node"><title>Node7</title>
<g id="a_node7"><a xlink:href="coredefs_8h.html" target="_top" xlink:title="coredefs.h">
<polygon fill="white" stroke="black" points="178,-56.5 178,-75.5 242,-75.5 242,-56.5 178,-56.5"/>
<text text-anchor="middle" x="210" y="-63.5" font-family="Helvetica,sans-Serif" font-size="10.00">coredefs.h</text>
</a>
</g>
</g>
<!-- Node4&#45;&gt;Node7 -->
<g id="edge6" class="edge"><title>Node4&#45;&gt;Node7</title>
<path fill="none" stroke="midnightblue" d="M257.003,-112.324C248.806,-104.42 236.494,-92.5482 226.528,-82.9377"/>
<polygon fill="midnightblue" stroke="midnightblue" points="228.789,-80.2558 219.161,-75.8339 223.93,-85.2947 228.789,-80.2558"/>
</g>
<!-- Node8&#45;&gt;Node2 -->
<g id="edge9" class="edge"><title>Node8&#45;&gt;Node2</title>
<path fill="none" stroke="midnightblue" d="M75.0386,-112.324C65.8734,-104.341 52.0628,-92.3128 40.9718,-82.6529"/>
<polygon fill="midnightblue" stroke="midnightblue" points="42.9822,-79.7624 33.1426,-75.8339 38.3847,-85.041 42.9822,-79.7624"/>
</g>
<!-- Node8&#45;&gt;Node5 -->
<g id="edge10" class="edge"><title>Node8&#45;&gt;Node5</title>
<path fill="none" stroke="midnightblue" d="M92.596,-112.083C99.2275,-104.298 109.021,-92.8015 117.058,-83.3665"/>
<polygon fill="midnightblue" stroke="midnightblue" points="119.725,-85.6332 123.545,-75.7511 114.396,-81.0939 119.725,-85.6332"/>
</g>
<!-- Node8&#45;&gt;Node7 -->
<g id="edge11" class="edge"><title>Node8&#45;&gt;Node7</title>
<path fill="none" stroke="midnightblue" d="M104.807,-112.444C125.287,-103.596 157.483,-89.6875 180.865,-79.5865"/>
<polygon fill="midnightblue" stroke="midnightblue" points="182.494,-82.6953 190.286,-75.5164 179.718,-76.2692 182.494,-82.6953"/>
</g>
<!-- Node9 -->
<g id="node9" class="node"><title>Node9</title>
<polygon fill="white" stroke="#bfbfbf" points="161,-0.5 161,-19.5 201,-19.5 201,-0.5 161,-0.5"/>
<text text-anchor="middle" x="181" y="-7.5" font-family="Helvetica,sans-Serif" font-size="10.00">glib.h</text>
</g>
<!-- Node8&#45;&gt;Node9 -->
<g id="edge8" class="edge"><title>Node8&#45;&gt;Node9</title>
<path fill="none" stroke="midnightblue" d="M83.6462,-112.097C82.1004,-98.6568 81.1408,-72.9578 93,-56 106.65,-36.4814 131.369,-24.8996 151.14,-18.386"/>
<polygon fill="midnightblue" stroke="midnightblue" points="152.382,-21.6673 160.943,-15.4266 150.359,-14.966 152.382,-21.6673"/>
</g>
<!-- Node10&#45;&gt;Node2 -->
<g id="edge15" class="edge"><title>Node10&#45;&gt;Node2</title>
<path fill="none" stroke="midnightblue" d="M145.866,-112.444C121.518,-103.438 82.9929,-89.1891 55.577,-79.049"/>
<polygon fill="midnightblue" stroke="midnightblue" points="56.6191,-75.7028 46.0259,-75.5164 54.1908,-82.2681 56.6191,-75.7028"/>
</g>
<!-- Node10&#45;&gt;Node5 -->
<g id="edge13" class="edge"><title>Node10&#45;&gt;Node5</title>
<path fill="none" stroke="midnightblue" d="M162.725,-112.083C157.358,-104.455 149.482,-93.2645 142.921,-83.9408"/>
<polygon fill="midnightblue" stroke="midnightblue" points="145.775,-81.9149 137.158,-75.7511 140.051,-85.9434 145.775,-81.9149"/>
</g>
<!-- Node10&#45;&gt;Node6 -->
<g id="edge14" class="edge"><title>Node10&#45;&gt;Node6</title>
<path fill="none" stroke="midnightblue" d="M199.106,-112.444C233.487,-102.672 289.588,-86.7275 325.374,-76.5567"/>
<polygon fill="midnightblue" stroke="midnightblue" points="326.676,-79.8256 335.338,-73.7251 324.762,-73.0923 326.676,-79.8256"/>
</g>
<!-- Node10&#45;&gt;Node7 -->
<g id="edge16" class="edge"><title>Node10&#45;&gt;Node7</title>
<path fill="none" stroke="midnightblue" d="M175.77,-112.083C181.562,-104.455 190.058,-93.2645 197.138,-83.9408"/>
<polygon fill="midnightblue" stroke="midnightblue" points="200.096,-85.8321 203.356,-75.7511 194.521,-81.5991 200.096,-85.8321"/>
</g>
<!-- Node11 -->
<g id="node11" class="node"><title>Node11</title>
<g id="a_node11"><a xlink:href="glib__util_8h.html" target="_top" xlink:title="glib_util.h">
<polygon fill="white" stroke="black" points="260.5,-56.5 260.5,-75.5 317.5,-75.5 317.5,-56.5 260.5,-56.5"/>
<text text-anchor="middle" x="289" y="-63.5" font-family="Helvetica,sans-Serif" font-size="10.00">glib_util.h</text>
</a>
</g>
</g>
<!-- Node10&#45;&gt;Node11 -->
<g id="edge17" class="edge"><title>Node10&#45;&gt;Node11</title>
<path fill="none" stroke="midnightblue" d="M188.014,-112.444C207.588,-103.636 238.308,-89.8116 260.729,-79.722"/>
<polygon fill="midnightblue" stroke="midnightblue" points="262.392,-82.8119 270.075,-75.5164 259.519,-76.4284 262.392,-82.8119"/>
</g>
<!-- Node11&#45;&gt;Node9 -->
<g id="edge18" class="edge"><title>Node11&#45;&gt;Node9</title>
<path fill="none" stroke="midnightblue" d="M271.648,-56.324C254.328,-47.6641 227.485,-34.2424 207.498,-24.249"/>
<polygon fill="midnightblue" stroke="midnightblue" points="208.819,-20.9962 198.309,-19.6545 205.688,-27.2572 208.819,-20.9962"/>
</g>
<!-- Node13 -->
<g id="node13" class="node"><title>Node13</title>
<polygon fill="white" stroke="#bfbfbf" points="400.5,-56.5 400.5,-75.5 461.5,-75.5 461.5,-56.5 400.5,-56.5"/>
<text text-anchor="middle" x="431" y="-63.5" font-family="Helvetica,sans-Serif" font-size="10.00">xf86drm.h</text>
</g>
<!-- Node12&#45;&gt;Node13 -->
<g id="edge20" class="edge"><title>Node12&#45;&gt;Node13</title>
<path fill="none" stroke="midnightblue" d="M431,-112.083C431,-105.006 431,-94.8611 431,-85.9865"/>
<polygon fill="midnightblue" stroke="midnightblue" points="434.5,-85.751 431,-75.7511 427.5,-85.7511 434.5,-85.751"/>
</g>
<!-- Node14 -->
<g id="node14" class="node"><title>Node14</title>
<polygon fill="white" stroke="#bfbfbf" points="479.5,-56.5 479.5,-75.5 566.5,-75.5 566.5,-56.5 479.5,-56.5"/>
<text text-anchor="middle" x="523" y="-63.5" font-family="Helvetica,sans-Serif" font-size="10.00">xf86drmMode.h</text>
</g>
<!-- Node12&#45;&gt;Node14 -->
<g id="edge21" class="edge"><title>Node12&#45;&gt;Node14</title>
<path fill="none" stroke="midnightblue" d="M445.781,-112.324C460.267,-103.822 482.573,-90.7288 499.493,-80.7975"/>
<polygon fill="midnightblue" stroke="midnightblue" points="501.403,-83.735 508.255,-75.6545 497.859,-77.6981 501.403,-83.735"/>
</g>
</g>
</svg>
