<?xml version="1.0" encoding="UTF-8" standalone="no"?>
<!DOCTYPE svg PUBLIC "-//W3C//DTD SVG 1.1//EN"
 "http://www.w3.org/Graphics/SVG/1.1/DTD/svg11.dtd">
<!-- Generated by graphviz version 2.38.0 (20140413.2041)
 -->
<!-- Title: report_multi_level_map Pages: 1 -->
<svg width="468pt" height="142pt"
 viewBox="0.00 0.00 468.00 142.00" xmlns="http://www.w3.org/2000/svg" xmlns:xlink="http://www.w3.org/1999/xlink">
<g id="graph0" class="graph" transform="scale(1 1) rotate(0) translate(4 138)">
<title>report_multi_level_map</title>
<polygon fill="white" stroke="none" points="-4,4 -4,-138 464,-138 464,4 -4,4"/>
<!-- Node1 -->
<g id="node1" class="node"><title>Node1</title>
<polygon fill="#bfbfbf" stroke="black" points="0,-57.5 0,-76.5 119,-76.5 119,-57.5 0,-57.5"/>
<text text-anchor="middle" x="59.5" y="-64.5" font-family="Helvetica,sans-Serif" font-size="10.00">report_multi_level_map</text>
</g>
<!-- Node2 -->
<g id="node2" class="node"><title>Node2</title>
<g id="a_node2"><a xlink:href="report__util_8c.html#a105b44822ec124d16c445268308b31d7" target="_top" xlink:title="rpt_int">
<polygon fill="white" stroke="black" points="155,-114.5 155,-133.5 197,-133.5 197,-114.5 155,-114.5"/>
<text text-anchor="middle" x="176" y="-121.5" font-family="Helvetica,sans-Serif" font-size="10.00">rpt_int</text>
</a>
</g>
</g>
<!-- Node1&#45;&gt;Node2 -->
<g id="edge1" class="edge"><title>Node1&#45;&gt;Node2</title>
<path fill="none" stroke="midnightblue" d="M79.6647,-76.5405C97.9936,-85.665 125.854,-99.5344 146.731,-109.927"/>
<polygon fill="midnightblue" stroke="midnightblue" points="145.261,-113.105 155.773,-114.428 148.38,-106.839 145.261,-113.105"/>
</g>
<!-- Node3 -->
<g id="node3" class="node"><title>Node3</title>
<g id="a_node3"><a xlink:href="report__util_8c.html#a271a0ddaafa0b5ff0630f85fa6bf25f4" target="_top" xlink:title="rpt_str">
<polygon fill="white" stroke="black" points="256,-76.5 256,-95.5 299,-95.5 299,-76.5 256,-76.5"/>
<text text-anchor="middle" x="277.5" y="-83.5" font-family="Helvetica,sans-Serif" font-size="10.00">rpt_str</text>
</a>
</g>
</g>
<!-- Node1&#45;&gt;Node3 -->
<g id="edge5" class="edge"><title>Node1&#45;&gt;Node3</title>
<path fill="none" stroke="midnightblue" d="M119.238,-72.1667C159.98,-75.7506 212.626,-80.3815 245.48,-83.2714"/>
<polygon fill="midnightblue" stroke="midnightblue" points="245.549,-86.7909 255.818,-84.1807 246.163,-79.8179 245.549,-86.7909"/>
</g>
<!-- Node5 -->
<g id="node5" class="node"><title>Node5</title>
<g id="a_node5"><a xlink:href="report__util_8c.html#ae58dfa6adb2e9f1dacce17f7b0732f26" target="_top" xlink:title="rpt_vstring">
<polygon fill="white" stroke="black" points="378,-38.5 378,-57.5 440,-57.5 440,-38.5 378,-38.5"/>
<text text-anchor="middle" x="409" y="-45.5" font-family="Helvetica,sans-Serif" font-size="10.00">rpt_vstring</text>
</a>
</g>
</g>
<!-- Node1&#45;&gt;Node5 -->
<g id="edge8" class="edge"><title>Node1&#45;&gt;Node5</title>
<path fill="none" stroke="midnightblue" d="M119.056,-63.7984C189.636,-59.9394 306.371,-53.5567 367.626,-50.2075"/>
<polygon fill="midnightblue" stroke="midnightblue" points="367.887,-53.6986 377.681,-49.6577 367.505,-46.709 367.887,-53.6986"/>
</g>
<!-- Node6 -->
<g id="node6" class="node"><title>Node6</title>
<g id="a_node6"><a xlink:href="report__util_8c.html#af5b53c7ac855765e65c7f485fb2a1193" target="_top" xlink:title="rpt_structure_loc">
<polygon fill="white" stroke="black" points="233,-0.5 233,-19.5 322,-19.5 322,-0.5 233,-0.5"/>
<text text-anchor="middle" x="277.5" y="-7.5" font-family="Helvetica,sans-Serif" font-size="10.00">rpt_structure_loc</text>
</a>
</g>
</g>
<!-- Node1&#45;&gt;Node6 -->
<g id="edge6" class="edge"><title>Node1&#45;&gt;Node6</title>
<path fill="none" stroke="midnightblue" d="M84.6784,-57.4968C103.597,-50.3204 130.685,-40.6116 155,-34 177.031,-28.0095 201.689,-22.8595 223.005,-18.8833"/>
<polygon fill="midnightblue" stroke="midnightblue" points="223.648,-22.3237 232.857,-17.0838 222.391,-15.4376 223.648,-22.3237"/>
</g>
<!-- Node2&#45;&gt;Node3 -->
<g id="edge2" class="edge"><title>Node2&#45;&gt;Node3</title>
<path fill="none" stroke="midnightblue" d="M197.135,-116.31C211.243,-110.922 230.346,-103.627 246.275,-97.5433"/>
<polygon fill="midnightblue" stroke="midnightblue" points="247.617,-100.778 255.71,-93.94 245.119,-94.2382 247.617,-100.778"/>
</g>
<!-- Node4 -->
<g id="node4" class="node"><title>Node4</title>
<g id="a_node4"><a xlink:href="report__util_8c.html#a71f4829c653e1d6101dfc1ae09f4796e" target="_top" xlink:title="rpt_cur_output_dest">
<polygon fill="white" stroke="black" points="358,-76.5 358,-95.5 460,-95.5 460,-76.5 358,-76.5"/>
<text text-anchor="middle" x="409" y="-83.5" font-family="Helvetica,sans-Serif" font-size="10.00">rpt_cur_output_dest</text>
</a>
</g>
</g>
<!-- Node3&#45;&gt;Node4 -->
<g id="edge3" class="edge"><title>Node3&#45;&gt;Node4</title>
<path fill="none" stroke="midnightblue" d="M299.02,-86C312.255,-86 330.213,-86 347.732,-86"/>
<polygon fill="midnightblue" stroke="midnightblue" points="347.957,-89.5001 357.957,-86 347.956,-82.5001 347.957,-89.5001"/>
</g>
<!-- Node3&#45;&gt;Node5 -->
<g id="edge4" class="edge"><title>Node3&#45;&gt;Node5</title>
<path fill="none" stroke="midnightblue" d="M299.02,-79.9788C317.533,-74.5463 345.288,-66.4021 368.154,-59.6924"/>
<polygon fill="midnightblue" stroke="midnightblue" points="369.328,-62.9954 377.938,-56.8213 367.357,-56.2786 369.328,-62.9954"/>
</g>
<!-- Node6&#45;&gt;Node5 -->
<g id="edge7" class="edge"><title>Node6&#45;&gt;Node5</title>
<path fill="none" stroke="midnightblue" d="M311.178,-19.589C328.501,-24.6721 349.92,-30.9573 368.205,-36.3228"/>
<polygon fill="midnightblue" stroke="midnightblue" points="367.414,-39.7382 377.995,-39.1955 369.385,-33.0214 367.414,-39.7382"/>
</g>
</g>
</svg>
