<?xml version="1.0" encoding="UTF-8" standalone="no"?>
<!DOCTYPE svg PUBLIC "-//W3C//DTD SVG 1.1//EN"
 "http://www.w3.org/Graphics/SVG/1.1/DTD/svg11.dtd">
<!-- Generated by graphviz version 2.38.0 (20140413.2041)
 -->
<!-- Title: multi_level_map.c Pages: 1 -->
<svg width="648pt" height="140pt"
 viewBox="0.00 0.00 648.00 140.00" xmlns="http://www.w3.org/2000/svg" xmlns:xlink="http://www.w3.org/1999/xlink">
<g id="graph0" class="graph" transform="scale(1 1) rotate(0) translate(4 136)">
<title>multi_level_map.c</title>
<polygon fill="white" stroke="none" points="-4,4 -4,-136 644,-136 644,4 -4,4"/>
<!-- Node1 -->
<g id="node1" class="node"><title>Node1</title>
<polygon fill="#bfbfbf" stroke="black" points="277,-112.5 277,-131.5 373,-131.5 373,-112.5 277,-112.5"/>
<text text-anchor="middle" x="325" y="-119.5" font-family="Helvetica,sans-Serif" font-size="10.00">multi_level_map.c</text>
</g>
<!-- Node2 -->
<g id="node2" class="node"><title>Node2</title>
<polygon fill="white" stroke="#bfbfbf" points="0,-56.5 0,-75.5 52,-75.5 52,-56.5 0,-56.5"/>
<text text-anchor="middle" x="26" y="-63.5" font-family="Helvetica,sans-Serif" font-size="10.00">assert.h</text>
</g>
<!-- Node1&#45;&gt;Node2 -->
<g id="edge1" class="edge"><title>Node1&#45;&gt;Node2</title>
<path fill="none" stroke="midnightblue" d="M276.656,-113.331C224.531,-104.893 139.181,-90.5811 66,-76 64.7434,-75.7496 63.4658,-75.49 62.1764,-75.2236"/>
<polygon fill="midnightblue" stroke="midnightblue" points="62.7217,-71.7611 52.2107,-73.0916 61.2572,-78.6062 62.7217,-71.7611"/>
</g>
<!-- Node3 -->
<g id="node3" class="node"><title>Node3</title>
<polygon fill="white" stroke="#bfbfbf" points="132,-0.5 132,-19.5 172,-19.5 172,-0.5 132,-0.5"/>
<text text-anchor="middle" x="152" y="-7.5" font-family="Helvetica,sans-Serif" font-size="10.00">glib.h</text>
</g>
<!-- Node1&#45;&gt;Node3 -->
<g id="edge2" class="edge"><title>Node1&#45;&gt;Node3</title>
<path fill="none" stroke="midnightblue" d="M276.83,-118.37C217.273,-113.994 121.046,-102.869 99,-76 84.5986,-58.4484 107.403,-38.1636 127.432,-24.9865"/>
<polygon fill="midnightblue" stroke="midnightblue" points="129.38,-27.897 136.013,-19.6355 125.675,-21.9574 129.38,-27.897"/>
</g>
<!-- Node4 -->
<g id="node4" class="node"><title>Node4</title>
<polygon fill="white" stroke="#bfbfbf" points="384.5,-56.5 384.5,-75.5 437.5,-75.5 437.5,-56.5 384.5,-56.5"/>
<text text-anchor="middle" x="411" y="-63.5" font-family="Helvetica,sans-Serif" font-size="10.00">stdarg.h</text>
</g>
<!-- Node1&#45;&gt;Node4 -->
<g id="edge3" class="edge"><title>Node1&#45;&gt;Node4</title>
<path fill="none" stroke="midnightblue" d="M338.817,-112.324C352.233,-103.9 372.824,-90.9709 388.586,-81.0741"/>
<polygon fill="midnightblue" stroke="midnightblue" points="390.609,-83.9364 397.217,-75.6545 386.887,-78.0081 390.609,-83.9364"/>
</g>
<!-- Node5 -->
<g id="node5" class="node"><title>Node5</title>
<polygon fill="white" stroke="#bfbfbf" points="190.5,-0.5 190.5,-19.5 247.5,-19.5 247.5,-0.5 190.5,-0.5"/>
<text text-anchor="middle" x="219" y="-7.5" font-family="Helvetica,sans-Serif" font-size="10.00">stdbool.h</text>
</g>
<!-- Node1&#45;&gt;Node5 -->
<g id="edge4" class="edge"><title>Node1&#45;&gt;Node5</title>
<path fill="none" stroke="midnightblue" d="M304.622,-112.497C288.407,-104.894 266.021,-92.4192 251,-76 238.687,-62.5405 230.054,-43.4693 224.885,-29.4647"/>
<polygon fill="midnightblue" stroke="midnightblue" points="228.164,-28.2381 221.602,-19.9198 221.544,-30.5145 228.164,-28.2381"/>
</g>
<!-- Node6 -->
<g id="node6" class="node"><title>Node6</title>
<polygon fill="white" stroke="#bfbfbf" points="456,-56.5 456,-75.5 508,-75.5 508,-56.5 456,-56.5"/>
<text text-anchor="middle" x="482" y="-63.5" font-family="Helvetica,sans-Serif" font-size="10.00">stddef.h</text>
</g>
<!-- Node1&#45;&gt;Node6 -->
<g id="edge5" class="edge"><title>Node1&#45;&gt;Node6</title>
<path fill="none" stroke="midnightblue" d="M349.877,-112.444C376.289,-103.359 418.215,-88.9388 447.742,-78.7831"/>
<polygon fill="midnightblue" stroke="midnightblue" points="448.921,-82.0787 457.239,-75.5164 446.645,-75.4593 448.921,-82.0787"/>
</g>
<!-- Node7 -->
<g id="node7" class="node"><title>Node7</title>
<polygon fill="white" stroke="#bfbfbf" points="348,-0.5 348,-19.5 394,-19.5 394,-0.5 348,-0.5"/>
<text text-anchor="middle" x="371" y="-7.5" font-family="Helvetica,sans-Serif" font-size="10.00">stdio.h</text>
</g>
<!-- Node1&#45;&gt;Node7 -->
<g id="edge6" class="edge"><title>Node1&#45;&gt;Node7</title>
<path fill="none" stroke="midnightblue" d="M328.61,-112.368C336.1,-94.4563 353.468,-52.9233 363.494,-28.9482"/>
<polygon fill="midnightblue" stroke="midnightblue" points="366.778,-30.1676 367.407,-19.5914 360.32,-27.4669 366.778,-30.1676"/>
</g>
<!-- Node8 -->
<g id="node8" class="node"><title>Node8</title>
<polygon fill="white" stroke="#bfbfbf" points="526.5,-56.5 526.5,-75.5 573.5,-75.5 573.5,-56.5 526.5,-56.5"/>
<text text-anchor="middle" x="550" y="-63.5" font-family="Helvetica,sans-Serif" font-size="10.00">stdlib.h</text>
</g>
<!-- Node1&#45;&gt;Node8 -->
<g id="edge7" class="edge"><title>Node1&#45;&gt;Node8</title>
<path fill="none" stroke="midnightblue" d="M363.349,-112.44C400.128,-104.135 457.454,-90.9427 516.381,-76.0874"/>
<polygon fill="midnightblue" stroke="midnightblue" points="517.4,-79.44 526.234,-73.5915 515.681,-72.6543 517.4,-79.44"/>
</g>
<!-- Node9 -->
<g id="node9" class="node"><title>Node9</title>
<polygon fill="white" stroke="#bfbfbf" points="592,-56.5 592,-75.5 640,-75.5 640,-56.5 592,-56.5"/>
<text text-anchor="middle" x="616" y="-63.5" font-family="Helvetica,sans-Serif" font-size="10.00">string.h</text>
</g>
<!-- Node1&#45;&gt;Node9 -->
<g id="edge8" class="edge"><title>Node1&#45;&gt;Node9</title>
<path fill="none" stroke="midnightblue" d="M373.291,-113.959C423.193,-106.376 503.517,-93.312 581.874,-76.082"/>
<polygon fill="midnightblue" stroke="midnightblue" points="582.913,-79.4364 591.914,-73.8484 581.393,-72.6034 582.913,-79.4364"/>
</g>
<!-- Node10 -->
<g id="node10" class="node"><title>Node10</title>
<g id="a_node10"><a xlink:href="report__util_8h.html" target="_top" xlink:title="report_util.h">
<polygon fill="white" stroke="black" points="260.5,-56.5 260.5,-75.5 327.5,-75.5 327.5,-56.5 260.5,-56.5"/>
<text text-anchor="middle" x="294" y="-63.5" font-family="Helvetica,sans-Serif" font-size="10.00">report_util.h</text>
</a>
</g>
</g>
<!-- Node1&#45;&gt;Node10 -->
<g id="edge9" class="edge"><title>Node1&#45;&gt;Node10</title>
<path fill="none" stroke="midnightblue" d="M319.881,-112.083C315.592,-104.613 309.342,-93.7244 304.058,-84.5199"/>
<polygon fill="midnightblue" stroke="midnightblue" points="307.038,-82.6811 299.024,-75.7511 300.967,-86.1662 307.038,-82.6811"/>
</g>
<!-- Node12 -->
<g id="node12" class="node"><title>Node12</title>
<g id="a_node12"><a xlink:href="multi__level__map_8h.html" target="_top" xlink:title="multi_level_map.h">
<polygon fill="white" stroke="black" points="108,-56.5 108,-75.5 204,-75.5 204,-56.5 108,-56.5"/>
<text text-anchor="middle" x="156" y="-63.5" font-family="Helvetica,sans-Serif" font-size="10.00">multi_level_map.h</text>
</a>
</g>
</g>
<!-- Node1&#45;&gt;Node12 -->
<g id="edge14" class="edge"><title>Node1&#45;&gt;Node12</title>
<path fill="none" stroke="midnightblue" d="M298.221,-112.444C269.667,-103.32 224.267,-88.8133 192.463,-78.6509"/>
<polygon fill="midnightblue" stroke="midnightblue" points="193.244,-75.2262 182.653,-75.5164 191.114,-81.8941 193.244,-75.2262"/>
</g>
<!-- Node10&#45;&gt;Node3 -->
<g id="edge10" class="edge"><title>Node10&#45;&gt;Node3</title>
<path fill="none" stroke="midnightblue" d="M271.5,-56.4435C247.229,-47.2139 208.475,-32.4764 181.713,-22.2994"/>
<polygon fill="midnightblue" stroke="midnightblue" points="182.69,-18.9264 172.099,-18.6433 180.202,-25.4693 182.69,-18.9264"/>
</g>
<!-- Node10&#45;&gt;Node5 -->
<g id="edge12" class="edge"><title>Node10&#45;&gt;Node5</title>
<path fill="none" stroke="midnightblue" d="M281.95,-56.324C270.537,-48.1066 253.169,-35.6017 239.565,-25.8069"/>
<polygon fill="midnightblue" stroke="midnightblue" points="241.43,-22.8366 231.269,-19.8339 237.34,-28.5174 241.43,-22.8366"/>
</g>
<!-- Node10&#45;&gt;Node7 -->
<g id="edge11" class="edge"><title>Node10&#45;&gt;Node7</title>
<path fill="none" stroke="midnightblue" d="M306.371,-56.324C318.158,-48.0577 336.132,-35.4527 350.136,-25.6322"/>
<polygon fill="midnightblue" stroke="midnightblue" points="352.482,-28.2619 358.659,-19.6545 348.462,-22.5307 352.482,-28.2619"/>
</g>
<!-- Node11 -->
<g id="node11" class="node"><title>Node11</title>
<g id="a_node11"><a xlink:href="coredefs_8h.html" target="_top" xlink:title="coredefs.h">
<polygon fill="white" stroke="black" points="266,-0.5 266,-19.5 330,-19.5 330,-0.5 266,-0.5"/>
<text text-anchor="middle" x="298" y="-7.5" font-family="Helvetica,sans-Serif" font-size="10.00">coredefs.h</text>
</a>
</g>
</g>
<!-- Node10&#45;&gt;Node11 -->
<g id="edge13" class="edge"><title>Node10&#45;&gt;Node11</title>
<path fill="none" stroke="midnightblue" d="M294.661,-56.083C295.185,-49.0059 295.936,-38.8611 296.594,-29.9865"/>
<polygon fill="midnightblue" stroke="midnightblue" points="300.103,-29.9823 297.352,-19.7511 293.123,-29.4652 300.103,-29.9823"/>
</g>
<!-- Node12&#45;&gt;Node3 -->
<g id="edge15" class="edge"><title>Node12&#45;&gt;Node3</title>
<path fill="none" stroke="midnightblue" d="M155.339,-56.083C154.815,-49.0059 154.064,-38.8611 153.406,-29.9865"/>
<polygon fill="midnightblue" stroke="midnightblue" points="156.877,-29.4652 152.648,-19.7511 149.897,-29.9823 156.877,-29.4652"/>
</g>
</g>
</svg>
