<?xml version="1.0" encoding="UTF-8" standalone="no"?>
<!DOCTYPE svg PUBLIC "-//W3C//DTD SVG 1.1//EN"
 "http://www.w3.org/Graphics/SVG/1.1/DTD/svg11.dtd">
<!-- Generated by graphviz version 2.38.0 (20140413.2041)
 -->
<!-- Title: report_mlm_level Pages: 1 -->
<svg width="442pt" height="142pt"
 viewBox="0.00 0.00 442.00 142.00" xmlns="http://www.w3.org/2000/svg" xmlns:xlink="http://www.w3.org/1999/xlink">
<g id="graph0" class="graph" transform="scale(1 1) rotate(0) translate(4 138)">
<title>report_mlm_level</title>
<polygon fill="white" stroke="none" points="-4,4 -4,-138 438,-138 438,4 -4,4"/>
<!-- Node1 -->
<g id="node1" class="node"><title>Node1</title>
<polygon fill="#bfbfbf" stroke="black" points="0,-57.5 0,-76.5 93,-76.5 93,-57.5 0,-57.5"/>
<text text-anchor="middle" x="46.5" y="-64.5" font-family="Helvetica,sans-Serif" font-size="10.00">report_mlm_level</text>
</g>
<!-- Node2 -->
<g id="node2" class="node"><title>Node2</title>
<g id="a_node2"><a xlink:href="report__util_8c.html#a105b44822ec124d16c445268308b31d7" target="_top" xlink:title="rpt_int">
<polygon fill="white" stroke="black" points="129,-114.5 129,-133.5 171,-133.5 171,-114.5 129,-114.5"/>
<text text-anchor="middle" x="150" y="-121.5" font-family="Helvetica,sans-Serif" font-size="10.00">rpt_int</text>
</a>
</g>
</g>
<!-- Node1&#45;&gt;Node2 -->
<g id="edge1" class="edge"><title>Node1&#45;&gt;Node2</title>
<path fill="none" stroke="midnightblue" d="M64.7181,-76.6693C80.7818,-85.6903 104.958,-99.2673 123.304,-109.57"/>
<polygon fill="midnightblue" stroke="midnightblue" points="121.603,-112.629 132.036,-114.474 125.031,-106.525 121.603,-112.629"/>
</g>
<!-- Node3 -->
<g id="node3" class="node"><title>Node3</title>
<g id="a_node3"><a xlink:href="report__util_8c.html#a271a0ddaafa0b5ff0630f85fa6bf25f4" target="_top" xlink:title="rpt_str">
<polygon fill="white" stroke="black" points="230,-76.5 230,-95.5 273,-95.5 273,-76.5 230,-76.5"/>
<text text-anchor="middle" x="251.5" y="-83.5" font-family="Helvetica,sans-Serif" font-size="10.00">rpt_str</text>
</a>
</g>
</g>
<!-- Node1&#45;&gt;Node3 -->
<g id="edge5" class="edge"><title>Node1&#45;&gt;Node3</title>
<path fill="none" stroke="midnightblue" d="M93.0572,-71.264C131.663,-74.8773 185.972,-79.9604 219.663,-83.1138"/>
<polygon fill="midnightblue" stroke="midnightblue" points="219.549,-86.6183 229.831,-84.0655 220.201,-79.6487 219.549,-86.6183"/>
</g>
<!-- Node5 -->
<g id="node5" class="node"><title>Node5</title>
<g id="a_node5"><a xlink:href="report__util_8c.html#ae58dfa6adb2e9f1dacce17f7b0732f26" target="_top" xlink:title="rpt_vstring">
<polygon fill="white" stroke="black" points="352,-38.5 352,-57.5 414,-57.5 414,-38.5 352,-38.5"/>
<text text-anchor="middle" x="383" y="-45.5" font-family="Helvetica,sans-Serif" font-size="10.00">rpt_vstring</text>
</a>
</g>
</g>
<!-- Node1&#45;&gt;Node5 -->
<g id="edge8" class="edge"><title>Node1&#45;&gt;Node5</title>
<path fill="none" stroke="midnightblue" d="M93.3094,-64.398C158.937,-60.6703 278.689,-53.8682 341.34,-50.3095"/>
<polygon fill="midnightblue" stroke="midnightblue" points="341.833,-53.7872 351.619,-49.7257 341.436,-46.7985 341.833,-53.7872"/>
</g>
<!-- Node6 -->
<g id="node6" class="node"><title>Node6</title>
<g id="a_node6"><a xlink:href="report__util_8c.html#af5b53c7ac855765e65c7f485fb2a1193" target="_top" xlink:title="rpt_structure_loc">
<polygon fill="white" stroke="black" points="207,-0.5 207,-19.5 296,-19.5 296,-0.5 207,-0.5"/>
<text text-anchor="middle" x="251.5" y="-7.5" font-family="Helvetica,sans-Serif" font-size="10.00">rpt_structure_loc</text>
</a>
</g>
</g>
<!-- Node1&#45;&gt;Node6 -->
<g id="edge6" class="edge"><title>Node1&#45;&gt;Node6</title>
<path fill="none" stroke="midnightblue" d="M67.8812,-57.4861C84.1376,-50.208 107.643,-40.3704 129,-34 150.967,-27.4477 175.711,-22.1903 197.108,-18.2858"/>
<polygon fill="midnightblue" stroke="midnightblue" points="197.762,-21.7245 206.998,-16.5327 196.54,-14.8319 197.762,-21.7245"/>
</g>
<!-- Node2&#45;&gt;Node3 -->
<g id="edge2" class="edge"><title>Node2&#45;&gt;Node3</title>
<path fill="none" stroke="midnightblue" d="M171.135,-116.31C185.243,-110.922 204.346,-103.627 220.275,-97.5433"/>
<polygon fill="midnightblue" stroke="midnightblue" points="221.617,-100.778 229.71,-93.94 219.119,-94.2382 221.617,-100.778"/>
</g>
<!-- Node4 -->
<g id="node4" class="node"><title>Node4</title>
<g id="a_node4"><a xlink:href="report__util_8c.html#a71f4829c653e1d6101dfc1ae09f4796e" target="_top" xlink:title="rpt_cur_output_dest">
<polygon fill="white" stroke="black" points="332,-76.5 332,-95.5 434,-95.5 434,-76.5 332,-76.5"/>
<text text-anchor="middle" x="383" y="-83.5" font-family="Helvetica,sans-Serif" font-size="10.00">rpt_cur_output_dest</text>
</a>
</g>
</g>
<!-- Node3&#45;&gt;Node4 -->
<g id="edge3" class="edge"><title>Node3&#45;&gt;Node4</title>
<path fill="none" stroke="midnightblue" d="M273.02,-86C286.255,-86 304.213,-86 321.732,-86"/>
<polygon fill="midnightblue" stroke="midnightblue" points="321.957,-89.5001 331.957,-86 321.956,-82.5001 321.957,-89.5001"/>
</g>
<!-- Node3&#45;&gt;Node5 -->
<g id="edge4" class="edge"><title>Node3&#45;&gt;Node5</title>
<path fill="none" stroke="midnightblue" d="M273.02,-79.9788C291.533,-74.5463 319.288,-66.4021 342.154,-59.6924"/>
<polygon fill="midnightblue" stroke="midnightblue" points="343.328,-62.9954 351.938,-56.8213 341.357,-56.2786 343.328,-62.9954"/>
</g>
<!-- Node6&#45;&gt;Node5 -->
<g id="edge7" class="edge"><title>Node6&#45;&gt;Node5</title>
<path fill="none" stroke="midnightblue" d="M285.178,-19.589C302.501,-24.6721 323.92,-30.9573 342.205,-36.3228"/>
<polygon fill="midnightblue" stroke="midnightblue" points="341.414,-39.7382 351.995,-39.1955 343.385,-33.0214 341.414,-39.7382"/>
</g>
</g>
</svg>
