<?xml version="1.0" encoding="UTF-8" standalone="no"?>
<!DOCTYPE svg PUBLIC "-//W3C//DTD SVG 1.1//EN"
 "http://www.w3.org/Graphics/SVG/1.1/DTD/svg11.dtd">
<!-- Generated by graphviz version 2.38.0 (20140413.2041)
 -->
<!-- Title: mlm_get_names2 Pages: 1 -->
<svg width="631pt" height="123pt"
 viewBox="0.00 0.00 631.00 123.00" xmlns="http://www.w3.org/2000/svg" xmlns:xlink="http://www.w3.org/1999/xlink">
<g id="graph0" class="graph" transform="scale(1 1) rotate(0) translate(4 119)">
<title>mlm_get_names2</title>
<polygon fill="white" stroke="none" points="-4,4 -4,-119 627,-119 627,4 -4,4"/>
<!-- Node1 -->
<g id="node1" class="node"><title>Node1</title>
<polygon fill="#bfbfbf" stroke="black" points="0,-57.5 0,-76.5 97,-76.5 97,-57.5 0,-57.5"/>
<text text-anchor="middle" x="48.5" y="-64.5" font-family="Helvetica,sans-Serif" font-size="10.00">mlm_get_names2</text>
</g>
<!-- Node2 -->
<g id="node2" class="node"><title>Node2</title>
<g id="a_node2"><a xlink:href="device__id__util_8h.html#a85a6b6ac91cf1e02689aeb0a4ed220ab" target="_top" xlink:title="devid_get_pci_names">
<polygon fill="white" stroke="black" points="134.5,-95.5 134.5,-114.5 250.5,-114.5 250.5,-95.5 134.5,-95.5"/>
<text text-anchor="middle" x="192.5" y="-102.5" font-family="Helvetica,sans-Serif" font-size="10.00">devid_get_pci_names</text>
</a>
</g>
</g>
<!-- Node1&#45;&gt;Node2 -->
<g id="edge1" class="edge"><title>Node1&#45;&gt;Node2</title>
<path fill="none" stroke="midnightblue" d="M94.9929,-79.1742C114.628,-84.4287 137.266,-90.4866 155.679,-95.4141"/>
<polygon fill="midnightblue" stroke="midnightblue" points="95.8975,-75.7931 85.3326,-76.589 94.0879,-82.5552 95.8975,-75.7931"/>
</g>
<!-- Node3 -->
<g id="node3" class="node"><title>Node3</title>
<g id="a_node3"><a xlink:href="device__id__util_8h.html#a2f7a8b9367caa4d13860813b67ab79a8" target="_top" xlink:title="devid_get_usb_names">
<polygon fill="white" stroke="black" points="133,-57.5 133,-76.5 252,-76.5 252,-57.5 133,-57.5"/>
<text text-anchor="middle" x="192.5" y="-64.5" font-family="Helvetica,sans-Serif" font-size="10.00">devid_get_usb_names</text>
</a>
</g>
</g>
<!-- Node1&#45;&gt;Node3 -->
<g id="edge2" class="edge"><title>Node1&#45;&gt;Node3</title>
<path fill="none" stroke="midnightblue" d="M107.295,-67C115.72,-67 124.403,-67 132.845,-67"/>
<polygon fill="midnightblue" stroke="midnightblue" points="107.179,-63.5001 97.179,-67 107.179,-70.5001 107.179,-63.5001"/>
</g>
<!-- Node4 -->
<g id="node4" class="node"><title>Node4</title>
<g id="a_node4"><a xlink:href="multi__level__map_8h.html#a6dda76559a59f8ed668cb83c6fe5a494" target="_top" xlink:title="mlm_get_names">
<polygon fill="white" stroke="black" points="147,-19.5 147,-38.5 238,-38.5 238,-19.5 147,-19.5"/>
<text text-anchor="middle" x="192.5" y="-26.5" font-family="Helvetica,sans-Serif" font-size="10.00">mlm_get_names</text>
</a>
</g>
</g>
<!-- Node1&#45;&gt;Node4 -->
<g id="edge3" class="edge"><title>Node1&#45;&gt;Node4</title>
<path fill="none" stroke="midnightblue" d="M94.9929,-54.8258C114.628,-49.5713 137.266,-43.5134 155.679,-38.5859"/>
<polygon fill="midnightblue" stroke="midnightblue" points="94.0879,-51.4448 85.3326,-57.411 95.8975,-58.2069 94.0879,-51.4448"/>
</g>
<!-- Node5 -->
<g id="node5" class="node"><title>Node5</title>
<g id="a_node5"><a xlink:href="device__id__util_8h.html#ae6f5ae13af77d1e6a46dbb4ccd72dbaf" target="_top" xlink:title="devid_usage_code_id_name">
<polygon fill="white" stroke="black" points="295.5,-38.5 295.5,-57.5 444.5,-57.5 444.5,-38.5 295.5,-38.5"/>
<text text-anchor="middle" x="370" y="-45.5" font-family="Helvetica,sans-Serif" font-size="10.00">devid_usage_code_id_name</text>
</a>
</g>
</g>
<!-- Node4&#45;&gt;Node5 -->
<g id="edge4" class="edge"><title>Node4&#45;&gt;Node5</title>
<path fill="none" stroke="midnightblue" d="M248.297,-34.9325C263.205,-36.5464 279.596,-38.321 295.364,-40.028"/>
<polygon fill="midnightblue" stroke="midnightblue" points="248.559,-31.4404 238.24,-33.8437 247.805,-38.3998 248.559,-31.4404"/>
</g>
<!-- Node7 -->
<g id="node7" class="node"><title>Node7</title>
<g id="a_node7"><a xlink:href="device__id__util_8h.html#a0c9df7722675858da772ee48725bfb69" target="_top" xlink:title="devid_usage_code_page_name">
<polygon fill="white" stroke="black" points="288,-0.5 288,-19.5 452,-19.5 452,-0.5 288,-0.5"/>
<text text-anchor="middle" x="370" y="-7.5" font-family="Helvetica,sans-Serif" font-size="10.00">devid_usage_code_page_name</text>
</a>
</g>
</g>
<!-- Node4&#45;&gt;Node7 -->
<g id="edge6" class="edge"><title>Node4&#45;&gt;Node7</title>
<path fill="none" stroke="midnightblue" d="M248.469,-23.049C260.968,-21.6958 274.503,-20.2304 287.835,-18.7871"/>
<polygon fill="midnightblue" stroke="midnightblue" points="247.805,-19.6003 238.24,-24.1563 248.559,-26.5596 247.805,-19.6003"/>
</g>
<!-- Node6 -->
<g id="node6" class="node"><title>Node6</title>
<g id="a_node6"><a xlink:href="device__id__util_8h.html#a863f4affe8b8f9dbe067ef8060deb114" target="_top" xlink:title="devid_usage_code_name\l_by_extended_id">
<polygon fill="white" stroke="black" points="488,-33 488,-63 623,-63 623,-33 488,-33"/>
<text text-anchor="start" x="496" y="-51" font-family="Helvetica,sans-Serif" font-size="10.00">devid_usage_code_name</text>
<text text-anchor="middle" x="555.5" y="-40" font-family="Helvetica,sans-Serif" font-size="10.00">_by_extended_id</text>
</a>
</g>
</g>
<!-- Node5&#45;&gt;Node6 -->
<g id="edge5" class="edge"><title>Node5&#45;&gt;Node6</title>
<path fill="none" stroke="midnightblue" d="M454.686,-48C465.761,-48 476.993,-48 487.731,-48"/>
<polygon fill="midnightblue" stroke="midnightblue" points="454.579,-44.5001 444.579,-48 454.579,-51.5001 454.579,-44.5001"/>
</g>
</g>
</svg>
