<?xml version="1.0" encoding="UTF-8" standalone="no"?>
<!DOCTYPE svg PUBLIC "-//W3C//DTD SVG 1.1//EN"
 "http://www.w3.org/Graphics/SVG/1.1/DTD/svg11.dtd">
<!-- Generated by graphviz version 2.38.0 (20140413.2041)
 -->
<!-- Title: mlm_get_names2 Pages: 1 -->
<!--zoomable 129 -->
<svg id="main" version="1.1" xmlns="http://www.w3.org/2000/svg" xmlns:xlink="http://www.w3.org/1999/xlink" xml:space="preserve" onload="init(evt)">
<style type="text/css"><![CDATA[
.edge:hover path { stroke: red; }
.edge:hover polygon { stroke: red; fill: red; }
]]></style>
<script type="text/javascript"><![CDATA[
var edges = document.getElementsByTagName('g');
if (edges && edges.length) {
  for (var i=0;i<edges.length;i++) {
    if (edges[i].id.substr(0,4)=='edge') {
      edges[i].setAttribute('class','edge');
    }
  }
}
]]></script>
        <defs>
                <circle id="rim" cx="0" cy="0" r="7"/>
                <circle id="rim2" cx="0" cy="0" r="3.5"/>
                <g id="zoomPlus">
                        <use xlink:href="#rim" fill="#404040">
                                <set attributeName="fill" to="#808080" begin="zoomplus.mouseover" end="zoomplus.mouseout"/>
                        </use>
                        <path d="M-4,0h8M0,-4v8" fill="none" stroke="white" stroke-width="1.5" pointer-events="none"/>
                </g>
                <g id="zoomMin">
                        <use xlink:href="#rim" fill="#404040">
                                <set attributeName="fill" to="#808080" begin="zoomminus.mouseover" end="zoomminus.mouseout"/>
                        </use>
                        <path d="M-4,0h8" fill="none" stroke="white" stroke-width="1.5" pointer-events="none"/>
                </g>
                <g id="dirArrow">
                        <path fill="none" stroke="white" stroke-width="1.5" d="M0,-3.0v7 M-2.5,-0.5L0,-3.0L2.5,-0.5"/>
                </g>
               <g id="resetDef">
                       <use xlink:href="#rim2" fill="#404040">
                               <set attributeName="fill" to="#808080" begin="reset.mouseover" end="reset.mouseout"/>
                       </use>
               </g>
        </defs>

<script type="text/javascript">
var viewWidth = 631;
var viewHeight = 129;
var sectionId = 'dynsection-3';
</script>
<script xlink:href="svgpan.js"/>
<svg id="graph" class="graph">
<g id="viewport">
<title>mlm_get_names2</title>
<polygon fill="white" stroke="none" points="-4,4 -4,-124.5 627,-124.5 627,4 -4,4"/>
<!-- Node1 -->
<g id="node1" class="node"><title>Node1</title>
<polygon fill="#bfbfbf" stroke="black" points="0,-63 0,-82 97,-82 97,-63 0,-63"/>
<text text-anchor="middle" x="48.5" y="-70" font-family="Helvetica,sans-Serif" font-size="10.00">mlm_get_names2</text>
</g>
<!-- Node2 -->
<g id="node2" class="node"><title>Node2</title>
<g id="a_node2"><a xlink:href="device__id__util_8h.html#a85a6b6ac91cf1e02689aeb0a4ed220ab" target="_top" xlink:title="devid_get_pci_names">
<polygon fill="white" stroke="black" points="134.5,-101 134.5,-120 250.5,-120 250.5,-101 134.5,-101"/>
<text text-anchor="middle" x="192.5" y="-108" font-family="Helvetica,sans-Serif" font-size="10.00">devid_get_pci_names</text>
</a>
</g>
</g>
<!-- Node1&#45;&gt;Node2 -->
<g id="edge1" class="edge"><title>Node1&#45;&gt;Node2</title>
<path fill="none" stroke="midnightblue" d="M94.9929,-84.6742C114.628,-89.9287 137.266,-95.9866 155.679,-100.914"/>
<polygon fill="midnightblue" stroke="midnightblue" points="95.8975,-81.2931 85.3326,-82.089 94.0879,-88.0552 95.8975,-81.2931"/>
</g>
<!-- Node3 -->
<g id="node3" class="node"><title>Node3</title>
<g id="a_node3"><a xlink:href="device__id__util_8h.html#a2f7a8b9367caa4d13860813b67ab79a8" target="_top" xlink:title="devid_get_usb_names">
<polygon fill="white" stroke="black" points="133,-63 133,-82 252,-82 252,-63 133,-63"/>
<text text-anchor="middle" x="192.5" y="-70" font-family="Helvetica,sans-Serif" font-size="10.00">devid_get_usb_names</text>
</a>
</g>
</g>
<!-- Node1&#45;&gt;Node3 -->
<g id="edge2" class="edge"><title>Node1&#45;&gt;Node3</title>
<path fill="none" stroke="midnightblue" d="M107.295,-72.5C115.72,-72.5 124.403,-72.5 132.845,-72.5"/>
<polygon fill="midnightblue" stroke="midnightblue" points="107.179,-69.0001 97.179,-72.5 107.179,-76.0001 107.179,-69.0001"/>
</g>
<!-- Node4 -->
<g id="node4" class="node"><title>Node4</title>
<g id="a_node4"><a xlink:href="multi__level__map_8h.html#a6dda76559a59f8ed668cb83c6fe5a494" target="_top" xlink:title="mlm_get_names">
<polygon fill="white" stroke="black" points="147,-25 147,-44 238,-44 238,-25 147,-25"/>
<text text-anchor="middle" x="192.5" y="-32" font-family="Helvetica,sans-Serif" font-size="10.00">mlm_get_names</text>
</a>
</g>
</g>
<!-- Node1&#45;&gt;Node4 -->
<g id="edge3" class="edge"><title>Node1&#45;&gt;Node4</title>
<path fill="none" stroke="midnightblue" d="M94.9929,-60.3258C114.628,-55.0713 137.266,-49.0134 155.679,-44.0859"/>
<polygon fill="midnightblue" stroke="midnightblue" points="94.0879,-56.9448 85.3326,-62.911 95.8975,-63.7069 94.0879,-56.9448"/>
</g>
<!-- Node5 -->
<g id="node5" class="node"><title>Node5</title>
<g id="a_node5"><a xlink:href="device__id__util_8h.html#a0c9df7722675858da772ee48725bfb69" target="_top" xlink:title="devid_usage_code_page_name">
<polygon fill="white" stroke="black" points="288,-44 288,-63 452,-63 452,-44 288,-44"/>
<text text-anchor="middle" x="370" y="-51" font-family="Helvetica,sans-Serif" font-size="10.00">devid_usage_code_page_name</text>
</a>
</g>
</g>
<!-- Node4&#45;&gt;Node5 -->
<g id="edge4" class="edge"><title>Node4&#45;&gt;Node5</title>
<path fill="none" stroke="midnightblue" d="M248.469,-40.451C260.968,-41.8042 274.503,-43.2696 287.835,-44.7129"/>
<polygon fill="midnightblue" stroke="midnightblue" points="248.559,-36.9404 238.24,-39.3437 247.805,-43.8997 248.559,-36.9404"/>
</g>
<!-- Node6 -->
<g id="node6" class="node"><title>Node6</title>
<g id="a_node6"><a xlink:href="device__id__util_8h.html#ae6f5ae13af77d1e6a46dbb4ccd72dbaf" target="_top" xlink:title="devid_usage_code_id_name">
<polygon fill="white" stroke="black" points="295.5,-6 295.5,-25 444.5,-25 444.5,-6 295.5,-6"/>
<text text-anchor="middle" x="370" y="-13" font-family="Helvetica,sans-Serif" font-size="10.00">devid_usage_code_id_name</text>
</a>
</g>
</g>
<!-- Node4&#45;&gt;Node6 -->
<g id="edge5" class="edge"><title>Node4&#45;&gt;Node6</title>
<path fill="none" stroke="midnightblue" d="M248.297,-28.5675C263.205,-26.9536 279.596,-25.179 295.364,-23.472"/>
<polygon fill="midnightblue" stroke="midnightblue" points="247.805,-25.1002 238.24,-29.6563 248.559,-32.0596 247.805,-25.1002"/>
</g>
<!-- Node7 -->
<g id="node7" class="node"><title>Node7</title>
<g id="a_node7"><a xlink:href="device__id__util_8h.html#a863f4affe8b8f9dbe067ef8060deb114" target="_top" xlink:title="devid_usage_code_name\l_by_extended_id">
<polygon fill="white" stroke="black" points="488,-0.5 488,-30.5 623,-30.5 623,-0.5 488,-0.5"/>
<text text-anchor="start" x="496" y="-18.5" font-family="Helvetica,sans-Serif" font-size="10.00">devid_usage_code_name</text>
<text text-anchor="middle" x="555.5" y="-7.5" font-family="Helvetica,sans-Serif" font-size="10.00">_by_extended_id</text>
</a>
</g>
</g>
<!-- Node6&#45;&gt;Node7 -->
<g id="edge6" class="edge"><title>Node6&#45;&gt;Node7</title>
<path fill="none" stroke="midnightblue" d="M454.686,-15.5C465.761,-15.5 476.993,-15.5 487.731,-15.5"/>
<polygon fill="midnightblue" stroke="midnightblue" points="454.579,-12.0001 444.579,-15.5 454.579,-19.0001 454.579,-12.0001"/>
</g>
</g>
</svg>
        <g id="navigator" transform="translate(0 0)" fill="#404254">
                <rect fill="#f2f5e9" fill-opacity="0.5" stroke="#606060" stroke-width=".5" x="0" y="0" width="60" height="60"/>
                <use id="zoomplus" xlink:href="#zoomPlus" x="17" y="9" onmousedown="handleZoom(evt,'in')"/>
                <use id="zoomminus" xlink:href="#zoomMin" x="42" y="9" onmousedown="handleZoom(evt,'out')"/>
                <use id="reset" xlink:href="#resetDef" x="30" y="36" onmousedown="handleReset()"/>
                <g id="arrowUp" xlink:href="#dirArrow" transform="translate(30 24)" onmousedown="handlePan(0,-1)">
                  <use xlink:href="#rim" fill="#404040">
                        <set attributeName="fill" to="#808080" begin="arrowUp.mouseover" end="arrowUp.mouseout"/>
                  </use>
                  <path fill="none" stroke="white" stroke-width="1.5" d="M0,-3.0v7 M-2.5,-0.5L0,-3.0L2.5,-0.5"/>
                </g>
                <g id="arrowRight" xlink:href="#dirArrow" transform="rotate(90) translate(36 -43)" onmousedown="handlePan(1,0)">
                  <use xlink:href="#rim" fill="#404040">
                        <set attributeName="fill" to="#808080" begin="arrowRight.mouseover" end="arrowRight.mouseout"/>
                  </use>
                  <path fill="none" stroke="white" stroke-width="1.5" d="M0,-3.0v7 M-2.5,-0.5L0,-3.0L2.5,-0.5"/>
                </g>
                <g id="arrowDown" xlink:href="#dirArrow" transform="rotate(180) translate(-30 -48)" onmousedown="handlePan(0,1)">
                  <use xlink:href="#rim" fill="#404040">
                        <set attributeName="fill" to="#808080" begin="arrowDown.mouseover" end="arrowDown.mouseout"/>
                  </use>
                  <path fill="none" stroke="white" stroke-width="1.5" d="M0,-3.0v7 M-2.5,-0.5L0,-3.0L2.5,-0.5"/>
                </g>
                <g id="arrowLeft" xlink:href="#dirArrow" transform="rotate(270) translate(-36 17)" onmousedown="handlePan(-1,0)">
                  <use xlink:href="#rim" fill="#404040">
                        <set attributeName="fill" to="#808080" begin="arrowLeft.mouseover" end="arrowLeft.mouseout"/>
                  </use>
                  <path fill="none" stroke="white" stroke-width="1.5" d="M0,-3.0v7 M-2.5,-0.5L0,-3.0L2.5,-0.5"/>
                </g>
        </g>
        <svg viewBox="0 0 15 15" width="100%" height="30px" preserveAspectRatio="xMaxYMin meet">
         <g id="arrow_out" transform="scale(0.3 0.3)">
          <a xlink:href="multi__level__map_8c_a55a03cdfaf58bc329c0db2a9e3d8ade5_icgraph_org.svg" target="_base">
           <rect id="button" ry="5" rx="5" y="6" x="6" height="38" width="38"
                fill="#f2f5e9" fill-opacity="0.5" stroke="#606060" stroke-width="1.0"/>
           <path id="arrow"
             d="M 11.500037,31.436501 C 11.940474,20.09759 22.043105,11.32322 32.158766,21.979434 L 37.068811,17.246167 C 37.068811,17.246167 37.088388,32 37.088388,32 L 22.160133,31.978069 C 22.160133,31.978069 26.997745,27.140456 26.997745,27.140456 C 18.528582,18.264221 13.291696,25.230495 11.500037,31.436501 z"
             style="fill:#404040;"/>
          </a>
         </g>
        </svg>
</svg>
