<?xml version="1.0" encoding="UTF-8" standalone="no"?>
<!DOCTYPE svg PUBLIC "-//W3C//DTD SVG 1.1//EN"
 "http://www.w3.org/Graphics/SVG/1.1/DTD/svg11.dtd">
<!-- Generated by graphviz version 2.38.0 (20140413.2041)
 -->
<!-- Title: mlm_get_names Pages: 1 -->
<svg width="470pt" height="72pt"
 viewBox="0.00 0.00 470.00 71.50" xmlns="http://www.w3.org/2000/svg" xmlns:xlink="http://www.w3.org/1999/xlink">
<g id="graph0" class="graph" transform="scale(1 1) rotate(0) translate(4 67.5)">
<title>mlm_get_names</title>
<polygon fill="white" stroke="none" points="-4,4 -4,-67.5 466,-67.5 466,4 -4,4"/>
<!-- Node1 -->
<g id="node1" class="node"><title>Node1</title>
<polygon fill="#bfbfbf" stroke="black" points="0,-19.5 0,-38.5 91,-38.5 91,-19.5 0,-19.5"/>
<text text-anchor="middle" x="45.5" y="-26.5" font-family="Helvetica,sans-Serif" font-size="10.00">mlm_get_names</text>
</g>
<!-- Node2 -->
<g id="node2" class="node"><title>Node2</title>
<g id="a_node2"><a xlink:href="device__id__util_8h.html#ae6f5ae13af77d1e6a46dbb4ccd72dbaf" target="_top" xlink:title="devid_usage_code_id_name">
<polygon fill="white" stroke="black" points="134.5,-38.5 134.5,-57.5 283.5,-57.5 283.5,-38.5 134.5,-38.5"/>
<text text-anchor="middle" x="209" y="-45.5" font-family="Helvetica,sans-Serif" font-size="10.00">devid_usage_code_id_name</text>
</a>
</g>
</g>
<!-- Node1&#45;&gt;Node2 -->
<g id="edge1" class="edge"><title>Node1&#45;&gt;Node2</title>
<path fill="none" stroke="midnightblue" d="M101.095,-35.4229C111.813,-36.6839 123.221,-38.026 134.442,-39.3461"/>
<polygon fill="midnightblue" stroke="midnightblue" points="101.399,-31.9346 91.0581,-34.2421 100.581,-38.8867 101.399,-31.9346"/>
</g>
<!-- Node4 -->
<g id="node4" class="node"><title>Node4</title>
<g id="a_node4"><a xlink:href="device__id__util_8h.html#a0c9df7722675858da772ee48725bfb69" target="_top" xlink:title="devid_usage_code_page_name">
<polygon fill="white" stroke="black" points="127,-0.5 127,-19.5 291,-19.5 291,-0.5 127,-0.5"/>
<text text-anchor="middle" x="209" y="-7.5" font-family="Helvetica,sans-Serif" font-size="10.00">devid_usage_code_page_name</text>
</a>
</g>
</g>
<!-- Node1&#45;&gt;Node4 -->
<g id="edge3" class="edge"><title>Node1&#45;&gt;Node4</title>
<path fill="none" stroke="midnightblue" d="M101.04,-22.5836C109.417,-21.598 118.217,-20.5627 127.021,-19.527"/>
<polygon fill="midnightblue" stroke="midnightblue" points="100.581,-19.1133 91.0581,-23.7579 101.399,-26.0654 100.581,-19.1133"/>
</g>
<!-- Node3 -->
<g id="node3" class="node"><title>Node3</title>
<g id="a_node3"><a xlink:href="device__id__util_8h.html#a863f4affe8b8f9dbe067ef8060deb114" target="_top" xlink:title="devid_usage_code_name\l_by_extended_id">
<polygon fill="white" stroke="black" points="327,-33 327,-63 462,-63 462,-33 327,-33"/>
<text text-anchor="start" x="335" y="-51" font-family="Helvetica,sans-Serif" font-size="10.00">devid_usage_code_name</text>
<text text-anchor="middle" x="394.5" y="-40" font-family="Helvetica,sans-Serif" font-size="10.00">_by_extended_id</text>
</a>
</g>
</g>
<!-- Node2&#45;&gt;Node3 -->
<g id="edge2" class="edge"><title>Node2&#45;&gt;Node3</title>
<path fill="none" stroke="midnightblue" d="M293.686,-48C304.761,-48 315.993,-48 326.731,-48"/>
<polygon fill="midnightblue" stroke="midnightblue" points="293.579,-44.5001 283.579,-48 293.579,-51.5001 293.579,-44.5001"/>
</g>
</g>
</svg>
