<?xml version="1.0" encoding="UTF-8" standalone="no"?>
<!DOCTYPE svg PUBLIC "-//W3C//DTD SVG 1.1//EN"
 "http://www.w3.org/Graphics/SVG/1.1/DTD/svg11.dtd">
<!-- Generated by graphviz version 2.38.0 (20140413.2041)
 -->
<!-- Title: output_sink.c Pages: 1 -->
<svg width="478pt" height="140pt"
 viewBox="0.00 0.00 478.08 140.00" xmlns="http://www.w3.org/2000/svg" xmlns:xlink="http://www.w3.org/1999/xlink">
<g id="graph0" class="graph" transform="scale(1 1) rotate(0) translate(4 136)">
<title>output_sink.c</title>
<polygon fill="white" stroke="none" points="-4,4 -4,-136 474.081,-136 474.081,4 -4,4"/>
<!-- Node1 -->
<g id="node1" class="node"><title>Node1</title>
<polygon fill="#bfbfbf" stroke="black" points="208,-112.5 208,-131.5 282,-131.5 282,-112.5 208,-112.5"/>
<text text-anchor="middle" x="245" y="-119.5" font-family="Helvetica,sans-Serif" font-size="10.00">output_sink.c</text>
</g>
<!-- Node2 -->
<g id="node2" class="node"><title>Node2</title>
<polygon fill="white" stroke="#bfbfbf" points="0,-56.5 0,-75.5 52,-75.5 52,-56.5 0,-56.5"/>
<text text-anchor="middle" x="26" y="-63.5" font-family="Helvetica,sans-Serif" font-size="10.00">assert.h</text>
</g>
<!-- Node1&#45;&gt;Node2 -->
<g id="edge1" class="edge"><title>Node1&#45;&gt;Node2</title>
<path fill="none" stroke="midnightblue" d="M209.695,-112.497C174.658,-104.029 119.164,-90.5398 62.2525,-76.2942"/>
<polygon fill="midnightblue" stroke="midnightblue" points="62.9158,-72.8523 52.3648,-73.8151 61.2133,-79.6421 62.9158,-72.8523"/>
</g>
<!-- Node3 -->
<g id="node3" class="node"><title>Node3</title>
<polygon fill="white" stroke="#bfbfbf" points="70.5,-56.5 70.5,-75.5 117.5,-75.5 117.5,-56.5 70.5,-56.5"/>
<text text-anchor="middle" x="94" y="-63.5" font-family="Helvetica,sans-Serif" font-size="10.00">errno.h</text>
</g>
<!-- Node1&#45;&gt;Node3 -->
<g id="edge2" class="edge"><title>Node1&#45;&gt;Node3</title>
<path fill="none" stroke="midnightblue" d="M221.074,-112.444C195.781,-103.399 155.698,-89.064 127.32,-78.9158"/>
<polygon fill="midnightblue" stroke="midnightblue" points="128.409,-75.5882 117.814,-75.5164 126.052,-82.1794 128.409,-75.5882"/>
</g>
<!-- Node4 -->
<g id="node4" class="node"><title>Node4</title>
<polygon fill="white" stroke="#bfbfbf" points="166,-0.5 166,-19.5 206,-19.5 206,-0.5 166,-0.5"/>
<text text-anchor="middle" x="186" y="-7.5" font-family="Helvetica,sans-Serif" font-size="10.00">glib.h</text>
</g>
<!-- Node1&#45;&gt;Node4 -->
<g id="edge3" class="edge"><title>Node1&#45;&gt;Node4</title>
<path fill="none" stroke="midnightblue" d="M214.753,-112.488C196.875,-105.726 175.7,-94.2949 165,-76 156.244,-61.0286 164.346,-41.9491 172.903,-28.3415"/>
<polygon fill="midnightblue" stroke="midnightblue" points="175.916,-30.1362 178.697,-19.9128 170.148,-26.1705 175.916,-30.1362"/>
</g>
<!-- Node5 -->
<g id="node5" class="node"><title>Node5</title>
<polygon fill="white" stroke="#bfbfbf" points="174.5,-56.5 174.5,-75.5 231.5,-75.5 231.5,-56.5 174.5,-56.5"/>
<text text-anchor="middle" x="203" y="-63.5" font-family="Helvetica,sans-Serif" font-size="10.00">stdbool.h</text>
</g>
<!-- Node1&#45;&gt;Node5 -->
<g id="edge4" class="edge"><title>Node1&#45;&gt;Node5</title>
<path fill="none" stroke="midnightblue" d="M238.065,-112.083C232.071,-104.377 223.248,-93.0333 215.952,-83.6531"/>
<polygon fill="midnightblue" stroke="midnightblue" points="218.709,-81.4958 209.806,-75.7511 213.183,-85.7934 218.709,-81.4958"/>
</g>
<!-- Node6 -->
<g id="node6" class="node"><title>Node6</title>
<polygon fill="white" stroke="#bfbfbf" points="362,-0.5 362,-19.5 408,-19.5 408,-0.5 362,-0.5"/>
<text text-anchor="middle" x="385" y="-7.5" font-family="Helvetica,sans-Serif" font-size="10.00">stdio.h</text>
</g>
<!-- Node1&#45;&gt;Node6 -->
<g id="edge5" class="edge"><title>Node1&#45;&gt;Node6</title>
<path fill="none" stroke="midnightblue" d="M282.037,-118.917C338.591,-114.877 442.322,-103.787 465,-76 483.146,-53.7661 447.162,-33.8805 417.746,-22.1265"/>
<polygon fill="midnightblue" stroke="midnightblue" points="418.701,-18.745 408.11,-18.4604 416.212,-25.2875 418.701,-18.745"/>
</g>
<!-- Node7 -->
<g id="node7" class="node"><title>Node7</title>
<polygon fill="white" stroke="#bfbfbf" points="342.5,-56.5 342.5,-75.5 389.5,-75.5 389.5,-56.5 342.5,-56.5"/>
<text text-anchor="middle" x="366" y="-63.5" font-family="Helvetica,sans-Serif" font-size="10.00">stdlib.h</text>
</g>
<!-- Node1&#45;&gt;Node7 -->
<g id="edge6" class="edge"><title>Node1&#45;&gt;Node7</title>
<path fill="none" stroke="midnightblue" d="M264.173,-112.444C283.909,-103.636 314.885,-89.8116 337.493,-79.722"/>
<polygon fill="midnightblue" stroke="midnightblue" points="339.211,-82.788 346.917,-75.5164 336.359,-76.3957 339.211,-82.788"/>
</g>
<!-- Node8 -->
<g id="node8" class="node"><title>Node8</title>
<polygon fill="white" stroke="#bfbfbf" points="408,-56.5 408,-75.5 456,-75.5 456,-56.5 408,-56.5"/>
<text text-anchor="middle" x="432" y="-63.5" font-family="Helvetica,sans-Serif" font-size="10.00">string.h</text>
</g>
<!-- Node1&#45;&gt;Node8 -->
<g id="edge7" class="edge"><title>Node1&#45;&gt;Node8</title>
<path fill="none" stroke="midnightblue" d="M274.631,-112.444C308.187,-102.753 362.768,-86.9921 398.023,-76.8115"/>
<polygon fill="midnightblue" stroke="midnightblue" points="399.223,-80.108 407.86,-73.971 397.281,-73.3828 399.223,-80.108"/>
</g>
<!-- Node9 -->
<g id="node9" class="node"><title>Node9</title>
<g id="a_node9"><a xlink:href="output__sink_8h.html" target="_top" xlink:title="output_sink.h">
<polygon fill="white" stroke="black" points="250,-56.5 250,-75.5 324,-75.5 324,-56.5 250,-56.5"/>
<text text-anchor="middle" x="287" y="-63.5" font-family="Helvetica,sans-Serif" font-size="10.00">output_sink.h</text>
</a>
</g>
</g>
<!-- Node1&#45;&gt;Node9 -->
<g id="edge8" class="edge"><title>Node1&#45;&gt;Node9</title>
<path fill="none" stroke="midnightblue" d="M251.935,-112.083C257.929,-104.377 266.752,-93.0333 274.048,-83.6531"/>
<polygon fill="midnightblue" stroke="midnightblue" points="276.817,-85.7934 280.194,-75.7511 271.291,-81.4958 276.817,-85.7934"/>
</g>
<!-- Node9&#45;&gt;Node4 -->
<g id="edge9" class="edge"><title>Node9&#45;&gt;Node4</title>
<path fill="none" stroke="midnightblue" d="M270.773,-56.324C254.649,-47.7034 229.7,-34.3643 211.036,-24.3855"/>
<polygon fill="midnightblue" stroke="midnightblue" points="212.656,-21.283 202.187,-19.6545 209.356,-27.456 212.656,-21.283"/>
</g>
<!-- Node9&#45;&gt;Node6 -->
<g id="edge10" class="edge"><title>Node9&#45;&gt;Node6</title>
<path fill="none" stroke="midnightblue" d="M302.745,-56.324C318.319,-47.7428 342.377,-34.486 360.459,-24.5224"/>
<polygon fill="midnightblue" stroke="midnightblue" points="362.224,-27.546 369.294,-19.6545 358.846,-21.4152 362.224,-27.546"/>
</g>
</g>
</svg>
