<?xml version="1.0" encoding="UTF-8" standalone="no"?>
<!DOCTYPE svg PUBLIC "-//W3C//DTD SVG 1.1//EN"
 "http://www.w3.org/Graphics/SVG/1.1/DTD/svg11.dtd">
<!-- Generated by graphviz version 2.38.0 (20140413.2041)
 -->
<!-- Title: report_util.c Pages: 1 -->
<svg width="687pt" height="196pt"
 viewBox="0.00 0.00 687.00 196.00" xmlns="http://www.w3.org/2000/svg" xmlns:xlink="http://www.w3.org/1999/xlink">
<g id="graph0" class="graph" transform="scale(1 1) rotate(0) translate(4 192)">
<title>report_util.c</title>
<polygon fill="white" stroke="none" points="-4,4 -4,-192 683,-192 683,4 -4,4"/>
<!-- Node1 -->
<g id="node1" class="node"><title>Node1</title>
<polygon fill="#bfbfbf" stroke="black" points="314.5,-168.5 314.5,-187.5 381.5,-187.5 381.5,-168.5 314.5,-168.5"/>
<text text-anchor="middle" x="348" y="-175.5" font-family="Helvetica,sans-Serif" font-size="10.00">report_util.c</text>
</g>
<!-- Node2 -->
<g id="node2" class="node"><title>Node2</title>
<polygon fill="white" stroke="#bfbfbf" points="0,-112.5 0,-131.5 52,-131.5 52,-112.5 0,-112.5"/>
<text text-anchor="middle" x="26" y="-119.5" font-family="Helvetica,sans-Serif" font-size="10.00">assert.h</text>
</g>
<!-- Node1&#45;&gt;Node2 -->
<g id="edge1" class="edge"><title>Node1&#45;&gt;Node2</title>
<path fill="none" stroke="midnightblue" d="M314.231,-172.777C262.175,-166.034 159.029,-151.754 62.2557,-132.099"/>
<polygon fill="midnightblue" stroke="midnightblue" points="62.81,-128.639 52.3101,-130.055 61.4007,-135.496 62.81,-128.639"/>
</g>
<!-- Node3 -->
<g id="node3" class="node"><title>Node3</title>
<polygon fill="white" stroke="#bfbfbf" points="70.5,-112.5 70.5,-131.5 123.5,-131.5 123.5,-112.5 70.5,-112.5"/>
<text text-anchor="middle" x="97" y="-119.5" font-family="Helvetica,sans-Serif" font-size="10.00">stdarg.h</text>
</g>
<!-- Node1&#45;&gt;Node3 -->
<g id="edge2" class="edge"><title>Node1&#45;&gt;Node3</title>
<path fill="none" stroke="midnightblue" d="M314.396,-170.385C273.912,-162.324 203.609,-148.034 133.585,-132.063"/>
<polygon fill="midnightblue" stroke="midnightblue" points="134.238,-128.622 123.709,-129.799 132.674,-135.445 134.238,-128.622"/>
</g>
<!-- Node4 -->
<g id="node4" class="node"><title>Node4</title>
<polygon fill="white" stroke="#bfbfbf" points="197.5,-56.5 197.5,-75.5 254.5,-75.5 254.5,-56.5 197.5,-56.5"/>
<text text-anchor="middle" x="226" y="-63.5" font-family="Helvetica,sans-Serif" font-size="10.00">stdbool.h</text>
</g>
<!-- Node1&#45;&gt;Node4 -->
<g id="edge3" class="edge"><title>Node1&#45;&gt;Node4</title>
<path fill="none" stroke="midnightblue" d="M314.02,-170.615C290.821,-164.527 261.117,-153.041 243,-132 231.95,-119.167 227.966,-99.9828 226.587,-85.7795"/>
<polygon fill="midnightblue" stroke="midnightblue" points="230.072,-85.4349 225.955,-75.6731 223.086,-85.8722 230.072,-85.4349"/>
</g>
<!-- Node5 -->
<g id="node5" class="node"><title>Node5</title>
<polygon fill="white" stroke="#bfbfbf" points="311,-56.5 311,-75.5 357,-75.5 357,-56.5 311,-56.5"/>
<text text-anchor="middle" x="334" y="-63.5" font-family="Helvetica,sans-Serif" font-size="10.00">stdio.h</text>
</g>
<!-- Node1&#45;&gt;Node5 -->
<g id="edge4" class="edge"><title>Node1&#45;&gt;Node5</title>
<path fill="none" stroke="midnightblue" d="M346.901,-168.368C344.642,-150.617 339.43,-109.666 336.367,-85.5974"/>
<polygon fill="midnightblue" stroke="midnightblue" points="339.828,-85.0695 335.093,-75.5914 332.884,-85.9533 339.828,-85.0695"/>
</g>
<!-- Node6 -->
<g id="node6" class="node"><title>Node6</title>
<polygon fill="white" stroke="#bfbfbf" points="497.5,-112.5 497.5,-131.5 544.5,-131.5 544.5,-112.5 497.5,-112.5"/>
<text text-anchor="middle" x="521" y="-119.5" font-family="Helvetica,sans-Serif" font-size="10.00">stdlib.h</text>
</g>
<!-- Node1&#45;&gt;Node6 -->
<g id="edge5" class="edge"><title>Node1&#45;&gt;Node6</title>
<path fill="none" stroke="midnightblue" d="M375.412,-168.444C405.892,-158.93 455.12,-143.564 487.769,-133.373"/>
<polygon fill="midnightblue" stroke="midnightblue" points="488.827,-136.709 497.33,-130.388 486.741,-130.027 488.827,-136.709"/>
</g>
<!-- Node7 -->
<g id="node7" class="node"><title>Node7</title>
<polygon fill="white" stroke="#bfbfbf" points="563,-112.5 563,-131.5 611,-131.5 611,-112.5 563,-112.5"/>
<text text-anchor="middle" x="587" y="-119.5" font-family="Helvetica,sans-Serif" font-size="10.00">string.h</text>
</g>
<!-- Node1&#45;&gt;Node7 -->
<g id="edge6" class="edge"><title>Node1&#45;&gt;Node7</title>
<path fill="none" stroke="midnightblue" d="M381.662,-170.199C420.634,-162.203 486.97,-148.222 553.13,-132.12"/>
<polygon fill="midnightblue" stroke="midnightblue" points="554.007,-135.509 562.886,-129.729 552.341,-128.71 554.007,-135.509"/>
</g>
<!-- Node8 -->
<g id="node8" class="node"><title>Node8</title>
<polygon fill="white" stroke="#bfbfbf" points="629,-112.5 629,-131.5 679,-131.5 679,-112.5 629,-112.5"/>
<text text-anchor="middle" x="654" y="-119.5" font-family="Helvetica,sans-Serif" font-size="10.00">unistd.h</text>
</g>
<!-- Node1&#45;&gt;Node8 -->
<g id="edge7" class="edge"><title>Node1&#45;&gt;Node8</title>
<path fill="none" stroke="midnightblue" d="M381.693,-172.475C431.468,-165.562 527.748,-151.323 618.875,-132.075"/>
<polygon fill="midnightblue" stroke="midnightblue" points="619.765,-135.464 628.813,-129.952 618.302,-128.619 619.765,-135.464"/>
</g>
<!-- Node9 -->
<g id="node9" class="node"><title>Node9</title>
<g id="a_node9"><a xlink:href="coredefs_8h.html" target="_top" xlink:title="coredefs.h">
<polygon fill="white" stroke="black" points="375,-56.5 375,-75.5 439,-75.5 439,-56.5 375,-56.5"/>
<text text-anchor="middle" x="407" y="-63.5" font-family="Helvetica,sans-Serif" font-size="10.00">coredefs.h</text>
</a>
</g>
</g>
<!-- Node1&#45;&gt;Node9 -->
<g id="edge8" class="edge"><title>Node1&#45;&gt;Node9</title>
<path fill="none" stroke="midnightblue" d="M352.63,-168.368C362.28,-150.376 384.714,-108.55 397.546,-84.6267"/>
<polygon fill="midnightblue" stroke="midnightblue" points="400.75,-86.0582 402.392,-75.5914 394.581,-82.7495 400.75,-86.0582"/>
</g>
<!-- Node10 -->
<g id="node10" class="node"><title>Node10</title>
<g id="a_node10"><a xlink:href="file__util_8h.html" target="_top" xlink:title="file_util.h">
<polygon fill="white" stroke="black" points="142,-112.5 142,-131.5 196,-131.5 196,-112.5 142,-112.5"/>
<text text-anchor="middle" x="169" y="-119.5" font-family="Helvetica,sans-Serif" font-size="10.00">file_util.h</text>
</a>
</g>
</g>
<!-- Node1&#45;&gt;Node10 -->
<g id="edge9" class="edge"><title>Node1&#45;&gt;Node10</title>
<path fill="none" stroke="midnightblue" d="M319.637,-168.444C288.904,-159.172 239.75,-144.343 206,-134.162"/>
<polygon fill="midnightblue" stroke="midnightblue" points="206.643,-130.7 196.059,-131.163 204.622,-137.402 206.643,-130.7"/>
</g>
<!-- Node13 -->
<g id="node13" class="node"><title>Node13</title>
<g id="a_node13"><a xlink:href="string__util_8h.html" target="_top" xlink:title="string_util.h">
<polygon fill="white" stroke="black" points="414.5,-112.5 414.5,-131.5 479.5,-131.5 479.5,-112.5 414.5,-112.5"/>
<text text-anchor="middle" x="447" y="-119.5" font-family="Helvetica,sans-Serif" font-size="10.00">string_util.h</text>
</a>
</g>
</g>
<!-- Node1&#45;&gt;Node13 -->
<g id="edge13" class="edge"><title>Node1&#45;&gt;Node13</title>
<path fill="none" stroke="midnightblue" d="M363.906,-168.324C379.638,-159.743 403.942,-146.486 422.209,-136.522"/>
<polygon fill="midnightblue" stroke="midnightblue" points="424.03,-139.516 431.133,-131.655 420.678,-133.37 424.03,-139.516"/>
</g>
<!-- Node16 -->
<g id="node16" class="node"><title>Node16</title>
<g id="a_node16"><a xlink:href="report__util_8h.html" target="_top" xlink:title="report_util.h">
<polygon fill="white" stroke="black" points="252.5,-112.5 252.5,-131.5 319.5,-131.5 319.5,-112.5 252.5,-112.5"/>
<text text-anchor="middle" x="286" y="-119.5" font-family="Helvetica,sans-Serif" font-size="10.00">report_util.h</text>
</a>
</g>
</g>
<!-- Node1&#45;&gt;Node16 -->
<g id="edge20" class="edge"><title>Node1&#45;&gt;Node16</title>
<path fill="none" stroke="midnightblue" d="M338.039,-168.324C328.873,-160.341 315.063,-148.313 303.972,-138.653"/>
<polygon fill="midnightblue" stroke="midnightblue" points="305.982,-135.762 296.143,-131.834 301.385,-141.041 305.982,-135.762"/>
</g>
<!-- Node10&#45;&gt;Node4 -->
<g id="edge12" class="edge"><title>Node10&#45;&gt;Node4</title>
<path fill="none" stroke="midnightblue" d="M178.158,-112.324C186.501,-104.42 199.032,-92.5482 209.177,-82.9377"/>
<polygon fill="midnightblue" stroke="midnightblue" points="211.823,-85.2522 216.675,-75.8339 207.009,-80.1705 211.823,-85.2522"/>
</g>
<!-- Node11 -->
<g id="node11" class="node"><title>Node11</title>
<polygon fill="white" stroke="#bfbfbf" points="91.5,-56.5 91.5,-75.5 140.5,-75.5 140.5,-56.5 91.5,-56.5"/>
<text text-anchor="middle" x="116" y="-63.5" font-family="Helvetica,sans-Serif" font-size="10.00">dirent.h</text>
</g>
<!-- Node10&#45;&gt;Node11 -->
<g id="edge10" class="edge"><title>Node10&#45;&gt;Node11</title>
<path fill="none" stroke="midnightblue" d="M160.248,-112.083C152.53,-104.22 141.095,-92.5688 131.783,-83.0813"/>
<polygon fill="midnightblue" stroke="midnightblue" points="134.092,-80.4363 124.589,-75.7511 129.096,-85.3396 134.092,-80.4363"/>
</g>
<!-- Node12 -->
<g id="node12" class="node"><title>Node12</title>
<polygon fill="white" stroke="#bfbfbf" points="263,-0.5 263,-19.5 303,-19.5 303,-0.5 263,-0.5"/>
<text text-anchor="middle" x="283" y="-7.5" font-family="Helvetica,sans-Serif" font-size="10.00">glib.h</text>
</g>
<!-- Node10&#45;&gt;Node12 -->
<g id="edge11" class="edge"><title>Node10&#45;&gt;Node12</title>
<path fill="none" stroke="midnightblue" d="M169.331,-112.372C170.286,-98.8356 173.958,-72.4561 188,-56 204.797,-36.3148 232.133,-24.6307 253.179,-18.1236"/>
<polygon fill="midnightblue" stroke="midnightblue" points="254.28,-21.4489 262.931,-15.3326 252.354,-14.719 254.28,-21.4489"/>
</g>
<!-- Node13&#45;&gt;Node4 -->
<g id="edge14" class="edge"><title>Node13&#45;&gt;Node4</title>
<path fill="none" stroke="midnightblue" d="M414.391,-113.032C374.459,-103.275 306.915,-86.771 264.479,-76.4021"/>
<polygon fill="midnightblue" stroke="midnightblue" points="265.069,-72.9434 254.524,-73.9697 263.408,-79.7433 265.069,-72.9434"/>
</g>
<!-- Node13&#45;&gt;Node5 -->
<g id="edge16" class="edge"><title>Node13&#45;&gt;Node5</title>
<path fill="none" stroke="midnightblue" d="M429.095,-112.444C410.746,-103.675 381.995,-89.9355 360.906,-79.8579"/>
<polygon fill="midnightblue" stroke="midnightblue" points="362.353,-76.6703 351.821,-75.5164 359.335,-82.9862 362.353,-76.6703"/>
</g>
<!-- Node13&#45;&gt;Node9 -->
<g id="edge17" class="edge"><title>Node13&#45;&gt;Node9</title>
<path fill="none" stroke="midnightblue" d="M440.395,-112.083C434.745,-104.455 426.455,-93.2645 419.549,-83.9408"/>
<polygon fill="midnightblue" stroke="midnightblue" points="422.247,-81.7034 413.482,-75.7511 416.622,-85.87 422.247,-81.7034"/>
</g>
<!-- Node14 -->
<g id="node14" class="node"><title>Node14</title>
<polygon fill="white" stroke="#bfbfbf" points="457.5,-56.5 457.5,-75.5 504.5,-75.5 504.5,-56.5 457.5,-56.5"/>
<text text-anchor="middle" x="481" y="-63.5" font-family="Helvetica,sans-Serif" font-size="10.00">stdint.h</text>
</g>
<!-- Node13&#45;&gt;Node14 -->
<g id="edge15" class="edge"><title>Node13&#45;&gt;Node14</title>
<path fill="none" stroke="midnightblue" d="M452.614,-112.083C457.367,-104.534 464.318,-93.4948 470.152,-84.2298"/>
<polygon fill="midnightblue" stroke="midnightblue" points="473.124,-86.0783 475.49,-75.7511 467.2,-82.3486 473.124,-86.0783"/>
</g>
<!-- Node15 -->
<g id="node15" class="node"><title>Node15</title>
<g id="a_node15"><a xlink:href="glib__util_8h.html" target="_top" xlink:title="glib_util.h">
<polygon fill="white" stroke="black" points="522.5,-56.5 522.5,-75.5 579.5,-75.5 579.5,-56.5 522.5,-56.5"/>
<text text-anchor="middle" x="551" y="-63.5" font-family="Helvetica,sans-Serif" font-size="10.00">glib_util.h</text>
</a>
</g>
</g>
<!-- Node13&#45;&gt;Node15 -->
<g id="edge18" class="edge"><title>Node13&#45;&gt;Node15</title>
<path fill="none" stroke="midnightblue" d="M463.709,-112.324C480.312,-103.703 506.002,-90.3643 525.22,-80.3855"/>
<polygon fill="midnightblue" stroke="midnightblue" points="527.07,-83.3689 534.332,-75.6545 523.844,-77.1565 527.07,-83.3689"/>
</g>
<!-- Node15&#45;&gt;Node12 -->
<g id="edge19" class="edge"><title>Node15&#45;&gt;Node12</title>
<path fill="none" stroke="midnightblue" d="M522.347,-57.892C519.531,-57.2349 516.712,-56.5937 514,-56 442.283,-40.3009 357.438,-24.4706 313.226,-16.4274"/>
<polygon fill="midnightblue" stroke="midnightblue" points="313.612,-12.9406 303.149,-14.6012 312.364,-19.8284 313.612,-12.9406"/>
</g>
<!-- Node16&#45;&gt;Node4 -->
<g id="edge23" class="edge"><title>Node16&#45;&gt;Node4</title>
<path fill="none" stroke="midnightblue" d="M276.36,-112.324C267.49,-104.341 254.125,-92.3128 243.392,-82.6529"/>
<polygon fill="midnightblue" stroke="midnightblue" points="245.59,-79.922 235.815,-75.8339 240.907,-85.1251 245.59,-79.922"/>
</g>
<!-- Node16&#45;&gt;Node5 -->
<g id="edge22" class="edge"><title>Node16&#45;&gt;Node5</title>
<path fill="none" stroke="midnightblue" d="M293.926,-112.083C300.846,-104.298 311.065,-92.8015 319.452,-83.3665"/>
<polygon fill="midnightblue" stroke="midnightblue" points="322.194,-85.5505 326.221,-75.7511 316.962,-80.8999 322.194,-85.5505"/>
</g>
<!-- Node16&#45;&gt;Node9 -->
<g id="edge24" class="edge"><title>Node16&#45;&gt;Node9</title>
<path fill="none" stroke="midnightblue" d="M305.173,-112.444C324.909,-103.636 355.885,-89.8116 378.493,-79.722"/>
<polygon fill="midnightblue" stroke="midnightblue" points="380.211,-82.788 387.917,-75.5164 377.359,-76.3957 380.211,-82.788"/>
</g>
<!-- Node16&#45;&gt;Node12 -->
<g id="edge21" class="edge"><title>Node16&#45;&gt;Node12</title>
<path fill="none" stroke="midnightblue" d="M285.765,-112.368C285.28,-94.617 284.164,-53.6664 283.507,-29.5974"/>
<polygon fill="midnightblue" stroke="midnightblue" points="287.006,-29.4922 283.234,-19.5914 280.008,-29.6832 287.006,-29.4922"/>
</g>
</g>
</svg>
