<?xml version="1.0" encoding="UTF-8" standalone="no"?>
<!DOCTYPE svg PUBLIC "-//W3C//DTD SVG 1.1//EN"
 "http://www.w3.org/Graphics/SVG/1.1/DTD/svg11.dtd">
<!-- Generated by graphviz version 2.38.0 (20140413.2041)
 -->
<!-- Title: rpt_hex_dump Pages: 1 -->
<svg width="233pt" height="104pt"
 viewBox="0.00 0.00 233.00 104.00" xmlns="http://www.w3.org/2000/svg" xmlns:xlink="http://www.w3.org/1999/xlink">
<g id="graph0" class="graph" transform="scale(1 1) rotate(0) translate(4 100)">
<title>rpt_hex_dump</title>
<polygon fill="white" stroke="none" points="-4,4 -4,-100 229,-100 229,4 -4,4"/>
<!-- Node1 -->
<g id="node1" class="node"><title>Node1</title>
<polygon fill="#bfbfbf" stroke="black" points="0,-38.5 0,-57.5 79,-57.5 79,-38.5 0,-38.5"/>
<text text-anchor="middle" x="39.5" y="-45.5" font-family="Helvetica,sans-Serif" font-size="10.00">rpt_hex_dump</text>
</g>
<!-- Node2 -->
<g id="node2" class="node"><title>Node2</title>
<g id="a_node2"><a xlink:href="string__util_8c.html#ae90befb63fa82bf7029a37b5dc079bd5" target="_top" xlink:title="fhex_dump_indented">
<polygon fill="white" stroke="black" points="115,-76.5 115,-95.5 225,-95.5 225,-76.5 115,-76.5"/>
<text text-anchor="middle" x="170" y="-83.5" font-family="Helvetica,sans-Serif" font-size="10.00">fhex_dump_indented</text>
</a>
</g>
</g>
<!-- Node1&#45;&gt;Node2 -->
<g id="edge1" class="edge"><title>Node1&#45;&gt;Node2</title>
<path fill="none" stroke="midnightblue" d="M72.926,-57.589C89.2097,-62.4044 109.142,-68.2988 126.622,-73.468"/>
<polygon fill="midnightblue" stroke="midnightblue" points="126.002,-76.9345 136.584,-76.4141 127.987,-70.2219 126.002,-76.9345"/>
</g>
<!-- Node3 -->
<g id="node3" class="node"><title>Node3</title>
<g id="a_node3"><a xlink:href="report__util_8c.html#a71f4829c653e1d6101dfc1ae09f4796e" target="_top" xlink:title="rpt_cur_output_dest">
<polygon fill="white" stroke="black" points="119,-38.5 119,-57.5 221,-57.5 221,-38.5 119,-38.5"/>
<text text-anchor="middle" x="170" y="-45.5" font-family="Helvetica,sans-Serif" font-size="10.00">rpt_cur_output_dest</text>
</a>
</g>
</g>
<!-- Node1&#45;&gt;Node3 -->
<g id="edge2" class="edge"><title>Node1&#45;&gt;Node3</title>
<path fill="none" stroke="midnightblue" d="M79.0542,-48C88.272,-48 98.3345,-48 108.284,-48"/>
<polygon fill="midnightblue" stroke="midnightblue" points="108.571,-51.5001 118.571,-48 108.571,-44.5001 108.571,-51.5001"/>
</g>
<!-- Node4 -->
<g id="node4" class="node"><title>Node4</title>
<g id="a_node4"><a xlink:href="report__util_8c.html#ad8736ff7dcecf76ad38a0c26a1cdf5ff" target="_top" xlink:title="rpt_get_indent">
<polygon fill="white" stroke="black" points="130.5,-0.5 130.5,-19.5 209.5,-19.5 209.5,-0.5 130.5,-0.5"/>
<text text-anchor="middle" x="170" y="-7.5" font-family="Helvetica,sans-Serif" font-size="10.00">rpt_get_indent</text>
</a>
</g>
</g>
<!-- Node1&#45;&gt;Node4 -->
<g id="edge3" class="edge"><title>Node1&#45;&gt;Node4</title>
<path fill="none" stroke="midnightblue" d="M72.926,-38.411C89.2097,-33.5956 109.142,-27.7012 126.622,-22.532"/>
<polygon fill="midnightblue" stroke="midnightblue" points="127.987,-25.7781 136.584,-19.5859 126.002,-19.0655 127.987,-25.7781"/>
</g>
</g>
</svg>
