<?xml version="1.0" encoding="UTF-8" standalone="no"?>
<!DOCTYPE svg PUBLIC "-//W3C//DTD SVG 1.1//EN"
 "http://www.w3.org/Graphics/SVG/1.1/DTD/svg11.dtd">
<!-- Generated by graphviz version 2.38.0 (20140413.2041)
 -->
<!-- Title: rpt_structure_loc Pages: 1 -->
<svg width="426pt" height="306pt"
 viewBox="0.00 0.00 426.00 306.00" xmlns="http://www.w3.org/2000/svg" xmlns:xlink="http://www.w3.org/1999/xlink">
<g id="graph0" class="graph" transform="scale(1 1) rotate(0) translate(4 302)">
<title>rpt_structure_loc</title>
<polygon fill="white" stroke="none" points="-4,4 -4,-302 422,-302 422,4 -4,4"/>
<!-- Node1 -->
<g id="node1" class="node"><title>Node1</title>
<polygon fill="#bfbfbf" stroke="black" points="0,-145.5 0,-164.5 89,-164.5 89,-145.5 0,-145.5"/>
<text text-anchor="middle" x="44.5" y="-152.5" font-family="Helvetica,sans-Serif" font-size="10.00">rpt_structure_loc</text>
</g>
<!-- Node2 -->
<g id="node2" class="node"><title>Node2</title>
<g id="a_node2"><a xlink:href="libdrm__util_8h.html#a9da3d41a89fbe6f54ac08de65e7b05b1" target="_top" xlink:title="report_drm_modeProperty">
<polygon fill="white" stroke="black" points="125,-278.5 125,-297.5 259,-297.5 259,-278.5 125,-278.5"/>
<text text-anchor="middle" x="192" y="-285.5" font-family="Helvetica,sans-Serif" font-size="10.00">report_drm_modeProperty</text>
</a>
</g>
</g>
<!-- Node1&#45;&gt;Node2 -->
<g id="edge1" class="edge"><title>Node1&#45;&gt;Node2</title>
<path fill="none" stroke="midnightblue" d="M53.6859,-173.915C65.6539,-199.337 90.3339,-244.196 125,-269 130.43,-272.886 136.643,-275.98 143.036,-278.444"/>
<polygon fill="midnightblue" stroke="midnightblue" points="56.7873,-172.279 49.4702,-164.617 50.412,-175.17 56.7873,-172.279"/>
</g>
<!-- Node3 -->
<g id="node3" class="node"><title>Node3</title>
<g id="a_node3"><a xlink:href="libdrm__util_8h.html#a296f38d851825b841915b5648ad491e4" target="_top" xlink:title="report_drmModeRes">
<polygon fill="white" stroke="black" points="137.5,-240.5 137.5,-259.5 246.5,-259.5 246.5,-240.5 137.5,-240.5"/>
<text text-anchor="middle" x="192" y="-247.5" font-family="Helvetica,sans-Serif" font-size="10.00">report_drmModeRes</text>
</a>
</g>
</g>
<!-- Node1&#45;&gt;Node3 -->
<g id="edge2" class="edge"><title>Node1&#45;&gt;Node3</title>
<path fill="none" stroke="midnightblue" d="M59.6876,-172.871C74.3106,-190.141 98.6371,-215.85 125,-231 131.616,-234.802 139.05,-237.891 146.478,-240.385"/>
<polygon fill="midnightblue" stroke="midnightblue" points="62.0251,-170.204 52.9659,-164.71 56.6219,-174.654 62.0251,-170.204"/>
</g>
<!-- Node4 -->
<g id="node4" class="node"><title>Node4</title>
<g id="a_node4"><a xlink:href="multi__level__map_8h.html#ae2a1d1e4c133a93b539c7d8c399a3cbd" target="_top" xlink:title="report_mlm_level">
<polygon fill="white" stroke="black" points="145.5,-202.5 145.5,-221.5 238.5,-221.5 238.5,-202.5 145.5,-202.5"/>
<text text-anchor="middle" x="192" y="-209.5" font-family="Helvetica,sans-Serif" font-size="10.00">report_mlm_level</text>
</a>
</g>
</g>
<!-- Node1&#45;&gt;Node4 -->
<g id="edge3" class="edge"><title>Node1&#45;&gt;Node4</title>
<path fill="none" stroke="midnightblue" d="M72.7185,-169.39C87.8482,-177.035 107.169,-186.225 125,-193 134.14,-196.473 144.196,-199.67 153.644,-202.412"/>
<polygon fill="midnightblue" stroke="midnightblue" points="73.9343,-166.08 63.4392,-164.63 70.7392,-172.308 73.9343,-166.08"/>
</g>
<!-- Node5 -->
<g id="node5" class="node"><title>Node5</title>
<g id="a_node5"><a xlink:href="multi__level__map_8h.html#a9e40c0f24a7928882b04eecb13eb38f2" target="_top" xlink:title="report_multi_level_map">
<polygon fill="white" stroke="black" points="132.5,-164.5 132.5,-183.5 251.5,-183.5 251.5,-164.5 132.5,-164.5"/>
<text text-anchor="middle" x="192" y="-171.5" font-family="Helvetica,sans-Serif" font-size="10.00">report_multi_level_map</text>
</a>
</g>
</g>
<!-- Node1&#45;&gt;Node5 -->
<g id="edge4" class="edge"><title>Node1&#45;&gt;Node5</title>
<path fill="none" stroke="midnightblue" d="M99.2577,-162.02C110.021,-163.425 121.381,-164.909 132.301,-166.335"/>
<polygon fill="midnightblue" stroke="midnightblue" points="99.5238,-158.525 89.1548,-160.701 98.6174,-165.466 99.5238,-158.525"/>
</g>
<!-- Node6 -->
<g id="node6" class="node"><title>Node6</title>
<g id="a_node6"><a xlink:href="udev__util_8h.html#a25d919095c7730db7bd16fb6ebd92743" target="_top" xlink:title="report_udev_device">
<polygon fill="white" stroke="black" points="139,-126.5 139,-145.5 245,-145.5 245,-126.5 139,-126.5"/>
<text text-anchor="middle" x="192" y="-133.5" font-family="Helvetica,sans-Serif" font-size="10.00">report_udev_device</text>
</a>
</g>
</g>
<!-- Node1&#45;&gt;Node6 -->
<g id="edge5" class="edge"><title>Node1&#45;&gt;Node6</title>
<path fill="none" stroke="midnightblue" d="M99.3132,-147.973C112.252,-146.283 126.05,-144.481 138.909,-142.802"/>
<polygon fill="midnightblue" stroke="midnightblue" points="98.6174,-144.534 89.1548,-149.299 99.5238,-151.475 98.6174,-144.534"/>
</g>
<!-- Node8 -->
<g id="node8" class="node"><title>Node8</title>
<g id="a_node8"><a xlink:href="udev__util_8h.html#a5f59fcfb812079209c317f1b926fb392" target="_top" xlink:title="report_udev_usb_devinfo">
<polygon fill="white" stroke="black" points="127.5,-88.5 127.5,-107.5 256.5,-107.5 256.5,-88.5 127.5,-88.5"/>
<text text-anchor="middle" x="192" y="-95.5" font-family="Helvetica,sans-Serif" font-size="10.00">report_udev_usb_devinfo</text>
</a>
</g>
</g>
<!-- Node1&#45;&gt;Node8 -->
<g id="edge7" class="edge"><title>Node1&#45;&gt;Node8</title>
<path fill="none" stroke="midnightblue" d="M72.7185,-140.61C87.8482,-132.965 107.169,-123.775 125,-117 134.14,-113.527 144.196,-110.33 153.644,-107.588"/>
<polygon fill="midnightblue" stroke="midnightblue" points="70.7392,-137.692 63.4392,-145.37 73.9343,-143.92 70.7392,-137.692"/>
</g>
<!-- Node10 -->
<g id="node10" class="node"><title>Node10</title>
<g id="a_node10"><a xlink:href="udev__util_8h.html#a43eb8e5892e0dd389318da9877310d52" target="_top" xlink:title="report_usb_detailed\l_device_summary">
<polygon fill="white" stroke="black" points="139.5,-39 139.5,-69 244.5,-69 244.5,-39 139.5,-39"/>
<text text-anchor="start" x="147.5" y="-57" font-family="Helvetica,sans-Serif" font-size="10.00">report_usb_detailed</text>
<text text-anchor="middle" x="192" y="-46" font-family="Helvetica,sans-Serif" font-size="10.00">_device_summary</text>
</a>
</g>
</g>
<!-- Node1&#45;&gt;Node10 -->
<g id="edge9" class="edge"><title>Node1&#45;&gt;Node10</title>
<path fill="none" stroke="midnightblue" d="M60.2013,-137.313C75.0573,-120.393 99.4161,-95.1287 125,-79 130.908,-75.2754 137.457,-71.97 144.069,-69.0818"/>
<polygon fill="midnightblue" stroke="midnightblue" points="57.1971,-135.44 53.3427,-145.309 62.5101,-139.998 57.1971,-135.44"/>
</g>
<!-- Node11 -->
<g id="node11" class="node"><title>Node11</title>
<g id="a_node11"><a xlink:href="report__util_8h.html#af2a0616acf74f44d97d7d5ec2ffb6d05" target="_top" xlink:title="rpt_bytes_as_hex">
<polygon fill="white" stroke="black" points="144.5,-0.5 144.5,-19.5 239.5,-19.5 239.5,-0.5 144.5,-0.5"/>
<text text-anchor="middle" x="192" y="-7.5" font-family="Helvetica,sans-Serif" font-size="10.00">rpt_bytes_as_hex</text>
</a>
</g>
</g>
<!-- Node1&#45;&gt;Node11 -->
<g id="edge10" class="edge"><title>Node1&#45;&gt;Node11</title>
<path fill="none" stroke="midnightblue" d="M52.7583,-135.529C64.0162,-107.975 88.288,-57.867 125,-30 130.722,-25.6566 137.387,-22.2506 144.239,-19.5811"/>
<polygon fill="midnightblue" stroke="midnightblue" points="49.3565,-134.617 48.9644,-145.204 55.8734,-137.172 49.3565,-134.617"/>
</g>
<!-- Node7 -->
<g id="node7" class="node"><title>Node7</title>
<g id="a_node7"><a xlink:href="udev__util_8h.html#a99b7881f22243d06502945cddebbe6ab" target="_top" xlink:title="probe_udev_subsystem">
<polygon fill="white" stroke="black" points="295,-126.5 295,-145.5 418,-145.5 418,-126.5 295,-126.5"/>
<text text-anchor="middle" x="356.5" y="-133.5" font-family="Helvetica,sans-Serif" font-size="10.00">probe_udev_subsystem</text>
</a>
</g>
</g>
<!-- Node6&#45;&gt;Node7 -->
<g id="edge6" class="edge"><title>Node6&#45;&gt;Node7</title>
<path fill="none" stroke="midnightblue" d="M255.488,-136C268.391,-136 281.962,-136 294.8,-136"/>
<polygon fill="midnightblue" stroke="midnightblue" points="255.311,-132.5 245.31,-136 255.31,-139.5 255.311,-132.5"/>
</g>
<!-- Node9 -->
<g id="node9" class="node"><title>Node9</title>
<g id="a_node9"><a xlink:href="udev__util_8h.html#a48f4e698be2ae0d9bfc2a944b79b181e" target="_top" xlink:title="get_udev_usb_devinfo">
<polygon fill="white" stroke="black" points="297.5,-88.5 297.5,-107.5 415.5,-107.5 415.5,-88.5 297.5,-88.5"/>
<text text-anchor="middle" x="356.5" y="-95.5" font-family="Helvetica,sans-Serif" font-size="10.00">get_udev_usb_devinfo</text>
</a>
</g>
</g>
<!-- Node8&#45;&gt;Node9 -->
<g id="edge8" class="edge"><title>Node8&#45;&gt;Node9</title>
<path fill="none" stroke="midnightblue" d="M266.929,-98C277.176,-98 287.58,-98 297.482,-98"/>
<polygon fill="midnightblue" stroke="midnightblue" points="266.758,-94.5001 256.758,-98 266.758,-101.5 266.758,-94.5001"/>
</g>
</g>
</svg>
