<?xml version="1.0" encoding="UTF-8" standalone="no"?>
<!DOCTYPE svg PUBLIC "-//W3C//DTD SVG 1.1//EN"
 "http://www.w3.org/Graphics/SVG/1.1/DTD/svg11.dtd">
<!-- Generated by graphviz version 2.38.0 (20140413.2041)
 -->
<!-- Title: rpt_2col Pages: 1 -->
<svg width="175pt" height="142pt"
 viewBox="0.00 0.00 175.00 142.00" xmlns="http://www.w3.org/2000/svg" xmlns:xlink="http://www.w3.org/1999/xlink">
<g id="graph0" class="graph" transform="scale(1 1) rotate(0) translate(4 138)">
<title>rpt_2col</title>
<polygon fill="white" stroke="none" points="-4,4 -4,-138 171,-138 171,4 -4,4"/>
<!-- Node1 -->
<g id="node1" class="node"><title>Node1</title>
<polygon fill="#bfbfbf" stroke="black" points="0,-57.5 0,-76.5 52,-76.5 52,-57.5 0,-57.5"/>
<text text-anchor="middle" x="26" y="-64.5" font-family="Helvetica,sans-Serif" font-size="10.00">rpt_2col</text>
</g>
<!-- Node2 -->
<g id="node2" class="node"><title>Node2</title>
<g id="a_node2"><a xlink:href="file__util_8c.html#a6defbcb2fc1ac183ee68218c22e7622b" target="_top" xlink:title="file_getlines">
<polygon fill="white" stroke="black" points="92.5,-114.5 92.5,-133.5 162.5,-133.5 162.5,-114.5 92.5,-114.5"/>
<text text-anchor="middle" x="127.5" y="-121.5" font-family="Helvetica,sans-Serif" font-size="10.00">file_getlines</text>
</a>
</g>
</g>
<!-- Node1&#45;&gt;Node2 -->
<g id="edge1" class="edge"><title>Node1&#45;&gt;Node2</title>
<path fill="none" stroke="midnightblue" d="M41.7941,-76.7889C53.9972,-84.7233 71.8639,-96.0211 88,-105 90.8658,-106.595 93.8838,-108.202 96.9171,-109.772"/>
<polygon fill="midnightblue" stroke="midnightblue" points="95.4203,-112.937 105.925,-114.312 98.5711,-106.686 95.4203,-112.937"/>
</g>
<!-- Node3 -->
<g id="node3" class="node"><title>Node3</title>
<g id="a_node3"><a xlink:href="report__util_8c.html#ad8736ff7dcecf76ad38a0c26a1cdf5ff" target="_top" xlink:title="rpt_get_indent">
<polygon fill="white" stroke="black" points="88,-76.5 88,-95.5 167,-95.5 167,-76.5 88,-76.5"/>
<text text-anchor="middle" x="127.5" y="-83.5" font-family="Helvetica,sans-Serif" font-size="10.00">rpt_get_indent</text>
</a>
</g>
</g>
<!-- Node1&#45;&gt;Node3 -->
<g id="edge2" class="edge"><title>Node1&#45;&gt;Node3</title>
<path fill="none" stroke="midnightblue" d="M52.1081,-71.7945C59.9718,-73.2961 68.9345,-75.0076 77.85,-76.7101"/>
<polygon fill="midnightblue" stroke="midnightblue" points="77.3558,-80.1789 87.8349,-78.6167 78.6688,-73.3031 77.3558,-80.1789"/>
</g>
<!-- Node4 -->
<g id="node4" class="node"><title>Node4</title>
<g id="a_node4"><a xlink:href="report__util_8c.html#ae58dfa6adb2e9f1dacce17f7b0732f26" target="_top" xlink:title="rpt_vstring">
<polygon fill="white" stroke="black" points="96.5,-38.5 96.5,-57.5 158.5,-57.5 158.5,-38.5 96.5,-38.5"/>
<text text-anchor="middle" x="127.5" y="-45.5" font-family="Helvetica,sans-Serif" font-size="10.00">rpt_vstring</text>
</a>
</g>
</g>
<!-- Node1&#45;&gt;Node4 -->
<g id="edge3" class="edge"><title>Node1&#45;&gt;Node4</title>
<path fill="none" stroke="midnightblue" d="M52.1081,-62.2055C62.5274,-60.2159 74.876,-57.8579 86.488,-55.6405"/>
<polygon fill="midnightblue" stroke="midnightblue" points="87.2698,-59.0545 96.4358,-53.7409 85.9568,-52.1788 87.2698,-59.0545"/>
</g>
<!-- Node5 -->
<g id="node5" class="node"><title>Node5</title>
<g id="a_node5"><a xlink:href="string__util_8c.html#a9d77f8f56ba1eb3ef69d986032365270" target="_top" xlink:title="rtrim_in_place">
<polygon fill="white" stroke="black" points="88.5,-0.5 88.5,-19.5 166.5,-19.5 166.5,-0.5 88.5,-0.5"/>
<text text-anchor="middle" x="127.5" y="-7.5" font-family="Helvetica,sans-Serif" font-size="10.00">rtrim_in_place</text>
</a>
</g>
</g>
<!-- Node1&#45;&gt;Node5 -->
<g id="edge4" class="edge"><title>Node1&#45;&gt;Node5</title>
<path fill="none" stroke="midnightblue" d="M41.7941,-57.2111C53.9972,-49.2767 71.8639,-37.9789 88,-29 90.8658,-27.4053 93.8838,-25.7975 96.9171,-24.2283"/>
<polygon fill="midnightblue" stroke="midnightblue" points="98.5711,-27.3141 105.925,-19.6875 95.4203,-21.0632 98.5711,-27.3141"/>
</g>
</g>
</svg>
