<?xml version="1.0" encoding="UTF-8" standalone="no"?>
<!DOCTYPE svg PUBLIC "-//W3C//DTD SVG 1.1//EN"
 "http://www.w3.org/Graphics/SVG/1.1/DTD/svg11.dtd">
<!-- Generated by graphviz version 2.38.0 (20140413.2041)
 -->
<!-- Title: rpt_int_as_hex Pages: 1 -->
<svg width="305pt" height="66pt"
 viewBox="0.00 0.00 305.00 66.00" xmlns="http://www.w3.org/2000/svg" xmlns:xlink="http://www.w3.org/1999/xlink">
<g id="graph0" class="graph" transform="scale(1 1) rotate(0) translate(4 62)">
<title>rpt_int_as_hex</title>
<polygon fill="white" stroke="none" points="-4,4 -4,-62 301,-62 301,4 -4,4"/>
<!-- Node1 -->
<g id="node1" class="node"><title>Node1</title>
<polygon fill="#bfbfbf" stroke="black" points="0,-19.5 0,-38.5 80,-38.5 80,-19.5 0,-19.5"/>
<text text-anchor="middle" x="40" y="-26.5" font-family="Helvetica,sans-Serif" font-size="10.00">rpt_int_as_hex</text>
</g>
<!-- Node2 -->
<g id="node2" class="node"><title>Node2</title>
<g id="a_node2"><a xlink:href="report__util_8c.html#a271a0ddaafa0b5ff0630f85fa6bf25f4" target="_top" xlink:title="rpt_str">
<polygon fill="white" stroke="black" points="116,-19.5 116,-38.5 159,-38.5 159,-19.5 116,-19.5"/>
<text text-anchor="middle" x="137.5" y="-26.5" font-family="Helvetica,sans-Serif" font-size="10.00">rpt_str</text>
</a>
</g>
</g>
<!-- Node1&#45;&gt;Node2 -->
<g id="edge1" class="edge"><title>Node1&#45;&gt;Node2</title>
<path fill="none" stroke="midnightblue" d="M80.1191,-29C88.6433,-29 97.5472,-29 105.695,-29"/>
<polygon fill="midnightblue" stroke="midnightblue" points="105.874,-32.5001 115.874,-29 105.874,-25.5001 105.874,-32.5001"/>
</g>
<!-- Node3 -->
<g id="node3" class="node"><title>Node3</title>
<g id="a_node3"><a xlink:href="report__util_8c.html#a71f4829c653e1d6101dfc1ae09f4796e" target="_top" xlink:title="rpt_cur_output_dest">
<polygon fill="white" stroke="black" points="195,-38.5 195,-57.5 297,-57.5 297,-38.5 195,-38.5"/>
<text text-anchor="middle" x="246" y="-45.5" font-family="Helvetica,sans-Serif" font-size="10.00">rpt_cur_output_dest</text>
</a>
</g>
</g>
<!-- Node2&#45;&gt;Node3 -->
<g id="edge2" class="edge"><title>Node2&#45;&gt;Node3</title>
<path fill="none" stroke="midnightblue" d="M159.034,-32.6634C166.58,-34.0097 175.558,-35.6112 184.819,-37.2636"/>
<polygon fill="midnightblue" stroke="midnightblue" points="184.468,-40.756 194.927,-39.0668 185.697,-33.8648 184.468,-40.756"/>
</g>
<!-- Node4 -->
<g id="node4" class="node"><title>Node4</title>
<g id="a_node4"><a xlink:href="report__util_8c.html#ae58dfa6adb2e9f1dacce17f7b0732f26" target="_top" xlink:title="rpt_vstring">
<polygon fill="white" stroke="black" points="215,-0.5 215,-19.5 277,-19.5 277,-0.5 215,-0.5"/>
<text text-anchor="middle" x="246" y="-7.5" font-family="Helvetica,sans-Serif" font-size="10.00">rpt_vstring</text>
</a>
</g>
</g>
<!-- Node2&#45;&gt;Node4 -->
<g id="edge3" class="edge"><title>Node2&#45;&gt;Node4</title>
<path fill="none" stroke="midnightblue" d="M159.034,-25.3366C172.025,-23.019 189.257,-19.9447 204.881,-17.1574"/>
<polygon fill="midnightblue" stroke="midnightblue" points="205.625,-20.5799 214.855,-15.378 204.396,-13.6888 205.625,-20.5799"/>
</g>
</g>
</svg>
