<?xml version="1.0" encoding="UTF-8" standalone="no"?>
<!DOCTYPE svg PUBLIC "-//W3C//DTD SVG 1.1//EN"
 "http://www.w3.org/Graphics/SVG/1.1/DTD/svg11.dtd">
<!-- Generated by graphviz version 2.38.0 (20140413.2041)
 -->
<!-- Title: report_util.h Pages: 1 -->
<svg width="707pt" height="84pt"
 viewBox="0.00 0.00 707.00 84.00" xmlns="http://www.w3.org/2000/svg" xmlns:xlink="http://www.w3.org/1999/xlink">
<g id="graph0" class="graph" transform="scale(1 1) rotate(0) translate(4 80)">
<title>report_util.h</title>
<polygon fill="white" stroke="none" points="-4,4 -4,-80 703,-80 703,4 -4,4"/>
<!-- Node1 -->
<g id="node1" class="node"><title>Node1</title>
<polygon fill="#bfbfbf" stroke="black" points="288.5,-56.5 288.5,-75.5 355.5,-75.5 355.5,-56.5 288.5,-56.5"/>
<text text-anchor="middle" x="322" y="-63.5" font-family="Helvetica,sans-Serif" font-size="10.00">report_util.h</text>
</g>
<!-- Node2 -->
<g id="node2" class="node"><title>Node2</title>
<g id="a_node2"><a xlink:href="device__id__util_8c.html" target="_top" xlink:title="device_id_util.c">
<polygon fill="white" stroke="black" points="0,-0.5 0,-19.5 86,-19.5 86,-0.5 0,-0.5"/>
<text text-anchor="middle" x="43" y="-7.5" font-family="Helvetica,sans-Serif" font-size="10.00">device_id_util.c</text>
</a>
</g>
</g>
<!-- Node1&#45;&gt;Node2 -->
<g id="edge1" class="edge"><title>Node1&#45;&gt;Node2</title>
<path fill="none" stroke="midnightblue" d="M278.355,-56.5526C225.968,-46.4131 138.659,-29.5146 86.3868,-19.3974"/>
<polygon fill="midnightblue" stroke="midnightblue" points="277.863,-60.0223 288.346,-58.4863 279.193,-53.1498 277.863,-60.0223"/>
</g>
<!-- Node3 -->
<g id="node3" class="node"><title>Node3</title>
<g id="a_node3"><a xlink:href="edid_8c.html" target="_top" xlink:title="edid.c">
<polygon fill="white" stroke="black" points="104,-0.5 104,-19.5 148,-19.5 148,-0.5 104,-0.5"/>
<text text-anchor="middle" x="126" y="-7.5" font-family="Helvetica,sans-Serif" font-size="10.00">edid.c</text>
</a>
</g>
</g>
<!-- Node1&#45;&gt;Node3 -->
<g id="edge2" class="edge"><title>Node1&#45;&gt;Node3</title>
<path fill="none" stroke="midnightblue" d="M280.147,-53.7876C246.763,-44.7954 198.831,-31.7757 157,-20 154.087,-19.18 151.024,-18.3054 148.003,-17.4359"/>
<polygon fill="midnightblue" stroke="midnightblue" points="279.452,-57.2249 290.018,-56.4432 281.27,-50.4653 279.452,-57.2249"/>
</g>
<!-- Node4 -->
<g id="node4" class="node"><title>Node4</title>
<g id="a_node4"><a xlink:href="failsim_8c.html" target="_top" xlink:title="failsim.c">
<polygon fill="white" stroke="black" points="166.5,-0.5 166.5,-19.5 219.5,-19.5 219.5,-0.5 166.5,-0.5"/>
<text text-anchor="middle" x="193" y="-7.5" font-family="Helvetica,sans-Serif" font-size="10.00">failsim.c</text>
</a>
</g>
</g>
<!-- Node1&#45;&gt;Node4 -->
<g id="edge3" class="edge"><title>Node1&#45;&gt;Node4</title>
<path fill="none" stroke="midnightblue" d="M292.146,-52.503C267.962,-42.3795 234.538,-28.388 213.345,-19.5164"/>
<polygon fill="midnightblue" stroke="midnightblue" points="290.984,-55.8106 301.56,-56.4435 293.687,-49.3536 290.984,-55.8106"/>
</g>
<!-- Node5 -->
<g id="node5" class="node"><title>Node5</title>
<g id="a_node5"><a xlink:href="libdrm__util_8c.html" target="_top" xlink:title="libdrm_util.c">
<polygon fill="white" stroke="black" points="238,-0.5 238,-19.5 306,-19.5 306,-0.5 238,-0.5"/>
<text text-anchor="middle" x="272" y="-7.5" font-family="Helvetica,sans-Serif" font-size="10.00">libdrm_util.c</text>
</a>
</g>
</g>
<!-- Node1&#45;&gt;Node5 -->
<g id="edge4" class="edge"><title>Node1&#45;&gt;Node5</title>
<path fill="none" stroke="midnightblue" d="M306.924,-48.7175C298.111,-39.1997 287.334,-27.5608 280.103,-19.7511"/>
<polygon fill="midnightblue" stroke="midnightblue" points="304.381,-51.1233 313.744,-56.083 309.518,-46.3674 304.381,-51.1233"/>
</g>
<!-- Node6 -->
<g id="node6" class="node"><title>Node6</title>
<g id="a_node6"><a xlink:href="multi__level__map_8c.html" target="_top" xlink:title="multi_level_map.c">
<polygon fill="white" stroke="black" points="324,-0.5 324,-19.5 420,-19.5 420,-0.5 324,-0.5"/>
<text text-anchor="middle" x="372" y="-7.5" font-family="Helvetica,sans-Serif" font-size="10.00">multi_level_map.c</text>
</a>
</g>
</g>
<!-- Node1&#45;&gt;Node6 -->
<g id="edge5" class="edge"><title>Node1&#45;&gt;Node6</title>
<path fill="none" stroke="midnightblue" d="M337.076,-48.7175C345.889,-39.1997 356.666,-27.5608 363.897,-19.7511"/>
<polygon fill="midnightblue" stroke="midnightblue" points="334.482,-46.3674 330.256,-56.083 339.619,-51.1233 334.482,-46.3674"/>
</g>
<!-- Node7 -->
<g id="node7" class="node"><title>Node7</title>
<g id="a_node7"><a xlink:href="report__util_8c.html" target="_top" xlink:title="report_util.c">
<polygon fill="white" stroke="black" points="438.5,-0.5 438.5,-19.5 505.5,-19.5 505.5,-0.5 438.5,-0.5"/>
<text text-anchor="middle" x="472" y="-7.5" font-family="Helvetica,sans-Serif" font-size="10.00">report_util.c</text>
</a>
</g>
</g>
<!-- Node1&#45;&gt;Node7 -->
<g id="edge6" class="edge"><title>Node1&#45;&gt;Node7</title>
<path fill="none" stroke="midnightblue" d="M355.225,-53.0392C383.448,-42.8786 423.262,-28.5457 448.343,-19.5164"/>
<polygon fill="midnightblue" stroke="midnightblue" points="353.991,-49.7632 345.768,-56.4435 356.362,-56.3494 353.991,-49.7632"/>
</g>
<!-- Node8 -->
<g id="node8" class="node"><title>Node8</title>
<g id="a_node8"><a xlink:href="subprocess__util_8c.html" target="_top" xlink:title="subprocess_util.c">
<polygon fill="white" stroke="black" points="523.5,-0.5 523.5,-19.5 616.5,-19.5 616.5,-0.5 523.5,-0.5"/>
<text text-anchor="middle" x="570" y="-7.5" font-family="Helvetica,sans-Serif" font-size="10.00">subprocess_util.c</text>
</a>
</g>
</g>
<!-- Node1&#45;&gt;Node8 -->
<g id="edge7" class="edge"><title>Node1&#45;&gt;Node8</title>
<path fill="none" stroke="midnightblue" d="M365.524,-55.5231C412.194,-45.3609 485.64,-29.3686 530.639,-19.5704"/>
<polygon fill="midnightblue" stroke="midnightblue" points="364.731,-52.1136 355.704,-57.6611 366.22,-58.9533 364.731,-52.1136"/>
</g>
<!-- Node9 -->
<g id="node9" class="node"><title>Node9</title>
<g id="a_node9"><a xlink:href="udev__util_8c.html" target="_top" xlink:title="udev_util.c">
<polygon fill="white" stroke="black" points="635,-0.5 635,-19.5 699,-19.5 699,-0.5 635,-0.5"/>
<text text-anchor="middle" x="667" y="-7.5" font-family="Helvetica,sans-Serif" font-size="10.00">udev_util.c</text>
</a>
</g>
</g>
<!-- Node1&#45;&gt;Node9 -->
<g id="edge8" class="edge"><title>Node1&#45;&gt;Node9</title>
<path fill="none" stroke="midnightblue" d="M365.991,-59.4592C425.252,-51.7736 533.923,-36.9001 626,-20 628.867,-19.4738 631.839,-18.8922 634.814,-18.2856"/>
<polygon fill="midnightblue" stroke="midnightblue" points="365.335,-56.0146 355.865,-60.7647 366.23,-62.9571 365.335,-56.0146"/>
</g>
</g>
</svg>
