<?xml version="1.0" encoding="UTF-8" standalone="no"?>
<!DOCTYPE svg PUBLIC "-//W3C//DTD SVG 1.1//EN"
 "http://www.w3.org/Graphics/SVG/1.1/DTD/svg11.dtd">
<!-- Generated by graphviz version 2.38.0 (20140413.2041)
 -->
<!-- Title: rpt_cur_output_dest Pages: 1 -->
<!--zoomable 527 -->
<svg id="main" version="1.1" xmlns="http://www.w3.org/2000/svg" xmlns:xlink="http://www.w3.org/1999/xlink" xml:space="preserve" onload="init(evt)">
<style type="text/css"><![CDATA[
.edge:hover path { stroke: red; }
.edge:hover polygon { stroke: red; fill: red; }
]]></style>
<script type="text/javascript"><![CDATA[
var edges = document.getElementsByTagName('g');
if (edges && edges.length) {
  for (var i=0;i<edges.length;i++) {
    if (edges[i].id.substr(0,4)=='edge') {
      edges[i].setAttribute('class','edge');
    }
  }
}
]]></script>
        <defs>
                <circle id="rim" cx="0" cy="0" r="7"/>
                <circle id="rim2" cx="0" cy="0" r="3.5"/>
                <g id="zoomPlus">
                        <use xlink:href="#rim" fill="#404040">
                                <set attributeName="fill" to="#808080" begin="zoomplus.mouseover" end="zoomplus.mouseout"/>
                        </use>
                        <path d="M-4,0h8M0,-4v8" fill="none" stroke="white" stroke-width="1.5" pointer-events="none"/>
                </g>
                <g id="zoomMin">
                        <use xlink:href="#rim" fill="#404040">
                                <set attributeName="fill" to="#808080" begin="zoomminus.mouseover" end="zoomminus.mouseout"/>
                        </use>
                        <path d="M-4,0h8" fill="none" stroke="white" stroke-width="1.5" pointer-events="none"/>
                </g>
                <g id="dirArrow">
                        <path fill="none" stroke="white" stroke-width="1.5" d="M0,-3.0v7 M-2.5,-0.5L0,-3.0L2.5,-0.5"/>
                </g>
               <g id="resetDef">
                       <use xlink:href="#rim2" fill="#404040">
                               <set attributeName="fill" to="#808080" begin="reset.mouseover" end="reset.mouseout"/>
                       </use>
               </g>
        </defs>

<script type="text/javascript">
var viewWidth = 753;
var viewHeight = 527;
var sectionId = 'dynsection-6';
</script>
<script xlink:href="svgpan.js"/>
<svg id="graph" class="graph">
<g id="viewport">
<title>rpt_cur_output_dest</title>
<polygon fill="white" stroke="none" points="-4,4 -4,-522.883 749,-522.883 749,4 -4,4"/>
<!-- Node1 -->
<g id="node1" class="node"><title>Node1</title>
<polygon fill="#bfbfbf" stroke="black" points="0,-423.383 0,-442.383 102,-442.383 102,-423.383 0,-423.383"/>
<text text-anchor="middle" x="51" y="-430.383" font-family="Helvetica,sans-Serif" font-size="10.00">rpt_cur_output_dest</text>
</g>
<!-- Node2 -->
<g id="node2" class="node"><title>Node2</title>
<g id="a_node2"><a xlink:href="report__util_8h.html#af7ee08eaef8fd9151ca098117fbd79b6" target="_top" xlink:title="rpt_change_output_dest">
<polygon fill="white" stroke="black" points="138,-499.383 138,-518.383 260,-518.383 260,-499.383 138,-499.383"/>
<text text-anchor="middle" x="199" y="-506.383" font-family="Helvetica,sans-Serif" font-size="10.00">rpt_change_output_dest</text>
</a>
</g>
</g>
<!-- Node1&#45;&gt;Node2 -->
<g id="edge1" class="edge"><title>Node1&#45;&gt;Node2</title>
<path fill="none" stroke="midnightblue" d="M72.1751,-448.608C89.0183,-461.143 114.055,-478.434 138,-489.883 145.59,-493.512 154.043,-496.677 162.152,-499.328"/>
<polygon fill="midnightblue" stroke="midnightblue" points="74.2488,-445.788 64.1633,-442.543 70.0237,-451.369 74.2488,-445.788"/>
</g>
<!-- Node3 -->
<g id="node3" class="node"><title>Node3</title>
<g id="a_node3"><a xlink:href="report__util_8h.html#a2cb3968208d6ab068b3bc6ab4f71057e" target="_top" xlink:title="rpt_debug_output_dest">
<polygon fill="white" stroke="black" points="140.5,-461.383 140.5,-480.383 257.5,-480.383 257.5,-461.383 140.5,-461.383"/>
<text text-anchor="middle" x="199" y="-468.383" font-family="Helvetica,sans-Serif" font-size="10.00">rpt_debug_output_dest</text>
</a>
</g>
</g>
<!-- Node1&#45;&gt;Node3 -->
<g id="edge2" class="edge"><title>Node1&#45;&gt;Node3</title>
<path fill="none" stroke="midnightblue" d="M98.536,-444.995C118.87,-450.287 142.371,-456.404 161.423,-461.363"/>
<polygon fill="midnightblue" stroke="midnightblue" points="99.4012,-441.603 88.842,-442.472 97.6379,-448.378 99.4012,-441.603"/>
</g>
<!-- Node4 -->
<g id="node4" class="node"><title>Node4</title>
<g id="a_node4"><a xlink:href="report__util_8h.html#a5cdea9095d42e1486dd5f4b45e1e2a82" target="_top" xlink:title="rpt_hex_dump">
<polygon fill="white" stroke="black" points="159.5,-423.383 159.5,-442.383 238.5,-442.383 238.5,-423.383 159.5,-423.383"/>
<text text-anchor="middle" x="199" y="-430.383" font-family="Helvetica,sans-Serif" font-size="10.00">rpt_hex_dump</text>
</a>
</g>
</g>
<!-- Node1&#45;&gt;Node4 -->
<g id="edge3" class="edge"><title>Node1&#45;&gt;Node4</title>
<path fill="none" stroke="midnightblue" d="M112.475,-432.883C128.268,-432.883 144.867,-432.883 159.195,-432.883"/>
<polygon fill="midnightblue" stroke="midnightblue" points="112.245,-429.383 102.245,-432.883 112.245,-436.383 112.245,-429.383"/>
</g>
<!-- Node10 -->
<g id="node10" class="node"><title>Node10</title>
<g id="a_node10"><a xlink:href="report__util_8h.html#a7c7aaf851ba8d9da017ed521f0fcb504" target="_top" xlink:title="rpt_nl">
<polygon fill="white" stroke="black" points="179,-385.383 179,-404.383 219,-404.383 219,-385.383 179,-385.383"/>
<text text-anchor="middle" x="199" y="-392.383" font-family="Helvetica,sans-Serif" font-size="10.00">rpt_nl</text>
</a>
</g>
</g>
<!-- Node1&#45;&gt;Node10 -->
<g id="edge9" class="edge"><title>Node1&#45;&gt;Node10</title>
<path fill="none" stroke="midnightblue" d="M98.5318,-420.772C125.614,-413.723 158.317,-405.211 178.641,-399.921"/>
<polygon fill="midnightblue" stroke="midnightblue" points="97.6379,-417.388 88.842,-423.294 99.4012,-424.162 97.6379,-417.388"/>
</g>
<!-- Node11 -->
<g id="node11" class="node"><title>Node11</title>
<g id="a_node11"><a xlink:href="report__util_8h.html#a271a0ddaafa0b5ff0630f85fa6bf25f4" target="_top" xlink:title="rpt_str">
<polygon fill="white" stroke="black" points="177.5,-195.383 177.5,-214.383 220.5,-214.383 220.5,-195.383 177.5,-195.383"/>
<text text-anchor="middle" x="199" y="-202.383" font-family="Helvetica,sans-Serif" font-size="10.00">rpt_str</text>
</a>
</g>
</g>
<!-- Node1&#45;&gt;Node11 -->
<g id="edge11" class="edge"><title>Node1&#45;&gt;Node11</title>
<path fill="none" stroke="midnightblue" d="M63.6086,-414.754C93.0146,-368.832 169.675,-249.116 191.886,-214.43"/>
<polygon fill="midnightblue" stroke="midnightblue" points="60.5328,-413.067 58.0876,-423.376 66.4277,-416.842 60.5328,-413.067"/>
</g>
<!-- Node5 -->
<g id="node5" class="node"><title>Node5</title>
<g id="a_node5"><a xlink:href="edid_8h.html#ad386522b77fc8f2df755bed4a32b0bed" target="_top" xlink:title="report_parsed_edid_base">
<polygon fill="white" stroke="black" points="304.5,-423.383 304.5,-442.383 436.5,-442.383 436.5,-423.383 304.5,-423.383"/>
<text text-anchor="middle" x="370.5" y="-430.383" font-family="Helvetica,sans-Serif" font-size="10.00">report_parsed_edid_base</text>
</a>
</g>
</g>
<!-- Node4&#45;&gt;Node5 -->
<g id="edge4" class="edge"><title>Node4&#45;&gt;Node5</title>
<path fill="none" stroke="midnightblue" d="M249.237,-432.883C266.406,-432.883 285.948,-432.883 304.215,-432.883"/>
<polygon fill="midnightblue" stroke="midnightblue" points="248.887,-429.383 238.887,-432.883 248.887,-436.383 248.887,-429.383"/>
</g>
<!-- Node7 -->
<g id="node7" class="node"><title>Node7</title>
<g id="a_node7"><a xlink:href="libdrm__util_8h.html#a0a134366851de213e59925f5bc459704" target="_top" xlink:title="report_drmModePropertyBlob">
<polygon fill="white" stroke="black" points="296,-461.383 296,-480.383 445,-480.383 445,-461.383 296,-461.383"/>
<text text-anchor="middle" x="370.5" y="-468.383" font-family="Helvetica,sans-Serif" font-size="10.00">report_drmModePropertyBlob</text>
</a>
</g>
</g>
<!-- Node4&#45;&gt;Node7 -->
<g id="edge6" class="edge"><title>Node4&#45;&gt;Node7</title>
<path fill="none" stroke="midnightblue" d="M248.78,-443.819C273.474,-449.355 303.171,-456.012 326.931,-461.339"/>
<polygon fill="midnightblue" stroke="midnightblue" points="249.41,-440.373 238.887,-441.601 247.879,-447.204 249.41,-440.373"/>
</g>
<!-- Node6 -->
<g id="node6" class="node"><title>Node6</title>
<g id="a_node6"><a xlink:href="edid_8h.html#a800e7d08fc3d103bd741bbf15c57b8fd" target="_top" xlink:title="report_parsed_edid">
<polygon fill="white" stroke="black" points="488.5,-423.383 488.5,-442.383 592.5,-442.383 592.5,-423.383 488.5,-423.383"/>
<text text-anchor="middle" x="540.5" y="-430.383" font-family="Helvetica,sans-Serif" font-size="10.00">report_parsed_edid</text>
</a>
</g>
</g>
<!-- Node5&#45;&gt;Node6 -->
<g id="edge5" class="edge"><title>Node5&#45;&gt;Node6</title>
<path fill="none" stroke="midnightblue" d="M447.022,-432.883C460.982,-432.883 475.259,-432.883 488.287,-432.883"/>
<polygon fill="midnightblue" stroke="midnightblue" points="446.934,-429.383 436.934,-432.883 446.934,-436.383 446.934,-429.383"/>
</g>
<!-- Node8 -->
<g id="node8" class="node"><title>Node8</title>
<g id="a_node8"><a xlink:href="libdrm__util_8c.html#ae28fbf75d18faf2086044adc421c57fc" target="_top" xlink:title="report_property_value">
<polygon fill="white" stroke="black" points="484,-461.383 484,-480.383 597,-480.383 597,-461.383 484,-461.383"/>
<text text-anchor="middle" x="540.5" y="-468.383" font-family="Helvetica,sans-Serif" font-size="10.00">report_property_value</text>
</a>
</g>
</g>
<!-- Node7&#45;&gt;Node8 -->
<g id="edge7" class="edge"><title>Node7&#45;&gt;Node8</title>
<path fill="none" stroke="midnightblue" d="M455.256,-470.883C464.94,-470.883 474.628,-470.883 483.805,-470.883"/>
<polygon fill="midnightblue" stroke="midnightblue" points="455.187,-467.383 445.187,-470.883 455.187,-474.383 455.187,-467.383"/>
</g>
<!-- Node9 -->
<g id="node9" class="node"><title>Node9</title>
<g id="a_node9"><a xlink:href="libdrm__util_8h.html#a296f38d851825b841915b5648ad491e4" target="_top" xlink:title="report_drmModeRes">
<polygon fill="white" stroke="black" points="636,-423.383 636,-442.383 745,-442.383 745,-423.383 636,-423.383"/>
<text text-anchor="middle" x="690.5" y="-430.383" font-family="Helvetica,sans-Serif" font-size="10.00">report_drmModeRes</text>
</a>
</g>
</g>
<!-- Node8&#45;&gt;Node9 -->
<g id="edge8" class="edge"><title>Node8&#45;&gt;Node9</title>
<path fill="none" stroke="midnightblue" d="M588.673,-458.771C609.286,-453.478 633.109,-447.361 652.422,-442.403"/>
<polygon fill="midnightblue" stroke="midnightblue" points="587.662,-455.417 578.847,-461.294 589.403,-462.197 587.662,-455.417"/>
</g>
<!-- Node10&#45;&gt;Node9 -->
<g id="edge10" class="edge"><title>Node10&#45;&gt;Node9</title>
<path fill="none" stroke="midnightblue" d="M229.378,-394.658C295.739,-394.503 462.185,-396.1 600,-413.883 617.014,-416.078 635.602,-419.803 651.407,-423.376"/>
<polygon fill="midnightblue" stroke="midnightblue" points="229.234,-391.158 219.247,-394.697 229.261,-398.158 229.234,-391.158"/>
</g>
<!-- Node12 -->
<g id="node12" class="node"><title>Node12</title>
<g id="a_node12"><a xlink:href="multi__level__map_8h.html#ae2a1d1e4c133a93b539c7d8c399a3cbd" target="_top" xlink:title="report_mlm_level">
<polygon fill="white" stroke="black" points="494,-94.3827 494,-113.383 587,-113.383 587,-94.3827 494,-94.3827"/>
<text text-anchor="middle" x="540.5" y="-101.383" font-family="Helvetica,sans-Serif" font-size="10.00">report_mlm_level</text>
</a>
</g>
</g>
<!-- Node11&#45;&gt;Node12 -->
<g id="edge12" class="edge"><title>Node11&#45;&gt;Node12</title>
<path fill="none" stroke="midnightblue" d="M203.419,-185.495C211.494,-146.302 235.794,-58.2865 296,-21.8827 352.668,12.3821 382.961,1.28122 445,-21.8827 484.478,-36.6229 518.392,-76.1134 532.503,-94.377"/>
<polygon fill="midnightblue" stroke="midnightblue" points="199.971,-184.894 201.519,-195.376 206.845,-186.216 199.971,-184.894"/>
</g>
<!-- Node13 -->
<g id="node13" class="node"><title>Node13</title>
<g id="a_node13"><a xlink:href="multi__level__map_8h.html#a9e40c0f24a7928882b04eecb13eb38f2" target="_top" xlink:title="report_multi_level_map">
<polygon fill="white" stroke="black" points="481,-252.383 481,-271.383 600,-271.383 600,-252.383 481,-252.383"/>
<text text-anchor="middle" x="540.5" y="-259.383" font-family="Helvetica,sans-Serif" font-size="10.00">report_multi_level_map</text>
</a>
</g>
</g>
<!-- Node11&#45;&gt;Node13 -->
<g id="edge13" class="edge"><title>Node11&#45;&gt;Node13</title>
<path fill="none" stroke="midnightblue" d="M230.368,-211.221C249.224,-215.074 273.979,-219.987 296,-223.883 358.987,-235.026 431.45,-246.114 480.84,-253.41"/>
<polygon fill="midnightblue" stroke="midnightblue" points="231.054,-207.788 220.554,-209.202 229.644,-214.645 231.054,-207.788"/>
</g>
<!-- Node14 -->
<g id="node14" class="node"><title>Node14</title>
<g id="a_node14"><a xlink:href="report__util_8h.html#ac38a31c37ca24facf0afd10aefd66d0b" target="_top" xlink:title="rpt_bool">
<polygon fill="white" stroke="black" points="344.5,-195.383 344.5,-214.383 396.5,-214.383 396.5,-195.383 344.5,-195.383"/>
<text text-anchor="middle" x="370.5" y="-202.383" font-family="Helvetica,sans-Serif" font-size="10.00">rpt_bool</text>
</a>
</g>
</g>
<!-- Node11&#45;&gt;Node14 -->
<g id="edge14" class="edge"><title>Node11&#45;&gt;Node14</title>
<path fill="none" stroke="midnightblue" d="M231.092,-204.883C263.686,-204.883 314.265,-204.883 344.41,-204.883"/>
<polygon fill="midnightblue" stroke="midnightblue" points="230.784,-201.383 220.784,-204.883 230.784,-208.383 230.784,-201.383"/>
</g>
<!-- Node15 -->
<g id="node15" class="node"><title>Node15</title>
<g id="a_node15"><a xlink:href="report__util_8h.html#a105b44822ec124d16c445268308b31d7" target="_top" xlink:title="rpt_int">
<polygon fill="white" stroke="black" points="349.5,-271.383 349.5,-290.383 391.5,-290.383 391.5,-271.383 349.5,-271.383"/>
<text text-anchor="middle" x="370.5" y="-278.383" font-family="Helvetica,sans-Serif" font-size="10.00">rpt_int</text>
</a>
</g>
</g>
<!-- Node11&#45;&gt;Node15 -->
<g id="edge15" class="edge"><title>Node11&#45;&gt;Node15</title>
<path fill="none" stroke="midnightblue" d="M224.16,-219.557C243.217,-230.738 270.709,-246.01 296,-256.883 313.635,-264.464 334.502,-271.064 349.488,-275.414"/>
<polygon fill="midnightblue" stroke="midnightblue" points="225.915,-216.529 215.53,-214.434 222.342,-222.548 225.915,-216.529"/>
</g>
<!-- Node16 -->
<g id="node16" class="node"><title>Node16</title>
<g id="a_node16"><a xlink:href="report__util_8h.html#af2a0616acf74f44d97d7d5ec2ffb6d05" target="_top" xlink:title="rpt_bytes_as_hex">
<polygon fill="white" stroke="black" points="493,-309.383 493,-328.383 588,-328.383 588,-309.383 493,-309.383"/>
<text text-anchor="middle" x="540.5" y="-316.383" font-family="Helvetica,sans-Serif" font-size="10.00">rpt_bytes_as_hex</text>
</a>
</g>
</g>
<!-- Node11&#45;&gt;Node16 -->
<g id="edge23" class="edge"><title>Node11&#45;&gt;Node16</title>
<path fill="none" stroke="midnightblue" d="M212.057,-222.988C228.187,-245.494 259.081,-282.995 296,-299.883 359.431,-328.898 441.886,-328.469 492.725,-324.456"/>
<polygon fill="midnightblue" stroke="midnightblue" points="214.833,-220.849 206.253,-214.633 209.084,-224.843 214.833,-220.849"/>
</g>
<!-- Node17 -->
<g id="node17" class="node"><title>Node17</title>
<g id="a_node17"><a xlink:href="report__util_8h.html#a7c203b3e0021b91efc49d0d58bc2ca7f" target="_top" xlink:title="rpt_int_as_hex">
<polygon fill="white" stroke="black" points="330.5,-347.383 330.5,-366.383 410.5,-366.383 410.5,-347.383 330.5,-347.383"/>
<text text-anchor="middle" x="370.5" y="-354.383" font-family="Helvetica,sans-Serif" font-size="10.00">rpt_int_as_hex</text>
</a>
</g>
</g>
<!-- Node11&#45;&gt;Node17 -->
<g id="edge19" class="edge"><title>Node11&#45;&gt;Node17</title>
<path fill="none" stroke="midnightblue" d="M209.199,-223.55C223.823,-251.35 254.967,-303.499 296,-332.883 306.15,-340.151 318.625,-345.306 330.397,-348.923"/>
<polygon fill="midnightblue" stroke="midnightblue" points="212.239,-221.808 204.571,-214.497 206.006,-224.994 212.239,-221.808"/>
</g>
<!-- Node18 -->
<g id="node18" class="node"><title>Node18</title>
<g id="a_node18"><a xlink:href="report__util_8h.html#ae9cae8fa8b9767c0bcf5fae824fcc488" target="_top" xlink:title="rpt_uint8_as_hex">
<polygon fill="white" stroke="black" points="324.5,-157.383 324.5,-176.383 416.5,-176.383 416.5,-157.383 324.5,-157.383"/>
<text text-anchor="middle" x="370.5" y="-164.383" font-family="Helvetica,sans-Serif" font-size="10.00">rpt_uint8_as_hex</text>
</a>
</g>
</g>
<!-- Node11&#45;&gt;Node18 -->
<g id="edge21" class="edge"><title>Node11&#45;&gt;Node18</title>
<path fill="none" stroke="midnightblue" d="M230.806,-197.976C257.755,-191.935 297.157,-183.101 327.083,-176.392"/>
<polygon fill="midnightblue" stroke="midnightblue" points="229.776,-194.62 220.784,-200.223 231.308,-201.451 229.776,-194.62"/>
</g>
<!-- Node19 -->
<g id="node19" class="node"><title>Node19</title>
<g id="a_node19"><a xlink:href="report__util_8h.html#a7f47a9f54cb2a9e49aa101cd3f84348c" target="_top" xlink:title="rpt_mapped_int">
<polygon fill="white" stroke="black" points="328.5,-119.383 328.5,-138.383 412.5,-138.383 412.5,-119.383 328.5,-119.383"/>
<text text-anchor="middle" x="370.5" y="-126.383" font-family="Helvetica,sans-Serif" font-size="10.00">rpt_mapped_int</text>
</a>
</g>
</g>
<!-- Node11&#45;&gt;Node19 -->
<g id="edge22" class="edge"><title>Node11&#45;&gt;Node19</title>
<path fill="none" stroke="midnightblue" d="M221.793,-189.503C240.664,-176.796 269.087,-159.084 296,-147.883 306.221,-143.629 317.648,-140.121 328.389,-137.327"/>
<polygon fill="midnightblue" stroke="midnightblue" points="219.618,-186.751 213.345,-195.289 223.573,-192.526 219.618,-186.751"/>
</g>
<!-- Node20 -->
<g id="node20" class="node"><title>Node20</title>
<g id="a_node20"><a xlink:href="report__util_8h.html#a248f29bed496a324d4898114942b4aa1" target="_top" xlink:title="rpt_ifval2">
<polygon fill="white" stroke="black" points="342.5,-81.3827 342.5,-100.383 398.5,-100.383 398.5,-81.3827 342.5,-81.3827"/>
<text text-anchor="middle" x="370.5" y="-88.3827" font-family="Helvetica,sans-Serif" font-size="10.00">rpt_ifval2</text>
</a>
</g>
</g>
<!-- Node11&#45;&gt;Node20 -->
<g id="edge24" class="edge"><title>Node11&#45;&gt;Node20</title>
<path fill="none" stroke="midnightblue" d="M213.078,-187.113C229.874,-165.582 261.057,-129.731 296,-109.883 310.211,-101.811 327.899,-97.1009 342.362,-94.3897"/>
<polygon fill="midnightblue" stroke="midnightblue" points="210.256,-185.042 206.982,-195.118 215.825,-189.282 210.256,-185.042"/>
</g>
<!-- Node21 -->
<g id="node21" class="node"><title>Node21</title>
<g id="a_node21"><a xlink:href="udev__util_8h.html#a43eb8e5892e0dd389318da9877310d52" target="_top" xlink:title="report_usb_detailed\l_device_summary">
<polygon fill="white" stroke="black" points="318,-31.8827 318,-61.8827 423,-61.8827 423,-31.8827 318,-31.8827"/>
<text text-anchor="start" x="326" y="-49.8827" font-family="Helvetica,sans-Serif" font-size="10.00">report_usb_detailed</text>
<text text-anchor="middle" x="370.5" y="-38.8827" font-family="Helvetica,sans-Serif" font-size="10.00">_device_summary</text>
</a>
</g>
</g>
<!-- Node11&#45;&gt;Node21 -->
<g id="edge25" class="edge"><title>Node11&#45;&gt;Node21</title>
<path fill="none" stroke="midnightblue" d="M208.844,-185.966C223.19,-157.265 254.195,-102.796 296,-71.8827 302.502,-67.0744 309.994,-63.1468 317.655,-59.951"/>
<polygon fill="midnightblue" stroke="midnightblue" points="205.54,-184.758 204.323,-195.283 211.838,-187.814 205.54,-184.758"/>
</g>
<!-- Node15&#45;&gt;Node12 -->
<g id="edge16" class="edge"><title>Node15&#45;&gt;Node12</title>
<path fill="none" stroke="midnightblue" d="M394.171,-265.508C409.326,-254.717 429.288,-239.478 445,-223.883 482.453,-186.708 518.781,-134.817 533.102,-113.552"/>
<polygon fill="midnightblue" stroke="midnightblue" points="392.058,-262.715 385.873,-271.317 396.072,-268.45 392.058,-262.715"/>
</g>
<!-- Node15&#45;&gt;Node13 -->
<g id="edge17" class="edge"><title>Node15&#45;&gt;Node13</title>
<path fill="none" stroke="midnightblue" d="M401.828,-277.453C423.818,-274.966 454.252,-271.524 480.915,-268.508"/>
<polygon fill="midnightblue" stroke="midnightblue" points="401.308,-273.989 391.765,-278.591 402.095,-280.945 401.308,-273.989"/>
</g>
<!-- Node15&#45;&gt;Node16 -->
<g id="edge18" class="edge"><title>Node15&#45;&gt;Node16</title>
<path fill="none" stroke="midnightblue" d="M401.671,-287.707C428.336,-293.738 467.504,-302.598 497.278,-309.332"/>
<polygon fill="midnightblue" stroke="midnightblue" points="402.291,-284.259 391.765,-285.466 400.746,-291.086 402.291,-284.259"/>
</g>
<!-- Node17&#45;&gt;Node16 -->
<g id="edge20" class="edge"><title>Node17&#45;&gt;Node16</title>
<path fill="none" stroke="midnightblue" d="M420.656,-345.764C445.009,-340.256 474.111,-333.673 497.422,-328.4"/>
<polygon fill="midnightblue" stroke="midnightblue" points="419.87,-342.353 410.889,-347.973 421.414,-349.181 419.87,-342.353"/>
</g>
</g>
</svg>
        <g id="navigator" transform="translate(0 0)" fill="#404254">
                <rect fill="#f2f5e9" fill-opacity="0.5" stroke="#606060" stroke-width=".5" x="0" y="0" width="60" height="60"/>
                <use id="zoomplus" xlink:href="#zoomPlus" x="17" y="9" onmousedown="handleZoom(evt,'in')"/>
                <use id="zoomminus" xlink:href="#zoomMin" x="42" y="9" onmousedown="handleZoom(evt,'out')"/>
                <use id="reset" xlink:href="#resetDef" x="30" y="36" onmousedown="handleReset()"/>
                <g id="arrowUp" xlink:href="#dirArrow" transform="translate(30 24)" onmousedown="handlePan(0,-1)">
                  <use xlink:href="#rim" fill="#404040">
                        <set attributeName="fill" to="#808080" begin="arrowUp.mouseover" end="arrowUp.mouseout"/>
                  </use>
                  <path fill="none" stroke="white" stroke-width="1.5" d="M0,-3.0v7 M-2.5,-0.5L0,-3.0L2.5,-0.5"/>
                </g>
                <g id="arrowRight" xlink:href="#dirArrow" transform="rotate(90) translate(36 -43)" onmousedown="handlePan(1,0)">
                  <use xlink:href="#rim" fill="#404040">
                        <set attributeName="fill" to="#808080" begin="arrowRight.mouseover" end="arrowRight.mouseout"/>
                  </use>
                  <path fill="none" stroke="white" stroke-width="1.5" d="M0,-3.0v7 M-2.5,-0.5L0,-3.0L2.5,-0.5"/>
                </g>
                <g id="arrowDown" xlink:href="#dirArrow" transform="rotate(180) translate(-30 -48)" onmousedown="handlePan(0,1)">
                  <use xlink:href="#rim" fill="#404040">
                        <set attributeName="fill" to="#808080" begin="arrowDown.mouseover" end="arrowDown.mouseout"/>
                  </use>
                  <path fill="none" stroke="white" stroke-width="1.5" d="M0,-3.0v7 M-2.5,-0.5L0,-3.0L2.5,-0.5"/>
                </g>
                <g id="arrowLeft" xlink:href="#dirArrow" transform="rotate(270) translate(-36 17)" onmousedown="handlePan(-1,0)">
                  <use xlink:href="#rim" fill="#404040">
                        <set attributeName="fill" to="#808080" begin="arrowLeft.mouseover" end="arrowLeft.mouseout"/>
                  </use>
                  <path fill="none" stroke="white" stroke-width="1.5" d="M0,-3.0v7 M-2.5,-0.5L0,-3.0L2.5,-0.5"/>
                </g>
        </g>
        <svg viewBox="0 0 15 15" width="100%" height="30px" preserveAspectRatio="xMaxYMin meet">
         <g id="arrow_out" transform="scale(0.3 0.3)">
          <a xlink:href="report__util_8h_a71f4829c653e1d6101dfc1ae09f4796e_icgraph_org.svg" target="_base">
           <rect id="button" ry="5" rx="5" y="6" x="6" height="38" width="38"
                fill="#f2f5e9" fill-opacity="0.5" stroke="#606060" stroke-width="1.0"/>
           <path id="arrow"
             d="M 11.500037,31.436501 C 11.940474,20.09759 22.043105,11.32322 32.158766,21.979434 L 37.068811,17.246167 C 37.068811,17.246167 37.088388,32 37.088388,32 L 22.160133,31.978069 C 22.160133,31.978069 26.997745,27.140456 26.997745,27.140456 C 18.528582,18.264221 13.291696,25.230495 11.500037,31.436501 z"
             style="fill:#404040;"/>
          </a>
         </g>
        </svg>
</svg>
