<?xml version="1.0" encoding="UTF-8" standalone="no"?>
<!DOCTYPE svg PUBLIC "-//W3C//DTD SVG 1.1//EN"
 "http://www.w3.org/Graphics/SVG/1.1/DTD/svg11.dtd">
<!-- Generated by graphviz version 2.38.0 (20140413.2041)
 -->
<!-- Title: report_util.h Pages: 1 -->
<!--zoomable 84 -->
<svg id="main" version="1.1" xmlns="http://www.w3.org/2000/svg" xmlns:xlink="http://www.w3.org/1999/xlink" xml:space="preserve" onload="init(evt)">
<style type="text/css"><![CDATA[
.edge:hover path { stroke: red; }
.edge:hover polygon { stroke: red; fill: red; }
]]></style>
<script type="text/javascript"><![CDATA[
var edges = document.getElementsByTagName('g');
if (edges && edges.length) {
  for (var i=0;i<edges.length;i++) {
    if (edges[i].id.substr(0,4)=='edge') {
      edges[i].setAttribute('class','edge');
    }
  }
}
]]></script>
        <defs>
                <circle id="rim" cx="0" cy="0" r="7"/>
                <circle id="rim2" cx="0" cy="0" r="3.5"/>
                <g id="zoomPlus">
                        <use xlink:href="#rim" fill="#404040">
                                <set attributeName="fill" to="#808080" begin="zoomplus.mouseover" end="zoomplus.mouseout"/>
                        </use>
                        <path d="M-4,0h8M0,-4v8" fill="none" stroke="white" stroke-width="1.5" pointer-events="none"/>
                </g>
                <g id="zoomMin">
                        <use xlink:href="#rim" fill="#404040">
                                <set attributeName="fill" to="#808080" begin="zoomminus.mouseover" end="zoomminus.mouseout"/>
                        </use>
                        <path d="M-4,0h8" fill="none" stroke="white" stroke-width="1.5" pointer-events="none"/>
                </g>
                <g id="dirArrow">
                        <path fill="none" stroke="white" stroke-width="1.5" d="M0,-3.0v7 M-2.5,-0.5L0,-3.0L2.5,-0.5"/>
                </g>
               <g id="resetDef">
                       <use xlink:href="#rim2" fill="#404040">
                               <set attributeName="fill" to="#808080" begin="reset.mouseover" end="reset.mouseout"/>
                       </use>
               </g>
        </defs>

<script type="text/javascript">
var viewWidth = 707;
var viewHeight = 84;
var sectionId = 'dynsection-1';
</script>
<script xlink:href="svgpan.js"/>
<svg id="graph" class="graph">
<g id="viewport">
<title>report_util.h</title>
<polygon fill="white" stroke="none" points="-4,4 -4,-80 703,-80 703,4 -4,4"/>
<!-- Node1 -->
<g id="node1" class="node"><title>Node1</title>
<polygon fill="#bfbfbf" stroke="black" points="288.5,-56.5 288.5,-75.5 355.5,-75.5 355.5,-56.5 288.5,-56.5"/>
<text text-anchor="middle" x="322" y="-63.5" font-family="Helvetica,sans-Serif" font-size="10.00">report_util.h</text>
</g>
<!-- Node2 -->
<g id="node2" class="node"><title>Node2</title>
<g id="a_node2"><a xlink:href="device__id__util_8c.html" target="_top" xlink:title="device_id_util.c">
<polygon fill="white" stroke="black" points="0,-0.5 0,-19.5 86,-19.5 86,-0.5 0,-0.5"/>
<text text-anchor="middle" x="43" y="-7.5" font-family="Helvetica,sans-Serif" font-size="10.00">device_id_util.c</text>
</a>
</g>
</g>
<!-- Node1&#45;&gt;Node2 -->
<g id="edge1" class="edge"><title>Node1&#45;&gt;Node2</title>
<path fill="none" stroke="midnightblue" d="M278.355,-56.5526C225.968,-46.4131 138.659,-29.5146 86.3868,-19.3974"/>
<polygon fill="midnightblue" stroke="midnightblue" points="277.863,-60.0223 288.346,-58.4863 279.193,-53.1498 277.863,-60.0223"/>
</g>
<!-- Node3 -->
<g id="node3" class="node"><title>Node3</title>
<g id="a_node3"><a xlink:href="edid_8c.html" target="_top" xlink:title="edid.c">
<polygon fill="white" stroke="black" points="104,-0.5 104,-19.5 148,-19.5 148,-0.5 104,-0.5"/>
<text text-anchor="middle" x="126" y="-7.5" font-family="Helvetica,sans-Serif" font-size="10.00">edid.c</text>
</a>
</g>
</g>
<!-- Node1&#45;&gt;Node3 -->
<g id="edge2" class="edge"><title>Node1&#45;&gt;Node3</title>
<path fill="none" stroke="midnightblue" d="M280.147,-53.7876C246.763,-44.7954 198.831,-31.7757 157,-20 154.087,-19.18 151.024,-18.3054 148.003,-17.4359"/>
<polygon fill="midnightblue" stroke="midnightblue" points="279.452,-57.2249 290.018,-56.4432 281.27,-50.4653 279.452,-57.2249"/>
</g>
<!-- Node4 -->
<g id="node4" class="node"><title>Node4</title>
<g id="a_node4"><a xlink:href="failsim_8c.html" target="_top" xlink:title="failsim.c">
<polygon fill="white" stroke="black" points="166.5,-0.5 166.5,-19.5 219.5,-19.5 219.5,-0.5 166.5,-0.5"/>
<text text-anchor="middle" x="193" y="-7.5" font-family="Helvetica,sans-Serif" font-size="10.00">failsim.c</text>
</a>
</g>
</g>
<!-- Node1&#45;&gt;Node4 -->
<g id="edge3" class="edge"><title>Node1&#45;&gt;Node4</title>
<path fill="none" stroke="midnightblue" d="M292.146,-52.503C267.962,-42.3795 234.538,-28.388 213.345,-19.5164"/>
<polygon fill="midnightblue" stroke="midnightblue" points="290.984,-55.8106 301.56,-56.4435 293.687,-49.3536 290.984,-55.8106"/>
</g>
<!-- Node5 -->
<g id="node5" class="node"><title>Node5</title>
<g id="a_node5"><a xlink:href="libdrm__util_8c.html" target="_top" xlink:title="libdrm_util.c">
<polygon fill="white" stroke="black" points="238,-0.5 238,-19.5 306,-19.5 306,-0.5 238,-0.5"/>
<text text-anchor="middle" x="272" y="-7.5" font-family="Helvetica,sans-Serif" font-size="10.00">libdrm_util.c</text>
</a>
</g>
</g>
<!-- Node1&#45;&gt;Node5 -->
<g id="edge4" class="edge"><title>Node1&#45;&gt;Node5</title>
<path fill="none" stroke="midnightblue" d="M306.924,-48.7175C298.111,-39.1997 287.334,-27.5608 280.103,-19.7511"/>
<polygon fill="midnightblue" stroke="midnightblue" points="304.381,-51.1233 313.744,-56.083 309.518,-46.3674 304.381,-51.1233"/>
</g>
<!-- Node6 -->
<g id="node6" class="node"><title>Node6</title>
<g id="a_node6"><a xlink:href="multi__level__map_8c.html" target="_top" xlink:title="multi_level_map.c">
<polygon fill="white" stroke="black" points="324,-0.5 324,-19.5 420,-19.5 420,-0.5 324,-0.5"/>
<text text-anchor="middle" x="372" y="-7.5" font-family="Helvetica,sans-Serif" font-size="10.00">multi_level_map.c</text>
</a>
</g>
</g>
<!-- Node1&#45;&gt;Node6 -->
<g id="edge5" class="edge"><title>Node1&#45;&gt;Node6</title>
<path fill="none" stroke="midnightblue" d="M337.076,-48.7175C345.889,-39.1997 356.666,-27.5608 363.897,-19.7511"/>
<polygon fill="midnightblue" stroke="midnightblue" points="334.482,-46.3674 330.256,-56.083 339.619,-51.1233 334.482,-46.3674"/>
</g>
<!-- Node7 -->
<g id="node7" class="node"><title>Node7</title>
<g id="a_node7"><a xlink:href="report__util_8c.html" target="_top" xlink:title="report_util.c">
<polygon fill="white" stroke="black" points="438.5,-0.5 438.5,-19.5 505.5,-19.5 505.5,-0.5 438.5,-0.5"/>
<text text-anchor="middle" x="472" y="-7.5" font-family="Helvetica,sans-Serif" font-size="10.00">report_util.c</text>
</a>
</g>
</g>
<!-- Node1&#45;&gt;Node7 -->
<g id="edge6" class="edge"><title>Node1&#45;&gt;Node7</title>
<path fill="none" stroke="midnightblue" d="M355.225,-53.0392C383.448,-42.8786 423.262,-28.5457 448.343,-19.5164"/>
<polygon fill="midnightblue" stroke="midnightblue" points="353.991,-49.7632 345.768,-56.4435 356.362,-56.3494 353.991,-49.7632"/>
</g>
<!-- Node8 -->
<g id="node8" class="node"><title>Node8</title>
<g id="a_node8"><a xlink:href="subprocess__util_8c.html" target="_top" xlink:title="subprocess_util.c">
<polygon fill="white" stroke="black" points="523.5,-0.5 523.5,-19.5 616.5,-19.5 616.5,-0.5 523.5,-0.5"/>
<text text-anchor="middle" x="570" y="-7.5" font-family="Helvetica,sans-Serif" font-size="10.00">subprocess_util.c</text>
</a>
</g>
</g>
<!-- Node1&#45;&gt;Node8 -->
<g id="edge7" class="edge"><title>Node1&#45;&gt;Node8</title>
<path fill="none" stroke="midnightblue" d="M365.524,-55.5231C412.194,-45.3609 485.64,-29.3686 530.639,-19.5704"/>
<polygon fill="midnightblue" stroke="midnightblue" points="364.731,-52.1136 355.704,-57.6611 366.22,-58.9533 364.731,-52.1136"/>
</g>
<!-- Node9 -->
<g id="node9" class="node"><title>Node9</title>
<g id="a_node9"><a xlink:href="udev__util_8c.html" target="_top" xlink:title="udev_util.c">
<polygon fill="white" stroke="black" points="635,-0.5 635,-19.5 699,-19.5 699,-0.5 635,-0.5"/>
<text text-anchor="middle" x="667" y="-7.5" font-family="Helvetica,sans-Serif" font-size="10.00">udev_util.c</text>
</a>
</g>
</g>
<!-- Node1&#45;&gt;Node9 -->
<g id="edge8" class="edge"><title>Node1&#45;&gt;Node9</title>
<path fill="none" stroke="midnightblue" d="M365.991,-59.4592C425.252,-51.7736 533.923,-36.9001 626,-20 628.867,-19.4738 631.839,-18.8922 634.814,-18.2856"/>
<polygon fill="midnightblue" stroke="midnightblue" points="365.335,-56.0146 355.865,-60.7647 366.23,-62.9571 365.335,-56.0146"/>
</g>
</g>
</svg>
        <g id="navigator" transform="translate(0 0)" fill="#404254">
                <rect fill="#f2f5e9" fill-opacity="0.5" stroke="#606060" stroke-width=".5" x="0" y="0" width="60" height="60"/>
                <use id="zoomplus" xlink:href="#zoomPlus" x="17" y="9" onmousedown="handleZoom(evt,'in')"/>
                <use id="zoomminus" xlink:href="#zoomMin" x="42" y="9" onmousedown="handleZoom(evt,'out')"/>
                <use id="reset" xlink:href="#resetDef" x="30" y="36" onmousedown="handleReset()"/>
                <g id="arrowUp" xlink:href="#dirArrow" transform="translate(30 24)" onmousedown="handlePan(0,-1)">
                  <use xlink:href="#rim" fill="#404040">
                        <set attributeName="fill" to="#808080" begin="arrowUp.mouseover" end="arrowUp.mouseout"/>
                  </use>
                  <path fill="none" stroke="white" stroke-width="1.5" d="M0,-3.0v7 M-2.5,-0.5L0,-3.0L2.5,-0.5"/>
                </g>
                <g id="arrowRight" xlink:href="#dirArrow" transform="rotate(90) translate(36 -43)" onmousedown="handlePan(1,0)">
                  <use xlink:href="#rim" fill="#404040">
                        <set attributeName="fill" to="#808080" begin="arrowRight.mouseover" end="arrowRight.mouseout"/>
                  </use>
                  <path fill="none" stroke="white" stroke-width="1.5" d="M0,-3.0v7 M-2.5,-0.5L0,-3.0L2.5,-0.5"/>
                </g>
                <g id="arrowDown" xlink:href="#dirArrow" transform="rotate(180) translate(-30 -48)" onmousedown="handlePan(0,1)">
                  <use xlink:href="#rim" fill="#404040">
                        <set attributeName="fill" to="#808080" begin="arrowDown.mouseover" end="arrowDown.mouseout"/>
                  </use>
                  <path fill="none" stroke="white" stroke-width="1.5" d="M0,-3.0v7 M-2.5,-0.5L0,-3.0L2.5,-0.5"/>
                </g>
                <g id="arrowLeft" xlink:href="#dirArrow" transform="rotate(270) translate(-36 17)" onmousedown="handlePan(-1,0)">
                  <use xlink:href="#rim" fill="#404040">
                        <set attributeName="fill" to="#808080" begin="arrowLeft.mouseover" end="arrowLeft.mouseout"/>
                  </use>
                  <path fill="none" stroke="white" stroke-width="1.5" d="M0,-3.0v7 M-2.5,-0.5L0,-3.0L2.5,-0.5"/>
                </g>
        </g>
        <svg viewBox="0 0 15 15" width="100%" height="30px" preserveAspectRatio="xMaxYMin meet">
         <g id="arrow_out" transform="scale(0.3 0.3)">
          <a xlink:href="report__util_8h__dep__incl_org.svg" target="_base">
           <rect id="button" ry="5" rx="5" y="6" x="6" height="38" width="38"
                fill="#f2f5e9" fill-opacity="0.5" stroke="#606060" stroke-width="1.0"/>
           <path id="arrow"
             d="M 11.500037,31.436501 C 11.940474,20.09759 22.043105,11.32322 32.158766,21.979434 L 37.068811,17.246167 C 37.068811,17.246167 37.088388,32 37.088388,32 L 22.160133,31.978069 C 22.160133,31.978069 26.997745,27.140456 26.997745,27.140456 C 18.528582,18.264221 13.291696,25.230495 11.500037,31.436501 z"
             style="fill:#404040;"/>
          </a>
         </g>
        </svg>
</svg>
