<?xml version="1.0" encoding="UTF-8" standalone="no"?>
<!DOCTYPE svg PUBLIC "-//W3C//DTD SVG 1.1//EN"
 "http://www.w3.org/Graphics/SVG/1.1/DTD/svg11.dtd">
<!-- Generated by graphviz version 2.38.0 (20140413.2041)
 -->
<!-- Title: rpt_nl Pages: 1 -->
<svg width="186pt" height="104pt"
 viewBox="0.00 0.00 186.00 104.00" xmlns="http://www.w3.org/2000/svg" xmlns:xlink="http://www.w3.org/1999/xlink">
<g id="graph0" class="graph" transform="scale(1 1) rotate(0) translate(4 100)">
<title>rpt_nl</title>
<polygon fill="white" stroke="none" points="-4,4 -4,-100 182,-100 182,4 -4,4"/>
<!-- Node1 -->
<g id="node1" class="node"><title>Node1</title>
<polygon fill="#bfbfbf" stroke="black" points="0,-38.5 0,-57.5 40,-57.5 40,-38.5 0,-38.5"/>
<text text-anchor="middle" x="20" y="-45.5" font-family="Helvetica,sans-Serif" font-size="10.00">rpt_nl</text>
</g>
<!-- Node2 -->
<g id="node2" class="node"><title>Node2</title>
<g id="a_node2"><a xlink:href="string__util_8c.html#a40e4b07a0b96c41bd9acace618efa73b" target="_top" xlink:title="f0printf">
<polygon fill="white" stroke="black" points="104.5,-76.5 104.5,-95.5 149.5,-95.5 149.5,-76.5 104.5,-76.5"/>
<text text-anchor="middle" x="127" y="-83.5" font-family="Helvetica,sans-Serif" font-size="10.00">f0printf</text>
</a>
</g>
</g>
<!-- Node1&#45;&gt;Node2 -->
<g id="edge1" class="edge"><title>Node1&#45;&gt;Node2</title>
<path fill="none" stroke="midnightblue" d="M40.2586,-54.9698C55.4029,-60.4506 76.8163,-68.2002 94.4545,-74.5835"/>
<polygon fill="midnightblue" stroke="midnightblue" points="93.7333,-78.0446 104.328,-78.1566 96.1154,-71.4624 93.7333,-78.0446"/>
</g>
<!-- Node3 -->
<g id="node3" class="node"><title>Node3</title>
<g id="a_node3"><a xlink:href="report__util_8c.html#a71f4829c653e1d6101dfc1ae09f4796e" target="_top" xlink:title="rpt_cur_output_dest">
<polygon fill="white" stroke="black" points="76,-38.5 76,-57.5 178,-57.5 178,-38.5 76,-38.5"/>
<text text-anchor="middle" x="127" y="-45.5" font-family="Helvetica,sans-Serif" font-size="10.00">rpt_cur_output_dest</text>
</a>
</g>
</g>
<!-- Node1&#45;&gt;Node3 -->
<g id="edge2" class="edge"><title>Node1&#45;&gt;Node3</title>
<path fill="none" stroke="midnightblue" d="M40.2586,-48C47.6499,-48 56.5345,-48 65.7447,-48"/>
<polygon fill="midnightblue" stroke="midnightblue" points="65.8113,-51.5001 75.8113,-48 65.8112,-44.5001 65.8113,-51.5001"/>
</g>
<!-- Node4 -->
<g id="node4" class="node"><title>Node4</title>
<g id="a_node4"><a xlink:href="report__util_8c.html#ad8736ff7dcecf76ad38a0c26a1cdf5ff" target="_top" xlink:title="rpt_get_indent">
<polygon fill="white" stroke="black" points="87.5,-0.5 87.5,-19.5 166.5,-19.5 166.5,-0.5 87.5,-0.5"/>
<text text-anchor="middle" x="127" y="-7.5" font-family="Helvetica,sans-Serif" font-size="10.00">rpt_get_indent</text>
</a>
</g>
</g>
<!-- Node1&#45;&gt;Node4 -->
<g id="edge3" class="edge"><title>Node1&#45;&gt;Node4</title>
<path fill="none" stroke="midnightblue" d="M40.2586,-41.0302C54.2151,-35.9793 73.4959,-29.0015 90.2395,-22.9419"/>
<polygon fill="midnightblue" stroke="midnightblue" points="91.5333,-26.1959 99.7453,-19.5017 89.1511,-19.6137 91.5333,-26.1959"/>
</g>
</g>
</svg>
