<?xml version="1.0" encoding="UTF-8" standalone="no"?>
<!DOCTYPE svg PUBLIC "-//W3C//DTD SVG 1.1//EN"
 "http://www.w3.org/Graphics/SVG/1.1/DTD/svg11.dtd">
<!-- Generated by graphviz version 2.38.0 (20140413.2041)
 -->
<!-- Title: rpt_vstring Pages: 1 -->
<svg width="593pt" height="1108pt"
 viewBox="0.00 0.00 593.00 1108.00" xmlns="http://www.w3.org/2000/svg" xmlns:xlink="http://www.w3.org/1999/xlink">
<g id="graph0" class="graph" transform="scale(1 1) rotate(0) translate(4 1104)">
<title>rpt_vstring</title>
<polygon fill="white" stroke="none" points="-4,4 -4,-1104 589,-1104 589,4 -4,4"/>
<!-- Node1 -->
<g id="node1" class="node"><title>Node1</title>
<polygon fill="#bfbfbf" stroke="black" points="0,-753.5 0,-772.5 62,-772.5 62,-753.5 0,-753.5"/>
<text text-anchor="middle" x="31" y="-760.5" font-family="Helvetica,sans-Serif" font-size="10.00">rpt_vstring</text>
</g>
<!-- Node2 -->
<g id="node2" class="node"><title>Node2</title>
<g id="a_node2"><a xlink:href="failsim_8h.html#a01bfaa175f646e99f9b0be7564f5514c" target="_top" xlink:title="fsim_report_error_table">
<polygon fill="white" stroke="black" points="117.5,-1080.5 117.5,-1099.5 236.5,-1099.5 236.5,-1080.5 117.5,-1080.5"/>
<text text-anchor="middle" x="177" y="-1087.5" font-family="Helvetica,sans-Serif" font-size="10.00">fsim_report_error_table</text>
</a>
</g>
</g>
<!-- Node1&#45;&gt;Node2 -->
<g id="edge1" class="edge"><title>Node1&#45;&gt;Node2</title>
<path fill="none" stroke="midnightblue" d="M33.5394,-782.801C38.7066,-844.125 57.4357,-1029.29 98,-1071 103.344,-1076.5 109.993,-1080.51 117.138,-1083.42"/>
<polygon fill="midnightblue" stroke="midnightblue" points="37.0057,-782.242 32.7071,-772.558 30.0287,-782.809 37.0057,-782.242"/>
</g>
<!-- Node3 -->
<g id="node3" class="node"><title>Node3</title>
<g id="a_node3"><a xlink:href="failsim_8h.html#a0f46c25f6c1e39af27c3e279a84784f8" target="_top" xlink:title="fsim_set_name_to_number\l_funcs">
<polygon fill="white" stroke="black" points="109,-1031 109,-1061 245,-1061 245,-1031 109,-1031"/>
<text text-anchor="start" x="117" y="-1049" font-family="Helvetica,sans-Serif" font-size="10.00">fsim_set_name_to_number</text>
<text text-anchor="middle" x="177" y="-1038" font-family="Helvetica,sans-Serif" font-size="10.00">_funcs</text>
</a>
</g>
</g>
<!-- Node1&#45;&gt;Node3 -->
<g id="edge2" class="edge"><title>Node1&#45;&gt;Node3</title>
<path fill="none" stroke="midnightblue" d="M34.5115,-782.699C41.8065,-836.969 64.6168,-986.94 98,-1022 101.224,-1025.39 104.913,-1028.3 108.894,-1030.8"/>
<polygon fill="midnightblue" stroke="midnightblue" points="37.9639,-782.107 33.1922,-772.647 31.0234,-783.018 37.9639,-782.107"/>
</g>
<!-- Node4 -->
<g id="node4" class="node"><title>Node4</title>
<g id="a_node4"><a xlink:href="udev__util_8h.html#a8138b6d04b60c36c6cf3060e20bf517e" target="_top" xlink:title="lookup_udev_usb_device\l_by_devname">
<polygon fill="white" stroke="black" points="111.5,-982 111.5,-1012 242.5,-1012 242.5,-982 111.5,-982"/>
<text text-anchor="start" x="119.5" y="-1000" font-family="Helvetica,sans-Serif" font-size="10.00">lookup_udev_usb_device</text>
<text text-anchor="middle" x="177" y="-989" font-family="Helvetica,sans-Serif" font-size="10.00">_by_devname</text>
</a>
</g>
</g>
<!-- Node1&#45;&gt;Node4 -->
<g id="edge3" class="edge"><title>Node1&#45;&gt;Node4</title>
<path fill="none" stroke="midnightblue" d="M32.9045,-782.573C35.7816,-822.492 47.8023,-914.001 98,-967 103.787,-973.11 110.955,-977.991 118.582,-981.886"/>
<polygon fill="midnightblue" stroke="midnightblue" points="36.3958,-782.322 32.3015,-772.551 29.4085,-782.743 36.3958,-782.322"/>
</g>
<!-- Node5 -->
<g id="node5" class="node"><title>Node5</title>
<g id="a_node5"><a xlink:href="udev__util_8h.html#a99b7881f22243d06502945cddebbe6ab" target="_top" xlink:title="probe_udev_subsystem">
<polygon fill="white" stroke="black" points="462,-895.5 462,-914.5 585,-914.5 585,-895.5 462,-895.5"/>
<text text-anchor="middle" x="523.5" y="-902.5" font-family="Helvetica,sans-Serif" font-size="10.00">probe_udev_subsystem</text>
</a>
</g>
</g>
<!-- Node1&#45;&gt;Node5 -->
<g id="edge4" class="edge"><title>Node1&#45;&gt;Node5</title>
<path fill="none" stroke="midnightblue" d="M32.8208,-782.641C35.5558,-819.683 47.345,-899.254 98,-934 158.916,-975.785 383.745,-934.581 479.193,-914.554"/>
<polygon fill="midnightblue" stroke="midnightblue" points="36.3119,-782.384 32.2297,-772.608 29.324,-782.796 36.3119,-782.384"/>
</g>
<!-- Node6 -->
<g id="node6" class="node"><title>Node6</title>
<g id="a_node6"><a xlink:href="libdrm__util_8h.html#a9da3d41a89fbe6f54ac08de65e7b05b1" target="_top" xlink:title="report_drm_modeProperty">
<polygon fill="white" stroke="black" points="292,-772.5 292,-791.5 426,-791.5 426,-772.5 292,-772.5"/>
<text text-anchor="middle" x="359" y="-779.5" font-family="Helvetica,sans-Serif" font-size="10.00">report_drm_modeProperty</text>
</a>
</g>
</g>
<!-- Node1&#45;&gt;Node6 -->
<g id="edge5" class="edge"><title>Node1&#45;&gt;Node6</title>
<path fill="none" stroke="midnightblue" d="M72.1109,-765.338C126.92,-768.532 225.914,-774.302 291.808,-778.142"/>
<polygon fill="midnightblue" stroke="midnightblue" points="72.2717,-761.841 62.085,-764.753 71.8643,-768.829 72.2717,-761.841"/>
</g>
<!-- Node7 -->
<g id="node7" class="node"><title>Node7</title>
<g id="a_node7"><a xlink:href="libdrm__util_8h.html#a0a134366851de213e59925f5bc459704" target="_top" xlink:title="report_drmModePropertyBlob">
<polygon fill="white" stroke="black" points="102.5,-905.5 102.5,-924.5 251.5,-924.5 251.5,-905.5 102.5,-905.5"/>
<text text-anchor="middle" x="177" y="-912.5" font-family="Helvetica,sans-Serif" font-size="10.00">report_drmModePropertyBlob</text>
</a>
</g>
</g>
<!-- Node1&#45;&gt;Node7 -->
<g id="edge6" class="edge"><title>Node1&#45;&gt;Node7</title>
<path fill="none" stroke="midnightblue" d="M36.8574,-782.467C44.8554,-810.52 63.4628,-862.109 98,-891 105.607,-897.363 114.886,-902.041 124.354,-905.48"/>
<polygon fill="midnightblue" stroke="midnightblue" points="40.1944,-781.398 34.2207,-772.647 33.4338,-783.213 40.1944,-781.398"/>
</g>
<!-- Node8 -->
<g id="node8" class="node"><title>Node8</title>
<g id="a_node8"><a xlink:href="libdrm__util_8c.html#ae28fbf75d18faf2086044adc421c57fc" target="_top" xlink:title="report_property_value">
<polygon fill="white" stroke="black" points="302.5,-886.5 302.5,-905.5 415.5,-905.5 415.5,-886.5 302.5,-886.5"/>
<text text-anchor="middle" x="359" y="-893.5" font-family="Helvetica,sans-Serif" font-size="10.00">report_property_value</text>
</a>
</g>
</g>
<!-- Node1&#45;&gt;Node8 -->
<g id="edge14" class="edge"><title>Node1&#45;&gt;Node8</title>
<path fill="none" stroke="midnightblue" d="M41.3216,-781.544C52.1652,-801.091 71.9595,-831.193 98,-847 160.924,-885.195 246.95,-894.772 302.499,-896.593"/>
<polygon fill="midnightblue" stroke="midnightblue" points="44.3857,-779.852 36.605,-772.661 38.2031,-783.134 44.3857,-779.852"/>
</g>
<!-- Node9 -->
<g id="node9" class="node"><title>Node9</title>
<g id="a_node9"><a xlink:href="libdrm__util_8h.html#a296f38d851825b841915b5648ad491e4" target="_top" xlink:title="report_drmModeRes">
<polygon fill="white" stroke="black" points="469,-810.5 469,-829.5 578,-829.5 578,-810.5 469,-810.5"/>
<text text-anchor="middle" x="523.5" y="-817.5" font-family="Helvetica,sans-Serif" font-size="10.00">report_drmModeRes</text>
</a>
</g>
</g>
<!-- Node1&#45;&gt;Node9 -->
<g id="edge9" class="edge"><title>Node1&#45;&gt;Node9</title>
<path fill="none" stroke="midnightblue" d="M65.512,-775.895C75.796,-779.382 87.2398,-782.796 98,-785 229.486,-811.93 387.908,-818.267 468.978,-819.675"/>
<polygon fill="midnightblue" stroke="midnightblue" points="66.6625,-772.59 56.0677,-772.568 64.3361,-779.192 66.6625,-772.59"/>
</g>
<!-- Node10 -->
<g id="node10" class="node"><title>Node10</title>
<g id="a_node10"><a xlink:href="multi__level__map_8h.html#ae2a1d1e4c133a93b539c7d8c399a3cbd" target="_top" xlink:title="report_mlm_level">
<polygon fill="white" stroke="black" points="477,-399.5 477,-418.5 570,-418.5 570,-399.5 477,-399.5"/>
<text text-anchor="middle" x="523.5" y="-406.5" font-family="Helvetica,sans-Serif" font-size="10.00">report_mlm_level</text>
</a>
</g>
</g>
<!-- Node1&#45;&gt;Node10 -->
<g id="edge10" class="edge"><title>Node1&#45;&gt;Node10</title>
<path fill="none" stroke="midnightblue" d="M42.3631,-744.557C54.2155,-724.409 74.9786,-691.834 98,-668 172.786,-590.576 195.501,-570.701 292,-523 347.494,-495.568 370.857,-513.13 426,-485 461.523,-466.878 496.64,-434.679 512.99,-418.638"/>
<polygon fill="midnightblue" stroke="midnightblue" points="39.2524,-742.945 37.2897,-753.356 45.3167,-746.441 39.2524,-742.945"/>
</g>
<!-- Node11 -->
<g id="node11" class="node"><title>Node11</title>
<g id="a_node11"><a xlink:href="multi__level__map_8h.html#a9e40c0f24a7928882b04eecb13eb38f2" target="_top" xlink:title="report_multi_level_map">
<polygon fill="white" stroke="black" points="464,-228.5 464,-247.5 583,-247.5 583,-228.5 464,-228.5"/>
<text text-anchor="middle" x="523.5" y="-235.5" font-family="Helvetica,sans-Serif" font-size="10.00">report_multi_level_map</text>
</a>
</g>
</g>
<!-- Node1&#45;&gt;Node11 -->
<g id="edge11" class="edge"><title>Node1&#45;&gt;Node11</title>
<path fill="none" stroke="midnightblue" d="M33.3869,-743.051C38.8265,-668.464 60.2819,-406.513 98,-333 153.093,-225.623 180.262,-188.603 292,-143 347.14,-120.496 370.889,-120.425 426,-143 469.075,-160.645 503.245,-207.825 516.518,-228.298"/>
<polygon fill="midnightblue" stroke="midnightblue" points="29.8723,-743.132 32.6513,-753.356 36.8545,-743.63 29.8723,-743.132"/>
</g>
<!-- Node12 -->
<g id="node12" class="node"><title>Node12</title>
<g id="a_node12"><a xlink:href="edid_8h.html#ad386522b77fc8f2df755bed4a32b0bed" target="_top" xlink:title="report_parsed_edid_base">
<polygon fill="white" stroke="black" points="111,-76.5 111,-95.5 243,-95.5 243,-76.5 111,-76.5"/>
<text text-anchor="middle" x="177" y="-83.5" font-family="Helvetica,sans-Serif" font-size="10.00">report_parsed_edid_base</text>
</a>
</g>
</g>
<!-- Node1&#45;&gt;Node12 -->
<g id="edge12" class="edge"><title>Node1&#45;&gt;Node12</title>
<path fill="none" stroke="midnightblue" d="M32.7208,-743.014C36.6506,-638.766 56.8406,-160.225 98,-110 103.119,-103.754 109.825,-99.099 117.158,-95.637"/>
<polygon fill="midnightblue" stroke="midnightblue" points="29.2192,-742.995 32.3472,-753.118 36.2145,-743.254 29.2192,-742.995"/>
</g>
<!-- Node14 -->
<g id="node14" class="node"><title>Node14</title>
<g id="a_node14"><a xlink:href="udev__util_8h.html#a25d919095c7730db7bd16fb6ebd92743" target="_top" xlink:title="report_udev_device">
<polygon fill="white" stroke="black" points="306,-848.5 306,-867.5 412,-867.5 412,-848.5 306,-848.5"/>
<text text-anchor="middle" x="359" y="-855.5" font-family="Helvetica,sans-Serif" font-size="10.00">report_udev_device</text>
</a>
</g>
</g>
<!-- Node1&#45;&gt;Node14 -->
<g id="edge15" class="edge"><title>Node1&#45;&gt;Node14</title>
<path fill="none" stroke="midnightblue" d="M48.5732,-780.002C61.0479,-791.745 79.1701,-806.69 98,-815 165.704,-844.879 251.649,-854.167 305.755,-856.956"/>
<polygon fill="midnightblue" stroke="midnightblue" points="50.8429,-777.327 41.2403,-772.85 45.9553,-782.338 50.8429,-777.327"/>
</g>
<!-- Node15 -->
<g id="node15" class="node"><title>Node15</title>
<g id="a_node15"><a xlink:href="udev__util_8h.html#a5f59fcfb812079209c317f1b926fb392" target="_top" xlink:title="report_udev_usb_devinfo">
<polygon fill="white" stroke="black" points="294.5,-734.5 294.5,-753.5 423.5,-753.5 423.5,-734.5 294.5,-734.5"/>
<text text-anchor="middle" x="359" y="-741.5" font-family="Helvetica,sans-Serif" font-size="10.00">report_udev_usb_devinfo</text>
</a>
</g>
</g>
<!-- Node1&#45;&gt;Node15 -->
<g id="edge17" class="edge"><title>Node1&#45;&gt;Node15</title>
<path fill="none" stroke="midnightblue" d="M72.2396,-760.655C127.784,-757.417 228.531,-751.546 294.346,-747.71"/>
<polygon fill="midnightblue" stroke="midnightblue" points="71.8643,-757.171 62.085,-761.247 72.2717,-764.159 71.8643,-757.171"/>
</g>
<!-- Node17 -->
<g id="node17" class="node"><title>Node17</title>
<g id="a_node17"><a xlink:href="report__util_8h.html#a477c0e950cb29965c59f8b3350c7130d" target="_top" xlink:title="rpt_2col">
<polygon fill="white" stroke="black" points="151,-38.5 151,-57.5 203,-57.5 203,-38.5 151,-38.5"/>
<text text-anchor="middle" x="177" y="-45.5" font-family="Helvetica,sans-Serif" font-size="10.00">rpt_2col</text>
</a>
</g>
</g>
<!-- Node1&#45;&gt;Node17 -->
<g id="edge19" class="edge"><title>Node1&#45;&gt;Node17</title>
<path fill="none" stroke="midnightblue" d="M32.5245,-743.373C35.5757,-635.692 52.5074,-119.586 98,-67 110.858,-52.1377 133.214,-47.8833 150.705,-47.0602"/>
<polygon fill="midnightblue" stroke="midnightblue" points="29.023,-743.382 32.2455,-753.475 36.0203,-743.575 29.023,-743.382"/>
</g>
<!-- Node18 -->
<g id="node18" class="node"><title>Node18</title>
<g id="a_node18"><a xlink:href="report__util_8h.html#a271a0ddaafa0b5ff0630f85fa6bf25f4" target="_top" xlink:title="rpt_str">
<polygon fill="white" stroke="black" points="155.5,-342.5 155.5,-361.5 198.5,-361.5 198.5,-342.5 155.5,-342.5"/>
<text text-anchor="middle" x="177" y="-349.5" font-family="Helvetica,sans-Serif" font-size="10.00">rpt_str</text>
</a>
</g>
</g>
<!-- Node1&#45;&gt;Node18 -->
<g id="edge20" class="edge"><title>Node1&#45;&gt;Node18</title>
<path fill="none" stroke="midnightblue" d="M34.8521,-743.214C41.8617,-697.435 62.0316,-581.155 98,-490 118.202,-438.801 154.446,-383.372 169.336,-361.572"/>
<polygon fill="midnightblue" stroke="midnightblue" points="31.3649,-742.869 33.3519,-753.276 38.2884,-743.902 31.3649,-742.869"/>
</g>
<!-- Node27 -->
<g id="node27" class="node"><title>Node27</title>
<g id="a_node27"><a xlink:href="report__util_8h.html#af5b53c7ac855765e65c7f485fb2a1193" target="_top" xlink:title="rpt_structure_loc">
<polygon fill="white" stroke="black" points="132.5,-677.5 132.5,-696.5 221.5,-696.5 221.5,-677.5 132.5,-677.5"/>
<text text-anchor="middle" x="177" y="-684.5" font-family="Helvetica,sans-Serif" font-size="10.00">rpt_structure_loc</text>
</a>
</g>
</g>
<!-- Node1&#45;&gt;Node27 -->
<g id="edge35" class="edge"><title>Node1&#45;&gt;Node27</title>
<path fill="none" stroke="midnightblue" d="M49.3802,-746.354C62.0107,-735.031 79.9835,-720.446 98,-711 109.419,-705.013 122.575,-700.25 134.792,-696.597"/>
<polygon fill="midnightblue" stroke="midnightblue" points="46.891,-743.888 41.9049,-753.236 51.6324,-749.038 46.891,-743.888"/>
</g>
<!-- Node28 -->
<g id="node28" class="node"><title>Node28</title>
<g id="a_node28"><a xlink:href="libdrm__util_8h.html#abca082a2d351fad783a62dc81e6817dd" target="_top" xlink:title="summarize_drm_modeProperty">
<polygon fill="white" stroke="black" points="98,-0.5 98,-19.5 256,-19.5 256,-0.5 98,-0.5"/>
<text text-anchor="middle" x="177" y="-7.5" font-family="Helvetica,sans-Serif" font-size="10.00">summarize_drm_modeProperty</text>
</a>
</g>
</g>
<!-- Node1&#45;&gt;Node28 -->
<g id="edge44" class="edge"><title>Node1&#45;&gt;Node28</title>
<path fill="none" stroke="midnightblue" d="M32.4233,-743.355C34.9937,-632.16 50.031,-84.7218 98,-29 101.274,-25.1974 105.169,-22.0885 109.446,-19.5535"/>
<polygon fill="midnightblue" stroke="midnightblue" points="28.9214,-743.404 32.1964,-753.48 35.9197,-743.561 28.9214,-743.404"/>
</g>
<!-- Node7&#45;&gt;Node8 -->
<g id="edge7" class="edge"><title>Node7&#45;&gt;Node8</title>
<path fill="none" stroke="midnightblue" d="M261.703,-906.165C275.469,-904.712 289.433,-903.238 302.297,-901.88"/>
<polygon fill="midnightblue" stroke="midnightblue" points="261.31,-902.687 251.732,-907.217 262.044,-909.648 261.31,-902.687"/>
</g>
<!-- Node8&#45;&gt;Node9 -->
<g id="edge8" class="edge"><title>Node8&#45;&gt;Node9</title>
<path fill="none" stroke="midnightblue" d="M409.032,-883.396C414.828,-881.464 420.599,-879.328 426,-877 457.092,-863.6 490.499,-842.083 508.71,-829.674"/>
<polygon fill="midnightblue" stroke="midnightblue" points="407.802,-880.114 399.312,-886.452 409.902,-886.791 407.802,-880.114"/>
</g>
<!-- Node13 -->
<g id="node13" class="node"><title>Node13</title>
<g id="a_node13"><a xlink:href="edid_8h.html#a800e7d08fc3d103bd741bbf15c57b8fd" target="_top" xlink:title="report_parsed_edid">
<polygon fill="white" stroke="black" points="307,-76.5 307,-95.5 411,-95.5 411,-76.5 307,-76.5"/>
<text text-anchor="middle" x="359" y="-83.5" font-family="Helvetica,sans-Serif" font-size="10.00">report_parsed_edid</text>
</a>
</g>
</g>
<!-- Node12&#45;&gt;Node13 -->
<g id="edge13" class="edge"><title>Node12&#45;&gt;Node13</title>
<path fill="none" stroke="midnightblue" d="M253.422,-86C271.41,-86 290.197,-86 306.803,-86"/>
<polygon fill="midnightblue" stroke="midnightblue" points="253.239,-82.5001 243.239,-86 253.239,-89.5001 253.239,-82.5001"/>
</g>
<!-- Node14&#45;&gt;Node5 -->
<g id="edge16" class="edge"><title>Node14&#45;&gt;Node5</title>
<path fill="none" stroke="midnightblue" d="M403.081,-870.388C410.717,-872.588 418.593,-874.859 426,-877 447.116,-883.103 470.823,-889.981 489.455,-895.393"/>
<polygon fill="midnightblue" stroke="midnightblue" points="403.819,-866.958 393.241,-867.555 401.882,-873.685 403.819,-866.958"/>
</g>
<!-- Node16 -->
<g id="node16" class="node"><title>Node16</title>
<g id="a_node16"><a xlink:href="udev__util_8h.html#a48f4e698be2ae0d9bfc2a944b79b181e" target="_top" xlink:title="get_udev_usb_devinfo">
<polygon fill="white" stroke="black" points="464.5,-734.5 464.5,-753.5 582.5,-753.5 582.5,-734.5 464.5,-734.5"/>
<text text-anchor="middle" x="523.5" y="-741.5" font-family="Helvetica,sans-Serif" font-size="10.00">get_udev_usb_devinfo</text>
</a>
</g>
</g>
<!-- Node15&#45;&gt;Node16 -->
<g id="edge18" class="edge"><title>Node15&#45;&gt;Node16</title>
<path fill="none" stroke="midnightblue" d="M433.929,-744C444.176,-744 454.58,-744 464.482,-744"/>
<polygon fill="midnightblue" stroke="midnightblue" points="433.758,-740.5 423.758,-744 433.758,-747.5 433.758,-740.5"/>
</g>
<!-- Node18&#45;&gt;Node10 -->
<g id="edge21" class="edge"><title>Node18&#45;&gt;Node10</title>
<path fill="none" stroke="midnightblue" d="M208.365,-342.057C256.136,-328.075 351.115,-307.052 426,-333 464.487,-346.336 499.261,-382.078 514.439,-399.368"/>
<polygon fill="midnightblue" stroke="midnightblue" points="207.196,-338.754 198.638,-344.999 209.223,-345.454 207.196,-338.754"/>
</g>
<!-- Node18&#45;&gt;Node11 -->
<g id="edge22" class="edge"><title>Node18&#45;&gt;Node11</title>
<path fill="none" stroke="midnightblue" d="M189.445,-333.817C207.462,-307.113 245.247,-258.364 292,-239 352.449,-213.963 429.705,-220.499 477.643,-228.491"/>
<polygon fill="midnightblue" stroke="midnightblue" points="186.467,-331.976 183.915,-342.259 192.323,-335.812 186.467,-331.976"/>
</g>
<!-- Node19 -->
<g id="node19" class="node"><title>Node19</title>
<g id="a_node19"><a xlink:href="udev__util_8h.html#a43eb8e5892e0dd389318da9877310d52" target="_top" xlink:title="report_usb_detailed\l_device_summary">
<polygon fill="white" stroke="black" points="306.5,-533 306.5,-563 411.5,-563 411.5,-533 306.5,-533"/>
<text text-anchor="start" x="314.5" y="-551" font-family="Helvetica,sans-Serif" font-size="10.00">report_usb_detailed</text>
<text text-anchor="middle" x="359" y="-540" font-family="Helvetica,sans-Serif" font-size="10.00">_device_summary</text>
</a>
</g>
</g>
<!-- Node18&#45;&gt;Node19 -->
<g id="edge23" class="edge"><title>Node18&#45;&gt;Node19</title>
<path fill="none" stroke="midnightblue" d="M192.014,-369.448C213.013,-395.334 254.219,-445.141 292,-485 308.128,-502.015 327.667,-520.413 341.283,-532.908"/>
<polygon fill="midnightblue" stroke="midnightblue" points="194.709,-367.214 185.702,-361.636 189.264,-371.614 194.709,-367.214"/>
</g>
<!-- Node20 -->
<g id="node20" class="node"><title>Node20</title>
<g id="a_node20"><a xlink:href="report__util_8h.html#ac38a31c37ca24facf0afd10aefd66d0b" target="_top" xlink:title="rpt_bool">
<polygon fill="white" stroke="black" points="333,-342.5 333,-361.5 385,-361.5 385,-342.5 333,-342.5"/>
<text text-anchor="middle" x="359" y="-349.5" font-family="Helvetica,sans-Serif" font-size="10.00">rpt_bool</text>
</a>
</g>
</g>
<!-- Node18&#45;&gt;Node20 -->
<g id="edge24" class="edge"><title>Node18&#45;&gt;Node20</title>
<path fill="none" stroke="midnightblue" d="M208.792,-352C243.873,-352 300.527,-352 332.995,-352"/>
<polygon fill="midnightblue" stroke="midnightblue" points="208.648,-348.5 198.648,-352 208.648,-355.5 208.648,-348.5"/>
</g>
<!-- Node21 -->
<g id="node21" class="node"><title>Node21</title>
<g id="a_node21"><a xlink:href="report__util_8h.html#af2a0616acf74f44d97d7d5ec2ffb6d05" target="_top" xlink:title="rpt_bytes_as_hex">
<polygon fill="white" stroke="black" points="476,-313.5 476,-332.5 571,-332.5 571,-313.5 476,-313.5"/>
<text text-anchor="middle" x="523.5" y="-320.5" font-family="Helvetica,sans-Serif" font-size="10.00">rpt_bytes_as_hex</text>
</a>
</g>
</g>
<!-- Node18&#45;&gt;Node21 -->
<g id="edge25" class="edge"><title>Node18&#45;&gt;Node21</title>
<path fill="none" stroke="midnightblue" d="M192.093,-334.32C211.656,-311.359 249.47,-272.398 292,-257 347.998,-236.726 369.103,-239.404 426,-257 462.067,-268.154 496.666,-297.941 512.89,-313.397"/>
<polygon fill="midnightblue" stroke="midnightblue" points="189.204,-332.322 185.517,-342.255 194.593,-336.788 189.204,-332.322"/>
</g>
<!-- Node22 -->
<g id="node22" class="node"><title>Node22</title>
<g id="a_node22"><a xlink:href="report__util_8h.html#a248f29bed496a324d4898114942b4aa1" target="_top" xlink:title="rpt_ifval2">
<polygon fill="white" stroke="black" points="331,-152.5 331,-171.5 387,-171.5 387,-152.5 331,-152.5"/>
<text text-anchor="middle" x="359" y="-159.5" font-family="Helvetica,sans-Serif" font-size="10.00">rpt_ifval2</text>
</a>
</g>
</g>
<!-- Node18&#45;&gt;Node22 -->
<g id="edge26" class="edge"><title>Node18&#45;&gt;Node22</title>
<path fill="none" stroke="midnightblue" d="M186.274,-332.867C202,-298.646 239.393,-226.736 292,-186 303.279,-177.266 318.034,-171.503 330.732,-167.819"/>
<polygon fill="midnightblue" stroke="midnightblue" points="182.987,-331.644 182.097,-342.201 189.377,-334.503 182.987,-331.644"/>
</g>
<!-- Node23 -->
<g id="node23" class="node"><title>Node23</title>
<g id="a_node23"><a xlink:href="report__util_8h.html#a105b44822ec124d16c445268308b31d7" target="_top" xlink:title="rpt_int">
<polygon fill="white" stroke="black" points="338,-266.5 338,-285.5 380,-285.5 380,-266.5 338,-266.5"/>
<text text-anchor="middle" x="359" y="-273.5" font-family="Helvetica,sans-Serif" font-size="10.00">rpt_int</text>
</a>
</g>
</g>
<!-- Node18&#45;&gt;Node23 -->
<g id="edge27" class="edge"><title>Node18&#45;&gt;Node23</title>
<path fill="none" stroke="midnightblue" d="M207.128,-337.942C229.998,-327.092 262.756,-311.965 292,-300 307.234,-293.767 324.755,-287.434 337.914,-282.839"/>
<polygon fill="midnightblue" stroke="midnightblue" points="205.491,-334.845 197.971,-342.308 208.503,-341.163 205.491,-334.845"/>
</g>
<!-- Node24 -->
<g id="node24" class="node"><title>Node24</title>
<g id="a_node24"><a xlink:href="report__util_8h.html#a7c203b3e0021b91efc49d0d58bc2ca7f" target="_top" xlink:title="rpt_int_as_hex">
<polygon fill="white" stroke="black" points="319,-456.5 319,-475.5 399,-475.5 399,-456.5 319,-456.5"/>
<text text-anchor="middle" x="359" y="-463.5" font-family="Helvetica,sans-Serif" font-size="10.00">rpt_int_as_hex</text>
</a>
</g>
</g>
<!-- Node18&#45;&gt;Node24 -->
<g id="edge31" class="edge"><title>Node18&#45;&gt;Node24</title>
<path fill="none" stroke="midnightblue" d="M193.794,-368.932C214.444,-390.115 252.643,-426.133 292,-447 300.322,-451.413 309.793,-454.911 318.912,-457.64"/>
<polygon fill="midnightblue" stroke="midnightblue" points="196.218,-366.403 186.773,-361.603 191.163,-371.245 196.218,-366.403"/>
</g>
<!-- Node25 -->
<g id="node25" class="node"><title>Node25</title>
<g id="a_node25"><a xlink:href="report__util_8h.html#a7f47a9f54cb2a9e49aa101cd3f84348c" target="_top" xlink:title="rpt_mapped_int">
<polygon fill="white" stroke="black" points="317,-418.5 317,-437.5 401,-437.5 401,-418.5 317,-418.5"/>
<text text-anchor="middle" x="359" y="-425.5" font-family="Helvetica,sans-Serif" font-size="10.00">rpt_mapped_int</text>
</a>
</g>
</g>
<!-- Node18&#45;&gt;Node25 -->
<g id="edge33" class="edge"><title>Node18&#45;&gt;Node25</title>
<path fill="none" stroke="midnightblue" d="M203.923,-366.68C226.634,-379.119 260.795,-396.826 292,-409 300.998,-412.51 310.909,-415.701 320.255,-418.424"/>
<polygon fill="midnightblue" stroke="midnightblue" points="205.377,-363.484 194.933,-361.702 201.987,-369.608 205.377,-363.484"/>
</g>
<!-- Node26 -->
<g id="node26" class="node"><title>Node26</title>
<g id="a_node26"><a xlink:href="report__util_8h.html#ae9cae8fa8b9767c0bcf5fae824fcc488" target="_top" xlink:title="rpt_uint8_as_hex">
<polygon fill="white" stroke="black" points="313,-380.5 313,-399.5 405,-399.5 405,-380.5 313,-380.5"/>
<text text-anchor="middle" x="359" y="-387.5" font-family="Helvetica,sans-Serif" font-size="10.00">rpt_uint8_as_hex</text>
</a>
</g>
</g>
<!-- Node18&#45;&gt;Node26 -->
<g id="edge34" class="edge"><title>Node18&#45;&gt;Node26</title>
<path fill="none" stroke="midnightblue" d="M208.49,-358.437C237.118,-364.48 280.304,-373.597 312.912,-380.481"/>
<polygon fill="midnightblue" stroke="midnightblue" points="209.156,-355 198.648,-356.359 207.71,-361.849 209.156,-355"/>
</g>
<!-- Node23&#45;&gt;Node10 -->
<g id="edge28" class="edge"><title>Node23&#45;&gt;Node10</title>
<path fill="none" stroke="midnightblue" d="M389.978,-283.327C401.857,-287.113 415.222,-292.54 426,-300 446.215,-313.993 445.76,-323.542 462,-342 480.013,-362.474 501.489,-386.068 513.399,-399.083"/>
<polygon fill="midnightblue" stroke="midnightblue" points="390.605,-279.864 380.025,-280.413 388.638,-286.582 390.605,-279.864"/>
</g>
<!-- Node23&#45;&gt;Node11 -->
<g id="edge29" class="edge"><title>Node23&#45;&gt;Node11</title>
<path fill="none" stroke="midnightblue" d="M390.195,-268.939C415.965,-262.913 453.256,-254.192 481.684,-247.545"/>
<polygon fill="midnightblue" stroke="midnightblue" points="389.192,-265.579 380.252,-271.264 390.786,-272.395 389.192,-265.579"/>
</g>
<!-- Node23&#45;&gt;Node21 -->
<g id="edge30" class="edge"><title>Node23&#45;&gt;Node21</title>
<path fill="none" stroke="midnightblue" d="M389.974,-284.669C418.213,-292.837 460.428,-305.047 489.59,-313.481"/>
<polygon fill="midnightblue" stroke="midnightblue" points="390.831,-281.274 380.252,-281.858 388.886,-287.998 390.831,-281.274"/>
</g>
<!-- Node24&#45;&gt;Node21 -->
<g id="edge32" class="edge"><title>Node24&#45;&gt;Node21</title>
<path fill="none" stroke="midnightblue" d="M408.874,-456.374C414.978,-453.924 420.868,-450.852 426,-447 449.963,-429.013 443.893,-413.873 462,-390 478.479,-368.272 500.507,-345.128 512.927,-332.531"/>
<polygon fill="midnightblue" stroke="midnightblue" points="407.487,-453.15 399.186,-459.734 409.781,-459.764 407.487,-453.15"/>
</g>
<!-- Node27&#45;&gt;Node6 -->
<g id="edge36" class="edge"><title>Node27&#45;&gt;Node6</title>
<path fill="none" stroke="midnightblue" d="M197.442,-702.698C219.289,-719.663 256.375,-746.482 292,-763 300.005,-766.712 308.897,-769.865 317.494,-772.473"/>
<polygon fill="midnightblue" stroke="midnightblue" points="199.607,-699.948 189.586,-696.509 195.276,-705.447 199.607,-699.948"/>
</g>
<!-- Node27&#45;&gt;Node9 -->
<g id="edge37" class="edge"><title>Node27&#45;&gt;Node9</title>
<path fill="none" stroke="midnightblue" d="M231.963,-685.405C284.405,-686.05 364.858,-692.995 426,-725 446.611,-735.789 445.527,-746.572 462,-763 479.167,-780.119 499.857,-799.317 512.054,-810.493"/>
<polygon fill="midnightblue" stroke="midnightblue" points="231.88,-681.905 221.862,-685.355 231.845,-688.905 231.88,-681.905"/>
</g>
<!-- Node27&#45;&gt;Node10 -->
<g id="edge38" class="edge"><title>Node27&#45;&gt;Node10</title>
<path fill="none" stroke="midnightblue" d="M231.986,-683.681C295.741,-678.746 396.827,-667.418 426,-644 501.322,-583.535 518.394,-454.543 521.756,-418.519"/>
<polygon fill="midnightblue" stroke="midnightblue" points="231.417,-680.213 221.704,-684.446 231.937,-687.194 231.417,-680.213"/>
</g>
<!-- Node27&#45;&gt;Node11 -->
<g id="edge39" class="edge"><title>Node27&#45;&gt;Node11</title>
<path fill="none" stroke="midnightblue" d="M196.129,-670.848C217.57,-652.56 255.036,-623.092 292,-606 347.769,-580.212 385.121,-617.871 426,-572 505.958,-482.278 411.056,-412.849 462,-304 473.069,-280.348 495.665,-259.316 509.892,-247.65"/>
<polygon fill="midnightblue" stroke="midnightblue" points="193.737,-668.289 188.476,-677.485 198.324,-673.577 193.737,-668.289"/>
</g>
<!-- Node27&#45;&gt;Node14 -->
<g id="edge40" class="edge"><title>Node27&#45;&gt;Node14</title>
<path fill="none" stroke="midnightblue" d="M194.405,-704.171C216.225,-726.83 256.213,-767.736 292,-801 310.408,-818.111 332.694,-836.998 346.089,-848.163"/>
<polygon fill="midnightblue" stroke="midnightblue" points="196.68,-701.486 187.229,-696.696 191.63,-706.334 196.68,-701.486"/>
</g>
<!-- Node27&#45;&gt;Node15 -->
<g id="edge41" class="edge"><title>Node27&#45;&gt;Node15</title>
<path fill="none" stroke="midnightblue" d="M219.211,-699.559C231.095,-703.213 244.072,-707.236 256,-711 280.494,-718.73 308.22,-727.716 328.577,-734.357"/>
<polygon fill="midnightblue" stroke="midnightblue" points="220.119,-696.177 209.532,-696.589 218.066,-702.869 220.119,-696.177"/>
</g>
<!-- Node27&#45;&gt;Node19 -->
<g id="edge42" class="edge"><title>Node27&#45;&gt;Node19</title>
<path fill="none" stroke="midnightblue" d="M192.627,-669.767C213.017,-646.559 252.005,-605.058 292,-578 300.34,-572.358 309.913,-567.312 319.133,-563.041"/>
<polygon fill="midnightblue" stroke="midnightblue" points="189.891,-667.579 185.988,-677.429 195.182,-672.163 189.891,-667.579"/>
</g>
<!-- Node27&#45;&gt;Node21 -->
<g id="edge43" class="edge"><title>Node27&#45;&gt;Node21</title>
<path fill="none" stroke="midnightblue" d="M211.276,-673.6C233.871,-664.711 264.526,-653.059 292,-644 350.79,-624.615 384.727,-652.137 426,-606 490.889,-533.464 419.684,-477.644 462,-390 473.448,-366.289 495.926,-344.844 510.026,-332.903"/>
<polygon fill="midnightblue" stroke="midnightblue" points="209.82,-670.412 201.81,-677.348 212.396,-676.921 209.82,-670.412"/>
</g>
</g>
</svg>
