<?xml version="1.0" encoding="UTF-8" standalone="no"?>
<!DOCTYPE svg PUBLIC "-//W3C//DTD SVG 1.1//EN"
 "http://www.w3.org/Graphics/SVG/1.1/DTD/svg11.dtd">
<!-- Generated by graphviz version 2.38.0 (20140413.2041)
 -->
<!-- Title: rpt_get_indent Pages: 1 -->
<svg width="681pt" height="104pt"
 viewBox="0.00 0.00 681.00 104.00" xmlns="http://www.w3.org/2000/svg" xmlns:xlink="http://www.w3.org/1999/xlink">
<g id="graph0" class="graph" transform="scale(1 1) rotate(0) translate(4 100)">
<title>rpt_get_indent</title>
<polygon fill="white" stroke="none" points="-4,4 -4,-100 677,-100 677,4 -4,4"/>
<!-- Node1 -->
<g id="node1" class="node"><title>Node1</title>
<polygon fill="#bfbfbf" stroke="black" points="0,-38.5 0,-57.5 79,-57.5 79,-38.5 0,-38.5"/>
<text text-anchor="middle" x="39.5" y="-45.5" font-family="Helvetica,sans-Serif" font-size="10.00">rpt_get_indent</text>
</g>
<!-- Node2 -->
<g id="node2" class="node"><title>Node2</title>
<g id="a_node2"><a xlink:href="report__util_8h.html#a477c0e950cb29965c59f8b3350c7130d" target="_top" xlink:title="rpt_2col">
<polygon fill="white" stroke="black" points="128.5,-76.5 128.5,-95.5 180.5,-95.5 180.5,-76.5 128.5,-76.5"/>
<text text-anchor="middle" x="154.5" y="-83.5" font-family="Helvetica,sans-Serif" font-size="10.00">rpt_2col</text>
</a>
</g>
</g>
<!-- Node1&#45;&gt;Node2 -->
<g id="edge1" class="edge"><title>Node1&#45;&gt;Node2</title>
<path fill="none" stroke="midnightblue" d="M78.862,-60.9005C95.2409,-66.4084 113.895,-72.6814 128.457,-77.5784"/>
<polygon fill="midnightblue" stroke="midnightblue" points="79.6087,-57.4591 69.0147,-57.589 77.3775,-64.0939 79.6087,-57.4591"/>
</g>
<!-- Node3 -->
<g id="node3" class="node"><title>Node3</title>
<g id="a_node3"><a xlink:href="report__util_8h.html#a5cdea9095d42e1486dd5f4b45e1e2a82" target="_top" xlink:title="rpt_hex_dump">
<polygon fill="white" stroke="black" points="115,-38.5 115,-57.5 194,-57.5 194,-38.5 115,-38.5"/>
<text text-anchor="middle" x="154.5" y="-45.5" font-family="Helvetica,sans-Serif" font-size="10.00">rpt_hex_dump</text>
</a>
</g>
</g>
<!-- Node1&#45;&gt;Node3 -->
<g id="edge2" class="edge"><title>Node1&#45;&gt;Node3</title>
<path fill="none" stroke="midnightblue" d="M89.2765,-48C97.7826,-48 106.527,-48 114.718,-48"/>
<polygon fill="midnightblue" stroke="midnightblue" points="89.0722,-44.5001 79.0721,-48 89.0721,-51.5001 89.0722,-44.5001"/>
</g>
<!-- Node9 -->
<g id="node9" class="node"><title>Node9</title>
<g id="a_node9"><a xlink:href="report__util_8h.html#a7c7aaf851ba8d9da017ed521f0fcb504" target="_top" xlink:title="rpt_nl">
<polygon fill="white" stroke="black" points="284.5,-0.5 284.5,-19.5 324.5,-19.5 324.5,-0.5 284.5,-0.5"/>
<text text-anchor="middle" x="304.5" y="-7.5" font-family="Helvetica,sans-Serif" font-size="10.00">rpt_nl</text>
</a>
</g>
</g>
<!-- Node1&#45;&gt;Node9 -->
<g id="edge8" class="edge"><title>Node1&#45;&gt;Node9</title>
<path fill="none" stroke="midnightblue" d="M83.5963,-35.8471C93.8267,-33.2859 104.748,-30.8136 115,-29 176.377,-18.1428 250.175,-12.9484 284.374,-10.9823"/>
<polygon fill="midnightblue" stroke="midnightblue" points="82.4535,-32.5273 73.6465,-38.4169 84.204,-39.3049 82.4535,-32.5273"/>
</g>
<!-- Node4 -->
<g id="node4" class="node"><title>Node4</title>
<g id="a_node4"><a xlink:href="edid_8h.html#ad386522b77fc8f2df755bed4a32b0bed" target="_top" xlink:title="report_parsed_edid_base">
<polygon fill="white" stroke="black" points="238.5,-76.5 238.5,-95.5 370.5,-95.5 370.5,-76.5 238.5,-76.5"/>
<text text-anchor="middle" x="304.5" y="-83.5" font-family="Helvetica,sans-Serif" font-size="10.00">report_parsed_edid_base</text>
</a>
</g>
</g>
<!-- Node3&#45;&gt;Node4 -->
<g id="edge3" class="edge"><title>Node3&#45;&gt;Node4</title>
<path fill="none" stroke="midnightblue" d="M202.673,-60.1121C223.286,-65.4044 247.109,-71.5213 266.422,-76.4799"/>
<polygon fill="midnightblue" stroke="midnightblue" points="203.403,-56.6859 192.847,-57.589 201.662,-63.466 203.403,-56.6859"/>
</g>
<!-- Node6 -->
<g id="node6" class="node"><title>Node6</title>
<g id="a_node6"><a xlink:href="libdrm__util_8h.html#a0a134366851de213e59925f5bc459704" target="_top" xlink:title="report_drmModePropertyBlob">
<polygon fill="white" stroke="black" points="230,-38.5 230,-57.5 379,-57.5 379,-38.5 230,-38.5"/>
<text text-anchor="middle" x="304.5" y="-45.5" font-family="Helvetica,sans-Serif" font-size="10.00">report_drmModePropertyBlob</text>
</a>
</g>
</g>
<!-- Node3&#45;&gt;Node6 -->
<g id="edge5" class="edge"><title>Node3&#45;&gt;Node6</title>
<path fill="none" stroke="midnightblue" d="M204.467,-48C212.65,-48 221.296,-48 229.934,-48"/>
<polygon fill="midnightblue" stroke="midnightblue" points="204.385,-44.5001 194.385,-48 204.385,-51.5001 204.385,-44.5001"/>
</g>
<!-- Node5 -->
<g id="node5" class="node"><title>Node5</title>
<g id="a_node5"><a xlink:href="edid_8h.html#a800e7d08fc3d103bd741bbf15c57b8fd" target="_top" xlink:title="report_parsed_edid">
<polygon fill="white" stroke="black" points="419.5,-76.5 419.5,-95.5 523.5,-95.5 523.5,-76.5 419.5,-76.5"/>
<text text-anchor="middle" x="471.5" y="-83.5" font-family="Helvetica,sans-Serif" font-size="10.00">report_parsed_edid</text>
</a>
</g>
</g>
<!-- Node4&#45;&gt;Node5 -->
<g id="edge4" class="edge"><title>Node4&#45;&gt;Node5</title>
<path fill="none" stroke="midnightblue" d="M381.072,-86C394.084,-86 407.326,-86 419.493,-86"/>
<polygon fill="midnightblue" stroke="midnightblue" points="380.712,-82.5001 370.712,-86 380.712,-89.5001 380.712,-82.5001"/>
</g>
<!-- Node7 -->
<g id="node7" class="node"><title>Node7</title>
<g id="a_node7"><a xlink:href="libdrm__util_8c.html#ae28fbf75d18faf2086044adc421c57fc" target="_top" xlink:title="report_property_value">
<polygon fill="white" stroke="black" points="415,-38.5 415,-57.5 528,-57.5 528,-38.5 415,-38.5"/>
<text text-anchor="middle" x="471.5" y="-45.5" font-family="Helvetica,sans-Serif" font-size="10.00">report_property_value</text>
</a>
</g>
</g>
<!-- Node6&#45;&gt;Node7 -->
<g id="edge6" class="edge"><title>Node6&#45;&gt;Node7</title>
<path fill="none" stroke="midnightblue" d="M389.339,-48C397.891,-48 406.424,-48 414.57,-48"/>
<polygon fill="midnightblue" stroke="midnightblue" points="389.313,-44.5001 379.313,-48 389.313,-51.5001 389.313,-44.5001"/>
</g>
<!-- Node8 -->
<g id="node8" class="node"><title>Node8</title>
<g id="a_node8"><a xlink:href="libdrm__util_8h.html#a296f38d851825b841915b5648ad491e4" target="_top" xlink:title="report_drmModeRes">
<polygon fill="white" stroke="black" points="564,-19.5 564,-38.5 673,-38.5 673,-19.5 564,-19.5"/>
<text text-anchor="middle" x="618.5" y="-26.5" font-family="Helvetica,sans-Serif" font-size="10.00">report_drmModeRes</text>
</a>
</g>
</g>
<!-- Node7&#45;&gt;Node8 -->
<g id="edge7" class="edge"><title>Node7&#45;&gt;Node8</title>
<path fill="none" stroke="midnightblue" d="M538.102,-39.4039C546.658,-38.2828 555.343,-37.1447 563.675,-36.053"/>
<polygon fill="midnightblue" stroke="midnightblue" points="537.607,-35.9388 528.146,-40.7084 538.516,-42.8795 537.607,-35.9388"/>
</g>
<!-- Node9&#45;&gt;Node8 -->
<g id="edge9" class="edge"><title>Node9&#45;&gt;Node8</title>
<path fill="none" stroke="midnightblue" d="M334.805,-11.7846C387.172,-14.9736 497.523,-21.6937 563.803,-25.73"/>
<polygon fill="midnightblue" stroke="midnightblue" points="334.742,-8.27435 324.547,-11.1599 334.316,-15.2614 334.742,-8.27435"/>
</g>
</g>
</svg>
