<?xml version="1.0" encoding="UTF-8" standalone="no"?>
<!DOCTYPE svg PUBLIC "-//W3C//DTD SVG 1.1//EN"
 "http://www.w3.org/Graphics/SVG/1.1/DTD/svg11.dtd">
<!-- Generated by graphviz version 2.38.0 (20140413.2041)
 -->
<!-- Title: rpt_vstring Pages: 1 -->
<svg width="593pt" height="1089pt"
 viewBox="0.00 0.00 593.00 1089.00" xmlns="http://www.w3.org/2000/svg" xmlns:xlink="http://www.w3.org/1999/xlink">
<g id="graph0" class="graph" transform="scale(1 1) rotate(0) translate(4 1085)">
<title>rpt_vstring</title>
<polygon fill="white" stroke="none" points="-4,4 -4,-1085 589,-1085 589,4 -4,4"/>
<!-- Node1 -->
<g id="node1" class="node"><title>Node1</title>
<polygon fill="#bfbfbf" stroke="black" points="0,-734.5 0,-753.5 62,-753.5 62,-734.5 0,-734.5"/>
<text text-anchor="middle" x="31" y="-741.5" font-family="Helvetica,sans-Serif" font-size="10.00">rpt_vstring</text>
</g>
<!-- Node2 -->
<g id="node2" class="node"><title>Node2</title>
<g id="a_node2"><a xlink:href="failsim_8h.html#a01bfaa175f646e99f9b0be7564f5514c" target="_top" xlink:title="fsim_report_error_table">
<polygon fill="white" stroke="black" points="117.5,-1061.5 117.5,-1080.5 236.5,-1080.5 236.5,-1061.5 117.5,-1061.5"/>
<text text-anchor="middle" x="177" y="-1068.5" font-family="Helvetica,sans-Serif" font-size="10.00">fsim_report_error_table</text>
</a>
</g>
</g>
<!-- Node1&#45;&gt;Node2 -->
<g id="edge1" class="edge"><title>Node1&#45;&gt;Node2</title>
<path fill="none" stroke="midnightblue" d="M33.5394,-763.801C38.7066,-825.125 57.4357,-1010.29 98,-1052 103.344,-1057.5 109.993,-1061.51 117.138,-1064.42"/>
<polygon fill="midnightblue" stroke="midnightblue" points="37.0057,-763.242 32.7071,-753.558 30.0287,-763.809 37.0057,-763.242"/>
</g>
<!-- Node3 -->
<g id="node3" class="node"><title>Node3</title>
<g id="a_node3"><a xlink:href="failsim_8h.html#a0f46c25f6c1e39af27c3e279a84784f8" target="_top" xlink:title="fsim_set_name_to_number\l_funcs">
<polygon fill="white" stroke="black" points="109,-1012 109,-1042 245,-1042 245,-1012 109,-1012"/>
<text text-anchor="start" x="117" y="-1030" font-family="Helvetica,sans-Serif" font-size="10.00">fsim_set_name_to_number</text>
<text text-anchor="middle" x="177" y="-1019" font-family="Helvetica,sans-Serif" font-size="10.00">_funcs</text>
</a>
</g>
</g>
<!-- Node1&#45;&gt;Node3 -->
<g id="edge2" class="edge"><title>Node1&#45;&gt;Node3</title>
<path fill="none" stroke="midnightblue" d="M34.5115,-763.699C41.8065,-817.969 64.6168,-967.94 98,-1003 101.224,-1006.39 104.913,-1009.3 108.894,-1011.8"/>
<polygon fill="midnightblue" stroke="midnightblue" points="37.9639,-763.107 33.1922,-753.647 31.0234,-764.018 37.9639,-763.107"/>
</g>
<!-- Node4 -->
<g id="node4" class="node"><title>Node4</title>
<g id="a_node4"><a xlink:href="udev__util_8h.html#a8138b6d04b60c36c6cf3060e20bf517e" target="_top" xlink:title="lookup_udev_usb_device\l_by_devname">
<polygon fill="white" stroke="black" points="111.5,-963 111.5,-993 242.5,-993 242.5,-963 111.5,-963"/>
<text text-anchor="start" x="119.5" y="-981" font-family="Helvetica,sans-Serif" font-size="10.00">lookup_udev_usb_device</text>
<text text-anchor="middle" x="177" y="-970" font-family="Helvetica,sans-Serif" font-size="10.00">_by_devname</text>
</a>
</g>
</g>
<!-- Node1&#45;&gt;Node4 -->
<g id="edge3" class="edge"><title>Node1&#45;&gt;Node4</title>
<path fill="none" stroke="midnightblue" d="M32.9045,-763.573C35.7816,-803.492 47.8023,-895.001 98,-948 103.787,-954.11 110.955,-958.991 118.582,-962.886"/>
<polygon fill="midnightblue" stroke="midnightblue" points="36.3958,-763.322 32.3015,-753.551 29.4085,-763.743 36.3958,-763.322"/>
</g>
<!-- Node5 -->
<g id="node5" class="node"><title>Node5</title>
<g id="a_node5"><a xlink:href="udev__util_8h.html#a99b7881f22243d06502945cddebbe6ab" target="_top" xlink:title="probe_udev_subsystem">
<polygon fill="white" stroke="black" points="462,-867.5 462,-886.5 585,-886.5 585,-867.5 462,-867.5"/>
<text text-anchor="middle" x="523.5" y="-874.5" font-family="Helvetica,sans-Serif" font-size="10.00">probe_udev_subsystem</text>
</a>
</g>
</g>
<!-- Node1&#45;&gt;Node5 -->
<g id="edge4" class="edge"><title>Node1&#45;&gt;Node5</title>
<path fill="none" stroke="midnightblue" d="M32.8208,-763.641C35.5558,-800.683 47.345,-880.254 98,-915 160.085,-957.587 391.707,-908.455 484.096,-886.512"/>
<polygon fill="midnightblue" stroke="midnightblue" points="36.3119,-763.384 32.2297,-753.608 29.324,-763.796 36.3119,-763.384"/>
</g>
<!-- Node6 -->
<g id="node6" class="node"><title>Node6</title>
<g id="a_node6"><a xlink:href="libdrm__util_8h.html#a9da3d41a89fbe6f54ac08de65e7b05b1" target="_top" xlink:title="report_drm_modeProperty">
<polygon fill="white" stroke="black" points="292,-696.5 292,-715.5 426,-715.5 426,-696.5 292,-696.5"/>
<text text-anchor="middle" x="359" y="-703.5" font-family="Helvetica,sans-Serif" font-size="10.00">report_drm_modeProperty</text>
</a>
</g>
</g>
<!-- Node1&#45;&gt;Node6 -->
<g id="edge5" class="edge"><title>Node1&#45;&gt;Node6</title>
<path fill="none" stroke="midnightblue" d="M70.163,-731.562C79.2048,-729.02 88.8745,-726.629 98,-725 163.273,-713.35 238.986,-708.811 291.814,-707.06"/>
<polygon fill="midnightblue" stroke="midnightblue" points="68.8933,-728.287 60.2839,-734.461 70.8649,-735.003 68.8933,-728.287"/>
</g>
<!-- Node7 -->
<g id="node7" class="node"><title>Node7</title>
<g id="a_node7"><a xlink:href="libdrm__util_8h.html#a0a134366851de213e59925f5bc459704" target="_top" xlink:title="report_drmModePropertyBlob">
<polygon fill="white" stroke="black" points="102.5,-886.5 102.5,-905.5 251.5,-905.5 251.5,-886.5 102.5,-886.5"/>
<text text-anchor="middle" x="177" y="-893.5" font-family="Helvetica,sans-Serif" font-size="10.00">report_drmModePropertyBlob</text>
</a>
</g>
</g>
<!-- Node1&#45;&gt;Node7 -->
<g id="edge6" class="edge"><title>Node1&#45;&gt;Node7</title>
<path fill="none" stroke="midnightblue" d="M36.8574,-763.467C44.8554,-791.52 63.4628,-843.109 98,-872 105.607,-878.363 114.886,-883.041 124.354,-886.48"/>
<polygon fill="midnightblue" stroke="midnightblue" points="40.1944,-762.398 34.2207,-753.647 33.4338,-764.213 40.1944,-762.398"/>
</g>
<!-- Node8 -->
<g id="node8" class="node"><title>Node8</title>
<g id="a_node8"><a xlink:href="libdrm__util_8c.html#ae28fbf75d18faf2086044adc421c57fc" target="_top" xlink:title="report_property_value">
<polygon fill="white" stroke="black" points="302.5,-848.5 302.5,-867.5 415.5,-867.5 415.5,-848.5 302.5,-848.5"/>
<text text-anchor="middle" x="359" y="-855.5" font-family="Helvetica,sans-Serif" font-size="10.00">report_property_value</text>
</a>
</g>
</g>
<!-- Node1&#45;&gt;Node8 -->
<g id="edge14" class="edge"><title>Node1&#45;&gt;Node8</title>
<path fill="none" stroke="midnightblue" d="M41.7758,-762.25C52.7977,-780.867 72.5505,-808.954 98,-823 161.702,-858.158 247.146,-863.066 302.391,-861.787"/>
<polygon fill="midnightblue" stroke="midnightblue" points="44.7962,-760.481 36.824,-753.503 38.7045,-763.929 44.7962,-760.481"/>
</g>
<!-- Node9 -->
<g id="node9" class="node"><title>Node9</title>
<g id="a_node9"><a xlink:href="libdrm__util_8h.html#a296f38d851825b841915b5648ad491e4" target="_top" xlink:title="report_drmModeRes">
<polygon fill="white" stroke="black" points="469,-772.5 469,-791.5 578,-791.5 578,-772.5 469,-772.5"/>
<text text-anchor="middle" x="523.5" y="-779.5" font-family="Helvetica,sans-Serif" font-size="10.00">report_drmModeRes</text>
</a>
</g>
</g>
<!-- Node1&#45;&gt;Node9 -->
<g id="edge9" class="edge"><title>Node1&#45;&gt;Node9</title>
<path fill="none" stroke="midnightblue" d="M69.3284,-756.4C78.5998,-759.02 88.5812,-761.456 98,-763 229.949,-784.634 387.848,-785.158 468.808,-783.62"/>
<polygon fill="midnightblue" stroke="midnightblue" points="70.1892,-753.005 59.6069,-753.52 68.2004,-759.716 70.1892,-753.005"/>
</g>
<!-- Node10 -->
<g id="node10" class="node"><title>Node10</title>
<g id="a_node10"><a xlink:href="multi__level__map_8h.html#ae2a1d1e4c133a93b539c7d8c399a3cbd" target="_top" xlink:title="report_mlm_level">
<polygon fill="white" stroke="black" points="477,-424.5 477,-443.5 570,-443.5 570,-424.5 477,-424.5"/>
<text text-anchor="middle" x="523.5" y="-431.5" font-family="Helvetica,sans-Serif" font-size="10.00">report_mlm_level</text>
</a>
</g>
</g>
<!-- Node1&#45;&gt;Node10 -->
<g id="edge10" class="edge"><title>Node1&#45;&gt;Node10</title>
<path fill="none" stroke="midnightblue" d="M37.0295,-724.224C45.2424,-695.639 64.1154,-642.732 98,-611 159.196,-553.692 405.644,-471.299 492.235,-443.54"/>
<polygon fill="midnightblue" stroke="midnightblue" points="33.5593,-723.648 34.3122,-734.216 40.3139,-725.485 33.5593,-723.648"/>
</g>
<!-- Node11 -->
<g id="node11" class="node"><title>Node11</title>
<g id="a_node11"><a xlink:href="multi__level__map_8h.html#a9e40c0f24a7928882b04eecb13eb38f2" target="_top" xlink:title="report_multi_level_map">
<polygon fill="white" stroke="black" points="464,-190.5 464,-209.5 583,-209.5 583,-190.5 464,-190.5"/>
<text text-anchor="middle" x="523.5" y="-197.5" font-family="Helvetica,sans-Serif" font-size="10.00">report_multi_level_map</text>
</a>
</g>
</g>
<!-- Node1&#45;&gt;Node11 -->
<g id="edge11" class="edge"><title>Node1&#45;&gt;Node11</title>
<path fill="none" stroke="midnightblue" d="M32.9845,-724.042C37.2261,-643.32 55.6769,-341.306 98,-257 152.146,-149.142 180.262,-112.603 292,-67 347.14,-44.4959 372.944,-39.9453 426,-67 478.608,-93.8262 509.233,-164.228 519.029,-190.196"/>
<polygon fill="midnightblue" stroke="midnightblue" points="29.4756,-724.128 32.4606,-734.294 36.4665,-724.486 29.4756,-724.128"/>
</g>
<!-- Node12 -->
<g id="node12" class="node"><title>Node12</title>
<g id="a_node12"><a xlink:href="edid_8h.html#ad386522b77fc8f2df755bed4a32b0bed" target="_top" xlink:title="report_parsed_edid_base">
<polygon fill="white" stroke="black" points="111,-734.5 111,-753.5 243,-753.5 243,-734.5 111,-734.5"/>
<text text-anchor="middle" x="177" y="-741.5" font-family="Helvetica,sans-Serif" font-size="10.00">report_parsed_edid_base</text>
</a>
</g>
</g>
<!-- Node1&#45;&gt;Node12 -->
<g id="edge12" class="edge"><title>Node1&#45;&gt;Node12</title>
<path fill="none" stroke="midnightblue" d="M72.2943,-744C84.275,-744 97.7191,-744 110.856,-744"/>
<polygon fill="midnightblue" stroke="midnightblue" points="72.1872,-740.5 62.1871,-744 72.1871,-747.5 72.1872,-740.5"/>
</g>
<!-- Node14 -->
<g id="node14" class="node"><title>Node14</title>
<g id="a_node14"><a xlink:href="udev__util_8h.html#a25d919095c7730db7bd16fb6ebd92743" target="_top" xlink:title="report_udev_device">
<polygon fill="white" stroke="black" points="306,-810.5 306,-829.5 412,-829.5 412,-810.5 306,-810.5"/>
<text text-anchor="middle" x="359" y="-817.5" font-family="Helvetica,sans-Serif" font-size="10.00">report_udev_device</text>
</a>
</g>
</g>
<!-- Node1&#45;&gt;Node14 -->
<g id="edge15" class="edge"><title>Node1&#45;&gt;Node14</title>
<path fill="none" stroke="midnightblue" d="M47.9702,-760.999C60.3702,-773.006 78.6615,-788.283 98,-796 166.101,-823.175 251.941,-825.591 305.917,-823.686"/>
<polygon fill="midnightblue" stroke="midnightblue" points="50.2485,-758.326 40.7205,-753.692 45.2795,-763.256 50.2485,-758.326"/>
</g>
<!-- Node15 -->
<g id="node15" class="node"><title>Node15</title>
<g id="a_node15"><a xlink:href="udev__util_8h.html#a5f59fcfb812079209c317f1b926fb392" target="_top" xlink:title="report_udev_usb_devinfo">
<polygon fill="white" stroke="black" points="294.5,-658.5 294.5,-677.5 423.5,-677.5 423.5,-658.5 294.5,-658.5"/>
<text text-anchor="middle" x="359" y="-665.5" font-family="Helvetica,sans-Serif" font-size="10.00">report_udev_usb_devinfo</text>
</a>
</g>
</g>
<!-- Node1&#45;&gt;Node15 -->
<g id="edge17" class="edge"><title>Node1&#45;&gt;Node15</title>
<path fill="none" stroke="midnightblue" d="M52.6605,-728.455C65.1454,-719.856 81.7441,-709.773 98,-704 162.413,-681.126 240.606,-672.698 294.316,-669.64"/>
<polygon fill="midnightblue" stroke="midnightblue" points="50.4724,-725.716 44.3603,-734.37 54.5351,-731.417 50.4724,-725.716"/>
</g>
<!-- Node17 -->
<g id="node17" class="node"><title>Node17</title>
<g id="a_node17"><a xlink:href="report__util_8h.html#a477c0e950cb29965c59f8b3350c7130d" target="_top" xlink:title="rpt_2col">
<polygon fill="white" stroke="black" points="151,-430.5 151,-449.5 203,-449.5 203,-430.5 151,-430.5"/>
<text text-anchor="middle" x="177" y="-437.5" font-family="Helvetica,sans-Serif" font-size="10.00">rpt_2col</text>
</a>
</g>
</g>
<!-- Node1&#45;&gt;Node17 -->
<g id="edge19" class="edge"><title>Node1&#45;&gt;Node17</title>
<path fill="none" stroke="midnightblue" d="M34.1113,-724.246C40.6139,-666.958 62.097,-502.393 98,-464 111.548,-449.512 133.606,-443.693 150.813,-441.393"/>
<polygon fill="midnightblue" stroke="midnightblue" points="30.5997,-724.158 32.9808,-734.482 37.5574,-724.927 30.5997,-724.158"/>
</g>
<!-- Node18 -->
<g id="node18" class="node"><title>Node18</title>
<g id="a_node18"><a xlink:href="report__util_8h.html#a271a0ddaafa0b5ff0630f85fa6bf25f4" target="_top" xlink:title="rpt_str">
<polygon fill="white" stroke="black" points="155.5,-266.5 155.5,-285.5 198.5,-285.5 198.5,-266.5 155.5,-266.5"/>
<text text-anchor="middle" x="177" y="-273.5" font-family="Helvetica,sans-Serif" font-size="10.00">rpt_str</text>
</a>
</g>
</g>
<!-- Node1&#45;&gt;Node18 -->
<g id="edge20" class="edge"><title>Node1&#45;&gt;Node18</title>
<path fill="none" stroke="midnightblue" d="M33.9801,-724.48C39.5904,-673.35 57.8574,-531.815 98,-421 117.569,-366.98 154.493,-308.4 169.456,-285.722"/>
<polygon fill="midnightblue" stroke="midnightblue" points="30.4941,-724.164 32.9204,-734.477 37.4551,-724.902 30.4941,-724.164"/>
</g>
<!-- Node27 -->
<g id="node27" class="node"><title>Node27</title>
<g id="a_node27"><a xlink:href="report__util_8h.html#af5b53c7ac855765e65c7f485fb2a1193" target="_top" xlink:title="rpt_structure_loc">
<polygon fill="white" stroke="black" points="132.5,-620.5 132.5,-639.5 221.5,-639.5 221.5,-620.5 132.5,-620.5"/>
<text text-anchor="middle" x="177" y="-627.5" font-family="Helvetica,sans-Serif" font-size="10.00">rpt_structure_loc</text>
</a>
</g>
</g>
<!-- Node1&#45;&gt;Node27 -->
<g id="edge35" class="edge"><title>Node1&#45;&gt;Node27</title>
<path fill="none" stroke="midnightblue" d="M41.0455,-725.311C51.8538,-704.896 71.8121,-672.628 98,-654 108.16,-646.773 120.552,-641.679 132.44,-638.105"/>
<polygon fill="midnightblue" stroke="midnightblue" points="37.903,-723.769 36.4874,-734.269 44.1419,-726.944 37.903,-723.769"/>
</g>
<!-- Node28 -->
<g id="node28" class="node"><title>Node28</title>
<g id="a_node28"><a xlink:href="libdrm__util_8h.html#abca082a2d351fad783a62dc81e6817dd" target="_top" xlink:title="summarize_drm_modeProperty">
<polygon fill="white" stroke="black" points="98,-0.5 98,-19.5 256,-19.5 256,-0.5 98,-0.5"/>
<text text-anchor="middle" x="177" y="-7.5" font-family="Helvetica,sans-Serif" font-size="10.00">summarize_drm_modeProperty</text>
</a>
</g>
</g>
<!-- Node1&#45;&gt;Node28 -->
<g id="edge44" class="edge"><title>Node1&#45;&gt;Node28</title>
<path fill="none" stroke="midnightblue" d="M32.5496,-724.024C35.7354,-614.423 53.269,-89.0336 98,-34 103.094,-27.7331 109.786,-23.0671 117.113,-19.5998"/>
<polygon fill="midnightblue" stroke="midnightblue" points="29.043,-724.211 32.2579,-734.306 36.0402,-724.409 29.043,-724.211"/>
</g>
<!-- Node7&#45;&gt;Node8 -->
<g id="edge7" class="edge"><title>Node7&#45;&gt;Node8</title>
<path fill="none" stroke="midnightblue" d="M233.331,-884.319C258.857,-878.93 288.776,-872.614 312.905,-867.52"/>
<polygon fill="midnightblue" stroke="midnightblue" points="232.483,-880.921 223.422,-886.411 233.929,-887.77 232.483,-880.921"/>
</g>
<!-- Node8&#45;&gt;Node9 -->
<g id="edge8" class="edge"><title>Node8&#45;&gt;Node9</title>
<path fill="none" stroke="midnightblue" d="M409.032,-845.396C414.828,-843.464 420.599,-841.328 426,-839 457.092,-825.6 490.499,-804.083 508.71,-791.674"/>
<polygon fill="midnightblue" stroke="midnightblue" points="407.802,-842.114 399.312,-848.452 409.902,-848.791 407.802,-842.114"/>
</g>
<!-- Node13 -->
<g id="node13" class="node"><title>Node13</title>
<g id="a_node13"><a xlink:href="edid_8h.html#a800e7d08fc3d103bd741bbf15c57b8fd" target="_top" xlink:title="report_parsed_edid">
<polygon fill="white" stroke="black" points="307,-734.5 307,-753.5 411,-753.5 411,-734.5 307,-734.5"/>
<text text-anchor="middle" x="359" y="-741.5" font-family="Helvetica,sans-Serif" font-size="10.00">report_parsed_edid</text>
</a>
</g>
</g>
<!-- Node12&#45;&gt;Node13 -->
<g id="edge13" class="edge"><title>Node12&#45;&gt;Node13</title>
<path fill="none" stroke="midnightblue" d="M253.422,-744C271.41,-744 290.197,-744 306.803,-744"/>
<polygon fill="midnightblue" stroke="midnightblue" points="253.239,-740.5 243.239,-744 253.239,-747.5 253.239,-740.5"/>
</g>
<!-- Node14&#45;&gt;Node5 -->
<g id="edge16" class="edge"><title>Node14&#45;&gt;Node5</title>
<path fill="none" stroke="midnightblue" d="M405.46,-832.473C412.375,-834.547 419.401,-836.757 426,-839 451.741,-847.751 480.69,-859.4 500.106,-867.483"/>
<polygon fill="midnightblue" stroke="midnightblue" points="406.053,-828.999 395.472,-829.543 404.083,-835.716 406.053,-828.999"/>
</g>
<!-- Node16 -->
<g id="node16" class="node"><title>Node16</title>
<g id="a_node16"><a xlink:href="udev__util_8h.html#a48f4e698be2ae0d9bfc2a944b79b181e" target="_top" xlink:title="get_udev_usb_devinfo">
<polygon fill="white" stroke="black" points="464.5,-658.5 464.5,-677.5 582.5,-677.5 582.5,-658.5 464.5,-658.5"/>
<text text-anchor="middle" x="523.5" y="-665.5" font-family="Helvetica,sans-Serif" font-size="10.00">get_udev_usb_devinfo</text>
</a>
</g>
</g>
<!-- Node15&#45;&gt;Node16 -->
<g id="edge18" class="edge"><title>Node15&#45;&gt;Node16</title>
<path fill="none" stroke="midnightblue" d="M433.929,-668C444.176,-668 454.58,-668 464.482,-668"/>
<polygon fill="midnightblue" stroke="midnightblue" points="433.758,-664.5 423.758,-668 433.758,-671.5 433.758,-664.5"/>
</g>
<!-- Node18&#45;&gt;Node10 -->
<g id="edge21" class="edge"><title>Node18&#45;&gt;Node10</title>
<path fill="none" stroke="midnightblue" d="M193.75,-293.016C214.353,-314.287 252.503,-350.399 292,-371 300.713,-375.545 422.828,-407.882 485.683,-424.375"/>
<polygon fill="midnightblue" stroke="midnightblue" points="196.175,-290.487 186.746,-285.654 191.103,-295.312 196.175,-290.487"/>
</g>
<!-- Node18&#45;&gt;Node11 -->
<g id="edge22" class="edge"><title>Node18&#45;&gt;Node11</title>
<path fill="none" stroke="midnightblue" d="M192.093,-258.32C211.656,-235.359 249.47,-196.398 292,-181 361.658,-155.78 450.635,-176.781 494.903,-190.48"/>
<polygon fill="midnightblue" stroke="midnightblue" points="189.204,-256.322 185.517,-266.255 194.593,-260.788 189.204,-256.322"/>
</g>
<!-- Node19 -->
<g id="node19" class="node"><title>Node19</title>
<g id="a_node19"><a xlink:href="report__util_8h.html#ac38a31c37ca24facf0afd10aefd66d0b" target="_top" xlink:title="rpt_bool">
<polygon fill="white" stroke="black" points="333,-76.5 333,-95.5 385,-95.5 385,-76.5 333,-76.5"/>
<text text-anchor="middle" x="359" y="-83.5" font-family="Helvetica,sans-Serif" font-size="10.00">rpt_bool</text>
</a>
</g>
</g>
<!-- Node18&#45;&gt;Node19 -->
<g id="edge23" class="edge"><title>Node18&#45;&gt;Node19</title>
<path fill="none" stroke="midnightblue" d="M185.627,-256.43C200.526,-220.792 236.933,-145.281 292,-105 303.933,-96.2708 319.791,-91.5403 332.972,-88.9827"/>
<polygon fill="midnightblue" stroke="midnightblue" points="182.209,-255.544 181.697,-266.127 188.697,-258.174 182.209,-255.544"/>
</g>
<!-- Node20 -->
<g id="node20" class="node"><title>Node20</title>
<g id="a_node20"><a xlink:href="report__util_8h.html#a105b44822ec124d16c445268308b31d7" target="_top" xlink:title="rpt_int">
<polygon fill="white" stroke="black" points="338,-228.5 338,-247.5 380,-247.5 380,-228.5 338,-228.5"/>
<text text-anchor="middle" x="359" y="-235.5" font-family="Helvetica,sans-Serif" font-size="10.00">rpt_int</text>
</a>
</g>
</g>
<!-- Node18&#45;&gt;Node20 -->
<g id="edge24" class="edge"><title>Node18&#45;&gt;Node20</title>
<path fill="none" stroke="midnightblue" d="M208.831,-269.491C245.743,-261.699 306.501,-248.872 337.868,-242.25"/>
<polygon fill="midnightblue" stroke="midnightblue" points="207.71,-266.151 198.648,-271.641 209.156,-273 207.71,-266.151"/>
</g>
<!-- Node21 -->
<g id="node21" class="node"><title>Node21</title>
<g id="a_node21"><a xlink:href="report__util_8h.html#af2a0616acf74f44d97d7d5ec2ffb6d05" target="_top" xlink:title="rpt_bytes_as_hex">
<polygon fill="white" stroke="black" points="476,-323.5 476,-342.5 571,-342.5 571,-323.5 476,-323.5"/>
<text text-anchor="middle" x="523.5" y="-330.5" font-family="Helvetica,sans-Serif" font-size="10.00">rpt_bytes_as_hex</text>
</a>
</g>
</g>
<!-- Node18&#45;&gt;Node21 -->
<g id="edge32" class="edge"><title>Node18&#45;&gt;Node21</title>
<path fill="none" stroke="midnightblue" d="M208.75,-281.14C231.692,-284.971 263.804,-290.326 292,-295 355.618,-305.546 429.128,-317.65 475.701,-325.309"/>
<polygon fill="midnightblue" stroke="midnightblue" points="209.033,-277.639 198.593,-279.443 207.879,-284.543 209.033,-277.639"/>
</g>
<!-- Node22 -->
<g id="node22" class="node"><title>Node22</title>
<g id="a_node22"><a xlink:href="report__util_8h.html#a7c203b3e0021b91efc49d0d58bc2ca7f" target="_top" xlink:title="rpt_int_as_hex">
<polygon fill="white" stroke="black" points="319,-342.5 319,-361.5 399,-361.5 399,-342.5 319,-342.5"/>
<text text-anchor="middle" x="359" y="-349.5" font-family="Helvetica,sans-Serif" font-size="10.00">rpt_int_as_hex</text>
</a>
</g>
</g>
<!-- Node18&#45;&gt;Node22 -->
<g id="edge28" class="edge"><title>Node18&#45;&gt;Node22</title>
<path fill="none" stroke="midnightblue" d="M207.128,-290.058C229.998,-300.908 262.756,-316.035 292,-328 304.413,-333.079 318.344,-338.224 330.197,-342.441"/>
<polygon fill="midnightblue" stroke="midnightblue" points="208.503,-286.837 197.971,-285.692 205.491,-293.155 208.503,-286.837"/>
</g>
<!-- Node23 -->
<g id="node23" class="node"><title>Node23</title>
<g id="a_node23"><a xlink:href="report__util_8h.html#ae9cae8fa8b9767c0bcf5fae824fcc488" target="_top" xlink:title="rpt_uint8_as_hex">
<polygon fill="white" stroke="black" points="313,-266.5 313,-285.5 405,-285.5 405,-266.5 313,-266.5"/>
<text text-anchor="middle" x="359" y="-273.5" font-family="Helvetica,sans-Serif" font-size="10.00">rpt_uint8_as_hex</text>
</a>
</g>
</g>
<!-- Node18&#45;&gt;Node23 -->
<g id="edge30" class="edge"><title>Node18&#45;&gt;Node23</title>
<path fill="none" stroke="midnightblue" d="M208.868,-276C237.497,-276 280.447,-276 312.912,-276"/>
<polygon fill="midnightblue" stroke="midnightblue" points="208.648,-272.5 198.648,-276 208.648,-279.5 208.648,-272.5"/>
</g>
<!-- Node24 -->
<g id="node24" class="node"><title>Node24</title>
<g id="a_node24"><a xlink:href="report__util_8h.html#a7f47a9f54cb2a9e49aa101cd3f84348c" target="_top" xlink:title="rpt_mapped_int">
<polygon fill="white" stroke="black" points="317,-190.5 317,-209.5 401,-209.5 401,-190.5 317,-190.5"/>
<text text-anchor="middle" x="359" y="-197.5" font-family="Helvetica,sans-Serif" font-size="10.00">rpt_mapped_int</text>
</a>
</g>
</g>
<!-- Node18&#45;&gt;Node24 -->
<g id="edge31" class="edge"><title>Node18&#45;&gt;Node24</title>
<path fill="none" stroke="midnightblue" d="M203.923,-261.32C226.634,-248.881 260.795,-231.174 292,-219 300.998,-215.49 310.909,-212.299 320.255,-209.576"/>
<polygon fill="midnightblue" stroke="midnightblue" points="201.987,-258.392 194.933,-266.298 205.377,-264.516 201.987,-258.392"/>
</g>
<!-- Node25 -->
<g id="node25" class="node"><title>Node25</title>
<g id="a_node25"><a xlink:href="report__util_8h.html#a248f29bed496a324d4898114942b4aa1" target="_top" xlink:title="rpt_ifval2">
<polygon fill="white" stroke="black" points="331,-114.5 331,-133.5 387,-133.5 387,-114.5 331,-114.5"/>
<text text-anchor="middle" x="359" y="-121.5" font-family="Helvetica,sans-Serif" font-size="10.00">rpt_ifval2</text>
</a>
</g>
</g>
<!-- Node18&#45;&gt;Node25 -->
<g id="edge33" class="edge"><title>Node18&#45;&gt;Node25</title>
<path fill="none" stroke="midnightblue" d="M189.96,-257.532C208.642,-230.037 247.279,-178.332 292,-148 303.705,-140.061 318.353,-134.389 330.875,-130.56"/>
<polygon fill="midnightblue" stroke="midnightblue" points="186.836,-255.909 184.207,-266.173 192.662,-259.789 186.836,-255.909"/>
</g>
<!-- Node26 -->
<g id="node26" class="node"><title>Node26</title>
<g id="a_node26"><a xlink:href="udev__util_8h.html#a43eb8e5892e0dd389318da9877310d52" target="_top" xlink:title="report_usb_detailed\l_device_summary">
<polygon fill="white" stroke="black" points="306.5,-419 306.5,-449 411.5,-449 411.5,-419 306.5,-419"/>
<text text-anchor="start" x="314.5" y="-437" font-family="Helvetica,sans-Serif" font-size="10.00">report_usb_detailed</text>
<text text-anchor="middle" x="359" y="-426" font-family="Helvetica,sans-Serif" font-size="10.00">_device_summary</text>
</a>
</g>
</g>
<!-- Node18&#45;&gt;Node26 -->
<g id="edge34" class="edge"><title>Node18&#45;&gt;Node26</title>
<path fill="none" stroke="midnightblue" d="M190.268,-294.033C209.348,-320.965 248.493,-371.95 292,-404 299.803,-409.748 308.883,-414.752 317.766,-418.94"/>
<polygon fill="midnightblue" stroke="midnightblue" points="192.969,-291.786 184.382,-285.58 187.224,-295.787 192.969,-291.786"/>
</g>
<!-- Node20&#45;&gt;Node10 -->
<g id="edge25" class="edge"><title>Node20&#45;&gt;Node10</title>
<path fill="none" stroke="midnightblue" d="M390.188,-240.755C402.58,-243.275 416.271,-248.037 426,-257 459.208,-287.593 440.395,-312.352 462,-352 477.407,-380.273 501.486,-409.791 514.119,-424.493"/>
<polygon fill="midnightblue" stroke="midnightblue" points="390.633,-237.281 380.199,-239.123 389.504,-244.19 390.633,-237.281"/>
</g>
<!-- Node20&#45;&gt;Node11 -->
<g id="edge26" class="edge"><title>Node20&#45;&gt;Node11</title>
<path fill="none" stroke="midnightblue" d="M390.195,-230.939C415.965,-224.913 453.256,-216.192 481.684,-209.545"/>
<polygon fill="midnightblue" stroke="midnightblue" points="389.192,-227.579 380.252,-233.264 390.786,-234.395 389.192,-227.579"/>
</g>
<!-- Node20&#45;&gt;Node21 -->
<g id="edge27" class="edge"><title>Node20&#45;&gt;Node21</title>
<path fill="none" stroke="midnightblue" d="M389.853,-243.99C401.514,-246.989 414.757,-251.236 426,-257 461.487,-275.192 496.621,-307.359 512.982,-323.378"/>
<polygon fill="midnightblue" stroke="midnightblue" points="390.641,-240.58 380.102,-241.669 389.02,-247.389 390.641,-240.58"/>
</g>
<!-- Node22&#45;&gt;Node21 -->
<g id="edge29" class="edge"><title>Node22&#45;&gt;Node21</title>
<path fill="none" stroke="midnightblue" d="M409.381,-346.226C430.46,-343.762 454.941,-340.899 475.726,-338.469"/>
<polygon fill="midnightblue" stroke="midnightblue" points="408.863,-342.763 399.337,-347.401 409.676,-349.716 408.863,-342.763"/>
</g>
<!-- Node27&#45;&gt;Node6 -->
<g id="edge37" class="edge"><title>Node27&#45;&gt;Node6</title>
<path fill="none" stroke="midnightblue" d="M203.923,-644.68C226.634,-657.119 260.795,-674.826 292,-687 300.998,-690.51 310.909,-693.701 320.255,-696.424"/>
<polygon fill="midnightblue" stroke="midnightblue" points="205.377,-641.484 194.933,-639.702 201.987,-647.608 205.377,-641.484"/>
</g>
<!-- Node27&#45;&gt;Node9 -->
<g id="edge36" class="edge"><title>Node27&#45;&gt;Node9</title>
<path fill="none" stroke="midnightblue" d="M232.116,-621.676C285.013,-616.279 366.107,-615.515 426,-649 452.27,-663.687 500.792,-744.515 517.038,-772.478"/>
<polygon fill="midnightblue" stroke="midnightblue" points="231.479,-618.225 221.927,-622.808 232.252,-625.182 231.479,-618.225"/>
</g>
<!-- Node27&#45;&gt;Node10 -->
<g id="edge38" class="edge"><title>Node27&#45;&gt;Node10</title>
<path fill="none" stroke="midnightblue" d="M231.761,-621.026C294.79,-609.743 394.64,-589.263 426,-568 474.881,-534.857 507.58,-468.286 518.488,-443.545"/>
<polygon fill="midnightblue" stroke="midnightblue" points="230.833,-617.635 221.596,-622.823 232.052,-624.529 230.833,-617.635"/>
</g>
<!-- Node27&#45;&gt;Node11 -->
<g id="edge39" class="edge"><title>Node27&#45;&gt;Node11</title>
<path fill="none" stroke="midnightblue" d="M194.741,-613.112C216.112,-592.091 254.79,-555.817 292,-530 347.548,-491.46 384.476,-511.353 426,-458 466.518,-405.94 438.363,-375.59 462,-314 477.574,-273.418 504.288,-228.875 516.314,-209.68"/>
<polygon fill="midnightblue" stroke="midnightblue" points="192.065,-610.837 187.437,-620.368 196.998,-615.803 192.065,-610.837"/>
</g>
<!-- Node27&#45;&gt;Node14 -->
<g id="edge41" class="edge"><title>Node27&#45;&gt;Node14</title>
<path fill="none" stroke="midnightblue" d="M191.759,-647.697C212.436,-673.896 253.239,-724.094 292,-763 309.738,-780.804 332.223,-799.486 345.841,-810.42"/>
<polygon fill="midnightblue" stroke="midnightblue" points="194.477,-645.49 185.551,-639.783 188.969,-649.811 194.477,-645.49"/>
</g>
<!-- Node27&#45;&gt;Node15 -->
<g id="edge43" class="edge"><title>Node27&#45;&gt;Node15</title>
<path fill="none" stroke="midnightblue" d="M231.61,-641.318C257.519,-646.787 288.268,-653.279 312.949,-658.489"/>
<polygon fill="midnightblue" stroke="midnightblue" points="232.08,-637.84 221.573,-639.199 230.634,-644.689 232.08,-637.84"/>
</g>
<!-- Node27&#45;&gt;Node21 -->
<g id="edge40" class="edge"><title>Node27&#45;&gt;Node21</title>
<path fill="none" stroke="midnightblue" d="M201.505,-615.202C224.042,-601.506 259.363,-581.31 292,-568 349.321,-544.624 381.639,-573.177 426,-530 464.379,-492.645 437.768,-462.761 462,-415 476.408,-386.601 500.465,-357.599 513.479,-342.881"/>
<polygon fill="midnightblue" stroke="midnightblue" points="199.643,-612.238 192.959,-620.458 203.31,-618.201 199.643,-612.238"/>
</g>
<!-- Node27&#45;&gt;Node26 -->
<g id="edge42" class="edge"><title>Node27&#45;&gt;Node26</title>
<path fill="none" stroke="midnightblue" d="M193.251,-612.401C214.901,-587.528 255.929,-540.794 292,-502 309.14,-483.566 329.367,-462.877 342.869,-449.213"/>
<polygon fill="midnightblue" stroke="midnightblue" points="190.358,-610.394 186.441,-620.239 195.642,-614.986 190.358,-610.394"/>
</g>
</g>
</svg>
