<?xml version="1.0" encoding="UTF-8" standalone="no"?>
<!DOCTYPE svg PUBLIC "-//W3C//DTD SVG 1.1//EN"
 "http://www.w3.org/Graphics/SVG/1.1/DTD/svg11.dtd">
<!-- Generated by graphviz version 2.38.0 (20140413.2041)
 -->
<!-- Title: rpt_int Pages: 1 -->
<svg width="267pt" height="66pt"
 viewBox="0.00 0.00 267.00 66.00" xmlns="http://www.w3.org/2000/svg" xmlns:xlink="http://www.w3.org/1999/xlink">
<g id="graph0" class="graph" transform="scale(1 1) rotate(0) translate(4 62)">
<title>rpt_int</title>
<polygon fill="white" stroke="none" points="-4,4 -4,-62 263,-62 263,4 -4,4"/>
<!-- Node1 -->
<g id="node1" class="node"><title>Node1</title>
<polygon fill="#bfbfbf" stroke="black" points="0,-19.5 0,-38.5 42,-38.5 42,-19.5 0,-19.5"/>
<text text-anchor="middle" x="21" y="-26.5" font-family="Helvetica,sans-Serif" font-size="10.00">rpt_int</text>
</g>
<!-- Node2 -->
<g id="node2" class="node"><title>Node2</title>
<g id="a_node2"><a xlink:href="report__util_8c.html#a271a0ddaafa0b5ff0630f85fa6bf25f4" target="_top" xlink:title="rpt_str">
<polygon fill="white" stroke="black" points="78,-19.5 78,-38.5 121,-38.5 121,-19.5 78,-19.5"/>
<text text-anchor="middle" x="99.5" y="-26.5" font-family="Helvetica,sans-Serif" font-size="10.00">rpt_str</text>
</a>
</g>
</g>
<!-- Node1&#45;&gt;Node2 -->
<g id="edge1" class="edge"><title>Node1&#45;&gt;Node2</title>
<path fill="none" stroke="midnightblue" d="M42.0995,-29C49.9046,-29 59.0224,-29 67.6232,-29"/>
<polygon fill="midnightblue" stroke="midnightblue" points="67.735,-32.5001 77.7349,-29 67.7349,-25.5001 67.735,-32.5001"/>
</g>
<!-- Node3 -->
<g id="node3" class="node"><title>Node3</title>
<g id="a_node3"><a xlink:href="report__util_8c.html#a71f4829c653e1d6101dfc1ae09f4796e" target="_top" xlink:title="rpt_cur_output_dest">
<polygon fill="white" stroke="black" points="157,-38.5 157,-57.5 259,-57.5 259,-38.5 157,-38.5"/>
<text text-anchor="middle" x="208" y="-45.5" font-family="Helvetica,sans-Serif" font-size="10.00">rpt_cur_output_dest</text>
</a>
</g>
</g>
<!-- Node2&#45;&gt;Node3 -->
<g id="edge2" class="edge"><title>Node2&#45;&gt;Node3</title>
<path fill="none" stroke="midnightblue" d="M121.034,-32.6634C128.58,-34.0097 137.558,-35.6112 146.819,-37.2636"/>
<polygon fill="midnightblue" stroke="midnightblue" points="146.468,-40.756 156.927,-39.0668 147.697,-33.8648 146.468,-40.756"/>
</g>
<!-- Node4 -->
<g id="node4" class="node"><title>Node4</title>
<g id="a_node4"><a xlink:href="report__util_8c.html#ae58dfa6adb2e9f1dacce17f7b0732f26" target="_top" xlink:title="rpt_vstring">
<polygon fill="white" stroke="black" points="177,-0.5 177,-19.5 239,-19.5 239,-0.5 177,-0.5"/>
<text text-anchor="middle" x="208" y="-7.5" font-family="Helvetica,sans-Serif" font-size="10.00">rpt_vstring</text>
</a>
</g>
</g>
<!-- Node2&#45;&gt;Node4 -->
<g id="edge3" class="edge"><title>Node2&#45;&gt;Node4</title>
<path fill="none" stroke="midnightblue" d="M121.034,-25.3366C134.025,-23.019 151.257,-19.9447 166.881,-17.1574"/>
<polygon fill="midnightblue" stroke="midnightblue" points="167.625,-20.5799 176.855,-15.378 166.396,-13.6888 167.625,-20.5799"/>
</g>
</g>
</svg>
