<?xml version="1.0" encoding="UTF-8" standalone="no"?>
<!DOCTYPE svg PUBLIC "-//W3C//DTD SVG 1.1//EN"
 "http://www.w3.org/Graphics/SVG/1.1/DTD/svg11.dtd">
<!-- Generated by graphviz version 2.38.0 (20140413.2041)
 -->
<!-- Title: rpt_str Pages: 1 -->
<svg width="347pt" height="379pt"
 viewBox="0.00 0.00 347.00 379.35" xmlns="http://www.w3.org/2000/svg" xmlns:xlink="http://www.w3.org/1999/xlink">
<g id="graph0" class="graph" transform="scale(1 1) rotate(0) translate(4 375.346)">
<title>rpt_str</title>
<polygon fill="white" stroke="none" points="-4,4 -4,-375.346 343,-375.346 343,4 -4,4"/>
<!-- Node1 -->
<g id="node1" class="node"><title>Node1</title>
<polygon fill="#bfbfbf" stroke="black" points="0,-180.5 0,-199.5 43,-199.5 43,-180.5 0,-180.5"/>
<text text-anchor="middle" x="21.5" y="-187.5" font-family="Helvetica,sans-Serif" font-size="10.00">rpt_str</text>
</g>
<!-- Node2 -->
<g id="node2" class="node"><title>Node2</title>
<g id="a_node2"><a xlink:href="multi__level__map_8h.html#ae2a1d1e4c133a93b539c7d8c399a3cbd" target="_top" xlink:title="report_mlm_level">
<polygon fill="white" stroke="black" points="233,-344.5 233,-363.5 326,-363.5 326,-344.5 233,-344.5"/>
<text text-anchor="middle" x="279.5" y="-351.5" font-family="Helvetica,sans-Serif" font-size="10.00">report_mlm_level</text>
</a>
</g>
</g>
<!-- Node1&#45;&gt;Node2 -->
<g id="edge1" class="edge"><title>Node1&#45;&gt;Node2</title>
<path fill="none" stroke="midnightblue" d="M23.1287,-209.889C25.3963,-243.99 35.436,-313.025 79,-345 126.375,-379.772 198.474,-372.444 241.788,-363.522"/>
<polygon fill="midnightblue" stroke="midnightblue" points="26.6176,-209.58 22.6204,-199.768 19.6265,-209.931 26.6176,-209.58"/>
</g>
<!-- Node3 -->
<g id="node3" class="node"><title>Node3</title>
<g id="a_node3"><a xlink:href="multi__level__map_8h.html#a9e40c0f24a7928882b04eecb13eb38f2" target="_top" xlink:title="report_multi_level_map">
<polygon fill="white" stroke="black" points="220,-287.5 220,-306.5 339,-306.5 339,-287.5 220,-287.5"/>
<text text-anchor="middle" x="279.5" y="-294.5" font-family="Helvetica,sans-Serif" font-size="10.00">report_multi_level_map</text>
</a>
</g>
</g>
<!-- Node1&#45;&gt;Node3 -->
<g id="edge2" class="edge"><title>Node1&#45;&gt;Node3</title>
<path fill="none" stroke="midnightblue" d="M33.8136,-208.258C43.8675,-222.909 59.9071,-242.815 79,-254 122.106,-279.252 178.248,-289.732 219.99,-294.051"/>
<polygon fill="midnightblue" stroke="midnightblue" points="36.5063,-205.981 28.0992,-199.533 30.6506,-209.817 36.5063,-205.981"/>
</g>
<!-- Node4 -->
<g id="node4" class="node"><title>Node4</title>
<g id="a_node4"><a xlink:href="udev__util_8h.html#a43eb8e5892e0dd389318da9877310d52" target="_top" xlink:title="report_usb_detailed\l_device_summary">
<polygon fill="white" stroke="black" points="79,-153 79,-183 184,-183 184,-153 79,-153"/>
<text text-anchor="start" x="87" y="-171" font-family="Helvetica,sans-Serif" font-size="10.00">report_usb_detailed</text>
<text text-anchor="middle" x="131.5" y="-160" font-family="Helvetica,sans-Serif" font-size="10.00">_device_summary</text>
</a>
</g>
</g>
<!-- Node1&#45;&gt;Node4 -->
<g id="edge3" class="edge"><title>Node1&#45;&gt;Node4</title>
<path fill="none" stroke="midnightblue" d="M53.0015,-183.787C60.9905,-182.159 69.8319,-180.358 78.5994,-178.572"/>
<polygon fill="midnightblue" stroke="midnightblue" points="52.1683,-180.384 43.0682,-185.81 53.5656,-187.244 52.1683,-180.384"/>
</g>
<!-- Node5 -->
<g id="node5" class="node"><title>Node5</title>
<g id="a_node5"><a xlink:href="report__util_8h.html#ac38a31c37ca24facf0afd10aefd66d0b" target="_top" xlink:title="rpt_bool">
<polygon fill="white" stroke="black" points="105.5,-114.5 105.5,-133.5 157.5,-133.5 157.5,-114.5 105.5,-114.5"/>
<text text-anchor="middle" x="131.5" y="-121.5" font-family="Helvetica,sans-Serif" font-size="10.00">rpt_bool</text>
</a>
</g>
</g>
<!-- Node1&#45;&gt;Node5 -->
<g id="edge4" class="edge"><title>Node1&#45;&gt;Node5</title>
<path fill="none" stroke="midnightblue" d="M39.5891,-173.699C50.2869,-164.126 64.7112,-152.312 79,-144 87.2079,-139.225 96.7694,-135.153 105.41,-131.953"/>
<polygon fill="midnightblue" stroke="midnightblue" points="37.1951,-171.146 32.1989,-180.489 41.9309,-176.301 37.1951,-171.146"/>
</g>
<!-- Node6 -->
<g id="node6" class="node"><title>Node6</title>
<g id="a_node6"><a xlink:href="report__util_8h.html#af2a0616acf74f44d97d7d5ec2ffb6d05" target="_top" xlink:title="rpt_bytes_as_hex">
<polygon fill="white" stroke="black" points="232,-240.5 232,-259.5 327,-259.5 327,-240.5 232,-240.5"/>
<text text-anchor="middle" x="279.5" y="-247.5" font-family="Helvetica,sans-Serif" font-size="10.00">rpt_bytes_as_hex</text>
</a>
</g>
</g>
<!-- Node1&#45;&gt;Node6 -->
<g id="edge5" class="edge"><title>Node1&#45;&gt;Node6</title>
<path fill="none" stroke="midnightblue" d="M39.9089,-206.422C50.4017,-215.293 64.5083,-225.523 79,-231 128.794,-249.819 190.329,-252.93 231.784,-252.387"/>
<polygon fill="midnightblue" stroke="midnightblue" points="42.1388,-203.722 32.3303,-199.717 37.5,-208.965 42.1388,-203.722"/>
</g>
<!-- Node7 -->
<g id="node7" class="node"><title>Node7</title>
<g id="a_node7"><a xlink:href="report__util_8h.html#a248f29bed496a324d4898114942b4aa1" target="_top" xlink:title="rpt_ifval2">
<polygon fill="white" stroke="black" points="103.5,-76.5 103.5,-95.5 159.5,-95.5 159.5,-76.5 103.5,-76.5"/>
<text text-anchor="middle" x="131.5" y="-83.5" font-family="Helvetica,sans-Serif" font-size="10.00">rpt_ifval2</text>
</a>
</g>
</g>
<!-- Node1&#45;&gt;Node7 -->
<g id="edge6" class="edge"><title>Node1&#45;&gt;Node7</title>
<path fill="none" stroke="midnightblue" d="M30.6659,-171.2C39.8552,-152.074 56.4919,-122.788 79,-105 86.1031,-99.3864 95.0265,-95.3227 103.441,-92.4315"/>
<polygon fill="midnightblue" stroke="midnightblue" points="27.4329,-169.853 26.4422,-180.402 33.7948,-172.774 27.4329,-169.853"/>
</g>
<!-- Node8 -->
<g id="node8" class="node"><title>Node8</title>
<g id="a_node8"><a xlink:href="report__util_8h.html#a105b44822ec124d16c445268308b31d7" target="_top" xlink:title="rpt_int">
<polygon fill="white" stroke="black" points="110.5,-316.5 110.5,-335.5 152.5,-335.5 152.5,-316.5 110.5,-316.5"/>
<text text-anchor="middle" x="131.5" y="-323.5" font-family="Helvetica,sans-Serif" font-size="10.00">rpt_int</text>
</a>
</g>
</g>
<!-- Node1&#45;&gt;Node8 -->
<g id="edge7" class="edge"><title>Node1&#45;&gt;Node8</title>
<path fill="none" stroke="midnightblue" d="M27.9928,-209.598C35.7365,-234.055 52.0144,-275.841 79,-302 87.7117,-310.445 99.9408,-316.315 110.296,-320.135"/>
<polygon fill="midnightblue" stroke="midnightblue" points="31.2498,-208.274 25.0276,-199.699 24.5442,-210.282 31.2498,-208.274"/>
</g>
<!-- Node9 -->
<g id="node9" class="node"><title>Node9</title>
<g id="a_node9"><a xlink:href="report__util_8h.html#a7c203b3e0021b91efc49d0d58bc2ca7f" target="_top" xlink:title="rpt_int_as_hex">
<polygon fill="white" stroke="black" points="91.5,-202.5 91.5,-221.5 171.5,-221.5 171.5,-202.5 91.5,-202.5"/>
<text text-anchor="middle" x="131.5" y="-209.5" font-family="Helvetica,sans-Serif" font-size="10.00">rpt_int_as_hex</text>
</a>
</g>
</g>
<!-- Node1&#45;&gt;Node9 -->
<g id="edge11" class="edge"><title>Node1&#45;&gt;Node9</title>
<path fill="none" stroke="midnightblue" d="M52.9431,-196.201C64.8215,-198.621 78.5912,-201.426 91.2028,-203.995"/>
<polygon fill="midnightblue" stroke="midnightblue" points="53.5656,-192.756 43.0682,-194.19 52.1683,-199.616 53.5656,-192.756"/>
</g>
<!-- Node10 -->
<g id="node10" class="node"><title>Node10</title>
<g id="a_node10"><a xlink:href="report__util_8h.html#a7f47a9f54cb2a9e49aa101cd3f84348c" target="_top" xlink:title="rpt_mapped_int">
<polygon fill="white" stroke="black" points="89.5,-38.5 89.5,-57.5 173.5,-57.5 173.5,-38.5 89.5,-38.5"/>
<text text-anchor="middle" x="131.5" y="-45.5" font-family="Helvetica,sans-Serif" font-size="10.00">rpt_mapped_int</text>
</a>
</g>
</g>
<!-- Node1&#45;&gt;Node10 -->
<g id="edge13" class="edge"><title>Node1&#45;&gt;Node10</title>
<path fill="none" stroke="midnightblue" d="M26.5408,-170.407C33.0585,-143.53 48.3833,-95.341 79,-67 83.1962,-63.1157 88.2544,-60.0085 93.5401,-57.5274"/>
<polygon fill="midnightblue" stroke="midnightblue" points="23.1193,-169.669 24.3314,-180.195 29.9475,-171.211 23.1193,-169.669"/>
</g>
<!-- Node11 -->
<g id="node11" class="node"><title>Node11</title>
<g id="a_node11"><a xlink:href="report__util_8h.html#ae9cae8fa8b9767c0bcf5fae824fcc488" target="_top" xlink:title="rpt_uint8_as_hex">
<polygon fill="white" stroke="black" points="85.5,-0.5 85.5,-19.5 177.5,-19.5 177.5,-0.5 85.5,-0.5"/>
<text text-anchor="middle" x="131.5" y="-7.5" font-family="Helvetica,sans-Serif" font-size="10.00">rpt_uint8_as_hex</text>
</a>
</g>
</g>
<!-- Node1&#45;&gt;Node11 -->
<g id="edge14" class="edge"><title>Node1&#45;&gt;Node11</title>
<path fill="none" stroke="midnightblue" d="M24.1353,-169.798C27.9121,-136.158 40.1526,-68.4714 79,-29 82.8104,-25.1284 87.4771,-22.039 92.4299,-19.5753"/>
<polygon fill="midnightblue" stroke="midnightblue" points="20.6105,-169.882 23.1226,-180.174 27.5774,-170.562 20.6105,-169.882"/>
</g>
<!-- Node8&#45;&gt;Node2 -->
<g id="edge8" class="edge"><title>Node8&#45;&gt;Node2</title>
<path fill="none" stroke="midnightblue" d="M162.712,-331.794C182.96,-335.677 209.995,-340.862 232.849,-345.245"/>
<polygon fill="midnightblue" stroke="midnightblue" points="163.281,-328.339 152.801,-329.893 161.962,-335.214 163.281,-328.339"/>
</g>
<!-- Node8&#45;&gt;Node3 -->
<g id="edge9" class="edge"><title>Node8&#45;&gt;Node3</title>
<path fill="none" stroke="midnightblue" d="M162.66,-320.009C182.191,-316.13 208.052,-310.993 230.384,-306.557"/>
<polygon fill="midnightblue" stroke="midnightblue" points="161.927,-316.586 152.801,-321.968 163.291,-323.452 161.927,-316.586"/>
</g>
<!-- Node8&#45;&gt;Node6 -->
<g id="edge10" class="edge"><title>Node8&#45;&gt;Node6</title>
<path fill="none" stroke="midnightblue" d="M158.394,-311.305C175.704,-301.602 199.059,-288.745 220,-278 232.422,-271.626 246.536,-264.858 257.787,-259.572"/>
<polygon fill="midnightblue" stroke="midnightblue" points="156.45,-308.382 149.452,-316.337 159.884,-314.482 156.45,-308.382"/>
</g>
<!-- Node9&#45;&gt;Node6 -->
<g id="edge12" class="edge"><title>Node9&#45;&gt;Node6</title>
<path fill="none" stroke="midnightblue" d="M179.036,-224.112C199.37,-229.404 222.871,-235.521 241.923,-240.48"/>
<polygon fill="midnightblue" stroke="midnightblue" points="179.901,-220.721 169.342,-221.589 178.138,-227.495 179.901,-220.721"/>
</g>
</g>
</svg>
