<?xml version="1.0" encoding="UTF-8" standalone="no"?>
<!DOCTYPE svg PUBLIC "-//W3C//DTD SVG 1.1//EN"
 "http://www.w3.org/Graphics/SVG/1.1/DTD/svg11.dtd">
<!-- Generated by graphviz version 2.38.0 (20140413.2041)
 -->
<!-- Title: rpt_bytes_as_hex Pages: 1 -->
<svg width="482pt" height="218pt"
 viewBox="0.00 0.00 482.00 218.00" xmlns="http://www.w3.org/2000/svg" xmlns:xlink="http://www.w3.org/1999/xlink">
<g id="graph0" class="graph" transform="scale(1 1) rotate(0) translate(4 214)">
<title>rpt_bytes_as_hex</title>
<polygon fill="white" stroke="none" points="-4,4 -4,-214 478,-214 478,4 -4,4"/>
<!-- Node1 -->
<g id="node1" class="node"><title>Node1</title>
<polygon fill="#bfbfbf" stroke="black" points="0,-95.5 0,-114.5 95,-114.5 95,-95.5 0,-95.5"/>
<text text-anchor="middle" x="47.5" y="-102.5" font-family="Helvetica,sans-Serif" font-size="10.00">rpt_bytes_as_hex</text>
</g>
<!-- Node2 -->
<g id="node2" class="node"><title>Node2</title>
<g id="a_node2"><a xlink:href="string__util_8c.html#a7be9558f1d0d894bf845df9c75ab553b" target="_top" xlink:title="hexstring">
<polygon fill="white" stroke="black" points="142.5,-190.5 142.5,-209.5 199.5,-209.5 199.5,-190.5 142.5,-190.5"/>
<text text-anchor="middle" x="171" y="-197.5" font-family="Helvetica,sans-Serif" font-size="10.00">hexstring</text>
</a>
</g>
</g>
<!-- Node1&#45;&gt;Node2 -->
<g id="edge1" class="edge"><title>Node1&#45;&gt;Node2</title>
<path fill="none" stroke="midnightblue" d="M57.3835,-114.86C71.7324,-130.376 101.404,-160.801 131,-181 133.391,-182.632 135.943,-184.202 138.555,-185.692"/>
<polygon fill="midnightblue" stroke="midnightblue" points="137.034,-188.847 147.511,-190.424 140.304,-182.658 137.034,-188.847"/>
</g>
<!-- Node3 -->
<g id="node3" class="node"><title>Node3</title>
<g id="a_node3"><a xlink:href="report__util_8c.html#a105b44822ec124d16c445268308b31d7" target="_top" xlink:title="rpt_int">
<polygon fill="white" stroke="black" points="150,-152.5 150,-171.5 192,-171.5 192,-152.5 150,-152.5"/>
<text text-anchor="middle" x="171" y="-159.5" font-family="Helvetica,sans-Serif" font-size="10.00">rpt_int</text>
</a>
</g>
</g>
<!-- Node1&#45;&gt;Node3 -->
<g id="edge2" class="edge"><title>Node1&#45;&gt;Node3</title>
<path fill="none" stroke="midnightblue" d="M68.8364,-114.541C88.3734,-123.706 118.116,-137.659 140.302,-148.068"/>
<polygon fill="midnightblue" stroke="midnightblue" points="139.057,-151.35 149.597,-152.428 142.031,-145.012 139.057,-151.35"/>
</g>
<!-- Node4 -->
<g id="node4" class="node"><title>Node4</title>
<g id="a_node4"><a xlink:href="report__util_8c.html#a271a0ddaafa0b5ff0630f85fa6bf25f4" target="_top" xlink:title="rpt_str">
<polygon fill="white" stroke="black" points="270,-109.5 270,-128.5 313,-128.5 313,-109.5 270,-109.5"/>
<text text-anchor="middle" x="291.5" y="-116.5" font-family="Helvetica,sans-Serif" font-size="10.00">rpt_str</text>
</a>
</g>
</g>
<!-- Node1&#45;&gt;Node4 -->
<g id="edge8" class="edge"><title>Node1&#45;&gt;Node4</title>
<path fill="none" stroke="midnightblue" d="M95.16,-107.699C143.678,-110.506 218.233,-114.819 259.801,-117.224"/>
<polygon fill="midnightblue" stroke="midnightblue" points="259.682,-120.723 269.867,-117.806 260.086,-113.735 259.682,-120.723"/>
</g>
<!-- Node7 -->
<g id="node7" class="node"><title>Node7</title>
<g id="a_node7"><a xlink:href="report__util_8c.html#a7c203b3e0021b91efc49d0d58bc2ca7f" target="_top" xlink:title="rpt_int_as_hex">
<polygon fill="white" stroke="black" points="131,-76.5 131,-95.5 211,-95.5 211,-76.5 131,-76.5"/>
<text text-anchor="middle" x="171" y="-83.5" font-family="Helvetica,sans-Serif" font-size="10.00">rpt_int_as_hex</text>
</a>
</g>
</g>
<!-- Node1&#45;&gt;Node7 -->
<g id="edge6" class="edge"><title>Node1&#45;&gt;Node7</title>
<path fill="none" stroke="midnightblue" d="M95.1276,-97.7084C103.501,-96.399 112.254,-95.0303 120.7,-93.7095"/>
<polygon fill="midnightblue" stroke="midnightblue" points="121.465,-97.1325 130.804,-92.1294 120.383,-90.2165 121.465,-97.1325"/>
</g>
<!-- Node8 -->
<g id="node8" class="node"><title>Node8</title>
<g id="a_node8"><a xlink:href="report__util_8c.html#af5b53c7ac855765e65c7f485fb2a1193" target="_top" xlink:title="rpt_structure_loc">
<polygon fill="white" stroke="black" points="247,-57.5 247,-76.5 336,-76.5 336,-57.5 247,-57.5"/>
<text text-anchor="middle" x="291.5" y="-64.5" font-family="Helvetica,sans-Serif" font-size="10.00">rpt_structure_loc</text>
</a>
</g>
</g>
<!-- Node1&#45;&gt;Node8 -->
<g id="edge9" class="edge"><title>Node1&#45;&gt;Node8</title>
<path fill="none" stroke="midnightblue" d="M63.9058,-95.431C79.9635,-86.0651 106.2,-72.4369 131,-67 165.63,-59.408 205.514,-59.4096 236.737,-61.3085"/>
<polygon fill="midnightblue" stroke="midnightblue" points="236.755,-64.818 246.973,-62.0169 237.238,-57.8347 236.755,-64.818"/>
</g>
<!-- Node9 -->
<g id="node9" class="node"><title>Node9</title>
<g id="a_node9"><a xlink:href="string__util_8c.html#a421e5f914841061096ef1977d1501b32" target="_top" xlink:title="streq">
<polygon fill="white" stroke="black" points="151.5,-0.5 151.5,-19.5 190.5,-19.5 190.5,-0.5 151.5,-0.5"/>
<text text-anchor="middle" x="171" y="-7.5" font-family="Helvetica,sans-Serif" font-size="10.00">streq</text>
</a>
</g>
</g>
<!-- Node1&#45;&gt;Node9 -->
<g id="edge11" class="edge"><title>Node1&#45;&gt;Node9</title>
<path fill="none" stroke="midnightblue" d="M58.4836,-95.4854C73.5787,-81.3178 103.386,-54.182 131,-34 135.116,-30.9918 139.617,-27.9848 144.052,-25.1671"/>
<polygon fill="midnightblue" stroke="midnightblue" points="146.236,-27.9323 152.918,-19.7096 142.567,-21.9712 146.236,-27.9323"/>
</g>
<!-- Node3&#45;&gt;Node4 -->
<g id="edge3" class="edge"><title>Node3&#45;&gt;Node4</title>
<path fill="none" stroke="midnightblue" d="M192.102,-154.706C210.799,-147.921 238.911,-137.72 260.306,-129.957"/>
<polygon fill="midnightblue" stroke="midnightblue" points="261.695,-133.176 269.901,-126.475 259.307,-126.596 261.695,-133.176"/>
</g>
<!-- Node5 -->
<g id="node5" class="node"><title>Node5</title>
<g id="a_node5"><a xlink:href="report__util_8c.html#a71f4829c653e1d6101dfc1ae09f4796e" target="_top" xlink:title="rpt_cur_output_dest">
<polygon fill="white" stroke="black" points="372,-109.5 372,-128.5 474,-128.5 474,-109.5 372,-109.5"/>
<text text-anchor="middle" x="423" y="-116.5" font-family="Helvetica,sans-Serif" font-size="10.00">rpt_cur_output_dest</text>
</a>
</g>
</g>
<!-- Node4&#45;&gt;Node5 -->
<g id="edge4" class="edge"><title>Node4&#45;&gt;Node5</title>
<path fill="none" stroke="midnightblue" d="M313.02,-119C326.255,-119 344.213,-119 361.732,-119"/>
<polygon fill="midnightblue" stroke="midnightblue" points="361.957,-122.5 371.957,-119 361.956,-115.5 361.957,-122.5"/>
</g>
<!-- Node6 -->
<g id="node6" class="node"><title>Node6</title>
<g id="a_node6"><a xlink:href="report__util_8c.html#ae58dfa6adb2e9f1dacce17f7b0732f26" target="_top" xlink:title="rpt_vstring">
<polygon fill="white" stroke="black" points="392,-62.5 392,-81.5 454,-81.5 454,-62.5 392,-62.5"/>
<text text-anchor="middle" x="423" y="-69.5" font-family="Helvetica,sans-Serif" font-size="10.00">rpt_vstring</text>
</a>
</g>
</g>
<!-- Node4&#45;&gt;Node6 -->
<g id="edge5" class="edge"><title>Node4&#45;&gt;Node6</title>
<path fill="none" stroke="midnightblue" d="M313.02,-111.553C332.615,-104.441 362.562,-93.5722 386.108,-85.0265"/>
<polygon fill="midnightblue" stroke="midnightblue" points="387.552,-88.2257 395.758,-81.524 385.164,-81.6456 387.552,-88.2257"/>
</g>
<!-- Node7&#45;&gt;Node4 -->
<g id="edge7" class="edge"><title>Node7&#45;&gt;Node4</title>
<path fill="none" stroke="midnightblue" d="M206.275,-95.545C223.257,-100.274 243.589,-105.936 260.022,-110.512"/>
<polygon fill="midnightblue" stroke="midnightblue" points="259.113,-113.892 269.685,-113.203 260.991,-107.149 259.113,-113.892"/>
</g>
<!-- Node8&#45;&gt;Node6 -->
<g id="edge10" class="edge"><title>Node8&#45;&gt;Node6</title>
<path fill="none" stroke="midnightblue" d="M336.343,-68.6928C350.986,-69.2581 367.227,-69.8852 381.597,-70.44"/>
<polygon fill="midnightblue" stroke="midnightblue" points="381.551,-73.9408 391.679,-70.8293 381.821,-66.946 381.551,-73.9408"/>
</g>
</g>
</svg>
