<?xml version="1.0" encoding="UTF-8" standalone="no"?>
<!DOCTYPE svg PUBLIC "-//W3C//DTD SVG 1.1//EN"
 "http://www.w3.org/Graphics/SVG/1.1/DTD/svg11.dtd">
<!-- Generated by graphviz version 2.38.0 (20140413.2041)
 -->
<!-- Title: is_abbrev Pages: 1 -->
<svg width="350pt" height="116pt"
 viewBox="0.00 0.00 350.00 115.50" xmlns="http://www.w3.org/2000/svg" xmlns:xlink="http://www.w3.org/1999/xlink">
<g id="graph0" class="graph" transform="scale(1 1) rotate(0) translate(4 111.5)">
<title>is_abbrev</title>
<polygon fill="white" stroke="none" points="-4,4 -4,-111.5 346,-111.5 346,4 -4,4"/>
<!-- Node1 -->
<g id="node1" class="node"><title>Node1</title>
<polygon fill="#bfbfbf" stroke="black" points="0,-50 0,-69 60,-69 60,-50 0,-50"/>
<text text-anchor="middle" x="30" y="-57" font-family="Helvetica,sans-Serif" font-size="10.00">is_abbrev</text>
</g>
<!-- Node2 -->
<g id="node2" class="node"><title>Node2</title>
<g id="a_node2"><a xlink:href="string__util_8h.html#aa3ac5ce76b84babd2e8ef53a59b9716f" target="_top" xlink:title="str_starts_with">
<polygon fill="white" stroke="black" points="96,-50 96,-69 175,-69 175,-50 96,-50"/>
<text text-anchor="middle" x="135.5" y="-57" font-family="Helvetica,sans-Serif" font-size="10.00">str_starts_with</text>
</a>
</g>
</g>
<!-- Node1&#45;&gt;Node2 -->
<g id="edge1" class="edge"><title>Node1&#45;&gt;Node2</title>
<path fill="none" stroke="midnightblue" d="M70.1197,-59.5C78.5781,-59.5 87.5161,-59.5 95.9524,-59.5"/>
<polygon fill="midnightblue" stroke="midnightblue" points="70.106,-56.0001 60.106,-59.5 70.1059,-63.0001 70.106,-56.0001"/>
</g>
<!-- Node3 -->
<g id="node3" class="node"><title>Node3</title>
<g id="a_node3"><a xlink:href="failsim_8h.html#a01bfaa175f646e99f9b0be7564f5514c" target="_top" xlink:title="fsim_report_error_table">
<polygon fill="white" stroke="black" points="217,-88 217,-107 336,-107 336,-88 217,-88"/>
<text text-anchor="middle" x="276.5" y="-95" font-family="Helvetica,sans-Serif" font-size="10.00">fsim_report_error_table</text>
</a>
</g>
</g>
<!-- Node2&#45;&gt;Node3 -->
<g id="edge2" class="edge"><title>Node2&#45;&gt;Node3</title>
<path fill="none" stroke="midnightblue" d="M181.295,-71.7462C200.455,-76.984 222.494,-83.0091 240.436,-87.9141"/>
<polygon fill="midnightblue" stroke="midnightblue" points="182.145,-68.35 171.576,-69.089 180.299,-75.1022 182.145,-68.35"/>
</g>
<!-- Node4 -->
<g id="node4" class="node"><title>Node4</title>
<g id="a_node4"><a xlink:href="string__util_8h.html#aa71923771ea63db6b405f458fb530b1f" target="_top" xlink:title="starts_with_any">
<polygon fill="white" stroke="black" points="234,-50 234,-69 319,-69 319,-50 234,-50"/>
<text text-anchor="middle" x="276.5" y="-57" font-family="Helvetica,sans-Serif" font-size="10.00">starts_with_any</text>
</a>
</g>
</g>
<!-- Node2&#45;&gt;Node4 -->
<g id="edge3" class="edge"><title>Node2&#45;&gt;Node4</title>
<path fill="none" stroke="midnightblue" d="M185.307,-59.5C201.059,-59.5 218.371,-59.5 233.58,-59.5"/>
<polygon fill="midnightblue" stroke="midnightblue" points="185.219,-56.0001 175.219,-59.5 185.219,-63.0001 185.219,-56.0001"/>
</g>
<!-- Node5 -->
<g id="node5" class="node"><title>Node5</title>
<g id="a_node5"><a xlink:href="string__util_8h.html#af9857dad66f45390ebd3758ec510bcce" target="_top" xlink:title="any_one_byte_hex_string\l_to_byte_in_buf">
<polygon fill="white" stroke="black" points="211,-0.5 211,-30.5 342,-30.5 342,-0.5 211,-0.5"/>
<text text-anchor="start" x="219" y="-18.5" font-family="Helvetica,sans-Serif" font-size="10.00">any_one_byte_hex_string</text>
<text text-anchor="middle" x="276.5" y="-7.5" font-family="Helvetica,sans-Serif" font-size="10.00">_to_byte_in_buf</text>
</a>
</g>
</g>
<!-- Node2&#45;&gt;Node5 -->
<g id="edge4" class="edge"><title>Node2&#45;&gt;Node5</title>
<path fill="none" stroke="midnightblue" d="M176.302,-46.9008C192.394,-41.8069 211.102,-35.8849 227.907,-30.5654"/>
<polygon fill="midnightblue" stroke="midnightblue" points="175.138,-43.5979 166.661,-49.9527 177.251,-50.2715 175.138,-43.5979"/>
</g>
</g>
</svg>
