<?xml version="1.0" encoding="UTF-8" standalone="no"?>
<!DOCTYPE svg PUBLIC "-//W3C//DTD SVG 1.1//EN"
 "http://www.w3.org/Graphics/SVG/1.1/DTD/svg11.dtd">
<!-- Generated by graphviz version 2.38.0 (20140413.2041)
 -->
<!-- Title: g_ptr_array_to_ntsa Pages: 1 -->
<svg width="265pt" height="66pt"
 viewBox="0.00 0.00 265.00 66.00" xmlns="http://www.w3.org/2000/svg" xmlns:xlink="http://www.w3.org/1999/xlink">
<g id="graph0" class="graph" transform="scale(1 1) rotate(0) translate(4 62)">
<title>g_ptr_array_to_ntsa</title>
<polygon fill="white" stroke="none" points="-4,4 -4,-62 261,-62 261,4 -4,4"/>
<!-- Node1 -->
<g id="node1" class="node"><title>Node1</title>
<polygon fill="#bfbfbf" stroke="black" points="0,-19.5 0,-38.5 104,-38.5 104,-19.5 0,-19.5"/>
<text text-anchor="middle" x="52" y="-26.5" font-family="Helvetica,sans-Serif" font-size="10.00">g_ptr_array_to_ntsa</text>
</g>
<!-- Node2 -->
<g id="node2" class="node"><title>Node2</title>
<g id="a_node2"><a xlink:href="glib__string__util_8h.html#abfe86a75d0c56d711fbea31e48795860" target="_top" xlink:title="join_string_g_ptr_array">
<polygon fill="white" stroke="black" points="140,-38.5 140,-57.5 257,-57.5 257,-38.5 140,-38.5"/>
<text text-anchor="middle" x="198.5" y="-45.5" font-family="Helvetica,sans-Serif" font-size="10.00">join_string_g_ptr_array</text>
</a>
</g>
</g>
<!-- Node1&#45;&gt;Node2 -->
<g id="edge1" class="edge"><title>Node1&#45;&gt;Node2</title>
<path fill="none" stroke="midnightblue" d="M114.504,-37.087C122.934,-38.1954 131.563,-39.3301 139.919,-40.4288"/>
<polygon fill="midnightblue" stroke="midnightblue" points="114.723,-33.5858 104.352,-35.7522 113.811,-40.5261 114.723,-33.5858"/>
</g>
<!-- Node3 -->
<g id="node3" class="node"><title>Node3</title>
<g id="a_node3"><a xlink:href="string__util_8h.html#a51d7eb8b100d566bc42cc3efd6f0c082" target="_top" xlink:title="strsplit_maxlength">
<polygon fill="white" stroke="black" points="150.5,-0.5 150.5,-19.5 246.5,-19.5 246.5,-0.5 150.5,-0.5"/>
<text text-anchor="middle" x="198.5" y="-7.5" font-family="Helvetica,sans-Serif" font-size="10.00">strsplit_maxlength</text>
</a>
</g>
</g>
<!-- Node1&#45;&gt;Node3 -->
<g id="edge2" class="edge"><title>Node1&#45;&gt;Node3</title>
<path fill="none" stroke="midnightblue" d="M114.304,-20.9392C126.303,-19.3615 138.715,-17.7296 150.173,-16.223"/>
<polygon fill="midnightblue" stroke="midnightblue" points="113.811,-17.4739 104.352,-22.2478 114.723,-24.4142 113.811,-17.4739"/>
</g>
</g>
</svg>
