<?xml version="1.0" encoding="UTF-8" standalone="no"?>
<!DOCTYPE svg PUBLIC "-//W3C//DTD SVG 1.1//EN"
 "http://www.w3.org/Graphics/SVG/1.1/DTD/svg11.dtd">
<!-- Generated by graphviz version 2.38.0 (20140413.2041)
 -->
<!-- Title: hexstring Pages: 1 -->
<svg width="348pt" height="94pt"
 viewBox="0.00 0.00 348.00 94.00" xmlns="http://www.w3.org/2000/svg" xmlns:xlink="http://www.w3.org/1999/xlink">
<g id="graph0" class="graph" transform="scale(1 1) rotate(0) translate(4 90)">
<title>hexstring</title>
<polygon fill="white" stroke="none" points="-4,4 -4,-90 344,-90 344,4 -4,4"/>
<!-- Node1 -->
<g id="node1" class="node"><title>Node1</title>
<polygon fill="#bfbfbf" stroke="black" points="0,-44.5 0,-63.5 57,-63.5 57,-44.5 0,-44.5"/>
<text text-anchor="middle" x="28.5" y="-51.5" font-family="Helvetica,sans-Serif" font-size="10.00">hexstring</text>
</g>
<!-- Node2 -->
<g id="node2" class="node"><title>Node2</title>
<g id="a_node2"><a xlink:href="edid_8h.html#a95568554345c2bb4914009b809db6021" target="_top" xlink:title="create_parsed_edid">
<polygon fill="white" stroke="black" points="233,-66.5 233,-85.5 340,-85.5 340,-66.5 233,-66.5"/>
<text text-anchor="middle" x="286.5" y="-73.5" font-family="Helvetica,sans-Serif" font-size="10.00">create_parsed_edid</text>
</a>
</g>
</g>
<!-- Node1&#45;&gt;Node2 -->
<g id="edge1" class="edge"><title>Node1&#45;&gt;Node2</title>
<path fill="none" stroke="midnightblue" d="M57.7138,-67.7315C68.4891,-72.2689 81.0579,-76.7338 93,-79 139.63,-87.8486 193.758,-85.9578 232.719,-82.519"/>
<polygon fill="midnightblue" stroke="midnightblue" points="58.9527,-64.4524 48.3918,-63.6051 56.1193,-70.8533 58.9527,-64.4524"/>
</g>
<!-- Node3 -->
<g id="node3" class="node"><title>Node3</title>
<g id="a_node3"><a xlink:href="edid_8h.html#acacc0ae2b861fad99bb2949bd1b6605d" target="_top" xlink:title="get_edid_mfg_id_in\l_buffer">
<polygon fill="white" stroke="black" points="93,-39 93,-69 197,-69 197,-39 93,-39"/>
<text text-anchor="start" x="101" y="-57" font-family="Helvetica,sans-Serif" font-size="10.00">get_edid_mfg_id_in</text>
<text text-anchor="middle" x="145" y="-46" font-family="Helvetica,sans-Serif" font-size="10.00">_buffer</text>
</a>
</g>
</g>
<!-- Node1&#45;&gt;Node3 -->
<g id="edge2" class="edge"><title>Node1&#45;&gt;Node3</title>
<path fill="none" stroke="midnightblue" d="M67.4834,-54C75.5978,-54 84.2968,-54 92.8146,-54"/>
<polygon fill="midnightblue" stroke="midnightblue" points="67.2173,-50.5001 57.2173,-54 67.2172,-57.5001 67.2173,-50.5001"/>
</g>
<!-- Node4 -->
<g id="node4" class="node"><title>Node4</title>
<g id="a_node4"><a xlink:href="report__util_8h.html#af2a0616acf74f44d97d7d5ec2ffb6d05" target="_top" xlink:title="rpt_bytes_as_hex">
<polygon fill="white" stroke="black" points="97.5,-0.5 97.5,-19.5 192.5,-19.5 192.5,-0.5 97.5,-0.5"/>
<text text-anchor="middle" x="145" y="-7.5" font-family="Helvetica,sans-Serif" font-size="10.00">rpt_bytes_as_hex</text>
</a>
</g>
</g>
<!-- Node1&#45;&gt;Node4 -->
<g id="edge4" class="edge"><title>Node1&#45;&gt;Node4</title>
<path fill="none" stroke="midnightblue" d="M63.8233,-40.8103C81.6417,-33.963 103.009,-25.7519 119.204,-19.5287"/>
<polygon fill="midnightblue" stroke="midnightblue" points="62.4238,-37.5985 54.3448,-44.4527 64.9348,-44.1326 62.4238,-37.5985"/>
</g>
<!-- Node3&#45;&gt;Node2 -->
<g id="edge3" class="edge"><title>Node3&#45;&gt;Node2</title>
<path fill="none" stroke="midnightblue" d="M207.14,-63.6421C215.744,-64.999 224.526,-66.384 232.95,-67.7126"/>
<polygon fill="midnightblue" stroke="midnightblue" points="207.576,-60.1677 197.153,-62.0671 206.485,-67.0822 207.576,-60.1677"/>
</g>
</g>
</svg>
