<?xml version="1.0" encoding="UTF-8" standalone="no"?>
<!DOCTYPE svg PUBLIC "-//W3C//DTD SVG 1.1//EN"
 "http://www.w3.org/Graphics/SVG/1.1/DTD/svg11.dtd">
<!-- Generated by graphviz version 2.38.0 (20140413.2041)
 -->
<!-- Title: ntsa_length Pages: 1 -->
<svg width="391pt" height="116pt"
 viewBox="0.00 0.00 391.00 115.50" xmlns="http://www.w3.org/2000/svg" xmlns:xlink="http://www.w3.org/1999/xlink">
<g id="graph0" class="graph" transform="scale(1 1) rotate(0) translate(4 111.5)">
<title>ntsa_length</title>
<polygon fill="white" stroke="none" points="-4,4 -4,-111.5 387,-111.5 387,4 -4,4"/>
<!-- Node1 -->
<g id="node1" class="node"><title>Node1</title>
<polygon fill="#bfbfbf" stroke="black" points="0,-38.5 0,-57.5 68,-57.5 68,-38.5 0,-38.5"/>
<text text-anchor="middle" x="34" y="-45.5" font-family="Helvetica,sans-Serif" font-size="10.00">ntsa_length</text>
</g>
<!-- Node2 -->
<g id="node2" class="node"><title>Node2</title>
<g id="a_node2"><a xlink:href="failsim_8h.html#a47679d378ef8cd71ccbdaf2470d37f21" target="_top" xlink:title="fsim_load_control_from\l_gptrarray">
<polygon fill="white" stroke="black" points="104,-77 104,-107 224,-107 224,-77 104,-77"/>
<text text-anchor="start" x="112" y="-95" font-family="Helvetica,sans-Serif" font-size="10.00">fsim_load_control_from</text>
<text text-anchor="middle" x="164" y="-84" font-family="Helvetica,sans-Serif" font-size="10.00">_gptrarray</text>
</a>
</g>
</g>
<!-- Node1&#45;&gt;Node2 -->
<g id="edge1" class="edge"><title>Node1&#45;&gt;Node2</title>
<path fill="none" stroke="midnightblue" d="M72.4935,-60.8884C87.1203,-65.9163 103.991,-71.7155 119.173,-76.9346"/>
<polygon fill="midnightblue" stroke="midnightblue" points="73.3688,-57.4883 62.7741,-57.5473 71.0932,-64.1081 73.3688,-57.4883"/>
</g>
<!-- Node4 -->
<g id="node4" class="node"><title>Node4</title>
<g id="a_node4"><a xlink:href="string__util_8h.html#a3255337423d43fac3199c13a7192c39d" target="_top" xlink:title="ntsa_to_g_ptr_array">
<polygon fill="white" stroke="black" points="112,-38.5 112,-57.5 216,-57.5 216,-38.5 112,-38.5"/>
<text text-anchor="middle" x="164" y="-45.5" font-family="Helvetica,sans-Serif" font-size="10.00">ntsa_to_g_ptr_array</text>
</a>
</g>
</g>
<!-- Node1&#45;&gt;Node4 -->
<g id="edge3" class="edge"><title>Node1&#45;&gt;Node4</title>
<path fill="none" stroke="midnightblue" d="M78.5628,-48C89.1571,-48 100.586,-48 111.51,-48"/>
<polygon fill="midnightblue" stroke="midnightblue" points="78.2964,-44.5001 68.2964,-48 78.2963,-51.5001 78.2964,-44.5001"/>
</g>
<!-- Node5 -->
<g id="node5" class="node"><title>Node5</title>
<g id="a_node5"><a xlink:href="udev__util_8h.html#a25d919095c7730db7bd16fb6ebd92743" target="_top" xlink:title="report_udev_device">
<polygon fill="white" stroke="black" points="111,-0.5 111,-19.5 217,-19.5 217,-0.5 111,-0.5"/>
<text text-anchor="middle" x="164" y="-7.5" font-family="Helvetica,sans-Serif" font-size="10.00">report_udev_device</text>
</a>
</g>
</g>
<!-- Node1&#45;&gt;Node5 -->
<g id="edge4" class="edge"><title>Node1&#45;&gt;Node5</title>
<path fill="none" stroke="midnightblue" d="M77.2242,-35.4647C94.6371,-30.2952 114.492,-24.4009 130.711,-19.5859"/>
<polygon fill="midnightblue" stroke="midnightblue" points="75.8902,-32.2097 67.2998,-38.411 77.8824,-38.9202 75.8902,-32.2097"/>
</g>
<!-- Node3 -->
<g id="node3" class="node"><title>Node3</title>
<g id="a_node3"><a xlink:href="failsim_8h.html#a0956766f1ad629bfade7cb1725c57ebe" target="_top" xlink:title="fsim_load_control_file">
<polygon fill="white" stroke="black" points="265,-82.5 265,-101.5 378,-101.5 378,-82.5 265,-82.5"/>
<text text-anchor="middle" x="321.5" y="-89.5" font-family="Helvetica,sans-Serif" font-size="10.00">fsim_load_control_file</text>
</a>
</g>
</g>
<!-- Node2&#45;&gt;Node3 -->
<g id="edge2" class="edge"><title>Node2&#45;&gt;Node3</title>
<path fill="none" stroke="midnightblue" d="M234.327,-92C244.513,-92 254.895,-92 264.762,-92"/>
<polygon fill="midnightblue" stroke="midnightblue" points="234.232,-88.5001 224.231,-92 234.231,-95.5001 234.232,-88.5001"/>
</g>
<!-- Node6 -->
<g id="node6" class="node"><title>Node6</title>
<g id="a_node6"><a xlink:href="udev__util_8h.html#a99b7881f22243d06502945cddebbe6ab" target="_top" xlink:title="probe_udev_subsystem">
<polygon fill="white" stroke="black" points="260,-0.5 260,-19.5 383,-19.5 383,-0.5 260,-0.5"/>
<text text-anchor="middle" x="321.5" y="-7.5" font-family="Helvetica,sans-Serif" font-size="10.00">probe_udev_subsystem</text>
</a>
</g>
</g>
<!-- Node5&#45;&gt;Node6 -->
<g id="edge5" class="edge"><title>Node5&#45;&gt;Node6</title>
<path fill="none" stroke="midnightblue" d="M227.329,-10C238.04,-10 249.158,-10 259.826,-10"/>
<polygon fill="midnightblue" stroke="midnightblue" points="227.212,-6.5001 217.212,-10 227.212,-13.5001 227.212,-6.5001"/>
</g>
</g>
</svg>
