<?xml version="1.0" encoding="UTF-8" standalone="no"?>
<!DOCTYPE svg PUBLIC "-//W3C//DTD SVG 1.1//EN"
 "http://www.w3.org/Graphics/SVG/1.1/DTD/svg11.dtd">
<!-- Generated by graphviz version 2.38.0 (20140413.2041)
 -->
<!-- Title: hex_dump Pages: 1 -->
<svg width="191pt" height="66pt"
 viewBox="0.00 0.00 191.00 66.00" xmlns="http://www.w3.org/2000/svg" xmlns:xlink="http://www.w3.org/1999/xlink">
<g id="graph0" class="graph" transform="scale(1 1) rotate(0) translate(4 62)">
<title>hex_dump</title>
<polygon fill="white" stroke="none" points="-4,4 -4,-62 187,-62 187,4 -4,4"/>
<!-- Node1 -->
<g id="node1" class="node"><title>Node1</title>
<polygon fill="#bfbfbf" stroke="black" points="0,-19.5 0,-38.5 63,-38.5 63,-19.5 0,-19.5"/>
<text text-anchor="middle" x="31.5" y="-26.5" font-family="Helvetica,sans-Serif" font-size="10.00">hex_dump</text>
</g>
<!-- Node2 -->
<g id="node2" class="node"><title>Node2</title>
<g id="a_node2"><a xlink:href="data__structures_8h.html#a0080933f66a37532d3e2a161e5a8fe53" target="_top" xlink:title="buffer_dump">
<polygon fill="white" stroke="black" points="105.5,-38.5 105.5,-57.5 176.5,-57.5 176.5,-38.5 105.5,-38.5"/>
<text text-anchor="middle" x="141" y="-45.5" font-family="Helvetica,sans-Serif" font-size="10.00">buffer_dump</text>
</a>
</g>
</g>
<!-- Node1&#45;&gt;Node2 -->
<g id="edge1" class="edge"><title>Node1&#45;&gt;Node2</title>
<path fill="none" stroke="midnightblue" d="M72.9246,-36.1448C83.5567,-38.024 94.9311,-40.0343 105.237,-41.8558"/>
<polygon fill="midnightblue" stroke="midnightblue" points="73.4742,-32.6878 63.0176,-34.3938 72.2558,-39.5809 73.4742,-32.6878"/>
</g>
<!-- Node3 -->
<g id="node3" class="node"><title>Node3</title>
<g id="a_node3"><a xlink:href="x11__util_8h.html#a237230b15259a8de9872c0bb8f0bab36" target="_top" xlink:title="get_x11_edids">
<polygon fill="white" stroke="black" points="99,-0.5 99,-19.5 183,-19.5 183,-0.5 99,-0.5"/>
<text text-anchor="middle" x="141" y="-7.5" font-family="Helvetica,sans-Serif" font-size="10.00">get_x11_edids</text>
</a>
</g>
</g>
<!-- Node1&#45;&gt;Node3 -->
<g id="edge2" class="edge"><title>Node1&#45;&gt;Node3</title>
<path fill="none" stroke="midnightblue" d="M73.0612,-21.831C81.535,-20.3333 90.475,-18.7533 98.9659,-17.2525"/>
<polygon fill="midnightblue" stroke="midnightblue" points="72.2558,-18.4191 63.0176,-23.6062 73.4742,-25.3122 72.2558,-18.4191"/>
</g>
</g>
</svg>
