<?xml version="1.0" encoding="UTF-8" standalone="no"?>
<!DOCTYPE svg PUBLIC "-//W3C//DTD SVG 1.1//EN"
 "http://www.w3.org/Graphics/SVG/1.1/DTD/svg11.dtd">
<!-- Generated by graphviz version 2.38.0 (20140413.2041)
 -->
<!-- Title: fhex_dump_indented Pages: 1 -->
<svg width="712pt" height="142pt"
 viewBox="0.00 0.00 712.00 142.00" xmlns="http://www.w3.org/2000/svg" xmlns:xlink="http://www.w3.org/1999/xlink">
<g id="graph0" class="graph" transform="scale(1 1) rotate(0) translate(4 138)">
<title>fhex_dump_indented</title>
<polygon fill="white" stroke="none" points="-4,4 -4,-138 708,-138 708,4 -4,4"/>
<!-- Node1 -->
<g id="node1" class="node"><title>Node1</title>
<polygon fill="#bfbfbf" stroke="black" points="0,-57.5 0,-76.5 110,-76.5 110,-57.5 0,-57.5"/>
<text text-anchor="middle" x="55" y="-64.5" font-family="Helvetica,sans-Serif" font-size="10.00">fhex_dump_indented</text>
</g>
<!-- Node2 -->
<g id="node2" class="node"><title>Node2</title>
<g id="a_node2"><a xlink:href="string__util_8h.html#a9aa911aed311ed19af7148d1f235e454" target="_top" xlink:title="fhex_dump">
<polygon fill="white" stroke="black" points="153,-76.5 153,-95.5 218,-95.5 218,-76.5 153,-76.5"/>
<text text-anchor="middle" x="185.5" y="-83.5" font-family="Helvetica,sans-Serif" font-size="10.00">fhex_dump</text>
</a>
</g>
</g>
<!-- Node1&#45;&gt;Node2 -->
<g id="edge1" class="edge"><title>Node1&#45;&gt;Node2</title>
<path fill="none" stroke="midnightblue" d="M120.08,-76.4749C131.453,-78.1565 142.833,-79.8392 152.795,-81.3121"/>
<polygon fill="midnightblue" stroke="midnightblue" points="120.528,-73.0031 110.123,-75.0026 119.504,-79.9278 120.528,-73.0031"/>
</g>
<!-- Node6 -->
<g id="node6" class="node"><title>Node6</title>
<g id="a_node6"><a xlink:href="report__util_8h.html#a5cdea9095d42e1486dd5f4b45e1e2a82" target="_top" xlink:title="rpt_hex_dump">
<polygon fill="white" stroke="black" points="146,-38.5 146,-57.5 225,-57.5 225,-38.5 146,-38.5"/>
<text text-anchor="middle" x="185.5" y="-45.5" font-family="Helvetica,sans-Serif" font-size="10.00">rpt_hex_dump</text>
</a>
</g>
</g>
<!-- Node1&#45;&gt;Node6 -->
<g id="edge5" class="edge"><title>Node1&#45;&gt;Node6</title>
<path fill="none" stroke="midnightblue" d="M120.269,-57.4972C128.943,-56.2146 137.617,-54.9321 145.658,-53.7431"/>
<polygon fill="midnightblue" stroke="midnightblue" points="119.504,-54.0722 110.123,-58.9974 120.528,-60.9969 119.504,-54.0722"/>
</g>
<!-- Node3 -->
<g id="node3" class="node"><title>Node3</title>
<g id="a_node3"><a xlink:href="string__util_8h.html#a33e2d73bb666582588322cc497a23408" target="_top" xlink:title="hex_dump">
<polygon fill="white" stroke="black" points="304,-76.5 304,-95.5 367,-95.5 367,-76.5 304,-76.5"/>
<text text-anchor="middle" x="335.5" y="-83.5" font-family="Helvetica,sans-Serif" font-size="10.00">hex_dump</text>
</a>
</g>
</g>
<!-- Node2&#45;&gt;Node3 -->
<g id="edge2" class="edge"><title>Node2&#45;&gt;Node3</title>
<path fill="none" stroke="midnightblue" d="M228.489,-86C252.473,-86 282.015,-86 303.816,-86"/>
<polygon fill="midnightblue" stroke="midnightblue" points="228.25,-82.5001 218.25,-86 228.25,-89.5001 228.25,-82.5001"/>
</g>
<!-- Node4 -->
<g id="node4" class="node"><title>Node4</title>
<g id="a_node4"><a xlink:href="data__structures_8h.html#a0080933f66a37532d3e2a161e5a8fe53" target="_top" xlink:title="buffer_dump">
<polygon fill="white" stroke="black" points="467,-114.5 467,-133.5 538,-133.5 538,-114.5 467,-114.5"/>
<text text-anchor="middle" x="502.5" y="-121.5" font-family="Helvetica,sans-Serif" font-size="10.00">buffer_dump</text>
</a>
</g>
</g>
<!-- Node3&#45;&gt;Node4 -->
<g id="edge3" class="edge"><title>Node3&#45;&gt;Node4</title>
<path fill="none" stroke="midnightblue" d="M377.232,-95.3807C404.714,-101.71 440.595,-109.973 466.732,-115.993"/>
<polygon fill="midnightblue" stroke="midnightblue" points="377.679,-91.8921 367.149,-93.0585 376.108,-98.7135 377.679,-91.8921"/>
</g>
<!-- Node5 -->
<g id="node5" class="node"><title>Node5</title>
<g id="a_node5"><a xlink:href="x11__util_8h.html#a237230b15259a8de9872c0bb8f0bab36" target="_top" xlink:title="get_x11_edids">
<polygon fill="white" stroke="black" points="460.5,-76.5 460.5,-95.5 544.5,-95.5 544.5,-76.5 460.5,-76.5"/>
<text text-anchor="middle" x="502.5" y="-83.5" font-family="Helvetica,sans-Serif" font-size="10.00">get_x11_edids</text>
</a>
</g>
</g>
<!-- Node3&#45;&gt;Node5 -->
<g id="edge4" class="edge"><title>Node3&#45;&gt;Node5</title>
<path fill="none" stroke="midnightblue" d="M377.178,-86C402.52,-86 435.019,-86 460.434,-86"/>
<polygon fill="midnightblue" stroke="midnightblue" points="377.149,-82.5001 367.149,-86 377.149,-89.5001 377.149,-82.5001"/>
</g>
<!-- Node7 -->
<g id="node7" class="node"><title>Node7</title>
<g id="a_node7"><a xlink:href="libdrm__util_8h.html#a0a134366851de213e59925f5bc459704" target="_top" xlink:title="report_drmModePropertyBlob">
<polygon fill="white" stroke="black" points="261,-38.5 261,-57.5 410,-57.5 410,-38.5 261,-38.5"/>
<text text-anchor="middle" x="335.5" y="-45.5" font-family="Helvetica,sans-Serif" font-size="10.00">report_drmModePropertyBlob</text>
</a>
</g>
</g>
<!-- Node6&#45;&gt;Node7 -->
<g id="edge6" class="edge"><title>Node6&#45;&gt;Node7</title>
<path fill="none" stroke="midnightblue" d="M235.467,-48C243.65,-48 252.296,-48 260.934,-48"/>
<polygon fill="midnightblue" stroke="midnightblue" points="235.385,-44.5001 225.385,-48 235.385,-51.5001 235.385,-44.5001"/>
</g>
<!-- Node10 -->
<g id="node10" class="node"><title>Node10</title>
<g id="a_node10"><a xlink:href="edid_8h.html#ad386522b77fc8f2df755bed4a32b0bed" target="_top" xlink:title="report_parsed_edid_base">
<polygon fill="white" stroke="black" points="269.5,-0.5 269.5,-19.5 401.5,-19.5 401.5,-0.5 269.5,-0.5"/>
<text text-anchor="middle" x="335.5" y="-7.5" font-family="Helvetica,sans-Serif" font-size="10.00">report_parsed_edid_base</text>
</a>
</g>
</g>
<!-- Node6&#45;&gt;Node10 -->
<g id="edge9" class="edge"><title>Node6&#45;&gt;Node10</title>
<path fill="none" stroke="midnightblue" d="M233.673,-35.8879C254.286,-30.5956 278.109,-24.4787 297.422,-19.5201"/>
<polygon fill="midnightblue" stroke="midnightblue" points="232.662,-32.534 223.847,-38.411 234.403,-39.3141 232.662,-32.534"/>
</g>
<!-- Node8 -->
<g id="node8" class="node"><title>Node8</title>
<g id="a_node8"><a xlink:href="libdrm__util_8c.html#ae28fbf75d18faf2086044adc421c57fc" target="_top" xlink:title="report_property_value">
<polygon fill="white" stroke="black" points="446,-38.5 446,-57.5 559,-57.5 559,-38.5 446,-38.5"/>
<text text-anchor="middle" x="502.5" y="-45.5" font-family="Helvetica,sans-Serif" font-size="10.00">report_property_value</text>
</a>
</g>
</g>
<!-- Node7&#45;&gt;Node8 -->
<g id="edge7" class="edge"><title>Node7&#45;&gt;Node8</title>
<path fill="none" stroke="midnightblue" d="M420.339,-48C428.891,-48 437.424,-48 445.57,-48"/>
<polygon fill="midnightblue" stroke="midnightblue" points="420.313,-44.5001 410.313,-48 420.313,-51.5001 420.313,-44.5001"/>
</g>
<!-- Node9 -->
<g id="node9" class="node"><title>Node9</title>
<g id="a_node9"><a xlink:href="libdrm__util_8h.html#a296f38d851825b841915b5648ad491e4" target="_top" xlink:title="report_drmModeRes">
<polygon fill="white" stroke="black" points="595,-38.5 595,-57.5 704,-57.5 704,-38.5 595,-38.5"/>
<text text-anchor="middle" x="649.5" y="-45.5" font-family="Helvetica,sans-Serif" font-size="10.00">report_drmModeRes</text>
</a>
</g>
</g>
<!-- Node8&#45;&gt;Node9 -->
<g id="edge8" class="edge"><title>Node8&#45;&gt;Node9</title>
<path fill="none" stroke="midnightblue" d="M569.381,-48C577.846,-48 586.433,-48 594.675,-48"/>
<polygon fill="midnightblue" stroke="midnightblue" points="569.146,-44.5001 559.146,-48 569.146,-51.5001 569.146,-44.5001"/>
</g>
<!-- Node11 -->
<g id="node11" class="node"><title>Node11</title>
<g id="a_node11"><a xlink:href="edid_8h.html#a800e7d08fc3d103bd741bbf15c57b8fd" target="_top" xlink:title="report_parsed_edid">
<polygon fill="white" stroke="black" points="450.5,-0.5 450.5,-19.5 554.5,-19.5 554.5,-0.5 450.5,-0.5"/>
<text text-anchor="middle" x="502.5" y="-7.5" font-family="Helvetica,sans-Serif" font-size="10.00">report_parsed_edid</text>
</a>
</g>
</g>
<!-- Node10&#45;&gt;Node11 -->
<g id="edge10" class="edge"><title>Node10&#45;&gt;Node11</title>
<path fill="none" stroke="midnightblue" d="M412.072,-10C425.084,-10 438.326,-10 450.493,-10"/>
<polygon fill="midnightblue" stroke="midnightblue" points="411.712,-6.5001 401.712,-10 411.712,-13.5001 411.712,-6.5001"/>
</g>
</g>
</svg>
