<?xml version="1.0" encoding="UTF-8" standalone="no"?>
<!DOCTYPE svg PUBLIC "-//W3C//DTD SVG 1.1//EN"
 "http://www.w3.org/Graphics/SVG/1.1/DTD/svg11.dtd">
<!-- Generated by graphviz version 2.38.0 (20140413.2041)
 -->
<!-- Title: str_all_printable Pages: 1 -->
<svg width="389pt" height="28pt"
 viewBox="0.00 0.00 389.00 28.00" xmlns="http://www.w3.org/2000/svg" xmlns:xlink="http://www.w3.org/1999/xlink">
<g id="graph0" class="graph" transform="scale(1 1) rotate(0) translate(4 24)">
<title>str_all_printable</title>
<polygon fill="white" stroke="none" points="-4,4 -4,-24 385,-24 385,4 -4,4"/>
<!-- Node1 -->
<g id="node1" class="node"><title>Node1</title>
<polygon fill="#bfbfbf" stroke="black" points="0,-0.5 0,-19.5 86,-19.5 86,-0.5 0,-0.5"/>
<text text-anchor="middle" x="43" y="-7.5" font-family="Helvetica,sans-Serif" font-size="10.00">str_all_printable</text>
</g>
<!-- Node2 -->
<g id="node2" class="node"><title>Node2</title>
<g id="a_node2"><a xlink:href="subprocess__util_8h.html#a4f505ff76c75586edb55993623ea13e5" target="_top" xlink:title="execute_shell_cmd_rpt">
<polygon fill="white" stroke="black" points="122,-0.5 122,-19.5 241,-19.5 241,-0.5 122,-0.5"/>
<text text-anchor="middle" x="181.5" y="-7.5" font-family="Helvetica,sans-Serif" font-size="10.00">execute_shell_cmd_rpt</text>
</a>
</g>
</g>
<!-- Node1&#45;&gt;Node2 -->
<g id="edge1" class="edge"><title>Node1&#45;&gt;Node2</title>
<path fill="none" stroke="midnightblue" d="M96.0953,-10C104.486,-10 113.223,-10 121.758,-10"/>
<polygon fill="midnightblue" stroke="midnightblue" points="96.0683,-6.5001 86.0683,-10 96.0683,-13.5001 96.0683,-6.5001"/>
</g>
<!-- Node3 -->
<g id="node3" class="node"><title>Node3</title>
<g id="a_node3"><a xlink:href="subprocess__util_8h.html#a6813b8db4a5d194e2265b5ed5b7bf2df" target="_top" xlink:title="execute_shell_cmd">
<polygon fill="white" stroke="black" points="277,-0.5 277,-19.5 381,-19.5 381,-0.5 277,-0.5"/>
<text text-anchor="middle" x="329" y="-7.5" font-family="Helvetica,sans-Serif" font-size="10.00">execute_shell_cmd</text>
</a>
</g>
</g>
<!-- Node2&#45;&gt;Node3 -->
<g id="edge2" class="edge"><title>Node2&#45;&gt;Node3</title>
<path fill="none" stroke="midnightblue" d="M251.335,-10C259.971,-10 268.681,-10 276.975,-10"/>
<polygon fill="midnightblue" stroke="midnightblue" points="251.261,-6.5001 241.261,-10 251.261,-13.5001 251.261,-6.5001"/>
</g>
</g>
</svg>
