<?xml version="1.0" encoding="UTF-8" standalone="no"?>
<!DOCTYPE svg PUBLIC "-//W3C//DTD SVG 1.1//EN"
 "http://www.w3.org/Graphics/SVG/1.1/DTD/svg11.dtd">
<!-- Generated by graphviz version 2.38.0 (20140413.2041)
 -->
<!-- Title: str_ends_with Pages: 1 -->
<svg width="406pt" height="116pt"
 viewBox="0.00 0.00 406.00 115.50" xmlns="http://www.w3.org/2000/svg" xmlns:xlink="http://www.w3.org/1999/xlink">
<g id="graph0" class="graph" transform="scale(1 1) rotate(0) translate(4 111.5)">
<title>str_ends_with</title>
<polygon fill="white" stroke="none" points="-4,4 -4,-111.5 402,-111.5 402,4 -4,4"/>
<!-- Node1 -->
<g id="node1" class="node"><title>Node1</title>
<polygon fill="#bfbfbf" stroke="black" points="0,-38.5 0,-57.5 77,-57.5 77,-38.5 0,-38.5"/>
<text text-anchor="middle" x="38.5" y="-45.5" font-family="Helvetica,sans-Serif" font-size="10.00">str_ends_with</text>
</g>
<!-- Node2 -->
<g id="node2" class="node"><title>Node2</title>
<g id="a_node2"><a xlink:href="string__util_8h.html#af9857dad66f45390ebd3758ec510bcce" target="_top" xlink:title="any_one_byte_hex_string\l_to_byte_in_buf">
<polygon fill="white" stroke="black" points="116.5,-77 116.5,-107 247.5,-107 247.5,-77 116.5,-77"/>
<text text-anchor="start" x="124.5" y="-95" font-family="Helvetica,sans-Serif" font-size="10.00">any_one_byte_hex_string</text>
<text text-anchor="middle" x="182" y="-84" font-family="Helvetica,sans-Serif" font-size="10.00">_to_byte_in_buf</text>
</a>
</g>
</g>
<!-- Node1&#45;&gt;Node2 -->
<g id="edge1" class="edge"><title>Node1&#45;&gt;Node2</title>
<path fill="none" stroke="midnightblue" d="M80.0179,-60.5992C96.3994,-65.6931 115.444,-71.6151 132.551,-76.9346"/>
<polygon fill="midnightblue" stroke="midnightblue" points="80.7917,-57.1746 70.2034,-57.5473 78.7131,-63.8589 80.7917,-57.1746"/>
</g>
<!-- Node3 -->
<g id="node3" class="node"><title>Node3</title>
<g id="a_node3"><a xlink:href="subprocess__util_8h.html#a900726b5c6996b1c6008f375f642cbec" target="_top" xlink:title="execute_shell_cmd_collect">
<polygon fill="white" stroke="black" points="113,-38.5 113,-57.5 251,-57.5 251,-38.5 113,-38.5"/>
<text text-anchor="middle" x="182" y="-45.5" font-family="Helvetica,sans-Serif" font-size="10.00">execute_shell_cmd_collect</text>
</a>
</g>
</g>
<!-- Node1&#45;&gt;Node3 -->
<g id="edge2" class="edge"><title>Node1&#45;&gt;Node3</title>
<path fill="none" stroke="midnightblue" d="M87.2224,-48C95.4846,-48 104.217,-48 112.896,-48"/>
<polygon fill="midnightblue" stroke="midnightblue" points="87.0479,-44.5001 77.0479,-48 87.0479,-51.5001 87.0479,-44.5001"/>
</g>
<!-- Node5 -->
<g id="node5" class="node"><title>Node5</title>
<g id="a_node5"><a xlink:href="subprocess__util_8h.html#a4f505ff76c75586edb55993623ea13e5" target="_top" xlink:title="execute_shell_cmd_rpt">
<polygon fill="white" stroke="black" points="122.5,-0.5 122.5,-19.5 241.5,-19.5 241.5,-0.5 122.5,-0.5"/>
<text text-anchor="middle" x="182" y="-7.5" font-family="Helvetica,sans-Serif" font-size="10.00">execute_shell_cmd_rpt</text>
</a>
</g>
</g>
<!-- Node1&#45;&gt;Node5 -->
<g id="edge4" class="edge"><title>Node1&#45;&gt;Node5</title>
<path fill="none" stroke="midnightblue" d="M85.101,-35.7538C104.605,-30.516 127.04,-24.4909 145.305,-19.5859"/>
<polygon fill="midnightblue" stroke="midnightblue" points="83.9564,-32.4371 75.2064,-38.411 85.772,-39.1975 83.9564,-32.4371"/>
</g>
<!-- Node4 -->
<g id="node4" class="node"><title>Node4</title>
<g id="a_node4"><a xlink:href="subprocess__util_8h.html#aa94d57ae2daf75d06b4f38b6a5916155" target="_top" xlink:title="is_command_in_path">
<polygon fill="white" stroke="black" points="287,-38.5 287,-57.5 398,-57.5 398,-38.5 287,-38.5"/>
<text text-anchor="middle" x="342.5" y="-45.5" font-family="Helvetica,sans-Serif" font-size="10.00">is_command_in_path</text>
</a>
</g>
</g>
<!-- Node3&#45;&gt;Node4 -->
<g id="edge3" class="edge"><title>Node3&#45;&gt;Node4</title>
<path fill="none" stroke="midnightblue" d="M261.247,-48C269.886,-48 278.541,-48 286.801,-48"/>
<polygon fill="midnightblue" stroke="midnightblue" points="261.138,-44.5001 251.138,-48 261.138,-51.5001 261.138,-44.5001"/>
</g>
<!-- Node6 -->
<g id="node6" class="node"><title>Node6</title>
<g id="a_node6"><a xlink:href="subprocess__util_8h.html#a6813b8db4a5d194e2265b5ed5b7bf2df" target="_top" xlink:title="execute_shell_cmd">
<polygon fill="white" stroke="black" points="290.5,-0.5 290.5,-19.5 394.5,-19.5 394.5,-0.5 290.5,-0.5"/>
<text text-anchor="middle" x="342.5" y="-7.5" font-family="Helvetica,sans-Serif" font-size="10.00">execute_shell_cmd</text>
</a>
</g>
</g>
<!-- Node5&#45;&gt;Node6 -->
<g id="edge5" class="edge"><title>Node5&#45;&gt;Node6</title>
<path fill="none" stroke="midnightblue" d="M251.861,-10C264.829,-10 278.174,-10 290.475,-10"/>
<polygon fill="midnightblue" stroke="midnightblue" points="251.569,-6.5001 241.569,-10 251.569,-13.5001 251.569,-6.5001"/>
</g>
</g>
</svg>
