<?xml version="1.0" encoding="UTF-8" standalone="no"?>
<!DOCTYPE svg PUBLIC "-//W3C//DTD SVG 1.1//EN"
 "http://www.w3.org/Graphics/SVG/1.1/DTD/svg11.dtd">
<!-- Generated by graphviz version 2.38.0 (20140413.2041)
 -->
<!-- Title: starts_with_any Pages: 1 -->
<svg width="319pt" height="66pt"
 viewBox="0.00 0.00 319.00 66.00" xmlns="http://www.w3.org/2000/svg" xmlns:xlink="http://www.w3.org/1999/xlink">
<g id="graph0" class="graph" transform="scale(1 1) rotate(0) translate(4 62)">
<title>starts_with_any</title>
<polygon fill="white" stroke="none" points="-4,4 -4,-62 315,-62 315,4 -4,4"/>
<!-- Node1 -->
<g id="node1" class="node"><title>Node1</title>
<polygon fill="#bfbfbf" stroke="black" points="0,-19.5 0,-38.5 85,-38.5 85,-19.5 0,-19.5"/>
<text text-anchor="middle" x="42.5" y="-26.5" font-family="Helvetica,sans-Serif" font-size="10.00">starts_with_any</text>
</g>
<!-- Node2 -->
<g id="node2" class="node"><title>Node2</title>
<g id="a_node2"><a xlink:href="string__util_8c.html#aa1104d940ce4198abee7e2304c8689f2" target="_top" xlink:title="matches_by_func">
<polygon fill="white" stroke="black" points="121,-38.5 121,-57.5 215,-57.5 215,-38.5 121,-38.5"/>
<text text-anchor="middle" x="168" y="-45.5" font-family="Helvetica,sans-Serif" font-size="10.00">matches_by_func</text>
</a>
</g>
</g>
<!-- Node1&#45;&gt;Node2 -->
<g id="edge1" class="edge"><title>Node1&#45;&gt;Node2</title>
<path fill="none" stroke="midnightblue" d="M85.3115,-35.4325C93.56,-36.7015 102.34,-38.0524 110.97,-39.38"/>
<polygon fill="midnightblue" stroke="midnightblue" points="110.575,-42.8604 120.991,-40.9217 111.64,-35.9418 110.575,-42.8604"/>
</g>
<!-- Node3 -->
<g id="node3" class="node"><title>Node3</title>
<g id="a_node3"><a xlink:href="string__util_8c.html#a4dfc4ef4b6b3eefba2c4df04dbe7cde2" target="_top" xlink:title="str_starts_with">
<polygon fill="white" stroke="black" points="128.5,-0.5 128.5,-19.5 207.5,-19.5 207.5,-0.5 128.5,-0.5"/>
<text text-anchor="middle" x="168" y="-7.5" font-family="Helvetica,sans-Serif" font-size="10.00">str_starts_with</text>
</a>
</g>
</g>
<!-- Node1&#45;&gt;Node3 -->
<g id="edge2" class="edge"><title>Node1&#45;&gt;Node3</title>
<path fill="none" stroke="midnightblue" d="M85.3115,-22.5675C95.8113,-20.9521 107.173,-19.2042 117.989,-17.5402"/>
<polygon fill="midnightblue" stroke="midnightblue" points="118.795,-20.9575 128.146,-15.9775 117.73,-14.0388 118.795,-20.9575"/>
</g>
<!-- Node4 -->
<g id="node4" class="node"><title>Node4</title>
<g id="a_node4"><a xlink:href="string__util_8c.html#a826e3e282995992b9490f9f5830b9f60" target="_top" xlink:title="is_abbrev">
<polygon fill="white" stroke="black" points="251,-0.5 251,-19.5 311,-19.5 311,-0.5 251,-0.5"/>
<text text-anchor="middle" x="281" y="-7.5" font-family="Helvetica,sans-Serif" font-size="10.00">is_abbrev</text>
</a>
</g>
</g>
<!-- Node3&#45;&gt;Node4 -->
<g id="edge3" class="edge"><title>Node3&#45;&gt;Node4</title>
<path fill="none" stroke="midnightblue" d="M207.511,-10C218.124,-10 229.655,-10 240.333,-10"/>
<polygon fill="midnightblue" stroke="midnightblue" points="240.66,-13.5001 250.66,-10 240.66,-6.5001 240.66,-13.5001"/>
</g>
</g>
</svg>
