<?xml version="1.0" encoding="UTF-8" standalone="no"?>
<!DOCTYPE svg PUBLIC "-//W3C//DTD SVG 1.1//EN"
 "http://www.w3.org/Graphics/SVG/1.1/DTD/svg11.dtd">
<!-- Generated by graphviz version 2.38.0 (20140413.2041)
 -->
<!-- Title: str_starts_with Pages: 1 -->
<svg width="254pt" height="116pt"
 viewBox="0.00 0.00 254.00 115.50" xmlns="http://www.w3.org/2000/svg" xmlns:xlink="http://www.w3.org/1999/xlink">
<g id="graph0" class="graph" transform="scale(1 1) rotate(0) translate(4 111.5)">
<title>str_starts_with</title>
<polygon fill="white" stroke="none" points="-4,4 -4,-111.5 250,-111.5 250,4 -4,4"/>
<!-- Node1 -->
<g id="node1" class="node"><title>Node1</title>
<polygon fill="#bfbfbf" stroke="black" points="0,-38.5 0,-57.5 79,-57.5 79,-38.5 0,-38.5"/>
<text text-anchor="middle" x="39.5" y="-45.5" font-family="Helvetica,sans-Serif" font-size="10.00">str_starts_with</text>
</g>
<!-- Node2 -->
<g id="node2" class="node"><title>Node2</title>
<g id="a_node2"><a xlink:href="string__util_8h.html#af9857dad66f45390ebd3758ec510bcce" target="_top" xlink:title="any_one_byte_hex_string\l_to_byte_in_buf">
<polygon fill="white" stroke="black" points="115,-77 115,-107 246,-107 246,-77 115,-77"/>
<text text-anchor="start" x="123" y="-95" font-family="Helvetica,sans-Serif" font-size="10.00">any_one_byte_hex_string</text>
<text text-anchor="middle" x="180.5" y="-84" font-family="Helvetica,sans-Serif" font-size="10.00">_to_byte_in_buf</text>
</a>
</g>
</g>
<!-- Node1&#45;&gt;Node2 -->
<g id="edge1" class="edge"><title>Node1&#45;&gt;Node2</title>
<path fill="none" stroke="midnightblue" d="M80.302,-60.5992C96.3941,-65.6931 115.102,-71.6151 131.907,-76.9346"/>
<polygon fill="midnightblue" stroke="midnightblue" points="81.251,-57.2285 70.6609,-57.5473 79.1384,-63.9021 81.251,-57.2285"/>
</g>
<!-- Node3 -->
<g id="node3" class="node"><title>Node3</title>
<g id="a_node3"><a xlink:href="failsim_8h.html#a01bfaa175f646e99f9b0be7564f5514c" target="_top" xlink:title="fsim_report_error_table">
<polygon fill="white" stroke="black" points="121,-38.5 121,-57.5 240,-57.5 240,-38.5 121,-38.5"/>
<text text-anchor="middle" x="180.5" y="-45.5" font-family="Helvetica,sans-Serif" font-size="10.00">fsim_report_error_table</text>
</a>
</g>
</g>
<!-- Node1&#45;&gt;Node3 -->
<g id="edge2" class="edge"><title>Node1&#45;&gt;Node3</title>
<path fill="none" stroke="midnightblue" d="M89.5365,-48C99.6989,-48 110.502,-48 120.965,-48"/>
<polygon fill="midnightblue" stroke="midnightblue" points="89.2193,-44.5001 79.2192,-48 89.2192,-51.5001 89.2193,-44.5001"/>
</g>
<!-- Node4 -->
<g id="node4" class="node"><title>Node4</title>
<g id="a_node4"><a xlink:href="string__util_8h.html#aa71923771ea63db6b405f458fb530b1f" target="_top" xlink:title="starts_with_any">
<polygon fill="white" stroke="black" points="138,-0.5 138,-19.5 223,-19.5 223,-0.5 138,-0.5"/>
<text text-anchor="middle" x="180.5" y="-7.5" font-family="Helvetica,sans-Serif" font-size="10.00">starts_with_any</text>
</a>
</g>
</g>
<!-- Node1&#45;&gt;Node4 -->
<g id="edge3" class="edge"><title>Node1&#45;&gt;Node4</title>
<path fill="none" stroke="midnightblue" d="M85.2953,-35.7538C104.455,-30.516 126.494,-24.4909 144.436,-19.5859"/>
<polygon fill="midnightblue" stroke="midnightblue" points="84.2986,-32.3978 75.5756,-38.411 86.1446,-39.15 84.2986,-32.3978"/>
</g>
</g>
</svg>
