<?xml version="1.0" encoding="UTF-8" standalone="no"?>
<!DOCTYPE svg PUBLIC "-//W3C//DTD SVG 1.1//EN"
 "http://www.w3.org/Graphics/SVG/1.1/DTD/svg11.dtd">
<!-- Generated by graphviz version 2.38.0 (20140413.2041)
 -->
<!-- Title: hhs_to_byte_in_buf Pages: 1 -->
<svg width="564pt" height="97pt"
 viewBox="0.00 0.00 564.00 96.50" xmlns="http://www.w3.org/2000/svg" xmlns:xlink="http://www.w3.org/1999/xlink">
<g id="graph0" class="graph" transform="scale(1 1) rotate(0) translate(4 92.5)">
<title>hhs_to_byte_in_buf</title>
<polygon fill="white" stroke="none" points="-4,4 -4,-92.5 560,-92.5 560,4 -4,4"/>
<!-- Node1 -->
<g id="node1" class="node"><title>Node1</title>
<polygon fill="#bfbfbf" stroke="black" points="0,-41.5 0,-60.5 101,-60.5 101,-41.5 0,-41.5"/>
<text text-anchor="middle" x="50.5" y="-48.5" font-family="Helvetica,sans-Serif" font-size="10.00">hhs_to_byte_in_buf</text>
</g>
<!-- Node2 -->
<g id="node2" class="node"><title>Node2</title>
<g id="a_node2"><a xlink:href="string__util_8h.html#af9857dad66f45390ebd3758ec510bcce" target="_top" xlink:title="any_one_byte_hex_string\l_to_byte_in_buf">
<polygon fill="white" stroke="black" points="137,-58 137,-88 268,-88 268,-58 137,-58"/>
<text text-anchor="start" x="145" y="-76" font-family="Helvetica,sans-Serif" font-size="10.00">any_one_byte_hex_string</text>
<text text-anchor="middle" x="202.5" y="-65" font-family="Helvetica,sans-Serif" font-size="10.00">_to_byte_in_buf</text>
</a>
</g>
</g>
<!-- Node1&#45;&gt;Node2 -->
<g id="edge1" class="edge"><title>Node1&#45;&gt;Node2</title>
<path fill="none" stroke="midnightblue" d="M111.142,-59.7475C119.565,-60.9829 128.259,-62.258 136.773,-63.5066"/>
<polygon fill="midnightblue" stroke="midnightblue" points="111.433,-56.2529 101.031,-58.2646 110.418,-63.1788 111.433,-56.2529"/>
</g>
<!-- Node3 -->
<g id="node3" class="node"><title>Node3</title>
<g id="a_node3"><a xlink:href="string__util_8h.html#ae7967233afe364781627a6a8a0c56e03" target="_top" xlink:title="hhc_to_byte_in_buf">
<polygon fill="white" stroke="black" points="152,-19.5 152,-38.5 253,-38.5 253,-19.5 152,-19.5"/>
<text text-anchor="middle" x="202.5" y="-26.5" font-family="Helvetica,sans-Serif" font-size="10.00">hhc_to_byte_in_buf</text>
</a>
</g>
</g>
<!-- Node1&#45;&gt;Node3 -->
<g id="edge2" class="edge"><title>Node1&#45;&gt;Node3</title>
<path fill="none" stroke="midnightblue" d="M111.159,-42.2501C124.617,-40.2762 138.764,-38.2012 151.765,-36.2945"/>
<polygon fill="midnightblue" stroke="midnightblue" points="110.418,-38.8212 101.031,-43.7354 111.433,-45.7471 110.418,-38.8212"/>
</g>
<!-- Node4 -->
<g id="node4" class="node"><title>Node4</title>
<g id="a_node4"><a xlink:href="data__structures_8h.html#a3c57719d981d567e738f49a59dbaa153" target="_top" xlink:title="store_bytehex_list">
<polygon fill="white" stroke="black" points="304,-19.5 304,-38.5 401,-38.5 401,-19.5 304,-19.5"/>
<text text-anchor="middle" x="352.5" y="-26.5" font-family="Helvetica,sans-Serif" font-size="10.00">store_bytehex_list</text>
</a>
</g>
</g>
<!-- Node3&#45;&gt;Node4 -->
<g id="edge3" class="edge"><title>Node3&#45;&gt;Node4</title>
<path fill="none" stroke="midnightblue" d="M263.309,-29C276.743,-29 290.824,-29 303.693,-29"/>
<polygon fill="midnightblue" stroke="midnightblue" points="263.194,-25.5001 253.194,-29 263.194,-32.5001 263.194,-25.5001"/>
</g>
<!-- Node5 -->
<g id="node5" class="node"><title>Node5</title>
<g id="a_node5"><a xlink:href="data__structures_8h.html#a37a3e1dc85c052af4c898e5ac3bb3aff" target="_top" xlink:title="bbf_store_bytehex_list">
<polygon fill="white" stroke="black" points="439,-38.5 439,-57.5 554,-57.5 554,-38.5 439,-38.5"/>
<text text-anchor="middle" x="496.5" y="-45.5" font-family="Helvetica,sans-Serif" font-size="10.00">bbf_store_bytehex_list</text>
</a>
</g>
</g>
<!-- Node4&#45;&gt;Node5 -->
<g id="edge4" class="edge"><title>Node4&#45;&gt;Node5</title>
<path fill="none" stroke="midnightblue" d="M411.287,-36.7321C420.382,-37.9491 429.778,-39.2062 438.847,-40.4197"/>
<polygon fill="midnightblue" stroke="midnightblue" points="411.555,-33.2368 401.179,-35.3796 410.626,-40.175 411.555,-33.2368"/>
</g>
<!-- Node6 -->
<g id="node6" class="node"><title>Node6</title>
<g id="a_node6"><a xlink:href="data__structures_8h.html#a8dac43550584ffada601d6a0377d8d91" target="_top" xlink:title="bva_store_bytehex_list">
<polygon fill="white" stroke="black" points="437,-0.5 437,-19.5 556,-19.5 556,-0.5 437,-0.5"/>
<text text-anchor="middle" x="496.5" y="-7.5" font-family="Helvetica,sans-Serif" font-size="10.00">bva_store_bytehex_list</text>
</a>
</g>
</g>
<!-- Node4&#45;&gt;Node6 -->
<g id="edge5" class="edge"><title>Node4&#45;&gt;Node6</title>
<path fill="none" stroke="midnightblue" d="M411.295,-21.2669C419.72,-20.1395 428.403,-18.9778 436.845,-17.8482"/>
<polygon fill="midnightblue" stroke="midnightblue" points="410.626,-17.825 401.179,-22.6204 411.555,-24.7632 410.626,-17.825"/>
</g>
</g>
</svg>
