<?xml version="1.0" encoding="UTF-8" standalone="no"?>
<!DOCTYPE svg PUBLIC "-//W3C//DTD SVG 1.1//EN"
 "http://www.w3.org/Graphics/SVG/1.1/DTD/svg11.dtd">
<!-- Generated by graphviz version 2.38.0 (20140413.2041)
 -->
<!-- Title: streq Pages: 1 -->
<svg width="523pt" height="227pt"
 viewBox="0.00 0.00 523.00 227.00" xmlns="http://www.w3.org/2000/svg" xmlns:xlink="http://www.w3.org/1999/xlink">
<g id="graph0" class="graph" transform="scale(1 1) rotate(0) translate(4 223)">
<title>streq</title>
<polygon fill="white" stroke="none" points="-4,4 -4,-223 519,-223 519,4 -4,4"/>
<!-- Node1 -->
<g id="node1" class="node"><title>Node1</title>
<polygon fill="#bfbfbf" stroke="black" points="0,-123.5 0,-142.5 39,-142.5 39,-123.5 0,-123.5"/>
<text text-anchor="middle" x="19.5" y="-130.5" font-family="Helvetica,sans-Serif" font-size="10.00">streq</text>
</g>
<!-- Node2 -->
<g id="node2" class="node"><title>Node2</title>
<g id="a_node2"><a xlink:href="string__util_8h.html#a5c8f127a5c061b7718c175cde1ad989a" target="_top" xlink:title="exactly_matches_any">
<polygon fill="white" stroke="black" points="77.5,-199.5 77.5,-218.5 191.5,-218.5 191.5,-199.5 77.5,-199.5"/>
<text text-anchor="middle" x="134.5" y="-206.5" font-family="Helvetica,sans-Serif" font-size="10.00">exactly_matches_any</text>
</a>
</g>
</g>
<!-- Node1&#45;&gt;Node2 -->
<g id="edge1" class="edge"><title>Node1&#45;&gt;Node2</title>
<path fill="none" stroke="midnightblue" d="M33.6366,-150.856C43.7014,-163.395 58.6099,-179.703 75,-190 81.0582,-193.806 87.9524,-196.921 94.83,-199.447"/>
<polygon fill="midnightblue" stroke="midnightblue" points="36.3691,-148.668 27.4839,-142.897 30.8311,-152.95 36.3691,-148.668"/>
</g>
<!-- Node3 -->
<g id="node3" class="node"><title>Node3</title>
<g id="a_node3"><a xlink:href="failsim_8h.html#a01bfaa175f646e99f9b0be7564f5514c" target="_top" xlink:title="fsim_report_error_table">
<polygon fill="white" stroke="black" points="75,-161.5 75,-180.5 194,-180.5 194,-161.5 75,-161.5"/>
<text text-anchor="middle" x="134.5" y="-168.5" font-family="Helvetica,sans-Serif" font-size="10.00">fsim_report_error_table</text>
</a>
</g>
</g>
<!-- Node1&#45;&gt;Node3 -->
<g id="edge2" class="edge"><title>Node1&#45;&gt;Node3</title>
<path fill="none" stroke="midnightblue" d="M48.5891,-142.921C57.0638,-145.88 66.3997,-149.105 75,-152 84.3107,-155.135 94.4847,-158.47 103.699,-161.457"/>
<polygon fill="midnightblue" stroke="midnightblue" points="49.7266,-139.611 39.1317,-139.606 47.4109,-146.217 49.7266,-139.611"/>
</g>
<!-- Node4 -->
<g id="node4" class="node"><title>Node4</title>
<g id="a_node4"><a xlink:href="udev__util_8h.html#a25d919095c7730db7bd16fb6ebd92743" target="_top" xlink:title="report_udev_device">
<polygon fill="white" stroke="black" points="81.5,-123.5 81.5,-142.5 187.5,-142.5 187.5,-123.5 81.5,-123.5"/>
<text text-anchor="middle" x="134.5" y="-130.5" font-family="Helvetica,sans-Serif" font-size="10.00">report_udev_device</text>
</a>
</g>
</g>
<!-- Node1&#45;&gt;Node4 -->
<g id="edge3" class="edge"><title>Node1&#45;&gt;Node4</title>
<path fill="none" stroke="midnightblue" d="M49.407,-133C59.1016,-133 70.2327,-133 81.1555,-133"/>
<polygon fill="midnightblue" stroke="midnightblue" points="49.1597,-129.5 39.1597,-133 49.1596,-136.5 49.1597,-129.5"/>
</g>
<!-- Node6 -->
<g id="node6" class="node"><title>Node6</title>
<g id="a_node6"><a xlink:href="report__util_8h.html#af2a0616acf74f44d97d7d5ec2ffb6d05" target="_top" xlink:title="rpt_bytes_as_hex">
<polygon fill="white" stroke="black" points="87,-85.5 87,-104.5 182,-104.5 182,-85.5 87,-85.5"/>
<text text-anchor="middle" x="134.5" y="-92.5" font-family="Helvetica,sans-Serif" font-size="10.00">rpt_bytes_as_hex</text>
</a>
</g>
</g>
<!-- Node1&#45;&gt;Node6 -->
<g id="edge5" class="edge"><title>Node1&#45;&gt;Node6</title>
<path fill="none" stroke="midnightblue" d="M48.5891,-123.079C57.0638,-120.12 66.3997,-116.895 75,-114 84.3107,-110.865 94.4847,-107.53 103.699,-104.543"/>
<polygon fill="midnightblue" stroke="midnightblue" points="47.4109,-119.783 39.1317,-126.394 49.7266,-126.389 47.4109,-119.783"/>
</g>
<!-- Node7 -->
<g id="node7" class="node"><title>Node7</title>
<g id="a_node7"><a xlink:href="string__util_8h.html#a9bcfb60552d3439886acc9ae9149a216" target="_top" xlink:title="str_ends_with">
<polygon fill="white" stroke="black" points="96,-41.5 96,-60.5 173,-60.5 173,-41.5 96,-41.5"/>
<text text-anchor="middle" x="134.5" y="-48.5" font-family="Helvetica,sans-Serif" font-size="10.00">str_ends_with</text>
</a>
</g>
</g>
<!-- Node1&#45;&gt;Node7 -->
<g id="edge6" class="edge"><title>Node1&#45;&gt;Node7</title>
<path fill="none" stroke="midnightblue" d="M34.2203,-115.224C44.4179,-102.943 59.2417,-86.9164 75,-76 84.0791,-69.7105 94.9915,-64.52 104.92,-60.5296"/>
<polygon fill="midnightblue" stroke="midnightblue" points="31.203,-113.391 27.6653,-123.378 36.6586,-117.777 31.203,-113.391"/>
</g>
<!-- Node5 -->
<g id="node5" class="node"><title>Node5</title>
<g id="a_node5"><a xlink:href="udev__util_8h.html#a99b7881f22243d06502945cddebbe6ab" target="_top" xlink:title="probe_udev_subsystem">
<polygon fill="white" stroke="black" points="237.5,-126.5 237.5,-145.5 360.5,-145.5 360.5,-126.5 237.5,-126.5"/>
<text text-anchor="middle" x="299" y="-133.5" font-family="Helvetica,sans-Serif" font-size="10.00">probe_udev_subsystem</text>
</a>
</g>
</g>
<!-- Node4&#45;&gt;Node5 -->
<g id="edge4" class="edge"><title>Node4&#45;&gt;Node5</title>
<path fill="none" stroke="midnightblue" d="M197.988,-134.154C210.891,-134.392 224.462,-134.642 237.3,-134.879"/>
<polygon fill="midnightblue" stroke="midnightblue" points="197.873,-130.651 187.81,-133.966 197.744,-137.65 197.873,-130.651"/>
</g>
<!-- Node8 -->
<g id="node8" class="node"><title>Node8</title>
<g id="a_node8"><a xlink:href="string__util_8h.html#af9857dad66f45390ebd3758ec510bcce" target="_top" xlink:title="any_one_byte_hex_string\l_to_byte_in_buf">
<polygon fill="white" stroke="black" points="233.5,-77 233.5,-107 364.5,-107 364.5,-77 233.5,-77"/>
<text text-anchor="start" x="241.5" y="-95" font-family="Helvetica,sans-Serif" font-size="10.00">any_one_byte_hex_string</text>
<text text-anchor="middle" x="299" y="-84" font-family="Helvetica,sans-Serif" font-size="10.00">_to_byte_in_buf</text>
</a>
</g>
</g>
<!-- Node7&#45;&gt;Node8 -->
<g id="edge7" class="edge"><title>Node7&#45;&gt;Node8</title>
<path fill="none" stroke="midnightblue" d="M183.042,-62.9951C200.311,-67.3523 220.05,-72.3327 238.241,-76.9223"/>
<polygon fill="midnightblue" stroke="midnightblue" points="183.742,-59.5621 173.189,-60.5093 182.029,-66.3494 183.742,-59.5621"/>
</g>
<!-- Node9 -->
<g id="node9" class="node"><title>Node9</title>
<g id="a_node9"><a xlink:href="subprocess__util_8h.html#a900726b5c6996b1c6008f375f642cbec" target="_top" xlink:title="execute_shell_cmd_collect">
<polygon fill="white" stroke="black" points="230,-38.5 230,-57.5 368,-57.5 368,-38.5 230,-38.5"/>
<text text-anchor="middle" x="299" y="-45.5" font-family="Helvetica,sans-Serif" font-size="10.00">execute_shell_cmd_collect</text>
</a>
</g>
</g>
<!-- Node7&#45;&gt;Node9 -->
<g id="edge8" class="edge"><title>Node7&#45;&gt;Node9</title>
<path fill="none" stroke="midnightblue" d="M183.451,-50.1148C198.009,-49.846 214.292,-49.5454 229.909,-49.2571"/>
<polygon fill="midnightblue" stroke="midnightblue" points="183.123,-46.6201 173.189,-50.3042 183.252,-53.6189 183.123,-46.6201"/>
</g>
<!-- Node11 -->
<g id="node11" class="node"><title>Node11</title>
<g id="a_node11"><a xlink:href="subprocess__util_8h.html#a4f505ff76c75586edb55993623ea13e5" target="_top" xlink:title="execute_shell_cmd_rpt">
<polygon fill="white" stroke="black" points="239.5,-0.5 239.5,-19.5 358.5,-19.5 358.5,-0.5 239.5,-0.5"/>
<text text-anchor="middle" x="299" y="-7.5" font-family="Helvetica,sans-Serif" font-size="10.00">execute_shell_cmd_rpt</text>
</a>
</g>
</g>
<!-- Node7&#45;&gt;Node11 -->
<g id="edge10" class="edge"><title>Node7&#45;&gt;Node11</title>
<path fill="none" stroke="midnightblue" d="M183.038,-39.0058C207.629,-32.8013 237.228,-25.3331 260.234,-19.5286"/>
<polygon fill="midnightblue" stroke="midnightblue" points="182.029,-35.6506 173.189,-41.4907 183.742,-42.4379 182.029,-35.6506"/>
</g>
<!-- Node10 -->
<g id="node10" class="node"><title>Node10</title>
<g id="a_node10"><a xlink:href="subprocess__util_8h.html#aa94d57ae2daf75d06b4f38b6a5916155" target="_top" xlink:title="is_command_in_path">
<polygon fill="white" stroke="black" points="404,-38.5 404,-57.5 515,-57.5 515,-38.5 404,-38.5"/>
<text text-anchor="middle" x="459.5" y="-45.5" font-family="Helvetica,sans-Serif" font-size="10.00">is_command_in_path</text>
</a>
</g>
</g>
<!-- Node9&#45;&gt;Node10 -->
<g id="edge9" class="edge"><title>Node9&#45;&gt;Node10</title>
<path fill="none" stroke="midnightblue" d="M378.247,-48C386.886,-48 395.541,-48 403.801,-48"/>
<polygon fill="midnightblue" stroke="midnightblue" points="378.138,-44.5001 368.138,-48 378.138,-51.5001 378.138,-44.5001"/>
</g>
<!-- Node12 -->
<g id="node12" class="node"><title>Node12</title>
<g id="a_node12"><a xlink:href="subprocess__util_8h.html#a6813b8db4a5d194e2265b5ed5b7bf2df" target="_top" xlink:title="execute_shell_cmd">
<polygon fill="white" stroke="black" points="407.5,-0.5 407.5,-19.5 511.5,-19.5 511.5,-0.5 407.5,-0.5"/>
<text text-anchor="middle" x="459.5" y="-7.5" font-family="Helvetica,sans-Serif" font-size="10.00">execute_shell_cmd</text>
</a>
</g>
</g>
<!-- Node11&#45;&gt;Node12 -->
<g id="edge11" class="edge"><title>Node11&#45;&gt;Node12</title>
<path fill="none" stroke="midnightblue" d="M368.861,-10C381.829,-10 395.174,-10 407.475,-10"/>
<polygon fill="midnightblue" stroke="midnightblue" points="368.569,-6.5001 358.569,-10 368.569,-13.5001 368.569,-6.5001"/>
</g>
</g>
</svg>
