<?xml version="1.0" encoding="UTF-8" standalone="no"?>
<!DOCTYPE svg PUBLIC "-//W3C//DTD SVG 1.1//EN"
 "http://www.w3.org/Graphics/SVG/1.1/DTD/svg11.dtd">
<!-- Generated by graphviz version 2.38.0 (20140413.2041)
 -->
<!-- Title: fhex_dump Pages: 1 -->
<svg width="292pt" height="66pt"
 viewBox="0.00 0.00 292.00 66.00" xmlns="http://www.w3.org/2000/svg" xmlns:xlink="http://www.w3.org/1999/xlink">
<g id="graph0" class="graph" transform="scale(1 1) rotate(0) translate(4 62)">
<title>fhex_dump</title>
<polygon fill="white" stroke="none" points="-4,4 -4,-62 288,-62 288,4 -4,4"/>
<!-- Node1 -->
<g id="node1" class="node"><title>Node1</title>
<polygon fill="#bfbfbf" stroke="black" points="0,-19.5 0,-38.5 65,-38.5 65,-19.5 0,-19.5"/>
<text text-anchor="middle" x="32.5" y="-26.5" font-family="Helvetica,sans-Serif" font-size="10.00">fhex_dump</text>
</g>
<!-- Node2 -->
<g id="node2" class="node"><title>Node2</title>
<g id="a_node2"><a xlink:href="string__util_8h.html#a33e2d73bb666582588322cc497a23408" target="_top" xlink:title="hex_dump">
<polygon fill="white" stroke="black" points="101,-19.5 101,-38.5 164,-38.5 164,-19.5 101,-19.5"/>
<text text-anchor="middle" x="132.5" y="-26.5" font-family="Helvetica,sans-Serif" font-size="10.00">hex_dump</text>
</a>
</g>
</g>
<!-- Node1&#45;&gt;Node2 -->
<g id="edge1" class="edge"><title>Node1&#45;&gt;Node2</title>
<path fill="none" stroke="midnightblue" d="M75.2385,-29C83.7745,-29 92.6113,-29 100.681,-29"/>
<polygon fill="midnightblue" stroke="midnightblue" points="75.0473,-25.5001 65.0473,-29 75.0472,-32.5001 75.0473,-25.5001"/>
</g>
<!-- Node3 -->
<g id="node3" class="node"><title>Node3</title>
<g id="a_node3"><a xlink:href="data__structures_8h.html#a0080933f66a37532d3e2a161e5a8fe53" target="_top" xlink:title="buffer_dump">
<polygon fill="white" stroke="black" points="206.5,-38.5 206.5,-57.5 277.5,-57.5 277.5,-38.5 206.5,-38.5"/>
<text text-anchor="middle" x="242" y="-45.5" font-family="Helvetica,sans-Serif" font-size="10.00">buffer_dump</text>
</a>
</g>
</g>
<!-- Node2&#45;&gt;Node3 -->
<g id="edge2" class="edge"><title>Node2&#45;&gt;Node3</title>
<path fill="none" stroke="midnightblue" d="M173.925,-36.1448C184.557,-38.024 195.931,-40.0343 206.237,-41.8558"/>
<polygon fill="midnightblue" stroke="midnightblue" points="174.474,-32.6878 164.018,-34.3938 173.256,-39.5809 174.474,-32.6878"/>
</g>
<!-- Node4 -->
<g id="node4" class="node"><title>Node4</title>
<g id="a_node4"><a xlink:href="x11__util_8h.html#a237230b15259a8de9872c0bb8f0bab36" target="_top" xlink:title="get_x11_edids">
<polygon fill="white" stroke="black" points="200,-0.5 200,-19.5 284,-19.5 284,-0.5 200,-0.5"/>
<text text-anchor="middle" x="242" y="-7.5" font-family="Helvetica,sans-Serif" font-size="10.00">get_x11_edids</text>
</a>
</g>
</g>
<!-- Node2&#45;&gt;Node4 -->
<g id="edge3" class="edge"><title>Node2&#45;&gt;Node4</title>
<path fill="none" stroke="midnightblue" d="M174.061,-21.831C182.535,-20.3333 191.475,-18.7533 199.966,-17.2525"/>
<polygon fill="midnightblue" stroke="midnightblue" points="173.256,-18.4191 164.018,-23.6062 174.474,-25.3122 173.256,-18.4191"/>
</g>
</g>
</svg>
