<?xml version="1.0" encoding="UTF-8" standalone="no"?>
<!DOCTYPE svg PUBLIC "-//W3C//DTD SVG 1.1//EN"
 "http://www.w3.org/Graphics/SVG/1.1/DTD/svg11.dtd">
<!-- Generated by graphviz version 2.38.0 (20140413.2041)
 -->
<!-- Title: strsplit Pages: 1 -->
<svg width="367pt" height="78pt"
 viewBox="0.00 0.00 367.00 77.50" xmlns="http://www.w3.org/2000/svg" xmlns:xlink="http://www.w3.org/1999/xlink">
<g id="graph0" class="graph" transform="scale(1 1) rotate(0) translate(4 73.5)">
<title>strsplit</title>
<polygon fill="white" stroke="none" points="-4,4 -4,-73.5 363,-73.5 363,4 -4,4"/>
<!-- Node1 -->
<g id="node1" class="node"><title>Node1</title>
<polygon fill="#bfbfbf" stroke="black" points="0,-22.5 0,-41.5 44,-41.5 44,-22.5 0,-22.5"/>
<text text-anchor="middle" x="22" y="-29.5" font-family="Helvetica,sans-Serif" font-size="10.00">strsplit</text>
</g>
<!-- Node2 -->
<g id="node2" class="node"><title>Node2</title>
<g id="a_node2"><a xlink:href="failsim_8h.html#a47679d378ef8cd71ccbdaf2470d37f21" target="_top" xlink:title="fsim_load_control_from\l_gptrarray">
<polygon fill="white" stroke="black" points="80,-39 80,-69 200,-69 200,-39 80,-39"/>
<text text-anchor="start" x="88" y="-57" font-family="Helvetica,sans-Serif" font-size="10.00">fsim_load_control_from</text>
<text text-anchor="middle" x="140" y="-46" font-family="Helvetica,sans-Serif" font-size="10.00">_gptrarray</text>
</a>
</g>
</g>
<!-- Node1&#45;&gt;Node2 -->
<g id="edge1" class="edge"><title>Node1&#45;&gt;Node2</title>
<path fill="none" stroke="midnightblue" d="M53.9723,-37.874C61.9971,-39.396 70.911,-41.0866 79.8611,-42.784"/>
<polygon fill="midnightblue" stroke="midnightblue" points="54.4838,-34.4087 44.0067,-35.984 53.1794,-41.2862 54.4838,-34.4087"/>
</g>
<!-- Node4 -->
<g id="node4" class="node"><title>Node4</title>
<g id="a_node4"><a xlink:href="udev__util_8h.html#a25d919095c7730db7bd16fb6ebd92743" target="_top" xlink:title="report_udev_device">
<polygon fill="white" stroke="black" points="87,-0.5 87,-19.5 193,-19.5 193,-0.5 87,-0.5"/>
<text text-anchor="middle" x="140" y="-7.5" font-family="Helvetica,sans-Serif" font-size="10.00">report_udev_device</text>
</a>
</g>
</g>
<!-- Node1&#45;&gt;Node4 -->
<g id="edge3" class="edge"><title>Node1&#45;&gt;Node4</title>
<path fill="none" stroke="midnightblue" d="M54.0763,-26.1062C64.74,-24.0838 76.9642,-21.7654 88.7532,-19.5296"/>
<polygon fill="midnightblue" stroke="midnightblue" points="53.1794,-22.7138 44.0067,-28.016 54.4838,-29.5913 53.1794,-22.7138"/>
</g>
<!-- Node3 -->
<g id="node3" class="node"><title>Node3</title>
<g id="a_node3"><a xlink:href="failsim_8h.html#a0956766f1ad629bfade7cb1725c57ebe" target="_top" xlink:title="fsim_load_control_file">
<polygon fill="white" stroke="black" points="241,-44.5 241,-63.5 354,-63.5 354,-44.5 241,-44.5"/>
<text text-anchor="middle" x="297.5" y="-51.5" font-family="Helvetica,sans-Serif" font-size="10.00">fsim_load_control_file</text>
</a>
</g>
</g>
<!-- Node2&#45;&gt;Node3 -->
<g id="edge2" class="edge"><title>Node2&#45;&gt;Node3</title>
<path fill="none" stroke="midnightblue" d="M210.327,-54C220.513,-54 230.895,-54 240.762,-54"/>
<polygon fill="midnightblue" stroke="midnightblue" points="210.232,-50.5001 200.231,-54 210.231,-57.5001 210.232,-50.5001"/>
</g>
<!-- Node5 -->
<g id="node5" class="node"><title>Node5</title>
<g id="a_node5"><a xlink:href="udev__util_8h.html#a99b7881f22243d06502945cddebbe6ab" target="_top" xlink:title="probe_udev_subsystem">
<polygon fill="white" stroke="black" points="236,-0.5 236,-19.5 359,-19.5 359,-0.5 236,-0.5"/>
<text text-anchor="middle" x="297.5" y="-7.5" font-family="Helvetica,sans-Serif" font-size="10.00">probe_udev_subsystem</text>
</a>
</g>
</g>
<!-- Node4&#45;&gt;Node5 -->
<g id="edge4" class="edge"><title>Node4&#45;&gt;Node5</title>
<path fill="none" stroke="midnightblue" d="M203.329,-10C214.04,-10 225.158,-10 235.826,-10"/>
<polygon fill="midnightblue" stroke="midnightblue" points="203.212,-6.5001 193.212,-10 203.212,-13.5001 203.212,-6.5001"/>
</g>
</g>
</svg>
