<?xml version="1.0" encoding="UTF-8" standalone="no"?>
<!DOCTYPE svg PUBLIC "-//W3C//DTD SVG 1.1//EN"
 "http://www.w3.org/Graphics/SVG/1.1/DTD/svg11.dtd">
<!-- Generated by graphviz version 2.38.0 (20140413.2041)
 -->
<!-- Title: string_util.h Pages: 1 -->
<!--zoomable 84 -->
<svg id="main" version="1.1" xmlns="http://www.w3.org/2000/svg" xmlns:xlink="http://www.w3.org/1999/xlink" xml:space="preserve" onload="init(evt)">
<style type="text/css"><![CDATA[
.edge:hover path { stroke: red; }
.edge:hover polygon { stroke: red; fill: red; }
]]></style>
<script type="text/javascript"><![CDATA[
var edges = document.getElementsByTagName('g');
if (edges && edges.length) {
  for (var i=0;i<edges.length;i++) {
    if (edges[i].id.substr(0,4)=='edge') {
      edges[i].setAttribute('class','edge');
    }
  }
}
]]></script>
        <defs>
                <circle id="rim" cx="0" cy="0" r="7"/>
                <circle id="rim2" cx="0" cy="0" r="3.5"/>
                <g id="zoomPlus">
                        <use xlink:href="#rim" fill="#404040">
                                <set attributeName="fill" to="#808080" begin="zoomplus.mouseover" end="zoomplus.mouseout"/>
                        </use>
                        <path d="M-4,0h8M0,-4v8" fill="none" stroke="white" stroke-width="1.5" pointer-events="none"/>
                </g>
                <g id="zoomMin">
                        <use xlink:href="#rim" fill="#404040">
                                <set attributeName="fill" to="#808080" begin="zoomminus.mouseover" end="zoomminus.mouseout"/>
                        </use>
                        <path d="M-4,0h8" fill="none" stroke="white" stroke-width="1.5" pointer-events="none"/>
                </g>
                <g id="dirArrow">
                        <path fill="none" stroke="white" stroke-width="1.5" d="M0,-3.0v7 M-2.5,-0.5L0,-3.0L2.5,-0.5"/>
                </g>
               <g id="resetDef">
                       <use xlink:href="#rim2" fill="#404040">
                               <set attributeName="fill" to="#808080" begin="reset.mouseover" end="reset.mouseout"/>
                       </use>
               </g>
        </defs>

<script type="text/javascript">
var viewWidth = 1040;
var viewHeight = 84;
var sectionId = 'dynsection-1';
</script>
<script xlink:href="svgpan.js"/>
<svg id="graph" class="graph">
<g id="viewport">
<title>string_util.h</title>
<polygon fill="white" stroke="none" points="-4,4 -4,-80 1035.5,-80 1035.5,4 -4,4"/>
<!-- Node1 -->
<g id="node1" class="node"><title>Node1</title>
<polygon fill="#bfbfbf" stroke="black" points="477.5,-56.5 477.5,-75.5 542.5,-75.5 542.5,-56.5 477.5,-56.5"/>
<text text-anchor="middle" x="510" y="-63.5" font-family="Helvetica,sans-Serif" font-size="10.00">string_util.h</text>
</g>
<!-- Node2 -->
<g id="node2" class="node"><title>Node2</title>
<g id="a_node2"><a xlink:href="data__structures_8c.html" target="_top" xlink:title="data_structures.c">
<polygon fill="white" stroke="black" points="0,-0.5 0,-19.5 92,-19.5 92,-0.5 0,-0.5"/>
<text text-anchor="middle" x="46" y="-7.5" font-family="Helvetica,sans-Serif" font-size="10.00">data_structures.c</text>
</a>
</g>
</g>
<!-- Node1&#45;&gt;Node2 -->
<g id="edge1" class="edge"><title>Node1&#45;&gt;Node2</title>
<path fill="none" stroke="midnightblue" d="M466.927,-61.0131C392.271,-53.935 234.063,-38.1943 101,-20 98.1241,-19.6068 95.1669,-19.1821 92.187,-18.7388"/>
<polygon fill="midnightblue" stroke="midnightblue" points="467.038,-64.5391 477.323,-61.9939 467.696,-57.57 467.038,-64.5391"/>
</g>
<!-- Node3 -->
<g id="node3" class="node"><title>Node3</title>
<g id="a_node3"><a xlink:href="device__id__util_8c.html" target="_top" xlink:title="device_id_util.c">
<polygon fill="white" stroke="black" points="110,-0.5 110,-19.5 196,-19.5 196,-0.5 110,-0.5"/>
<text text-anchor="middle" x="153" y="-7.5" font-family="Helvetica,sans-Serif" font-size="10.00">device_id_util.c</text>
</a>
</g>
</g>
<!-- Node1&#45;&gt;Node3 -->
<g id="edge2" class="edge"><title>Node1&#45;&gt;Node3</title>
<path fill="none" stroke="midnightblue" d="M467.395,-59.0554C408.388,-50.7444 298.481,-34.9835 205,-20 202.105,-19.536 199.121,-19.0474 196.116,-18.5475"/>
<polygon fill="midnightblue" stroke="midnightblue" points="467.069,-62.5439 477.459,-60.4701 468.044,-55.612 467.069,-62.5439"/>
</g>
<!-- Node4 -->
<g id="node4" class="node"><title>Node4</title>
<g id="a_node4"><a xlink:href="edid_8c.html" target="_top" xlink:title="edid.c">
<polygon fill="white" stroke="black" points="214,-0.5 214,-19.5 258,-19.5 258,-0.5 214,-0.5"/>
<text text-anchor="middle" x="236" y="-7.5" font-family="Helvetica,sans-Serif" font-size="10.00">edid.c</text>
</a>
</g>
</g>
<!-- Node1&#45;&gt;Node4 -->
<g id="edge3" class="edge"><title>Node1&#45;&gt;Node4</title>
<path fill="none" stroke="midnightblue" d="M467.28,-58.4098C418.537,-50.5853 336.57,-36.4974 267,-20 264.164,-19.3276 261.202,-18.557 258.281,-17.7559"/>
<polygon fill="midnightblue" stroke="midnightblue" points="466.735,-61.867 477.161,-59.9831 467.836,-54.9541 466.735,-61.867"/>
</g>
<!-- Node5 -->
<g id="node5" class="node"><title>Node5</title>
<g id="a_node5"><a xlink:href="failsim_8c.html" target="_top" xlink:title="failsim.c">
<polygon fill="white" stroke="black" points="276.5,-0.5 276.5,-19.5 329.5,-19.5 329.5,-0.5 276.5,-0.5"/>
<text text-anchor="middle" x="303" y="-7.5" font-family="Helvetica,sans-Serif" font-size="10.00">failsim.c</text>
</a>
</g>
</g>
<!-- Node1&#45;&gt;Node5 -->
<g id="edge4" class="edge"><title>Node1&#45;&gt;Node5</title>
<path fill="none" stroke="midnightblue" d="M467.411,-53.8899C426.071,-43.1055 364.605,-27.0709 329.722,-17.971"/>
<polygon fill="midnightblue" stroke="midnightblue" points="466.641,-57.3059 477.2,-56.4435 468.408,-50.5326 466.641,-57.3059"/>
</g>
<!-- Node6 -->
<g id="node6" class="node"><title>Node6</title>
<g id="a_node6"><a xlink:href="file__util_8c.html" target="_top" xlink:title="file_util.c">
<polygon fill="white" stroke="black" points="348,-0.5 348,-19.5 402,-19.5 402,-0.5 348,-0.5"/>
<text text-anchor="middle" x="375" y="-7.5" font-family="Helvetica,sans-Serif" font-size="10.00">file_util.c</text>
</a>
</g>
</g>
<!-- Node1&#45;&gt;Node6 -->
<g id="edge5" class="edge"><title>Node1&#45;&gt;Node6</title>
<path fill="none" stroke="midnightblue" d="M479.094,-52.6377C453.76,-42.504 418.569,-28.4274 396.291,-19.5164"/>
<polygon fill="midnightblue" stroke="midnightblue" points="478.024,-55.9792 488.609,-56.4435 480.624,-49.4799 478.024,-55.9792"/>
</g>
<!-- Node7 -->
<g id="node7" class="node"><title>Node7</title>
<g id="a_node7"><a xlink:href="glib__string__util_8c.html" target="_top" xlink:title="glib_string_util.c">
<polygon fill="white" stroke="black" points="420,-0.5 420,-19.5 506,-19.5 506,-0.5 420,-0.5"/>
<text text-anchor="middle" x="463" y="-7.5" font-family="Helvetica,sans-Serif" font-size="10.00">glib_string_util.c</text>
</a>
</g>
</g>
<!-- Node1&#45;&gt;Node7 -->
<g id="edge6" class="edge"><title>Node1&#45;&gt;Node7</title>
<path fill="none" stroke="midnightblue" d="M495.579,-48.4314C487.342,-38.9673 477.346,-27.4827 470.617,-19.7511"/>
<polygon fill="midnightblue" stroke="midnightblue" points="493.034,-50.8378 502.239,-56.083 498.314,-46.2421 493.034,-50.8378"/>
</g>
<!-- Node8 -->
<g id="node8" class="node"><title>Node8</title>
<g id="a_node8"><a xlink:href="libdrm__util_8c.html" target="_top" xlink:title="libdrm_util.c">
<polygon fill="white" stroke="black" points="524,-0.5 524,-19.5 592,-19.5 592,-0.5 524,-0.5"/>
<text text-anchor="middle" x="558" y="-7.5" font-family="Helvetica,sans-Serif" font-size="10.00">libdrm_util.c</text>
</a>
</g>
</g>
<!-- Node1&#45;&gt;Node8 -->
<g id="edge7" class="edge"><title>Node1&#45;&gt;Node8</title>
<path fill="none" stroke="midnightblue" d="M524.728,-48.4314C533.14,-38.9673 543.349,-27.4827 550.221,-19.7511"/>
<polygon fill="midnightblue" stroke="midnightblue" points="521.954,-46.2836 517.926,-56.083 527.186,-50.9342 521.954,-46.2836"/>
</g>
<!-- Node9 -->
<g id="node9" class="node"><title>Node9</title>
<g id="a_node9"><a xlink:href="report__util_8c.html" target="_top" xlink:title="report_util.c">
<polygon fill="white" stroke="black" points="610.5,-0.5 610.5,-19.5 677.5,-19.5 677.5,-0.5 610.5,-0.5"/>
<text text-anchor="middle" x="644" y="-7.5" font-family="Helvetica,sans-Serif" font-size="10.00">report_util.c</text>
</a>
</g>
</g>
<!-- Node1&#45;&gt;Node9 -->
<g id="edge8" class="edge"><title>Node1&#45;&gt;Node9</title>
<path fill="none" stroke="midnightblue" d="M540.677,-52.6377C565.823,-42.504 600.754,-28.4274 622.867,-19.5164"/>
<polygon fill="midnightblue" stroke="midnightblue" points="539.2,-49.4594 531.233,-56.4435 541.816,-55.952 539.2,-49.4594"/>
</g>
<!-- Node10 -->
<g id="node10" class="node"><title>Node10</title>
<g id="a_node10"><a xlink:href="string__util_8c.html" target="_top" xlink:title="string_util.c">
<polygon fill="white" stroke="black" points="695.5,-0.5 695.5,-19.5 760.5,-19.5 760.5,-0.5 695.5,-0.5"/>
<text text-anchor="middle" x="728" y="-7.5" font-family="Helvetica,sans-Serif" font-size="10.00">string_util.c</text>
</a>
</g>
</g>
<!-- Node1&#45;&gt;Node10 -->
<g id="edge9" class="edge"><title>Node1&#45;&gt;Node10</title>
<path fill="none" stroke="midnightblue" d="M552.539,-54.4628C594.422,-44.0882 657.478,-28.4687 695.497,-19.0513"/>
<polygon fill="midnightblue" stroke="midnightblue" points="551.502,-51.1139 542.637,-56.9157 553.185,-57.9085 551.502,-51.1139"/>
</g>
<!-- Node11 -->
<g id="node11" class="node"><title>Node11</title>
<g id="a_node11"><a xlink:href="subprocess__util_8c.html" target="_top" xlink:title="subprocess_util.c">
<polygon fill="white" stroke="black" points="778.5,-0.5 778.5,-19.5 871.5,-19.5 871.5,-0.5 778.5,-0.5"/>
<text text-anchor="middle" x="825" y="-7.5" font-family="Helvetica,sans-Serif" font-size="10.00">subprocess_util.c</text>
</a>
</g>
</g>
<!-- Node1&#45;&gt;Node11 -->
<g id="edge10" class="edge"><title>Node1&#45;&gt;Node11</title>
<path fill="none" stroke="midnightblue" d="M552.608,-57.6957C611.528,-47.5951 717.494,-29.4295 778.439,-18.982"/>
<polygon fill="midnightblue" stroke="midnightblue" points="551.789,-54.285 542.524,-59.4244 552.972,-61.1844 551.789,-54.285"/>
</g>
<!-- Node12 -->
<g id="node12" class="node"><title>Node12</title>
<g id="a_node12"><a xlink:href="udev__util_8c.html" target="_top" xlink:title="udev_util.c">
<polygon fill="white" stroke="black" points="890,-0.5 890,-19.5 954,-19.5 954,-0.5 890,-0.5"/>
<text text-anchor="middle" x="922" y="-7.5" font-family="Helvetica,sans-Serif" font-size="10.00">udev_util.c</text>
</a>
</g>
</g>
<!-- Node1&#45;&gt;Node12 -->
<g id="edge11" class="edge"><title>Node1&#45;&gt;Node12</title>
<path fill="none" stroke="midnightblue" d="M553.007,-61.1279C622.334,-54.5849 762.969,-40.0658 881,-20 883.874,-19.5114 886.85,-18.9558 889.828,-18.3661"/>
<polygon fill="midnightblue" stroke="midnightblue" points="552.538,-57.6565 542.907,-62.0722 553.189,-64.6261 552.538,-57.6565"/>
</g>
<!-- Node13 -->
<g id="node13" class="node"><title>Node13</title>
<g id="a_node13"><a xlink:href="x11__util_8c.html" target="_top" xlink:title="x11_util.c">
<polygon fill="white" stroke="black" points="972.5,-0.5 972.5,-19.5 1031.5,-19.5 1031.5,-0.5 972.5,-0.5"/>
<text text-anchor="middle" x="1002" y="-7.5" font-family="Helvetica,sans-Serif" font-size="10.00">x11_util.c</text>
</a>
</g>
</g>
<!-- Node1&#45;&gt;Node13 -->
<g id="edge12" class="edge"><title>Node1&#45;&gt;Node13</title>
<path fill="none" stroke="midnightblue" d="M552.851,-62.5743C633.536,-57.6022 813.356,-44.5959 963,-20 966.017,-19.5041 969.149,-18.9128 972.267,-18.2736"/>
<polygon fill="midnightblue" stroke="midnightblue" points="552.365,-59.0973 542.595,-63.1957 552.788,-66.0845 552.365,-59.0973"/>
</g>
</g>
</svg>
        <g id="navigator" transform="translate(0 0)" fill="#404254">
                <rect fill="#f2f5e9" fill-opacity="0.5" stroke="#606060" stroke-width=".5" x="0" y="0" width="60" height="60"/>
                <use id="zoomplus" xlink:href="#zoomPlus" x="17" y="9" onmousedown="handleZoom(evt,'in')"/>
                <use id="zoomminus" xlink:href="#zoomMin" x="42" y="9" onmousedown="handleZoom(evt,'out')"/>
                <use id="reset" xlink:href="#resetDef" x="30" y="36" onmousedown="handleReset()"/>
                <g id="arrowUp" xlink:href="#dirArrow" transform="translate(30 24)" onmousedown="handlePan(0,-1)">
                  <use xlink:href="#rim" fill="#404040">
                        <set attributeName="fill" to="#808080" begin="arrowUp.mouseover" end="arrowUp.mouseout"/>
                  </use>
                  <path fill="none" stroke="white" stroke-width="1.5" d="M0,-3.0v7 M-2.5,-0.5L0,-3.0L2.5,-0.5"/>
                </g>
                <g id="arrowRight" xlink:href="#dirArrow" transform="rotate(90) translate(36 -43)" onmousedown="handlePan(1,0)">
                  <use xlink:href="#rim" fill="#404040">
                        <set attributeName="fill" to="#808080" begin="arrowRight.mouseover" end="arrowRight.mouseout"/>
                  </use>
                  <path fill="none" stroke="white" stroke-width="1.5" d="M0,-3.0v7 M-2.5,-0.5L0,-3.0L2.5,-0.5"/>
                </g>
                <g id="arrowDown" xlink:href="#dirArrow" transform="rotate(180) translate(-30 -48)" onmousedown="handlePan(0,1)">
                  <use xlink:href="#rim" fill="#404040">
                        <set attributeName="fill" to="#808080" begin="arrowDown.mouseover" end="arrowDown.mouseout"/>
                  </use>
                  <path fill="none" stroke="white" stroke-width="1.5" d="M0,-3.0v7 M-2.5,-0.5L0,-3.0L2.5,-0.5"/>
                </g>
                <g id="arrowLeft" xlink:href="#dirArrow" transform="rotate(270) translate(-36 17)" onmousedown="handlePan(-1,0)">
                  <use xlink:href="#rim" fill="#404040">
                        <set attributeName="fill" to="#808080" begin="arrowLeft.mouseover" end="arrowLeft.mouseout"/>
                  </use>
                  <path fill="none" stroke="white" stroke-width="1.5" d="M0,-3.0v7 M-2.5,-0.5L0,-3.0L2.5,-0.5"/>
                </g>
        </g>
        <svg viewBox="0 0 15 15" width="100%" height="30px" preserveAspectRatio="xMaxYMin meet">
         <g id="arrow_out" transform="scale(0.3 0.3)">
          <a xlink:href="string__util_8h__dep__incl_org.svg" target="_base">
           <rect id="button" ry="5" rx="5" y="6" x="6" height="38" width="38"
                fill="#f2f5e9" fill-opacity="0.5" stroke="#606060" stroke-width="1.0"/>
           <path id="arrow"
             d="M 11.500037,31.436501 C 11.940474,20.09759 22.043105,11.32322 32.158766,21.979434 L 37.068811,17.246167 C 37.068811,17.246167 37.088388,32 37.088388,32 L 22.160133,31.978069 C 22.160133,31.978069 26.997745,27.140456 26.997745,27.140456 C 18.528582,18.264221 13.291696,25.230495 11.500037,31.436501 z"
             style="fill:#404040;"/>
          </a>
         </g>
        </svg>
</svg>
