<?xml version="1.0" encoding="UTF-8" standalone="no"?>
<!DOCTYPE svg PUBLIC "-//W3C//DTD SVG 1.1//EN"
 "http://www.w3.org/Graphics/SVG/1.1/DTD/svg11.dtd">
<!-- Generated by graphviz version 2.38.0 (20140413.2041)
 -->
<!-- Title: bool_repr Pages: 1 -->
<svg width="599pt" height="312pt"
 viewBox="0.00 0.00 599.00 312.00" xmlns="http://www.w3.org/2000/svg" xmlns:xlink="http://www.w3.org/1999/xlink">
<g id="graph0" class="graph" transform="scale(1 1) rotate(0) translate(4 308)">
<title>bool_repr</title>
<polygon fill="white" stroke="none" points="-4,4 -4,-308 595,-308 595,4 -4,4"/>
<!-- Node1 -->
<g id="node1" class="node"><title>Node1</title>
<polygon fill="#bfbfbf" stroke="black" points="0,-82.5 0,-101.5 59,-101.5 59,-82.5 0,-82.5"/>
<text text-anchor="middle" x="29.5" y="-89.5" font-family="Helvetica,sans-Serif" font-size="10.00">bool_repr</text>
</g>
<!-- Node2 -->
<g id="node2" class="node"><title>Node2</title>
<g id="a_node2"><a xlink:href="device__id__util_8h.html#a8ebdd4cb859121ca833743820a98a466" target="_top" xlink:title="devid_ensure_initialized">
<polygon fill="white" stroke="black" points="95,-183.5 95,-202.5 220,-202.5 220,-183.5 95,-183.5"/>
<text text-anchor="middle" x="157.5" y="-190.5" font-family="Helvetica,sans-Serif" font-size="10.00">devid_ensure_initialized</text>
</a>
</g>
</g>
<!-- Node1&#45;&gt;Node2 -->
<g id="edge1" class="edge"><title>Node1&#45;&gt;Node2</title>
<path fill="none" stroke="midnightblue" d="M48.2083,-108.996C60.8874,-120.895 78.5558,-136.938 95,-150 110.404,-162.236 129.033,-174.998 141.723,-183.408"/>
<polygon fill="midnightblue" stroke="midnightblue" points="50.3272,-106.182 40.6597,-101.848 45.514,-111.265 50.3272,-106.182"/>
</g>
<!-- Node9 -->
<g id="node9" class="node"><title>Node9</title>
<g id="a_node9"><a xlink:href="failsim_8h.html#a0956766f1ad629bfade7cb1725c57ebe" target="_top" xlink:title="fsim_load_control_file">
<polygon fill="white" stroke="black" points="281.5,-82.5 281.5,-101.5 394.5,-101.5 394.5,-82.5 281.5,-82.5"/>
<text text-anchor="middle" x="338" y="-89.5" font-family="Helvetica,sans-Serif" font-size="10.00">fsim_load_control_file</text>
</a>
</g>
</g>
<!-- Node1&#45;&gt;Node9 -->
<g id="edge8" class="edge"><title>Node1&#45;&gt;Node9</title>
<path fill="none" stroke="midnightblue" d="M59.9678,-105.479C70.7531,-109.734 83.2061,-113.877 95,-116 149.677,-125.843 164.728,-121.61 220,-116 247.128,-113.246 277.257,-106.989 300.147,-101.554"/>
<polygon fill="midnightblue" stroke="midnightblue" points="61.1765,-102.191 50.5984,-101.595 58.4958,-108.657 61.1765,-102.191"/>
</g>
<!-- Node10 -->
<g id="node10" class="node"><title>Node10</title>
<g id="a_node10"><a xlink:href="failsim_8h.html#a47679d378ef8cd71ccbdaf2470d37f21" target="_top" xlink:title="fsim_load_control_from\l_gptrarray">
<polygon fill="white" stroke="black" points="97.5,-77 97.5,-107 217.5,-107 217.5,-77 97.5,-77"/>
<text text-anchor="start" x="105.5" y="-95" font-family="Helvetica,sans-Serif" font-size="10.00">fsim_load_control_from</text>
<text text-anchor="middle" x="157.5" y="-84" font-family="Helvetica,sans-Serif" font-size="10.00">_gptrarray</text>
</a>
</g>
</g>
<!-- Node1&#45;&gt;Node10 -->
<g id="edge9" class="edge"><title>Node1&#45;&gt;Node10</title>
<path fill="none" stroke="midnightblue" d="M69.1707,-92C78.1041,-92 87.8086,-92 97.3925,-92"/>
<polygon fill="midnightblue" stroke="midnightblue" points="69.0914,-88.5001 59.0914,-92 69.0913,-95.5001 69.0914,-88.5001"/>
</g>
<!-- Node11 -->
<g id="node11" class="node"><title>Node11</title>
<g id="a_node11"><a xlink:href="failsim_8h.html#a01bfaa175f646e99f9b0be7564f5514c" target="_top" xlink:title="fsim_report_error_table">
<polygon fill="white" stroke="black" points="98,-38.5 98,-57.5 217,-57.5 217,-38.5 98,-38.5"/>
<text text-anchor="middle" x="157.5" y="-45.5" font-family="Helvetica,sans-Serif" font-size="10.00">fsim_report_error_table</text>
</a>
</g>
</g>
<!-- Node1&#45;&gt;Node11 -->
<g id="edge11" class="edge"><title>Node1&#45;&gt;Node11</title>
<path fill="none" stroke="midnightblue" d="M63.2491,-78.7949C73.3736,-74.8508 84.5988,-70.6174 95,-67 104.394,-63.7329 114.689,-60.441 124.124,-57.5365"/>
<polygon fill="midnightblue" stroke="midnightblue" points="61.9655,-75.5387 53.9422,-82.458 64.5293,-82.0523 61.9655,-75.5387"/>
</g>
<!-- Node12 -->
<g id="node12" class="node"><title>Node12</title>
<g id="a_node12"><a xlink:href="string__util_8h.html#a4b355db71e53f08a9f9dc003fdfebe39" target="_top" xlink:title="str_to_int">
<polygon fill="white" stroke="black" points="129.5,-0.5 129.5,-19.5 185.5,-19.5 185.5,-0.5 129.5,-0.5"/>
<text text-anchor="middle" x="157.5" y="-7.5" font-family="Helvetica,sans-Serif" font-size="10.00">str_to_int</text>
</a>
</g>
</g>
<!-- Node1&#45;&gt;Node12 -->
<g id="edge12" class="edge"><title>Node1&#45;&gt;Node12</title>
<path fill="none" stroke="midnightblue" d="M44.3642,-74.4495C56.3782,-60.3259 74.9468,-40.929 95,-29 105.469,-22.7726 118.172,-18.4037 129.309,-15.4397"/>
<polygon fill="midnightblue" stroke="midnightblue" points="41.4323,-72.504 37.7762,-82.448 46.8355,-76.9543 41.4323,-72.504"/>
</g>
<!-- Node3 -->
<g id="node3" class="node"><title>Node3</title>
<g id="a_node3"><a xlink:href="device__id__util_8h.html#a85a6b6ac91cf1e02689aeb0a4ed220ab" target="_top" xlink:title="devid_get_pci_names">
<polygon fill="white" stroke="black" points="280,-284.5 280,-303.5 396,-303.5 396,-284.5 280,-284.5"/>
<text text-anchor="middle" x="338" y="-291.5" font-family="Helvetica,sans-Serif" font-size="10.00">devid_get_pci_names</text>
</a>
</g>
</g>
<!-- Node2&#45;&gt;Node3 -->
<g id="edge2" class="edge"><title>Node2&#45;&gt;Node3</title>
<path fill="none" stroke="midnightblue" d="M173.887,-210.048C191.785,-228.814 223.105,-258.504 256,-275 263.747,-278.885 272.312,-281.993 280.886,-284.474"/>
<polygon fill="midnightblue" stroke="midnightblue" points="176.241,-207.44 166.862,-202.512 171.121,-212.213 176.241,-207.44"/>
</g>
<!-- Node4 -->
<g id="node4" class="node"><title>Node4</title>
<g id="a_node4"><a xlink:href="device__id__util_8h.html#a2f7a8b9367caa4d13860813b67ab79a8" target="_top" xlink:title="devid_get_usb_names">
<polygon fill="white" stroke="black" points="278.5,-246.5 278.5,-265.5 397.5,-265.5 397.5,-246.5 278.5,-246.5"/>
<text text-anchor="middle" x="338" y="-253.5" font-family="Helvetica,sans-Serif" font-size="10.00">devid_get_usb_names</text>
</a>
</g>
</g>
<!-- Node2&#45;&gt;Node4 -->
<g id="edge3" class="edge"><title>Node2&#45;&gt;Node4</title>
<path fill="none" stroke="midnightblue" d="M185.836,-207.058C205.071,-216.519 231.628,-228.729 256,-237 266.669,-240.621 278.356,-243.799 289.45,-246.468"/>
<polygon fill="midnightblue" stroke="midnightblue" points="187.27,-203.862 176.76,-202.53 184.146,-210.126 187.27,-203.862"/>
</g>
<!-- Node5 -->
<g id="node5" class="node"><title>Node5</title>
<g id="a_node5"><a xlink:href="device__id__util_8h.html#aadf525bef2b022d0c59b04a24639b624" target="_top" xlink:title="devid_hid_descriptor\l_item_type">
<polygon fill="white" stroke="black" points="283,-197 283,-227 393,-227 393,-197 283,-197"/>
<text text-anchor="start" x="291" y="-215" font-family="Helvetica,sans-Serif" font-size="10.00">devid_hid_descriptor</text>
<text text-anchor="middle" x="338" y="-204" font-family="Helvetica,sans-Serif" font-size="10.00">_item_type</text>
</a>
</g>
</g>
<!-- Node2&#45;&gt;Node5 -->
<g id="edge4" class="edge"><title>Node2&#45;&gt;Node5</title>
<path fill="none" stroke="midnightblue" d="M230.348,-200.648C247.837,-202.509 266.254,-204.47 282.769,-206.228"/>
<polygon fill="midnightblue" stroke="midnightblue" points="230.494,-197.144 220.18,-199.565 229.753,-204.104 230.494,-197.144"/>
</g>
<!-- Node6 -->
<g id="node6" class="node"><title>Node6</title>
<g id="a_node6"><a xlink:href="device__id__util_8h.html#ae6f5ae13af77d1e6a46dbb4ccd72dbaf" target="_top" xlink:title="devid_usage_code_id_name">
<polygon fill="white" stroke="black" points="263.5,-158.5 263.5,-177.5 412.5,-177.5 412.5,-158.5 263.5,-158.5"/>
<text text-anchor="middle" x="338" y="-165.5" font-family="Helvetica,sans-Serif" font-size="10.00">devid_usage_code_id_name</text>
</a>
</g>
</g>
<!-- Node2&#45;&gt;Node6 -->
<g id="edge5" class="edge"><title>Node2&#45;&gt;Node6</title>
<path fill="none" stroke="midnightblue" d="M230.275,-182.947C243.023,-181.162 256.265,-179.307 268.906,-177.537"/>
<polygon fill="midnightblue" stroke="midnightblue" points="229.597,-179.508 220.18,-184.361 230.568,-186.44 229.597,-179.508"/>
</g>
<!-- Node8 -->
<g id="node8" class="node"><title>Node8</title>
<g id="a_node8"><a xlink:href="device__id__util_8h.html#a0c9df7722675858da772ee48725bfb69" target="_top" xlink:title="devid_usage_code_page_name">
<polygon fill="white" stroke="black" points="256,-120.5 256,-139.5 420,-139.5 420,-120.5 256,-120.5"/>
<text text-anchor="middle" x="338" y="-127.5" font-family="Helvetica,sans-Serif" font-size="10.00">devid_usage_code_page_name</text>
</a>
</g>
</g>
<!-- Node2&#45;&gt;Node8 -->
<g id="edge7" class="edge"><title>Node2&#45;&gt;Node8</title>
<path fill="none" stroke="midnightblue" d="M185.836,-178.942C205.071,-169.481 231.628,-157.271 256,-149 266.669,-145.379 278.356,-142.201 289.45,-139.532"/>
<polygon fill="midnightblue" stroke="midnightblue" points="184.146,-175.874 176.76,-183.47 187.27,-182.138 184.146,-175.874"/>
</g>
<!-- Node7 -->
<g id="node7" class="node"><title>Node7</title>
<g id="a_node7"><a xlink:href="device__id__util_8h.html#a863f4affe8b8f9dbe067ef8060deb114" target="_top" xlink:title="devid_usage_code_name\l_by_extended_id">
<polygon fill="white" stroke="black" points="456,-153 456,-183 591,-183 591,-153 456,-153"/>
<text text-anchor="start" x="464" y="-171" font-family="Helvetica,sans-Serif" font-size="10.00">devid_usage_code_name</text>
<text text-anchor="middle" x="523.5" y="-160" font-family="Helvetica,sans-Serif" font-size="10.00">_by_extended_id</text>
</a>
</g>
</g>
<!-- Node6&#45;&gt;Node7 -->
<g id="edge6" class="edge"><title>Node6&#45;&gt;Node7</title>
<path fill="none" stroke="midnightblue" d="M422.686,-168C433.761,-168 444.993,-168 455.731,-168"/>
<polygon fill="midnightblue" stroke="midnightblue" points="422.579,-164.5 412.579,-168 422.579,-171.5 422.579,-164.5"/>
</g>
<!-- Node10&#45;&gt;Node9 -->
<g id="edge10" class="edge"><title>Node10&#45;&gt;Node9</title>
<path fill="none" stroke="midnightblue" d="M228.19,-92C245.851,-92 264.586,-92 281.443,-92"/>
<polygon fill="midnightblue" stroke="midnightblue" points="227.938,-88.5001 217.938,-92 227.938,-95.5001 227.938,-88.5001"/>
</g>
</g>
</svg>
