<?xml version="1.0" encoding="UTF-8" standalone="no"?>
<!DOCTYPE svg PUBLIC "-//W3C//DTD SVG 1.1//EN"
 "http://www.w3.org/Graphics/SVG/1.1/DTD/svg11.dtd">
<!-- Generated by graphviz version 2.38.0 (20140413.2041)
 -->
<!-- Title: strtrim_r Pages: 1 -->
<svg width="443pt" height="39pt"
 viewBox="0.00 0.00 443.00 39.00" xmlns="http://www.w3.org/2000/svg" xmlns:xlink="http://www.w3.org/1999/xlink">
<g id="graph0" class="graph" transform="scale(1 1) rotate(0) translate(4 35)">
<title>strtrim_r</title>
<polygon fill="white" stroke="none" points="-4,4 -4,-35 439,-35 439,4 -4,4"/>
<!-- Node1 -->
<g id="node1" class="node"><title>Node1</title>
<polygon fill="#bfbfbf" stroke="black" points="0,-6 0,-25 51,-25 51,-6 0,-6"/>
<text text-anchor="middle" x="25.5" y="-13" font-family="Helvetica,sans-Serif" font-size="10.00">strtrim_r</text>
</g>
<!-- Node2 -->
<g id="node2" class="node"><title>Node2</title>
<g id="a_node2"><a xlink:href="string__util_8h.html#ada65b72acbc6657ea068618852614779" target="_top" xlink:title="strtrim">
<polygon fill="white" stroke="black" points="87,-6 87,-25 130,-25 130,-6 87,-6"/>
<text text-anchor="middle" x="108.5" y="-13" font-family="Helvetica,sans-Serif" font-size="10.00">strtrim</text>
</a>
</g>
</g>
<!-- Node1&#45;&gt;Node2 -->
<g id="edge1" class="edge"><title>Node1&#45;&gt;Node2</title>
<path fill="none" stroke="midnightblue" d="M61.2703,-15.5C70.0417,-15.5 79.179,-15.5 86.9916,-15.5"/>
<polygon fill="midnightblue" stroke="midnightblue" points="61.2428,-12.0001 51.2428,-15.5 61.2428,-19.0001 61.2428,-12.0001"/>
</g>
<!-- Node3 -->
<g id="node3" class="node"><title>Node3</title>
<g id="a_node3"><a xlink:href="failsim_8h.html#a47679d378ef8cd71ccbdaf2470d37f21" target="_top" xlink:title="fsim_load_control_from\l_gptrarray">
<polygon fill="white" stroke="black" points="166,-0.5 166,-30.5 286,-30.5 286,-0.5 166,-0.5"/>
<text text-anchor="start" x="174" y="-18.5" font-family="Helvetica,sans-Serif" font-size="10.00">fsim_load_control_from</text>
<text text-anchor="middle" x="226" y="-7.5" font-family="Helvetica,sans-Serif" font-size="10.00">_gptrarray</text>
</a>
</g>
</g>
<!-- Node2&#45;&gt;Node3 -->
<g id="edge2" class="edge"><title>Node2&#45;&gt;Node3</title>
<path fill="none" stroke="midnightblue" d="M140.334,-15.5C148.255,-15.5 157.046,-15.5 165.881,-15.5"/>
<polygon fill="midnightblue" stroke="midnightblue" points="140.149,-12.0001 130.149,-15.5 140.149,-19.0001 140.149,-12.0001"/>
</g>
<!-- Node4 -->
<g id="node4" class="node"><title>Node4</title>
<g id="a_node4"><a xlink:href="failsim_8h.html#a0956766f1ad629bfade7cb1725c57ebe" target="_top" xlink:title="fsim_load_control_file">
<polygon fill="white" stroke="black" points="322,-6 322,-25 435,-25 435,-6 322,-6"/>
<text text-anchor="middle" x="378.5" y="-13" font-family="Helvetica,sans-Serif" font-size="10.00">fsim_load_control_file</text>
</a>
</g>
</g>
<!-- Node3&#45;&gt;Node4 -->
<g id="edge3" class="edge"><title>Node3&#45;&gt;Node4</title>
<path fill="none" stroke="midnightblue" d="M296.299,-15.5C304.766,-15.5 313.334,-15.5 321.571,-15.5"/>
<polygon fill="midnightblue" stroke="midnightblue" points="296.05,-12.0001 286.05,-15.5 296.05,-19.0001 296.05,-12.0001"/>
</g>
</g>
</svg>
