<?xml version="1.0" encoding="UTF-8" standalone="no"?>
<!DOCTYPE svg PUBLIC "-//W3C//DTD SVG 1.1//EN"
 "http://www.w3.org/Graphics/SVG/1.1/DTD/svg11.dtd">
<!-- Generated by graphviz version 2.38.0 (20140413.2041)
 -->
<!-- Title: hex_dump Pages: 1 -->
<svg width="318pt" height="28pt"
 viewBox="0.00 0.00 318.00 28.00" xmlns="http://www.w3.org/2000/svg" xmlns:xlink="http://www.w3.org/1999/xlink">
<g id="graph0" class="graph" transform="scale(1 1) rotate(0) translate(4 24)">
<title>hex_dump</title>
<polygon fill="white" stroke="none" points="-4,4 -4,-24 314,-24 314,4 -4,4"/>
<!-- Node1 -->
<g id="node1" class="node"><title>Node1</title>
<polygon fill="#bfbfbf" stroke="black" points="0,-0.5 0,-19.5 63,-19.5 63,-0.5 0,-0.5"/>
<text text-anchor="middle" x="31.5" y="-7.5" font-family="Helvetica,sans-Serif" font-size="10.00">hex_dump</text>
</g>
<!-- Node2 -->
<g id="node2" class="node"><title>Node2</title>
<g id="a_node2"><a xlink:href="string__util_8c.html#ad09661a7569c3e45fca4825cb329137c" target="_top" xlink:title="fhex_dump">
<polygon fill="white" stroke="black" points="99,-0.5 99,-19.5 164,-19.5 164,-0.5 99,-0.5"/>
<text text-anchor="middle" x="131.5" y="-7.5" font-family="Helvetica,sans-Serif" font-size="10.00">fhex_dump</text>
</a>
</g>
</g>
<!-- Node1&#45;&gt;Node2 -->
<g id="edge1" class="edge"><title>Node1&#45;&gt;Node2</title>
<path fill="none" stroke="midnightblue" d="M63.2389,-10C71.3002,-10 80.1309,-10 88.6653,-10"/>
<polygon fill="midnightblue" stroke="midnightblue" points="88.8567,-13.5001 98.8566,-10 88.8566,-6.5001 88.8567,-13.5001"/>
</g>
<!-- Node3 -->
<g id="node3" class="node"><title>Node3</title>
<g id="a_node3"><a xlink:href="string__util_8c.html#ae90befb63fa82bf7029a37b5dc079bd5" target="_top" xlink:title="fhex_dump_indented">
<polygon fill="white" stroke="black" points="200,-0.5 200,-19.5 310,-19.5 310,-0.5 200,-0.5"/>
<text text-anchor="middle" x="255" y="-7.5" font-family="Helvetica,sans-Serif" font-size="10.00">fhex_dump_indented</text>
</a>
</g>
</g>
<!-- Node2&#45;&gt;Node3 -->
<g id="edge2" class="edge"><title>Node2&#45;&gt;Node3</title>
<path fill="none" stroke="midnightblue" d="M164.106,-10C172.075,-10 180.921,-10 189.866,-10"/>
<polygon fill="midnightblue" stroke="midnightblue" points="189.965,-13.5001 199.965,-10 189.965,-6.5001 189.965,-13.5001"/>
</g>
</g>
</svg>
