<?xml version="1.0" encoding="UTF-8" standalone="no"?>
<!DOCTYPE svg PUBLIC "-//W3C//DTD SVG 1.1//EN"
 "http://www.w3.org/Graphics/SVG/1.1/DTD/svg11.dtd">
<!-- Generated by graphviz version 2.38.0 (20140413.2041)
 -->
<!-- Title: string_util.c Pages: 1 -->
<svg width="629pt" height="196pt"
 viewBox="0.00 0.00 628.50 196.00" xmlns="http://www.w3.org/2000/svg" xmlns:xlink="http://www.w3.org/1999/xlink">
<g id="graph0" class="graph" transform="scale(1 1) rotate(0) translate(4 192)">
<title>string_util.c</title>
<polygon fill="white" stroke="none" points="-4,4 -4,-192 624.5,-192 624.5,4 -4,4"/>
<!-- Node1 -->
<g id="node1" class="node"><title>Node1</title>
<polygon fill="#bfbfbf" stroke="black" points="205.5,-168.5 205.5,-187.5 270.5,-187.5 270.5,-168.5 205.5,-168.5"/>
<text text-anchor="middle" x="238" y="-175.5" font-family="Helvetica,sans-Serif" font-size="10.00">string_util.c</text>
</g>
<!-- Node2 -->
<g id="node2" class="node"><title>Node2</title>
<polygon fill="white" stroke="#bfbfbf" points="0,-112.5 0,-131.5 52,-131.5 52,-112.5 0,-112.5"/>
<text text-anchor="middle" x="26" y="-119.5" font-family="Helvetica,sans-Serif" font-size="10.00">assert.h</text>
</g>
<!-- Node1&#45;&gt;Node2 -->
<g id="edge1" class="edge"><title>Node1&#45;&gt;Node2</title>
<path fill="none" stroke="midnightblue" d="M205.371,-168.733C171.862,-160.237 117.928,-146.544 62.3887,-132.35"/>
<polygon fill="midnightblue" stroke="midnightblue" points="62.9266,-128.875 52.3713,-129.789 61.1927,-135.657 62.9266,-128.875"/>
</g>
<!-- Node3 -->
<g id="node3" class="node"><title>Node3</title>
<polygon fill="white" stroke="#bfbfbf" points="70,-112.5 70,-131.5 118,-131.5 118,-112.5 70,-112.5"/>
<text text-anchor="middle" x="94" y="-119.5" font-family="Helvetica,sans-Serif" font-size="10.00">ctype.h</text>
</g>
<!-- Node1&#45;&gt;Node3 -->
<g id="edge2" class="edge"><title>Node1&#45;&gt;Node3</title>
<path fill="none" stroke="midnightblue" d="M215.183,-168.444C191.168,-159.438 153.171,-145.189 126.131,-135.049"/>
<polygon fill="midnightblue" stroke="midnightblue" points="127.303,-131.751 116.71,-131.516 124.845,-138.305 127.303,-131.751"/>
</g>
<!-- Node4 -->
<g id="node4" class="node"><title>Node4</title>
<polygon fill="white" stroke="#bfbfbf" points="136.5,-112.5 136.5,-131.5 183.5,-131.5 183.5,-112.5 136.5,-112.5"/>
<text text-anchor="middle" x="160" y="-119.5" font-family="Helvetica,sans-Serif" font-size="10.00">errno.h</text>
</g>
<!-- Node1&#45;&gt;Node4 -->
<g id="edge3" class="edge"><title>Node1&#45;&gt;Node4</title>
<path fill="none" stroke="midnightblue" d="M225.468,-168.324C213.414,-159.979 194.973,-147.212 180.731,-137.352"/>
<polygon fill="midnightblue" stroke="midnightblue" points="182.715,-134.469 172.501,-131.655 178.731,-140.224 182.715,-134.469"/>
</g>
<!-- Node5 -->
<g id="node5" class="node"><title>Node5</title>
<polygon fill="white" stroke="#bfbfbf" points="214,-56.5 214,-75.5 260,-75.5 260,-56.5 214,-56.5"/>
<text text-anchor="middle" x="237" y="-63.5" font-family="Helvetica,sans-Serif" font-size="10.00">stdio.h</text>
</g>
<!-- Node1&#45;&gt;Node5 -->
<g id="edge4" class="edge"><title>Node1&#45;&gt;Node5</title>
<path fill="none" stroke="midnightblue" d="M236.509,-168.407C235.024,-159.376 232.846,-144.74 232,-132 230.968,-116.452 232.492,-98.8287 234.121,-85.8583"/>
<polygon fill="midnightblue" stroke="midnightblue" points="237.606,-86.2144 235.519,-75.8272 230.672,-85.2486 237.606,-86.2144"/>
</g>
<!-- Node6 -->
<g id="node6" class="node"><title>Node6</title>
<polygon fill="white" stroke="#bfbfbf" points="240.5,-112.5 240.5,-131.5 287.5,-131.5 287.5,-112.5 240.5,-112.5"/>
<text text-anchor="middle" x="264" y="-119.5" font-family="Helvetica,sans-Serif" font-size="10.00">stdlib.h</text>
</g>
<!-- Node1&#45;&gt;Node6 -->
<g id="edge5" class="edge"><title>Node1&#45;&gt;Node6</title>
<path fill="none" stroke="midnightblue" d="M242.293,-168.083C245.852,-160.691 251.022,-149.953 255.424,-140.811"/>
<polygon fill="midnightblue" stroke="midnightblue" points="258.602,-142.279 259.787,-131.751 252.295,-139.243 258.602,-142.279"/>
</g>
<!-- Node7 -->
<g id="node7" class="node"><title>Node7</title>
<polygon fill="white" stroke="#bfbfbf" points="306,-112.5 306,-131.5 354,-131.5 354,-112.5 306,-112.5"/>
<text text-anchor="middle" x="330" y="-119.5" font-family="Helvetica,sans-Serif" font-size="10.00">string.h</text>
</g>
<!-- Node1&#45;&gt;Node7 -->
<g id="edge6" class="edge"><title>Node1&#45;&gt;Node7</title>
<path fill="none" stroke="midnightblue" d="M252.781,-168.324C267.267,-159.822 289.573,-146.729 306.493,-136.797"/>
<polygon fill="midnightblue" stroke="midnightblue" points="308.403,-139.735 315.255,-131.655 304.859,-133.698 308.403,-139.735"/>
</g>
<!-- Node8 -->
<g id="node8" class="node"><title>Node8</title>
<polygon fill="white" stroke="#bfbfbf" points="372.5,-112.5 372.5,-131.5 425.5,-131.5 425.5,-112.5 372.5,-112.5"/>
<text text-anchor="middle" x="399" y="-119.5" font-family="Helvetica,sans-Serif" font-size="10.00">stdarg.h</text>
</g>
<!-- Node1&#45;&gt;Node8 -->
<g id="edge7" class="edge"><title>Node1&#45;&gt;Node8</title>
<path fill="none" stroke="midnightblue" d="M263.511,-168.444C290.596,-159.359 333.59,-144.939 363.869,-134.783"/>
<polygon fill="midnightblue" stroke="midnightblue" points="365.24,-138.015 373.608,-131.516 363.014,-131.378 365.24,-138.015"/>
</g>
<!-- Node9 -->
<g id="node9" class="node"><title>Node9</title>
<g id="a_node9"><a xlink:href="string__util_8h.html" target="_top" xlink:title="string_util.h">
<polygon fill="white" stroke="black" points="443.5,-112.5 443.5,-131.5 508.5,-131.5 508.5,-112.5 443.5,-112.5"/>
<text text-anchor="middle" x="476" y="-119.5" font-family="Helvetica,sans-Serif" font-size="10.00">string_util.h</text>
</a>
</g>
</g>
<!-- Node1&#45;&gt;Node9 -->
<g id="edge8" class="edge"><title>Node1&#45;&gt;Node9</title>
<path fill="none" stroke="midnightblue" d="M270.594,-169.605C312.936,-159.998 386.945,-143.206 433.611,-132.618"/>
<polygon fill="midnightblue" stroke="midnightblue" points="434.441,-136.018 443.419,-130.392 432.892,-129.192 434.441,-136.018"/>
</g>
<!-- Node9&#45;&gt;Node5 -->
<g id="edge11" class="edge"><title>Node9&#45;&gt;Node5</title>
<path fill="none" stroke="midnightblue" d="M443.269,-113.605C397.725,-103.314 315.697,-84.7809 270.006,-74.4575"/>
<polygon fill="midnightblue" stroke="midnightblue" points="270.55,-70.9922 260.025,-72.2023 269.008,-77.8201 270.55,-70.9922"/>
</g>
<!-- Node10 -->
<g id="node10" class="node"><title>Node10</title>
<polygon fill="white" stroke="#bfbfbf" points="340.5,-56.5 340.5,-75.5 397.5,-75.5 397.5,-56.5 340.5,-56.5"/>
<text text-anchor="middle" x="369" y="-63.5" font-family="Helvetica,sans-Serif" font-size="10.00">stdbool.h</text>
</g>
<!-- Node9&#45;&gt;Node10 -->
<g id="edge9" class="edge"><title>Node9&#45;&gt;Node10</title>
<path fill="none" stroke="midnightblue" d="M458.809,-112.324C441.649,-103.664 415.054,-90.2424 395.253,-80.249"/>
<polygon fill="midnightblue" stroke="midnightblue" points="396.653,-77.0354 386.149,-75.6545 393.499,-83.2847 396.653,-77.0354"/>
</g>
<!-- Node11 -->
<g id="node11" class="node"><title>Node11</title>
<polygon fill="white" stroke="#bfbfbf" points="415.5,-56.5 415.5,-75.5 462.5,-75.5 462.5,-56.5 415.5,-56.5"/>
<text text-anchor="middle" x="439" y="-63.5" font-family="Helvetica,sans-Serif" font-size="10.00">stdint.h</text>
</g>
<!-- Node9&#45;&gt;Node11 -->
<g id="edge10" class="edge"><title>Node9&#45;&gt;Node11</title>
<path fill="none" stroke="midnightblue" d="M469.89,-112.083C464.718,-104.534 457.154,-93.4948 450.806,-84.2298"/>
<polygon fill="midnightblue" stroke="midnightblue" points="453.536,-82.0221 444.996,-75.7511 447.761,-85.9787 453.536,-82.0221"/>
</g>
<!-- Node12 -->
<g id="node12" class="node"><title>Node12</title>
<g id="a_node12"><a xlink:href="coredefs_8h.html" target="_top" xlink:title="coredefs.h">
<polygon fill="white" stroke="black" points="481,-56.5 481,-75.5 545,-75.5 545,-56.5 481,-56.5"/>
<text text-anchor="middle" x="513" y="-63.5" font-family="Helvetica,sans-Serif" font-size="10.00">coredefs.h</text>
</a>
</g>
</g>
<!-- Node9&#45;&gt;Node12 -->
<g id="edge12" class="edge"><title>Node9&#45;&gt;Node12</title>
<path fill="none" stroke="midnightblue" d="M482.11,-112.083C487.282,-104.534 494.846,-93.4948 501.194,-84.2298"/>
<polygon fill="midnightblue" stroke="midnightblue" points="504.239,-85.9787 507.004,-75.7511 498.464,-82.0221 504.239,-85.9787"/>
</g>
<!-- Node13 -->
<g id="node13" class="node"><title>Node13</title>
<g id="a_node13"><a xlink:href="glib__util_8h.html" target="_top" xlink:title="glib_util.h">
<polygon fill="white" stroke="black" points="563.5,-56.5 563.5,-75.5 620.5,-75.5 620.5,-56.5 563.5,-56.5"/>
<text text-anchor="middle" x="592" y="-63.5" font-family="Helvetica,sans-Serif" font-size="10.00">glib_util.h</text>
</a>
</g>
</g>
<!-- Node9&#45;&gt;Node13 -->
<g id="edge13" class="edge"><title>Node9&#45;&gt;Node13</title>
<path fill="none" stroke="midnightblue" d="M494.381,-112.444C513.216,-103.675 542.731,-89.9355 564.379,-79.8579"/>
<polygon fill="midnightblue" stroke="midnightblue" points="566.117,-82.9098 573.705,-75.5164 563.162,-76.5637 566.117,-82.9098"/>
</g>
<!-- Node14 -->
<g id="node14" class="node"><title>Node14</title>
<polygon fill="white" stroke="#bfbfbf" points="572,-0.5 572,-19.5 612,-19.5 612,-0.5 572,-0.5"/>
<text text-anchor="middle" x="592" y="-7.5" font-family="Helvetica,sans-Serif" font-size="10.00">glib.h</text>
</g>
<!-- Node13&#45;&gt;Node14 -->
<g id="edge14" class="edge"><title>Node13&#45;&gt;Node14</title>
<path fill="none" stroke="midnightblue" d="M592,-56.083C592,-49.0059 592,-38.8611 592,-29.9865"/>
<polygon fill="midnightblue" stroke="midnightblue" points="595.5,-29.751 592,-19.7511 588.5,-29.7511 595.5,-29.751"/>
</g>
</g>
</svg>
