<?xml version="1.0" encoding="UTF-8" standalone="no"?>
<!DOCTYPE svg PUBLIC "-//W3C//DTD SVG 1.1//EN"
 "http://www.w3.org/Graphics/SVG/1.1/DTD/svg11.dtd">
<!-- Generated by graphviz version 2.38.0 (20140413.2041)
 -->
<!-- Title: exactly_matches_any Pages: 1 -->
<svg width="252pt" height="66pt"
 viewBox="0.00 0.00 252.00 66.00" xmlns="http://www.w3.org/2000/svg" xmlns:xlink="http://www.w3.org/1999/xlink">
<g id="graph0" class="graph" transform="scale(1 1) rotate(0) translate(4 62)">
<title>exactly_matches_any</title>
<polygon fill="white" stroke="none" points="-4,4 -4,-62 248,-62 248,4 -4,4"/>
<!-- Node1 -->
<g id="node1" class="node"><title>Node1</title>
<polygon fill="#bfbfbf" stroke="black" points="0,-19.5 0,-38.5 114,-38.5 114,-19.5 0,-19.5"/>
<text text-anchor="middle" x="57" y="-26.5" font-family="Helvetica,sans-Serif" font-size="10.00">exactly_matches_any</text>
</g>
<!-- Node2 -->
<g id="node2" class="node"><title>Node2</title>
<g id="a_node2"><a xlink:href="string__util_8c.html#aa1104d940ce4198abee7e2304c8689f2" target="_top" xlink:title="matches_by_func">
<polygon fill="white" stroke="black" points="150,-38.5 150,-57.5 244,-57.5 244,-38.5 150,-38.5"/>
<text text-anchor="middle" x="197" y="-45.5" font-family="Helvetica,sans-Serif" font-size="10.00">matches_by_func</text>
</a>
</g>
</g>
<!-- Node1&#45;&gt;Node2 -->
<g id="edge1" class="edge"><title>Node1&#45;&gt;Node2</title>
<path fill="none" stroke="midnightblue" d="M114.13,-36.728C122.512,-37.8821 131.157,-39.0723 139.545,-40.2273"/>
<polygon fill="midnightblue" stroke="midnightblue" points="139.232,-43.7171 149.616,-41.6138 140.187,-36.7825 139.232,-43.7171"/>
</g>
<!-- Node3 -->
<g id="node3" class="node"><title>Node3</title>
<g id="a_node3"><a xlink:href="string__util_8c.html#a421e5f914841061096ef1977d1501b32" target="_top" xlink:title="streq">
<polygon fill="white" stroke="black" points="177.5,-0.5 177.5,-19.5 216.5,-19.5 216.5,-0.5 177.5,-0.5"/>
<text text-anchor="middle" x="197" y="-7.5" font-family="Helvetica,sans-Serif" font-size="10.00">streq</text>
</a>
</g>
</g>
<!-- Node1&#45;&gt;Node3 -->
<g id="edge2" class="edge"><title>Node1&#45;&gt;Node3</title>
<path fill="none" stroke="midnightblue" d="M114.13,-21.272C132.44,-18.751 152.004,-16.0574 167.414,-13.9357"/>
<polygon fill="midnightblue" stroke="midnightblue" points="167.924,-17.3987 177.353,-12.5674 166.969,-10.4641 167.924,-17.3987"/>
</g>
</g>
</svg>
