<?xml version="1.0" encoding="UTF-8" standalone="no"?>
<!DOCTYPE svg PUBLIC "-//W3C//DTD SVG 1.1//EN"
 "http://www.w3.org/Graphics/SVG/1.1/DTD/svg11.dtd">
<!-- Generated by graphviz version 2.38.0 (20140413.2041)
 -->
<!-- Title: matches_by_func Pages: 1 -->
<svg width="252pt" height="66pt"
 viewBox="0.00 0.00 252.00 66.00" xmlns="http://www.w3.org/2000/svg" xmlns:xlink="http://www.w3.org/1999/xlink">
<g id="graph0" class="graph" transform="scale(1 1) rotate(0) translate(4 62)">
<title>matches_by_func</title>
<polygon fill="white" stroke="none" points="-4,4 -4,-62 248,-62 248,4 -4,4"/>
<!-- Node1 -->
<g id="node1" class="node"><title>Node1</title>
<polygon fill="#bfbfbf" stroke="black" points="0,-19.5 0,-38.5 94,-38.5 94,-19.5 0,-19.5"/>
<text text-anchor="middle" x="47" y="-26.5" font-family="Helvetica,sans-Serif" font-size="10.00">matches_by_func</text>
</g>
<!-- Node2 -->
<g id="node2" class="node"><title>Node2</title>
<g id="a_node2"><a xlink:href="string__util_8h.html#a5c8f127a5c061b7718c175cde1ad989a" target="_top" xlink:title="exactly_matches_any">
<polygon fill="white" stroke="black" points="130,-38.5 130,-57.5 244,-57.5 244,-38.5 130,-38.5"/>
<text text-anchor="middle" x="187" y="-45.5" font-family="Helvetica,sans-Serif" font-size="10.00">exactly_matches_any</text>
</a>
</g>
</g>
<!-- Node1&#45;&gt;Node2 -->
<g id="edge1" class="edge"><title>Node1&#45;&gt;Node2</title>
<path fill="none" stroke="midnightblue" d="M104.448,-36.7719C112.873,-37.9318 121.555,-39.1272 129.971,-40.2859"/>
<polygon fill="midnightblue" stroke="midnightblue" points="104.72,-33.2763 94.3359,-35.3796 103.765,-40.2109 104.72,-33.2763"/>
</g>
<!-- Node3 -->
<g id="node3" class="node"><title>Node3</title>
<g id="a_node3"><a xlink:href="string__util_8h.html#aa71923771ea63db6b405f458fb530b1f" target="_top" xlink:title="starts_with_any">
<polygon fill="white" stroke="black" points="144.5,-0.5 144.5,-19.5 229.5,-19.5 229.5,-0.5 144.5,-0.5"/>
<text text-anchor="middle" x="187" y="-7.5" font-family="Helvetica,sans-Serif" font-size="10.00">starts_with_any</text>
</a>
</g>
</g>
<!-- Node1&#45;&gt;Node3 -->
<g id="edge2" class="edge"><title>Node1&#45;&gt;Node3</title>
<path fill="none" stroke="midnightblue" d="M104.361,-21.2402C117.681,-19.4062 131.652,-17.4826 144.196,-15.7556"/>
<polygon fill="midnightblue" stroke="midnightblue" points="103.765,-17.7891 94.3359,-22.6204 104.72,-24.7237 103.765,-17.7891"/>
</g>
</g>
</svg>
