<?xml version="1.0" encoding="UTF-8" standalone="no"?>
<!DOCTYPE svg PUBLIC "-//W3C//DTD SVG 1.1//EN"
 "http://www.w3.org/Graphics/SVG/1.1/DTD/svg11.dtd">
<!-- Generated by graphviz version 2.38.0 (20140413.2041)
 -->
<!-- Title: string_util.h Pages: 1 -->
<svg width="352pt" height="140pt"
 viewBox="0.00 0.00 352.00 140.00" xmlns="http://www.w3.org/2000/svg" xmlns:xlink="http://www.w3.org/1999/xlink">
<g id="graph0" class="graph" transform="scale(1 1) rotate(0) translate(4 136)">
<title>string_util.h</title>
<polygon fill="white" stroke="none" points="-4,4 -4,-136 348,-136 348,4 -4,4"/>
<!-- Node1 -->
<g id="node1" class="node"><title>Node1</title>
<polygon fill="#bfbfbf" stroke="black" points="131,-112.5 131,-131.5 196,-131.5 196,-112.5 131,-112.5"/>
<text text-anchor="middle" x="163.5" y="-119.5" font-family="Helvetica,sans-Serif" font-size="10.00">string_util.h</text>
</g>
<!-- Node2 -->
<g id="node2" class="node"><title>Node2</title>
<polygon fill="white" stroke="#bfbfbf" points="0,-56.5 0,-75.5 57,-75.5 57,-56.5 0,-56.5"/>
<text text-anchor="middle" x="28.5" y="-63.5" font-family="Helvetica,sans-Serif" font-size="10.00">stdbool.h</text>
</g>
<!-- Node1&#45;&gt;Node2 -->
<g id="edge1" class="edge"><title>Node1&#45;&gt;Node2</title>
<path fill="none" stroke="midnightblue" d="M142.109,-112.444C119.793,-103.517 84.5968,-89.4387 59.292,-79.3168"/>
<polygon fill="midnightblue" stroke="midnightblue" points="60.3757,-75.9807 49.7911,-75.5164 57.776,-82.4801 60.3757,-75.9807"/>
</g>
<!-- Node3 -->
<g id="node3" class="node"><title>Node3</title>
<polygon fill="white" stroke="#bfbfbf" points="75,-56.5 75,-75.5 122,-75.5 122,-56.5 75,-56.5"/>
<text text-anchor="middle" x="98.5" y="-63.5" font-family="Helvetica,sans-Serif" font-size="10.00">stdint.h</text>
</g>
<!-- Node1&#45;&gt;Node3 -->
<g id="edge2" class="edge"><title>Node1&#45;&gt;Node3</title>
<path fill="none" stroke="midnightblue" d="M153.057,-112.324C143.354,-104.263 128.685,-92.0765 117,-82.3695"/>
<polygon fill="midnightblue" stroke="midnightblue" points="119.062,-79.532 109.133,-75.8339 114.589,-84.9163 119.062,-79.532"/>
</g>
<!-- Node4 -->
<g id="node4" class="node"><title>Node4</title>
<polygon fill="white" stroke="#bfbfbf" points="140.5,-56.5 140.5,-75.5 186.5,-75.5 186.5,-56.5 140.5,-56.5"/>
<text text-anchor="middle" x="163.5" y="-63.5" font-family="Helvetica,sans-Serif" font-size="10.00">stdio.h</text>
</g>
<!-- Node1&#45;&gt;Node4 -->
<g id="edge3" class="edge"><title>Node1&#45;&gt;Node4</title>
<path fill="none" stroke="midnightblue" d="M163.5,-112.083C163.5,-105.006 163.5,-94.8611 163.5,-85.9865"/>
<polygon fill="midnightblue" stroke="midnightblue" points="167,-85.751 163.5,-75.7511 160,-85.7511 167,-85.751"/>
</g>
<!-- Node5 -->
<g id="node5" class="node"><title>Node5</title>
<g id="a_node5"><a xlink:href="coredefs_8h.html" target="_top" xlink:title="coredefs.h">
<polygon fill="white" stroke="black" points="204.5,-56.5 204.5,-75.5 268.5,-75.5 268.5,-56.5 204.5,-56.5"/>
<text text-anchor="middle" x="236.5" y="-63.5" font-family="Helvetica,sans-Serif" font-size="10.00">coredefs.h</text>
</a>
</g>
</g>
<!-- Node1&#45;&gt;Node5 -->
<g id="edge4" class="edge"><title>Node1&#45;&gt;Node5</title>
<path fill="none" stroke="midnightblue" d="M175.229,-112.324C186.337,-104.107 203.242,-91.6017 216.483,-81.8069"/>
<polygon fill="midnightblue" stroke="midnightblue" points="218.6,-84.5948 224.558,-75.8339 214.437,-78.9671 218.6,-84.5948"/>
</g>
<!-- Node6 -->
<g id="node6" class="node"><title>Node6</title>
<g id="a_node6"><a xlink:href="glib__util_8h.html" target="_top" xlink:title="glib_util.h">
<polygon fill="white" stroke="black" points="287,-56.5 287,-75.5 344,-75.5 344,-56.5 287,-56.5"/>
<text text-anchor="middle" x="315.5" y="-63.5" font-family="Helvetica,sans-Serif" font-size="10.00">glib_util.h</text>
</a>
</g>
</g>
<!-- Node1&#45;&gt;Node6 -->
<g id="edge5" class="edge"><title>Node1&#45;&gt;Node6</title>
<path fill="none" stroke="midnightblue" d="M187.585,-112.444C213.045,-103.399 253.394,-89.064 281.959,-78.9158"/>
<polygon fill="midnightblue" stroke="midnightblue" points="283.277,-82.1622 291.528,-75.5164 280.933,-75.5661 283.277,-82.1622"/>
</g>
<!-- Node7 -->
<g id="node7" class="node"><title>Node7</title>
<polygon fill="white" stroke="#bfbfbf" points="295.5,-0.5 295.5,-19.5 335.5,-19.5 335.5,-0.5 295.5,-0.5"/>
<text text-anchor="middle" x="315.5" y="-7.5" font-family="Helvetica,sans-Serif" font-size="10.00">glib.h</text>
</g>
<!-- Node6&#45;&gt;Node7 -->
<g id="edge6" class="edge"><title>Node6&#45;&gt;Node7</title>
<path fill="none" stroke="midnightblue" d="M315.5,-56.083C315.5,-49.0059 315.5,-38.8611 315.5,-29.9865"/>
<polygon fill="midnightblue" stroke="midnightblue" points="319,-29.751 315.5,-19.7511 312,-29.7511 319,-29.751"/>
</g>
</g>
</svg>
