<?xml version="1.0" encoding="UTF-8" standalone="no"?>
<!DOCTYPE svg PUBLIC "-//W3C//DTD SVG 1.1//EN"
 "http://www.w3.org/Graphics/SVG/1.1/DTD/svg11.dtd">
<!-- Generated by graphviz version 2.38.0 (20140413.2041)
 -->
<!-- Title: ntsa_free Pages: 1 -->
<svg width="381pt" height="78pt"
 viewBox="0.00 0.00 381.00 77.50" xmlns="http://www.w3.org/2000/svg" xmlns:xlink="http://www.w3.org/1999/xlink">
<g id="graph0" class="graph" transform="scale(1 1) rotate(0) translate(4 73.5)">
<title>ntsa_free</title>
<polygon fill="white" stroke="none" points="-4,4 -4,-73.5 377,-73.5 377,4 -4,4"/>
<!-- Node1 -->
<g id="node1" class="node"><title>Node1</title>
<polygon fill="#bfbfbf" stroke="black" points="0,-22.5 0,-41.5 58,-41.5 58,-22.5 0,-22.5"/>
<text text-anchor="middle" x="29" y="-29.5" font-family="Helvetica,sans-Serif" font-size="10.00">ntsa_free</text>
</g>
<!-- Node2 -->
<g id="node2" class="node"><title>Node2</title>
<g id="a_node2"><a xlink:href="failsim_8h.html#a47679d378ef8cd71ccbdaf2470d37f21" target="_top" xlink:title="fsim_load_control_from\l_gptrarray">
<polygon fill="white" stroke="black" points="94,-39 94,-69 214,-69 214,-39 94,-39"/>
<text text-anchor="start" x="102" y="-57" font-family="Helvetica,sans-Serif" font-size="10.00">fsim_load_control_from</text>
<text text-anchor="middle" x="154" y="-46" font-family="Helvetica,sans-Serif" font-size="10.00">_gptrarray</text>
</a>
</g>
</g>
<!-- Node1&#45;&gt;Node2 -->
<g id="edge1" class="edge"><title>Node1&#45;&gt;Node2</title>
<path fill="none" stroke="midnightblue" d="M68.1436,-38.8224C76.2922,-40.2799 85.0833,-41.8523 93.8122,-43.4136"/>
<polygon fill="midnightblue" stroke="midnightblue" points="68.6787,-35.3627 58.2187,-37.0472 67.4462,-42.2533 68.6787,-35.3627"/>
</g>
<!-- Node4 -->
<g id="node4" class="node"><title>Node4</title>
<g id="a_node4"><a xlink:href="udev__util_8h.html#a25d919095c7730db7bd16fb6ebd92743" target="_top" xlink:title="report_udev_device">
<polygon fill="white" stroke="black" points="101,-0.5 101,-19.5 207,-19.5 207,-0.5 101,-0.5"/>
<text text-anchor="middle" x="154" y="-7.5" font-family="Helvetica,sans-Serif" font-size="10.00">report_udev_device</text>
</a>
</g>
</g>
<!-- Node1&#45;&gt;Node4 -->
<g id="edge3" class="edge"><title>Node1&#45;&gt;Node4</title>
<path fill="none" stroke="midnightblue" d="M68.1363,-25.1789C78.4502,-23.3341 89.7938,-21.3052 100.738,-19.3477"/>
<polygon fill="midnightblue" stroke="midnightblue" points="67.4462,-21.7467 58.2187,-26.9528 68.6787,-28.6373 67.4462,-21.7467"/>
</g>
<!-- Node3 -->
<g id="node3" class="node"><title>Node3</title>
<g id="a_node3"><a xlink:href="failsim_8h.html#a0956766f1ad629bfade7cb1725c57ebe" target="_top" xlink:title="fsim_load_control_file">
<polygon fill="white" stroke="black" points="255,-44.5 255,-63.5 368,-63.5 368,-44.5 255,-44.5"/>
<text text-anchor="middle" x="311.5" y="-51.5" font-family="Helvetica,sans-Serif" font-size="10.00">fsim_load_control_file</text>
</a>
</g>
</g>
<!-- Node2&#45;&gt;Node3 -->
<g id="edge2" class="edge"><title>Node2&#45;&gt;Node3</title>
<path fill="none" stroke="midnightblue" d="M224.327,-54C234.513,-54 244.895,-54 254.762,-54"/>
<polygon fill="midnightblue" stroke="midnightblue" points="224.232,-50.5001 214.231,-54 224.231,-57.5001 224.232,-50.5001"/>
</g>
<!-- Node5 -->
<g id="node5" class="node"><title>Node5</title>
<g id="a_node5"><a xlink:href="udev__util_8h.html#a99b7881f22243d06502945cddebbe6ab" target="_top" xlink:title="probe_udev_subsystem">
<polygon fill="white" stroke="black" points="250,-0.5 250,-19.5 373,-19.5 373,-0.5 250,-0.5"/>
<text text-anchor="middle" x="311.5" y="-7.5" font-family="Helvetica,sans-Serif" font-size="10.00">probe_udev_subsystem</text>
</a>
</g>
</g>
<!-- Node4&#45;&gt;Node5 -->
<g id="edge4" class="edge"><title>Node4&#45;&gt;Node5</title>
<path fill="none" stroke="midnightblue" d="M217.329,-10C228.04,-10 239.158,-10 249.826,-10"/>
<polygon fill="midnightblue" stroke="midnightblue" points="217.212,-6.5001 207.212,-10 217.212,-13.5001 217.212,-6.5001"/>
</g>
</g>
</svg>
