<?xml version="1.0" encoding="UTF-8" standalone="no"?>
<!DOCTYPE svg PUBLIC "-//W3C//DTD SVG 1.1//EN"
 "http://www.w3.org/Graphics/SVG/1.1/DTD/svg11.dtd">
<!-- Generated by graphviz version 2.38.0 (20140413.2041)
 -->
<!-- Title: hhc_to_byte_in_buf Pages: 1 -->
<svg width="397pt" height="66pt"
 viewBox="0.00 0.00 397.00 66.00" xmlns="http://www.w3.org/2000/svg" xmlns:xlink="http://www.w3.org/1999/xlink">
<g id="graph0" class="graph" transform="scale(1 1) rotate(0) translate(4 62)">
<title>hhc_to_byte_in_buf</title>
<polygon fill="white" stroke="none" points="-4,4 -4,-62 393,-62 393,4 -4,4"/>
<!-- Node1 -->
<g id="node1" class="node"><title>Node1</title>
<polygon fill="#bfbfbf" stroke="black" points="0,-19.5 0,-38.5 101,-38.5 101,-19.5 0,-19.5"/>
<text text-anchor="middle" x="50.5" y="-26.5" font-family="Helvetica,sans-Serif" font-size="10.00">hhc_to_byte_in_buf</text>
</g>
<!-- Node2 -->
<g id="node2" class="node"><title>Node2</title>
<g id="a_node2"><a xlink:href="data__structures_8h.html#a3c57719d981d567e738f49a59dbaa153" target="_top" xlink:title="store_bytehex_list">
<polygon fill="white" stroke="black" points="137,-19.5 137,-38.5 234,-38.5 234,-19.5 137,-19.5"/>
<text text-anchor="middle" x="185.5" y="-26.5" font-family="Helvetica,sans-Serif" font-size="10.00">store_bytehex_list</text>
</a>
</g>
</g>
<!-- Node1&#45;&gt;Node2 -->
<g id="edge1" class="edge"><title>Node1&#45;&gt;Node2</title>
<path fill="none" stroke="midnightblue" d="M111.293,-29C119.803,-29 128.46,-29 136.701,-29"/>
<polygon fill="midnightblue" stroke="midnightblue" points="111.024,-25.5001 101.024,-29 111.024,-32.5001 111.024,-25.5001"/>
</g>
<!-- Node3 -->
<g id="node3" class="node"><title>Node3</title>
<g id="a_node3"><a xlink:href="data__structures_8h.html#a37a3e1dc85c052af4c898e5ac3bb3aff" target="_top" xlink:title="bbf_store_bytehex_list">
<polygon fill="white" stroke="black" points="272,-38.5 272,-57.5 387,-57.5 387,-38.5 272,-38.5"/>
<text text-anchor="middle" x="329.5" y="-45.5" font-family="Helvetica,sans-Serif" font-size="10.00">bbf_store_bytehex_list</text>
</a>
</g>
</g>
<!-- Node2&#45;&gt;Node3 -->
<g id="edge2" class="edge"><title>Node2&#45;&gt;Node3</title>
<path fill="none" stroke="midnightblue" d="M244.287,-36.7321C253.382,-37.9491 262.778,-39.2062 271.847,-40.4197"/>
<polygon fill="midnightblue" stroke="midnightblue" points="244.555,-33.2368 234.179,-35.3796 243.626,-40.175 244.555,-33.2368"/>
</g>
<!-- Node4 -->
<g id="node4" class="node"><title>Node4</title>
<g id="a_node4"><a xlink:href="data__structures_8h.html#a8dac43550584ffada601d6a0377d8d91" target="_top" xlink:title="bva_store_bytehex_list">
<polygon fill="white" stroke="black" points="270,-0.5 270,-19.5 389,-19.5 389,-0.5 270,-0.5"/>
<text text-anchor="middle" x="329.5" y="-7.5" font-family="Helvetica,sans-Serif" font-size="10.00">bva_store_bytehex_list</text>
</a>
</g>
</g>
<!-- Node2&#45;&gt;Node4 -->
<g id="edge3" class="edge"><title>Node2&#45;&gt;Node4</title>
<path fill="none" stroke="midnightblue" d="M244.295,-21.2669C252.72,-20.1395 261.403,-18.9778 269.845,-17.8482"/>
<polygon fill="midnightblue" stroke="midnightblue" points="243.626,-17.825 234.179,-22.6204 244.555,-24.7632 243.626,-17.825"/>
</g>
</g>
</svg>
