<?xml version="1.0" encoding="UTF-8" standalone="no"?>
<!DOCTYPE svg PUBLIC "-//W3C//DTD SVG 1.1//EN"
 "http://www.w3.org/Graphics/SVG/1.1/DTD/svg11.dtd">
<!-- Generated by graphviz version 2.38.0 (20140413.2041)
 -->
<!-- Title: any_one_byte_hex_string_to_byte_in_buf Pages: 1 -->
<svg width="372pt" height="142pt"
 viewBox="0.00 0.00 372.00 142.00" xmlns="http://www.w3.org/2000/svg" xmlns:xlink="http://www.w3.org/1999/xlink">
<g id="graph0" class="graph" transform="scale(1 1) rotate(0) translate(4 138)">
<title>any_one_byte_hex_string_to_byte_in_buf</title>
<polygon fill="white" stroke="none" points="-4,4 -4,-138 368,-138 368,4 -4,4"/>
<!-- Node1 -->
<g id="node1" class="node"><title>Node1</title>
<polygon fill="#bfbfbf" stroke="black" points="0,-52 0,-82 131,-82 131,-52 0,-52"/>
<text text-anchor="start" x="8" y="-70" font-family="Helvetica,sans-Serif" font-size="10.00">any_one_byte_hex_string</text>
<text text-anchor="middle" x="65.5" y="-59" font-family="Helvetica,sans-Serif" font-size="10.00">_to_byte_in_buf</text>
</g>
<!-- Node2 -->
<g id="node2" class="node"><title>Node2</title>
<g id="a_node2"><a xlink:href="string__util_8c.html#a3b4e04572f90138fa8df7281974e34a0" target="_top" xlink:title="hhs_to_byte_in_buf">
<polygon fill="white" stroke="black" points="167,-114.5 167,-133.5 268,-133.5 268,-114.5 167,-114.5"/>
<text text-anchor="middle" x="217.5" y="-121.5" font-family="Helvetica,sans-Serif" font-size="10.00">hhs_to_byte_in_buf</text>
</a>
</g>
</g>
<!-- Node1&#45;&gt;Node2 -->
<g id="edge1" class="edge"><title>Node1&#45;&gt;Node2</title>
<path fill="none" stroke="midnightblue" d="M106.303,-82.1253C129.741,-91.0316 159.109,-102.192 181.633,-110.75"/>
<polygon fill="midnightblue" stroke="midnightblue" points="180.55,-114.083 191.141,-114.363 183.036,-107.539 180.55,-114.083"/>
</g>
<!-- Node3 -->
<g id="node3" class="node"><title>Node3</title>
<g id="a_node3"><a xlink:href="string__util_8c.html#a8f6a914dc7b1910470c4b154b2fc1569" target="_top" xlink:title="str_ends_with">
<polygon fill="white" stroke="black" points="179,-76.5 179,-95.5 256,-95.5 256,-76.5 179,-76.5"/>
<text text-anchor="middle" x="217.5" y="-83.5" font-family="Helvetica,sans-Serif" font-size="10.00">str_ends_with</text>
</a>
</g>
</g>
<!-- Node1&#45;&gt;Node3 -->
<g id="edge2" class="edge"><title>Node1&#45;&gt;Node3</title>
<path fill="none" stroke="midnightblue" d="M131.42,-75.2232C143.913,-76.8056 156.785,-78.4362 168.618,-79.9349"/>
<polygon fill="midnightblue" stroke="midnightblue" points="168.352,-83.4291 178.712,-81.2135 169.231,-76.4846 168.352,-83.4291"/>
</g>
<!-- Node5 -->
<g id="node5" class="node"><title>Node5</title>
<g id="a_node5"><a xlink:href="string__util_8c.html#a4dfc4ef4b6b3eefba2c4df04dbe7cde2" target="_top" xlink:title="str_starts_with">
<polygon fill="white" stroke="black" points="178,-38.5 178,-57.5 257,-57.5 257,-38.5 178,-38.5"/>
<text text-anchor="middle" x="217.5" y="-45.5" font-family="Helvetica,sans-Serif" font-size="10.00">str_starts_with</text>
</a>
</g>
</g>
<!-- Node1&#45;&gt;Node5 -->
<g id="edge4" class="edge"><title>Node1&#45;&gt;Node5</title>
<path fill="none" stroke="midnightblue" d="M131.42,-58.7768C143.668,-57.2254 156.281,-55.6278 167.921,-54.1534"/>
<polygon fill="midnightblue" stroke="midnightblue" points="168.384,-57.6227 177.865,-52.8937 167.505,-50.6782 168.384,-57.6227"/>
</g>
<!-- Node7 -->
<g id="node7" class="node"><title>Node7</title>
<g id="a_node7"><a xlink:href="string__util_8c.html#a0fbc51bcbfa966e25e6b2c98a8d022c3" target="_top" xlink:title="strdup_uc">
<polygon fill="white" stroke="black" points="188,-0.5 188,-19.5 247,-19.5 247,-0.5 188,-0.5"/>
<text text-anchor="middle" x="217.5" y="-7.5" font-family="Helvetica,sans-Serif" font-size="10.00">strdup_uc</text>
</a>
</g>
</g>
<!-- Node1&#45;&gt;Node7 -->
<g id="edge6" class="edge"><title>Node1&#45;&gt;Node7</title>
<path fill="none" stroke="midnightblue" d="M106.303,-51.8747C129.741,-42.9684 159.109,-31.8085 181.633,-23.2496"/>
<polygon fill="midnightblue" stroke="midnightblue" points="183.036,-26.4605 191.141,-19.6365 180.55,-19.917 183.036,-26.4605"/>
</g>
<!-- Node4 -->
<g id="node4" class="node"><title>Node4</title>
<g id="a_node4"><a xlink:href="string__util_8c.html#a421e5f914841061096ef1977d1501b32" target="_top" xlink:title="streq">
<polygon fill="white" stroke="black" points="314.5,-76.5 314.5,-95.5 353.5,-95.5 353.5,-76.5 314.5,-76.5"/>
<text text-anchor="middle" x="334" y="-83.5" font-family="Helvetica,sans-Serif" font-size="10.00">streq</text>
</a>
</g>
</g>
<!-- Node3&#45;&gt;Node4 -->
<g id="edge3" class="edge"><title>Node3&#45;&gt;Node4</title>
<path fill="none" stroke="midnightblue" d="M256.309,-86C271.881,-86 289.631,-86 304.13,-86"/>
<polygon fill="midnightblue" stroke="midnightblue" points="304.494,-89.5001 314.494,-86 304.494,-82.5001 304.494,-89.5001"/>
</g>
<!-- Node6 -->
<g id="node6" class="node"><title>Node6</title>
<g id="a_node6"><a xlink:href="string__util_8c.html#a826e3e282995992b9490f9f5830b9f60" target="_top" xlink:title="is_abbrev">
<polygon fill="white" stroke="black" points="304,-38.5 304,-57.5 364,-57.5 364,-38.5 304,-38.5"/>
<text text-anchor="middle" x="334" y="-45.5" font-family="Helvetica,sans-Serif" font-size="10.00">is_abbrev</text>
</a>
</g>
</g>
<!-- Node5&#45;&gt;Node6 -->
<g id="edge5" class="edge"><title>Node5&#45;&gt;Node6</title>
<path fill="none" stroke="midnightblue" d="M257.264,-48C269.006,-48 281.91,-48 293.688,-48"/>
<polygon fill="midnightblue" stroke="midnightblue" points="293.69,-51.5001 303.69,-48 293.69,-44.5001 293.69,-51.5001"/>
</g>
</g>
</svg>
