<?xml version="1.0" encoding="UTF-8" standalone="no"?>
<!DOCTYPE svg PUBLIC "-//W3C//DTD SVG 1.1//EN"
 "http://www.w3.org/Graphics/SVG/1.1/DTD/svg11.dtd">
<!-- Generated by graphviz version 2.38.0 (20140413.2041)
 -->
<!-- Title: subprocess_util.c Pages: 1 -->
<svg width="563pt" height="196pt"
 viewBox="0.00 0.00 562.50 196.00" xmlns="http://www.w3.org/2000/svg" xmlns:xlink="http://www.w3.org/1999/xlink">
<g id="graph0" class="graph" transform="scale(1 1) rotate(0) translate(4 192)">
<title>subprocess_util.c</title>
<polygon fill="white" stroke="none" points="-4,4 -4,-192 558.5,-192 558.5,4 -4,4"/>
<!-- Node1 -->
<g id="node1" class="node"><title>Node1</title>
<polygon fill="#bfbfbf" stroke="black" points="232,-168.5 232,-187.5 325,-187.5 325,-168.5 232,-168.5"/>
<text text-anchor="middle" x="278.5" y="-175.5" font-family="Helvetica,sans-Serif" font-size="10.00">subprocess_util.c</text>
</g>
<!-- Node2 -->
<g id="node2" class="node"><title>Node2</title>
<polygon fill="white" stroke="#bfbfbf" points="58,-112.5 58,-131.5 105,-131.5 105,-112.5 58,-112.5"/>
<text text-anchor="middle" x="81.5" y="-119.5" font-family="Helvetica,sans-Serif" font-size="10.00">errno.h</text>
</g>
<!-- Node1&#45;&gt;Node2 -->
<g id="edge1" class="edge"><title>Node1&#45;&gt;Node2</title>
<path fill="none" stroke="midnightblue" d="M247.285,-168.444C211.187,-158.549 151.995,-142.323 114.968,-132.174"/>
<polygon fill="midnightblue" stroke="midnightblue" points="115.719,-128.751 105.15,-129.483 113.869,-135.502 115.719,-128.751"/>
</g>
<!-- Node3 -->
<g id="node3" class="node"><title>Node3</title>
<polygon fill="white" stroke="#bfbfbf" points="140.5,-56.5 140.5,-75.5 186.5,-75.5 186.5,-56.5 140.5,-56.5"/>
<text text-anchor="middle" x="163.5" y="-63.5" font-family="Helvetica,sans-Serif" font-size="10.00">stdio.h</text>
</g>
<!-- Node1&#45;&gt;Node3 -->
<g id="edge2" class="edge"><title>Node1&#45;&gt;Node3</title>
<path fill="none" stroke="midnightblue" d="M231.829,-173.362C203.861,-168.496 170.363,-157.348 152.5,-132 142.844,-118.299 147.836,-99.0008 153.877,-84.9939"/>
<polygon fill="midnightblue" stroke="midnightblue" points="157.078,-86.4136 158.266,-75.8856 150.772,-83.3747 157.078,-86.4136"/>
</g>
<!-- Node4 -->
<g id="node4" class="node"><title>Node4</title>
<polygon fill="white" stroke="#bfbfbf" points="441,-112.5 441,-131.5 488,-131.5 488,-112.5 441,-112.5"/>
<text text-anchor="middle" x="464.5" y="-119.5" font-family="Helvetica,sans-Serif" font-size="10.00">stdlib.h</text>
</g>
<!-- Node1&#45;&gt;Node4 -->
<g id="edge3" class="edge"><title>Node1&#45;&gt;Node4</title>
<path fill="none" stroke="midnightblue" d="M307.972,-168.444C341.443,-158.726 395.942,-142.904 430.998,-132.726"/>
<polygon fill="midnightblue" stroke="midnightblue" points="432.145,-136.038 440.773,-129.889 430.193,-129.316 432.145,-136.038"/>
</g>
<!-- Node5 -->
<g id="node5" class="node"><title>Node5</title>
<polygon fill="white" stroke="#bfbfbf" points="506.5,-112.5 506.5,-131.5 554.5,-131.5 554.5,-112.5 506.5,-112.5"/>
<text text-anchor="middle" x="530.5" y="-119.5" font-family="Helvetica,sans-Serif" font-size="10.00">string.h</text>
</g>
<!-- Node1&#45;&gt;Node5 -->
<g id="edge4" class="edge"><title>Node1&#45;&gt;Node5</title>
<path fill="none" stroke="midnightblue" d="M323.333,-168.497C367.517,-159.94 436.877,-146.034 496.5,-132 496.6,-131.976 496.701,-131.953 496.801,-131.929"/>
<polygon fill="midnightblue" stroke="midnightblue" points="497.528,-135.355 506.395,-129.557 495.847,-128.559 497.528,-135.355"/>
</g>
<!-- Node6 -->
<g id="node6" class="node"><title>Node6</title>
<g id="a_node6"><a xlink:href="report__util_8h.html" target="_top" xlink:title="report_util.h">
<polygon fill="white" stroke="black" points="245,-112.5 245,-131.5 312,-131.5 312,-112.5 245,-112.5"/>
<text text-anchor="middle" x="278.5" y="-119.5" font-family="Helvetica,sans-Serif" font-size="10.00">report_util.h</text>
</a>
</g>
</g>
<!-- Node1&#45;&gt;Node6 -->
<g id="edge5" class="edge"><title>Node1&#45;&gt;Node6</title>
<path fill="none" stroke="midnightblue" d="M278.5,-168.083C278.5,-161.006 278.5,-150.861 278.5,-141.986"/>
<polygon fill="midnightblue" stroke="midnightblue" points="282,-141.751 278.5,-131.751 275,-141.751 282,-141.751"/>
</g>
<!-- Node10 -->
<g id="node10" class="node"><title>Node10</title>
<g id="a_node10"><a xlink:href="string__util_8h.html" target="_top" xlink:title="string_util.h">
<polygon fill="white" stroke="black" points="162,-112.5 162,-131.5 227,-131.5 227,-112.5 162,-112.5"/>
<text text-anchor="middle" x="194.5" y="-119.5" font-family="Helvetica,sans-Serif" font-size="10.00">string_util.h</text>
</a>
</g>
</g>
<!-- Node1&#45;&gt;Node10 -->
<g id="edge10" class="edge"><title>Node1&#45;&gt;Node10</title>
<path fill="none" stroke="midnightblue" d="M265.004,-168.324C251.9,-159.9 231.788,-146.971 216.393,-137.074"/>
<polygon fill="midnightblue" stroke="midnightblue" points="218.267,-134.118 207.963,-131.655 214.482,-140.006 218.267,-134.118"/>
</g>
<!-- Node13 -->
<g id="node13" class="node"><title>Node13</title>
<g id="a_node13"><a xlink:href="subprocess__util_8h.html" target="_top" xlink:title="subprocess_util.h">
<polygon fill="white" stroke="black" points="330,-112.5 330,-131.5 423,-131.5 423,-112.5 330,-112.5"/>
<text text-anchor="middle" x="376.5" y="-119.5" font-family="Helvetica,sans-Serif" font-size="10.00">subprocess_util.h</text>
</a>
</g>
</g>
<!-- Node1&#45;&gt;Node13 -->
<g id="edge17" class="edge"><title>Node1&#45;&gt;Node13</title>
<path fill="none" stroke="midnightblue" d="M294.245,-168.324C309.819,-159.743 333.877,-146.486 351.959,-136.522"/>
<polygon fill="midnightblue" stroke="midnightblue" points="353.724,-139.546 360.794,-131.655 350.346,-133.415 353.724,-139.546"/>
</g>
<!-- Node6&#45;&gt;Node3 -->
<g id="edge7" class="edge"><title>Node6&#45;&gt;Node3</title>
<path fill="none" stroke="midnightblue" d="M260.278,-112.444C241.604,-103.675 212.344,-89.9355 190.883,-79.8579"/>
<polygon fill="midnightblue" stroke="midnightblue" points="192.176,-76.5988 181.637,-75.5164 189.201,-82.935 192.176,-76.5988"/>
</g>
<!-- Node7 -->
<g id="node7" class="node"><title>Node7</title>
<polygon fill="white" stroke="#bfbfbf" points="352.5,-0.5 352.5,-19.5 392.5,-19.5 392.5,-0.5 352.5,-0.5"/>
<text text-anchor="middle" x="372.5" y="-7.5" font-family="Helvetica,sans-Serif" font-size="10.00">glib.h</text>
</g>
<!-- Node6&#45;&gt;Node7 -->
<g id="edge6" class="edge"><title>Node6&#45;&gt;Node7</title>
<path fill="none" stroke="midnightblue" d="M301.306,-112.354C317.75,-105.02 339.292,-92.9668 352.5,-76 362.915,-62.6204 367.939,-43.797 370.343,-29.848"/>
<polygon fill="midnightblue" stroke="midnightblue" points="373.814,-30.2974 371.762,-19.9033 366.884,-29.3086 373.814,-30.2974"/>
</g>
<!-- Node8 -->
<g id="node8" class="node"><title>Node8</title>
<polygon fill="white" stroke="#bfbfbf" points="287,-56.5 287,-75.5 344,-75.5 344,-56.5 287,-56.5"/>
<text text-anchor="middle" x="315.5" y="-63.5" font-family="Helvetica,sans-Serif" font-size="10.00">stdbool.h</text>
</g>
<!-- Node6&#45;&gt;Node8 -->
<g id="edge8" class="edge"><title>Node6&#45;&gt;Node8</title>
<path fill="none" stroke="midnightblue" d="M284.61,-112.083C289.782,-104.534 297.346,-93.4948 303.694,-84.2298"/>
<polygon fill="midnightblue" stroke="midnightblue" points="306.739,-85.9787 309.504,-75.7511 300.964,-82.0221 306.739,-85.9787"/>
</g>
<!-- Node9 -->
<g id="node9" class="node"><title>Node9</title>
<g id="a_node9"><a xlink:href="coredefs_8h.html" target="_top" xlink:title="coredefs.h">
<polygon fill="white" stroke="black" points="204.5,-56.5 204.5,-75.5 268.5,-75.5 268.5,-56.5 204.5,-56.5"/>
<text text-anchor="middle" x="236.5" y="-63.5" font-family="Helvetica,sans-Serif" font-size="10.00">coredefs.h</text>
</a>
</g>
</g>
<!-- Node6&#45;&gt;Node9 -->
<g id="edge9" class="edge"><title>Node6&#45;&gt;Node9</title>
<path fill="none" stroke="midnightblue" d="M271.565,-112.083C265.571,-104.377 256.748,-93.0333 249.452,-83.6531"/>
<polygon fill="midnightblue" stroke="midnightblue" points="252.209,-81.4958 243.306,-75.7511 246.683,-85.7934 252.209,-81.4958"/>
</g>
<!-- Node10&#45;&gt;Node3 -->
<g id="edge13" class="edge"><title>Node10&#45;&gt;Node3</title>
<path fill="none" stroke="midnightblue" d="M189.381,-112.083C185.092,-104.613 178.842,-93.7244 173.558,-84.5199"/>
<polygon fill="midnightblue" stroke="midnightblue" points="176.538,-82.6811 168.524,-75.7511 170.467,-86.1662 176.538,-82.6811"/>
</g>
<!-- Node10&#45;&gt;Node8 -->
<g id="edge11" class="edge"><title>Node10&#45;&gt;Node8</title>
<path fill="none" stroke="midnightblue" d="M213.673,-112.444C233.409,-103.636 264.385,-89.8116 286.993,-79.722"/>
<polygon fill="midnightblue" stroke="midnightblue" points="288.711,-82.788 296.417,-75.5164 285.859,-76.3957 288.711,-82.788"/>
</g>
<!-- Node10&#45;&gt;Node9 -->
<g id="edge14" class="edge"><title>Node10&#45;&gt;Node9</title>
<path fill="none" stroke="midnightblue" d="M201.435,-112.083C207.429,-104.377 216.252,-93.0333 223.548,-83.6531"/>
<polygon fill="midnightblue" stroke="midnightblue" points="226.317,-85.7934 229.694,-75.7511 220.791,-81.4958 226.317,-85.7934"/>
</g>
<!-- Node11 -->
<g id="node11" class="node"><title>Node11</title>
<polygon fill="white" stroke="#bfbfbf" points="75,-56.5 75,-75.5 122,-75.5 122,-56.5 75,-56.5"/>
<text text-anchor="middle" x="98.5" y="-63.5" font-family="Helvetica,sans-Serif" font-size="10.00">stdint.h</text>
</g>
<!-- Node10&#45;&gt;Node11 -->
<g id="edge12" class="edge"><title>Node10&#45;&gt;Node11</title>
<path fill="none" stroke="midnightblue" d="M179.076,-112.324C163.96,-103.822 140.685,-90.7288 123.029,-80.7975"/>
<polygon fill="midnightblue" stroke="midnightblue" points="124.317,-77.5066 113.886,-75.6545 120.886,-83.6077 124.317,-77.5066"/>
</g>
<!-- Node12 -->
<g id="node12" class="node"><title>Node12</title>
<g id="a_node12"><a xlink:href="glib__util_8h.html" target="_top" xlink:title="glib_util.h">
<polygon fill="white" stroke="black" points="0,-56.5 0,-75.5 57,-75.5 57,-56.5 0,-56.5"/>
<text text-anchor="middle" x="28.5" y="-63.5" font-family="Helvetica,sans-Serif" font-size="10.00">glib_util.h</text>
</a>
</g>
</g>
<!-- Node10&#45;&gt;Node12 -->
<g id="edge15" class="edge"><title>Node10&#45;&gt;Node12</title>
<path fill="none" stroke="midnightblue" d="M168.197,-112.444C140.149,-103.32 95.5556,-88.8133 64.3158,-78.6509"/>
<polygon fill="midnightblue" stroke="midnightblue" points="65.2724,-75.2816 54.6801,-75.5164 63.1069,-81.9383 65.2724,-75.2816"/>
</g>
<!-- Node12&#45;&gt;Node7 -->
<g id="edge16" class="edge"><title>Node12&#45;&gt;Node7</title>
<path fill="none" stroke="midnightblue" d="M57.1253,-57.7584C59.9474,-57.1284 62.7745,-56.53 65.5,-56 166.133,-36.4296 286.808,-21.0873 342.112,-14.5024"/>
<polygon fill="midnightblue" stroke="midnightblue" points="342.754,-17.9509 352.275,-13.3035 341.934,-10.9991 342.754,-17.9509"/>
</g>
<!-- Node13&#45;&gt;Node7 -->
<g id="edge18" class="edge"><title>Node13&#45;&gt;Node7</title>
<path fill="none" stroke="midnightblue" d="M379.57,-112.17C383.526,-99.6687 389.553,-76.0925 386.5,-56 385.132,-47.001 382.31,-37.3251 379.555,-29.2601"/>
<polygon fill="midnightblue" stroke="midnightblue" points="382.812,-27.9759 376.1,-19.7782 376.235,-30.3722 382.812,-27.9759"/>
</g>
<!-- Node13&#45;&gt;Node8 -->
<g id="edge19" class="edge"><title>Node13&#45;&gt;Node8</title>
<path fill="none" stroke="midnightblue" d="M366.699,-112.324C357.682,-104.341 344.094,-92.3128 333.182,-82.6529"/>
<polygon fill="midnightblue" stroke="midnightblue" points="335.287,-79.8416 325.479,-75.8339 330.647,-85.083 335.287,-79.8416"/>
</g>
</g>
</svg>
