<?xml version="1.0" encoding="UTF-8" standalone="no"?>
<!DOCTYPE svg PUBLIC "-//W3C//DTD SVG 1.1//EN"
 "http://www.w3.org/Graphics/SVG/1.1/DTD/svg11.dtd">
<!-- Generated by graphviz version 2.38.0 (20140413.2041)
 -->
<!-- Title: is_command_in_path Pages: 1 -->
<svg width="481pt" height="28pt"
 viewBox="0.00 0.00 481.00 28.00" xmlns="http://www.w3.org/2000/svg" xmlns:xlink="http://www.w3.org/1999/xlink">
<g id="graph0" class="graph" transform="scale(1 1) rotate(0) translate(4 24)">
<title>is_command_in_path</title>
<polygon fill="white" stroke="none" points="-4,4 -4,-24 477,-24 477,4 -4,4"/>
<!-- Node1 -->
<g id="node1" class="node"><title>Node1</title>
<polygon fill="#bfbfbf" stroke="black" points="0,-0.5 0,-19.5 111,-19.5 111,-0.5 0,-0.5"/>
<text text-anchor="middle" x="55.5" y="-7.5" font-family="Helvetica,sans-Serif" font-size="10.00">is_command_in_path</text>
</g>
<!-- Node2 -->
<g id="node2" class="node"><title>Node2</title>
<g id="a_node2"><a xlink:href="subprocess__util_8c.html#a900726b5c6996b1c6008f375f642cbec" target="_top" xlink:title="execute_shell_cmd_collect">
<polygon fill="white" stroke="black" points="147,-0.5 147,-19.5 285,-19.5 285,-0.5 147,-0.5"/>
<text text-anchor="middle" x="216" y="-7.5" font-family="Helvetica,sans-Serif" font-size="10.00">execute_shell_cmd_collect</text>
</a>
</g>
</g>
<!-- Node1&#45;&gt;Node2 -->
<g id="edge1" class="edge"><title>Node1&#45;&gt;Node2</title>
<path fill="none" stroke="midnightblue" d="M111.047,-10C119.349,-10 128.054,-10 136.743,-10"/>
<polygon fill="midnightblue" stroke="midnightblue" points="136.91,-13.5001 146.91,-10 136.91,-6.5001 136.91,-13.5001"/>
</g>
<!-- Node3 -->
<g id="node3" class="node"><title>Node3</title>
<g id="a_node3"><a xlink:href="string__util_8c.html#a8f6a914dc7b1910470c4b154b2fc1569" target="_top" xlink:title="str_ends_with">
<polygon fill="white" stroke="black" points="321,-0.5 321,-19.5 398,-19.5 398,-0.5 321,-0.5"/>
<text text-anchor="middle" x="359.5" y="-7.5" font-family="Helvetica,sans-Serif" font-size="10.00">str_ends_with</text>
</a>
</g>
</g>
<!-- Node2&#45;&gt;Node3 -->
<g id="edge2" class="edge"><title>Node2&#45;&gt;Node3</title>
<path fill="none" stroke="midnightblue" d="M285.263,-10C293.909,-10 302.605,-10 310.833,-10"/>
<polygon fill="midnightblue" stroke="midnightblue" points="310.967,-13.5001 320.967,-10 310.967,-6.5001 310.967,-13.5001"/>
</g>
<!-- Node4 -->
<g id="node4" class="node"><title>Node4</title>
<g id="a_node4"><a xlink:href="string__util_8c.html#a421e5f914841061096ef1977d1501b32" target="_top" xlink:title="streq">
<polygon fill="white" stroke="black" points="434,-0.5 434,-19.5 473,-19.5 473,-0.5 434,-0.5"/>
<text text-anchor="middle" x="453.5" y="-7.5" font-family="Helvetica,sans-Serif" font-size="10.00">streq</text>
</a>
</g>
</g>
<!-- Node3&#45;&gt;Node4 -->
<g id="edge3" class="edge"><title>Node3&#45;&gt;Node4</title>
<path fill="none" stroke="midnightblue" d="M398.185,-10C406.742,-10 415.696,-10 423.809,-10"/>
<polygon fill="midnightblue" stroke="midnightblue" points="423.886,-13.5001 433.886,-10 423.886,-6.5001 423.886,-13.5001"/>
</g>
</g>
</svg>
