<?xml version="1.0" encoding="UTF-8" standalone="no"?>
<!DOCTYPE svg PUBLIC "-//W3C//DTD SVG 1.1//EN"
 "http://www.w3.org/Graphics/SVG/1.1/DTD/svg11.dtd">
<!-- Generated by graphviz version 2.38.0 (20140413.2041)
 -->
<!-- Title: execute_shell_cmd Pages: 1 -->
<svg width="464pt" height="66pt"
 viewBox="0.00 0.00 464.00 66.00" xmlns="http://www.w3.org/2000/svg" xmlns:xlink="http://www.w3.org/1999/xlink">
<g id="graph0" class="graph" transform="scale(1 1) rotate(0) translate(4 62)">
<title>execute_shell_cmd</title>
<polygon fill="white" stroke="none" points="-4,4 -4,-62 460,-62 460,4 -4,4"/>
<!-- Node1 -->
<g id="node1" class="node"><title>Node1</title>
<polygon fill="#bfbfbf" stroke="black" points="0,-19.5 0,-38.5 104,-38.5 104,-19.5 0,-19.5"/>
<text text-anchor="middle" x="52" y="-26.5" font-family="Helvetica,sans-Serif" font-size="10.00">execute_shell_cmd</text>
</g>
<!-- Node2 -->
<g id="node2" class="node"><title>Node2</title>
<g id="a_node2"><a xlink:href="subprocess__util_8c.html#a4f505ff76c75586edb55993623ea13e5" target="_top" xlink:title="execute_shell_cmd_rpt">
<polygon fill="white" stroke="black" points="140,-19.5 140,-38.5 259,-38.5 259,-19.5 140,-19.5"/>
<text text-anchor="middle" x="199.5" y="-26.5" font-family="Helvetica,sans-Serif" font-size="10.00">execute_shell_cmd_rpt</text>
</a>
</g>
</g>
<!-- Node1&#45;&gt;Node2 -->
<g id="edge1" class="edge"><title>Node1&#45;&gt;Node2</title>
<path fill="none" stroke="midnightblue" d="M104.298,-29C112.59,-29 121.289,-29 129.911,-29"/>
<polygon fill="midnightblue" stroke="midnightblue" points="129.967,-32.5001 139.967,-29 129.967,-25.5001 129.967,-32.5001"/>
</g>
<!-- Node3 -->
<g id="node3" class="node"><title>Node3</title>
<g id="a_node3"><a xlink:href="string__util_8c.html#a8f74f6837d4ef57d712f435ea294c51d" target="_top" xlink:title="str_all_printable">
<polygon fill="white" stroke="black" points="295,-38.5 295,-57.5 381,-57.5 381,-38.5 295,-38.5"/>
<text text-anchor="middle" x="338" y="-45.5" font-family="Helvetica,sans-Serif" font-size="10.00">str_all_printable</text>
</a>
</g>
</g>
<!-- Node2&#45;&gt;Node3 -->
<g id="edge2" class="edge"><title>Node2&#45;&gt;Node3</title>
<path fill="none" stroke="midnightblue" d="M259.18,-37.168C267.708,-38.355 276.439,-39.5703 284.826,-40.7377"/>
<polygon fill="midnightblue" stroke="midnightblue" points="284.463,-44.2208 294.85,-42.133 285.428,-37.2877 284.463,-44.2208"/>
</g>
<!-- Node4 -->
<g id="node4" class="node"><title>Node4</title>
<g id="a_node4"><a xlink:href="string__util_8c.html#a8f6a914dc7b1910470c4b154b2fc1569" target="_top" xlink:title="str_ends_with">
<polygon fill="white" stroke="black" points="299.5,-0.5 299.5,-19.5 376.5,-19.5 376.5,-0.5 299.5,-0.5"/>
<text text-anchor="middle" x="338" y="-7.5" font-family="Helvetica,sans-Serif" font-size="10.00">str_ends_with</text>
</a>
</g>
</g>
<!-- Node2&#45;&gt;Node4 -->
<g id="edge3" class="edge"><title>Node2&#45;&gt;Node4</title>
<path fill="none" stroke="midnightblue" d="M259.18,-20.832C269.157,-19.4434 279.411,-18.016 289.068,-16.6718"/>
<polygon fill="midnightblue" stroke="midnightblue" points="289.85,-20.0969 299.272,-15.2516 288.885,-13.1637 289.85,-20.0969"/>
</g>
<!-- Node5 -->
<g id="node5" class="node"><title>Node5</title>
<g id="a_node5"><a xlink:href="string__util_8c.html#a421e5f914841061096ef1977d1501b32" target="_top" xlink:title="streq">
<polygon fill="white" stroke="black" points="417,-0.5 417,-19.5 456,-19.5 456,-0.5 417,-0.5"/>
<text text-anchor="middle" x="436.5" y="-7.5" font-family="Helvetica,sans-Serif" font-size="10.00">streq</text>
</a>
</g>
</g>
<!-- Node4&#45;&gt;Node5 -->
<g id="edge4" class="edge"><title>Node4&#45;&gt;Node5</title>
<path fill="none" stroke="midnightblue" d="M376.586,-10C386.66,-10 397.387,-10 406.888,-10"/>
<polygon fill="midnightblue" stroke="midnightblue" points="406.996,-13.5001 416.996,-10 406.995,-6.5001 406.996,-13.5001"/>
</g>
</g>
</svg>
