<?xml version="1.0" encoding="UTF-8" standalone="no"?>
<!DOCTYPE svg PUBLIC "-//W3C//DTD SVG 1.1//EN"
 "http://www.w3.org/Graphics/SVG/1.1/DTD/svg11.dtd">
<!-- Generated by graphviz version 2.38.0 (20140413.2041)
 -->
<!-- Title: execute_shell_cmd_rpt Pages: 1 -->
<svg width="324pt" height="66pt"
 viewBox="0.00 0.00 324.00 66.00" xmlns="http://www.w3.org/2000/svg" xmlns:xlink="http://www.w3.org/1999/xlink">
<g id="graph0" class="graph" transform="scale(1 1) rotate(0) translate(4 62)">
<title>execute_shell_cmd_rpt</title>
<polygon fill="white" stroke="none" points="-4,4 -4,-62 320,-62 320,4 -4,4"/>
<!-- Node1 -->
<g id="node1" class="node"><title>Node1</title>
<polygon fill="#bfbfbf" stroke="black" points="0,-19.5 0,-38.5 119,-38.5 119,-19.5 0,-19.5"/>
<text text-anchor="middle" x="59.5" y="-26.5" font-family="Helvetica,sans-Serif" font-size="10.00">execute_shell_cmd_rpt</text>
</g>
<!-- Node2 -->
<g id="node2" class="node"><title>Node2</title>
<g id="a_node2"><a xlink:href="string__util_8c.html#a8f74f6837d4ef57d712f435ea294c51d" target="_top" xlink:title="str_all_printable">
<polygon fill="white" stroke="black" points="155,-38.5 155,-57.5 241,-57.5 241,-38.5 155,-38.5"/>
<text text-anchor="middle" x="198" y="-45.5" font-family="Helvetica,sans-Serif" font-size="10.00">str_all_printable</text>
</a>
</g>
</g>
<!-- Node1&#45;&gt;Node2 -->
<g id="edge1" class="edge"><title>Node1&#45;&gt;Node2</title>
<path fill="none" stroke="midnightblue" d="M119.18,-37.168C127.708,-38.355 136.439,-39.5703 144.826,-40.7377"/>
<polygon fill="midnightblue" stroke="midnightblue" points="144.463,-44.2208 154.85,-42.133 145.428,-37.2877 144.463,-44.2208"/>
</g>
<!-- Node3 -->
<g id="node3" class="node"><title>Node3</title>
<g id="a_node3"><a xlink:href="string__util_8c.html#a8f6a914dc7b1910470c4b154b2fc1569" target="_top" xlink:title="str_ends_with">
<polygon fill="white" stroke="black" points="159.5,-0.5 159.5,-19.5 236.5,-19.5 236.5,-0.5 159.5,-0.5"/>
<text text-anchor="middle" x="198" y="-7.5" font-family="Helvetica,sans-Serif" font-size="10.00">str_ends_with</text>
</a>
</g>
</g>
<!-- Node1&#45;&gt;Node3 -->
<g id="edge2" class="edge"><title>Node1&#45;&gt;Node3</title>
<path fill="none" stroke="midnightblue" d="M119.18,-20.832C129.157,-19.4434 139.411,-18.016 149.068,-16.6718"/>
<polygon fill="midnightblue" stroke="midnightblue" points="149.85,-20.0969 159.272,-15.2516 148.885,-13.1637 149.85,-20.0969"/>
</g>
<!-- Node4 -->
<g id="node4" class="node"><title>Node4</title>
<g id="a_node4"><a xlink:href="string__util_8c.html#a421e5f914841061096ef1977d1501b32" target="_top" xlink:title="streq">
<polygon fill="white" stroke="black" points="277,-0.5 277,-19.5 316,-19.5 316,-0.5 277,-0.5"/>
<text text-anchor="middle" x="296.5" y="-7.5" font-family="Helvetica,sans-Serif" font-size="10.00">streq</text>
</a>
</g>
</g>
<!-- Node3&#45;&gt;Node4 -->
<g id="edge3" class="edge"><title>Node3&#45;&gt;Node4</title>
<path fill="none" stroke="midnightblue" d="M236.586,-10C246.66,-10 257.387,-10 266.888,-10"/>
<polygon fill="midnightblue" stroke="midnightblue" points="266.996,-13.5001 276.996,-10 266.995,-6.5001 266.996,-13.5001"/>
</g>
</g>
</svg>
