<?xml version="1.0" encoding="UTF-8" standalone="no"?>
<!DOCTYPE svg PUBLIC "-//W3C//DTD SVG 1.1//EN"
 "http://www.w3.org/Graphics/SVG/1.1/DTD/svg11.dtd">
<!-- Generated by graphviz version 2.38.0 (20140413.2041)
 -->
<!-- Title: report_udev_usb_devinfo Pages: 1 -->
<svg width="360pt" height="47pt"
 viewBox="0.00 0.00 360.00 47.00" xmlns="http://www.w3.org/2000/svg" xmlns:xlink="http://www.w3.org/1999/xlink">
<g id="graph0" class="graph" transform="scale(1 1) rotate(0) translate(4 43)">
<title>report_udev_usb_devinfo</title>
<polygon fill="white" stroke="none" points="-4,4 -4,-43 356,-43 356,4 -4,4"/>
<!-- Node1 -->
<g id="node1" class="node"><title>Node1</title>
<polygon fill="#bfbfbf" stroke="black" points="0,-0.5 0,-19.5 129,-19.5 129,-0.5 0,-0.5"/>
<text text-anchor="middle" x="64.5" y="-7.5" font-family="Helvetica,sans-Serif" font-size="10.00">report_udev_usb_devinfo</text>
</g>
<!-- Node2 -->
<g id="node2" class="node"><title>Node2</title>
<g id="a_node2"><a xlink:href="report__util_8c.html#af5b53c7ac855765e65c7f485fb2a1193" target="_top" xlink:title="rpt_structure_loc">
<polygon fill="white" stroke="black" points="165,-19.5 165,-38.5 254,-38.5 254,-19.5 165,-19.5"/>
<text text-anchor="middle" x="209.5" y="-26.5" font-family="Helvetica,sans-Serif" font-size="10.00">rpt_structure_loc</text>
</a>
</g>
</g>
<!-- Node1&#45;&gt;Node2 -->
<g id="edge1" class="edge"><title>Node1&#45;&gt;Node2</title>
<path fill="none" stroke="midnightblue" d="M129.055,-18.4443C137.646,-19.5858 146.392,-20.7478 154.788,-21.8635"/>
<polygon fill="midnightblue" stroke="midnightblue" points="154.449,-25.3491 164.823,-23.1967 155.371,-18.41 154.449,-25.3491"/>
</g>
<!-- Node3 -->
<g id="node3" class="node"><title>Node3</title>
<g id="a_node3"><a xlink:href="report__util_8c.html#ae58dfa6adb2e9f1dacce17f7b0732f26" target="_top" xlink:title="rpt_vstring">
<polygon fill="white" stroke="black" points="290,-0.5 290,-19.5 352,-19.5 352,-0.5 290,-0.5"/>
<text text-anchor="middle" x="321" y="-7.5" font-family="Helvetica,sans-Serif" font-size="10.00">rpt_vstring</text>
</a>
</g>
</g>
<!-- Node1&#45;&gt;Node3 -->
<g id="edge3" class="edge"><title>Node1&#45;&gt;Node3</title>
<path fill="none" stroke="midnightblue" d="M129.065,-10C176.333,-10 239.397,-10 279.862,-10"/>
<polygon fill="midnightblue" stroke="midnightblue" points="279.89,-13.5001 289.89,-10 279.89,-6.5001 279.89,-13.5001"/>
</g>
<!-- Node2&#45;&gt;Node3 -->
<g id="edge2" class="edge"><title>Node2&#45;&gt;Node3</title>
<path fill="none" stroke="midnightblue" d="M254.092,-21.4361C262.572,-19.9647 271.425,-18.4285 279.79,-16.9771"/>
<polygon fill="midnightblue" stroke="midnightblue" points="280.439,-20.4168 289.694,-15.2587 279.242,-13.5199 280.439,-20.4168"/>
</g>
</g>
</svg>
