<?xml version="1.0" encoding="UTF-8" standalone="no"?>
<!DOCTYPE svg PUBLIC "-//W3C//DTD SVG 1.1//EN"
 "http://www.w3.org/Graphics/SVG/1.1/DTD/svg11.dtd">
<!-- Generated by graphviz version 2.38.0 (20140413.2041)
 -->
<!-- Title: lookup_udev_usb_device_by_devname Pages: 1 -->
<svg width="308pt" height="78pt"
 viewBox="0.00 0.00 308.00 77.50" xmlns="http://www.w3.org/2000/svg" xmlns:xlink="http://www.w3.org/1999/xlink">
<g id="graph0" class="graph" transform="scale(1 1) rotate(0) translate(4 73.5)">
<title>lookup_udev_usb_device_by_devname</title>
<polygon fill="white" stroke="none" points="-4,4 -4,-73.5 304,-73.5 304,4 -4,4"/>
<!-- Node1 -->
<g id="node1" class="node"><title>Node1</title>
<polygon fill="#bfbfbf" stroke="black" points="0,-17 0,-47 131,-47 131,-17 0,-17"/>
<text text-anchor="start" x="8" y="-35" font-family="Helvetica,sans-Serif" font-size="10.00">lookup_udev_usb_device</text>
<text text-anchor="middle" x="65.5" y="-24" font-family="Helvetica,sans-Serif" font-size="10.00">_by_devname</text>
</g>
<!-- Node2 -->
<g id="node2" class="node"><title>Node2</title>
<g id="a_node2"><a xlink:href="udev__util_8c.html#afe3e8c4b2ef07488e5a4189cdc89abc5" target="_top" xlink:title="free_usb_detailed_device\l_summary">
<polygon fill="white" stroke="black" points="167,-39 167,-69 300,-69 300,-39 167,-39"/>
<text text-anchor="start" x="175" y="-57" font-family="Helvetica,sans-Serif" font-size="10.00">free_usb_detailed_device</text>
<text text-anchor="middle" x="233.5" y="-46" font-family="Helvetica,sans-Serif" font-size="10.00">_summary</text>
</a>
</g>
</g>
<!-- Node1&#45;&gt;Node2 -->
<g id="edge1" class="edge"><title>Node1&#45;&gt;Node2</title>
<path fill="none" stroke="midnightblue" d="M131.155,-40.5688C139.596,-41.6874 148.303,-42.8414 156.903,-43.9812"/>
<polygon fill="midnightblue" stroke="midnightblue" points="156.555,-47.4655 166.928,-45.3097 157.474,-40.5261 156.555,-47.4655"/>
</g>
<!-- Node3 -->
<g id="node3" class="node"><title>Node3</title>
<g id="a_node3"><a xlink:href="report__util_8c.html#ae58dfa6adb2e9f1dacce17f7b0732f26" target="_top" xlink:title="rpt_vstring">
<polygon fill="white" stroke="black" points="202.5,-0.5 202.5,-19.5 264.5,-19.5 264.5,-0.5 202.5,-0.5"/>
<text text-anchor="middle" x="233.5" y="-7.5" font-family="Helvetica,sans-Serif" font-size="10.00">rpt_vstring</text>
</a>
</g>
</g>
<!-- Node1&#45;&gt;Node3 -->
<g id="edge2" class="edge"><title>Node1&#45;&gt;Node3</title>
<path fill="none" stroke="midnightblue" d="M131.155,-23.4312C151.798,-20.6954 174.035,-17.7484 192.404,-15.3139"/>
<polygon fill="midnightblue" stroke="midnightblue" points="193,-18.7656 202.454,-13.982 192.08,-11.8263 193,-18.7656"/>
</g>
</g>
</svg>
