<?xml version="1.0" encoding="UTF-8" standalone="no"?>
<!DOCTYPE svg PUBLIC "-//W3C//DTD SVG 1.1//EN"
 "http://www.w3.org/Graphics/SVG/1.1/DTD/svg11.dtd">
<!-- Generated by graphviz version 2.38.0 (20140413.2041)
 -->
<!-- Title: get_udev_usb_devinfo Pages: 1 -->
<svg width="514pt" height="47pt"
 viewBox="0.00 0.00 514.00 47.00" xmlns="http://www.w3.org/2000/svg" xmlns:xlink="http://www.w3.org/1999/xlink">
<g id="graph0" class="graph" transform="scale(1 1) rotate(0) translate(4 43)">
<title>get_udev_usb_devinfo</title>
<polygon fill="white" stroke="none" points="-4,4 -4,-43 510,-43 510,4 -4,4"/>
<!-- Node1 -->
<g id="node1" class="node"><title>Node1</title>
<polygon fill="#bfbfbf" stroke="black" points="0,-0.5 0,-19.5 118,-19.5 118,-0.5 0,-0.5"/>
<text text-anchor="middle" x="59" y="-7.5" font-family="Helvetica,sans-Serif" font-size="10.00">get_udev_usb_devinfo</text>
</g>
<!-- Node2 -->
<g id="node2" class="node"><title>Node2</title>
<g id="a_node2"><a xlink:href="udev__util_8c.html#a5f59fcfb812079209c317f1b926fb392" target="_top" xlink:title="report_udev_usb_devinfo">
<polygon fill="white" stroke="black" points="154,-0.5 154,-19.5 283,-19.5 283,-0.5 154,-0.5"/>
<text text-anchor="middle" x="218.5" y="-7.5" font-family="Helvetica,sans-Serif" font-size="10.00">report_udev_usb_devinfo</text>
</a>
</g>
</g>
<!-- Node1&#45;&gt;Node2 -->
<g id="edge1" class="edge"><title>Node1&#45;&gt;Node2</title>
<path fill="none" stroke="midnightblue" d="M118.2,-10C126.576,-10 135.287,-10 143.914,-10"/>
<polygon fill="midnightblue" stroke="midnightblue" points="143.979,-13.5001 153.979,-10 143.979,-6.5001 143.979,-13.5001"/>
</g>
<!-- Node3 -->
<g id="node3" class="node"><title>Node3</title>
<g id="a_node3"><a xlink:href="report__util_8c.html#af5b53c7ac855765e65c7f485fb2a1193" target="_top" xlink:title="rpt_structure_loc">
<polygon fill="white" stroke="black" points="319,-19.5 319,-38.5 408,-38.5 408,-19.5 319,-19.5"/>
<text text-anchor="middle" x="363.5" y="-26.5" font-family="Helvetica,sans-Serif" font-size="10.00">rpt_structure_loc</text>
</a>
</g>
</g>
<!-- Node2&#45;&gt;Node3 -->
<g id="edge2" class="edge"><title>Node2&#45;&gt;Node3</title>
<path fill="none" stroke="midnightblue" d="M283.055,-18.4443C291.646,-19.5858 300.392,-20.7478 308.788,-21.8635"/>
<polygon fill="midnightblue" stroke="midnightblue" points="308.449,-25.3491 318.823,-23.1967 309.371,-18.41 308.449,-25.3491"/>
</g>
<!-- Node4 -->
<g id="node4" class="node"><title>Node4</title>
<g id="a_node4"><a xlink:href="report__util_8c.html#ae58dfa6adb2e9f1dacce17f7b0732f26" target="_top" xlink:title="rpt_vstring">
<polygon fill="white" stroke="black" points="444,-0.5 444,-19.5 506,-19.5 506,-0.5 444,-0.5"/>
<text text-anchor="middle" x="475" y="-7.5" font-family="Helvetica,sans-Serif" font-size="10.00">rpt_vstring</text>
</a>
</g>
</g>
<!-- Node2&#45;&gt;Node4 -->
<g id="edge4" class="edge"><title>Node2&#45;&gt;Node4</title>
<path fill="none" stroke="midnightblue" d="M283.065,-10C330.333,-10 393.397,-10 433.862,-10"/>
<polygon fill="midnightblue" stroke="midnightblue" points="433.89,-13.5001 443.89,-10 433.89,-6.5001 433.89,-13.5001"/>
</g>
<!-- Node3&#45;&gt;Node4 -->
<g id="edge3" class="edge"><title>Node3&#45;&gt;Node4</title>
<path fill="none" stroke="midnightblue" d="M408.092,-21.4361C416.572,-19.9647 425.425,-18.4285 433.79,-16.9771"/>
<polygon fill="midnightblue" stroke="midnightblue" points="434.439,-20.4168 443.694,-15.2587 433.242,-13.5199 434.439,-20.4168"/>
</g>
</g>
</svg>
