<?xml version="1.0" encoding="UTF-8" standalone="no"?>
<!DOCTYPE svg PUBLIC "-//W3C//DTD SVG 1.1//EN"
 "http://www.w3.org/Graphics/SVG/1.1/DTD/svg11.dtd">
<!-- Generated by graphviz version 2.38.0 (20140413.2041)
 -->
<!-- Title: udev_util.c Pages: 1 -->
<!--zoomable 196 -->
<svg id="main" version="1.1" xmlns="http://www.w3.org/2000/svg" xmlns:xlink="http://www.w3.org/1999/xlink" xml:space="preserve" onload="init(evt)">
<style type="text/css"><![CDATA[
.edge:hover path { stroke: red; }
.edge:hover polygon { stroke: red; fill: red; }
]]></style>
<script type="text/javascript"><![CDATA[
var edges = document.getElementsByTagName('g');
if (edges && edges.length) {
  for (var i=0;i<edges.length;i++) {
    if (edges[i].id.substr(0,4)=='edge') {
      edges[i].setAttribute('class','edge');
    }
  }
}
]]></script>
        <defs>
                <circle id="rim" cx="0" cy="0" r="7"/>
                <circle id="rim2" cx="0" cy="0" r="3.5"/>
                <g id="zoomPlus">
                        <use xlink:href="#rim" fill="#404040">
                                <set attributeName="fill" to="#808080" begin="zoomplus.mouseover" end="zoomplus.mouseout"/>
                        </use>
                        <path d="M-4,0h8M0,-4v8" fill="none" stroke="white" stroke-width="1.5" pointer-events="none"/>
                </g>
                <g id="zoomMin">
                        <use xlink:href="#rim" fill="#404040">
                                <set attributeName="fill" to="#808080" begin="zoomminus.mouseover" end="zoomminus.mouseout"/>
                        </use>
                        <path d="M-4,0h8" fill="none" stroke="white" stroke-width="1.5" pointer-events="none"/>
                </g>
                <g id="dirArrow">
                        <path fill="none" stroke="white" stroke-width="1.5" d="M0,-3.0v7 M-2.5,-0.5L0,-3.0L2.5,-0.5"/>
                </g>
               <g id="resetDef">
                       <use xlink:href="#rim2" fill="#404040">
                               <set attributeName="fill" to="#808080" begin="reset.mouseover" end="reset.mouseout"/>
                       </use>
               </g>
        </defs>

<script type="text/javascript">
var viewWidth = 659;
var viewHeight = 196;
var sectionId = 'dynsection-0';
</script>
<script xlink:href="svgpan.js"/>
<svg id="graph" class="graph">
<g id="viewport">
<title>udev_util.c</title>
<polygon fill="white" stroke="none" points="-4,4 -4,-192 655,-192 655,4 -4,4"/>
<!-- Node1 -->
<g id="node1" class="node"><title>Node1</title>
<polygon fill="#bfbfbf" stroke="black" points="280,-168.5 280,-187.5 344,-187.5 344,-168.5 280,-168.5"/>
<text text-anchor="middle" x="312" y="-175.5" font-family="Helvetica,sans-Serif" font-size="10.00">udev_util.c</text>
</g>
<!-- Node2 -->
<g id="node2" class="node"><title>Node2</title>
<polygon fill="white" stroke="#bfbfbf" points="0,-112.5 0,-131.5 52,-131.5 52,-112.5 0,-112.5"/>
<text text-anchor="middle" x="26" y="-119.5" font-family="Helvetica,sans-Serif" font-size="10.00">assert.h</text>
</g>
<!-- Node1&#45;&gt;Node2 -->
<g id="edge1" class="edge"><title>Node1&#45;&gt;Node2</title>
<path fill="none" stroke="midnightblue" d="M279.684,-171.517C232.583,-163.429 142.363,-147.569 66,-132 64.7446,-131.744 63.4679,-131.48 62.1793,-131.209"/>
<polygon fill="midnightblue" stroke="midnightblue" points="62.7309,-127.748 52.2175,-129.058 61.2534,-134.59 62.7309,-127.748"/>
</g>
<!-- Node3 -->
<g id="node3" class="node"><title>Node3</title>
<polygon fill="white" stroke="#bfbfbf" points="316,-0.5 316,-19.5 356,-19.5 356,-0.5 316,-0.5"/>
<text text-anchor="middle" x="336" y="-7.5" font-family="Helvetica,sans-Serif" font-size="10.00">glib.h</text>
</g>
<!-- Node1&#45;&gt;Node3 -->
<g id="edge2" class="edge"><title>Node1&#45;&gt;Node3</title>
<path fill="none" stroke="midnightblue" d="M344.189,-170.067C387.189,-158.817 461.291,-131.954 490,-76 515.169,-26.946 418.163,-14.9017 366.46,-11.9519"/>
<polygon fill="midnightblue" stroke="midnightblue" points="366.334,-8.44167 356.175,-11.4504 365.993,-15.4334 366.334,-8.44167"/>
</g>
<!-- Node4 -->
<g id="node4" class="node"><title>Node4</title>
<polygon fill="white" stroke="#bfbfbf" points="25,-56.5 25,-75.5 71,-75.5 71,-56.5 25,-56.5"/>
<text text-anchor="middle" x="48" y="-63.5" font-family="Helvetica,sans-Serif" font-size="10.00">stdio.h</text>
</g>
<!-- Node1&#45;&gt;Node4 -->
<g id="edge3" class="edge"><title>Node1&#45;&gt;Node4</title>
<path fill="none" stroke="midnightblue" d="M279.892,-176.89C235.874,-175.334 155.791,-167.357 99,-132 80.4211,-120.433 65.872,-99.5645 57.1489,-84.5908"/>
<polygon fill="midnightblue" stroke="midnightblue" points="60.1708,-82.8226 52.274,-75.7592 54.0424,-86.2054 60.1708,-82.8226"/>
</g>
<!-- Node5 -->
<g id="node5" class="node"><title>Node5</title>
<polygon fill="white" stroke="#bfbfbf" points="537.5,-112.5 537.5,-131.5 584.5,-131.5 584.5,-112.5 537.5,-112.5"/>
<text text-anchor="middle" x="561" y="-119.5" font-family="Helvetica,sans-Serif" font-size="10.00">stdlib.h</text>
</g>
<!-- Node1&#45;&gt;Node5 -->
<g id="edge4" class="edge"><title>Node1&#45;&gt;Node5</title>
<path fill="none" stroke="midnightblue" d="M344.221,-170.363C385.648,-161.775 459.782,-146.226 523,-132 524.447,-131.674 525.924,-131.339 527.416,-130.997"/>
<polygon fill="midnightblue" stroke="midnightblue" points="528.354,-134.372 537.302,-128.699 526.77,-127.554 528.354,-134.372"/>
</g>
<!-- Node6 -->
<g id="node6" class="node"><title>Node6</title>
<polygon fill="white" stroke="#bfbfbf" points="603,-112.5 603,-131.5 651,-131.5 651,-112.5 603,-112.5"/>
<text text-anchor="middle" x="627" y="-119.5" font-family="Helvetica,sans-Serif" font-size="10.00">string.h</text>
</g>
<!-- Node1&#45;&gt;Node6 -->
<g id="edge5" class="edge"><title>Node1&#45;&gt;Node6</title>
<path fill="none" stroke="midnightblue" d="M344.22,-172.908C396.654,-166.009 503.583,-150.945 593,-132 593.101,-131.979 593.202,-131.957 593.303,-131.936"/>
<polygon fill="midnightblue" stroke="midnightblue" points="593.982,-135.371 602.925,-129.691 592.392,-128.554 593.982,-135.371"/>
</g>
<!-- Node7 -->
<g id="node7" class="node"><title>Node7</title>
<g id="a_node7"><a xlink:href="report__util_8h.html" target="_top" xlink:title="report_util.h">
<polygon fill="white" stroke="black" points="108.5,-112.5 108.5,-131.5 175.5,-131.5 175.5,-112.5 108.5,-112.5"/>
<text text-anchor="middle" x="142" y="-119.5" font-family="Helvetica,sans-Serif" font-size="10.00">report_util.h</text>
</a>
</g>
</g>
<!-- Node1&#45;&gt;Node7 -->
<g id="edge6" class="edge"><title>Node1&#45;&gt;Node7</title>
<path fill="none" stroke="midnightblue" d="M285.063,-168.444C256.34,-159.32 210.671,-144.813 178.679,-134.651"/>
<polygon fill="midnightblue" stroke="midnightblue" points="179.401,-131.208 168.811,-131.516 177.282,-137.88 179.401,-131.208"/>
</g>
<!-- Node10 -->
<g id="node10" class="node"><title>Node10</title>
<g id="a_node10"><a xlink:href="string__util_8h.html" target="_top" xlink:title="string_util.h">
<polygon fill="white" stroke="black" points="221.5,-112.5 221.5,-131.5 286.5,-131.5 286.5,-112.5 221.5,-112.5"/>
<text text-anchor="middle" x="254" y="-119.5" font-family="Helvetica,sans-Serif" font-size="10.00">string_util.h</text>
</a>
</g>
</g>
<!-- Node1&#45;&gt;Node10 -->
<g id="edge11" class="edge"><title>Node1&#45;&gt;Node10</title>
<path fill="none" stroke="midnightblue" d="M302.681,-168.324C294.107,-160.341 281.188,-148.313 270.812,-138.653"/>
<polygon fill="midnightblue" stroke="midnightblue" points="273.192,-136.086 263.488,-131.834 268.422,-141.21 273.192,-136.086"/>
</g>
<!-- Node13 -->
<g id="node13" class="node"><title>Node13</title>
<g id="a_node13"><a xlink:href="udev__util_8h.html" target="_top" xlink:title="udev_util.h">
<polygon fill="white" stroke="black" points="339,-112.5 339,-131.5 403,-131.5 403,-112.5 339,-112.5"/>
<text text-anchor="middle" x="371" y="-119.5" font-family="Helvetica,sans-Serif" font-size="10.00">udev_util.h</text>
</a>
</g>
</g>
<!-- Node1&#45;&gt;Node13 -->
<g id="edge18" class="edge"><title>Node1&#45;&gt;Node13</title>
<path fill="none" stroke="midnightblue" d="M321.479,-168.324C330.201,-160.341 343.343,-148.313 353.898,-138.653"/>
<polygon fill="midnightblue" stroke="midnightblue" points="356.334,-141.167 361.348,-131.834 351.608,-136.004 356.334,-141.167"/>
</g>
<!-- Node7&#45;&gt;Node3 -->
<g id="edge7" class="edge"><title>Node7&#45;&gt;Node3</title>
<path fill="none" stroke="midnightblue" d="M108.367,-116.19C61.8612,-108.195 -13.2272,-89.6249 16,-56 53.3705,-13.0066 232.817,-9.90635 305.416,-10.462"/>
<polygon fill="midnightblue" stroke="midnightblue" points="305.681,-13.965 315.718,-10.5716 305.756,-6.96536 305.681,-13.965"/>
</g>
<!-- Node7&#45;&gt;Node4 -->
<g id="edge8" class="edge"><title>Node7&#45;&gt;Node4</title>
<path fill="none" stroke="midnightblue" d="M126.897,-112.324C112.097,-103.822 89.3058,-90.7288 72.0178,-80.7975"/>
<polygon fill="midnightblue" stroke="midnightblue" points="73.4798,-77.6009 63.0652,-75.6545 69.9929,-83.6707 73.4798,-77.6009"/>
</g>
<!-- Node8 -->
<g id="node8" class="node"><title>Node8</title>
<polygon fill="white" stroke="#bfbfbf" points="171.5,-56.5 171.5,-75.5 228.5,-75.5 228.5,-56.5 171.5,-56.5"/>
<text text-anchor="middle" x="200" y="-63.5" font-family="Helvetica,sans-Serif" font-size="10.00">stdbool.h</text>
</g>
<!-- Node7&#45;&gt;Node8 -->
<g id="edge9" class="edge"><title>Node7&#45;&gt;Node8</title>
<path fill="none" stroke="midnightblue" d="M151.319,-112.324C159.893,-104.341 172.812,-92.3128 183.188,-82.6529"/>
<polygon fill="midnightblue" stroke="midnightblue" points="185.578,-85.2098 190.512,-75.8339 180.808,-80.0865 185.578,-85.2098"/>
</g>
<!-- Node9 -->
<g id="node9" class="node"><title>Node9</title>
<g id="a_node9"><a xlink:href="coredefs_8h.html" target="_top" xlink:title="coredefs.h">
<polygon fill="white" stroke="black" points="89,-56.5 89,-75.5 153,-75.5 153,-56.5 89,-56.5"/>
<text text-anchor="middle" x="121" y="-63.5" font-family="Helvetica,sans-Serif" font-size="10.00">coredefs.h</text>
</a>
</g>
</g>
<!-- Node7&#45;&gt;Node9 -->
<g id="edge10" class="edge"><title>Node7&#45;&gt;Node9</title>
<path fill="none" stroke="midnightblue" d="M138.532,-112.083C135.688,-104.77 131.571,-94.1814 128.04,-85.1034"/>
<polygon fill="midnightblue" stroke="midnightblue" points="131.29,-83.8025 124.403,-75.7511 124.766,-86.3397 131.29,-83.8025"/>
</g>
<!-- Node10&#45;&gt;Node4 -->
<g id="edge14" class="edge"><title>Node10&#45;&gt;Node4</title>
<path fill="none" stroke="midnightblue" d="M221.235,-112.746C188.201,-104.375 135.502,-90.8906 80.9066,-76.2046"/>
<polygon fill="midnightblue" stroke="midnightblue" points="81.6225,-72.7727 71.056,-73.5471 79.7992,-79.531 81.6225,-72.7727"/>
</g>
<!-- Node10&#45;&gt;Node8 -->
<g id="edge12" class="edge"><title>Node10&#45;&gt;Node8</title>
<path fill="none" stroke="midnightblue" d="M245.083,-112.083C237.22,-104.22 225.569,-92.5688 216.081,-83.0813"/>
<polygon fill="midnightblue" stroke="midnightblue" points="218.297,-80.3473 208.751,-75.7511 213.347,-85.2971 218.297,-80.3473"/>
</g>
<!-- Node10&#45;&gt;Node9 -->
<g id="edge15" class="edge"><title>Node10&#45;&gt;Node9</title>
<path fill="none" stroke="midnightblue" d="M232.926,-112.444C210.94,-103.517 176.266,-89.4387 151.336,-79.3168"/>
<polygon fill="midnightblue" stroke="midnightblue" points="152.558,-76.0355 141.976,-75.5164 149.924,-82.5213 152.558,-76.0355"/>
</g>
<!-- Node11 -->
<g id="node11" class="node"><title>Node11</title>
<polygon fill="white" stroke="#bfbfbf" points="321.5,-56.5 321.5,-75.5 368.5,-75.5 368.5,-56.5 321.5,-56.5"/>
<text text-anchor="middle" x="345" y="-63.5" font-family="Helvetica,sans-Serif" font-size="10.00">stdint.h</text>
</g>
<!-- Node10&#45;&gt;Node11 -->
<g id="edge13" class="edge"><title>Node10&#45;&gt;Node11</title>
<path fill="none" stroke="midnightblue" d="M268.621,-112.324C282.949,-103.822 305.013,-90.7288 321.749,-80.7975"/>
<polygon fill="midnightblue" stroke="midnightblue" points="323.602,-83.7677 330.416,-75.6545 320.03,-77.7478 323.602,-83.7677"/>
</g>
<!-- Node12 -->
<g id="node12" class="node"><title>Node12</title>
<g id="a_node12"><a xlink:href="glib__util_8h.html" target="_top" xlink:title="glib_util.h">
<polygon fill="white" stroke="black" points="246.5,-56.5 246.5,-75.5 303.5,-75.5 303.5,-56.5 246.5,-56.5"/>
<text text-anchor="middle" x="275" y="-63.5" font-family="Helvetica,sans-Serif" font-size="10.00">glib_util.h</text>
</a>
</g>
</g>
<!-- Node10&#45;&gt;Node12 -->
<g id="edge16" class="edge"><title>Node10&#45;&gt;Node12</title>
<path fill="none" stroke="midnightblue" d="M257.468,-112.083C260.312,-104.77 264.429,-94.1814 267.96,-85.1034"/>
<polygon fill="midnightblue" stroke="midnightblue" points="271.234,-86.3397 271.597,-75.7511 264.71,-83.8025 271.234,-86.3397"/>
</g>
<!-- Node12&#45;&gt;Node3 -->
<g id="edge17" class="edge"><title>Node12&#45;&gt;Node3</title>
<path fill="none" stroke="midnightblue" d="M284.801,-56.324C293.818,-48.3414 307.406,-36.3128 318.318,-26.6529"/>
<polygon fill="midnightblue" stroke="midnightblue" points="320.853,-29.083 326.021,-19.8339 316.213,-23.8416 320.853,-29.083"/>
</g>
<!-- Node13&#45;&gt;Node3 -->
<g id="edge19" class="edge"><title>Node13&#45;&gt;Node3</title>
<path fill="none" stroke="midnightblue" d="M374.22,-112.245C378.407,-99.4296 384.366,-75.0224 377,-56 372.546,-44.498 363.632,-34.1311 355.251,-26.2546"/>
<polygon fill="midnightblue" stroke="midnightblue" points="357.372,-23.4599 347.541,-19.5103 352.763,-28.7286 357.372,-23.4599"/>
</g>
<!-- Node13&#45;&gt;Node11 -->
<g id="edge21" class="edge"><title>Node13&#45;&gt;Node11</title>
<path fill="none" stroke="midnightblue" d="M366.707,-112.083C363.148,-104.691 357.978,-93.9533 353.576,-84.8111"/>
<polygon fill="midnightblue" stroke="midnightblue" points="356.705,-83.2427 349.213,-75.7511 350.398,-86.2795 356.705,-83.2427"/>
</g>
<!-- Node14 -->
<g id="node14" class="node"><title>Node14</title>
<polygon fill="white" stroke="#bfbfbf" points="425,-56.5 425,-75.5 481,-75.5 481,-56.5 425,-56.5"/>
<text text-anchor="middle" x="453" y="-63.5" font-family="Helvetica,sans-Serif" font-size="10.00">libudev.h</text>
</g>
<!-- Node13&#45;&gt;Node14 -->
<g id="edge20" class="edge"><title>Node13&#45;&gt;Node14</title>
<path fill="none" stroke="midnightblue" d="M384.175,-112.324C396.847,-103.979 416.233,-91.2122 431.206,-81.3524"/>
<polygon fill="midnightblue" stroke="midnightblue" points="433.431,-84.0776 439.858,-75.6545 429.581,-78.2313 433.431,-84.0776"/>
</g>
</g>
</svg>
        <g id="navigator" transform="translate(0 0)" fill="#404254">
                <rect fill="#f2f5e9" fill-opacity="0.5" stroke="#606060" stroke-width=".5" x="0" y="0" width="60" height="60"/>
                <use id="zoomplus" xlink:href="#zoomPlus" x="17" y="9" onmousedown="handleZoom(evt,'in')"/>
                <use id="zoomminus" xlink:href="#zoomMin" x="42" y="9" onmousedown="handleZoom(evt,'out')"/>
                <use id="reset" xlink:href="#resetDef" x="30" y="36" onmousedown="handleReset()"/>
                <g id="arrowUp" xlink:href="#dirArrow" transform="translate(30 24)" onmousedown="handlePan(0,-1)">
                  <use xlink:href="#rim" fill="#404040">
                        <set attributeName="fill" to="#808080" begin="arrowUp.mouseover" end="arrowUp.mouseout"/>
                  </use>
                  <path fill="none" stroke="white" stroke-width="1.5" d="M0,-3.0v7 M-2.5,-0.5L0,-3.0L2.5,-0.5"/>
                </g>
                <g id="arrowRight" xlink:href="#dirArrow" transform="rotate(90) translate(36 -43)" onmousedown="handlePan(1,0)">
                  <use xlink:href="#rim" fill="#404040">
                        <set attributeName="fill" to="#808080" begin="arrowRight.mouseover" end="arrowRight.mouseout"/>
                  </use>
                  <path fill="none" stroke="white" stroke-width="1.5" d="M0,-3.0v7 M-2.5,-0.5L0,-3.0L2.5,-0.5"/>
                </g>
                <g id="arrowDown" xlink:href="#dirArrow" transform="rotate(180) translate(-30 -48)" onmousedown="handlePan(0,1)">
                  <use xlink:href="#rim" fill="#404040">
                        <set attributeName="fill" to="#808080" begin="arrowDown.mouseover" end="arrowDown.mouseout"/>
                  </use>
                  <path fill="none" stroke="white" stroke-width="1.5" d="M0,-3.0v7 M-2.5,-0.5L0,-3.0L2.5,-0.5"/>
                </g>
                <g id="arrowLeft" xlink:href="#dirArrow" transform="rotate(270) translate(-36 17)" onmousedown="handlePan(-1,0)">
                  <use xlink:href="#rim" fill="#404040">
                        <set attributeName="fill" to="#808080" begin="arrowLeft.mouseover" end="arrowLeft.mouseout"/>
                  </use>
                  <path fill="none" stroke="white" stroke-width="1.5" d="M0,-3.0v7 M-2.5,-0.5L0,-3.0L2.5,-0.5"/>
                </g>
        </g>
        <svg viewBox="0 0 15 15" width="100%" height="30px" preserveAspectRatio="xMaxYMin meet">
         <g id="arrow_out" transform="scale(0.3 0.3)">
          <a xlink:href="udev__util_8c__incl_org.svg" target="_base">
           <rect id="button" ry="5" rx="5" y="6" x="6" height="38" width="38"
                fill="#f2f5e9" fill-opacity="0.5" stroke="#606060" stroke-width="1.0"/>
           <path id="arrow"
             d="M 11.500037,31.436501 C 11.940474,20.09759 22.043105,11.32322 32.158766,21.979434 L 37.068811,17.246167 C 37.068811,17.246167 37.088388,32 37.088388,32 L 22.160133,31.978069 C 22.160133,31.978069 26.997745,27.140456 26.997745,27.140456 C 18.528582,18.264221 13.291696,25.230495 11.500037,31.436501 z"
             style="fill:#404040;"/>
          </a>
         </g>
        </svg>
</svg>
