<?xml version="1.0" encoding="UTF-8" standalone="no"?>
<!DOCTYPE svg PUBLIC "-//W3C//DTD SVG 1.1//EN"
 "http://www.w3.org/Graphics/SVG/1.1/DTD/svg11.dtd">
<!-- Generated by graphviz version 2.38.0 (20140413.2041)
 -->
<!-- Title: probe_udev_subsystem Pages: 1 -->
<svg width="496pt" height="250pt"
 viewBox="0.00 0.00 496.00 250.10" xmlns="http://www.w3.org/2000/svg" xmlns:xlink="http://www.w3.org/1999/xlink">
<g id="graph0" class="graph" transform="scale(1 1) rotate(0) translate(4 246.101)">
<title>probe_udev_subsystem</title>
<polygon fill="white" stroke="none" points="-4,4 -4,-246.101 492,-246.101 492,4 -4,4"/>
<!-- Node1 -->
<g id="node1" class="node"><title>Node1</title>
<polygon fill="#bfbfbf" stroke="black" points="0,-51.6015 0,-70.6015 123,-70.6015 123,-51.6015 0,-51.6015"/>
<text text-anchor="middle" x="61.5" y="-58.6015" font-family="Helvetica,sans-Serif" font-size="10.00">probe_udev_subsystem</text>
</g>
<!-- Node2 -->
<g id="node2" class="node"><title>Node2</title>
<g id="a_node2"><a xlink:href="udev__util_8c.html#a25d919095c7730db7bd16fb6ebd92743" target="_top" xlink:title="report_udev_device">
<polygon fill="white" stroke="black" points="159,-108.601 159,-127.601 265,-127.601 265,-108.601 159,-108.601"/>
<text text-anchor="middle" x="212" y="-115.601" font-family="Helvetica,sans-Serif" font-size="10.00">report_udev_device</text>
</a>
</g>
</g>
<!-- Node1&#45;&gt;Node2 -->
<g id="edge1" class="edge"><title>Node1&#45;&gt;Node2</title>
<path fill="none" stroke="midnightblue" d="M87.3556,-70.642C111.77,-80.0131 149.223,-94.3891 176.512,-104.864"/>
<polygon fill="midnightblue" stroke="midnightblue" points="175.473,-108.214 186.063,-108.53 177.982,-101.679 175.473,-108.214"/>
</g>
<!-- Node6 -->
<g id="node6" class="node"><title>Node6</title>
<g id="a_node6"><a xlink:href="report__util_8c.html#ae58dfa6adb2e9f1dacce17f7b0732f26" target="_top" xlink:title="rpt_vstring">
<polygon fill="white" stroke="black" points="426,-108.601 426,-127.601 488,-127.601 488,-108.601 426,-108.601"/>
<text text-anchor="middle" x="457" y="-115.601" font-family="Helvetica,sans-Serif" font-size="10.00">rpt_vstring</text>
</a>
</g>
</g>
<!-- Node1&#45;&gt;Node6 -->
<g id="edge9" class="edge"><title>Node1&#45;&gt;Node6</title>
<path fill="none" stroke="midnightblue" d="M81.9773,-51.6004C134.957,-27.2134 284.75,31.9347 390,-23.1015 420.557,-39.08 439.815,-76.3611 449.184,-99.1807"/>
<polygon fill="midnightblue" stroke="midnightblue" points="445.925,-100.457 452.798,-108.519 452.453,-97.9301 445.925,-100.457"/>
</g>
<!-- Node3 -->
<g id="node3" class="node"><title>Node3</title>
<g id="a_node3"><a xlink:href="string__util_8c.html#a5db6062886ba44024fed481315c41e64" target="_top" xlink:title="ntsa_free">
<polygon fill="white" stroke="black" points="316.5,-222.601 316.5,-241.601 374.5,-241.601 374.5,-222.601 316.5,-222.601"/>
<text text-anchor="middle" x="345.5" y="-229.601" font-family="Helvetica,sans-Serif" font-size="10.00">ntsa_free</text>
</a>
</g>
</g>
<!-- Node2&#45;&gt;Node3 -->
<g id="edge2" class="edge"><title>Node2&#45;&gt;Node3</title>
<path fill="none" stroke="midnightblue" d="M219.728,-127.674C233.242,-146.309 265.445,-187.841 301,-213.101 303.393,-214.802 305.963,-216.397 308.613,-217.883"/>
<polygon fill="midnightblue" stroke="midnightblue" points="307.293,-221.137 317.798,-222.511 310.442,-214.885 307.293,-221.137"/>
</g>
<!-- Node4 -->
<g id="node4" class="node"><title>Node4</title>
<g id="a_node4"><a xlink:href="string__util_8c.html#a30d5da07ffd3470b7a0858166e0871ad" target="_top" xlink:title="ntsa_length">
<polygon fill="white" stroke="black" points="311.5,-184.601 311.5,-203.601 379.5,-203.601 379.5,-184.601 311.5,-184.601"/>
<text text-anchor="middle" x="345.5" y="-191.601" font-family="Helvetica,sans-Serif" font-size="10.00">ntsa_length</text>
</a>
</g>
</g>
<!-- Node2&#45;&gt;Node4 -->
<g id="edge3" class="edge"><title>Node2&#45;&gt;Node4</title>
<path fill="none" stroke="midnightblue" d="M226.299,-127.696C243.179,-139.642 273.424,-160.276 301,-175.101 304.316,-176.884 307.834,-178.636 311.377,-180.311"/>
<polygon fill="midnightblue" stroke="midnightblue" points="310.135,-183.591 320.687,-184.533 313.026,-177.216 310.135,-183.591"/>
</g>
<!-- Node5 -->
<g id="node5" class="node"><title>Node5</title>
<g id="a_node5"><a xlink:href="report__util_8c.html#af5b53c7ac855765e65c7f485fb2a1193" target="_top" xlink:title="rpt_structure_loc">
<polygon fill="white" stroke="black" points="301,-146.601 301,-165.601 390,-165.601 390,-146.601 301,-146.601"/>
<text text-anchor="middle" x="345.5" y="-153.601" font-family="Helvetica,sans-Serif" font-size="10.00">rpt_structure_loc</text>
</a>
</g>
</g>
<!-- Node2&#45;&gt;Node5 -->
<g id="edge4" class="edge"><title>Node2&#45;&gt;Node5</title>
<path fill="none" stroke="midnightblue" d="M246.183,-127.69C263.003,-132.551 283.626,-138.511 301.634,-143.714"/>
<polygon fill="midnightblue" stroke="midnightblue" points="300.749,-147.102 311.328,-146.516 302.692,-140.377 300.749,-147.102"/>
</g>
<!-- Node2&#45;&gt;Node6 -->
<g id="edge6" class="edge"><title>Node2&#45;&gt;Node6</title>
<path fill="none" stroke="midnightblue" d="M265.13,-118.101C310.159,-118.101 374.306,-118.101 415.548,-118.101"/>
<polygon fill="midnightblue" stroke="midnightblue" points="415.77,-121.602 425.77,-118.101 415.77,-114.602 415.77,-121.602"/>
</g>
<!-- Node7 -->
<g id="node7" class="node"><title>Node7</title>
<g id="a_node7"><a xlink:href="string__util_8c.html#a421e5f914841061096ef1977d1501b32" target="_top" xlink:title="streq">
<polygon fill="white" stroke="black" points="326,-70.6015 326,-89.6015 365,-89.6015 365,-70.6015 326,-70.6015"/>
<text text-anchor="middle" x="345.5" y="-77.6015" font-family="Helvetica,sans-Serif" font-size="10.00">streq</text>
</a>
</g>
</g>
<!-- Node2&#45;&gt;Node7 -->
<g id="edge7" class="edge"><title>Node2&#45;&gt;Node7</title>
<path fill="none" stroke="midnightblue" d="M246.183,-108.512C267.792,-102.268 295.681,-94.2089 316.233,-88.27"/>
<polygon fill="midnightblue" stroke="midnightblue" points="317.32,-91.599 325.956,-85.4603 315.377,-84.8741 317.32,-91.599"/>
</g>
<!-- Node8 -->
<g id="node8" class="node"><title>Node8</title>
<g id="a_node8"><a xlink:href="string__util_8c.html#a0d0184489aca3b5345de818a5b6bd1c3" target="_top" xlink:title="strsplit">
<polygon fill="white" stroke="black" points="323.5,-32.6015 323.5,-51.6015 367.5,-51.6015 367.5,-32.6015 323.5,-32.6015"/>
<text text-anchor="middle" x="345.5" y="-39.6015" font-family="Helvetica,sans-Serif" font-size="10.00">strsplit</text>
</a>
</g>
</g>
<!-- Node2&#45;&gt;Node8 -->
<g id="edge8" class="edge"><title>Node2&#45;&gt;Node8</title>
<path fill="none" stroke="midnightblue" d="M226.299,-108.507C243.179,-96.5614 273.424,-75.927 301,-61.1015 305.112,-58.8906 309.535,-56.7276 313.929,-54.6998"/>
<polygon fill="midnightblue" stroke="midnightblue" points="315.651,-57.7649 323.372,-50.5099 312.812,-51.3665 315.651,-57.7649"/>
</g>
<!-- Node5&#45;&gt;Node6 -->
<g id="edge5" class="edge"><title>Node5&#45;&gt;Node6</title>
<path fill="none" stroke="midnightblue" d="M374.131,-146.512C387.618,-141.832 404.043,-136.132 418.63,-131.07"/>
<polygon fill="midnightblue" stroke="midnightblue" points="420.078,-134.273 428.377,-127.687 417.783,-127.659 420.078,-134.273"/>
</g>
</g>
</svg>
