<?xml version="1.0" encoding="UTF-8" standalone="no"?>
<!DOCTYPE svg PUBLIC "-//W3C//DTD SVG 1.1//EN"
 "http://www.w3.org/Graphics/SVG/1.1/DTD/svg11.dtd">
<!-- Generated by graphviz version 2.38.0 (20140413.2041)
 -->
<!-- Title: probe_udev_subsystem Pages: 1 -->
<svg width="496pt" height="256pt"
 viewBox="0.00 0.00 496.00 256.42" xmlns="http://www.w3.org/2000/svg" xmlns:xlink="http://www.w3.org/1999/xlink">
<g id="graph0" class="graph" transform="scale(1 1) rotate(0) translate(4 252.422)">
<title>probe_udev_subsystem</title>
<polygon fill="white" stroke="none" points="-4,4 -4,-252.422 492,-252.422 492,4 -4,4"/>
<!-- Node1 -->
<g id="node1" class="node"><title>Node1</title>
<polygon fill="#bfbfbf" stroke="black" points="0,-57.9218 0,-76.9218 123,-76.9218 123,-57.9218 0,-57.9218"/>
<text text-anchor="middle" x="61.5" y="-64.9218" font-family="Helvetica,sans-Serif" font-size="10.00">probe_udev_subsystem</text>
</g>
<!-- Node2 -->
<g id="node2" class="node"><title>Node2</title>
<g id="a_node2"><a xlink:href="udev__util_8c.html#a25d919095c7730db7bd16fb6ebd92743" target="_top" xlink:title="report_udev_device">
<polygon fill="white" stroke="black" points="159,-114.922 159,-133.922 265,-133.922 265,-114.922 159,-114.922"/>
<text text-anchor="middle" x="212" y="-121.922" font-family="Helvetica,sans-Serif" font-size="10.00">report_udev_device</text>
</a>
</g>
</g>
<!-- Node1&#45;&gt;Node2 -->
<g id="edge1" class="edge"><title>Node1&#45;&gt;Node2</title>
<path fill="none" stroke="midnightblue" d="M87.3556,-76.9623C111.77,-86.3334 149.223,-100.709 176.512,-111.184"/>
<polygon fill="midnightblue" stroke="midnightblue" points="175.473,-114.534 186.063,-114.85 177.982,-107.999 175.473,-114.534"/>
</g>
<!-- Node4 -->
<g id="node4" class="node"><title>Node4</title>
<g id="a_node4"><a xlink:href="report__util_8c.html#ae58dfa6adb2e9f1dacce17f7b0732f26" target="_top" xlink:title="rpt_vstring">
<polygon fill="white" stroke="black" points="426,-190.922 426,-209.922 488,-209.922 488,-190.922 426,-190.922"/>
<text text-anchor="middle" x="457" y="-197.922" font-family="Helvetica,sans-Serif" font-size="10.00">rpt_vstring</text>
</a>
</g>
</g>
<!-- Node1&#45;&gt;Node4 -->
<g id="edge9" class="edge"><title>Node1&#45;&gt;Node4</title>
<path fill="none" stroke="midnightblue" d="M80.443,-57.7884C133.251,-30.8876 290.64,38.7327 390,-29.4218 440.655,-64.1678 452.444,-143.738 455.179,-180.78"/>
<polygon fill="midnightblue" stroke="midnightblue" points="451.688,-181.037 455.77,-190.814 458.676,-180.626 451.688,-181.037"/>
</g>
<!-- Node3 -->
<g id="node3" class="node"><title>Node3</title>
<g id="a_node3"><a xlink:href="report__util_8c.html#af5b53c7ac855765e65c7f485fb2a1193" target="_top" xlink:title="rpt_structure_loc">
<polygon fill="white" stroke="black" points="301,-228.922 301,-247.922 390,-247.922 390,-228.922 301,-228.922"/>
<text text-anchor="middle" x="345.5" y="-235.922" font-family="Helvetica,sans-Serif" font-size="10.00">rpt_structure_loc</text>
</a>
</g>
</g>
<!-- Node2&#45;&gt;Node3 -->
<g id="edge2" class="edge"><title>Node2&#45;&gt;Node3</title>
<path fill="none" stroke="midnightblue" d="M220.714,-133.994C235.146,-151.489 267.782,-189.149 301,-214.422 305.462,-217.817 310.462,-221.035 315.44,-223.947"/>
<polygon fill="midnightblue" stroke="midnightblue" points="313.811,-227.046 324.255,-228.831 317.204,-220.923 313.811,-227.046"/>
</g>
<!-- Node2&#45;&gt;Node4 -->
<g id="edge4" class="edge"><title>Node2&#45;&gt;Node4</title>
<path fill="none" stroke="midnightblue" d="M224.048,-133.992C239.897,-147.125 270.546,-170.361 301,-181.422 338.318,-194.975 383.663,-199.24 415.639,-200.408"/>
<polygon fill="midnightblue" stroke="midnightblue" points="415.847,-203.915 425.94,-200.694 416.041,-196.917 415.847,-203.915"/>
</g>
<!-- Node5 -->
<g id="node5" class="node"><title>Node5</title>
<g id="a_node5"><a xlink:href="string__util_8c.html#a421e5f914841061096ef1977d1501b32" target="_top" xlink:title="streq">
<polygon fill="white" stroke="black" points="326,-152.922 326,-171.922 365,-171.922 365,-152.922 326,-152.922"/>
<text text-anchor="middle" x="345.5" y="-159.922" font-family="Helvetica,sans-Serif" font-size="10.00">streq</text>
</a>
</g>
</g>
<!-- Node2&#45;&gt;Node5 -->
<g id="edge5" class="edge"><title>Node2&#45;&gt;Node5</title>
<path fill="none" stroke="midnightblue" d="M246.183,-134.011C267.792,-140.255 295.681,-148.314 316.233,-154.253"/>
<polygon fill="midnightblue" stroke="midnightblue" points="315.377,-157.649 325.956,-157.063 317.32,-150.924 315.377,-157.649"/>
</g>
<!-- Node6 -->
<g id="node6" class="node"><title>Node6</title>
<g id="a_node6"><a xlink:href="string__util_8c.html#a0d0184489aca3b5345de818a5b6bd1c3" target="_top" xlink:title="strsplit">
<polygon fill="white" stroke="black" points="323.5,-114.922 323.5,-133.922 367.5,-133.922 367.5,-114.922 323.5,-114.922"/>
<text text-anchor="middle" x="345.5" y="-121.922" font-family="Helvetica,sans-Serif" font-size="10.00">strsplit</text>
</a>
</g>
</g>
<!-- Node2&#45;&gt;Node6 -->
<g id="edge6" class="edge"><title>Node2&#45;&gt;Node6</title>
<path fill="none" stroke="midnightblue" d="M265.35,-124.422C281.559,-124.422 298.903,-124.422 313.212,-124.422"/>
<polygon fill="midnightblue" stroke="midnightblue" points="313.493,-127.922 323.493,-124.422 313.493,-120.922 313.493,-127.922"/>
</g>
<!-- Node7 -->
<g id="node7" class="node"><title>Node7</title>
<g id="a_node7"><a xlink:href="string__util_8c.html#a30d5da07ffd3470b7a0858166e0871ad" target="_top" xlink:title="ntsa_length">
<polygon fill="white" stroke="black" points="311.5,-76.9218 311.5,-95.9218 379.5,-95.9218 379.5,-76.9218 311.5,-76.9218"/>
<text text-anchor="middle" x="345.5" y="-83.9218" font-family="Helvetica,sans-Serif" font-size="10.00">ntsa_length</text>
</a>
</g>
</g>
<!-- Node2&#45;&gt;Node7 -->
<g id="edge7" class="edge"><title>Node2&#45;&gt;Node7</title>
<path fill="none" stroke="midnightblue" d="M246.183,-114.833C263.003,-109.972 283.626,-104.013 301.634,-98.8091"/>
<polygon fill="midnightblue" stroke="midnightblue" points="302.692,-102.146 311.328,-96.0077 300.749,-95.4215 302.692,-102.146"/>
</g>
<!-- Node8 -->
<g id="node8" class="node"><title>Node8</title>
<g id="a_node8"><a xlink:href="string__util_8c.html#a5db6062886ba44024fed481315c41e64" target="_top" xlink:title="ntsa_free">
<polygon fill="white" stroke="black" points="316.5,-38.9218 316.5,-57.9218 374.5,-57.9218 374.5,-38.9218 316.5,-38.9218"/>
<text text-anchor="middle" x="345.5" y="-45.9218" font-family="Helvetica,sans-Serif" font-size="10.00">ntsa_free</text>
</a>
</g>
</g>
<!-- Node2&#45;&gt;Node8 -->
<g id="edge8" class="edge"><title>Node2&#45;&gt;Node8</title>
<path fill="none" stroke="midnightblue" d="M226.299,-114.827C243.179,-102.882 273.424,-82.2473 301,-67.4218 304.316,-65.6389 307.834,-63.8872 311.377,-62.2124"/>
<polygon fill="midnightblue" stroke="midnightblue" points="313.026,-65.3077 320.687,-57.99 310.135,-58.9326 313.026,-65.3077"/>
</g>
<!-- Node3&#45;&gt;Node4 -->
<g id="edge3" class="edge"><title>Node3&#45;&gt;Node4</title>
<path fill="none" stroke="midnightblue" d="M374.131,-228.833C387.618,-224.152 404.043,-218.453 418.63,-213.39"/>
<polygon fill="midnightblue" stroke="midnightblue" points="420.078,-216.593 428.377,-210.008 417.783,-209.98 420.078,-216.593"/>
</g>
</g>
</svg>
