<?xml version="1.0" encoding="UTF-8" standalone="no"?>
<!DOCTYPE svg PUBLIC "-//W3C//DTD SVG 1.1//EN"
 "http://www.w3.org/Graphics/SVG/1.1/DTD/svg11.dtd">
<!-- Generated by graphviz version 2.38.0 (20140413.2041)
 -->
<!-- Title: report_udev_device Pages: 1 -->
<svg width="337pt" height="218pt"
 viewBox="0.00 0.00 337.00 218.00" xmlns="http://www.w3.org/2000/svg" xmlns:xlink="http://www.w3.org/1999/xlink">
<g id="graph0" class="graph" transform="scale(1 1) rotate(0) translate(4 214)">
<title>report_udev_device</title>
<polygon fill="white" stroke="none" points="-4,4 -4,-214 333,-214 333,4 -4,4"/>
<!-- Node1 -->
<g id="node1" class="node"><title>Node1</title>
<polygon fill="#bfbfbf" stroke="black" points="0,-95.5 0,-114.5 106,-114.5 106,-95.5 0,-95.5"/>
<text text-anchor="middle" x="53" y="-102.5" font-family="Helvetica,sans-Serif" font-size="10.00">report_udev_device</text>
</g>
<!-- Node2 -->
<g id="node2" class="node"><title>Node2</title>
<g id="a_node2"><a xlink:href="string__util_8c.html#a5db6062886ba44024fed481315c41e64" target="_top" xlink:title="ntsa_free">
<polygon fill="white" stroke="black" points="157.5,-190.5 157.5,-209.5 215.5,-209.5 215.5,-190.5 157.5,-190.5"/>
<text text-anchor="middle" x="186.5" y="-197.5" font-family="Helvetica,sans-Serif" font-size="10.00">ntsa_free</text>
</a>
</g>
</g>
<!-- Node1&#45;&gt;Node2 -->
<g id="edge1" class="edge"><title>Node1&#45;&gt;Node2</title>
<path fill="none" stroke="midnightblue" d="M63.5091,-114.956C78.8603,-130.603 110.571,-161.204 142,-181 144.789,-182.757 147.769,-184.429 150.811,-185.999"/>
<polygon fill="midnightblue" stroke="midnightblue" points="149.467,-189.236 159.999,-190.389 152.485,-182.92 149.467,-189.236"/>
</g>
<!-- Node3 -->
<g id="node3" class="node"><title>Node3</title>
<g id="a_node3"><a xlink:href="string__util_8c.html#a30d5da07ffd3470b7a0858166e0871ad" target="_top" xlink:title="ntsa_length">
<polygon fill="white" stroke="black" points="152.5,-152.5 152.5,-171.5 220.5,-171.5 220.5,-152.5 152.5,-152.5"/>
<text text-anchor="middle" x="186.5" y="-159.5" font-family="Helvetica,sans-Serif" font-size="10.00">ntsa_length</text>
</a>
</g>
</g>
<!-- Node1&#45;&gt;Node3 -->
<g id="edge2" class="edge"><title>Node1&#45;&gt;Node3</title>
<path fill="none" stroke="midnightblue" d="M76.0101,-114.541C97.3448,-123.788 129.924,-137.91 154.002,-148.347"/>
<polygon fill="midnightblue" stroke="midnightblue" points="152.851,-151.663 163.418,-152.428 155.635,-145.24 152.851,-151.663"/>
</g>
<!-- Node4 -->
<g id="node4" class="node"><title>Node4</title>
<g id="a_node4"><a xlink:href="report__util_8c.html#af5b53c7ac855765e65c7f485fb2a1193" target="_top" xlink:title="rpt_structure_loc">
<polygon fill="white" stroke="black" points="142,-114.5 142,-133.5 231,-133.5 231,-114.5 142,-114.5"/>
<text text-anchor="middle" x="186.5" y="-121.5" font-family="Helvetica,sans-Serif" font-size="10.00">rpt_structure_loc</text>
</a>
</g>
</g>
<!-- Node1&#45;&gt;Node4 -->
<g id="edge3" class="edge"><title>Node1&#45;&gt;Node4</title>
<path fill="none" stroke="midnightblue" d="M106.35,-112.564C114.701,-113.77 123.353,-115.021 131.736,-116.232"/>
<polygon fill="midnightblue" stroke="midnightblue" points="131.392,-119.718 141.789,-117.684 132.393,-112.79 131.392,-119.718"/>
</g>
<!-- Node5 -->
<g id="node5" class="node"><title>Node5</title>
<g id="a_node5"><a xlink:href="report__util_8c.html#ae58dfa6adb2e9f1dacce17f7b0732f26" target="_top" xlink:title="rpt_vstring">
<polygon fill="white" stroke="black" points="267,-95.5 267,-114.5 329,-114.5 329,-95.5 267,-95.5"/>
<text text-anchor="middle" x="298" y="-102.5" font-family="Helvetica,sans-Serif" font-size="10.00">rpt_vstring</text>
</a>
</g>
</g>
<!-- Node1&#45;&gt;Node5 -->
<g id="edge5" class="edge"><title>Node1&#45;&gt;Node5</title>
<path fill="none" stroke="midnightblue" d="M106.13,-105C151.159,-105 215.306,-105 256.548,-105"/>
<polygon fill="midnightblue" stroke="midnightblue" points="256.77,-108.5 266.77,-105 256.77,-101.5 256.77,-108.5"/>
</g>
<!-- Node6 -->
<g id="node6" class="node"><title>Node6</title>
<g id="a_node6"><a xlink:href="string__util_8c.html#a421e5f914841061096ef1977d1501b32" target="_top" xlink:title="streq">
<polygon fill="white" stroke="black" points="167,-38.5 167,-57.5 206,-57.5 206,-38.5 167,-38.5"/>
<text text-anchor="middle" x="186.5" y="-45.5" font-family="Helvetica,sans-Serif" font-size="10.00">streq</text>
</a>
</g>
</g>
<!-- Node1&#45;&gt;Node6 -->
<g id="edge6" class="edge"><title>Node1&#45;&gt;Node6</title>
<path fill="none" stroke="midnightblue" d="M76.0101,-95.4595C98.373,-85.7661 133.091,-70.7174 157.421,-60.1709"/>
<polygon fill="midnightblue" stroke="midnightblue" points="159.044,-63.2823 166.827,-56.0939 156.26,-56.8597 159.044,-63.2823"/>
</g>
<!-- Node7 -->
<g id="node7" class="node"><title>Node7</title>
<g id="a_node7"><a xlink:href="string__util_8c.html#a0d0184489aca3b5345de818a5b6bd1c3" target="_top" xlink:title="strsplit">
<polygon fill="white" stroke="black" points="164.5,-0.5 164.5,-19.5 208.5,-19.5 208.5,-0.5 164.5,-0.5"/>
<text text-anchor="middle" x="186.5" y="-7.5" font-family="Helvetica,sans-Serif" font-size="10.00">strsplit</text>
</a>
</g>
</g>
<!-- Node1&#45;&gt;Node7 -->
<g id="edge7" class="edge"><title>Node1&#45;&gt;Node7</title>
<path fill="none" stroke="midnightblue" d="M63.5091,-95.044C78.8603,-79.3968 110.571,-48.7956 142,-29 146.14,-26.3922 150.7,-23.972 155.262,-21.7927"/>
<polygon fill="midnightblue" stroke="midnightblue" points="156.788,-24.9444 164.495,-17.6747 153.937,-18.5514 156.788,-24.9444"/>
</g>
<!-- Node4&#45;&gt;Node5 -->
<g id="edge4" class="edge"><title>Node4&#45;&gt;Node5</title>
<path fill="none" stroke="midnightblue" d="M231.092,-116.436C239.572,-114.965 248.425,-113.429 256.79,-111.977"/>
<polygon fill="midnightblue" stroke="midnightblue" points="257.439,-115.417 266.694,-110.259 256.242,-108.52 257.439,-115.417"/>
</g>
</g>
</svg>
