<?xml version="1.0" encoding="UTF-8" standalone="no"?>
<!DOCTYPE svg PUBLIC "-//W3C//DTD SVG 1.1//EN"
 "http://www.w3.org/Graphics/SVG/1.1/DTD/svg11.dtd">
<!-- Generated by graphviz version 2.38.0 (20140413.2041)
 -->
<!-- Title: get_x11_edids Pages: 1 -->
<svg width="438pt" height="28pt"
 viewBox="0.00 0.00 438.00 28.00" xmlns="http://www.w3.org/2000/svg" xmlns:xlink="http://www.w3.org/1999/xlink">
<g id="graph0" class="graph" transform="scale(1 1) rotate(0) translate(4 24)">
<title>get_x11_edids</title>
<polygon fill="white" stroke="none" points="-4,4 -4,-24 434,-24 434,4 -4,4"/>
<!-- Node1 -->
<g id="node1" class="node"><title>Node1</title>
<polygon fill="#bfbfbf" stroke="black" points="0,-0.5 0,-19.5 84,-19.5 84,-0.5 0,-0.5"/>
<text text-anchor="middle" x="42" y="-7.5" font-family="Helvetica,sans-Serif" font-size="10.00">get_x11_edids</text>
</g>
<!-- Node2 -->
<g id="node2" class="node"><title>Node2</title>
<g id="a_node2"><a xlink:href="string__util_8c.html#a5bb940b9beeb4a83bc7ca1b1917e6428" target="_top" xlink:title="hex_dump">
<polygon fill="white" stroke="black" points="120,-0.5 120,-19.5 183,-19.5 183,-0.5 120,-0.5"/>
<text text-anchor="middle" x="151.5" y="-7.5" font-family="Helvetica,sans-Serif" font-size="10.00">hex_dump</text>
</a>
</g>
</g>
<!-- Node1&#45;&gt;Node2 -->
<g id="edge1" class="edge"><title>Node1&#45;&gt;Node2</title>
<path fill="none" stroke="midnightblue" d="M84.2549,-10C92.5813,-10 101.331,-10 109.644,-10"/>
<polygon fill="midnightblue" stroke="midnightblue" points="109.875,-13.5001 119.875,-10 109.875,-6.5001 109.875,-13.5001"/>
</g>
<!-- Node3 -->
<g id="node3" class="node"><title>Node3</title>
<g id="a_node3"><a xlink:href="string__util_8c.html#ad09661a7569c3e45fca4825cb329137c" target="_top" xlink:title="fhex_dump">
<polygon fill="white" stroke="black" points="219,-0.5 219,-19.5 284,-19.5 284,-0.5 219,-0.5"/>
<text text-anchor="middle" x="251.5" y="-7.5" font-family="Helvetica,sans-Serif" font-size="10.00">fhex_dump</text>
</a>
</g>
</g>
<!-- Node2&#45;&gt;Node3 -->
<g id="edge2" class="edge"><title>Node2&#45;&gt;Node3</title>
<path fill="none" stroke="midnightblue" d="M183.239,-10C191.3,-10 200.131,-10 208.665,-10"/>
<polygon fill="midnightblue" stroke="midnightblue" points="208.857,-13.5001 218.857,-10 208.857,-6.5001 208.857,-13.5001"/>
</g>
<!-- Node4 -->
<g id="node4" class="node"><title>Node4</title>
<g id="a_node4"><a xlink:href="string__util_8c.html#ae90befb63fa82bf7029a37b5dc079bd5" target="_top" xlink:title="fhex_dump_indented">
<polygon fill="white" stroke="black" points="320,-0.5 320,-19.5 430,-19.5 430,-0.5 320,-0.5"/>
<text text-anchor="middle" x="375" y="-7.5" font-family="Helvetica,sans-Serif" font-size="10.00">fhex_dump_indented</text>
</a>
</g>
</g>
<!-- Node3&#45;&gt;Node4 -->
<g id="edge3" class="edge"><title>Node3&#45;&gt;Node4</title>
<path fill="none" stroke="midnightblue" d="M284.106,-10C292.075,-10 300.921,-10 309.866,-10"/>
<polygon fill="midnightblue" stroke="midnightblue" points="309.965,-13.5001 319.965,-10 309.965,-6.5001 309.965,-13.5001"/>
</g>
</g>
</svg>
