<?xml version="1.0" encoding="UTF-8" standalone="no"?>
<!DOCTYPE svg PUBLIC "-//W3C//DTD SVG 1.1//EN"
 "http://www.w3.org/Graphics/SVG/1.1/DTD/svg11.dtd">
<!-- Generated by graphviz version 2.38.0 (20140413.2041)
 -->
<!-- Title: x11_util.c Pages: 1 -->
<svg width="895pt" height="196pt"
 viewBox="0.00 0.00 895.00 196.00" xmlns="http://www.w3.org/2000/svg" xmlns:xlink="http://www.w3.org/1999/xlink">
<g id="graph0" class="graph" transform="scale(1 1) rotate(0) translate(4 192)">
<title>x11_util.c</title>
<polygon fill="white" stroke="none" points="-4,4 -4,-192 891,-192 891,4 -4,4"/>
<!-- Node1 -->
<g id="node1" class="node"><title>Node1</title>
<polygon fill="#bfbfbf" stroke="black" points="454.5,-168.5 454.5,-187.5 513.5,-187.5 513.5,-168.5 454.5,-168.5"/>
<text text-anchor="middle" x="484" y="-175.5" font-family="Helvetica,sans-Serif" font-size="10.00">x11_util.c</text>
</g>
<!-- Node2 -->
<g id="node2" class="node"><title>Node2</title>
<polygon fill="white" stroke="#bfbfbf" points="0,-112.5 0,-131.5 62,-131.5 62,-112.5 0,-112.5"/>
<text text-anchor="middle" x="31" y="-119.5" font-family="Helvetica,sans-Serif" font-size="10.00">X11/Xlib.h</text>
</g>
<!-- Node1&#45;&gt;Node2 -->
<g id="edge1" class="edge"><title>Node1&#45;&gt;Node2</title>
<path fill="none" stroke="midnightblue" d="M454.297,-174.92C387.719,-170.01 221.348,-156.373 72.601,-132.101"/>
<polygon fill="midnightblue" stroke="midnightblue" points="72.814,-128.589 62.3771,-130.411 71.6724,-135.495 72.814,-128.589"/>
</g>
<!-- Node3 -->
<g id="node3" class="node"><title>Node3</title>
<polygon fill="white" stroke="#bfbfbf" points="79.5,-112.5 79.5,-131.5 154.5,-131.5 154.5,-112.5 79.5,-112.5"/>
<text text-anchor="middle" x="117" y="-119.5" font-family="Helvetica,sans-Serif" font-size="10.00">X11/Xatom.h</text>
</g>
<!-- Node1&#45;&gt;Node3 -->
<g id="edge2" class="edge"><title>Node1&#45;&gt;Node3</title>
<path fill="none" stroke="midnightblue" d="M454.367,-173.331C399.395,-166.417 277.691,-150.61 164.55,-132.018"/>
<polygon fill="midnightblue" stroke="midnightblue" points="165.118,-128.564 154.681,-130.385 163.975,-135.471 165.118,-128.564"/>
</g>
<!-- Node4 -->
<g id="node4" class="node"><title>Node4</title>
<polygon fill="white" stroke="#bfbfbf" points="173,-112.5 173,-131.5 301,-131.5 301,-112.5 173,-112.5"/>
<text text-anchor="middle" x="237" y="-119.5" font-family="Helvetica,sans-Serif" font-size="10.00">X11/extensions/Xrandr.h</text>
</g>
<!-- Node1&#45;&gt;Node4 -->
<g id="edge3" class="edge"><title>Node1&#45;&gt;Node4</title>
<path fill="none" stroke="midnightblue" d="M454.206,-170.486C412.552,-161.38 336.398,-144.731 286.24,-133.765"/>
<polygon fill="midnightblue" stroke="midnightblue" points="286.779,-130.3 276.263,-131.584 285.284,-137.139 286.779,-130.3"/>
</g>
<!-- Node5 -->
<g id="node5" class="node"><title>Node5</title>
<polygon fill="white" stroke="#bfbfbf" points="319.5,-112.5 319.5,-131.5 366.5,-131.5 366.5,-112.5 319.5,-112.5"/>
<text text-anchor="middle" x="343" y="-119.5" font-family="Helvetica,sans-Serif" font-size="10.00">stdlib.h</text>
</g>
<!-- Node1&#45;&gt;Node5 -->
<g id="edge4" class="edge"><title>Node1&#45;&gt;Node5</title>
<path fill="none" stroke="midnightblue" d="M461.658,-168.444C438.247,-159.478 401.264,-145.314 374.81,-135.183"/>
<polygon fill="midnightblue" stroke="midnightblue" points="375.828,-131.824 365.237,-131.516 373.324,-138.361 375.828,-131.824"/>
</g>
<!-- Node6 -->
<g id="node6" class="node"><title>Node6</title>
<polygon fill="white" stroke="#bfbfbf" points="385,-112.5 385,-131.5 437,-131.5 437,-112.5 385,-112.5"/>
<text text-anchor="middle" x="411" y="-119.5" font-family="Helvetica,sans-Serif" font-size="10.00">stddef.h</text>
</g>
<!-- Node1&#45;&gt;Node6 -->
<g id="edge5" class="edge"><title>Node1&#45;&gt;Node6</title>
<path fill="none" stroke="midnightblue" d="M472.271,-168.324C461.163,-160.107 444.258,-147.602 431.017,-137.807"/>
<polygon fill="midnightblue" stroke="midnightblue" points="433.063,-134.967 422.942,-131.834 428.9,-140.595 433.063,-134.967"/>
</g>
<!-- Node7 -->
<g id="node7" class="node"><title>Node7</title>
<polygon fill="white" stroke="#bfbfbf" points="331,-56.5 331,-75.5 377,-75.5 377,-56.5 331,-56.5"/>
<text text-anchor="middle" x="354" y="-63.5" font-family="Helvetica,sans-Serif" font-size="10.00">stdio.h</text>
</g>
<!-- Node1&#45;&gt;Node7 -->
<g id="edge6" class="edge"><title>Node1&#45;&gt;Node7</title>
<path fill="none" stroke="midnightblue" d="M480.856,-168.351C475.545,-154.785 463.626,-128.365 446,-112 429.023,-96.2373 405.497,-84.8632 386.485,-77.4935"/>
<polygon fill="midnightblue" stroke="midnightblue" points="387.607,-74.1767 377.013,-74.0026 385.186,-80.7449 387.607,-74.1767"/>
</g>
<!-- Node8 -->
<g id="node8" class="node"><title>Node8</title>
<polygon fill="white" stroke="#bfbfbf" points="769,-112.5 769,-131.5 817,-131.5 817,-112.5 769,-112.5"/>
<text text-anchor="middle" x="793" y="-119.5" font-family="Helvetica,sans-Serif" font-size="10.00">string.h</text>
</g>
<!-- Node1&#45;&gt;Node8 -->
<g id="edge7" class="edge"><title>Node1&#45;&gt;Node8</title>
<path fill="none" stroke="midnightblue" d="M513.795,-172.73C563.824,-165.409 667.8,-149.545 755,-132 756.271,-131.744 757.564,-131.476 758.87,-131.2"/>
<polygon fill="midnightblue" stroke="midnightblue" points="759.93,-134.55 768.932,-128.961 758.41,-127.717 759.93,-134.55"/>
</g>
<!-- Node9 -->
<g id="node9" class="node"><title>Node9</title>
<polygon fill="white" stroke="#bfbfbf" points="835,-112.5 835,-131.5 887,-131.5 887,-112.5 835,-112.5"/>
<text text-anchor="middle" x="861" y="-119.5" font-family="Helvetica,sans-Serif" font-size="10.00">assert.h</text>
</g>
<!-- Node1&#45;&gt;Node9 -->
<g id="edge8" class="edge"><title>Node1&#45;&gt;Node9</title>
<path fill="none" stroke="midnightblue" d="M513.93,-174.29C572.006,-168.77 704.155,-154.927 824.578,-132.074"/>
<polygon fill="midnightblue" stroke="midnightblue" points="825.546,-135.452 834.704,-130.125 824.223,-128.578 825.546,-135.452"/>
</g>
<!-- Node10 -->
<g id="node10" class="node"><title>Node10</title>
<polygon fill="white" stroke="#bfbfbf" points="683,-0.5 683,-19.5 723,-19.5 723,-0.5 683,-0.5"/>
<text text-anchor="middle" x="703" y="-7.5" font-family="Helvetica,sans-Serif" font-size="10.00">glib.h</text>
</g>
<!-- Node1&#45;&gt;Node10 -->
<g id="edge9" class="edge"><title>Node1&#45;&gt;Node10</title>
<path fill="none" stroke="midnightblue" d="M513.819,-173.831C563.042,-168.031 658.322,-154.22 683,-132 711.521,-106.319 709.794,-56.8155 706.274,-29.7677"/>
<polygon fill="midnightblue" stroke="midnightblue" points="709.705,-29.0448 704.739,-19.6856 702.785,-30.0985 709.705,-29.0448"/>
</g>
<!-- Node11 -->
<g id="node11" class="node"><title>Node11</title>
<polygon fill="white" stroke="#bfbfbf" points="395.5,-56.5 395.5,-75.5 452.5,-75.5 452.5,-56.5 395.5,-56.5"/>
<text text-anchor="middle" x="424" y="-63.5" font-family="Helvetica,sans-Serif" font-size="10.00">stdbool.h</text>
</g>
<!-- Node1&#45;&gt;Node11 -->
<g id="edge10" class="edge"><title>Node1&#45;&gt;Node11</title>
<path fill="none" stroke="midnightblue" d="M485.377,-168.424C487.036,-155.411 488.529,-130.262 479,-112 472.335,-99.2265 460.306,-88.7426 449.193,-81.1175"/>
<polygon fill="midnightblue" stroke="midnightblue" points="450.909,-78.0603 440.597,-75.626 447.14,-83.9593 450.909,-78.0603"/>
</g>
<!-- Node12 -->
<g id="node12" class="node"><title>Node12</title>
<g id="a_node12"><a xlink:href="string__util_8h.html" target="_top" xlink:title="string_util.h">
<polygon fill="white" stroke="black" points="531.5,-112.5 531.5,-131.5 596.5,-131.5 596.5,-112.5 531.5,-112.5"/>
<text text-anchor="middle" x="564" y="-119.5" font-family="Helvetica,sans-Serif" font-size="10.00">string_util.h</text>
</a>
</g>
</g>
<!-- Node1&#45;&gt;Node12 -->
<g id="edge11" class="edge"><title>Node1&#45;&gt;Node12</title>
<path fill="none" stroke="midnightblue" d="M496.853,-168.324C509.216,-159.979 528.13,-147.212 542.737,-137.352"/>
<polygon fill="midnightblue" stroke="midnightblue" points="544.848,-140.15 551.179,-131.655 540.932,-134.348 544.848,-140.15"/>
</g>
<!-- Node16 -->
<g id="node16" class="node"><title>Node16</title>
<g id="a_node16"><a xlink:href="x11__util_8h.html" target="_top" xlink:title="x11_util.h">
<polygon fill="white" stroke="black" points="614.5,-112.5 614.5,-131.5 673.5,-131.5 673.5,-112.5 614.5,-112.5"/>
<text text-anchor="middle" x="644" y="-119.5" font-family="Helvetica,sans-Serif" font-size="10.00">x11_util.h</text>
</a>
</g>
</g>
<!-- Node1&#45;&gt;Node16 -->
<g id="edge18" class="edge"><title>Node1&#45;&gt;Node16</title>
<path fill="none" stroke="midnightblue" d="M509.352,-168.444C536.269,-159.359 578.996,-144.939 609.087,-134.783"/>
<polygon fill="midnightblue" stroke="midnightblue" points="610.41,-138.031 618.766,-131.516 608.172,-131.398 610.41,-138.031"/>
</g>
<!-- Node12&#45;&gt;Node7 -->
<g id="edge14" class="edge"><title>Node12&#45;&gt;Node7</title>
<path fill="none" stroke="midnightblue" d="M531.334,-112.875C495.782,-103.99 437.283,-89.2477 387,-76 386.9,-75.9735 386.799,-75.947 386.698,-75.9204"/>
<polygon fill="midnightblue" stroke="midnightblue" points="387.63,-72.5467 377.065,-73.3451 385.822,-79.3092 387.63,-72.5467"/>
</g>
<!-- Node12&#45;&gt;Node11 -->
<g id="edge12" class="edge"><title>Node12&#45;&gt;Node11</title>
<path fill="none" stroke="midnightblue" d="M541.817,-112.444C518.572,-103.478 481.851,-89.314 455.585,-79.1827"/>
<polygon fill="midnightblue" stroke="midnightblue" points="456.669,-75.8497 446.08,-75.5164 454.15,-82.3807 456.669,-75.8497"/>
</g>
<!-- Node13 -->
<g id="node13" class="node"><title>Node13</title>
<polygon fill="white" stroke="#bfbfbf" points="470.5,-56.5 470.5,-75.5 517.5,-75.5 517.5,-56.5 470.5,-56.5"/>
<text text-anchor="middle" x="494" y="-63.5" font-family="Helvetica,sans-Serif" font-size="10.00">stdint.h</text>
</g>
<!-- Node12&#45;&gt;Node13 -->
<g id="edge13" class="edge"><title>Node12&#45;&gt;Node13</title>
<path fill="none" stroke="midnightblue" d="M552.753,-112.324C542.203,-104.185 526.199,-91.8395 513.558,-82.0874"/>
<polygon fill="midnightblue" stroke="midnightblue" points="515.507,-79.1707 505.451,-75.8339 511.231,-84.7132 515.507,-79.1707"/>
</g>
<!-- Node14 -->
<g id="node14" class="node"><title>Node14</title>
<g id="a_node14"><a xlink:href="coredefs_8h.html" target="_top" xlink:title="coredefs.h">
<polygon fill="white" stroke="black" points="611,-56.5 611,-75.5 675,-75.5 675,-56.5 611,-56.5"/>
<text text-anchor="middle" x="643" y="-63.5" font-family="Helvetica,sans-Serif" font-size="10.00">coredefs.h</text>
</a>
</g>
</g>
<!-- Node12&#45;&gt;Node14 -->
<g id="edge15" class="edge"><title>Node12&#45;&gt;Node14</title>
<path fill="none" stroke="midnightblue" d="M576.693,-112.324C588.901,-103.979 607.578,-91.2122 622.003,-81.3524"/>
<polygon fill="midnightblue" stroke="midnightblue" points="624.058,-84.1871 630.339,-75.6545 620.108,-78.4082 624.058,-84.1871"/>
</g>
<!-- Node15 -->
<g id="node15" class="node"><title>Node15</title>
<g id="a_node15"><a xlink:href="glib__util_8h.html" target="_top" xlink:title="glib_util.h">
<polygon fill="white" stroke="black" points="535.5,-56.5 535.5,-75.5 592.5,-75.5 592.5,-56.5 535.5,-56.5"/>
<text text-anchor="middle" x="564" y="-63.5" font-family="Helvetica,sans-Serif" font-size="10.00">glib_util.h</text>
</a>
</g>
</g>
<!-- Node12&#45;&gt;Node15 -->
<g id="edge16" class="edge"><title>Node12&#45;&gt;Node15</title>
<path fill="none" stroke="midnightblue" d="M564,-112.083C564,-105.006 564,-94.8611 564,-85.9865"/>
<polygon fill="midnightblue" stroke="midnightblue" points="567.5,-85.751 564,-75.7511 560.5,-85.7511 567.5,-85.751"/>
</g>
<!-- Node15&#45;&gt;Node10 -->
<g id="edge17" class="edge"><title>Node15&#45;&gt;Node10</title>
<path fill="none" stroke="midnightblue" d="M586.025,-56.4435C609.647,-47.2666 647.285,-32.6446 673.464,-22.4744"/>
<polygon fill="midnightblue" stroke="midnightblue" points="674.829,-25.6988 682.883,-18.8151 672.295,-19.1739 674.829,-25.6988"/>
</g>
<!-- Node16&#45;&gt;Node10 -->
<g id="edge19" class="edge"><title>Node16&#45;&gt;Node10</title>
<path fill="none" stroke="midnightblue" d="M653.927,-112.296C662.977,-103.856 676.104,-90.2668 684,-76 692.006,-61.5347 696.95,-43.3478 699.78,-29.8928"/>
<polygon fill="midnightblue" stroke="midnightblue" points="703.252,-30.3668 701.68,-19.8892 696.375,-29.0601 703.252,-30.3668"/>
</g>
<!-- Node16&#45;&gt;Node14 -->
<g id="edge20" class="edge"><title>Node16&#45;&gt;Node14</title>
<path fill="none" stroke="midnightblue" d="M643.835,-112.083C643.704,-105.006 643.516,-94.8611 643.352,-85.9865"/>
<polygon fill="midnightblue" stroke="midnightblue" points="646.847,-85.6845 643.162,-75.7511 639.848,-85.8142 646.847,-85.6845"/>
</g>
</g>
</svg>
